<?xml version="1.0" encoding="utf-8"?>
<!-- Generator: Adobe Illustrator 27.2.0, SVG Export Plug-In . SVG Version: 6.00 Build 0)  -->
<svg version="1.1" id="Layer_1" xmlns="http://www.w3.org/2000/svg" xmlns:xlink="http://www.w3.org/1999/xlink" x="0px" y="0px"
	 viewBox="0 0 500 500" style="enable-background:new 0 0 500 500;" xml:space="preserve">
<style type="text/css">
	.st0{fill:#808080;}
</style>
<g>
	<path class="st0" d="M257.4,76.7c-95.8,0-173.7,77.7-173.7,173.3c0,95.6,77.9,173.4,173.7,173.4c95.8,0,173.7-77.8,173.7-173.4
		C431.1,154.5,353.2,76.7,257.4,76.7z M257.4,413.4c-90.3,0-163.7-73.3-163.7-163.4c0-90,73.4-163.3,163.7-163.3
		c90.3,0,163.7,73.3,163.7,163.3C421.1,340.1,347.6,413.4,257.4,413.4z"/>
	<path class="st0" d="M238.8,141c47.9-8.1,96.4,16.6,117.9,60.1c1.2,2.5,4.2,3.5,6.7,2.3c2.5-1.2,3.5-4.2,2.3-6.7
		c-11.6-23.4-30-42.1-53.4-54c-23.3-11.9-49.3-15.9-75.1-11.5c-25.8,4.4-49,16.7-67.2,35.6c-18.1,18.9-29.4,42.6-32.6,68.6
		c-3.2,25.9,2,51.6,14.9,74.3c13,22.8,32.5,40.3,56.5,50.8c0.7,0.3,1.3,0.4,2,0.4c1.9,0,3.8-1.1,4.6-3c1.1-2.5,0-5.5-2.6-6.6
		c-44.4-19.4-71.3-66.6-65.5-114.8C153.2,188.4,190.9,149.1,238.8,141z"/>
	<path class="st0" d="M372.1,266.2c-2.7-0.5-5.3,1.3-5.8,4c-10.5,56.2-61.3,94.9-118.3,90.1c-2.7-0.2-5.2,1.8-5.4,4.6
		c-0.2,2.8,1.8,5.2,4.6,5.4c3.4,0.3,6.8,0.4,10.2,0.4c26.3,0,52-8.6,73.1-24.7c23.9-18.2,40.1-44.4,45.6-73.9
		C376.6,269.3,374.8,266.7,372.1,266.2z"/>
	<path class="st0" d="M366.7,251.3v1c0,2.8,2.2,5,5,5s5-2.2,5-5v-1c0-2.8-2.2-5-5-5S366.7,248.5,366.7,251.3z"/>
	<path class="st0" d="M74.2,87.2c-0.4-2.7-2.9-4.6-5.6-4.3c-2.7,0.4-4.6,2.9-4.3,5.6c8.6,62.3,4.6,95-11.9,97.3
		c-2.7,0.4-4.6,2.9-4.3,5.6c0.2,1.4,0.9,2.5,2,3.3c-0.2,2.9,0.1,10.4,0.9,33.3c0.7,19.5,1.7,45.5,2.7,71.5
		c1.8,46.6,3.9,99.3,3.8,103.7c0,0.1,0,0.1,0,0.2c-0.1,2.4-4.3,5.3-9.6,5.6c-2.8,0.2-9.5-0.2-11.3-7.7l8.1-205.2
		c0-0.7-0.1-1.4-0.3-2c0.8-0.8,1.4-1.8,1.5-3c0.4-2.7-1.5-5.3-4.3-5.6c-11.9-1.7-23.8-20.1-12.9-98.8c0.4-2.7-1.5-5.3-4.3-5.6
		c-2.7-0.4-5.3,1.5-5.6,4.3c-4.7,34.2-5.6,60.6-2.5,78.5c2.8,16.4,9.1,26.6,18.7,30.3c-0.2,0.5-0.3,1.1-0.4,1.7l-8.1,205.9
		c0,0.4,0,0.8,0.1,1.1c2,10.1,9.8,16.3,20.1,16.3c0.6,0,1.1,0,1.7-0.1c10.3-0.7,18.4-7.1,18.9-15l-0.1,0c0.2-2.9-0.1-10.3-0.9-33.4
		c-0.7-19.5-1.7-45.5-2.8-71.5C62,252.7,59.9,200,60,195.5c0.1-0.5,0-1-0.1-1.5C78.8,185.9,83.2,152.3,74.2,87.2z"/>
	<path class="st0" d="M35.7,145.5c0.1,0,0.2,0,0.3,0c2.6,0,4.8-2.1,5-4.7l3.1-54.5c0.2-2.8-2-5.1-4.7-5.3c-2.7-0.2-5.1,2-5.3,4.7
		L31,140.2C30.9,143,33,145.4,35.7,145.5z"/>
	<path class="st0" d="M56.7,145.5c0.1,0,0.2,0,0.3,0c2.8-0.1,4.9-2.5,4.7-5.3l-2.9-54.5c-0.1-2.8-2.5-4.8-5.3-4.7
		c-2.8,0.1-4.9,2.5-4.7,5.3l2.9,54.5C51.8,143.5,54,145.5,56.7,145.5z"/>
	<path class="st0" d="M484.3,395.3c-0.6-14.3-1.4-33.3-2.2-52.4c-1.5-33.8-3.1-72.1-3.1-75.7c0-0.1,0-0.2,0-0.3l6.4-183.1
		c0-0.6-0.1-1.1-0.2-1.7c-2.5-7.9-10.6-13.9-18.7-14c0,0,0,0,0,0c-4,0-13.6,1.6-18.2,15.9c0,0.1-0.1,0.2-0.1,0.3
		c-17.4,69.6-13.8,148.9-0.5,183.4l0,1.2c0,0.2-0.1,0.4-0.1,0.6c0,0.3,0,0.6,0.1,0.9l-3.4,147.4c0,0.5,0,0.9,0.2,1.4
		c2,7.8,9.8,12.5,20.1,12.5c1,0,2,0,3-0.1c8.3-0.7,17-4.6,17.6-11.7l-0.1,0C485.2,417.6,485,411.9,484.3,395.3z M469.1,266.6
		c-0.1,2.5,0.1,8.4,0.8,24.4c0.6,14.3,1.4,33.3,2.2,52.3c1.4,33.2,3,70.7,3.1,75.5c-1.2,1.4-7.1,3.6-13.6,2.7
		c-2.2-0.3-6-1.3-7.2-4.2l3.3-142.2l4.9,0.2c0.1,0,0.1,0,0.2,0c2.7,0,4.9-2.1,5-4.8c0.1-2.8-2-5.1-4.8-5.2l-5.5-0.2
		c-13.1-32.6-16.1-111.9,0.5-178c1.3-4,3.9-8.8,8.6-8.8c0,0,0,0,0,0c3.6,0,7.5,2.8,8.9,6.3L469.1,266.6L469.1,266.6z"/>
</g>
</svg>
