<?xml version="1.0" encoding="utf-8"?>
<!-- Generator: Adobe Illustrator 27.2.0, SVG Export Plug-In . SVG Version: 6.00 Build 0)  -->
<svg version="1.1" id="Layer_1" xmlns="http://www.w3.org/2000/svg" xmlns:xlink="http://www.w3.org/1999/xlink" x="0px" y="0px"
	 viewBox="0 0 500 500" style="enable-background:new 0 0 500 500;" xml:space="preserve">
<style type="text/css">
	.st0{fill:#808080;}
</style>
<g>
	<path class="st0" d="M135,131.1c1.3,1.6,2.7,3.1,4.2,4.6c21.2,21.5,56.5,31.6,92.4,31.6c24.8,0,49.8-4.8,70.6-14.1
		c2.3-1,3.3-3.7,2.3-6c-1-2.3-3.7-3.3-6-2.3c-2.2,1-4.5,1.9-6.8,2.8c-24.6,9.3-54.9,12.7-82.5,9.2c-30.5-3.9-54.5-15.5-68.2-32.8
		c-0.7-0.9-1.4-1.9-2.1-2.9c-0.2-0.2-0.3-0.4-0.5-0.6c-1.4-2.1-4.2-2.6-6.3-1.2c-0.7,0.5-1.2,1.1-1.6,1.9c-0.6,1.4-0.6,3.1,0.4,4.4
		C132.1,127.5,133.5,129.4,135,131.1z"/>
	<path class="st0" d="M488.2,214.4c-0.7-3.7-4.2-15.3-22.5-15.1c-2.9-12.2-6.9-22-11.5-30.2c2-1.6,3.7-3.5,5.1-5.6
		c2-2.9,3.4-6.1,4-9.5c6.6-1.2,12.6-5,16.4-10.7c7.8-11.5,4.7-27.3-6.9-35.3c-1.9-1.3-3.9-2.3-6.2-3c-0.7-7.5-4.7-14.3-11-18.5
		c-0.7-0.4-1.3-0.8-2-1.2l0.7-34.5c0-1.5-0.7-3-2-3.8c-1.3-0.9-2.9-1-4.3-0.4c-14.5,6.1-28.7,11.9-42.8,17.1c-0.4,0.1-0.7,0.2-1,0.4
		C290.1,106,187.4,114.9,57,51.1c-1.4-0.7-3.1-0.6-4.4,0.2c-1.3,0.8-2.1,2.3-2.1,3.8v35.8c-2.8,1.8-5.2,4.2-7.1,7
		c-1.5,2.1-2.6,4.4-3.3,6.9c-7.1,0.9-13.4,4.8-17.5,10.9c-7.9,11.5-4.9,27.3,6.8,35.3c2.1,1.4,4.2,2.4,6.5,3.1
		c0,6.5,2.6,12.8,7.1,17.4l-0.4,4.8c-2.3,4.5-4.4,9.5-6.4,15.1c-18.1-2-22.8,9.1-23.9,12.8c-2.3,8.1,1.2,17,7.7,19.6
		c1.9,0.8,5.6,1.5,9.9-1c0.6,1.5,1.6,3,3,4.3c1.9,1.8,3.8,2.9,5.5,3.6L24.1,414.6c-1.5,16.8,8.4,22,12.7,23.4c3,1,6.5,1.3,9.5,0.8
		c2.7,5.2,7.9,8.6,14.4,9.2c5.9,0.6,12.7-1.2,17.4-5.3c5.4,7.1,12.9,11.2,20.7,11.2c0.4,0,0.9,0,1.4,0c5.7-0.4,10.7-2.9,14.5-7.2
		c0.4,0.4,0.8,0.7,1.2,1c5.5,4.1,14.9,4.3,22.8,0.6c5.3-2.5,9.2-6.4,11.4-11.1c1.5,1.5,3.5,2.9,6.3,2.9c4.2,0,8.2-2.9,13.8-9.8
		c0.8-0.9,1.1-2.1,1-3.3l-24.5-223.6c29.2,12.1,62.7,18.4,98.3,18.4c2.9,0,5.9,0,8.9-0.1c33-1,65.3-7.4,94.1-18.3l-24.2,221
		c-0.1,1.2,0.2,2.4,1,3.3c5.5,6.8,9.5,9.7,13.6,9.7c2.9,0,4.9-1.4,6.4-2.9c2.1,4.7,6,8.6,11.3,11.1c7.9,3.8,17.4,3.6,22.9-0.5
		c0.4-0.3,0.8-0.7,1.2-1c3.8,4.2,8.8,6.8,14.5,7.1c0.5,0,0.9,0,1.4,0c7.8,0,15.3-4.1,20.7-11.3c4.5,3.9,11,6,17.6,5.3
		c6.4-0.7,11.5-4.1,14.2-9.2c3,0.5,6.6,0.2,9.5-0.8c4.4-1.4,14.3-6.6,12.7-23.4l-13.4-173.5c2.4-0.2,5.2-1.1,8.2-3.5
		c1.6-1.2,2.7-2.5,3.4-4c4,2.9,7.7,2.6,9.7,2C485.2,231.2,489.6,222.6,488.2,214.4z M476.1,224.4c-1.4,0.4-4.5-1.8-7.6-9.6
		c-0.9-2.3-3.4-3.4-5.7-2.6c-2.3,0.8-3.5,3.3-2.8,5.6c1.9,5.7,1.8,8.6-0.1,10c-1.3,1-2.4,1.5-3.4,1.6c-0.6,0.1-1.1,0-1.5-0.2
		c-1.9-0.8-3.6-3.7-4-7c-0.5-3.8,0.6-7.2,3-9.1l0.3-0.2c0.3-0.2,0.7-0.5,1-0.7c2.6-1.9,4.6-3.2,8.4-4c9.1-0.6,14.8,2.1,15.8,7.6
		C480,220,477.8,223.9,476.1,224.4z M39.1,220.6c-1.8-1.7-1.5-4.6,0.8-9.8c0-0.1,0-0.1,0.1-0.2c0.5-1.1,0.5-2.2,0.2-3.2
		c-0.4-1.1-1.2-2.2-2.3-2.7c-0.6-0.3-1.3-0.5-2-0.5c-1.6,0-3.2,0.9-4,2.4c-3.8,7.4-7.2,9.3-8.5,8.8c-1.7-0.7-3.5-4.7-2.3-8.7
		c1.5-5.3,7.5-7.5,16.4-6c1.2,0.4,2.3,0.9,3.2,1.3c2.3,1.2,3.8,2.6,5.7,4.5c0,0,0.1,0.1,0.1,0.1c1.7,1.5,2.3,3.7,2.4,5.9
		c0,1,0,2-0.2,3c0,0.2-0.1,0.3-0.1,0.5c-0.8,3.2-2.7,5.9-4.6,6.5C42.5,223,40.9,222.3,39.1,220.6C39.1,220.6,39.1,220.6,39.1,220.6z
		 M44.3,148c-0.7-1-1.8-1.6-3-1.8c-2.6-0.4-4.9-1.3-7-2.7c-7.6-5.2-9.5-15.2-4.4-22.7c0,0,0,0,0,0c3-4.5,8-7.1,13.3-7.1
		c0.1,0,0.2,0,0.4,0c2.2,0,4.1-1.6,4.5-3.8c0.4-2.5,1.3-4.8,2.7-6.8c0-0.1,0.1-0.1,0.1-0.2c1.1-1.6,2.5-3,4.1-4.1
		c1.4-1,2.9-1.7,4.5-2.2c0.6-0.2,1.1-0.3,1.7-0.4c4.3-0.8,8.7,0.1,12.3,2.5c4.7,3.2,7.4,8.7,7.1,14.3c-0.1,2.3,1.5,4.3,3.7,4.7
		c0.7,0.1,1.4,0.3,2.1,0.5c0.4,0.1,0.9,0.3,1.3,0.5c-0.9,0.6-1.7,1.2-2.5,2c-2.6,2.4-4.5,5.4-5.4,8.8c-0.3,0.8-0.4,1.7-0.6,2.6
		c0-1-0.1-2.1-0.3-3.1c-1-5-3.8-9.3-8-12.1c-2-1.4-4.2-2.3-6.5-2.8c-1.7-0.4-3.4-0.5-5-0.4c-1.5,0.1-3.1,0.3-4.6,0.7
		c-4.1,1.2-7.8,3.7-10.4,7.5c-4.6,6.8-4.2,15.6,0.5,22c1.2,1.7,2.8,3.2,4.6,4.5c1.2,0.9,2.6,1.5,3.9,2.1c2,0.8,4.2,1.2,6.3,1.2
		c0.1,0,0.3,0,0.4,0c1.2,0,2.4-0.1,3.6-0.3c2-0.4,3.9-1.1,5.6-2c-0.2,1.8-0.1,3.5,0.2,5.3c0.4,2.1,1.1,4.1,2.2,6
		c0.7,1.2,1.4,2.3,2.3,3.2c-2.4,3.2-5.9,5.4-9.9,6.2c-2.5,0.5-5,0.4-7.4-0.3c-1.6-0.5-3.2-1.2-4.6-2.1c-0.1-0.1-0.2-0.1-0.3-0.2
		c-1-0.7-2-1.5-2.8-2.4c-3.4-3.6-4.9-8.6-4.1-13.6c0.2-0.9,0-1.9-0.4-2.8C44.6,148.4,44.4,148.2,44.3,148z M59.5,62.3
		c67.9,32.2,132.6,46.3,197.6,43.3c41.6-1.9,84.4-10.6,133.6-27.4c-26.7,24.7-63.8,36.5-85.5,41.6c-1.5,0.3-2.9,0.7-4.3,1
		c-35.4,7.7-61.4,6.1-65.3,3.5c-1.4-1.8-4-2.4-6-1.1c-2.1,1.3-2.8,4.1-1.5,6.2c1.5,2.4,4.9,5.2,18.6,5.9c1.9,0.1,4,0.2,6.2,0.2
		c19.4,0,50.4-4,81.1-14.8c28.3-9.9,56.5-25.5,75.1-49c11.6-4.3,23.7-9,36.1-14.2l-0.5,24.9c-2.7-0.3-5.4-0.3-8.1,0.2
		c-6.7,1.3-12.5,5.1-16.2,10.6c-1.5,2.1-2.6,4.4-3.3,6.9c-7.1,0.9-13.4,4.8-17.5,10.9c-2,3-3.3,6.3-4,9.7c-0.2,0.9-0.3,1.7-0.3,2.6
		c-4.3-0.7-8.8,0-12.7,2.2c-4.5,2.5-7.7,6.6-9,11.7c-0.4,1.5-0.6,3.1-0.6,4.7c-4.4,2.4-7.7,6.5-9.2,11.5c0,0,0,0.1,0,0.1
		c-0.4,1.6-0.6,3.2-0.7,4.9c-0.5,0.3-0.9,0.5-1.4,0.8c-3.1,1.7-6.3,3.4-9.6,5c-28.3,13.8-63.5,23.9-100.6,25.3
		c-31.7,1.2-72.1-3.4-109.4-26.1c-3.3-2-6.6-4.2-9.8-6.4c-0.6-0.4-1.2-0.8-1.7-1.2c0.5-0.8,0.9-1.6,1.3-2.4c0.4-0.9,0.8-1.9,1.1-2.8
		c1.6-5.7,0.4-11.4-2.7-16c-2.5-3.6-6.1-6.4-10.6-7.6c0,0-0.1,0-0.1,0c-1.4-0.4-2.8-0.5-4.2-0.6c-0.9-1.7-2-3.3-3.4-4.7
		c-2.3-2.3-5.3-4.1-8.6-5c-1.4-0.4-2.8-0.6-4.2-0.7c-1-1-2.2-1.9-3.4-2.8c-1.9-1.3-4-2.3-6.2-3.1c-0.7-7.4-4.7-14.3-11-18.5
		c-5.6-3.8-12.4-5.2-19-3.9c0,0,0,0,0,0V62.3z M461.5,112.9c2.5,0.4,4.6,1.2,6.3,2.4c7.5,5.1,9.5,15.3,4.5,22.7
		c-3,4.3-7.9,7-13.1,7.1c-2.4,0-4.3,2-4.4,4.4c-0.1,3.2-1.1,6.1-2.9,8.7c-0.2,0.4-0.5,0.7-0.8,1c-0.5,0.7-1.1,1.3-1.8,1.9
		c-1.9,1.8-4.3,3.1-6.8,3.7c-0.3,0.1-0.7,0.2-1,0.3c-0.1,0-0.2,0-0.3,0c-4.2,0.7-8.4-0.2-12-2.6c-1.1-0.7-2-1.6-2.9-2.5
		c-0.1-0.1-0.2-0.2-0.3-0.4c0.1-0.2,0.2-0.4,0.3-0.7c0.2-0.6,0.4-1.1,0.6-1.7c0.7-2.5,0.9-5,0.5-7.5c0-0.2-0.1-0.4-0.1-0.6
		c-0.3-1.6-0.7-3.2-1.4-4.8c-0.2-0.6-0.5-1.1-0.8-1.6c-0.5-0.8-1-1.6-1.6-2.3c-0.1-0.2-0.2-0.3-0.4-0.5c0.1,0.1,0.3,0.3,0.4,0.4
		c1,1.1,2.1,2,3.3,2.9c0,0,0.1,0.1,0.1,0.1c1.3,0.9,2.6,1.5,4,2.1c2.1,0.8,4.3,1.2,6.6,1.2c0,0,0.1,0,0.1,0c1.2,0,2.4-0.1,3.5-0.4
		c3.2-0.6,6.2-2,8.7-4.1c1.3-1.1,2.5-2.3,3.5-3.8c2.9-4.3,3.9-9.4,2.9-14.4c-0.9-4.6-3.4-8.5-7.1-11.3c-0.3-0.2-0.6-0.5-1-0.7
		c-0.9-0.7-1.9-1.2-3-1.7c-1.4-0.6-2.8-1.1-4.3-1.3c-2.3-0.4-4.6-0.4-7,0c-5,0.9-9.3,3.8-12.2,8c-2.4,3.5-3.5,7.7-3.2,11.8
		c0.1,0.8,0.1,1.6,0.3,2.5c0,0.1,0,0.2,0.1,0.3c0.6,2.9,1.9,5.6,3.7,7.9c-2.4-2.7-5.6-4.7-9.2-5.7c-0.1,0-0.3-0.1-0.4-0.1
		c0,0-0.1,0-0.1,0c-0.9-0.2-1.8-0.3-2.8-0.4c-0.3,0-0.6-0.1-0.9-0.1c-0.6-1.2-1.3-2.3-2.2-3.3c-0.8-1-1.7-1.9-2.6-2.7
		c-0.1-0.4-0.1-0.8-0.1-1.2c-0.1-1.9,0.1-3.8,0.7-5.6c0.5-1.6,1.2-3.1,2.2-4.5c0,0,0,0,0,0c3-4.5,8-7.1,13.3-7.1c0.1,0,0.2,0,0.3,0
		c2.3,0.1,4.2-1.6,4.5-3.8c0.4-2.5,1.3-4.8,2.7-6.8c2.4-3.6,6.1-6.1,10.4-6.9c2.1-0.4,4.2-0.4,6.2,0c1.5,0.3,3.1,0.8,4.5,1.6
		c0.6,0.3,1.1,0.6,1.7,1c1,0.7,1.9,1.5,2.8,2.4c3,3.1,4.5,7.4,4.3,11.9C457.6,110.5,459.2,112.5,461.5,112.9z M422.9,206.3
		c-1.8,2.9-4.9,4.3-6.9,4.2c-0.4,0-0.7-0.1-1-0.2c-1.6-0.8-2.2-4.9,0.4-12.3c0.2-0.6,0.3-1.1,0.3-1.7c0-0.2,0-0.4-0.1-0.5
		c0-0.1,0-0.2-0.1-0.3c0-0.1-0.1-0.2-0.1-0.3c-0.2-0.6-0.5-1.2-0.9-1.6c-0.5-0.5-1-1-1.7-1.2c-0.4-0.2-0.9-0.2-1.3-0.3
		c-0.1,0-0.2,0-0.3,0c0,0,0,0-0.1,0c0,0-0.1,0-0.1,0c-0.2,0-0.5,0-0.7,0.1c-0.1,0-0.2,0-0.2,0.1c-0.2,0.1-0.4,0.1-0.6,0.2
		c0,0-0.1,0-0.1,0.1c-0.2,0.1-0.5,0.2-0.7,0.4c-0.1,0-0.1,0.1-0.2,0.1c-0.2,0.1-0.3,0.3-0.5,0.4c-0.1,0.1-0.1,0.1-0.2,0.2
		c-0.1,0.2-0.3,0.3-0.4,0.5c0,0.1-0.1,0.1-0.1,0.2c-0.1,0.1-0.2,0.3-0.2,0.4c0,0.1-0.1,0.2-0.1,0.2c-2.3,5.5-4.1,7.5-6.6,7.3
		c-4.9-0.4-5.3-2.8-5.2-4.9c0.2-2.5,1.8-5.7,4.3-7.8c2.9,0,5.7-0.7,8.2-1.9c0,0,0,0,0.1,0c2.7,0.3,5,0.8,8,2.6
		c0.3,0.2,0.6,0.4,0.8,0.7C423.4,196.1,425.6,201.8,422.9,206.3z M396.7,180.1c-0.8-0.2-1.5-0.5-2.1-0.9c-1.4-0.8-2.6-1.8-3.5-3.1
		c-0.8-1.2-1.4-2.6-1.6-4.1c0,0,0-0.1,0-0.1c-0.1-0.7-0.4-1.4-0.9-1.9c0.5,0.2,1,0.4,1.5,0.5c0.4,0.1,0.7,0.2,1.1,0.2
		c1,0.2,1.9,0.3,2.8,0.3c1.9,0,3.8-0.4,5.5-1.1c2.6-1.1,4.9-2.9,6.6-5.3c0.9-1.3,1.6-2.7,2-4.3c0.3-1.2,0.5-2.4,0.5-3.7
		c0-2.7-0.6-5.3-1.9-7.6c-1.5-2.6-3.7-4.6-6.4-5.9c-0.8-0.4-1.6-0.7-2.4-0.9c-0.9-0.3-1.9-0.4-2.9-0.5c-2.9-0.2-5.9,0.5-8.4,1.9
		c-3.4,2-5.8,5.1-6.7,8.8c-0.1,0.3-0.2,0.7-0.2,1c-0.4,1.9-0.4,3.7-0.1,5.5c0.7,3.7,2.7,7,5.8,9.3c-0.1,0-0.3,0-0.4,0
		c-0.3,0-0.7,0-1,0.1c-1.4,0.3-2.9,0.3-4.5-0.2c-2.9-0.8-5.1-2.7-6.3-5.2c-0.7-1.4-1.1-3-1.1-4.6c0-0.8,0.1-1.7,0.3-2.5
		c1-3.3,3.5-5.9,6.6-6.9c1.3-0.4,2.3-1.4,2.8-2.6c0.3-0.8,0.4-1.6,0.3-2.5c-0.3-1.4-0.2-3.1,0.2-4.5c0.7-2.6,2.4-4.8,4.8-6.1
		c2.4-1.3,5.1-1.7,7.8-0.9c0.6,0.1,1.1,0.4,1.6,0.6c0.3,0.2,0.6,0.3,0.9,0.5c1.3,0.8,2.4,1.9,3.2,3.2c0.5,0.8,0.9,1.6,1.1,2.5
		c0.2,0.7,0.5,1.2,1,1.7c1,1.1,2.4,1.7,3.9,1.5c0.7-0.1,1.4-0.1,2-0.1c0.8,0,1.6,0.1,2.3,0.3c1.4,0.4,2.6,1,3.7,1.9
		c0.3,0.3,0.7,0.6,1,0.9c0.6,0.6,1.1,1.3,1.5,2c0.1,0.2,0.2,0.3,0.2,0.5c0,0.1,0.1,0.2,0.1,0.3c0.7,1.6,1,3.2,0.9,4.9
		c0,0.5-0.1,1-0.2,1.5c0,0.1-0.1,0.3-0.1,0.4c-0.3,0.9-0.6,1.8-1.1,2.5c-0.5,0.8-1.1,1.5-1.7,2.1c-1,0.9-2.1,1.7-3.4,2.1
		c-2.3,0.8-3.5,3.3-2.7,5.7c0.1,0.2,0.1,0.4,0.1,0.6c0.4,1.6,0.4,3.3-0.1,5c-0.6,2.2-1.8,4-3.4,5.3c-2.3,1.8-5.3,2.6-8.4,1.9
		C397.1,180.1,396.9,180.1,396.7,180.1z M89.5,190c-0.7,0.2-1.3,0.5-1.8,1c-1.2,1.1-1.8,2.8-1.4,4.4c0,0,0,0.1,0,0.1
		c1.8,7.5,0.8,11.6-0.9,12.2c-1.5,0.5-4.5-0.6-6.4-3.2c-0.4-0.5-0.7-1-1-1.6c-2.3-4.8,0.6-10.2,7.9-14.9c0.2-0.2,0.5-0.3,0.7-0.5
		c3.3-1.5,5.7-1.7,8.5-1.7c0.7,0,1.3,0,2.1,0l0.2,0c0,0,0,0,0,0c3,0.1,5.8,2,7.6,5.3c1.6,2.9,1.9,6.2,0.8,8
		c-0.8,1.3-2.5,1.9-5.1,1.8c-2.4,0-4-2.3-5.7-8c0-0.1-0.1-0.1-0.1-0.2C94.2,190.7,91.8,189.4,89.5,190z M116.3,155.7
		c-1.1,1.2-1.6,2.9-1.1,4.6c0.6,1.7,0.6,3.6,0.1,5.6c-0.8,3-3,5.3-5.7,6.5c-1.9,0.8-3.9,1.1-6,0.7c-0.2,0-0.4-0.1-0.7-0.1
		c-3.1-0.8-5.6-3.2-6.8-6.3c-0.2-0.6-0.4-1.2-0.6-1.9c-0.1-0.7-0.5-1.4-0.9-2c0.5,0.2,1.1,0.4,1.6,0.6c1,0.3,2,0.4,3,0.4
		c0.2,0,0.5,0,0.7,0c6.2,0,12-3.9,14.1-9.9c0.1-0.3,0.2-0.6,0.3-1c0.4-1.5,0.5-2.9,0.5-4.3c-0.2-5.3-3.3-10.2-8.1-12.6
		c-0.8-0.4-1.7-0.8-2.7-1c-0.6-0.2-1.2-0.3-1.8-0.4c-0.6-0.1-1.1-0.1-1.7-0.1c-0.9,0-1.9,0-2.8,0.2c-0.9,0.1-1.7,0.4-2.5,0.7
		c0,0,0,0-0.1,0c-4.3,1.6-7.9,5.2-9.2,10c-0.4,1.3-0.5,2.6-0.5,4c0,0.1,0,0.2,0,0.3c0,1.5,0.3,3,0.8,4.5c0.5,1.4,1.2,2.7,2.1,3.9
		c0,0.1,0.1,0.1,0.1,0.1c0.9,1.1,1.9,2.1,3.1,3c-0.2,0-0.3,0-0.5,0c-0.2,0-0.5,0-0.8,0.1c0,0,0,0,0,0c-0.8,0.1-1.5,0.2-2.2,0.2
		c-0.8,0-1.6-0.1-2.4-0.3c-0.1,0-0.1,0-0.2-0.1c-1-0.3-1.9-0.7-2.7-1.2c-0.5-0.3-0.9-0.7-1.4-1.1c-0.7-0.7-1.4-1.5-1.9-2.4
		c0,0,0-0.1-0.1-0.1c-0.1-0.2-0.2-0.3-0.2-0.5c-0.5-1.1-0.9-2.4-1-3.6c-0.1-1.1,0-2.2,0.3-3.4c0,0,0,0,0-0.1
		c0.1-0.2,0.1-0.4,0.2-0.6c0.3-0.9,0.7-1.8,1.3-2.6c0.3-0.5,0.7-1,1.2-1.4c0.4-0.4,0.9-0.8,1.4-1.1c0.6-0.4,1.2-0.8,1.9-1
		c0.2-0.1,0.4-0.2,0.6-0.2c1.2-0.4,2.1-1.2,2.6-2.3c0.4-0.8,0.6-1.8,0.4-2.8c-0.3-1.5-0.2-2.9,0.3-4.4c0.3-1.1,0.8-2.1,1.4-3
		c0,0,0,0,0,0c0.7-1,1.5-1.8,2.5-2.5c0.3-0.2,0.6-0.4,0.9-0.6c0.6-0.4,1.3-0.6,1.9-0.9c0.9-0.3,1.8-0.5,2.8-0.5
		c0.7,0,1.5,0.1,2.2,0.2c0.2,0,0.4,0.1,0.6,0.1c2.2,0.6,4.1,1.9,5.4,3.7c0.7,1,1.3,2.1,1.7,3.3c0.6,2.2,2.9,3.6,5.2,3.2
		c1.3-0.2,2.6-0.2,4.1,0.2c5.3,1.5,8.5,7.1,7,12.5c-0.2,0.7-0.5,1.5-0.9,2.1c-0.7,1.3-1.7,2.4-2.9,3.3c-0.8,0.6-1.6,1-2.5,1.4
		C117.3,154.8,116.8,155.2,116.3,155.7z M100.3,143.4c0.5,0,1,0.1,1.5,0.2c1,0.3,1.8,0.8,2.5,1.5c1.4,1.4,2.1,3.4,1.6,5.5
		c-0.8,3-4,4.8-7,4.1c-0.6-0.2-1.2-0.5-1.7-0.8c-1.3-0.9-2.2-2.3-2.4-3.8c-0.1-0.7-0.1-1.5,0.1-2.3c0.7-2.5,2.8-4.1,5.2-4.2
		C100.1,143.4,100.2,143.4,100.3,143.4z M50.8,129.4c0.3-0.8,0.7-1.6,1.2-2.4c1.6-2.3,4-3.7,6.5-4.2c0.6-0.1,1.2-0.2,1.8-0.2
		c1.2,0,2.3,0.2,3.4,0.6c0.8,0.3,1.5,0.6,2.2,1.1c0,0,0,0,0.1,0c2.2,1.4,3.7,3.7,4.2,6.3c0.3,1.4,0.2,2.9-0.1,4.2
		c-0.3,1.2-0.7,2.3-1.4,3.3c-0.3,0.4-0.7,0.9-1,1.2c-1.4,1.5-3.3,2.5-5.4,2.9c-2.6,0.5-5.3,0-7.5-1.6c-0.1-0.1-0.3-0.2-0.4-0.3
		C50.8,137.8,49.5,133.4,50.8,129.4z M89.4,173.1c0.9,1.4,1.9,2.6,3,3.8c-0.6,0-1.2,0.1-1.8,0.2C90.2,175.7,89.7,174.4,89.4,173.1z
		 M427.6,129.6c-0.5-2.6,0-5.3,1.5-7.5c1.5-2.2,3.8-3.7,6.5-4.2c0.6-0.1,1.1-0.2,1.7-0.2c0.1,0,0.1,0,0.2,0c1.5,0,2.9,0.3,4.3,1
		c0.4,0.2,0.9,0.5,1.3,0.8c0,0,0.1,0,0.1,0.1c0.9,0.6,1.6,1.3,2.3,2.1c1,1.2,1.6,2.6,1.9,4.2c0.1,0.7,0.2,1.4,0.2,2.1
		c0,1.9-0.6,3.8-1.7,5.4c-1.4,2-3.4,3.4-5.5,4c-1.3,0.4-2.6,0.5-3.9,0.3c-1.5-0.2-3-0.7-4.4-1.6c0,0-0.1,0-0.1-0.1
		c-1.2-0.8-2.2-1.9-3-3.1C428.3,131.9,427.8,130.8,427.6,129.6z M388.7,154.8c0.4-1.4,1.2-2.6,2.5-3.3c0.9-0.5,1.8-0.8,2.8-0.8
		c0.5,0,1,0.1,1.6,0.2c0,0,0.1,0,0.1,0c1.4,0.4,2.6,1.2,3.3,2.5c0.8,1.3,1,2.9,0.5,4.4c-0.9,3.1-3.9,4.8-6.9,3.9
		C389.5,160.9,387.8,157.9,388.7,154.8z M135.9,188.7c-6.3-3.2-12.4-6.8-18.3-10.7c3-2.4,5.4-5.8,6.5-9.8c0.6-2,0.8-4,0.7-6
		c2.9,2.1,5.9,4.2,8.9,6.1c3.2,2,6.4,4,9.7,5.8c6.3,3.5,12.9,6.7,19.7,9.5c24.2,9.9,50.7,14.9,79.1,14.9c3.2,0,6.4-0.1,9.7-0.2
		c33.5-1.3,68.6-9.7,99.1-23.7c0.7-0.3,1.5-0.6,2.2-1c2.5-1.2,5-2.4,7.4-3.7c1.6-0.8,3.2-1.7,4.8-2.5c2.4,4.4,6.5,8,11.7,9.4
		c1.2,0.4,2.5,0.6,3.7,0.7c-7.1,4.3-14.6,8.2-22.4,11.7c-3.1,1.4-6.3,2.8-9.5,4c-30.3,12.1-64,18.5-95.5,19.4
		c-35.6,1-74.2-4.5-108-19.4C142.2,191.8,139,190.3,135.9,188.7z M456.8,201c-0.9,0.4-1.7,0.7-2.4,1.1l-1-13
		C454.6,192.8,455.8,196.7,456.8,201z M61.7,439.1c-2.6-0.3-6.9-1.5-8.1-6.5l10.2-173c0.1-2.5-1.8-4.6-4.2-4.8
		c-2.5-0.1-4.6,1.8-4.8,4.2l-10.1,171c-1.8,0.2-4.8,0.1-7.4-1.7c-3.4-2.3-4.8-6.6-4.2-13l14.2-184.4c4.7-1.8,8.4-6.6,9.9-12.7
		c1.6-6.9-0.1-13.7-4.7-18c-0.9-0.9-1.8-1.7-2.7-2.5l1.5-18.8c0.2-0.4,0.4-0.8,0.7-1.2c2.9,1.1,6,1.7,9.1,1.7c1.6,0,3.2-0.2,4.8-0.5
		c5.4-1,10.2-3.8,13.8-7.7c0.5,2.8,1.2,5.7,2.3,8.6c-18,11-13.9,23.5-12.2,27.1c1.9,4,5.2,7.1,8.9,8.7L74,433.6
		C72.1,437.2,66.8,439.6,61.7,439.1z M161.9,426c-3.1,3.6-4.7,4.6-5.3,4.9c-0.3-0.3-0.8-0.9-1.2-1.4c-0.9-1.1-2.1-2.6-3.7-3.6
		l-17-181.6c-0.2-2.5-2.4-4.3-4.9-4.1c-2.5,0.2-4.3,2.4-4.1,4.9l17.2,184c-0.5,6.4-5.2,9.6-8,10.9c-5.4,2.5-11.1,2.1-13.6,0.3
		c-0.8-0.6-1.5-1.4-1.3-3.4c0-0.3,0-0.6,0-0.8c0,0,0,0,0,0l0,0l0,0l-3.3-66.2c-0.1-2.5-2.2-4.4-4.7-4.3c-2.5,0.1-4.4,2.2-4.3,4.7
		l3.2,65.3c-2.2,5.5-6.3,8.9-11.4,9.2c-6.3,0.4-12.6-3.9-16.6-11.3l4.8-217.1c0.2-0.1,0.5-0.1,0.7-0.2c2-0.7,5.3-2.5,6.9-7.3
		c1.5,0.7,3.2,1.2,5.2,1.2c7.9,0.3,11.5-3.7,13-6.1c2.9-4.7,2.6-11.2-0.6-17.1c-0.5-0.9-1.1-1.8-1.6-2.6c5.6,3.9,11.6,7.5,17.9,10.8
		c2.6,1.4,5.2,2.7,7.9,3.9L161.9,426z M395.1,442.2c-5-0.3-9.1-3.6-11.3-9.2l3.1-65.3c0.1-2.5-1.8-4.6-4.3-4.7
		c-2.5-0.2-4.6,1.8-4.7,4.3l-3.2,66.2l0,0l0,0c0,0,0,0.1,0,0.1c0,0.2,0,0.5,0,0.7c0.3,2-0.5,2.9-1.3,3.4c-2.5,1.8-8.3,2.2-13.7-0.4
		c-2.8-1.3-7.5-4.5-7.9-10.9l17.1-184c0.2-2.5-1.6-4.7-4.1-4.9c-2.5-0.2-4.7,1.6-4.9,4.1l-16.9,181.5c-1.7,1-2.9,2.5-3.8,3.6
		c-0.4,0.4-0.8,1-1.2,1.4c-0.6-0.3-2.2-1.3-5.3-4.8l24.5-223.9c8.1-3.5,15.8-7.3,23.2-11.5c2-1.2,4-2.3,5.9-3.5
		c1,0.9,2.1,1.7,3.3,2.4c-2,2.9-3.3,6.3-3.6,9.6c-0.6,8.2,4.6,13.9,13.4,14.6c2,0.2,3.8-0.1,5.3-0.6c0.4,1.9,1.2,3.4,2,4.6
		l4.6,215.8C407.7,438.3,401.5,442.6,395.1,442.2z M461.5,412.8c0.6,6.3-0.8,10.6-4.2,12.9c-2.6,1.7-5.6,1.9-7.4,1.6l-10.1-170.9
		c-0.1-2.5-2.3-4.4-4.8-4.2c-2.5,0.1-4.4,2.3-4.2,4.8l10.2,172.9c-1.1,5-5.4,6.3-7.9,6.5c-5.2,0.6-10.6-1.8-12.5-5.4l-4.5-211.4
		c5.4,0,11.2-3.3,14.4-8.6c2-3.4,7.4-15.3-9.3-28.1c2-4,3.3-8,4-12c4,2.4,8.4,3.6,12.9,3.6c1.6,0,3.2-0.2,4.8-0.5c0,0,0,0,0,0
		l2.7,34.5c-3.2,3.9-4.6,9.2-3.8,14.9c0.7,4.9,2.8,9.2,5.9,11.9L461.5,412.8z"/>
	<path class="st0" d="M120.9,112.3c2.5,0,4.5-2,4.5-4.5s-2-4.5-4.5-4.5h0c-2.5,0-4.5,2-4.5,4.5S118.4,112.3,120.9,112.3z"/>
</g>
</svg>
