<?xml version="1.0" encoding="utf-8"?>
<!-- Generator: Adobe Illustrator 27.2.0, SVG Export Plug-In . SVG Version: 6.00 Build 0)  -->
<svg version="1.1" id="Layer_1" xmlns="http://www.w3.org/2000/svg" xmlns:xlink="http://www.w3.org/1999/xlink" x="0px" y="0px"
	 viewBox="0 0 500 500" style="enable-background:new 0 0 500 500;" xml:space="preserve">
<style type="text/css">
	.st0{fill:#808080;}
</style>
<g>
	<path class="st0" d="M460.6,253.9c-3.9-2.5-8.3-2.7-12.4-0.7L390.7,282v-23.5c0-20.7-16.8-37.6-37.5-37.6H66.7
		c-20.7,0-37.6,16.9-37.6,37.6v156.1c0,20.7,16.9,37.5,37.6,37.5h286.5c20.7,0,37.5-16.8,37.5-37.5v-39.9l57.4,28.6
		c1.8,0.9,3.7,1.4,5.6,1.4c2.3,0,4.6-0.7,6.7-2c8.1-4.9,12.4-18,12.4-27.7v-93.5C472.9,271.6,468.7,259,460.6,253.9z M380.5,414.7
		c0,15-12.2,27.2-27.2,27.2H66.7c-15.1,0-27.4-12.2-27.4-27.2V258.5c0-15.1,12.3-27.4,27.4-27.4h286.5c15,0,27.2,12.3,27.2,27.4
		v28.6v11.6V358v11.6V414.7z M462.6,375c0,8.5-4,16.8-7.5,19c-1,0.6-1.6,0.5-2.4,0.2l-62-30.9v-69.8l62-31.1c0.3-0.2,0.6-0.3,1-0.3
		c0.4,0,0.9,0.1,1.4,0.5c3.6,2.3,7.5,10.4,7.5,18.9V375z"/>
	<path class="st0" d="M113,219.8c47.3,0,85.7-38.6,85.7-86c0-47.4-38.4-86-85.7-86c-47.3,0-85.8,38.6-85.8,86
		C27.1,181.3,65.6,219.8,113,219.8z M113,58.1c41.6,0,75.5,34,75.5,75.7c0,41.8-33.8,75.7-75.5,75.7c-41.7,0-75.6-34-75.6-75.7
		C37.4,92.1,71.3,58.1,113,58.1z"/>
	<path class="st0" d="M113,187.5c29.7,0,53.8-24.1,53.8-53.6c0-29.7-24.1-53.8-53.8-53.8c-29.7,0-53.9,24.1-53.9,53.8
		C59,163.4,83.2,187.5,113,187.5z M113,90.3c24,0,43.5,19.5,43.5,43.5c0,23.9-19.5,43.4-43.5,43.4c-24.1,0-43.7-19.5-43.7-43.4
		C69.3,109.8,88.9,90.3,113,90.3z"/>
	<path class="st0" d="M287.9,219.8c47.3,0,85.8-38.6,85.8-86c0-47.4-38.5-86-85.8-86c-47.3,0-85.7,38.6-85.7,86
		C202.2,181.3,240.6,219.8,287.9,219.8z M363.5,133.8c0,41.8-33.9,75.7-75.6,75.7c-41.6,0-75.5-34-75.5-75.7
		c0-41.8,33.8-75.7,75.5-75.7C329.5,58.1,363.5,92.1,363.5,133.8z"/>
	<path class="st0" d="M287.9,187.5c29.7,0,53.9-24.1,53.9-53.6c0-29.7-24.2-53.8-53.9-53.8c-29.7,0-53.8,24.1-53.8,53.8
		C234.1,163.4,258.2,187.5,287.9,187.5z M331.5,133.8c0,23.9-19.6,43.4-43.7,43.4c-24,0-43.5-19.5-43.5-43.4
		c0-24,19.5-43.5,43.5-43.5C311.9,90.3,331.5,109.8,331.5,133.8z"/>
	<path class="st0" d="M105.7,338.5H69.2c-2.8,0-5.1,2.3-5.1,5.1v34.2c0,2.8,2.3,5.1,5.1,5.1h36.5c2.8,0,5.1-2.3,5.1-5.1v-34.2
		C110.8,340.8,108.5,338.5,105.7,338.5z M100.5,372.8H74.3v-24h26.2V372.8z"/>
	<path class="st0" d="M99.1,404.5H72.5c-2.8,0-5.1,2.3-5.1,5.1c0,2.8,2.3,5.1,5.1,5.1h26.6c2.8,0,5.1-2.3,5.1-5.1
		C104.2,406.8,101.9,404.5,99.1,404.5z"/>
	<path class="st0" d="M311.4,269.4c-12.3-1.5-24.6,3.5-33,13.3c-7.9-9.4-19-14.2-31.6-13.5c-13,0.7-24,7.4-29.6,18
		c-8.1,15.4-5.9,32.6,6.6,51.1c9.4,13.6,25.4,28.5,44.1,40.7c0,0,0,0,0,0l7.7,5c0.8,0.6,1.8,0.8,2.8,0.8c1,0,2-0.3,2.9-0.9l5.3-3.6
		c38.1-25.8,57.5-50.5,57.6-73.5c0-6.3-0.9-10.5-3.5-15.8C335.1,279.1,324.1,271,311.4,269.4z M273.5,370.6
		c-17.3-11.4-32.7-25.6-41.2-37.9c-10.2-15.1-12.2-28.7-6-40.6c3.9-7.4,11.7-12.1,21.1-12.6c10.4-0.6,19,3.6,25,12.1
		c0,0,0.1,0.1,0.1,0.1c0.4,0.6,0.9,1.2,1.1,1.6c0.4,0.6,0.6,0.9,1,1.3c0,0,0.1,0.1,0.1,0.1c1.3,1.2,3.2,1.8,4.9,1.4
		c1.7-0.4,3-1.6,3.8-3.2c0.4-0.6,1.6-2,2.3-2.9c6.3-7.8,15.2-11.6,24.5-10.5c9.3,1.1,17.1,7,21.3,16.1c1.9,3.9,2.5,6.6,2.5,11.3
		c-0.1,19.4-18,41.3-53.1,65.1l-2.5,1.7L273.5,370.6z"/>
</g>
</svg>
