<?xml version="1.0" encoding="utf-8"?>
<!-- Generator: Adobe Illustrator 27.2.0, SVG Export Plug-In . SVG Version: 6.00 Build 0)  -->
<svg version="1.1" id="Layer_1" xmlns="http://www.w3.org/2000/svg" xmlns:xlink="http://www.w3.org/1999/xlink" x="0px" y="0px"
	 viewBox="0 0 500 500" style="enable-background:new 0 0 500 500;" xml:space="preserve">
<style type="text/css">
	.st0{fill:#808080;}
</style>
<g>
	<path class="st0" d="M489.9,273.2c11.4-44.4-0.4-70.1-11.8-94.9c-2.3-5-4.7-10.2-6.9-15.5c0,0,0,0,0-0.1c-0.1-0.2-0.2-0.4-0.3-0.5
		c0-0.1-0.1-0.1-0.1-0.2c-0.1-0.1-0.2-0.3-0.3-0.4c0-0.1-0.1-0.1-0.1-0.2c-0.2-0.2-0.3-0.3-0.5-0.5c0,0,0,0,0,0
		c-11.1-7.7-29-5.7-47-1.1c-1.9-4.6-3.2-8.3-4.7-12.2c-1.4-3.8-2.9-7.7-4.9-12.7c0,0,0,0,0-0.1c-0.1-0.2-0.2-0.4-0.3-0.5
		c0-0.1-0.1-0.1-0.1-0.2c-0.1-0.1-0.2-0.3-0.3-0.4c0-0.1-0.1-0.1-0.1-0.2c-0.2-0.2-0.3-0.3-0.5-0.5c0,0,0,0,0,0
		c-17.1-11.9-50.8-0.6-75.4,7.7c-7.5,2.5-15.2,5.2-18.8,5.6c-1.8-1.2-3.6-2.5-5.4-3.9c-11-11-24.6-24.5-42.2-23.5
		c-10.9,0.6-21.8,6.7-33.1,18.5c-0.2,0-0.3,0.1-0.5,0.1c-2.6,0.8-4.3,2.6-4.5,5c0,0.1,0,0.2,0,0.3c-0.9,1-1.7,2-2.6,3.1
		c-1.1,1.1-2.3,2.2-3.4,3.2c-1.5,0-2.8,0.1-3.9,0.4c-2.6,0.8-4.3,2.7-4.4,5.1c0,0.8,0.1,1.5,0.5,2.2c-2.1,2.1-4.2,4.2-6.3,6.2
		c-1.9-0.1-3.5,0-4.7,0.4c-2.8,0.8-4.7,2.8-4.8,5.4c-0.1,1,0.3,2,0.9,2.8c-2.5,2.5-5,5-7.5,7.4c-1.9,0-3.6,0.2-4.8,0.6
		c-3.9,1.2-4.5,4.1-4.6,5.3c-0.1,0.9,0.2,1.8,0.7,2.5c-6.7,6.4-13.7,12.6-21.6,19.2c0,0-0.1,0.1-0.1,0.1
		c-19.8,17.9-53.9,31.8-86.9,45.2c-20,8.1-38.8,15.7-53.8,24c-10.1,5.3-16.8,14.6-17,23.5c-0.1,3.6,0.9,6.8,2.7,9.6L8,311.1
		c-0.9,0.7-1.5,1.7-1.6,2.8c-0.1,0.9-0.3,1.8-0.4,2.6c-0.6,3.4-1.1,6.9,0.7,12.2c0.3,1,1.1,1.8,2,2.3c15.4,7.7,34.2,13.2,54.8,16.7
		c-0.2,2.4,0,5.1,1.2,8.7c0.3,1,1.1,1.8,2,2.3c35.9,18,85.4,22.2,124,22.2c3.8,0,7.5,0,11-0.1c45.8-0.9,94.6-7.7,127.4-17.8
		c0.1,0,0.1,0,0.2-0.1c16.3-5.9,27.5-14.4,38.3-22.6c5.6-4.3,11-8.4,17.1-12.1l42.6,8.9c0.1,0,0.2,0,0.2,0c0,0,0,0,0,0
		c0.2,0,0.4,0.1,0.6,0.1c0.1,0,0.1,0,0.2,0c0.1,0,0.3,0,0.4,0c0.1,0,0.1,0,0.2,0c0.2,0,0.3,0,0.5-0.1l46.3-13.8
		c0.5-0.1,1-0.4,1.4-0.7c0.5-0.4,1.5-0.6,2.5-0.9c7.8-2,12.2-6.6,10.3-23.3L489.9,273.2z M481.8,299c1.6,13.3-1,14-4.3,14.8
		c-1.5,0.4-3.2,0.8-4.9,1.9l-40.6,12.1l-0.4-19.8c0-1.2-0.6-2.3-1.5-3.1c-0.9-0.7-2.2-1-3.3-0.8c-14.5,3.1-26.2,6.9-36.7,11.9
		c-10.7,5.2-19.2,11.7-27.5,17.9c-10.8,8.2-20.9,15.9-36.1,21.4c-32.1,9.8-80.1,16.5-125.1,17.4c-38.4,0.8-91.8-2.2-129.7-20.5
		c-0.3-1.2-0.4-2.3-0.3-3.3c0-1.1,0.2-2.2,0.4-3.5c0-0.1,0-0.3,0.1-0.4c0-0.2,0.1-0.5,0.1-0.7l2.1-1.5c0.2,0.1,0.4,0.2,0.5,0.3
		c0,0,0.1,0,0.1,0.1c1.9,1,3.8,2,5.8,2.9c3.9,1.9,8.1,3.6,12.3,5.3c29.2,11,65.5,15.5,101.7,15.5c52,0,103.8-9.3,134.1-22.3
		c12.2-5.4,22.9-12,34.3-18.9c26.4-16.1,56.3-34.4,118.8-48.2l-0.1,20.9C481.7,298.7,481.7,298.9,481.8,299z M395.7,322.3
		c8.2-3.7,17.3-6.7,28.1-9.3l0.3,15.2L395.7,322.3z M13.9,317.8c0.1-0.4,0.1-0.8,0.2-1.1l2-1.5c0.2,0.1,0.4,0.3,0.6,0.4
		c0,0,0.1,0,0.1,0.1c14.2,7.7,31,13.3,49.3,17.1c0.5,1.6,1.1,3.1,2.1,4.6l-2.3,1.6c-0.4,0.3-0.8,0.7-1,1.1
		c-18.2-3.1-35.9-8-51.1-15.3C13.2,322,13.5,320.3,13.9,317.8z M81.4,259.7c33.6-13.6,68.4-27.7,89.2-46.6
		c10.4-8.7,19.2-16.9,28-25.3l-1.3-0.3c0.5,0,0.9,0.1,1.5,0.2c3.6,0.5,8.5,1.5,13.3,3c1.4,0.4,2.7,0.9,4.1,1.3
		c1.4,0.5,2.7,1,3.9,1.5c0.4,0.2,0.8,0.4,1.2,0.5c4,1.8,7.4,3.8,9.1,5.8c0.8,1,1.9,1.5,3.1,1.5c0.9,0,1.8-0.3,2.5-0.9
		c1.7-1.4,2-3.9,0.6-5.6c-2.2-2.7-6.4-5.4-11.4-7.7l7.5-9.3l-4.1-1.3l-4.1-1.3l-7,8.7c-3.9-1.3-7.9-2.4-11.6-3.2
		c2.4-2.4,4.9-4.9,7.4-7.4c0.4-0.4,0.8-0.8,1.2-1.2l-2.2-0.7c0.8,0.1,1.6,0.2,2.6,0.3c2.9,0.5,6.6,1.5,10.2,2.7
		c1.3,0.5,2.7,1,3.9,1.5c1.3,0.5,2.6,1.1,3.8,1.7c0,0,0.1,0,0.1,0.1c3.4,1.7,6.3,3.7,7.8,5.8c0.8,1.1,2,1.7,3.3,1.7
		c0.8,0,1.6-0.2,2.3-0.8c1.8-1.3,2.2-3.8,0.9-5.6c-1.9-2.6-5.3-5.1-9.4-7.4l6.7-8.3c2.5,1.3,4.5,2.7,5.5,4c0.8,1.1,2,1.6,3.2,1.6
		c0.8,0,1.7-0.3,2.4-0.8c1.8-1.3,2.2-3.8,0.9-5.6c-1.4-2-3.9-3.9-6.9-5.6l6-7.4c3.9,1.7,7.4,3.6,8.8,5.5c0.8,1,2,1.6,3.2,1.6
		c0.8,0,1.7-0.3,2.4-0.8c1.8-1.3,2.1-3.9,0.8-5.6c-2-2.6-5.7-5.1-10-7.2l12.8-15.8l0,0l0,0.1c12.7,1,23.4,11.8,33,21.4
		c0.1,0.1,0.3,0.3,0.4,0.4c1.4,1.1,2.8,2.1,4.2,3c-4.7,2.6-9.4,6.2-14.1,10.9c-0.8,0.8-1.6,1.6-2.5,2.5c-0.1,0-0.3,0.1-0.4,0.1
		c-2.6,0.8-4.3,2.7-4.4,5.1c0,0,0,0.1,0,0.1c-0.9,1-1.8,2.1-2.7,3.2c-1.1,1.1-2.3,2.2-3.4,3.3c-1.5,0-2.7,0.1-3.8,0.4
		c-2.6,0.7-4.3,2.6-4.5,5c-0.1,0.8,0.1,1.6,0.5,2.3c-2.1,2.1-4.2,4.2-6.3,6.2c-1.9-0.1-3.5,0-4.7,0.4c-2.8,0.8-4.7,2.8-4.8,5.4
		c-0.1,1,0.3,2,0.9,2.8c-2.5,2.5-5,5-7.5,7.4c-1.9,0-3.5,0.2-4.7,0.6c-3.9,1.2-4.6,4.1-4.7,5.2c-0.1,1,0.2,1.9,0.7,2.6
		c-4.8,4.6-9.8,9.1-15.1,13.7c-7-10.4-12-21.8-11-34.2l1.2-1.4l-4.2-1.1l-4.2-1.1c-0.3,0.5-0.5,1.1-0.6,1.7
		c-1.7,15.5,4.5,29.3,12.8,41.4c-0.1,0.1-0.2,0.2-0.4,0.3c0,0-0.1,0.1-0.1,0.1c-19.7,17.9-53.7,31.7-86.6,45.1
		c-14.8,6-29,11.8-41.4,17.7c-4.5,2.1-8.7,4.3-12.7,6.5c-1.2,0.6-2.3,1.3-3.4,2c-0.6,0.4-1.1,0.8-1.7,1.2
		c-6.6-0.8-13.3-2.1-19.5-3.8c-7.2-2-13.5-4.7-17.8-8.1c-1.6-1.3-2.9-2.7-3.9-4.1c-1.2-1.9-3.7-2.4-5.5-1.2
		c-1.9,1.2-2.4,3.7-1.2,5.5c2.7,4.3,7.1,7.7,12.5,10.5c8.1,4.2,18.4,6.8,28.4,8.4c-2.3,3.1-3.8,6.5-4.4,9.9
		c-16.9-3.7-31.7-8.7-43.9-15.1c-0.4-0.2-0.9-0.4-1.3-0.7c-0.6-0.4-1.1-0.7-1.6-1.1c-0.3-0.2-0.5-0.4-0.7-0.6
		c-1.9-1.8-2.8-4.1-2.8-6.8c0.1-6,5.2-12.7,12.7-16.6C43,275.3,61.6,267.7,81.4,259.7z M261.7,129.3l-8.6,10.7
		c-1.8-0.6-3.7-1.1-5.4-1.5C252.4,134.1,257.1,131.1,261.7,129.3z M240.7,145.4c1.7,0.1,4.2,0.6,6.9,1.3l-5.4,6.6
		c-2.1-0.8-4.3-1.6-6.5-2.1C237.4,149.1,239,147.2,240.7,145.4z M229,157.8c2.3,0.4,5.1,1.2,7.9,2.1l-6.5,8
		c-2.9-1.2-5.9-2.1-8.8-2.9C224,162.7,226.5,160.3,229,157.8z M319.6,157l-0.3,0.3l-8.3,10.3c-1.8-0.6-3.6-1.1-5.4-1.5
		c4.6-4.1,9.1-7.1,13.5-8.9C319.2,157.2,319.4,157.1,319.6,157z M298.6,173.1c1.6,0.1,3.7,0.5,6,1.1c0.3,0.1,0.6,0.2,0.9,0.2
		l-0.4,0.5l-5,6.1c-2.1-0.8-4.3-1.6-6.5-2.1C295.4,176.8,297,174.9,298.6,173.1z M286.9,185.6c2.3,0.4,5.1,1.1,7.9,2.1l-6.5,8
		c-2.9-1.2-5.9-2.1-8.8-2.9C281.9,190.4,284.4,188,286.9,185.6z M482.6,269.3c-14.6,3.2-27.5,6.6-39.1,10.1c-4,1.2-7.9,2.5-11.6,3.8
		c-1.5,0.5-3.1,1.1-4.6,1.6c-1.4,0.5-2.8,1-4.1,1.5c-0.3-0.4-0.6-0.9-0.9-1.3c-0.5-0.7-1-1.4-1.6-2c-4.2-5.4-8.7-10-13.6-13.8
		c-10.7-8.3-23-12.7-36.7-12.9c-2.2,0-4.5,0-6.8,0.2c-1.4,0.1-2.9,0.3-4.3,0.4c-0.1,0-0.2,0-0.3,0.1c-1.5,0.2-3,0.5-4.6,0.8
		c-14.8,2.8-31.2,9.7-49.5,20.8c-0.1-0.2-0.3-0.3-0.4-0.5c-0.6-0.7-1.1-1.3-1.7-2c-2.8-3.3-5.6-6.6-8.4-10.1
		c-5.7-7.2-11-14.8-14.3-22.9c-0.5-1.3-1-2.5-1.4-3.8c-0.4-1.3-0.8-2.6-1.1-3.9c-1-4.1-1.4-8.4-1-12.8l1.1-1.4l-4.2-1.1l-4.2-1.1
		c-0.3,0.5-0.5,1.1-0.6,1.6c-0.7,6.2-0.1,12.2,1.4,17.9c0.3,1.3,0.7,2.6,1.2,3.9c0.4,1.3,0.9,2.6,1.4,3.8
		c3.1,7.6,7.7,14.7,12.7,21.3c3.7,4.9,7.6,9.5,11.2,13.9c0.7,0.8,1.4,1.7,2.1,2.5c0.7,0.9,1.5,1.7,2.2,2.6c1.3,1.5,3.5,1.9,5.2,0.8
		c20-12.6,38-20,53.6-22.2c2.3-0.3,4.6-0.5,6.8-0.6c1.2-0.1,2.4-0.1,3.6-0.1c16.2,0.2,29.8,6.8,41.2,20.1c1,1.2,2,2.4,3,3.7
		c0.3,0.4,0.6,0.8,0.9,1.2c-6.6,2.7-12.7,5.4-18.4,8.2c-6.6,3.2-12.6,6.4-18.3,9.6c-7.1,4-13.6,8-19.9,11.9
		c-11.1,6.8-21.6,13.2-33.3,18.4c-28.4,12.1-74.4,20.3-120,21.5c-28.1,0.7-54-1.3-76.6-5.7c-6.7-1.3-13-2.8-19-4.5
		c-5.2-1.5-10.2-3.1-14.9-4.9c-5.3-2-10.3-4.3-14.9-6.7c-0.5-0.3-1-0.5-1.4-0.8c-0.8-0.5-1.6-1.1-2.2-1.6c-1.4-1.3-2.3-2.8-2.7-4.6
		c-0.2-0.7-0.2-1.5-0.2-2.3c0-0.6,0.1-1.2,0.2-1.8c0.6-3.5,2.9-7.2,6.2-10.3c1.4-1.3,3-2.5,4.8-3.6c0.5-0.3,1-0.6,1.6-0.9
		c1.2-0.7,2.5-1.4,3.8-2c0.4-0.2,0.8-0.4,1.3-0.7c10.4-5.3,22.4-10.5,35.2-15.8c4.3-1.8,8.6-3.5,13-5.3c33.5-13.6,68-27.6,88.8-46.4
		c0,0,0.1-0.1,0.1-0.1c1-0.8,2-1.7,2.9-2.5c1-0.9,2-1.7,3-2.6c7.9-6.8,15-13.4,22-20.2l-1.8-0.5c0.7,0,1.4,0.1,2.2,0.2
		c3.7,0.4,8.4,1.5,13.2,3c1.4,0.4,2.7,0.9,4.1,1.4c1.3,0.5,2.7,1,3.9,1.5c0.6,0.2,1.1,0.5,1.6,0.7c3.9,1.8,7.2,3.8,8.8,5.8
		c0.8,1,1.9,1.5,3.1,1.5c0.9,0,1.8-0.3,2.5-0.9c1.7-1.4,2-3.9,0.6-5.6c-2.3-2.8-6.5-5.5-11.5-7.8l7.5-9.2l-4.1-1.3l-4.1-1.3l-7,8.7
		c-3.9-1.3-7.9-2.4-11.6-3.2c2.4-2.4,4.9-4.8,7.4-7.3c0.4-0.4,0.8-0.8,1.2-1.2l-2.2-0.7c0.8,0.1,1.6,0.2,2.6,0.3
		c2.9,0.5,6.6,1.5,10.2,2.7c1.3,0.5,2.7,1,3.9,1.5c1.3,0.5,2.6,1.1,3.8,1.7c0,0,0.1,0,0.1,0.1c3.4,1.7,6.3,3.7,7.8,5.8
		c0.8,1.1,2,1.7,3.3,1.7c0.8,0,1.6-0.2,2.3-0.8c1.8-1.3,2.2-3.8,0.9-5.6c-1.9-2.6-5.3-5.1-9.4-7.4l6.7-8.3c2.5,1.3,4.5,2.7,5.5,4
		c0.8,1.1,2,1.6,3.2,1.6c0.8,0,1.7-0.3,2.4-0.8c1.8-1.3,2.2-3.8,0.9-5.6c-1.4-2-3.9-3.9-6.8-5.6l2.1-2.6l3.8-4.7
		c3.9,1.7,7.4,3.6,8.8,5.5c0.8,1.1,2,1.6,3.2,1.6c0.8,0,1.7-0.3,2.4-0.8c1.8-1.3,2.2-3.8,0.8-5.6c-1.9-2.6-5.6-5.1-10-7.2l7.4-9.2
		l2.6-3.2l2.6-3.2l0.2-0.3l0-0.1l0,0.1c7.1,0.5,13.6,4.1,19.6,8.8c2.2,1.7,4.3,3.6,6.3,5.5c1.6,1.5,3.2,3,4.7,4.5
		c0.8,0.8,1.7,1.7,2.5,2.5c0.1,0.1,0.3,0.3,0.4,0.4c2.2,1.6,4.4,3.2,6.6,4.7c0.3,0.2,0.6,0.5,0.9,0.6c6.2,4.2,12.2,7.8,17.9,10.6
		c16.4,8.2,30.6,10.7,43.2,7.8c13-3.1,24.1-12.1,33.2-27c1.2,2.8,2.5,5.5,3.8,8.2C481.9,205.9,492.5,228.8,482.6,269.3z
		 M462.1,165.9c-8.4,15.1-18.2,23.9-30.1,26.7c-10.1,2.4-21.8,0.5-35.3-5.9c-3.8-1.8-7.7-3.9-11.8-6.4c3.3-1,7.3-2.3,12.1-4
		c2.3-0.8,4.8-1.6,7.3-2.4c2.5-0.8,5.2-1.7,7.8-2.5c17.2-5.4,36.7-10.1,48.6-6C461.1,165.5,461.6,165.7,462.1,165.9z M394.3,168.7
		c-7.5,2.5-15.1,5.1-18.7,5.6c-0.6-0.4-1.1-0.8-1.7-1.2c0.6-0.1,1.3-0.3,1.9-0.4c12.9-3.1,24-12,33-26.7c0.6,1.6,1.2,3.1,1.7,4.6
		c1.4,3.7,2.7,7.2,4.4,11.5C407.8,164.2,400.8,166.6,394.3,168.7z M402.7,137.6c0.5,0.2,1,0.4,1.5,0.6
		c-8.4,15.1-18.2,23.9-30.1,26.7c-2.7,0.6-5.5,1-8.3,1c-7.4-7.2-15.9-14.4-25.9-17.5c2.1-0.7,4.3-1.4,6.6-2.2
		C365.1,140,388.9,133,402.7,137.6z"/>
	<path class="st0" d="M160,336.1c-4.2,0.2-9.5,0.1-15.3-0.3c-2.4-0.2-4.9-0.4-7.4-0.7c-7.1-0.8-14.5-2.1-21.2-3.9
		c-0.8-0.2-1.6-0.5-2.4-0.7c-6.3-1.9-11.7-4.4-15.5-7.5c-1.6-1.3-2.9-2.6-3.8-4.1c-1.2-1.9-3.7-2.4-5.5-1.2
		c-1.9,1.2-2.4,3.7-1.2,5.5c1.3,2,2.9,3.8,4.8,5.4c2.1,1.8,4.5,3.4,7.2,4.8c0.2,0.1,0.4,0.2,0.6,0.3c3.7,1.9,7.8,3.5,12.1,4.7
		c15.5,4.6,33.6,5.7,43.6,5.7c1.9,0,3.4,0,4.6-0.1c2.2-0.1,3.9-2,3.8-4.2c0-0.5-0.2-1-0.4-1.5C163.2,337,161.7,336.1,160,336.1z"/>
	<path class="st0" d="M179.2,336.9c-1.7-1.4-4.3-1.1-5.6,0.6l-0.2,0.2l-0.3,0.3c-1.3,1.7-1.1,4,0.4,5.4c0.1,0.1,0.1,0.1,0.2,0.2
		c0.7,0.6,1.6,0.9,2.5,0.9c1.2,0,2.3-0.5,3.1-1.5l0,0l0.4-0.5c1.3-1.6,1.1-3.9-0.3-5.3C179.5,337.1,179.4,337,179.2,336.9z"/>
</g>
</svg>
