<?xml version="1.0" encoding="utf-8"?>
<!-- Generator: Adobe Illustrator 27.2.0, SVG Export Plug-In . SVG Version: 6.00 Build 0)  -->
<svg version="1.1" id="Layer_1" xmlns="http://www.w3.org/2000/svg" xmlns:xlink="http://www.w3.org/1999/xlink" x="0px" y="0px"
	 viewBox="0 0 500 500" style="enable-background:new 0 0 500 500;" xml:space="preserve">
<style type="text/css">
	.st0{fill:#808080;}
</style>
<g>
	<path class="st0" d="M474.1,253.1l-18.6-9.7l-7.2-50.4c0,0,0-0.1,0-0.1c0-0.1-0.1-0.3-0.1-0.4c-0.1-0.2-0.1-0.4-0.2-0.7
		c0-0.1-0.1-0.2-0.1-0.4c-0.1-0.2-0.2-0.4-0.3-0.6c-0.1-0.1-0.1-0.2-0.2-0.3c-0.2-0.3-0.4-0.6-0.6-0.8c0,0,0,0,0,0
		c-0.2-0.2-0.5-0.5-0.8-0.7c-0.1-0.1-0.2-0.1-0.3-0.2c-0.2-0.1-0.4-0.2-0.6-0.3c-0.1-0.1-0.2-0.1-0.4-0.2c-0.2-0.1-0.4-0.1-0.6-0.2
		c-0.1,0-0.3-0.1-0.4-0.1c0,0-0.1,0-0.1,0c-0.3-0.1-0.6-0.1-0.9-0.1c0,0,0,0-0.1,0l-14.2-0.2l18.4-48c0.7-1.8,0.5-3.8-0.6-5.3
		c-1-1.6-2.8-2.5-4.7-2.6l-79.2-2.4l47.8-116.8c0.9-2.1,0.4-4.6-1.2-6.2c-1.6-1.7-4-2.2-6.2-1.5L157.3,92.8
		c-1.4,0.5-2.6,1.5-3.3,2.9l-109.5,218c-15,15.1-23.4,42-21.5,69c1.7,24.2,11.6,44.6,27.2,56c0.7,0.5,1.5,0.9,2.4,1l305.4,55.4
		c0.3,0.1,0.7,0.1,1,0.1c2.2,0,4.3-1.3,5.3-3.3l112.2-231.1C478,258,476.9,254.6,474.1,253.1z M91.9,343.2l250.8,43.1
		c2.5,0.4,5-0.8,6.2-3l90.4-170.9l4.9,33.8l-98.2,201.1L80.3,402.6c-0.3-0.1-0.6-0.1-1-0.1c-0.3,0-0.6,0-1,0.1
		c-5.6,0.9-9.8-6-11.4-13.4C63.8,375.3,67.9,350.7,91.9,343.2z M201.5,350.2l149.2,4.6l-10.2,19.3L201.5,350.2z M432.9,199.6
		l-32.8,61.9l23.8-62L432.9,199.6z M432.9,143.4l-18.1,47.2c-0.3,0.6-0.6,1.2-0.7,1.9l-57.9,150.9L118.6,336l-4.8-0.8l87.2-32.7
		l125.3,1.6c0,0,0.1,0,0.1,0c3.2,0,5.8-2.6,5.8-5.8c0-3.2-2.5-5.9-5.8-5.9l-95.4-1.2l73.4-27.5l40.1,1.3c0.1,0,0.1,0,0.2,0
		c3.1,0,5.7-2.5,5.8-5.7c0.1-3.2-2.4-5.9-5.7-6l-32.9-1l15.2-37.2l37.1-0.3c3.2,0,5.8-2.7,5.8-5.9c0-3.2-2.6-5.8-5.8-5.8
		c0,0,0,0,0,0l-32.2,0.3l10.8-26.3l43.3,1c0,0,0.1,0,0.1,0c3.2,0,5.8-2.5,5.8-5.7c0.1-3.2-2.5-5.9-5.7-6l-38.9-0.9l9.9-24.3
		L432.9,143.4z M355.8,482.8L56.1,428.4c-12.2-9.5-20-26.3-21.4-46.6c-1.7-23.7,5.8-48,18.7-60.5c0.5-0.5,0.9-1,1.2-1.6l108.9-216.7
		l230.9-82.5l-95.2,232.7l-100.5,37.7c-0.6,0.1-1.2,0.4-1.8,0.7L89.6,331.7c-29,8.4-39.2,37.1-34.1,60c3.3,14.8,12.7,23.7,23.7,22.5
		l269,45.3c0.3,0.1,0.7,0.1,1,0.1c2.2,0,4.3-1.2,5.2-3.3l98.3-201.2l10.9,5.7L355.8,482.8z"/>
	<path class="st0" d="M119.8,292.2c0.7,0,1.3-0.1,2-0.3l157.5-56.4c1.4-0.5,2.6-1.6,3.3-3l47.3-98.5c1.4-2.9,0.2-6.4-2.7-7.8
		c-2.9-1.4-6.4-0.2-7.8,2.7l-46.3,96.3l-155.3,55.6c-3,1.1-4.6,4.4-3.5,7.5C115.1,290.7,117.4,292.2,119.8,292.2z"/>
	<path class="st0" d="M93,368.9l237.3,41.6c0.3,0.1,0.7,0.1,1,0.1c2.8,0,5.2-2,5.7-4.8c0.6-3.2-1.6-6.2-4.7-6.8L95,357.4
		c-3.2-0.5-6.2,1.6-6.8,4.7C87.7,365.3,89.8,368.4,93,368.9z"/>
	<path class="st0" d="M273.6,412.4L128,386.8c-3.2-0.6-6.2,1.6-6.8,4.7c-0.6,3.2,1.6,6.2,4.7,6.8l145.6,25.6c0.3,0.1,0.7,0.1,1,0.1
		c2.8,0,5.2-2,5.7-4.8C278.9,416,276.8,412.9,273.6,412.4z"/>
	<path class="st0" d="M212.1,203.9l6.7,2.6c0.7,0.3,1.4,0.4,2.1,0.4c1.4,0,2.7-0.5,3.8-1.4l5.2-4.4c38.6-32.6,58.6-58.5,61-78.8
		c0.8-5.8,0.3-9.7-1.7-14.2c-3.4-7.9-10-12.9-18.6-14.1c-13.4-1.8-29.2,5.9-40.6,19.6c-5.1-4.4-14.1-8.2-28.8-3.6
		c-11.6,3.7-22.3,12.1-28.4,22.5c-9.4,15.8-8.9,31.4,1.3,45.2C181.3,187.8,195.1,197.3,212.1,203.9z M224.1,124.4
		c0.1,0.1,0.1,0.1,0.2,0.2l1.3,1.6c0.1,0.2,0.3,0.4,0.5,0.5c1.4,1.4,3.6,2,5.6,1.5c1.8-0.4,3.4-1.7,4.2-3.5c0.4-0.6,1.3-1.8,2.3-2.9
		c0.1-0.1,0.2-0.2,0.2-0.3c10.1-12.6,22.6-17.2,30.5-16.1c4.5,0.6,7.7,3,9.5,7.2c1,2.3,1.4,3.9,0.8,8c-2.1,17.2-21.3,41.2-57,71.4
		l-2.6,2.2l-3.4-1.3c0,0,0,0,0,0c-14.7-5.7-26.9-14-32.8-22.2c-7.4-10-7.6-20.6-0.6-32.4c4.6-7.9,13-14.5,21.8-17.3
		c2.7-0.8,5.9-1.5,8.9-1.5C217.6,119.7,221.5,120.9,224.1,124.4z"/>
</g>
</svg>
