<?xml version="1.0" encoding="utf-8"?>
<!-- Generator: Adobe Illustrator 27.2.0, SVG Export Plug-In . SVG Version: 6.00 Build 0)  -->
<svg version="1.1" id="Layer_1" xmlns="http://www.w3.org/2000/svg" xmlns:xlink="http://www.w3.org/1999/xlink" x="0px" y="0px"
	 viewBox="0 0 500 500" style="enable-background:new 0 0 500 500;" xml:space="preserve">
<style type="text/css">
	.st0{fill:#808080;}
</style>
<g>
	<path class="st0" d="M249.9,227.4c-63.4,0-114.9,51.6-114.9,114.9c0,63.4,51.6,115.1,114.9,115.1c63.5,0,115.1-51.6,115.1-115.1
		C365,278.9,313.4,227.4,249.9,227.4z M249.9,448.2c-58.3,0-105.7-47.5-105.7-105.9c0-58.3,47.4-105.7,105.7-105.7
		c58.4,0,105.9,47.4,105.9,105.7C355.8,400.7,308.3,448.2,249.9,448.2z"/>
	<path class="st0" d="M314.7,208.8c6.4-3.1,9.9-7.9,9.9-13.9v-10.8c0-4.8-3-10.4-7.2-14.1l14.6-20.2c1.8-2.5,2.1-5.6,0.7-8.4
		c-2.5-4.9-9.5-7.9-14.9-7.9h-2.7l5.1-13.3c0-0.1,0-0.1,0.1-0.2c0.1-0.2,0.1-0.5,0.2-0.7c0-0.1,0-0.2,0-0.4c0-0.1,0-0.2,0-0.3
		c0-0.1,0-0.2,0-0.3c0-0.1,0-0.3,0-0.4c0-0.2-0.1-0.5-0.2-0.7c0-0.1,0-0.2-0.1-0.3c-0.1-0.3-0.3-0.6-0.5-0.9c0,0,0,0,0,0l-28.9-43.2
		c0,0-0.1-0.1-0.1-0.1c0-0.1-0.1-0.1-0.1-0.2c-0.2-0.2-0.4-0.4-0.6-0.6c0,0-0.1-0.1-0.1-0.1c-0.1-0.1-0.2-0.2-0.3-0.2
		c-0.1-0.1-0.3-0.2-0.4-0.3c-0.2-0.1-0.4-0.2-0.5-0.2c-0.1,0-0.2-0.1-0.3-0.1c-0.2-0.1-0.4-0.1-0.6-0.1c-0.2,0-0.3,0-0.5,0
		c-0.1,0-0.2,0-0.3,0l-76.2,1.3c-0.1,0-0.2,0-0.2,0c-0.2,0-0.4,0-0.6,0.1c-0.1,0-0.3,0.1-0.4,0.1c-0.2,0.1-0.4,0.1-0.5,0.2
		c-0.1,0.1-0.2,0.1-0.4,0.2c-0.2,0.1-0.3,0.2-0.5,0.3c-0.1,0.1-0.2,0.2-0.3,0.3c0,0-0.1,0.1-0.1,0.1c-0.1,0.1-0.2,0.2-0.3,0.4
		c-0.1,0.1-0.1,0.1-0.2,0.2l-30.8,40.6c0,0,0,0.1-0.1,0.1c0,0.1-0.1,0.1-0.1,0.2c-0.1,0.2-0.2,0.3-0.3,0.5c0,0.1-0.1,0.1-0.1,0.2
		c-0.1,0.2-0.2,0.5-0.2,0.7c0,0.1,0,0.1,0,0.2c0,0.2-0.1,0.4-0.1,0.7c0,0,0,0.1,0,0.1c0,0,0,0.1,0,0.1c0,0.3,0,0.5,0.1,0.8
		c0,0,0,0.1,0,0.1c0,0.2,0.1,0.4,0.2,0.6c0,0.1,0.1,0.2,0.1,0.2c0,0.1,0,0.1,0.1,0.2l7.5,15.1h-1.7c-5,0-11.7,2.9-14.3,7.8
		c-1.5,2.9-1.3,6,0.5,8.6l14.3,20.7c-3.6,3.4-5.8,8.1-5.8,12.7V195c0,5.8,3.4,10.6,9.3,13.7c-49.7,24-84,74.9-84,133.7
		c0,81.9,66.5,148.5,148.3,148.5c81.9,0,148.5-66.6,148.5-148.5C398.4,283.7,364.2,232.9,314.7,208.8z M196.8,202.6
		c-5.2-0.8-11.3-3.3-11.3-7.7v-4.2c0.5,0.2,0.9,0.4,1.4,0.5c6.2,2.4,13.7,5.2,28.4,6.8c4.1,0.4,8.8,0.8,14.2,1c0.1,0,0.1,0,0.2,0
		c2.4,0,4.4-1.9,4.6-4.3c0-0.1,0-0.1,0-0.1c0.1-2.5-1.9-4.7-4.4-4.8c-10.8-0.4-18.6-1.4-24.5-2.6c-6.8-1.4-11.3-3.1-15.2-4.6
		c-0.2-0.1-0.5-0.2-0.7-0.3c-1.1-0.4-2.2-0.8-3.3-1.2c0.3-0.6,0.7-1.3,1.1-1.9c0.6-0.8,1.3-1.4,2-2c0.4-0.3,1-0.7,1.6-0.9
		c0.6-0.2,1.3-0.4,2.1-0.4c0.5,0,1,0.1,1.6,0.3c0.8,0.3,1.6,0.5,2.4,0.8c1.1,0.3,2.2,0.6,3.4,0.9c4.6,1.2,9.6,2.2,14.8,3
		c2.1,0.3,4.3,0.6,6.5,0.9c4.8,0.6,9.7,1,14.7,1.3c9.5,0.5,19.1,0.5,28.1,0.2c4.7-0.2,9.3-0.5,13.5-0.9c3-0.3,5.9-0.6,8.7-1
		c10.5-1.5,18.4-3.6,21.2-5.9c0.1-0.1,0.2-0.1,0.3-0.2c0.2-0.1,0.6,0,1.3,0.3c0.9,0.4,1.8,1.2,2.7,2c1.9,2,3.3,4.8,3.3,6.5V195
		c0,5.1-8.7,7.2-11.4,7.7c-0.9,0.2-1.8,0.3-2.7,0.5c-7.7,1.4-14.8,2.5-21.4,3.3c-25.6,3-44.3,1.9-59.6-0.1
		c-5.8-0.8-11.1-1.7-16.1-2.5c-1.8-0.3-3.5-0.6-5.2-0.9C198.3,202.8,197.5,202.7,196.8,202.6z M309.2,123.2l-4,10.6
		c-5.4,1-8.1,5.2-10.2,8.4c-0.5,0.8-1,1.5-1.6,2.3l-18.2,25.4c-0.8,1.1-1.3,2.4-1.5,3.7c-1.7,0.1-3.4,0.3-5.1,0.4c0-0.1,0-0.2,0-0.4
		v-25.4c0-7.6-6.2-13.7-13.7-13.7H246c-7.5,0-13.6,6.2-13.6,13.7v25.4c0,0.1,0,0.2,0,0.3c-2.8-0.2-5.6-0.5-8.4-0.8
		c-0.2-0.7-0.6-1.4-1.1-2.1l-17.6-25.4c-0.5-0.8-1-1.6-1.5-2.4c-2-3.3-4.6-7.6-10.1-8.5l-6.3-12.6L309.2,123.2z M241.7,174.4
		c0-0.3-0.1-0.5-0.1-0.8v-25.4c0-2.5,2-4.5,4.4-4.5h8.9c2.5,0,4.5,2.1,4.5,4.5v25.4c0,0.3,0,0.5-0.1,0.8
		C253.6,174.6,247.7,174.6,241.7,174.4z M309,166.1c-2.5-0.2-5,0.6-7,2.3c-0.1,0.1-0.2,0.1-0.3,0.2c-1.5,0.9-5.1,1.8-10.2,2.8
		c-2,0.4-4.3,0.7-6.8,1l12.2-17l3.9-5.5c0.7-0.9,1.3-1.8,1.8-2.7c2.3-3.5,3-4.4,5-4.4h3.9h6.3c2.5,0,5.2,1.4,6.3,2.4L309,166.1z
		 M191.5,143.7c1.5,0,2.2,0.6,4.4,4.3c0.6,0.9,1.2,1.9,1.8,2.9l13.8,20l0.3,0.4c-0.1,0-0.2,0-0.2,0c-3.9-0.8-7.8-1.7-11.4-2.8
		c-0.9-0.3-1.8-0.6-2.7-0.8c0,0,0,0,0,0c-2.4-0.8-4.8-0.9-7.2-0.4l-14.5-21c0.9-1,3.6-2.4,5.9-2.4h6.3H191.5z M259.4,113.5l27-30.5
		l20.7,31L259.4,113.5z M276.6,80.3l-27.4,30.9l-28-30L276.6,80.3z M211.1,83.9l27.5,29.4l-49.5-0.5L211.1,83.9z M249.9,481.6
		c-76.7,0-139.1-62.5-139.1-139.3c0-59.1,37.1-109.7,89.2-129.9c0.9,0.2,1.8,0.3,2.7,0.5c12.9,2.2,27.5,4.6,47,4.6
		c14,0,30.6-1.3,50.8-4.9c51.9,20.3,88.7,70.7,88.7,129.6C389.2,419.1,326.7,481.6,249.9,481.6z"/>
	<path class="st0" d="M137.4,286c0.5,0.2,1,0.3,1.5,0.3c1.9,0,3.7-1.2,4.3-3.1c1.1-3.2,2.9-6.6,5-10.1c9.3-14.8,27-30.9,42.6-38.7
		c3.6-1.8,7.2-3.2,10.4-4c2.5-0.6,4-3.1,3.4-5.6c-0.6-2.5-3.1-4-5.6-3.4c-23.3,5.8-56.5,35.9-64.5,58.7
		C133.8,282.5,135,285.2,137.4,286z"/>
	<path class="st0" d="M248.7,59.4c2.5,0,4.6-2.1,4.6-4.6v-41c0-2.5-2.1-4.6-4.6-4.6s-4.6,2.1-4.6,4.6v41
		C244.1,57.4,246.1,59.4,248.7,59.4z"/>
	<path class="st0" d="M159.8,161.8L135.4,176c-2.2,1.3-2.9,4.1-1.7,6.3c0.9,1.5,2.4,2.3,4,2.3c0.8,0,1.6-0.2,2.3-0.6l24.4-14.1
		c2.2-1.3,2.9-4.1,1.7-6.3C164.8,161.3,162,160.5,159.8,161.8z"/>
	<path class="st0" d="M137.5,121.3h17.1c2.5,0,4.6-2.1,4.6-4.6s-2.1-4.6-4.6-4.6h-17.1c-2.5,0-4.6,2.1-4.6,4.6
		S135,121.3,137.5,121.3z"/>
	<path class="st0" d="M135.4,63.7L174,86c0.7,0.4,1.5,0.6,2.3,0.6c1.6,0,3.1-0.8,4-2.3c1.3-2.2,0.5-5-1.7-6.3L140,55.7
		c-2.2-1.3-5-0.5-6.3,1.7C132.4,59.6,133.2,62.4,135.4,63.7z"/>
	<path class="st0" d="M200.5,56.6c0.5,2.1,2.4,3.4,4.4,3.4c0.4,0,0.8,0,1.2-0.2c2.5-0.6,3.9-3.2,3.3-5.6l-3.6-13.6
		c-0.6-2.5-3.2-3.9-5.6-3.3c-2.5,0.6-3.9,3.2-3.3,5.6L200.5,56.6z"/>
	<path class="st0" d="M366.3,175.7l-24.4-14.1c-2.2-1.3-5-0.5-6.3,1.7c-1.3,2.2-0.5,5,1.7,6.3l24.4,14.1c0.7,0.4,1.5,0.6,2.3,0.6
		c1.6,0,3.1-0.8,4-2.3C369.3,179.8,368.5,177,366.3,175.7z"/>
	<path class="st0" d="M364.1,111.9H347c-2.5,0-4.6,2.1-4.6,4.6s2.1,4.6,4.6,4.6h17.1c2.5,0,4.6-2.1,4.6-4.6S366.7,111.9,364.1,111.9
		z"/>
	<path class="st0" d="M325.2,86.4c0.8,0,1.6-0.2,2.3-0.6l38.8-22.4c2.2-1.3,3-4.1,1.7-6.3c-1.3-2.2-4.1-3-6.3-1.7l-38.8,22.4
		c-2.2,1.3-3,4.1-1.7,6.3C322.1,85.6,323.6,86.4,325.2,86.4z"/>
	<path class="st0" d="M295.4,59.6c0.4,0.1,0.8,0.2,1.2,0.2c2,0,3.9-1.3,4.4-3.4l3.7-13.6c0.7-2.5-0.8-5-3.2-5.6
		c-2.5-0.7-5,0.8-5.6,3.2L292.1,54C291.5,56.4,292.9,59,295.4,59.6z"/>
	<path class="st0" d="M131.8,293.6c-2.5-0.6-4.9,1-5.5,3.4l-1.4,6c-0.6,2.5,1,4.9,3.4,5.5c0.4,0.1,0.7,0.1,1.1,0.1
		c2.1,0,4-1.4,4.5-3.6l1.4-6C135.8,296.7,134.3,294.2,131.8,293.6z"/>
</g>
</svg>
