<?xml version="1.0" encoding="utf-8"?>
<!-- Generator: Adobe Illustrator 27.2.0, SVG Export Plug-In . SVG Version: 6.00 Build 0)  -->
<svg version="1.1" id="Layer_1" xmlns="http://www.w3.org/2000/svg" xmlns:xlink="http://www.w3.org/1999/xlink" x="0px" y="0px"
	 viewBox="0 0 500 500" style="enable-background:new 0 0 500 500;" xml:space="preserve">
<style type="text/css">
	.st0{fill:#808080;}
</style>
<g>
	<path class="st0" d="M380.5,67.7C380.5,67.7,380.5,67.7,380.5,67.7c-0.1-0.5-0.3-0.9-0.5-1.3c-4.5-11-11.4-21.1-20.6-29.3
		c-0.3-0.3-0.6-0.6-1-0.8c-3.8-3.2-7.8-6.2-12.3-8.8c-18.4-10.6-39.8-13.5-60.2-8c-15.2,4.1-28.5,12.3-38.8,23.8
		c-6.5-0.1-12.8,3.3-16.4,9.4c-2.5,4.3-3.1,9.4-1.8,14.2c0.4,1.6,1.1,3.1,1.9,4.5c-5.4,16.4-5.2,33.8,0,49.7L118,350.1c0,0,0,0,0,0
		c0,0,0,0.1,0,0.1c0,0,0,0,0,0c-8,16.3-2.9,35.5,11.4,45.8c-11.1,19-15.2,38.1-11.4,54.2c2.6,11.4,9.1,20.8,18.1,26.3
		c17.8,10.9,40,5.5,56.6-13.8c2.5-2.8,4.9-5.6,7.3-8.3c5.2-6,9.9-11.5,14.8-15.9c11.1-9.9,23.1-14.3,43.3-6.6
		c12.3,5.6,27,25.2,22.9,43.7c-0.1,0.4-0.2,0.8-0.3,1.3c-0.7,2.6,0.9,5.4,3.5,6.1c0.4,0.1,0.9,0.2,1.3,0.2c2.2,0,4.2-1.5,4.8-3.7
		c6.4-24.3-12.1-49.4-28.3-56.6c-0.1,0-0.2-0.1-0.2-0.1c-26.7-10.3-42.6-2.4-56.1,10.7c-4.6,4.4-8.9,9.4-13.2,14.5
		c-2.3,2.7-4.7,5.4-7.2,8.2c-13.3,15.4-30.6,20.1-44,11.9c-8.3-5.1-11.6-13.8-13.7-20.1c0,0-7.1-21.4,8.9-45.8
		c0.2-0.4,0.7-1.1,1.7-1.5c1.9-0.8,3.8,0.4,6.4,1.3c1.5,0.5,3.8,1,6.8,1c11.8-0.2,23.1-6.1,29.9-16.6c0,0,0,0,0,0
		c0.3-0.5,0.6-1,0.9-1.5l120.4-180.6l0.7-1l19.2-28.8c1.4-0.3,2.9-0.6,4.3-1c15.2-4.1,28.6-12.4,38.8-23.9c0.1,0,0.1,0,0.2,0
		c1.6,0,3.2-0.2,4.8-0.6c4.8-1.3,8.9-4.4,11.4-8.8c2.5-4.3,3.1-9.3,1.8-14.1c-0.4-1.7-1.1-3.2-2-4.7c2.2-6.8,3.5-13.7,3.8-20.6
		c0.1-0.5,0.1-1,0.1-1.5C386.2,88.4,384.3,77.7,380.5,67.7z M320.7,164.7c-1.1,0.2-2.3,0.5-3.5,0.6c-15.7,2.5-31.7-0.4-45.7-8.5
		c-27.7-16-40.2-48.3-32.6-77.8l21.2,12.2l-5.4,1.3c-2.7,0.6-4.3,3.3-3.7,6c0.5,2.3,2.6,3.8,4.8,3.8c0.4,0,0.8,0,1.2-0.1l15.6-3.7
		l26.8,15.5l-16.8,4c-2.7,0.6-4.3,3.3-3.7,6c0.5,2.3,2.6,3.8,4.8,3.8c0.4,0,0.8,0,1.2-0.1l27-6.4l43.2,25
		c-8.5,8.4-19,14.5-30.8,17.6C323.1,164.1,321.9,164.4,320.7,164.7z M367.3,139.5c-1.9,0.3-3.8,0-5.5-0.9c-0.1-0.1-0.3-0.1-0.4-0.2
		L326,117.9l-6.2-3.6l-6.2-3.6l-26.9-15.5l-6.2-3.6l-6.2-3.6l-31.6-18.3c-0.1-0.1-0.2-0.2-0.3-0.2c-1.6-1-2.8-2.5-3.5-4.3
		c-0.1-0.2-0.2-0.4-0.3-0.7c-0.6-2.3-0.3-4.6,0.8-6.6c1.4-2.4,3.7-3.9,6.2-4.3c0.5-0.1,1-0.2,1.5-0.2c1.3,0,2.7,0.3,4,1
		c0.1,0.1,0.3,0.1,0.4,0.2L299,82l6.2,3.6l6.2,3.6l26.8,15.5l6.2,3.6l6.2,3.6l19.5,11.3c0.1,0.1,0.2,0.1,0.3,0.2
		c1.6,1,2.8,2.5,3.5,4.4c0.1,0.2,0.2,0.5,0.3,0.7c0.6,2.3,0.3,4.6-0.8,6.6c-1.2,2.1-3.1,3.6-5.4,4.1
		C367.8,139.4,367.5,139.4,367.3,139.5z M309.2,48.4c-2.6,0.7-4.2,3.5-3.4,6.1c0.6,2.2,2.6,3.6,4.8,3.6c0.4,0,0.9-0.1,1.4-0.2
		l42.4-12c6,5.7,10.8,12.3,14.3,19.4L313,78.6l-55.3-32c8.5-8.3,19-14.4,30.7-17.5c6-1.6,12-2.4,18-2.4c12.1,0,24,3.2,34.7,9.4
		c1.2,0.7,2.4,1.5,3.6,2.2L309.2,48.4z M375.9,95.8l-23.6,5.6l-26.8-15.5l47-11.2C374.7,81.5,375.9,88.6,375.9,95.8z M373.7,113.8
		l-9-5.2l10.5-2.5C374.9,108.7,374.4,111.3,373.7,113.8z M138.2,389.9c-9.4-5-14.5-14.6-14.1-24.5c3,3.3,7,6.6,12,9.7
		c8.6,5.5,20.5,10.7,30,12.9C158.3,393.7,147.5,394.8,138.2,389.9z M295.7,196.7c-5.9,0.5-26.7-3.7-44.7-16.7
		c-2.2-1.6-5.3-1.1-6.9,1.1c-1.6,2.2-1.1,5.3,1.1,6.9c13.9,10.1,31.8,16.7,44.1,18.3L174,379.2c-1.7-0.1-4.3-0.5-7.5-1.4
		c-7-1.9-16.5-5.7-25-11.1c-5.4-3.4-9.4-7-11.8-10.3c-0.9-1.3-1.6-2.5-2-3.6l108.2-219.6c6.7,13,17.1,24.2,30.7,32.1
		c12.3,7.1,25.9,10.7,39.7,10.7c1.1,0,2.2,0,3.2-0.1L295.7,196.7z"/>
	<path class="st0" d="M235.3,221.7c-0.1-0.1-0.2-0.1-0.3-0.2l-0.7-0.3c-3.5-2-7.5-2.5-11.4-1.5c-3.9,1.1-7.1,3.5-9.3,7.1l-23.3,40.5
		c-4.1,7.2-1.7,16.4,5.4,20.5l0.7,0.5c0.1,0.1,0.2,0.1,0.3,0.2c2.4,1.3,5,2,7.5,2c5.2,0,10.3-2.7,13.2-7.6l23.3-40.5
		C244.9,235.2,242.4,225.9,235.3,221.7z M201.8,279.9l-0.6-0.4c-0.1-0.1-0.2-0.1-0.3-0.2c-2.5-1.4-3.3-4.6-1.9-7.1l23.2-40.4
		c0.8-1.3,1.9-2.2,3.3-2.5c1.3-0.4,2.7-0.2,3.9,0.5c0.1,0.1,0.2,0.1,0.3,0.2l0.6,0.3c2.4,1.5,3.2,4.7,1.9,7.2L209,277.8
		C207.4,280.4,204.4,281.2,201.8,279.9z"/>
	<path class="st0" d="M187.9,302.7c-7.1-4-15.9-1.6-20,5.5c-4,7-1.6,16,5.4,20.1c2.2,1.3,4.7,1.9,7.2,1.9c5.1,0,10-2.6,12.8-7.2
		c0,0,0.1-0.1,0.1-0.1C197.4,315.7,194.9,306.7,187.9,302.7z M176.5,313.1c0.9-1.6,2.5-2.4,4.2-2.4c0.8,0,1.6,0.2,2.4,0.6
		c2.2,1.3,3,4.2,1.8,6.5c-1.4,2.2-4.4,3-6.5,1.8C176,318.3,175.2,315.3,176.5,313.1z"/>
</g>
</svg>
