<?xml version="1.0" encoding="utf-8"?>
<!-- Generator: Adobe Illustrator 27.2.0, SVG Export Plug-In . SVG Version: 6.00 Build 0)  -->
<svg version="1.1" id="Layer_1" xmlns="http://www.w3.org/2000/svg" xmlns:xlink="http://www.w3.org/1999/xlink" x="0px" y="0px"
	 viewBox="0 0 500 500" style="enable-background:new 0 0 500 500;" xml:space="preserve">
<style type="text/css">
	.st0{fill:currentColor;}
</style>
<g>
	<path class="st0" d="M478.4,263.8c-0.4-0.7-1-1.3-1.8-1.6c-2.3-2-4.9-4-7.8-6c-0.2-0.1-0.4-0.2-0.6-0.3c-16.8-7.5-42.4-12.9-76-16
		c-0.1,0-0.2,0-0.3,0c-12.6-0.1-24.6-0.1-36.3-0.1l27.5-98.8c0.4-1.4-0.1-2.9-1.2-3.8l-35.5-30.3c-0.4-0.3-0.8-0.6-1.3-0.7
		c-17.5-5.2-22.5-4.3-25.1-1.1c-2.8,3.5-0.3,7.8,1.3,10.7l0.2,0.3c0.1,0.2,0.2,0.3,0.3,0.4l19.7,25.2l-54.9,99.1
		c-0.1,0.2-0.2,0.5-0.3,0.7c-23.8,1.1-46.1,2.7-67.8,4.9c0,0,0,0,0,0c-11.8,1.2-24.2,2.4-37.4,3.6c-20.4,1.9-41.3,3.8-61.3,6.1
		c0.3-1.6,0.7-4.7,1.7-11.8c0.7-4.8,1.6-11.4,1.9-12.6c0-0.1,0.1-0.2,0.1-0.3c1.5-6.9-2.5-14.3-8.8-16.1
		c-2.5-0.7-11.1-1.9-16.3,12.6l-3.6,8.2l-52.5-44.4c-0.7-0.6-1.6-0.9-2.5-0.9l-20.6,0.6c-1.3,0-2.5,0.8-3.2,2
		c-0.6,1.2-0.6,2.6,0.2,3.7l45.1,70.3c-5.8,3.4-8.2,7.1-9.1,10.5c-0.4,1.6-0.5,3.2-0.2,4.9l-29.7,16c-10.5,5.1-12.7,12.7-10.2,18.1
		c2,4.3,7,7.4,13.8,7.4c3.5,0,7.4-0.8,11.7-2.7l41.6-17.6c30.8,13,69.5,19.1,102.1,24l-88.6,41.9l-38.2-10.1
		c-8.7-2.9-12.9-3-15.3-0.5c-2.5,2.6-1.2,6-0.3,8.2c0.3,0.7,0.5,1.4,0.6,1.8c0.2,1.2,1.1,2.2,2.2,2.7l63.1,25.6
		c0.4,0.2,0.9,0.3,1.4,0.3c0.4,0,0.9-0.1,1.3-0.2L245.3,347c1.3,1.9,2.9,3.4,4.4,4.7c0.6,0.4,1.3,0.7,2,0.8l47.8,3.9
		c0.1,0,0.2,0,0.3,0c0.5,0,0.9-0.1,1.3-0.2c8.4-0.4,15.1-9.3,15.1-20.2c0-3.7-0.8-7.2-2.2-10.3c43.9-1.5,87.4-3.8,129.2-7.8
		c0,0,0.1,0,0.1,0c19-2.5,41.1-13.7,44.8-29.3C490.1,280.2,486.8,271.9,478.4,263.8z M467.5,264.3l-35.3,12.3c0,0-0.1,0-0.1,0.1
		c-10.3,4.1-16.4,2.2-17.5-0.4c-0.9-2.1,1.2-5.5,6.7-7.9l27-10.9c0.3-0.1,0.6-0.3,0.9-0.5c6,1.7,11.3,3.6,15.9,5.6
		C465.8,263,466.6,263.6,467.5,264.3z M349.3,143.1c0.7-1.3,0.6-2.9-0.3-4.1l-21.1-26.9l-0.1-0.1c-0.3-0.6-0.8-1.5-1.2-2.2
		c1.8-0.1,6.1,0.3,15.7,3.2l33.1,28.3L348,239.8c-18.7,0.2-36.3,0.6-53,1.2L349.3,143.1z M100.9,240.9l4.5-10.3
		c0-0.1,0.1-0.2,0.1-0.3c2-5.7,4.8-8.8,7.3-8c2.3,0.6,4.3,3.9,3.7,7.2c-0.2,0.9-0.6,3.2-2.1,13.5c-0.4,2.7-0.8,5.9-1.2,8.4
		L100.9,240.9C100.8,240.9,100.9,240.9,100.9,240.9z M34.8,314.6c-8.7,3.9-14.6,1.7-15.9-1c-1.1-2.5,1.6-5.9,6.8-8.4
		c0.1,0,0.1-0.1,0.2-0.1l29.2-15.8c1.3,1.8,3.1,3.4,5.2,4.7c3.2,1.9,6.5,3.8,9.9,5.5L34.8,314.6z M308.8,336
		c0,6.9-3.8,12.8-8.3,12.8c-0.3,0-0.6,0-0.9-0.1c-4.1-0.7-7.4-6.3-7.4-12.7c0-2.4,0.5-4.6,1.2-6.6c0.5-1.2,1-2.2,1.7-3.1
		c0.8-1.1,1.7-1.9,2.8-2.5c0.2-0.1,0.5-0.2,0.7-0.3c0.3-0.1,0.5-0.2,0.8-0.2c0.4-0.1,0.7-0.1,1.1-0.1c1.6,0,3.1,0.8,4.4,2.1
		c0.2,0.2,0.5,0.5,0.7,0.8C307.5,328.4,308.8,332,308.8,336z M253.5,345.2c-0.3-0.3-0.6-0.5-0.8-0.8c-0.8-0.9-1.6-1.9-2.3-3.1
		c-0.6-1.1-1.2-2.2-1.6-3.3c-0.7-1.9-1-4-0.9-5.9c0.2-1.7,0.7-3.2,1.7-4.5c1.1-1.6,2.6-2.9,4.7-4.1l34.2-0.5
		c-0.1,0.2-0.2,0.3-0.3,0.5c-0.6,1-1.1,2-1.6,3.1c-0.2,0.5-0.4,1.1-0.6,1.6c-0.4,1.4-0.8,2.8-1,4.3c-0.2,1.1-0.3,2.3-0.3,3.5
		c0,4.5,1.2,8.7,3.1,12L253.5,345.2z M480.9,286.9c-2.8,11.8-22.2,21.5-38.5,23.7c-38,3.7-77.6,5.9-117.5,7.4l1.8-0.7
		c1.4-0.5,2.3-1.8,2.4-3.2l1.7-24.8c0.1-2-1.4-3.8-3.4-3.9c-2-0.1-3.8,1.4-3.9,3.4l0,0.5l-1.5,21.9l-16,5.9
		c-1.7-0.8-3.5-1.2-5.3-1.2c-0.2,0-0.4,0-0.5,0c-0.5-0.2-1-0.4-1.6-0.4l-45.1,0.6c-0.6,0-1.1,0.1-1.6,0.4c-2.2,1.1-4,2.4-5.5,3.7
		c-2.6,2.4-4.1,5.1-4.9,7.5c-0.4,1.3-0.6,2.5-0.7,3.6c-0.3,3.1,0.2,6.2,1.3,9.1L106.5,390l-60.2-24.4c-0.1-0.2-0.2-0.4-0.2-0.7
		c1.3,0.2,3.3,0.7,6.4,1.8c0.1,0,0.2,0,0.2,0.1l39.6,10.4c0.8,0.2,1.7,0.1,2.5-0.2l102.3-48.3l16.4-7.7l20-9.5
		c1.6-0.7,2.4-2.5,2-4.2l-2.9-12.5l-0.1-0.6c-0.5-2-2.4-3.2-4.4-2.8c-2,0.5-3.2,2.4-2.8,4.4l2.3,10.2l-32.3,15.2
		c-2.3,0-4.7,0.1-7,0.1l-4.1-0.6c-39.4-6-88.5-13.5-120.1-32.9c-2.7-1.8-5.6-5-4.8-8.3c0.3-1.2,1.5-3.6,5.9-6.1l0.6,0.9
		c0.7,1.1,1.9,1.7,3.1,1.7c0.7,0,1.4-0.2,2-0.6c1.2-0.7,1.7-2,1.7-3.3c0-0.6-0.2-1.1-0.5-1.6c0-0.1,0-0.1-0.1-0.2l-4-6.2l-42.1-65.7
		l12.7-0.4l69.9,59.2l7.7,6.5l6.7,5.7l3,2.5c1.6,1.3,3.9,1.1,5.2-0.4c1.3-1.6,1.1-3.9-0.4-5.2l-4.3-3.7c18.2-2,37-3.7,55.5-5.4
		c13.2-1.2,25.6-2.4,37.4-3.6c50.2-5,103.3-7,172.4-6.4c17.4,1.6,32.6,3.8,45.4,6.6l-18.8,7.6c0,0-0.1,0-0.1,0
		c-10.4,4.6-12.8,12.3-10.6,17.6c1.8,4.2,6.4,7.3,13.5,7.3c3.8,0,8.3-0.9,13.4-2.9l39.3-13.7C478.9,274.8,482.4,280.7,480.9,286.9z"
		/>
	<path class="st0" d="M389.6,273.2c-6.6,0-12.1,5.4-12.1,12.1s5.4,12.1,12.1,12.1c6.7,0,12.2-5.4,12.2-12.1S396.3,273.2,389.6,273.2
		z M389.6,289.9c-2.6,0-4.7-2-4.7-4.7s2-4.7,4.7-4.7c2.6,0,4.8,2.1,4.8,4.7C394.3,287.8,392.2,289.9,389.6,289.9z"/>
	<path class="st0" d="M357.4,273.2c-6.6,0-12.1,5.4-12.1,12.1s5.4,12.1,12.1,12.1c6.6,0,12.1-5.4,12.1-12.1S364,273.2,357.4,273.2z
		 M357.4,289.9c-2.6,0-4.7-2-4.7-4.7s2-4.7,4.7-4.7c2.6,0,4.7,2,4.7,4.7S360,289.9,357.4,289.9z"/>
	<path class="st0" d="M196.8,275c-6.7,0-12.2,5.5-12.2,12.2c0,6.6,5.5,12,12.2,12c6.5,0,12.1-5.5,12.1-12
		C208.9,280.5,203.5,275,196.8,275z M196.8,291.8c-2.6,0-4.8-2.1-4.8-4.7c0-2.6,2.2-4.8,4.8-4.8c2.5,0,4.7,2.2,4.7,4.8
		C201.5,289.7,199.3,291.8,196.8,291.8z"/>
	<path class="st0" d="M164.5,275c-6.6,0-12.1,5.5-12.1,12.2c0,6.6,5.4,12,12.1,12c6.6,0,12.1-5.4,12.1-12
		C176.6,280.5,171.2,275,164.5,275z M164.5,291.8c-2.6,0-4.7-2.1-4.7-4.7c0-2.6,2.1-4.8,4.7-4.8s4.7,2.1,4.7,4.8
		C169.2,289.7,167.1,291.8,164.5,291.8z"/>
</g>
</svg>
