<?xml version="1.0" encoding="utf-8"?>
<!-- Generator: Adobe Illustrator 27.2.0, SVG Export Plug-In . SVG Version: 6.00 Build 0)  -->
<svg version="1.1" id="Layer_1" xmlns="http://www.w3.org/2000/svg" xmlns:xlink="http://www.w3.org/1999/xlink" x="0px" y="0px"
	 viewBox="0 0 500 500" style="enable-background:new 0 0 500 500;" xml:space="preserve">
<style type="text/css">
	.st0{fill:#808080;}
</style>
<g>
	<path class="st0" d="M393.6,367.9h-13.5v-53.1c1-0.9,1.8-1.8,2.6-2.9c2.4-3.6,3.3-7.9,2.5-12.2c-0.7-3.5-2.5-6.7-5.1-9v-6.9
		c5-2.8,8.4-8.1,8.4-14.3c0-1.3-0.2-2.6-0.5-3.9c3.4-3.1,5.4-7.4,5.5-12.2c0-6.4-3.7-11.8-9.1-14.5c0.9-1.4,1.7-2.9,2.3-4.5
		c2.3-6.5,1.1-14.3-3.6-23.3c-0.4-0.9-1.2-1.5-2.2-1.8c-0.3-0.1-0.6-0.1-0.9-0.1c-0.1-31.8-12.4-61.6-34.8-83.9
		c-9.5-9.4-20.2-17.1-31.9-22.8c-0.1-0.9-0.6-1.7-1.3-2.2c-1.1-0.8-1.7-1.8-2.5-3c-3.6-5.5-7.6-9.3-26.3-8.7
		c-19-5.2-36.7-4.6-51.2,1.6c-5.6-0.7-12.5-0.9-19,2.5c-1.3,0.2-2.6,0.5-3.9,0.8c-0.8,0-1.5-0.1-2.3-0.1c-8.2-0.5-16.7-1-29.6,11.2
		c-0.5,0.5-0.8,1-1,1.7c-0.8,0.5-1.7,1-2.5,1.5c-7-3.1-15.5-0.8-20,5.7c0,0-0.1,0.1-0.1,0.1c-0.8,1.2-1.4,2.5-1.8,3.8
		c-4.3,0.7-8.2,3.2-10.7,6.8c0,0,0,0,0,0c-1.9,2.9-2.9,6.2-2.8,9.6c-1.5-1-3.2-1.8-4.9-2.4c-6.5-2.1-14.3-0.8-23.1,3.9
		c-0.9,0.5-1.5,1.3-1.7,2.2c-0.2,1-0.1,2,0.4,2.8c4.9,7.7,10.2,12.4,16,14.3c-3.7,1-7,3.3-9.3,6.5c0,0,0,0,0,0
		c-2.5,3.6-3.4,8-2.5,12.3c0.8,4,3,7.4,6.2,9.7c-1.9,8.5-2.9,17.3-2.9,26.2v158.3h-13c-2,0-3.5,1.6-3.5,3.5s1.6,3.5,3.5,3.5h13v21.7
		c0,1.3,0.7,2.5,1.8,3.1c6.3,3.5,12.7,4.8,18.3,4.8c8.1,0,14.7-2.7,17.6-5.3c0.7-0.7,1.2-1.6,1.2-2.6v-21.7h167.8l-0.1,0.4
		c-0.2,1.1,0.1,2.2,0.9,3c3.3,3.7,10.1,5.3,17.3,5.8v12.5c0,1.2,0.6,2.3,1.6,3c13.5,8.7,31.6,1.8,35.1,0.3c1.3-0.6,2.2-1.8,2.2-3.3
		v-21.7h13.5c2,0,3.5-1.6,3.5-3.5S395.6,367.9,393.6,367.9z M376.6,219.6c0.6-0.5,1.3-1,2-1.5c0.7,1.7,1.2,3.2,1.6,4.7
		c0.9,3.5,0.9,6.6,0,9.2c0,0.1,0,0.1-0.1,0.2c-0.7,1.9-1.8,3.6-3.4,5.1c0,0-0.1,0-0.1,0c-1.2,0-2.4,0.2-3.5,0.5c0,0,0,0-0.1,0
		c-0.9-0.9-1.8-1.7-2.8-2.3c-0.6-2.3-0.7-4.5-0.2-6.5c0.5-2,1.5-4,3.1-5.9C374,221.9,375.2,220.7,376.6,219.6z M313,110.5
		c35.7,18.7,60.1,56.1,60.1,99v3.8c-5.5,4.3-8.8,9-10,14.1c-0.4,1.8-0.5,3.6-0.4,5.4c-0.2,0-0.4,0-0.6,0c0.1-3.7-0.5-7.2-2.1-10.2
		c-2.3-4.6-6.5-8.3-12.5-11.1c-2.5-26.6-11-47.9-25.3-63.4c-2.5-2.7-5.2-5.2-8-7.5C313.1,131.2,312.6,121.2,313,110.5z M354.9,234.1
		c-0.6,0.2-1.1,0.5-1.6,0.8c-0.7,0.4-1.3,0.8-2,1.3c-0.7-0.3-1.4-0.6-2-1c-0.3-0.2-0.7-0.4-1-0.6c-1.5-1-2.6-2.1-3.5-3.4
		c-0.1-0.1-0.2-0.3-0.3-0.4c-1.3-2-2-4.5-2.2-7.4c-0.1-1.9,0-4.1,0.3-6.4c0,0,0,0,0,0c0.6,0.3,1.3,0.5,1.8,0.8
		c1.3,0.6,2.6,1.3,3.6,2c2.6,1.7,4.4,3.7,5.5,5.9C354.8,228.2,355.2,231,354.9,234.1z M340,208.8c-0.6,0-1.3,0.1-1.9,0.4
		c-9.6-17.5-17.7-35.7-22-57.1C329,165.7,337.2,184.9,340,208.8z M190.7,103.1c2.2-1.2,4.2-1.9,6.1-2.4c3.2-0.7,6.2-0.5,9.4-0.3
		c1,0.1,2,0.1,3,0.2c0,0.1,0,0.1,0,0.2c2,8.4,4.2,16.2,6.8,23.6c0.4,1.1,0.8,2.3,1.2,3.4c0.4,1.1,0.8,2.2,1.2,3.3
		c17.4,46.2,45,72.6,71.9,98.3l2.4-2.6l2.4-2.6c-27.1-25.9-53-50.7-69.7-94.3c-0.4-1.1-0.8-2.2-1.3-3.4c-0.4-1.1-0.8-2.3-1.2-3.4
		c-2.5-7.3-4.8-15.2-6.8-23.7c0-0.1-0.1-0.2-0.1-0.3c4-2.1,8.8-2.7,15.4-1.7c0,0.2,0.1,0.3,0.1,0.5c1.4,7.7,3.7,16,6.6,24.1
		c0.4,1.2,0.8,2.4,1.3,3.5c0.4,1.2,0.9,2.4,1.4,3.5c5.1,12.8,11.5,24.6,17.8,32.4c0.7,0.9,1.7,1.3,2.8,1.3c0.8,0,1.6-0.3,2.2-0.8
		c1.5-1.2,1.8-3.5,0.5-5c-5.4-6.7-10.9-16.8-15.6-28c-0.5-1.2-1-2.4-1.4-3.5c-0.5-1.2-0.9-2.4-1.4-3.5c-3-8.1-5.5-16.5-7-24.2
		c-0.1-0.7-0.3-1.4-0.4-2.1c0-0.1,0-0.2-0.1-0.2c1.3-0.4,2.7-0.9,4-1.2c11.7-3,25.1-2.6,39.5,1.4c0.3,0.1,0.7,0.1,1.1,0.1
		c16.7-0.6,18.6,2.4,20.7,5.5c0.3,0.4,0.6,0.9,0.9,1.3c0.5,0.7,1,1.4,1.7,2.1c-0.1,0.9-0.1,1.7-0.1,2.5c-0.5,9.8-0.3,19.1,0.5,27.9
		c0.1,1.5,0.3,3,0.5,4.5c0.2,1.7,0.4,3.3,0.7,4.9c4.3,28.8,15.2,52.2,27.5,74c-0.6,6.7,0.5,12,3.3,16.3c0.8,1.2,1.7,2.3,2.7,3.3
		c1,1,2.2,1.9,3.5,2.8c0.6,0.4,1.3,0.8,2,1.1c-1.1,2.2-1.7,4.6-1.7,7.1c0,1.3,0.2,2.7,0.5,4c-0.3,0.2-0.6,0.4-0.8,0.7
		c-0.3,0.3-0.6,0.6-1,0.9c-0.2-0.3-0.4-0.6-0.6-1c0.3-0.2,0.6-0.4,0.8-0.7c0.3-0.4,0.6-0.8,0.7-1.3c0.2-0.7,0.2-1.5,0-2.2
		c-0.2-0.6-0.5-1.1-1-1.6c-0.9-0.8-1.7-1.6-2.6-2.4c-21.1-20.5-34.2-50.2-40.3-66.5c-7.2-19.3-10.5-35.4-11.3-44.7
		c-0.1-1.5-0.2-2.7-0.2-3.8c0-1.4,0.1-2.5,0.2-3.3c0-0.1,0-0.3,0-0.4c0.2-1.8-1-3.4-2.8-3.8c-1.6-0.3-3.2,0.5-3.9,1.8
		c-0.1,0.3-0.3,0.6-0.3,0.9c-0.2,0.7-0.3,1.6-0.3,2.6c-0.1,1.1-0.1,2.3,0,3.7c0.9,22.2,17.5,80,50,114.7c-1.8-0.3-3.7-0.3-5.6,0
		c-4.3,0.8-8,3.2-10.4,6.8c-0.8,1.2-1.5,2.5-2,3.9c-1.4,0.2-2.7,0.6-4,1.2c-44.1-22.4-85.2-49.4-115.1-118.8c-0.4-1-0.9-2-1.3-3.1
		c-0.2-0.4-0.3-0.7-0.5-1.1c0-0.9-0.1-1.7-0.2-2.6c-0.5-3.1-1.9-6-4.1-8.4c-1.8-4.7-3.5-9.6-5.2-14.7c-0.2-0.6-0.4-1.2-0.6-1.8
		C186.2,106,188.5,104.3,190.7,103.1z M318.3,284.1c-0.6-0.8-1.4-1.3-2.3-1.4c-1.4-0.2-2.8-0.8-3.9-1.5c-4.2-2.9-5.2-8.6-2.4-12.7
		c0,0,0,0,0,0c0.4-0.6,0.8-1.1,1.3-1.5c1-1,2.3-1.7,3.7-2.1c0.8-0.2,1.6-0.3,2.4-0.3c0.1,0,0.1,0,0.2,0c1,0,1.9-0.4,2.6-1.1
		c0.5-0.5,0.9-1.2,1-1.9c0.2-1.4,0.7-2.7,1.5-3.8c1.4-2,3.5-3.4,5.9-3.9c2.4-0.4,4.8,0.1,6.8,1.5c2.6,1.8,4.1,4.8,4,8
		c0,0.5,0,0.9,0.2,1.3c-0.1,0.5-0.1,1.1-0.1,1.6c0,2.7,0.7,5.3,1.9,7.6c0.1,0.2,0.2,0.3,0.3,0.5c0.9,1.6,2.1,3.1,3.5,4.3
		c0.4,0.4,0.9,0.7,1.4,1c0.6,0.4,1.3,0.8,2,1.2c0,0,0,0,0,0.1c-0.1,0.1-0.1,0.2-0.2,0.3c-0.7,1.1-1.7,2-2.8,2.6
		c-0.1,0.1-0.2,0.1-0.3,0.2c-1.1,0.6-2.3,1-3.5,1.1c-0.1,0-0.2,0-0.2,0c-0.2,0-0.3,0-0.5,0c-1.1,0-2.1,0.6-2.8,1.5
		c-0.4,0.5-0.6,1.2-0.7,1.9c-0.1,1.8-0.6,3.5-1.6,4.9c-1.2,1.8-3.1,3.1-5.2,3.7c-0.2,0.1-0.5,0.1-0.7,0.2c-2.4,0.4-4.8-0.1-6.8-1.5
		c-3-2-4.5-5.5-3.9-9C319,285.8,318.8,284.9,318.3,284.1z M145.5,131.5c0.2-1.1,0.7-2.2,1.4-3.2c1.2-1.8,3-3,5-3.6
		c0.8-0.2,1.7-0.4,2.6-0.4c1.7,0,3.2-1.3,3.5-3c0.2-1.1,0.5-2.1,1-3.1c0.1-0.3,0.3-0.5,0.4-0.8c1.3-1.8,3.1-3,5.1-3.6
		c1.9-0.5,3.9-0.5,5.8,0.3c0.6,0.2,1.3,0.6,1.9,1c0.5,0.4,1,0.8,1.4,1.2c1.7,1.8,2.7,4.3,2.5,6.8c-0.1,1.8,1.2,3.4,3,3.6
		c1.2,0.2,2.3,0.7,3.4,1.4c0.2,0.2,0.5,0.3,0.7,0.5c2.5,2.1,3.7,5.2,3.3,8.2c0,0.2-0.1,0.5-0.1,0.7c-0.2,1.1-0.7,2.2-1.3,3.2
		c-1.7,2.4-4.4,3.9-7.2,4c0,0-0.1,0-0.1,0c-1.9,0-3.4,1.5-3.5,3.4c0,0.1,0,0.2,0,0.3c-0.1,1.3-0.5,2.6-1.1,3.8
		c-0.1,0.3-0.3,0.6-0.5,0.8c-0.5,0.8-1.1,1.4-1.8,2c-1,0.8-2.1,1.4-3.2,1.7c-0.3,0.1-0.6,0.2-0.9,0.2c-1.2,0.2-2.5,0.2-3.7,0
		c-1.1-0.2-2.2-0.7-3.1-1.3c-2.9-2.1-4.4-5.6-3.8-9.2c0.2-1-0.1-1.9-0.7-2.7s-1.5-1.3-2.4-1.4c-1.3-0.1-2.6-0.6-3.7-1.4
		c-0.5-0.3-1-0.7-1.4-1.2c-0.9-0.9-1.6-2.1-2.1-3.3c-0.2-0.5-0.3-0.9-0.4-1.4C145.2,133.9,145.2,132.7,145.5,131.5z M179.4,169.3
		c1,3.4,0.5,7.2-1.4,11.5c-4.4-2.2-7.2-4.8-8.6-8.1c-0.5-1.2-0.8-2.5-0.9-3.9c-0.1-1.5,0-3.1,0.2-4.9c1.1-0.3,2.3-0.6,3.3-1.1
		c0.7-0.3,1.3-0.7,2-1.1C176.8,164,178.6,166.6,179.4,169.3z M117.2,139.9c5.5-2.4,10.2-2.9,14-1.7c2.2,0.7,4.2,2.1,6,4.1
		c0.4,0.5,0.8,0.9,1.2,1.5c-0.9,0.2-1.9,0.5-2.7,0.8c-2.2,0.9-4.2,2.2-5.8,4c-0.5,0-1-0.1-1.5-0.2
		C124.5,147.6,120.8,144.8,117.2,139.9z M148.2,228.8v139v7.1v19.8c-3.7,2.1-13.8,5-24.8-0.3v-19.5v-7.1V209.5
		c0-6.1,0.5-12.1,1.5-18c1.2,2.7,3.2,5.1,5.8,6.8c2.7,1.9,5.9,2.8,9.1,2.8c1,0,2-0.1,3-0.3c3.3-0.6,6.3-2.2,8.6-4.6
		C149.3,206.4,148.2,217.2,148.2,228.8z M152.4,181.9c-1.9,0-3.4,1.5-3.5,3.4c-0.1,1.8-0.6,3.5-1.6,4.9c-1.4,2-3.5,3.4-5.9,3.9
		c-2.4,0.4-4.8-0.1-6.8-1.5c-3-2-4.5-5.5-3.9-9.1c0.2-1-0.1-1.9-0.7-2.7c-0.6-0.8-1.5-1.3-2.4-1.4c0,0,0,0,0,0
		c-1.1-0.1-2.2-0.6-3.4-1.3c-0.1-0.1-0.2-0.1-0.4-0.2c-1-0.7-1.9-1.5-2.5-2.5c-0.6-0.9-1.1-2-1.3-3.1c-0.5-2.4,0-4.9,1.4-7
		c1.2-1.7,2.9-2.9,4.9-3.5c0.9-0.3,1.8-0.4,2.8-0.4c0.5,0,1-0.1,1.5-0.3c1.1-0.5,1.8-1.5,2-2.7c0.2-1,0.5-1.9,0.9-2.8
		c0.2-0.3,0.4-0.7,0.6-1c1.3-2,3.4-3.4,5.8-3.8c0.1,0,0.3,0,0.4-0.1c1.6-0.2,3.1-0.1,4.5,0.5c0.7,0.3,1.3,0.6,1.9,1
		c2.6,1.8,4.1,4.9,4,8.1c-0.1,1.8,1.2,3.4,3,3.6c1.3,0.2,2.5,0.7,3.5,1.4c1.5,1,2.5,2.4,3.2,3.9c1.2,2.8,1,6.1-0.8,8.8
		c-1,1.5-2.5,2.7-4.2,3.3C154.5,181.6,153.4,181.9,152.4,181.9z M324.4,367.9h-169v-139c0-15.9,2-30.2,5.9-42.6
		c1.7-1.1,3.2-2.6,4.4-4.3c0.2-0.4,0.5-0.7,0.7-1.1c2.8,3.2,6.8,5.8,12,7.9c0.4,0.2,0.9,0.2,1.3,0.2c1.2,0,2.4-0.7,3.1-1.8
		c4.1-7.2,5.3-13.8,3.5-19.8c-1.1-3.9-3.6-7.5-7.2-10.7c0.9-1.6,1.6-3.2,2-5c3.6-0.8,6.9-2.9,9.3-5.8c14,31.4,31.3,56.6,52.7,76.5
		c19.2,18,40.3,30.5,61.4,41.4c-0.2,0.3-0.4,0.6-0.7,0.9c-5,7.3-3,17.4,4.3,22.5c1.1,0.8,2.3,1.4,3.7,1.9c0.2,5.1,2.8,9.9,7.1,12.8
		c2.7,1.9,5.9,2.8,9.1,2.8c0.8,0,1.7-0.1,2.5-0.2c0.7,2.7,2.1,5.3,4.1,7.4c-0.5,0.5-0.9,1.2-1,1.9L324.4,367.9z M341.2,377.1
		c-4.1-0.3-7.8-1-10.1-2.2c-0.3-0.1-0.5-0.3-0.7-0.4l1.1-6.7l8.6-50.5l0.8-0.1c0.1,0.5,0.2,1,0.3,1.6c0.6,2.6,1.8,4.9,3.5,6.9
		c0.3,0.3,0.6,0.6,0.9,1c0.1,8.8-0.4,16.5-0.9,20.7c-0.2,1.5-0.4,2.6-0.5,3c-0.5,1.2-0.3,2.6,0.5,3.6c0.3,0.4,0.7,0.8,1.3,1
		c0.5,0.2,1,0.3,1.5,0.3c0.3,0,0.5,0,0.8-0.1c1-0.2,1.9-0.9,2.4-1.9c1.2-2.5,1.9-12.9,2-22.5c1.4,0.4,2.8,0.6,4.2,0.6
		c1.1,0,2.1-0.1,3.2-0.3c1.1-0.2,2.1-0.5,3.2-1l1.6,37.9l0.3,7.1l0,0.7c-3.1,1-9.9,1.7-16.9,1.7c-1.2,0-2.4,0-3.5-0.1
		C343.6,377.3,342.4,377.2,341.2,377.1z M373.1,367.9v7.1v19.2c-4.8,1.7-16.1,4.8-24.8,0.4v-10.2c5.3,0,10.1-0.5,13-0.9
		c8.5-1.2,9.9-2.9,10.6-4.4c0.3-0.5,0.4-1.1,0.4-1.7l-0.1-2.5l-0.3-7.1l-1.8-43.4c0.1-0.1,0.1-0.1,0.2-0.2c1.2-1.7,2-3.6,2.5-5.6
		c0.1,0,0.2-0.1,0.3-0.1V367.9z M376.8,307.9c-0.1,0.1-0.2,0.2-0.2,0.3c-0.9,1.3-2.2,2.2-3.5,2.9c-1.1,0.5-2.2,0.8-3.4,0.8
		c0,0,0,0,0,0c-1.7,0-3.1,1.3-3.4,2.9c0,0.2-0.1,0.3-0.1,0.5c-0.1,1.7-0.7,3.4-1.7,4.9c-0.4,0.6-0.9,1.2-1.5,1.7
		c-1.2,1-2.6,1.8-4.2,2.1c-2.4,0.5-4.9,0-7-1.4c-1.7-1.2-2.9-2.8-3.5-4.7c-0.2-0.5-0.3-1-0.4-1.6c-0.1-0.9-0.1-1.8,0-2.7
		c0-0.3,0-0.6,0-0.8c0-0.7-0.3-1.3-0.7-1.8c-0.5-0.7-1.3-1.2-2.2-1.4c-0.1,0-0.1,0-0.2,0c-0.1,0-0.2,0-0.2,0
		c-1.3-0.2-2.5-0.7-3.5-1.4c0,0-0.1,0-0.1-0.1c-2.3-1.5-3.6-3.9-4-6.4c1.6-1.1,3-2.5,4.1-4.1c0-0.1,0.1-0.1,0.1-0.1
		c1.2-1.6,2-3.5,2.4-5.6c0.3-0.1,0.7-0.2,1-0.3c0.2-0.1,0.5-0.1,0.7-0.2c0.3,0,0.5,0,0.8,0c0.8,0,1.5-0.2,2-0.6
		c0.5-0.3,0.9-0.8,1.2-1.4c1.6-1.1,3.1-2.5,4.2-4.2c0-0.1,0.1-0.1,0.1-0.2c0.5-0.8,1-1.7,1.4-2.5c0,0,0,0,0,0c1.3,0,2.6-0.2,3.8-0.5
		c0.7-0.2,1.5-0.4,2.2-0.7c0.4,0.4,0.8,0.7,1.2,1c1.2,1,2.6,1.7,4.1,2.3c0.4,0.6,0.7,1.2,0.9,1.8c0.5,1.2,0.7,2.4,0.6,3.7
		c-0.1,1.8,1.2,3.3,2.9,3.6c0.7,0.1,1.4,0.4,2.1,0.7c0.5,0.2,0.9,0.5,1.4,0.7c0.9,0.6,1.6,1.3,2.2,2.1c0.8,1.1,1.4,2.4,1.7,3.8
		C378.7,303.4,378.2,305.9,376.8,307.9z M377,277.4c-0.1,0.1-0.3,0.2-0.4,0.3c-0.9,0.5-1.9,0.8-2.9,1c-0.2,0-0.4,0.1-0.6,0.1
		c-0.2,0-0.4,0-0.6,0c-0.6,0-1.2-0.1-1.8-0.2c-0.4-0.1-0.7-0.2-1.1-0.3c-1.9-0.6-3.5-1.8-4.6-3.3c-0.1-0.1-0.2-0.2-0.3-0.3
		c-0.7-0.7-1.6-1.1-2.6-1.1c-0.4,0-0.8,0.1-1.2,0.2c-0.2,0.1-0.5,0.2-0.7,0.3c-1.2,0.7-2.4,1.2-3.7,1.4c-0.4,0.1-0.8,0.1-1.3,0.1
		c-0.8,0-1.5-0.1-2.3-0.3c-0.2-0.1-0.5-0.1-0.7-0.2c-1.3-0.4-2.5-1.2-3.4-2.1c-0.2-0.2-0.4-0.4-0.6-0.6c-0.7-0.8-1.2-1.7-1.6-2.7
		c-0.4-1-0.6-2.1-0.6-3.2c0-0.5,0.1-1,0.1-1.5c0.2-1.2,0.6-2.3,1.2-3.3c0.2-0.4,0.5-0.8,0.8-1.1c0.8-1,1.9-1.8,3.1-2.4
		c0.9-0.4,1.5-1.1,1.8-2c0.3-0.9,0.3-1.9-0.1-2.7c-0.6-1.3-0.9-2.7-0.9-4c0-0.6,0.1-1.3,0.2-1.9c0.2-1,0.6-1.9,1.1-2.7
		c0.2-0.4,0.5-0.8,0.8-1.1c0.6-0.7,1.2-1.3,2-1.9c0.2-0.1,0.4-0.3,0.6-0.4c0,0,0.1,0,0.1-0.1c1.2-0.7,2.5-1.1,4-1.1
		c0.1,0,0.3,0,0.4,0c1.1,0,2.1,0.2,3.1,0.6c1.8,0.7,3.4,1.9,4.5,3.5c0.9,1.3,2.6,1.9,4.1,1.3c0.1,0,0.2-0.1,0.3-0.1
		c1-0.5,2.1-0.7,3.2-0.8c0.2,0,0.5,0,0.7,0c0.6,0,1.2,0.1,1.8,0.2c0.3,0.1,0.7,0.2,1,0.3c3.7,1.2,6.4,4.6,6.4,8.6
		c-0.1,3.3-1.7,6.2-4.5,8c-1.5,0.9-2.1,2.8-1.4,4.4c0.5,1.2,0.8,2.5,0.8,3.7c0,1.7-0.5,3.4-1.3,4.8
		C379.4,275.5,378.3,276.6,377,277.4z"/>
	<path class="st0" d="M363.4,291.7C363.4,291.7,363.4,291.7,363.4,291.7c-4.7-3.2-10.9-2.7-15.1,1c-0.8,0.7-1.5,1.5-2.1,2.4
		c-0.6,0.9-1.1,1.9-1.4,2.9c-0.9,2.7-0.9,5.5,0,8.1c0.4,1.2,1,2.2,1.7,3.2c0.5,0.7,1.1,1.4,1.8,2c0.4,0.3,0.8,0.6,1.2,0.9
		c0.1,0.1,0.2,0.1,0.4,0.2c2,1.3,4.3,1.9,6.6,1.9c0.8,0,1.6-0.1,2.4-0.2c2.6-0.5,5-1.9,6.7-3.8c0.4-0.4,0.8-0.9,1.1-1.4
		c0.4-0.6,0.7-1.2,1-1.8c1.1-2.3,1.4-4.8,0.9-7.3C368,296.5,366.2,293.6,363.4,291.7z M360.8,304.9c-0.8,1.2-2,2-3.4,2.3
		c-1.4,0.3-2.8,0-4-0.9c-2.4-1.6-3-4.9-1.4-7.3c1-1.5,2.7-2.3,4.4-2.3c1,0,2,0.3,2.9,0.9c1.2,0.8,2,2.1,2.3,3.5
		C361.9,302.5,361.6,303.8,360.8,304.9z"/>
	<path class="st0" d="M302.9,241.5l4.4,3.3c0.6,0.5,1.4,0.7,2.1,0.7c1.1,0,2.2-0.5,2.9-1.4c1.2-1.6,0.8-3.8-0.8-4.9l-4.4-3.3
		c-1.6-1.2-3.8-0.8-4.9,0.8C301,238.1,301.4,240.3,302.9,241.5z"/>
	<path class="st0" d="M274.6,172c-1-1.7-3.2-2.2-4.9-1.2c-1.7,1-2.2,3.2-1.2,4.9l2.9,4.7c0.7,1.1,1.8,1.7,3,1.7
		c0.6,0,1.3-0.2,1.8-0.5c1.7-1,2.2-3.2,1.2-4.9L274.6,172z"/>
	<path class="st0" d="M348.3,362.5c-0.2-0.3-0.4-0.6-0.7-0.9c-0.8-0.7-1.8-1-2.8-0.8c-0.8,0.1-1.6,0.5-2.2,1.2l-0.7,0.8
		c-0.3,0.4-0.5,0.8-0.7,1.2c-0.3,0.7-0.2,1.5,0,2.3c0.2,0.6,0.5,1.1,1,1.5c0.1,0,0.1,0.1,0.2,0.1c0.6,0.5,1.4,0.8,2.2,0.8
		c0.1,0,0.1,0,0.2,0c0.7,0,1.4-0.3,2-0.7c0.2-0.1,0.3-0.3,0.5-0.5l0.7-0.8c0.1-0.2,0.3-0.3,0.4-0.5C349,365,348.9,363.6,348.3,362.5
		z"/>
	<path class="st0" d="M157.7,145.4c2.1,1.4,4.6,2.1,6.9,2.1c4,0,7.9-1.9,10.2-5.4c1.9-2.7,2.6-6.1,1.9-9.3c-0.6-3.2-2.4-6-5.1-7.9
		c-2-1.4-4.3-2.1-6.7-2.1c-0.9,0-1.8,0-2.7,0.2c-3.3,0.6-6.1,2.5-8,5.2c-1.4,2-2,4.3-2.1,6.6C152.2,138.8,154.1,142.9,157.7,145.4z
		 M160.2,132.1c0.8-1.2,2-2,3.4-2.3c0.3-0.1,0.7-0.1,1-0.1c1.1,0,2.1,0.3,3,0.9c0,0,0,0,0,0c1.1,0.8,1.9,1.9,2.2,3.3
		c0.3,1.4,0,2.8-0.9,4.1c-1.6,2.4-4.9,3-7.3,1.4C159.3,137.8,158.6,134.5,160.2,132.1z"/>
	<path class="st0" d="M146.2,161.8c-2.7-1.9-6-2.5-9.3-1.9c-0.7,0.1-1.4,0.3-2.1,0.6c-2.3,0.9-4.4,2.4-5.8,4.5
		c-0.4,0.6-0.8,1.3-1.1,2c-0.2,0.4-0.3,0.9-0.5,1.3c-1,3-0.7,6.3,0.7,9.2c0.9,1.9,2.3,3.6,4.1,4.9c2.1,1.4,4.5,2.1,6.9,2.1
		c4,0,8-1.9,10.4-5.4c1.8-2.8,2.5-6.2,1.8-9.5C150.7,166.3,148.9,163.6,146.2,161.8z M143.7,175c-1.6,2.4-5,3-7.4,1.5
		c-2.4-1.7-3-5-1.4-7.5c0.8-1.1,1.9-1.9,3.3-2.2c0.3-0.1,0.7-0.1,1-0.1c1.1,0,2.1,0.3,3,0.9c0,0,0,0,0.1,0c1.1,0.7,1.9,1.9,2.2,3.2
		C144.8,172.4,144.5,173.9,143.7,175z"/>
	<path class="st0" d="M327.4,287.6c0.7,0,1.5-0.1,2.2-0.2c3.3-0.6,6.2-2.5,8.1-5.3c0.3-0.5,0.6-1,0.9-1.6c0.5-1.1,0.9-2.3,1.1-3.4
		c0.2-1.3,0.2-2.7,0-4c-0.5-3.2-2.3-6.2-5.2-8.2c0,0,0,0,0,0c-4-2.6-8.9-2.7-12.8-0.6c-1.1,0.6-2.2,1.4-3.1,2.4
		c-0.4,0.5-0.9,1-1.2,1.5c-0.3,0.5-0.6,0.9-0.8,1.4c-1.2,2.4-1.6,5.2-1.1,7.9c0.6,3.2,2.5,6,5.2,7.8
		C322.6,286.9,324.9,287.6,327.4,287.6z M322.8,272.8c0.1-0.2,0.2-0.4,0.3-0.5c0.7-1,1.6-1.6,2.6-2c0.6-0.2,1.2-0.3,1.8-0.3
		c1,0,2.1,0.3,3,0.9c1,0.7,1.7,1.7,2,2.8c0.4,1.2,0.4,2.6-0.2,3.8c-0.1,0.2-0.2,0.5-0.4,0.7c-0.8,1.2-2.1,2-3.5,2.3
		c-1.4,0.2-2.7,0-3.8-0.8c0,0-0.1,0-0.1-0.1c-1.2-0.8-1.9-1.9-2.2-3.3C322,275,322.2,273.9,322.8,272.8z"/>
	<path class="st0" d="M373.1,248.5c-0.1-0.1-0.2-0.2-0.3-0.2c-1.6-1.1-3.5-1.9-5.5-2.1c-0.5-0.1-1-0.1-1.5-0.1
		c-1.8,0-3.6,0.4-5.1,1.1c-1.1,0.5-2.1,1.2-3,1.9c-0.9,0.8-1.8,1.8-2.4,2.9c-1.2,1.9-1.8,4.1-1.8,6.5c0,6.8,5.5,12.3,12.3,12.3
		c0,0,0.1,0,0.1,0c1.3,0,2.5-0.2,3.7-0.6c1.1-0.4,2.2-0.9,3.2-1.6c0.1-0.1,0.3-0.2,0.4-0.3c1.5-1.1,2.7-2.5,3.5-4.1
		c0.9-1.7,1.5-3.7,1.5-5.8c0-2.1-0.5-4.1-1.5-5.9C375.7,251,374.5,249.6,373.1,248.5z M369.3,262.3c-0.9,0.8-2,1.3-3.3,1.4
		c-0.1,0-0.2,0-0.3,0c-2.9,0-5.3-2.4-5.3-5.3c0-1.1,0.3-2.1,0.9-3c0.7-1,1.7-1.8,2.9-2.1c0.5-0.1,1-0.2,1.5-0.2
		c2.9,0,5.3,2.4,5.3,5.4C371,260,370.3,261.4,369.3,262.3z"/>
	<path class="st0" d="M431.1,273.1c0.4-0.2,0.8-0.4,1.2-0.6c0.2-0.1,0.5-0.3,0.7-0.4c0.3-0.2,0.5-0.3,0.7-0.5c1.3-1,2.3-2.2,3.1-3.5
		c0.3-0.6,0.6-1.1,0.9-1.7c0.5-1.2,0.8-2.5,0.8-3.8c0.1-1.9-0.2-3.8-1-5.7c-0.4-1-1-1.8-1.6-2.6c-0.2-0.3-0.5-0.6-0.7-0.8
		c-1-1-2.1-1.9-3.3-2.5c-2.6-1.4-5.6-1.8-8.5-1.1c-0.7,0.2-1.5,0.4-2.2,0.7c-6.2,2.8-9,10.1-6.2,16.3c1.3,3,3.7,5.3,6.8,6.5
		c1.5,0.6,3,0.9,4.5,0.9c0.9,0,1.7-0.1,2.5-0.3C429.5,273.7,430.3,273.4,431.1,273.1z M424.3,266.7c-1.3-0.5-2.3-1.5-2.9-2.8
		c-1.2-2.7,0-5.8,2.7-7c0.7-0.3,1.4-0.4,2.1-0.4c2,0,4,1.2,4.9,3.2c0.6,1.3,0.6,2.7,0.1,4.1c-0.5,1.3-1.5,2.4-2.9,2.9
		C427,267.2,425.6,267.2,424.3,266.7z"/>
	<path class="st0" d="M96.2,251.7c-1.6-4-4.6-7.1-8.5-8.9c-2.1-1-4.3-1.4-6.6-1.4c0.1-3-0.6-6.1-2.1-8.8c0.8-1,1.5-2.2,2.1-3.5
		c1.8-4,1.9-8.4,0.3-12.4c-1.6-4.1-4.6-7.3-8.6-9c0,0,0,0,0,0c-4.1-1.8-8.7-1.8-12.7-0.2c-1.1-0.9-2.4-1.7-3.7-2.2
		c-4-1.8-8.5-1.9-12.5-0.3c-4,1.6-7.2,4.6-8.9,8.5c-1.8,4-1.8,8.4-0.3,12.3c-5.2-3.7-12.5-5.1-21.7-4.2c-1,0.1-1.9,0.6-2.5,1.4
		c-0.6,0.8-0.8,1.8-0.7,2.8c1.8,10,5.4,16.7,10.9,20.5c0,0,0.1,0,0.1,0.1c-0.2,0.4-0.4,0.8-0.6,1.2c-1.9,4.2-1.8,9.1,0.1,13.3
		c-0.8,1-1.5,2.1-2,3.3c0,0,0,0.1,0,0.1c-3.6,8.3,0.1,17.7,8.3,21.3c3.8,1.7,8.1,1.9,12,0.5c1.4,1.5,3.1,2.6,5,3.5v32.4
		c-1.1,0.1-2,0.3-2.9,0.4c-11.3,1.8-16.8,5.3-16.5,10.3c0,0,0,0,0,0V381c0,13.1,13.1,23.8,29.1,23.8H59c16.4,0,29.2-10.5,29.2-23.8
		v-44.3c0.5-0.7,0.8-1.4,0.9-2.2c0.1-0.8,0.1-2.5-1.4-4c-2.2-5.4-10.6-7.9-20-8.9v-34.3c0.1,0,0.2-0.1,0.4-0.1
		c1.4,1.4,3.1,2.6,4.9,3.4c2.1,1,4.4,1.4,6.6,1.4c2,0,4-0.4,5.9-1.1c4-1.6,7.2-4.6,8.9-8.5c2.1-4.7,1.8-10.2-0.7-14.6
		c0.8-1.1,1.6-2.2,2.1-3.5C97.7,260.3,97.8,255.8,96.2,251.7z M42.4,225.3c-1.8-2.6-2.1-5.9-0.8-8.9c0.9-2.2,2.7-3.9,4.9-4.8
		c2.3-0.9,4.8-0.8,7.2,0.2c1.1,0.5,2.3,1.3,3.1,2.3c1.1,1.3,3.1,1.6,4.6,0.7c2.6-1.6,5.9-1.9,8.7-0.7c2.2,1,3.9,2.8,4.8,5.1
		c0.9,2.3,0.8,4.8-0.2,7c-0.6,1.4-1.4,2.4-2.4,3.2c-0.8,0.6-1.3,1.5-1.4,2.5c-0.1,1,0.2,2,0.8,2.7c1.8,2.1,2.6,4.7,2.2,7.3
		c-0.8-0.6-1.7-1.1-2.7-1.5c-1.7-0.7-3.4-1.2-5.2-1.3c1.5-1.2,2.8-2.8,3.6-4.7c1.3-3,1.4-6.4,0.3-9.5c-1.2-3.1-3.5-5.5-6.5-6.9
		c-3-1.3-6.4-1.4-9.5-0.3c-3.1,1.2-5.5,3.5-6.9,6.5c-1.3,3-1.4,6.4-0.2,9.5c1.1,2.9,3.3,5.2,6,6.6c0.2,0.1,0.3,0.2,0.5,0.2
		c0.8,0.4,1.7,0.6,2.6,0.8c-1.1,0.7-2.1,1.5-3,2.5c-0.3,0.3-0.5,0.5-0.7,0.8c-2.1,1.2-4.6,1.4-6.9,0.8c-0.4-0.1-0.7-0.2-1.1-0.4
		c0,0,0,0,0,0c-0.1-0.1-0.3-0.1-0.4-0.2c0-0.1,0-0.1,0-0.2c-0.1-1.7-0.3-3.3-0.6-4.8c-0.6-3-1.6-5.7-2.9-8c0.4-0.7,1-1.3,1.6-1.9
		C43.1,228.8,43.4,226.8,42.4,225.3z M63.2,231.5c-0.6,1.3-1.6,2.3-2.9,2.8c-1.3,0.5-2.7,0.5-4-0.1c-1.3-0.6-2.3-1.6-2.8-3
		c-0.5-1.3-0.5-2.8,0.1-4c0.6-1.3,1.6-2.3,2.9-2.8c0.6-0.2,1.3-0.4,1.9-0.4c0.7,0,1.5,0.2,2.2,0.5c1.3,0.6,2.3,1.6,2.8,2.9
		C63.8,228.8,63.8,230.2,63.2,231.5z M59.6,287.8c0.4,0.1,0.8,0.1,1.1,0.2v33.1v1h-10v-0.8v-30.4C53.9,290.7,57,289.7,59.6,287.8z
		 M49,263.2c-0.4,0.7-0.8,1.4-1.1,2.1c-0.3,0.7-0.5,1.4-0.8,2.1c-1.5,1.3-3.6,1.7-5.6,0.8c-1.3-0.6-2.3-1.6-2.8-2.9
		c-0.5-1.3-0.5-2.8,0.1-4.1c0,0,0,0,0,0c0.6-1.3,1.6-2.3,2.9-2.8c0.6-0.2,1.2-0.4,1.9-0.4c0.7,0,1.4,0.2,2.1,0.5
		c1.3,0.6,2.3,1.6,2.8,2.9C48.9,262,49,262.6,49,263.2z M17.7,228.4c6-0.1,10.6,1.1,13.6,3.7c0.3,0.3,0.6,0.5,0.8,0.8
		c1.3,1.3,2.3,3,3.1,4.9c0,0.1,0.1,0.2,0.1,0.3c0.4,1,0.7,2.1,0.9,3.3c0,0.1,0,0.2,0.1,0.3c0,0.2,0.1,0.5,0.1,0.7
		c-1.3,0.2-2.5,0.2-3.6,0.2c-0.9,0-1.8-0.1-2.7-0.2c-1.7-0.3-3.2-0.8-4.5-1.5c-0.3-0.2-0.6-0.3-0.9-0.5
		C21.5,238.2,19.2,234.3,17.7,228.4z M42.7,279.8c-0.7-1.1-1.8-1.7-3-1.7c-0.6,0-1.2,0.2-1.8,0.5c-2.6,1.5-5.7,1.7-8.3,0.5
		c-4.6-2.1-6.7-7.3-4.7-12c0.5-1.1,1.3-2.2,2.3-3.1c1.3-1.2,1.5-3.1,0.5-4.6c-1.8-2.7-2.1-6.2-0.9-9c0.2-0.4,0.4-0.9,0.7-1.3
		c1.8,0.4,3.7,0.6,5.8,0.6c1.4,0,2.9-0.1,4.5-0.3c0.9,0.7,1.9,1.4,2.9,1.9c-0.5,0.1-1,0.3-1.5,0.5c-3,1.2-5.4,3.5-6.8,6.5
		c-1.3,3-1.4,6.4-0.3,9.5c1.2,3.1,3.5,5.5,6.5,6.9c1.6,0.7,3.3,1,4.9,1.1c0,0,0,0,0.1,0c1.1,0,2.2-0.2,3.2-0.4
		c0.1,0.4,0.2,0.8,0.3,1.1c0.7,2.3,1.9,4.5,3.5,6.3c0.3,0.3,0.6,0.6,0.9,0.9c-0.3,0-0.6,0.1-0.9,0.1c-1.2,0.1-2.4-0.1-3.5-0.5
		c-0.2-0.1-0.4-0.2-0.7-0.3c-1.1-0.5-2.1-1.2-2.9-2C43.3,280.6,42.9,280.2,42.7,279.8z M81.2,381c0,9.2-9.9,16.7-22.2,16.7h-5.6
		c-12.2,0-22.1-7.5-22.1-16.7v-41.3c13.4,6.6,38.2,3.8,47.5,1.5c0.9-0.2,1.7-0.4,2.4-0.7V381z M73.3,329.6c5.7,1.2,7.6,2.8,7.9,3.5
		v0c-5.2,2.1-20.6,4.7-34.7,3.2c-6.6-0.7-11.6-2.2-14.3-4.4c2.2-1.3,7.2-2.5,13.4-3.2c0.5,0.2,1,0.4,1.6,0.4h17.1
		c0.7,0,1.4-0.2,2-0.6C68.7,328.8,71.1,329.1,73.3,329.6z M89.4,261.4c-0.6,1.3-1.4,2.4-2.4,3.2c-0.8,0.6-1.2,1.5-1.3,2.4
		c-0.1,1,0.2,1.9,0.9,2.6c2.4,2.8,3,6.5,1.5,9.8c-0.9,2.2-2.7,3.9-5,4.8c-2.3,0.9-4.8,0.8-7-0.2c-1.6-0.7-3-1.9-4-3.4
		c-0.7-1-1.8-1.5-2.9-1.5c-0.4,0-0.9,0.1-1.3,0.3c-0.2,0.1-0.3,0.1-0.5,0.2c-0.7,0.4-1.3,0.7-2.1,0.9c-0.3,0.1-0.6,0.2-1,0.2
		c-1,0.2-2.1,0.2-3.1,0c-0.2,0-0.3-0.1-0.5-0.1c-0.6-0.1-1.2-0.3-1.7-0.6c-0.4-0.2-0.8-0.4-1.2-0.7c-1.7-1.1-3-2.7-3.7-4.5
		c-0.4-1.1-0.6-2.3-0.6-3.5c0-0.3,0-0.5,0.1-0.8c0.1-0.9,0.3-1.8,0.7-2.6c0,0,0-0.1,0.1-0.1c0.4-0.8,0.8-1.5,1.4-2.1
		c0.1-0.2,0.3-0.3,0.5-0.4c0.1-0.1,0.2-0.2,0.3-0.3c0.6-0.5,0.9-1.1,1.1-1.8c0.3-1,0.1-2.1-0.5-2.9c-1.3-1.9-1.8-4.2-1.5-6.4
		c0.1-0.8,0.3-1.7,0.7-2.5c0.2-0.4,0.3-0.7,0.5-1c0.2-0.3,0.4-0.6,0.6-0.9c0.5-0.7,1.1-1.2,1.8-1.7c0.3-0.2,0.6-0.4,0.9-0.6
		c0.4-0.2,0.7-0.4,1.1-0.5c0.9-0.3,1.8-0.5,2.7-0.6c1.5-0.1,3,0.1,4.3,0.8c0.8,0.4,1.4,0.8,2,1.2c0.5,0.4,0.9,0.7,1.2,1.2
		c0.4,0.5,1,0.9,1.6,1.1c1,0.3,2.1,0.3,3-0.3c0.9-0.5,1.8-0.9,2.7-1.2c2-0.5,4-0.4,5.9,0.5c0,0,0.1,0,0.1,0c2.2,0.9,3.9,2.7,4.8,4.9
		C90.5,256.6,90.4,259.1,89.4,261.4z"/>
	<path class="st0" d="M78.3,253.2c-0.7-0.3-1.4-0.6-2.2-0.7c-2.4-0.6-4.9-0.4-7.3,0.5c-0.5,0.2-0.9,0.4-1.3,0.6
		c-1.2,0.6-2.3,1.5-3.2,2.4c-0.3,0.3-0.5,0.6-0.8,0.9c-0.6,0.8-1.1,1.6-1.6,2.6c0,0,0,0,0,0c-0.8,1.8-1.1,3.8-1,5.7
		c0.1,1,0.2,2,0.5,2.9c0.4,1.3,1,2.5,1.7,3.5c0.3,0.5,0.7,0.9,1.1,1.4c0.6,0.7,1.4,1.3,2.2,1.8c0.4,0.3,0.9,0.6,1.4,0.8
		c0.2,0.1,0.3,0.2,0.5,0.2c1.6,0.7,3.3,1.1,5,1.1c4.7,0,9.2-2.7,11.3-7.3C87.3,263.3,84.5,255.9,78.3,253.2z M78,266.6
		c-1.2,2.7-4.2,3.8-6.9,2.7c-2.7-1.2-3.9-4.3-2.7-7c0.6-1.3,1.6-2.3,2.9-2.8c1.3-0.5,2.8-0.5,4.1,0.1C78,260.8,79.2,264,78,266.6z"
		/>
	<path class="st0" d="M490.1,220.9c0.2-1,0-2-0.6-2.8c-0.6-0.8-1.5-1.3-2.4-1.4c-9.3-1.1-16.4,0-21.6,3.5c0.5-3.1,0.2-6.4-1.1-9.4
		c-1.7-3.9-4.9-7-8.9-8.5c-4.1-1.6-8.5-1.5-12.5,0.3c-1.4,0.6-2.6,1.4-3.6,2.2c-4.1-1.7-8.8-1.6-12.8,0.2
		c-8.2,3.7-11.8,13.2-8.2,21.4c0.6,1.2,1.3,2.4,2.1,3.5c-1.6,2.7-2.3,5.8-2.1,8.8c-2.2,0-4.5,0.4-6.6,1.3c0,0,0,0,0,0
		c-4,1.8-7,5-8.6,9.1c-1.5,4-1.4,8.4,0.4,12.3c0.6,1.2,1.3,2.4,2.1,3.5c-2.6,4.4-2.9,9.9-0.7,14.6c2.6,6,8.6,9.7,14.9,9.7
		c2.2,0,4.4-0.4,6.5-1.4c0.8-0.4,1.6-0.8,2.4-1.4v35.3c-1.1,0.1-2,0.3-2.9,0.4c-11.3,1.8-16.8,5.3-16.5,10.3c0,0,0,0,0,0V381
		c0,13.1,13.1,23.8,29.1,23.8h5.6c16.4,0,29.2-10.5,29.2-23.8v-44.3c0.5-0.7,0.8-1.4,0.9-2.2c0.1-0.8,0.1-2.5-1.4-4
		c-2.2-5.4-10.6-7.9-20-8.9v-33.8c1-0.2,2-0.6,3-1c1.9-0.8,3.5-2,4.9-3.4c3.9,1.4,8.2,1.2,12-0.4c8.1-3.6,11.9-13.2,8.3-21.4
		c0-0.1-0.1-0.1-0.1-0.2c-0.6-1.2-1.2-2.2-2-3.2c1.9-4.2,2-8.9,0.1-13.3c-0.5-1-1-2-1.7-2.9c0.3-0.2,0.7-0.4,1-0.6
		C484.2,237.6,488.1,230.8,490.1,220.9z M429.5,211.5C429.5,211.5,429.5,211.5,429.5,211.5c1.2-0.5,2.4-0.8,3.7-0.8
		c1.7,0,3.4,0.5,4.9,1.4c1.5,1,3.5,0.6,4.7-0.8c0.7-0.9,1.8-1.7,3.1-2.3c2.2-1,4.7-1.1,7-0.2c2.3,0.9,4.1,2.6,5,4.8
		c1.3,3,1,6.4-0.8,8.9c-1.1,1.5-0.8,3.6,0.6,4.8c0.4,0.3,0.7,0.7,1,1.1c-1.3,2.6-2.1,5.6-2.6,9.1c-0.1,0.7-0.2,1.4-0.3,2.2
		c-0.1,0.7,0.1,1.4,0.4,2.1c0,0.1,0.1,0.2,0.1,0.2c-0.3,0.2-0.6,0.4-1,0.5c0,0,0,0-0.1,0c-0.4,0.2-0.7,0.3-1.1,0.4
		c-2.4,0.7-4.9,0.4-7.1-0.8c-0.2-0.3-0.5-0.5-0.7-0.8c-0.9-0.9-1.9-1.8-3.1-2.5c0.9-0.2,1.8-0.4,2.6-0.8c0.2-0.1,0.4-0.2,0.5-0.3
		c2.8-1.4,4.9-3.7,6.1-6.6c1.2-3.1,1.1-6.4-0.2-9.4c-1.3-3-3.8-5.3-6.9-6.5c-3.1-1.2-6.5-1.1-9.5,0.2c-3,1.3-5.3,3.8-6.5,6.9
		c-1.2,3.1-1.1,6.4,0.3,9.5c0.8,1.9,2.1,3.5,3.7,4.7c-1.8,0.2-3.6,0.6-5.3,1.4c-0.9,0.4-1.8,0.9-2.6,1.5c-0.4-2.6,0.4-5.2,2.2-7.2
		c0.6-0.7,1-1.6,0.9-2.6c-0.1-0.9-0.5-1.8-1.2-2.4c-1.1-0.9-2-2.1-2.5-3.4C422.7,218.9,424.8,213.6,429.5,211.5z M457.6,255.7
		c1.3,0.5,2.3,1.5,2.9,2.8c0,0,0,0,0,0c0.6,1.3,0.6,2.7,0.1,4.1c-0.5,1.3-1.5,2.4-2.8,2.9c-1.3,0.6-2.7,0.6-4.1,0.1
		c-0.6-0.2-1.1-0.5-1.5-0.9c-0.2-0.7-0.4-1.3-0.7-2c-0.3-0.7-0.7-1.5-1.1-2.1c0.1-2,1.2-3.8,3.2-4.7c0.7-0.3,1.4-0.5,2.1-0.5
		C456.4,255.3,457,255.4,457.6,255.7z M443.1,231.4c-2.7,1.2-5.7,0-6.9-2.7c-0.6-1.3-0.6-2.7-0.1-4.1c0.5-1.3,1.5-2.4,2.8-2.9
		c0.7-0.3,1.4-0.4,2.1-0.4c0.6,0,1.3,0.1,1.9,0.4c1.3,0.5,2.4,1.5,3,2.8c0.6,1.3,0.6,2.7,0.1,4C445.4,229.8,444.4,230.8,443.1,231.4
		z M427.3,278.1c-1,1.5-2.4,2.7-3.9,3.4c-4.7,2-10.1-0.1-12.1-4.7c0,0,0-0.1,0-0.1c-1.4-3.1-0.8-7,1.5-9.6c0.6-0.7,1-1.6,0.9-2.6
		c-0.1-0.9-0.5-1.8-1.2-2.4c-1.1-1-2-2.1-2.6-3.4c-1-2.2-1.1-4.6-0.2-6.9c0.9-2.3,2.6-4.1,4.8-5.1c1.9-0.8,4-1,5.9-0.5
		c0.9,0.2,1.9,0.6,2.7,1.1c0.9,0.6,2.1,0.7,3.1,0.4c0.6-0.2,1.1-0.5,1.5-1c0.4-0.4,0.8-0.9,1.3-1.2c0.6-0.5,1.2-0.9,1.9-1.2
		c1.4-0.6,2.9-0.9,4.4-0.8c0.9,0.1,1.7,0.3,2.6,0.6c0.4,0.2,0.8,0.4,1.2,0.6c0.3,0.2,0.7,0.4,1,0.6c0.6,0.5,1.2,1.1,1.7,1.7
		c0.2,0.3,0.4,0.6,0.6,0.9c0.2,0.3,0.4,0.7,0.6,1.1c0.4,0.8,0.6,1.6,0.7,2.4c0.3,2.2-0.2,4.5-1.5,6.4c-0.6,0.8-0.8,1.9-0.5,2.8
		c0.2,0.7,0.5,1.4,1.1,1.9c0.1,0.1,0.2,0.2,0.3,0.3c0.2,0.1,0.3,0.3,0.5,0.4c0.6,0.7,1.1,1.4,1.4,2.2c0,0,0,0.1,0,0.1
		c0.4,0.8,0.6,1.7,0.7,2.5c0,0,0,0,0,0c0.2,1.2,0.1,2.4-0.2,3.5c-0.1,0.3-0.2,0.7-0.3,1c-0.4,0.9-0.9,1.8-1.5,2.5
		c-0.6,0.7-1.3,1.3-2.2,1.8c-0.4,0.2-0.7,0.4-1.1,0.6c-0.7,0.3-1.5,0.5-2.3,0.7c-0.8,0.1-1.6,0.1-2.4,0.1c-0.6-0.1-1.1-0.2-1.7-0.3
		c-0.6-0.2-1.3-0.5-1.9-0.8c-0.1,0-0.1-0.1-0.2-0.1c-1.1-0.6-2.3-0.6-3.4-0.1C428.2,277.1,427.7,277.5,427.3,278.1z M445.8,287.8
		v33.3v1h-10v-0.8v-35.9c1.3,0.1,2.6,0,3.9-0.3c1.1,0.8,2.4,1.5,3.7,2C444.2,287.4,445,287.6,445.8,287.8z M466.3,381
		c0,9.2-9.9,16.7-22.2,16.7h-5.6c-12.2,0-22.1-7.5-22.1-16.7v-41.3c13.4,6.6,38.2,3.8,47.5,1.5c0.9-0.2,1.7-0.4,2.4-0.7V381z
		 M458.4,329.6c5.7,1.2,7.6,2.8,7.9,3.5v0c-5.2,2.1-20.6,4.7-34.7,3.2c-6.6-0.7-11.6-2.2-14.3-4.4c2.2-1.3,7.2-2.5,13.4-3.2
		c0.5,0.2,1,0.4,1.6,0.4h17.1c0.7,0,1.4-0.2,2-0.6C453.8,328.8,456.2,329.1,458.4,329.6z M469.9,276.4c-2.7,1.2-5.8,1-8.4-0.5
		c-1.6-0.9-3.7-0.5-4.7,1.1c-0.9,1.4-2.3,2.5-3.8,3.2c0,0,0,0-0.1,0c-1.1,0.5-2.3,0.8-3.5,0.8c-0.5,0-1,0-1.5-0.1
		c0.5-0.5,1.1-1,1.5-1.6c1-1.3,1.8-2.7,2.5-4.2c0.3-0.8,0.6-1.7,0.7-2.5c0.1,0,0.2,0.1,0.3,0.1c0.9,0.2,1.8,0.3,2.8,0.3
		c1.7,0,3.4-0.4,5-1.1c3-1.3,5.3-3.8,6.5-6.9c1.2-3.1,1.1-6.4-0.3-9.5c-1.3-3-3.8-5.3-6.8-6.5c-0.5-0.2-1-0.3-1.5-0.5
		c2.1-1,4-2.5,5.5-4.3c0.9,0.1,1.9,0.1,2.7,0.1c1.1,0,2.1-0.1,3.2-0.2c1.1,0.9,2,2.1,2.6,3.4c1.3,3,1,6.3-0.8,8.9
		c-1,1.5-0.8,3.5,0.6,4.7c0.9,0.7,1.6,1.7,2.3,3.1C476.6,269,474.5,274.4,469.9,276.4z M474.6,235.3c-1,0.6-2.1,1.1-3.3,1.5
		c-1.2,0.3-2.5,0.5-3.9,0.6c-1.1,0-2.3,0-3.6-0.2c-0.2,0-0.4,0-0.6-0.1c0.1-0.7,0.3-1.3,0.4-1.9c0.2-0.6,0.3-1.2,0.5-1.8
		c0.7-1.9,1.5-3.5,2.6-4.8c0.6-0.7,1.2-1.4,1.9-1.9c3-2.4,7.5-3.5,13.6-3.2C480.6,229.2,478,233.2,474.6,235.3z"/>
	<path class="st0" d="M303,392.4c0-2-1.6-3.5-3.5-3.5H188.7c-2,0-3.5,1.6-3.5,3.5s1.6,3.5,3.5,3.5h110.7
		C301.4,395.9,303,394.3,303,392.4z"/>
	<path class="st0" d="M279.2,406.7H209c-2,0-3.5,1.6-3.5,3.5s1.6,3.5,3.5,3.5h70.2c2,0,3.5-1.6,3.5-3.5S281.2,406.7,279.2,406.7z"/>
	<path class="st0" d="M52.5,383c-0.8,0.3-2.1,0.2-3.4-0.3c-0.5-0.2-1-0.5-1.5-0.8c-0.6-0.5-1.1-1-1.4-1.6c-0.6-1-0.8-2.2-0.8-3.5
		c0.1-2-1.5-3.6-3.4-3.7c-1.9-0.1-3.6,1.5-3.7,3.4c-0.2,4.5,1.6,8.4,4.9,11c2.3,1.8,5.3,2.8,8.1,2.8c1.1,0,2.1-0.1,3.1-0.4
		c1.9-0.6,2.9-2.5,2.4-4.4C56.3,383.5,54.4,382.5,52.5,383z"/>
	<path class="st0" d="M437.6,382.6c-0.8,0.2-2.1,0.2-3.4-0.4c-0.5-0.2-1-0.5-1.4-0.8c-0.6-0.5-1.1-1-1.4-1.6c-0.6-1-0.8-2.2-0.8-3.6
		c0.1-2-1.5-3.6-3.4-3.7c-2-0.1-3.6,1.5-3.7,3.4c-0.2,4.5,1.6,8.5,5,11c2.3,1.8,5.3,2.8,8.1,2.8c1.1,0,2.1-0.1,3.1-0.4
		c1.9-0.6,2.9-2.5,2.4-4.4C441.4,383.1,439.4,382.1,437.6,382.6z"/>
	<path class="st0" d="M427,363.1c0.6,0,1.2-0.1,1.7-0.4c1.7-1,2.3-3.1,1.4-4.8l-0.5-0.9c-0.9-1.7-3.1-2.3-4.8-1.4
		c-1.7,1-2.3,3.1-1.4,4.8l0.5,0.9C424.6,362.4,425.8,363.1,427,363.1z"/>
	<path class="st0" d="M41.8,364.8c0.5,0,1-0.1,1.4-0.3c1.8-0.8,2.6-2.9,1.8-4.7l-0.4-0.9c-0.8-1.8-2.9-2.6-4.7-1.8s-2.6,2.9-1.8,4.7
		l0.4,0.9C39.2,364,40.5,364.8,41.8,364.8z"/>
	<path class="st0" d="M305.4,407.8l-8.1-0.1c0,0,0,0,0,0c-1.9,0-3.5,1.6-3.5,3.5c0,2,1.5,3.6,3.5,3.6l8.1,0.1c0,0,0,0,0,0
		c1.9,0,3.5-1.6,3.5-3.5C308.9,409.4,307.3,407.8,305.4,407.8z"/>
</g>
</svg>
