<?xml version="1.0" encoding="utf-8"?>
<!-- Generator: Adobe Illustrator 27.2.0, SVG Export Plug-In . SVG Version: 6.00 Build 0)  -->
<svg version="1.1" id="Layer_1" xmlns="http://www.w3.org/2000/svg" xmlns:xlink="http://www.w3.org/1999/xlink" x="0px" y="0px"
	 viewBox="0 0 500 500" style="enable-background:new 0 0 500 500;" xml:space="preserve">
<style type="text/css">
	.st0{fill:#808080;}
</style>
<g>
	<path class="st0" d="M209,106.5c-17,0.2-32.6,5.5-46.5,15.9c-14.7,11.3-25,27.9-28.8,46c-16.7-8.2-36.1-10.1-54.1-5.3
		c-28.6,7.6-50.6,31.2-56.2,60c-3.7,19.3,0,39.1,10.7,55.8c11.6,18.6,30.4,34.2,57.3,47.8c22.3,11.2,49.7,20.5,81.7,27.6
		c13,2.7,39.9,7.6,48.5,7.6c0.6,0,1.1,0,1.5-0.1l0.2,0c3.3-0.6,6.9-2.6,9.3-5.3c1.8-2.1,8.2-13.2,11.8-19.7
		c24.9-45.9,40.3-90.7,43.5-126.2c3.1-35.7-5.7-64.4-25.4-83C248.4,113.9,229.3,106.5,209,106.5z M275.7,209.4
		c-3,33.8-17.9,77-42,121.3c-5.2,9.3-9.4,16.3-10.3,17.6c-0.5,0.5-1.3,1-1.9,1.2c-3.8,0-25.3-3-45.7-7.3
		c-30.9-6.9-57.4-15.8-78.7-26.6c-24.9-12.5-42-26.7-52.4-43.3c-8.9-14.1-12.1-30.8-9-46.9c4.7-24.2,23.2-44,47.3-50.4
		c5.4-1.5,11-2.2,16.6-2.2c11.3,0,22.6,2.9,32.6,8.7c1.8,1,3.5,1.8,3.6,1.8l1.2,0.5h1.3c5.4,0,6.2-4.8,6.9-8.7l0-0.2
		c2.4-16.8,11.4-32.4,24.8-42.7c11.6-8.7,24.8-13.3,39.1-13.4c17.1,0,33.1,6.3,45.1,17.6C271,152.3,278.4,177.6,275.7,209.4z"/>
	<path class="st0" d="M462.2,337c-8.4-8.6-19-14-30.7-15.8c-12.1-1.8-24.7,0.5-35.4,6.5c-4.3-11.4-12.4-21.3-22.9-27.6
		c-18-10.6-40.7-10.2-57.9,1c-11.9,7.7-19.9,19-23.2,32.7c-3.5,14.9-2.3,31.7,3.9,51.4c5,16.1,13.4,33.5,25.5,53.2
		c3.9,6.3,16.6,25.5,20.5,28.4l0.1,0.1c2.1,1.5,4.8,2.4,7.3,2.4c0.3,0,0.7,0,1,0c1.1-0.1,3.8-0.5,15.5-3.5
		c34.2-9.5,63.6-23.2,82.8-38.6c19.5-15.7,29.6-34.1,29.2-53C477.7,360.3,472.1,347.1,462.2,337z M349.7,456.9l-0.3,0c0,0,0,0,0,0
		c-2.2-2.4-10.7-14.2-17.4-25c-11.6-18.7-19.5-35.2-24.2-50.3c-5.5-17.5-6.7-32.1-3.7-44.8c2.5-10.5,8.7-19.3,17.9-25.2
		c13.3-8.7,30.9-9,44.8-0.7c9.5,5.7,16.4,15.1,19.1,25.9l0.1,0.2c0.6,2.2,1.9,6.7,6.8,6.7h1.7l1.5-0.9c0.2-0.1,1.2-0.8,2.5-1.8
		c9-6.4,20.3-9.1,31.2-7.4c9,1.3,17.3,5.5,23.7,12.2c7.7,7.9,12.1,18.1,12.2,28.7c0.3,15-8.2,29.9-24.6,43.2
		c-17.9,14.4-45.7,27.2-78.2,36.3C355.8,455.6,351,456.7,349.7,456.9z"/>
	<path class="st0" d="M308.3,124.5c0.1,0.2,7.6,19.7,11.1,23.2l0,0c1.1,1.1,3.5,3,6.6,3.2c0.4,0,0.8,0.1,1.5,0.1
		c1.3,0,3.1-0.1,6.4-0.2c1.1-0.1,2.3-0.1,3.3-0.2l0.3,0c25.2-2.1,47.6-7.8,63.1-15.9c16.2-8.8,25.6-20.2,28-34
		c1.9-10.1-0.4-20.5-6.3-29.2c-4.8-7.2-11.7-12.6-20.2-15.7c-7.9-2.7-16.5-2.9-24.5-0.6c-1.8-8.1-6.2-15.6-12.5-21.1
		c-11.3-10.3-27.8-13.3-42-7.5c-9.6,3.9-17.2,11.1-21.4,20.4c-4.6,10.2-6,22.4-4.1,37.1C298.9,96,302.5,109.6,308.3,124.5z
		 M312.8,52.1c3-6.5,8.1-11.4,14.8-14.1c3.3-1.3,6.8-2,10.3-2c6.8,0,13.6,2.5,18.9,7.3c5.5,4.8,8.9,11.7,9.3,19l0.1,0.8
		c0,0.2,0.1,0.3,0.1,0.5c0,0.3,0.1,0.6,0.2,0.9l0,2.4l2.8,1.8c2.8,1.9,5.6,0.7,6.8,0.2l0.8-0.3c6.6-3.1,14.4-3.5,21.1-1.2
		c6,2.2,10.7,5.9,14.1,10.9c4.1,6.1,5.7,13.2,4.4,20.1c-1.7,9.9-9,18.4-21.6,25.3c-14,7.3-34.7,12.5-58.2,14.5c-1,0-2.1,0.1-3.3,0.2
		c-1.6,0.1-3.9,0.2-5.2,0.2c-1.5-2.8-5.2-10.7-8.1-18.5c-5.4-14-8.9-26.6-10.1-37.5C308.1,70.2,309.2,60.2,312.8,52.1z"/>
	<path class="st0" d="M61.2,100.2c10.3,5.4,24.8,9.1,41.1,10.4c2.3,0.2,6.1,0.4,7,0.4h0.7l0.7-0.2c1.8-0.5,3.5-1.4,4.8-2.7l0.5-0.5
		c1.7-2.2,5.7-11.7,6.9-15c3.8-9.4,6.2-18.3,7.1-26.4c1.2-10.1,0.2-18.3-2.9-25c-2.9-6.6-8.2-11.6-14.7-14.2c-9.8-4-21.2-1.9-29,5.2
		c-3.8,3.3-6.6,7.7-8.1,12.5c-4.9-1-10-0.7-14.8,1l-0.2,0.1c-5.7,2.2-10.3,5.8-13.7,10.7l-0.1,0.2c-3.9,6.1-5.5,13.1-4.3,20.3
		C43.8,86.4,50.2,94.2,61.2,100.2z M56.8,63.3c2-2.8,4.5-4.8,7.8-6.1c3.9-1.3,8.1-1.1,11.8,0.7l0.9,0.4c0.5,0.2,1.5,0.6,2.7,0.6h6.2
		v-5.7l0.1-0.3l0-0.8c0.2-4,2.1-7.9,5.2-10.7c4.4-4,10.7-5.2,16.1-3c3.6,1.4,6.4,4.2,8.1,7.9c2.2,4.7,2.8,10.5,1.9,18.4
		c-0.8,7-3,15-6.4,23.4c-1.4,3.8-3.3,8-4.4,10.4c-1.1-0.1-2.5-0.1-3.8-0.2c-14.6-1.1-27.4-4.3-36.1-8.9c-7.4-4.1-11.7-9-12.7-14.5
		C53.7,70.8,54.5,66.9,56.8,63.3z"/>
	<path class="st0" d="M158.1,388.3c-6.9-9.8-14.3-16.3-22.6-19.9c-7.7-3.3-16.3-3.6-24.3-0.8C99.5,372,91,382.8,89.5,395.4
		c-0.6,6.4,0.6,12.9,3.4,18.6c-5.6,3-10.2,7.6-13.4,13.4c-3.3,6.2-4.6,13.3-3.8,20.5l0,0.2c1.3,8.4,5.8,16.1,12.3,21.2
		c5.9,4.7,13.4,7.1,22,7.1c4.3,0,8.8-0.6,13.6-1.8c13.6-3.3,29.9-12,46-24.4c5.3-4.2,6.6-5.4,7.2-6.1c1.6-1.8,2.4-4,2.4-6.3
		c0-3.9-5.9-19.5-5.9-19.6C168.8,406.4,163.7,396.4,158.1,388.3z M95.6,459.5c-4.1-3.1-6.8-7.9-7.7-13.2c-0.5-4.6,0.3-9.2,2.4-13.1
		c2.7-4.8,7-8.4,12.2-10c0.3-0.1,0.6-0.2,0.9-0.3h10.3l-6.4-9.6c-0.1-0.2-0.6-0.9-1.3-1.6c-3.2-4.3-4.8-9.8-4.2-15.1
		c0.9-7.9,6.3-14.7,13.7-17.5c5-1.8,10.3-1.6,15.2,0.5c6.1,2.6,11.8,7.7,17.3,15.6c5,7.3,9.7,16.5,13.8,27.2c2,5.3,4,11.4,4.8,14.3
		c-0.8,0.6-2.1,1.7-4.5,3.6c-14.7,11.4-29.3,19.2-41.3,22.2C109.9,465.2,101.5,464.2,95.6,459.5z"/>
	<path class="st0" d="M412.4,192.4c-1.1-4.4-3.4-8.5-6.6-11.6c-6.9-7.1-17.2-9.7-26.8-6.8c-6.4,2-11.6,6.4-14.8,12.3
		c-3.2,6-4.6,13.4-4.2,22.7c0.4,7.2,2,15.5,4.7,24.6c0.5,1.8,3.6,11.2,5.6,14.2l0,0c1.4,2.1,3.6,3.1,4.8,3.5l0.9,0.3l0.9,0
		c0.2,0,0.6,0,1,0c1.4,0.1,3.4,0.1,5.1,0.1c0,0,0,0,0,0c15.1-0.2,28.8-2.6,38.5-6.9c13-6,17.6-14.3,19.1-20.4
		c1.5-6.4,0.6-13.1-2.7-19c-2.8-5-7-8.7-12.4-11.1C421.4,192.6,416.8,191.9,412.4,192.4z M428.8,221.5c-1.3,4.9-5.4,9-12.2,12.1
		c-8.2,3.6-20.1,5.7-33.5,5.9c-1,0-2.1,0-3.2-0.1c-0.9-2.2-2.3-6-3.3-9.3c-2.5-8.1-3.9-15.4-4.2-21.6c-0.3-7,0.6-12.3,2.7-16.3
		c1.7-3.1,4.3-5.3,7.6-6.3c5.1-1.6,10.6-0.2,14.3,3.6c2.4,2.4,3.9,6,3.9,9.6v7.2h6.2c1.2,0,2.1-0.3,2.7-0.5l0.6-0.2
		c3.3-1.3,7.1-1.2,10.4,0.3c2.9,1.3,5.1,3.2,6.6,5.8C429.1,214.7,429.6,218.2,428.8,221.5z"/>
</g>
</svg>
