<?xml version="1.0" encoding="utf-8"?>
<!-- Generator: Adobe Illustrator 27.2.0, SVG Export Plug-In . SVG Version: 6.00 Build 0)  -->
<svg version="1.1" id="Layer_1" xmlns="http://www.w3.org/2000/svg" xmlns:xlink="http://www.w3.org/1999/xlink" x="0px" y="0px"
	 viewBox="0 0 500 500" style="enable-background:new 0 0 500 500;" xml:space="preserve">
<style type="text/css">
	.st0{fill:#808080;}
</style>
<g>
	<path class="st0" d="M139.8,248.2c31.5,10.8,55.8,30.2,62.9,49.9c0.3,0.9,0.6,1.7,0.8,2.6c0.6,2.1,2.5,3.5,4.6,3.5
		c0.4,0,0.9-0.1,1.3-0.2c2.5-0.7,4-3.3,3.3-5.8c-6.7-23.9-33.4-46.5-69.7-58.9C98.3,224,53.3,228.5,22.6,251.4
		c-2.1,1.6-2.5,4.5-1,6.6c1.6,2.1,4.5,2.5,6.6,1c1.1-0.8,2.2-1.6,3.3-2.3C59.7,237.7,99.8,234.5,139.8,248.2z"/>
	<path class="st0" d="M131.5,63.5C131.5,63.5,131.5,63.5,131.5,63.5c1.4,0,2.7,0,3.9,0.1c27.7,1.1,56.5,18.7,77.5,47.7
		c7.5,10.3,13.3,21.2,17.2,31.8c5.7,15.3,7.5,29.9,4.6,41.2c-0.2,1-0.5,1.9-0.8,2.9c-0.8,2.5,0.5,5.2,2.9,6c0.5,0.2,1,0.3,1.5,0.3
		c2,0,3.8-1.2,4.5-3.2c4.4-12.9,3.3-29.6-2.6-47c-4.2-12.5-10.9-25.3-19.7-37.5c-23.9-32.8-57.2-52.2-89.2-51.6
		c-2.6,0-4.7,2.2-4.7,4.8C126.8,61.4,128.9,63.5,131.5,63.5z"/>
	<path class="st0" d="M229.4,323.6c1,0.1,2,0.2,3,0.3c2.6,0.4,5-1.4,5.4-4c0.4-2.6-1.4-5-4-5.4c-23.2-3.4-54.2,11.2-78.9,37.3
		c-19.3,20.3-31.4,43.9-35,66.9c-1.6,1.7-3.1,4.5-5,8.2c-0.6,1.1-1.4,2.6-2,3.6c-1.1,0.2-2.9,0.3-4.1,0.4
		c-7.4,0.7-11.5,1.1-12.9,4.8c-1.5,3.8,1.5,6.8,6.7,12.2c0.9,0.9,2.1,2.1,2.8,3c-0.2,1-0.5,2.4-0.8,3.6c-1.8,7.6-2.7,11.8,0.4,14.4
		c0.1,0.1,0.1,0.1,0.2,0.2c3.1,2.3,6.8,0.5,13.4-2.8c1.2-0.6,2.8-1.4,3.9-1.9c1,0.5,2.5,1.4,3.6,2.1c4.5,2.7,7.7,4.6,10.4,4.6
		c1,0,2-0.3,2.9-0.9c0,0,0,0,0,0c3.5-2.3,2.8-6.8,1.6-14.2c-0.2-1.1-0.4-2.6-0.5-3.7c0.8-0.8,2.1-1.8,3-2.6c5.8-5,9-7.8,7.8-11.6
		c-1.1-4-5.5-4.7-12.7-5.9c-0.1,0-0.1,0-0.2,0c-1.2-0.2-2.7-0.5-3.7-0.7c-0.5-1-1.1-2.5-1.6-3.7c-1.4-3.3-2.6-6-3.8-7.8
		c3.3-21,14.6-42.7,32.5-61.6C182.9,336,209.7,322.3,229.4,323.6z M128.5,439c0.8,0.6,1.6,1,2.9,1.4c1.3,0.4,3.1,0.7,5.6,1.1
		c0.4,0.1,0.8,0.1,1.2,0.2c-0.3,0.3-0.6,0.6-0.9,0.8c-3.7,3.2-5.3,4.6-6,6.4c0,0.1-0.1,0.3-0.1,0.4c-0.5,1.7-0.2,3.6,0.5,8.2
		c0.1,0.5,0.2,1,0.2,1.6c-0.4-0.2-0.7-0.4-1-0.6c-4.2-2.6-6.1-3.6-8.1-3.7c-2-0.1-3.9,0.9-8.5,3.1c-0.3,0.1-0.6,0.3-0.9,0.5
		c0.1-0.6,0.3-1.1,0.4-1.6c1.1-4.7,1.4-6.4,1.1-8.1c0-0.1,0-0.2-0.1-0.2c-0.5-1.9-2-3.4-5.5-7c-0.3-0.3-0.5-0.5-0.8-0.8
		c0.4,0,0.8-0.1,1.1-0.1c5-0.5,7.1-0.7,8.7-1.8c0.2-0.1,0.4-0.3,0.6-0.4c1.3-1.1,2.3-3,4.3-6.9c0.1-0.1,0.1-0.3,0.2-0.4
		c0.1-0.2,0.2-0.4,0.4-0.7c0.2,0.5,0.4,0.9,0.5,1.3c1.8,4.3,2.7,6.2,4.1,7.4C128.4,438.9,128.4,439,128.5,439z"/>
	<path class="st0" d="M321,344.4c-17.9-17-40.2-24.8-59.5-20.8c-2.6,0.5-4.2,3-3.7,5.6c0.5,2.6,3,4.2,5.6,3.7c1.3-0.3,2.7-0.4,4-0.6
		c15.4-1.5,32.7,5.4,47.1,19c11.8,11.1,19.1,24.8,19.2,35.2c0,1,0,2-0.2,3c-0.4,2.6,1.4,5,4,5.4c0.2,0,0.5,0.1,0.7,0.1
		c2.3,0,4.3-1.7,4.7-4C344.9,376.9,336.5,359.1,321,344.4z"/>
	<path class="st0" d="M154.6,308.3c4.3-2.3,8.9-2.7,11.3-2c0.7,0.2,1.2,0.4,1.5,0.8c1.7,2,4.7,2.3,6.7,0.6c2-1.7,2.3-4.7,0.6-6.7
		c-5.3-6.3-16.6-5.3-24.5-1.1c-7.5,4-11.1,10.3-9.3,16.6c0.6,2.1,2.5,3.4,4.5,3.4c0.4,0,0.9-0.1,1.3-0.2c2.5-0.7,4-3.3,3.3-5.8
		c-0.1-0.2-0.1-0.4-0.1-0.7C150,310.9,153.8,308.7,154.6,308.3z"/>
	<path class="st0" d="M318.1,207.7c3.7-3,8.3-4.3,10.9-4.2c0.7,0,1.3,0.2,1.7,0.5c2,1.7,5,1.3,6.7-0.7c1.7-2,1.3-5-0.7-6.7
		c-6.2-5.1-17.3-2.1-24.5,3.7c-6.6,5.3-8.8,12-5.8,17.9c0.8,1.6,2.5,2.6,4.2,2.6c0.7,0,1.4-0.2,2.1-0.5c2.3-1.2,3.3-4,2.1-6.4
		c-0.1-0.2-0.2-0.4-0.2-0.6C314.2,211,317.4,208.3,318.1,207.7z"/>
	<path class="st0" d="M129.4,334.9v0.5c0,2.6,2.1,4.7,4.7,4.7s4.7-2.1,4.7-4.7v-0.5c0-2.6-2.1-4.7-4.7-4.7S129.4,332.3,129.4,334.9z
		"/>
	<path class="st0" d="M348.1,402.1c-2.6,0-4.7,2.1-4.7,4.7v0.5c0,2.6,2.1,4.7,4.7,4.7s4.7-2.1,4.7-4.7v-0.5
		C352.8,404.2,350.7,402.1,348.1,402.1z"/>
	<path class="st0" d="M266.9,153.6v0.5c0,2.6,2.1,4.7,4.7,4.7c2.6,0,4.7-2.1,4.7-4.7v-0.5c0-2.6-2.1-4.7-4.7-4.7
		C269,148.8,266.9,151,266.9,153.6z"/>
	<path class="st0" d="M98.5,357.7C98.5,357.7,98.5,357.7,98.5,357.7c3.8-2.5,3.2-7.4,1.6-18.3c-0.3-2.3-0.8-5.2-0.9-6.7
		c1.1-1.1,3.3-3,4.9-4.4c8.4-7.3,12-10.7,10.8-14.9c-1.2-4.4-6.7-5.3-16.6-7c-2.2-0.4-5.4-0.9-6.9-1.3c-0.8-1.4-2-4.5-2.9-6.6
		c-3.9-9.2-6-14.3-10.6-14.5c-4.4-0.2-6.9,4.1-11.9,13.7c-1,2-2.5,4.8-3.3,6.1c-1.6,0.3-4.9,0.6-7.2,0.8c-9.8,0.9-15.3,1.4-16.9,5.5
		c-1.7,4.3,2.2,8.3,9.2,15.5c1.6,1.6,3.9,4,4.9,5.2c-0.2,1.5-0.9,4.6-1.4,6.8c-2.3,9.9-3.6,15.4,0.1,18.1c3.4,2.6,7.9,0.6,17.6-4.1
		c2.1-1,4.8-2.4,6.2-2.9c1.5,0.7,4.4,2.5,6.4,3.7c6.5,3.9,10.5,6.3,13.7,6.3C96.5,358.6,97.5,358.3,98.5,357.7z M59.2,345.7
		c0.4-2.1,1-4.5,1.4-6.1c1.6-6.9,2.1-9.4,1.5-11.5c-0.6-2.1-2.3-4-7.4-9.2c-1.2-1.2-2.8-2.9-4.2-4.4c2-0.2,4.3-0.4,5.9-0.6
		c7.2-0.6,9.9-1,11.7-2.2c1.8-1.2,3.1-3.3,6.4-9.7c0.8-1.5,1.9-3.7,3-5.5c0.9,1.9,1.7,4,2.4,5.6c2.8,6.6,3.9,9.1,5.7,10.5
		c1.7,1.4,4.2,1.9,11.3,3.1c1.7,0.3,4,0.7,6,1.1c-1.7,1.5-3.6,3.2-4.9,4.4c-5.2,4.5-6.9,6.1-7.7,8c0,0.1-0.1,0.2-0.1,0.3
		c-0.7,2-0.4,4.6,0.6,11.4c0.3,1.7,0.6,4.2,0.9,6.4c-1.7-1-3.6-2.1-5-3c-6.4-3.9-8.7-5.2-11-5.2c-2.1-0.1-4.4,1-10.7,4.1
		C63.4,343.7,61.2,344.8,59.2,345.7z"/>
	<path class="st0" d="M297.6,379.9c-1.9-4.2-7.7-4.6-20.4-4.9c-3.2-0.1-7.5-0.2-9.3-0.5c-1.1-1.4-3.3-5.1-4.9-7.8
		c-6.6-11-9.8-15.9-14.5-15.4c-4.8,0.4-6.9,5.9-11.3,18.1c-1.1,2.9-2.4,6.9-3.2,8.4c-1.7,0.6-5.8,1.6-8.9,2.3
		c-12.6,2.9-18.3,4.4-19.2,9.1c-0.9,4.6,3.6,8.3,13.8,16.1c2.5,1.9,5.8,4.5,7.1,5.8c0.1,1.8-0.3,5.9-0.6,9.1
		c-1.1,12.9-1.4,18.8,2.6,21.2c0.9,0.5,1.9,0.8,2.9,0.8c3.7,0,8.5-3.2,16.9-9c2.5-1.8,5.9-4.1,7.5-4.9c1.8,0.5,5.6,2.1,8.5,3.4
		c12,5.1,17.4,7.2,21,4c3.5-3.2,2.1-8.8-1.7-21.3c-0.9-3-2.1-7-2.4-8.8c1-1.5,3.7-4.6,5.8-6.9C295.9,388.8,299.6,384.2,297.6,379.9z
		 M268.3,423c-7.8-3.3-10.7-4.4-13-4.2c-0.1,0-0.1,0-0.2,0c-2.3,0.3-4.9,2-11.8,6.7c-2.2,1.5-5.7,3.9-8.4,5.6
		c0.1-3.1,0.4-7.1,0.7-10c0.7-8.4,0.9-11.5,0-13.7c-1-2.2-3.4-4.2-10.2-9.4c-2.2-1.7-5.4-4.2-7.7-6.2c2.9-0.8,6.8-1.8,9.5-2.4
		c8.3-1.9,11.3-2.7,13.1-4.3c1.8-1.6,2.9-4.5,5.8-12.4c0.9-2.5,2.3-6.5,3.5-9.4c1.7,2.5,3.8,5.9,5.2,8.4c4.4,7.3,6.1,10,8.2,11.2
		c2.1,1.2,5.3,1.4,13.9,1.7c2.8,0.1,6.7,0.2,9.6,0.4c-1.9,2.5-4.6,5.6-6.4,7.6c-5.5,6.3-7.5,8.7-8,11c0,0.1,0,0.1,0,0.2
		c-0.5,2.3,0.3,5.4,2.7,13.4c0.8,2.7,2,6.6,2.7,9.6C274.7,425.7,271,424.1,268.3,423z"/>
	<path class="st0" d="M76.2,146.2c2.4,1.9,5.6,4.3,6.9,5.6c0,1.8-0.3,5.9-0.6,9c-1.1,12.9-1.4,18.8,2.6,21.2
		c0.9,0.5,1.9,0.8,2.9,0.8c3.7,0,8.5-3.2,16.9-9c2.6-1.8,5.9-4.1,7.5-4.9c1.7,0.5,5.6,2.2,8.6,3.4c11.8,5,17.1,7.1,20.7,4
		c1.4-1.2,2-2.8,2.1-5c6,4,12.2,8.6,18.5,13.7c28.1,22.7,62.5,60.9,71.4,116.1c0.3,3,0.7,6,1.2,9c0.4,2.3,2.4,3.9,4.6,3.9
		c0.2,0,0.5,0,0.7-0.1c2.5-0.4,4.3-2.7,4-5.2c-0.3-3-0.7-5.9-1.2-8.8c-4.5-52.7,38.1-100.4,51.9-114.3
		c21.3-21.5,41.8-33.4,53.4-35.5c-1,12.2-1.3,17.8,2.8,20.1c0.9,0.5,1.9,0.8,2.9,0.8c3.6,0,8.4-3.2,16.7-8.9c2.6-1.8,6.1-4.2,7.7-5
		c1.7,0.5,5.5,2.1,8.3,3.3c12,5.1,17.5,7.3,21.1,4.1c3.5-3.1,2.1-8.7-1.5-21c-0.9-3-2.2-7.3-2.4-9.1c1-1.5,4-4.9,6-7.3
		c8.4-9.6,12-14.1,10.1-18.4c0-0.1,0-0.1-0.1-0.2c-2-4.2-7.7-4.5-20.5-4.8c-3.2-0.1-7.5-0.2-9.3-0.5c-1.1-1.4-3.2-5-4.8-7.6
		c-6.7-11.1-9.8-16.1-14.6-15.6c-4.7,0.4-6.8,5.8-11.1,18c-1.1,3-2.5,7.1-3.3,8.7c-1.7,0.7-6.2,1.7-9.2,2.4
		c-12.3,2.8-17.8,4.3-18.8,8.9c-1.1,4.7,3.5,8.4,13.7,16.3c2.5,1.9,5.8,4.5,7.1,5.7c0,0.1,0,0.3,0,0.5c-4.4,0.5-9.4,2-14.8,4.4
		c-13.8,6.1-30.2,18.1-46,34.1c-11.8,11.9-43.8,47.6-52.6,91c-14.7-42.4-43.3-72.9-67.4-92.3c-9.2-7.4-18.4-13.8-27.1-19.2
		c-0.3-1.2-0.7-2.4-1.1-3.7c-0.9-3-2-6.9-2.3-8.6c0.7-1.1,2.3-3,3.9-4.8c0.7-0.9,1.5-1.7,2.1-2.4c8.4-9.6,12-14.1,10.1-18.3
		c-1.9-4.5-7.7-4.8-20.7-5.1c-3.2-0.1-7.3-0.2-9.1-0.4c-1.1-1.4-3.2-5-4.9-7.6c-6.7-11.1-9.9-16.1-14.7-15.6
		c-4.7,0.4-6.8,5.8-11.1,18c-1.1,3-2.5,7-3.3,8.6c-1.7,0.6-5.8,1.6-8.9,2.3c-12.6,2.9-18.2,4.4-19.2,9
		C61.2,134.4,65.8,138.2,76.2,146.2z M102.5,112.9c0.9-2.6,2.3-6.4,3.4-9.2c1.8,2.6,4,6.2,5.4,8.5c4.3,7.2,6,9.8,8.1,11
		c2.1,1.2,5.3,1.4,13.8,1.6c2.8,0.1,6.8,0.2,9.8,0.4c-1.8,2.3-4.4,5.3-6.2,7.4c-3.5,4-5.6,6.5-6.8,8.4c-0.8,1.2-1.2,2.2-1.4,3.1
		c-0.3,1.6,0,3.5,1,7.3c0.4,1.6,1,3.6,1.7,6c0,0.2,0.1,0.4,0.2,0.5c0.5,1.9,1.3,4.3,1.9,6.6c0.3,0.9,0.5,1.9,0.7,2.7
		c-2.8-1-6.5-2.6-9.1-3.7c-7.9-3.4-10.9-4.6-13.4-4.3c-2.3,0.3-4.9,2-11.8,6.7c-2.2,1.5-5.7,3.9-8.4,5.6c0.1-3.1,0.4-7.1,0.7-10
		c0.7-8.4,0.9-11.5,0-13.7c0-0.1,0-0.1-0.1-0.2c-0.4-0.9-1.1-1.7-2.1-2.7c-0.9-0.8-2-1.8-3.6-3.1c-1.2-0.9-2.6-2-4.2-3.3
		c-2.2-1.7-5.6-4.3-8-6.4c2.9-0.9,6.8-1.8,9.6-2.4c8.3-1.9,11.3-2.7,13.1-4.3C98.5,123.9,99.7,121,102.5,112.9z M349.4,118.3
		c8.5-2,11.7-2.8,13.5-4.5c1.8-1.6,2.9-4.6,5.8-12.6c0.9-2.6,2.3-6.4,3.4-9.1c1.8,2.6,3.9,6.2,5.3,8.5c4.3,7.2,6,9.8,8.1,11.1
		c2.1,1.2,5.3,1.4,13.9,1.7c2.8,0.1,6.7,0.2,9.7,0.4c-1.8,2.3-4.3,5.2-6.1,7.3c-5.6,6.5-7.7,9-8.2,11.4c-0.5,2.4,0.3,5.6,2.7,13.8
		c0.8,2.6,1.9,6.4,2.6,9.3c-3-1.1-6.8-2.7-9.3-3.8c-7.6-3.2-10.5-4.4-12.8-4.2c-0.1,0-0.1,0-0.2,0c-2.4,0.3-5.1,2-12.1,6.8
		c-2.3,1.6-5.6,3.9-8.2,5.4c0.1-3,0.4-7,0.7-9.7c0-0.5,0.1-1,0.1-1.5c0.2-2.5,0.4-4.5,0.4-6.1c0.1-3.2,0-5-0.7-6.4
		c-1-2.2-3.4-4.2-10-9.3c-2.1-1.6-5.4-4.2-7.8-6.2C343,119.7,346.7,118.9,349.4,118.3z"/>
	<path class="st0" d="M469.8,248.5c0.7-1,2-2.4,2.9-3.5c5-5.8,7.8-8.9,6.1-12.7c-1.7-3.8-6.4-3.9-14.1-4.1c-1.2,0-2.9-0.1-4-0.1
		c-0.6-1-1.5-2.4-2.2-3.5c-4-6.8-6.2-10.5-10.3-10.2c-0.1,0-0.2,0-0.3,0c-4,0.5-5.4,4.6-8.1,11.9c-0.4,1.2-1.1,2.9-1.5,4
		c-1.2,0.3-3,0.8-4.3,1.1c-3,0.7-5.5,1.3-7.4,2c-17.8-6.9-41.5-8.6-66-4.1c-40,7.3-71.8,29.1-85.2,58.2c-1.1,2.4-0.1,5.2,2.3,6.3
		c0.6,0.3,1.3,0.4,2,0.4c1.8,0,3.5-1,4.3-2.8c0.5-1.2,1.1-2.3,1.7-3.5c13-24.6,41.3-42.9,76.6-49.4c22-4,43.6-2.7,59.6,3.2
		c1.2,2.4,4.2,4.7,8.2,7.7c0.8,0.6,1.8,1.4,2.7,2.1c0.3,0.2,0.6,0.5,0.8,0.7c0,1.2-0.2,3-0.3,4.3c-0.7,7.5-1.1,12,2.4,14.1
		c0.1,0.1,0.2,0.1,0.2,0.1c0.8,0.4,1.7,0.7,2.5,0.7c2.8,0,5.9-2.1,10.7-5.4c1.2-0.8,2.8-1.9,3.8-2.5c1.1,0.4,2.7,1.1,3.9,1.6
		c6.9,2.9,11.1,4.7,14.2,2.1c0,0,0.1-0.1,0.1-0.1c3.1-2.8,1.8-6.9-0.4-14.4C470.6,251.3,470.1,249.6,469.8,248.5z M443.9,258.1
		c-0.4,0.3-0.8,0.5-1.2,0.8c0.1-0.6,0.1-1.2,0.1-1.7c0.1-1.4,0.2-2.6,0.3-3.6c0.1-2.1,0.1-3.5-0.2-4.6c0-0.2-0.1-0.3-0.2-0.5
		c0-0.1-0.1-0.2-0.1-0.3c-0.8-1.9-2.5-3.2-6.7-6.4c-0.4-0.3-0.8-0.6-1.3-1c0.5-0.1,1-0.2,1.5-0.3c1.2-0.3,2.3-0.5,3.2-0.8
		c2.9-0.7,4.4-1.3,5.5-2.3c1.4-1.3,2.2-3.3,3.9-8c0.2-0.5,0.4-1.1,0.6-1.7c0.4,0.6,0.7,1.2,1,1.7c2.5,4.2,3.6,6,5.1,6.9
		c0.1,0.1,0.3,0.2,0.4,0.2c1.6,0.9,3.7,1,8.6,1.1c0.6,0,1.3,0,2,0.1c-0.3,0.4-0.6,0.7-0.9,1.1c-3.5,4-5,5.7-5.3,7.7
		c-0.4,1.9,0.2,3.9,1.6,8.8c0.2,0.5,0.3,1.1,0.5,1.8c-0.6-0.3-1.2-0.5-1.7-0.7c-4.6-2-6.6-2.8-8.6-2.6
		C450.1,254,448.2,255.2,443.9,258.1z"/>
	<path class="st0" d="M247.7,77.3c-0.2,1.1-0.6,2.8-0.9,4c-1.6,7.3-2.5,11.3,0.6,13.8c3.2,2.6,7.3,0.6,14-2.8c1-0.5,2.4-1.2,3.4-1.7
		c1,0.6,2.5,1.5,3.6,2.1c4.6,2.8,7.8,4.7,10.4,4.7c1.1,0,2-0.3,3-1c3.3-2.3,2.7-6.7,1.6-13.9c-0.2-1.2-0.4-2.9-0.5-4
		c0.8-0.8,2.2-1.9,3.1-2.8c5.5-4.8,8.8-7.6,7.7-11.6c-1.1-3.9-5.5-4.7-12.7-5.9c-1.2-0.2-2.9-0.5-4-0.7c-0.5-1-1.1-2.6-1.6-3.8
		c-2.9-6.8-4.4-10.6-8.4-10.9c-0.1,0-0.2,0-0.4,0c-4,0-6,3.9-9.4,10.4c-0.6,1.1-1.3,2.6-1.9,3.5c-1.1,0.1-2.7,0.3-3.9,0.4
		c-7.4,0.6-11.9,1-13.2,5.1c-1.3,3.8,1.6,6.8,6.9,12.2C245.8,75.4,246.9,76.5,247.7,77.3z M252.1,66.8c4.9-0.4,6.9-0.6,8.6-1.7
		c1.6-1.1,2.6-2.9,4.9-7.3c0.2-0.3,0.4-0.7,0.6-1.1c0.1,0.3,0.3,0.7,0.4,1c2,4.7,2.8,6.7,4.4,7.8c1.5,1.2,3.6,1.5,8.4,2.3
		c0.4,0.1,0.8,0.1,1.3,0.2c-0.3,0.3-0.6,0.5-0.9,0.8c-3.8,3.3-5.4,4.7-6,6.5c-0.7,1.8-0.4,3.9,0.3,8.8c0.1,0.4,0.1,0.8,0.2,1.3
		c-0.3-0.2-0.6-0.4-0.9-0.6c-4.3-2.6-6.1-3.7-8-3.8c-0.1,0-0.2,0-0.3,0c-1.8,0-3.6,0.9-7.8,3c-0.4,0.2-0.8,0.4-1.3,0.6
		c0.1-0.4,0.2-0.8,0.3-1.2c1.1-4.9,1.5-6.9,1-8.9c-0.5-1.7-1.9-3.2-5.2-6.6c-0.3-0.3-0.7-0.7-1-1.1
		C251.2,66.8,251.7,66.8,252.1,66.8z"/>
	<path class="st0" d="M375.4,261v-0.7c0-2.6-2.1-4.7-4.7-4.7s-4.7,2.1-4.7,4.7v0.7c0,2.6,2.1,4.7,4.7,4.7S375.4,263.6,375.4,261z"/>
	<path class="st0" d="M184.3,156.5v0.7c0,2.6,2.1,4.7,4.7,4.7c2.6,0,4.7-2.1,4.7-4.7v-0.7c0-2.6-2.1-4.7-4.7-4.7
		C186.5,151.8,184.3,153.9,184.3,156.5z"/>
	<path class="st0" d="M182.2,39c2.6,0,4.7-2.1,4.7-4.7v-0.7c0-2.6-2.1-4.7-4.7-4.7c-2.6,0-4.7,2.1-4.7,4.7v0.7
		C177.5,36.9,179.6,39,182.2,39z"/>
	<path class="st0" d="M100.4,389v-0.7c0-2.6-2.1-4.7-4.7-4.7s-4.7,2.1-4.7,4.7v0.7c0,2.6,2.1,4.7,4.7,4.7S100.4,391.6,100.4,389z"/>
	<path class="st0" d="M104.8,281v0.7c0,2.6,2.1,4.7,4.7,4.7c2.6,0,4.7-2.1,4.7-4.7V281c0-2.6-2.1-4.7-4.7-4.7
		C106.9,276.3,104.8,278.4,104.8,281z"/>
	<path class="st0" d="M196.1,425.2c-2.6,0-4.7,2.1-4.7,4.7v0.5c0,2.6,2.1,4.7,4.7,4.7s4.7-2.1,4.7-4.7v-0.5
		C200.8,427.3,198.7,425.2,196.1,425.2z"/>
	<path class="st0" d="M365.5,345.5c-2.6,0-4.7,2.1-4.7,4.7v0.7c0,2.6,2.1,4.7,4.7,4.7s4.7-2.1,4.7-4.7v-0.7
		C370.3,347.7,368.2,345.5,365.5,345.5z"/>
	<path class="st0" d="M423.9,324.9c-1.2-0.2-2.9-0.5-4-0.7c-0.5-1-1.1-2.5-1.6-3.6c-2.8-6.8-4.6-10.9-8.7-11
		c-4.2-0.2-6.2,3.8-9.6,10.3c-0.5,1.1-1.3,2.5-1.8,3.5c-0.1,0-0.2,0-0.3,0c-11.6-22.1-51.9-37.4-78.7-29.2c-2.5,0.8-3.9,3.4-3.1,5.9
		c0.8,2.5,3.4,3.9,5.9,3.1c2.1-0.6,4.3-1.1,6.5-1.4c20.8-2.7,48.5,8,59.1,22.7c-0.4,0.1-0.8,0.2-1.2,0.2c-2.8,0.6-4.5,1.7-5.3,4
		c-1.3,3.7,1.6,6.7,6.7,12c0.9,0.9,2.1,2.2,2.8,3c-0.2,1.1-0.6,2.7-0.8,4c-1.6,7.4-2.6,11.4,0.5,13.9c0.1,0.1,0.1,0.1,0.2,0.2
		c3.2,2.3,6.7,0.5,13.3-2.8c1.2-0.6,2.8-1.4,3.9-1.9c1,0.6,2.7,1.5,3.9,2.2c4.4,2.6,7.5,4.5,10.2,4.5c1.1,0,2-0.3,3-1
		c3.3-2.3,2.7-6.6,1.6-13.8c-0.2-1.2-0.4-2.9-0.5-4c0.8-0.8,2.1-1.9,3-2.7c5.8-5,9-7.8,7.8-11.6
		C435.5,326.8,431.2,326.1,423.9,324.9z M422.7,335.2c-3.7,3.2-5.3,4.6-6,6.5c-0.6,1.8-0.4,3.9,0.3,8.8c0.1,0.4,0.1,0.8,0.2,1.2
		c-0.2-0.1-0.5-0.3-0.7-0.4c-4.4-2.7-6.4-3.8-8.4-3.8c-2-0.1-3.9,0.9-8.4,3.1c-0.3,0.1-0.5,0.3-0.8,0.4c0.1-0.4,0.2-0.9,0.3-1.2
		c1.1-5.1,1.5-6.9,1-8.7c-0.5-1.9-2-3.4-5.4-6.9c-0.3-0.3-0.5-0.6-0.8-0.9c0.4,0,0.8-0.1,1.2-0.1c5-0.5,7.1-0.7,8.7-1.8
		c1.6-1.1,2.6-2.9,4.8-7.2c0.2-0.3,0.4-0.8,0.6-1.2c0.2,0.4,0.3,0.8,0.5,1.2c1.9,4.5,2.7,6.4,4.2,7.6c0,0,0.1,0.1,0.1,0.1
		c1.5,1.2,3.6,1.5,8.4,2.3c0.4,0.1,0.8,0.1,1.2,0.2C423.3,334.7,423,335,422.7,335.2z"/>
</g>
</svg>
