<?xml version="1.0" encoding="utf-8"?>
<!-- Generator: Adobe Illustrator 27.2.0, SVG Export Plug-In . SVG Version: 6.00 Build 0)  -->
<svg version="1.1" id="Layer_1" xmlns="http://www.w3.org/2000/svg" xmlns:xlink="http://www.w3.org/1999/xlink" x="0px" y="0px"
	 viewBox="0 0 500 500" style="enable-background:new 0 0 500 500;" xml:space="preserve">
<style type="text/css">
	.st0{fill:#808080;}
</style>
<g>
	<path class="st0" d="M320.9,222.6c0.7,0.7,1.7,1,2.6,1c1.1,0,2.1-0.4,2.9-1.3c1.4-1.6,1.3-4.1-0.3-5.5c-7.1-6.3-13-15.7-15.9-25.2
		c-0.2-0.6-0.5-1.1-1-1.6c-1-1-2.5-1.4-3.9-1c-0.6,0.2-1.1,0.5-1.5,0.9c-1.1,1-1.5,2.5-1.1,4C306.1,204.7,312.9,215.4,320.9,222.6z"
		/>
	<path class="st0" d="M413.9,372.6h-16.2V187.5c5.3-0.3,13-1.6,14.2-6.5c0.2-1,0.7-4.3-3.7-6.7L258.4,96c-3.2-1.7-8.6-2.6-14.2-2.5
		h0c-3,0.1-8.7,0.5-12.6,2.5L82,174.3c-4.5,2.3-4,5.7-3.8,6.7c1.5,6,12.4,6.6,17.1,6.6H96V278c-0.8,1-1.1,2.4-0.6,3.7
		c0.1,0.4,0.4,0.8,0.6,1.1v3.8l-0.8,11c0,0.1,0,0.1,0,0.2c0,1.3,0.3,2.4,0.8,3.4v47.2c-1.6-5.6-5.8-10-11.3-12
		c0.3-1.1,0.4-2.3,0.4-3.4c0-8.3-6.7-15-15-15c0,0-0.1,0-0.1,0c-2.2,0.1-4.3,0.6-6.2,1.5c-3.2-5.7-9.1-9.3-16-9.3
		c-8.9,0-16.4,6.4-18,14.8c-0.4,0-0.8,0-1.2,0c-8.4,0-15.3,6.8-15.3,15.2c0,2.3,0.6,4.7,1.6,6.8c-3.8,2.8-6.1,7.3-6.1,12.1
		c0,8.1,6.4,14.7,14.3,15.2c1.1,4,3.7,7.3,7.3,9.3l2.2,17.3c0.2,1.9,1.9,3.4,3.9,3.4h28.8c1.9,0,3.5-1.4,3.8-3.2l3.1-17.9
		c3.9-2.3,6.4-6.3,6.9-11.2c8-0.3,14.7-5.8,16.8-13.1v14H84.1c-2.1,0-3.9,1.7-3.9,3.9v26.2c0,2.1,1.7,3.9,3.9,3.9h329.8
		c2.1,0,3.9-1.7,3.9-3.9v-26.2C417.8,374.3,416.1,372.6,413.9,372.6z M78.4,364c-0.9,0-1.7-0.1-2.2-0.3c-1.3-0.4-2.8-0.1-3.8,0.9
		s-1.4,2.4-1.1,3.8c0.1,0.5,0.2,1.1,0.2,1.6c0,4.6-2.8,7.4-7.6,7.5c-0.1,0-0.1,0-0.2,0c-5.6,0.4-8.3-4.6-8.8-8.1
		c-0.3-2-2-3.4-3.9-3.4c-2,0-3.6,1.5-3.8,3.5c-0.6,6.4-3,8.4-9.1,8.1c-0.1,0-0.1,0-0.2,0c-4,0-7.4-3.4-7.4-7.5
		c0-1.2-0.5-2.3-1.5-3.1c-0.7-0.5-1.5-0.8-2.4-0.8c-0.3,0-0.6,0-0.9,0.1c-0.4,0.1-0.8,0.1-1.5,0.1c-4.2,0-7.5-3.3-7.5-7.4
		c0-3.1,2.2-6.1,5.2-7.1c1.3-0.4,2.3-1.5,2.6-2.8c0.3-1.3-0.1-2.7-1-3.7c-1.5-1.5-2.3-3.4-2.3-5.4c0-4.2,3.3-7.4,7.5-7.4
		c1.2,0,2.3,0.2,3.2,0.7c1.4,0.7,3,0.5,4.2-0.5c1.2-0.9,1.7-2.5,1.3-3.9c0-0.2,0-0.4,0-0.5c0-5.9,4.6-10.6,10.6-10.6
		c5,0,9.3,3.5,10.3,8.4c0.3,1.4,1.4,2.6,2.8,3c1.4,0.4,2.9-0.1,3.9-1.1c1.3-1.4,3.3-2.3,5.3-2.4c3.9,0,7.1,3.2,7.1,7.2
		c0,1.3-0.5,2.8-1.3,4.1c-0.8,1.2-0.8,2.6-0.2,3.9c0.6,1.2,1.9,2,3.2,2.1c5.6,0.3,9.9,4.9,9.9,10.5C88.9,359.4,84.3,364,78.4,364z
		 M64,385.3l-1.9,11.1H40l-1.4-11c0.1,0,0.2,0,0.4,0c3.7,0,7.6-0.8,10.7-3.5c0.6-0.6,1.3-1.2,1.8-1.9c0.6,0.7,1.2,1.3,1.9,1.8
		C56.1,384.1,59.7,385.5,64,385.3z M410,398.8H88v-18.4H96h3.9h24.4h3.9h237.2h3.9h24.4h3.9H410V398.8z M179.5,187.1
		c0,0.2-0.1,0.3-0.2,0.5c-3,9.3-8.8,18.5-15.8,24.7c-1.6,1.4-1.7,3.9-0.3,5.5c0.8,0.9,1.8,1.3,2.9,1.3c0.9,0,1.9-0.3,2.6-1
		c8.1-7.2,14.9-17.9,18.2-28.7c0.2-0.6,0.2-1.2,0.1-1.8c-0.1-0.8-0.6-1.6-1.2-2.2l8.1-0.2c0,0.8-0.1,1.6-0.2,2.4
		c-3.6,39.6-45.3,77-58.2,87.7c-2.6,2.1-5,4-7.3,5.8c-1.3,1-2.7,2-3.9,2.9c-1.4,1-2.7,1.9-3.9,2.7c-7.7,5.2-13.4,8-16.6,9
		c-0.3,0.1-0.5,0.2-0.8,0.2l0.8-10l0.3-3.4c5.4-2.2,10.9-5.1,16.3-8.4c1.3-0.8,2.6-1.6,3.9-2.5c1.3-0.9,2.6-1.8,3.9-2.7
		c9.5-6.7,18.5-14.8,26.2-23.6c1.4-1.6,1.2-4.1-0.4-5.5c-1.6-1.4-4.1-1.2-5.5,0.4c-6.1,7-13,13.5-20.3,19.1
		c-1.1,0.9-2.3,1.7-3.4,2.6c-0.2,0.1-0.3,0.2-0.5,0.4c-0.2,0.1-0.3,0.2-0.5,0.3c-1.1,0.8-2.3,1.6-3.4,2.4
		c-5.2,3.4-10.5,6.4-15.7,8.8l1.9-24.8c4.9-1.2,9.5-3.1,13.8-5.5c1.3-0.7,2.6-1.5,3.9-2.3c1.3-0.8,2.6-1.7,3.9-2.7
		c21.7-15.6,35.5-41.9,38.2-51c0.1-0.2,0.1-0.4,0.2-0.6c0.1-0.4,0.1-0.8,0.1-1.1l13.7-0.3C180,186,179.7,186.5,179.5,187.1z
		 M120.4,234.5c-5.1,3.3-10.7,5.8-16.6,7.1v-51.7h16.6V234.5z M389.9,248.1c-0.6-0.8-1.4-1.4-2.4-1.5c-5-1-9.8-2.8-14.2-5.1v-51.6
		h16.6V248.1z M373.3,372.6V303c6.3,3.5,11.5,5.6,14.9,5.6c0.1,0,0.2,0,0.3,0c0.5,0,0.9-0.1,1.4-0.2v64.2H373.3z M365.5,236.6
		c-21.3-15.5-33.6-42.6-34.8-47c-0.2-0.8-0.7-1.5-1.2-2h36V236.6z M323,190.4c0,0.4,0,0.7,0.1,1.1c2.4,9,17.6,39,42.3,54.4
		c1.3,0.8,2.6,1.6,3.9,2.3c1.3,0.7,2.6,1.3,3.9,2c3.1,1.4,6.4,2.6,9.8,3.4l1.9,24.8c-3.9-1.8-7.8-3.9-11.7-6.3
		c-1.3-0.8-2.6-1.6-3.9-2.5c-0.7-0.5-1.4-0.9-2.1-1.4c-0.6-0.4-1.2-0.8-1.9-1.3c-0.6-0.4-1.2-0.9-1.8-1.4c-8.1-6-15.8-13-22.5-20.7
		c-1.4-1.6-3.9-1.8-5.5-0.4c-1.6,1.4-1.8,3.9-0.4,5.5c10.3,11.8,20.9,20.4,30.2,26.4c1.3,0.9,2.6,1.7,3.9,2.5
		c1.3,0.8,2.7,1.6,3.9,2.3c4.8,2.7,9.1,4.7,12.4,6l1,13.5c-2.5-0.6-7.1-2.7-13.4-6.7c-1.2-0.8-2.6-1.6-3.9-2.6
		c-1.3-0.8-2.6-1.7-3.9-2.7c-3.4-2.4-7.1-5.2-11-8.5c-27.3-22.5-57-58.1-58.7-90.4c0-0.1,0-0.2,0-0.3c0-0.7-0.3-1.3-0.6-1.9h29.3
		C323.6,188.3,323.1,189.3,323,190.4z M332.8,271c10.7,10.7,22.5,20.3,32.7,27.1v74.5H128.3v-81.8c9.2-6.5,19.3-15,28.6-24.3
		c15.7-15.6,42-46.4,44.7-78.9h87c-0.4,0.7-0.7,1.4-0.6,2.3C289.5,223.2,316.7,255,332.8,271z M128.3,228.7v-41.2h30
		C154.8,196.4,144.1,215.5,128.3,228.7z M103.8,303.7c4.1-0.8,9.9-3.6,16.6-7.7v76.6h-16.6V303.7z M95.3,179.8
		c-2.5,0-4.6-0.2-6.2-0.5l146.1-76.5c1.3-0.7,4.5-1.5,9.2-1.6c4.8-0.1,8.7,0.8,10.4,1.6L401,179.3c-1.6,0.3-3.7,0.5-6.3,0.5H95.3z"
		/>
	<path class="st0" d="M485,346.9c1.1-2.1,1.6-4.4,1.6-6.8c0-8.4-6.9-15.2-15.3-15.2c-0.4,0-0.8,0-1.2,0c-1.6-8.4-9.1-14.8-18-14.8
		c-6.8,0-12.8,3.6-15.9,9.3c-1.9-0.9-4-1.4-6.2-1.5c0,0-0.1,0-0.1,0c-8.3,0-15,6.7-15,15c0,1.1,0.1,2.3,0.4,3.4
		c-7,2.6-12,9.3-12,17.2c0,9.9,7.8,17.9,17.6,18.3c0.5,4.9,3,8.8,6.9,11.2l3.1,18c0.3,1.9,1.9,3.2,3.8,3.2h28.9c2,0,3.6-1.5,3.9-3.4
		l2.1-17.3c3.5-2,6.2-5.3,7.3-9.3c8-0.4,14.3-7.1,14.3-15.2C491.1,354.1,488.8,349.7,485,346.9z M475.9,366.4c-0.8,0-1.2,0-1.6-0.1
		c-1.2-0.3-2.4,0-3.3,0.7c-0.9,0.7-1.5,1.9-1.5,3.1c0,4.1-3.4,7.5-7.4,7.5c-0.1,0-0.1,0-0.2,0c-6.1,0.3-8.4-1.8-9.1-8.1
		c-0.2-2-1.8-3.5-3.8-3.5c0,0,0,0-0.1,0c-2,0-3.6,1.4-3.9,3.4c-0.5,3.5-3.2,8.5-8.8,8.1c-0.1,0-0.1,0-0.2,0c-4.8-0.1-7.6-3-7.6-7.5
		c0-0.5,0.1-1,0.2-1.6c0.3-1.4-0.1-2.8-1.1-3.8c-1-1-2.5-1.3-3.8-0.9c-0.6,0.2-1.4,0.3-2.2,0.3c-5.9,0-10.6-4.6-10.6-10.6
		c0-5.5,4.4-10.1,9.9-10.5c1.4-0.1,2.6-0.9,3.2-2.1c0.6-1.2,0.6-2.7-0.2-3.9c-0.9-1.3-1.3-2.8-1.3-4.1c0-3.9,3.2-7.2,7.1-7.2
		c2.1,0.1,4,0.9,5.3,2.4c1,1.1,2.5,1.5,3.9,1.1c1.4-0.4,2.5-1.5,2.8-3c1-5,5.3-8.4,10.3-8.4c5.9,0,10.6,4.6,10.6,10.6
		c0,0.2,0,0.4,0,0.5c-0.3,1.4,0.2,3,1.4,3.9c1.2,1,2.8,1.1,4.2,0.5c0.9-0.4,2-0.7,3.2-0.7c4.2,0,7.5,3.3,7.5,7.4
		c0,1.9-0.9,3.9-2.3,5.4c-1,1-1.4,2.3-1,3.7c0.3,1.3,1.3,2.4,2.6,2.8c3.1,1,5.2,3.8,5.2,7.1C483.3,363.1,480,366.4,475.9,366.4z
		 M461,385.4c0.1,0,0.3,0,0.4,0l-1.3,11h-22.2l-1.9-11.1c4.2,0.2,7.8-1.2,10.6-3.5c0.7-0.6,1.3-1.2,1.9-1.8c0.6,0.7,1.2,1.4,1.8,1.9
		C453.4,384.6,457.4,385.4,461,385.4z"/>
</g>
</svg>
