<?xml version="1.0" encoding="utf-8"?>
<!-- Generator: Adobe Illustrator 27.2.0, SVG Export Plug-In . SVG Version: 6.00 Build 0)  -->
<svg version="1.1" id="Layer_1" xmlns="http://www.w3.org/2000/svg" xmlns:xlink="http://www.w3.org/1999/xlink" x="0px" y="0px"
	 viewBox="0 0 500 500" style="enable-background:new 0 0 500 500;" xml:space="preserve">
<style type="text/css">
	.st0{fill:#808080;}
</style>
<g>
	<path class="st0" d="M329.8,327.3c0,14.7,12,26.7,26.7,26.7c0.9,0,1.8,0,2.6-0.1c2.6-0.3,5-0.9,7.3-1.8c9.8-4,16.7-13.5,16.7-24.7
		c0-14.7-12-26.7-26.7-26.7S329.8,312.6,329.8,327.3z M375.6,327.3c0,7.7-4.4,14.2-10.8,17.2c-2.2,1.1-4.7,1.7-7.3,1.8
		c-0.3,0-0.6,0-0.9,0c-10.5,0-19.1-8.6-19.1-19.1c0-10.5,8.6-19.1,19.1-19.1C367,308.3,375.6,316.8,375.6,327.3z"/>
	<path class="st0" d="M83.4,300.7c-14.7,0-26.7,12-26.7,26.7c0,11.2,6.9,20.8,16.7,24.7c2.3,0.9,4.8,1.6,7.3,1.8
		c0.9,0.1,1.7,0.1,2.6,0.1c14.7,0,26.7-12,26.7-26.7C110.1,312.6,98.1,300.7,83.4,300.7z M83.4,346.4c-0.3,0-0.6,0-0.9,0
		c-2.6-0.1-5.1-0.8-7.3-1.9c-6.4-3.1-10.8-9.6-10.8-17.2c0-10.5,8.6-19.1,19.1-19.1s19.1,8.6,19.1,19.1
		C102.5,337.9,94,346.4,83.4,346.4z"/>
	<path class="st0" d="M447.6,70.4c-5.8-6.8-12.8-11.8-20.5-14.7c-2.3-9.6-6.7-18.6-13.2-26.2C403.3,17,388.6,9.8,373.7,9.8
		c-14.4,0-28,6.2-38.1,17.4c-11.9,13.2-17.6,31.8-15.6,51c3.4,32.2,20.3,57.7,42.1,65.4l-2.5,12.1c-0.2,0.8-0.1,1.6,0.3,2.3
		c2.1,4.6,7.2,6.2,12.5,6.2c2.2,23-6,36.9-13.9,45.3c-0.2-24.2-6.6-43-19.5-57c-21.1-23-58.9-33.8-119.1-33.8
		c-60.2,0-98.1,10.7-119.2,33.8c-15.1,16.5-21.3,39.5-19,70.2c-25.7,16.8-39.2,46-42.7,90.4c-1.2,23.9,2.2,38.3,11,46.7
		c5.8,5.6,13.3,8.1,22.3,9.9c0.5,11.5,3.5,22.8,8.8,32.7c0.3,0.6,0.9,1.2,1.5,1.5c5.1,2.9,11.6,5.7,20.2,5.7c4.6,0,9.8-0.8,15.8-2.8
		c8.3-0.9,11.4-16.9,12.1-29.4c8.7,0.6,17.4,1.1,25.8,1.4c-0.4,3.5-0.9,6.9-1.5,9.9c-0.3,1.4,0.3,2.9,1.4,3.8
		c0.7,0.5,1.5,0.8,2.3,0.8c0.6,0,1.2-0.1,1.7-0.4c22.6-11.5,30.7-10,46.8-7.1l2.9,0.5c1.1,0.2,2.2-0.1,3.1-0.8
		c0.9-0.7,1.4-1.7,1.4-2.8c0-1.3,0.1-2.7,0.1-4c2.1-0.1,3.8-0.2,5.2-0.2c3.9,0.2,10.6,0.5,19.3,0.6c0.3,0,0.5,0,0.8,0
		c0.1,0,0.3,0,0.4,0c17.7,0.3,43.1,0.3,68.8-1.7c0.7,12.5,3.8,28.5,12.2,29.4c5.9,2,11.1,2.8,15.7,2.8c8.6,0,15.1-2.8,20.2-5.7
		c0.6-0.4,1.1-0.9,1.5-1.5c5.4-10.1,8.4-21.7,8.8-33.4c28.2-8,36.2-24.6,32.8-60.4c-3.6-37.7-14.9-63.9-35.1-80.6
		c18.8-0.5,39.4-11.3,50.8-37.1c2.1-0.3,4-0.9,5.4-1.4c4.3-1.6,4.8-3.9,4.4-5.7l-2.2-11.1c5.9-2.5,11.8-6.8,17-12.6
		c7-7.7,16.1-21.5,19.7-43.5c0,0,0,0,0,0C463.1,100,458.4,83.1,447.6,70.4z M368.8,156.2c-0.6-0.2-1-0.4-1.3-0.6l2.1-10.1l0.8-3.7
		l0.2-1.1l0.5-2.6l0.8-3.7c0-0.2,0.1-0.4,0.1-0.6c0,0,0,0,0,0c0-0.9-0.3-1.8-0.8-2.5c-0.5-0.7-1.3-1.2-2.2-1.4
		c-0.7-0.1-1.4-0.1-2.1,0.2c-1.2,0.4-2.1,1.5-2.4,2.8l-0.7,3.3c-18.6-7.1-33.1-29.9-36.1-58.7c-1.8-17.1,3.2-33.5,13.7-45.1
		c8.7-9.6,20.2-14.9,32.4-14.9c12.7,0,25.2,6.2,34.4,17c4.8,5.7,8.3,12.1,10.5,19c0.4,1.3,0.8,2.7,1.1,4.1c0.3,1.4,0.6,2.7,0.8,4.1
		c0.5,3.2,0.7,6.5,0.7,9.8c0,1.3-0.1,2.7-0.2,4c-0.1,1.3-0.3,2.6-0.5,3.9c0,0.1,0,0.2,0,0.3c-0.1,0.7-0.3,1.4-0.4,2.1
		c-5.5,29.9-21.3,48.2-35,54.4l-0.5-2.7c-0.4-2.1-2.4-3.4-4.4-3c-1.8,0.3-3,1.9-3.1,3.6c0,0.3,0,0.6,0.1,0.8l0.7,3.5l0.1,0.4
		l0.6,3.4l0.7,3.7l0.9,4.9l0.9,4.8c-0.5,0.2-1.1,0.3-1.8,0.5c-0.1,0-0.1,0-0.2,0.1c-2.2,0.5-5.1,0.9-7.6,0.7
		C370.5,156.6,369.6,156.4,368.8,156.2z M421.8,163.3c-0.4-2.1-2.4-3.4-4.4-3c-1.8,0.3-3,1.9-3.1,3.6c0,0.3,0,0.6,0.1,0.8l0.5,2.7
		l0.7,3.7l0.7,3.7l1.5,7.8c-2.6,0.8-7.4,1.5-10.3,0.6c-0.2-0.1-0.6-0.2-0.8-0.3l1.7-8.3l0.8-3.7l0.8-3.7l0.6-2.9
		c0-0.2,0.1-0.4,0.1-0.6c0.1-1.8-1.2-3.4-3-3.8c-2.1-0.4-4.1,0.9-4.5,3l-0.5,2.4c-5-2-9.6-5.3-13.7-9.7l-2.3-11.9
		c6.6-2.7,13.3-7.5,19.4-14.2c10.1-11.2,17.5-26.7,21.2-44c0.1-0.6,0.3-1.3,0.4-1.9c1.9,1.5,3.5,3.1,4.9,4.8
		c1.5,1.8,2.6,3.6,3.4,5.3c0.6,1.4,2,2.2,3.5,2.2c0.5,0,1.1-0.1,1.6-0.3c1.9-0.9,2.8-3.1,1.9-5c-2.6-5.8-7.7-11.5-14.1-15.5
		c0.3-3.5,0.2-7-0.1-10.4c4.9,2.5,9.4,6.1,13.2,10.6c9.4,11,13.4,25.7,11.1,40.1c-4.5,26.8-18.5,43.7-30.7,49.7L421.8,163.3z
		 M367.5,361.2c-2.3,0.7-4.8,1.3-7.5,1.9c-4.7,1-10,1.9-16,2.6c-0.1,0-0.1,0-0.2,0c-2.9,0.5-5.9,0.9-8.8,1.3c-2.5,0.3-5,0.7-7.5,0.9
		c-3.6,0.4-7.2,0.8-10.8,1.1c-2.5,0.2-5.1,0.4-7.6,0.6c-18.6,1.4-37.1,1.8-52.6,1.8c0.8-0.5,1.5-1,2.3-1.4
		c8.9-5.6,20.1-12.6,32.5-16.6c1.2-0.4,2.1-1.3,2.5-2.5s0.1-2.5-0.7-3.4c-4.2-5.3-7.4-10.2-10.1-14.9c2.4,0.4,4.9,0.6,7.4,0.6
		c3,0,6.1-0.3,9.3-0.9c0,0,0,0,0,0c0,0,0,0,0,0c0,0,0,0,0,0c0.3-0.1,0.5-0.1,0.8-0.3c0.1,0,0.2-0.1,0.2-0.1c0.2-0.1,0.3-0.2,0.5-0.3
		c0.1-0.1,0.2-0.1,0.2-0.2c0.1,0,0.1-0.1,0.2-0.1c0.1-0.1,0.2-0.2,0.2-0.3c0.1-0.1,0.1-0.1,0.2-0.2c0.2-0.2,0.3-0.5,0.4-0.8
		c0,0,0,0,0,0c2.9-7.3,4.9-14.7,6.2-22.4c18.6-14.7,24.8-35.3,30-52.4c3.5-11.5,6.5-21.7,12.4-27.8c24.6,14.8,37.8,41.2,41.7,81.8
		C395.7,340.3,390.2,354.2,367.5,361.2z M225.2,371c-0.6-0.3-1.3-0.5-2-0.4c-0.1,0-1.3,0.1-3.4,0.2c-2.1-0.1-3.3-0.2-3.4-0.2
		c-0.6,0-1.1,0.1-1.6,0.3c0.7-18.5,2-38.2,5.4-58.8c3.7,11.4,5.7,23,7.7,34.3c1.4,8.2,2.9,16.6,5,25
		C230.1,371.2,227.4,371.1,225.2,371z M207.1,378c-11.8-2.2-20.5-3.5-34.2,1.1c-2.9,1-5.9,2.2-9.3,3.7c0.2-1.3,0.3-2.5,0.5-3.8
		c0.1-1.2,0.3-2.5,0.4-3.8c0.1-1.3,0.3-2.5,0.4-3.8c0,0,0-0.1,0-0.1c1.5-14.5,3.1-30.8,9.8-46.3c0.2-0.4,0.4-0.8,0.6-1.3
		c2.7-1.6,5.3-3.4,7.9-5.3c6.2-4.6,12.1-10,17.9-15.2c1.1-1,2.1-1.9,3.2-2.9c1.6-0.9,3.3-1.9,5-3c1.4,0.7,2.8,1.3,4.2,1.8l0.9,2.7
		c-1.3,6.9-2.4,13.6-3.3,20.3c-0.1,1-0.3,2-0.4,3c-2,16-2.9,31.4-3.4,46.1c0,1.3-0.1,2.6-0.1,3.8C207.2,376,207.2,377,207.1,378z
		 M130.8,369.8c-2.5-0.2-5.1-0.4-7.6-0.6c-3.6-0.3-7.2-0.7-10.8-1.1c-2.5-0.3-5-0.6-7.5-0.9c-3.6-0.5-7.2-1-10.6-1.6
		c-2.7-0.4-5.3-0.8-7.8-1.2c-2.2-0.3-4.4-0.7-6.5-1c-2.6-0.4-5.1-0.9-7.5-1.4c-7.1-1.5-12.9-3.7-17.1-7.6
		c-7.1-6.8-9.7-19.4-8.7-40.8c3.4-43,16.7-70.8,42.1-86.1c5.9,6.1,9,16.3,12.5,27.8c5.2,17.2,11.4,37.9,30.3,52.7
		c1.3,6.9,3.2,13.7,5.8,20.3c0,0.1,0.1,0.1,0.1,0.1c0.1,0.2,0.2,0.4,0.3,0.5c0.1,0.1,0.1,0.2,0.2,0.2c0,0.1,0.1,0.1,0.1,0.2
		c0.1,0.1,0.2,0.2,0.3,0.3c0.1,0.1,0.2,0.2,0.2,0.2c0.2,0.1,0.3,0.2,0.5,0.3c0.1,0,0.1,0.1,0.2,0.1c0.3,0.1,0.5,0.2,0.8,0.3
		c0,0,0,0,0,0c3.2,0.6,6.3,0.9,9.3,0.9c5.6,0,10.8-1.1,15.8-2.9c-5.1,14.6-6.6,29.3-7.9,41.9c0,0.2,0,0.4-0.1,0.6
		C148.7,370.9,139.8,370.5,130.8,369.8z M129.6,177.2c13.2-14.8,42.8-22,90.4-22c47.5,0,77,7.2,90.3,22c6.8,7.6,9.7,17.7,8.9,30.7
		c-0.8-0.2-1.7-0.3-2.5-0.5c-38.4-7.9-124.1-13.1-194.6,0.2c-0.4,0.1-0.9,0.2-1.3,0.3C119.9,194.9,122.8,184.8,129.6,177.2z
		 M301.7,303.3c-0.5,3.5-1.2,6.9-2,10.3c-0.7,2.8-1.5,5.6-2.4,8.4c-2.2-1.7-4.3-3-6.4-4.1c-3.4-1.7-6.8-2.7-11-3.8
		c-0.1,0-0.2-0.1-0.4-0.1c-1.9-0.5-4-1.1-6.3-1.9c-1.5-0.5-3.1-1-4.8-1.6c-1.5-0.5-3.2-1.2-4.9-1.9c-5.2-2.1-11.4-4.8-19-8.7
		c-0.2-0.2-0.4-0.4-0.6-0.5c-2.6-2.3-5.2-4.7-7.8-7.1l-1-4.6c1.3,0.8,2.6,1.7,4,2.7c4.6,3.3,9.7,6.9,18.3,7.2c0.4,0,0.9,0,1.3,0
		c1,0,2.1-0.1,3.2-0.2c1.3-0.1,2.7-0.3,4.1-0.5c0.5-0.1,1.1-0.2,1.6-0.3c2.1-0.4,3.4-2.4,2.9-4.5c-0.4-2.1-2.4-3.4-4.5-2.9
		c-1.9,0.4-3.6,0.6-5.2,0.8c-1.4,0.1-2.6,0.1-3.8,0.1c-0.6,0-1.1-0.1-1.6-0.1c-2.9-0.4-5.2-1.3-7.4-2.5c-1.6-0.9-3.1-2-4.8-3.1
		c-1.6-1.1-3.2-2.3-5.1-3.4c0.4-0.1,0.7-0.1,1.1-0.2c1.9-0.4,3.8-1,5.6-1.8c3.7-1.5,7.2-3.6,10.7-5.6c7.5-4.3,14.6-8.4,23.7-7.5
		c2.1,0.2,4-1.3,4.2-3.4c0.2-2.1-1.3-4-3.4-4.2c-11.5-1.2-20.4,3.9-28.3,8.4c-6.5,3.8-12.3,7.1-19,7c-0.1-0.8-0.2-1.6-0.4-2.4
		c11.3-14.7,41-26.4,64-20.8C302.4,269,304,286.6,301.7,303.3z M175.9,314.4c-1.3,0.9-2.6,1.7-3.9,2.5c-0.8,0.5-1.7,1-2.5,1.4
		c-2.8,1.5-5.7,2.8-8.7,3.7c-3.1,1-6.3,1.6-9.6,1.7c1.9-1.2,3.7-2.2,5.5-3c3.2-1.5,6.5-2.5,10.3-3.8c0.7-0.2,1.5-0.5,2.2-0.7
		c0.5-0.2,1.1-0.4,1.6-0.5c1.7-0.6,3.5-1.2,5.4-1.9c0.3-0.1,0.6-0.2,0.9-0.4C176.7,313.8,176.3,314.1,175.9,314.4z M140.7,314
		c-0.9-3.4-1.6-6.9-2.2-10.4c-2.7-17.3-1.2-35.6,4.6-54.7c23-5.6,52.6,6,64,20.7c-0.6,1.5-1,3-1.3,4.4c-6.8,0.2-12.6-3.1-19.2-7
		c-7.8-4.5-16.7-9.7-28.3-8.4c-2.1,0.2-3.6,2.1-3.4,4.2c0.2,2.1,2.1,3.6,4.2,3.4c9.1-1,16.2,3.1,23.7,7.5c5.5,3.2,11.1,6.4,17.5,7.6
		c-1.8,1.1-3.5,2.2-5,3.3c-1.7,1.2-3.3,2.3-5,3.2c-2.4,1.3-5.1,2.3-8.6,2.6c-2.6,0.2-5.6,0-9.2-0.7c-2.1-0.4-4,0.9-4.5,3
		c-0.4,2.1,0.9,4.1,3,4.5c3.3,0.7,6.3,1,8.9,1c1.4,0,2.6-0.1,3.8-0.2c2.7-0.3,5.1-1,7.2-1.8c3.5-1.4,6.2-3.4,8.8-5.2
		c1.7-1.2,3.2-2.3,4.9-3.2l-0.6,2.8l-0.1,0.3c-1.4,1.2-2.7,2.4-4.1,3.6c-1.3,0.8-2.6,1.5-3.8,2.2c-4.1,2.3-7.8,4.1-11.1,5.7
		c-2.7,1.3-5.2,2.3-7.4,3.3c-4.9,2-9,3.3-12.7,4.5c-2.9,0.9-5.6,1.8-8.2,2.9c-3,1.2-5.9,2.6-9.1,4.6c-1.5,0.9-3,2-4.6,3.2
		C142,318.4,141.3,316.2,140.7,314z M212.8,290.7C212.8,290.6,212.8,290.6,212.8,290.7c-0.1-1.6-0.2-3-0.3-4.5c0-0.5,0-1,0-1.5
		c0-0.2,0-0.3,0-0.5c0-1,0-2.1,0-3.1c0-0.1,0-0.1,0-0.2c0.1-1.1,0.2-2.2,0.3-3.2c0-0.2,0.1-0.4,0.1-0.6c0.5-2.7,1.3-5.4,2.8-8.1
		c0-0.1,0.1-0.1,0.1-0.2c2-0.6,4.1-0.9,8.6,0.5c0.1,0.2,0.1,0.4,0.2,0.6c0.3,1,0.5,2,0.7,3c0.3,1.3,0.4,2.6,0.5,3.9c0,0,0,0,0,0
		c0.1,1.2,0.1,2.5,0.1,3.8c0,0,0,0.1,0,0.1c0,0,0,0,0,0c0,0.1,0,0.2,0,0.3c0,1.1-0.1,2.2-0.2,3.3c-0.2,2-0.6,4.2-1,6.5
		c-0.6,0.4-1.2,0.8-1.8,1.1c-1.2,0.5-2.3,0.8-3.5,0.7c-0.1,0-0.2,0-0.3,0c-1.2-0.1-2.4-0.4-3.7-0.9c-0.1,0-0.2-0.1-0.3-0.1
		C214.3,291.4,213.5,291,212.8,290.7z M276.2,322.9c-1-0.4-2-0.8-3-1.3c-1.8-0.9-3.6-1.8-5.4-2.9c-0.4-0.2-0.8-0.5-1.2-0.7
		c0.3,0.1,0.7,0.2,1,0.4c1.7,0.6,3.3,1.1,4.8,1.6c1.7,0.5,3.3,1,4.8,1.4c0.2,0.1,0.5,0.1,0.7,0.2c0.6,0.2,1.2,0.3,1.7,0.5
		c3.8,1.1,6.7,2,9.5,3.7c-3.8-0.1-7.4-0.8-10.8-2C277.6,323.4,276.9,323.1,276.2,322.9z M232.1,327c-0.5-2.3-1-4.7-1.6-7
		c-1.7-6.7-3.8-13.5-6.6-20.2c1.9-0.6,3.8-1.6,5.8-3.1c0.2,0.2,0.4,0.5,0.6,0.7c2.9,2.5,5.8,5.2,8.7,7.8c0.3,0.3,0.6,0.6,0.9,0.9
		c0.1,0.1,0.1,0.1,0.2,0.2c4.8,4.4,9.6,8.7,14.6,12.6c3,2.4,6.2,4.6,9.4,6.5c2.9,1.7,5.8,3.2,8.8,4.5c2.9,5.7,6.4,11.8,11.2,18.4
		c-11.3,4.4-21.1,10.6-29.2,15.7c-5.1,3.2-11.4,7.2-14,7.6c-2.3-8.7-3.9-17.7-5.4-26.4C234.4,339,233.4,333,232.1,327z M303.3,246.4
		c-0.4-1.2-1.3-2.1-2.5-2.5c-24.9-7.3-56.1,4-71,19.4c-0.3-0.3-0.7-0.5-1.1-0.6c-8.3-2.8-12.2-2-16.2-0.7l-0.3,0.1
		c-0.4,0.1-0.7,0.3-1.1,0.5c-14.5-16-46.6-27.9-72-20.5c-1.2,0.4-2.2,1.3-2.5,2.5c-5.7,17.9-7.9,35.1-6.6,51.7
		c-12.3-12.7-17.2-28.8-21.5-43.2c-3.4-11.2-6.6-21.9-12.9-29.3c8.2-3.9,17.4-6.8,27.8-8.6c30.9-5.8,64.7-8.1,96.1-8.1
		c39.3,0,74.7,3.5,95.7,7.8c0,0,0.1,0,0.1,0c10.7,1.8,20.2,4.7,28.6,8.7c0,0.2,0,0.3,0,0.5c-6.1,7.4-9.2,17.9-12.5,28.9
		c-4.3,14.3-9.2,30.3-21.4,43C311.1,280.2,308.9,263.5,303.3,246.4z M106.4,157.6c19.3-21.1,56.5-31.3,113.6-31.3
		c57.1,0,94.2,10.2,113.5,31.3c12.7,13.8,18.4,33.1,17.4,58.7c-0.6,0.5-1.2,0.9-1.7,1.3c-6.8-3.4-14.3-6-22.5-8
		c1.2-15.7-2.3-27.9-10.7-37.4c-15-16.8-45.4-24.6-95.9-24.6c-50.5,0-81.1,7.8-96,24.6c-8.4,9.4-11.9,21.7-10.7,37.4
		c-8.9,2.2-16.9,5.1-24.1,8.9C87.8,191.7,93.4,171.8,106.4,157.6z M87.3,397.8c-3.7-7.2-6.5-16.5-7.3-26.8c1.7,0.3,3.4,0.5,5.2,0.8
		c2.5,0.4,5.1,0.8,7.7,1.2c3.9,0.7,7.8,1.2,11.8,1.8c0.3,8.6,1.7,19.8,5.4,26.4C100,403.3,92.9,400.9,87.3,397.8z M117.8,399.1
		c-1.7-1.5-4.9-9.3-5.4-23.4c3.6,0.4,7.2,0.8,10.8,1.1C122.5,390.1,119.5,397.5,117.8,399.1z M327.5,375.6
		c-0.5,14-3.7,21.9-5.4,23.4c-1.7-1.5-4.8-8.9-5.4-22.4C320.4,376.4,324,376,327.5,375.6z M352.6,397.8c-5.6,3-12.6,5.4-22.8,3.4
		c3.7-6.6,5.1-17.9,5.3-26.5c3.3-0.4,6.7-0.9,9.9-1.5c5.4-0.7,10.3-1.4,14.8-2.4C359.1,381.3,356.3,390.6,352.6,397.8z M358.4,220
		c9.8-8.2,24.6-25,21.7-56.6c1.8-0.4,3.4-0.9,4.6-1.3c4.9,4.9,10.4,8.6,16.4,10.7l-2.1,10.4c-0.2,0.8-0.1,1.6,0.3,2.3
		c1.5,3.3,4.7,4.9,8.4,5.5C395.8,214.3,375.2,222.2,358.4,220z"/>
	<path class="st0" d="M437,113.7c0.2,0,0.3,0,0.5,0l0.8-0.1c2.1-0.3,3.5-2.2,3.3-4.2c-0.3-2.1-2.2-3.5-4.2-3.3l-0.8,0.1
		c-2.1,0.3-3.5,2.2-3.3,4.2C433.5,112.3,435.2,113.7,437,113.7z"/>
	<path class="st0" d="M398,49.7c1.2,1.5,2.1,3,2.8,4.5c0.1,0.2,0.2,0.4,0.3,0.7c0.6,1.4,2,2.2,3.5,2.2c0.5,0,1-0.1,1.5-0.3
		c1.5-0.7,2.4-2.2,2.2-3.8c0-0.4-0.1-0.8-0.3-1.2c-6.1-13.6-24-26.3-42.5-23.3c-2.1,0.3-3.5,2.3-3.1,4.4c0.3,2.1,2.3,3.5,4.4,3.1
		c1.9-0.3,3.8-0.4,5.6-0.3C383.2,36.2,392.7,42.8,398,49.7z"/>
	<path class="st0" d="M404.4,69.6c-0.6-0.2-1.2-0.3-1.8-0.2l-0.8,0.1c-2.1,0.3-3.6,2.1-3.3,4.2c0.2,1.9,1.9,3.3,3.8,3.3
		c0.2,0,0.3,0,0.5,0l0.8-0.1c0.1,0,0.1,0,0.2,0c1.5-0.2,2.6-1.3,3-2.6c0.1-0.4,0.1-0.7,0.1-1.1c0-0.1,0-0.3,0-0.4
		C406.6,71.3,405.7,70.1,404.4,69.6z"/>
	<path class="st0" d="M257.1,459.8c-4.3-2.2-10.1-1.8-14.2,2.7c-0.7,0.8-1.4,1.7-2,2.7c-1,1.8-0.4,4.1,1.4,5.2
		c1.8,1,4.1,0.4,5.2-1.5c1.7-3,4.2-3.3,6-2.4c2.6,1.4,4,5.5,0.9,11.7c-1.7,3.5-7.5,5.3-13.1,3.9c-3.9-1-12.7-4.9-11.9-20.6
		c0-0.1,0-0.2,0-0.2l-0.2-20.3l-0.2-25.5l-0.1-13.3c0-2.1-1.7-3.8-3.8-3.8c-2.1,0-3.8,1.7-3.8,3.8l0.3,38.9l0.2,20.2
		c-0.9,17.3,8.5,25.9,17.6,28.2c1.9,0.5,3.9,0.7,5.7,0.7c7.1,0,13.4-3.3,16-8.7C266.5,470.9,262.8,462.8,257.1,459.8z"/>
	<path class="st0" d="M205.5,396.2c-2.1,0.5-3.3,2.5-2.8,4.6c2.2,9.3,0.5,19.6-4.6,27.5c-3,4.7-8.6,10.8-18,12.8
		c-5.9,1.3-12.6,0.1-17.4-3.2c-2.6-1.8-6-5-6.9-10.3c-0.5-3.2,0.3-6.7,2.2-9.2c1.4-1.9,3.2-2.9,5.4-3.2c1.4-0.2,3,0.2,3.9,1
		c0.7,0.6,0.8,1.1,0.8,1.5c0,0,0,0.1,0,0.1c0,0,0,0.1,0,0.1c-1.8,0.2-3.3,1.7-3.4,3.6c-0.1,2.1,1.5,3.9,3.6,4c1.9,0.1,3.7-0.6,5.1-2
		c1.5-1.6,2.4-3.8,2.3-6.1c-0.1-2.7-1.3-5.2-3.4-7.1c-2.6-2.2-6.4-3.3-9.8-2.8c-4.3,0.5-7.9,2.6-10.6,6.2c-3.1,4.2-4.5,9.8-3.6,15.1
		c1.1,6.3,4.6,11.6,10.2,15.4c4.9,3.3,10.9,5,16.9,5c2.2,0,4.3-0.2,6.4-0.7c9.4-2,17.5-7.8,22.9-16.2c6.1-9.7,8.2-22.1,5.6-33.4
		C209.6,397,207.5,395.8,205.5,396.2z"/>
	<path class="st0" d="M287,402c-3.6-1.8-7.9-2.1-11.5-0.7c-3,1.1-5.3,3.2-6.6,6.1c-1.2,2.5-1.3,5.4-0.3,7.9c0.9,2.2,2.5,3.9,4.7,4.7
		c0.1,0,0.2,0.1,0.4,0.1c2,0.6,4.2,0.4,5.8-0.6c1.4-0.8,2.4-2.1,2.8-3.6c0.5-2-0.7-4.1-2.7-4.6c-1.5-0.4-3,0.1-3.9,1.2
		c0,0,0-0.1,0-0.1c-0.2-0.5-0.2-1.3,0.1-1.9c0,0,0-0.1,0.1-0.1c0.4-0.9,1.2-1.6,2.3-2c1.6-0.6,3.8-0.4,5.5,0.4
		c2.8,1.4,4,3.8,4.5,5.5c1,3.2,0.6,7-1.1,9.9c-2.6,4.7-6.8,6.6-9.8,7.5c-5.3,1.5-11.4,0.6-16.3-2.2c-8.4-5-13.2-14.9-12.3-25.3
		c0.2-2.1-1.4-3.9-3.5-4.1c-2.1-0.2-3.9,1.4-4.1,3.5c-1.1,13.3,5.2,26,16.1,32.5c4.5,2.6,9.7,4,14.8,4c2.5,0,5-0.3,7.3-1
		c6.3-1.7,11.4-5.7,14.4-11.1c2.6-4.8,3.3-10.7,1.7-15.8C294,407.6,291.1,404,287,402z"/>
	<path class="st0" d="M82.5,315.7c-6.5,0-11.7,5.3-11.7,11.7c0,4.6,2.6,8.6,6.5,10.6c1.6,0.8,3.4,1.3,5.2,1.3c0.9,0,1.7-0.1,2.5-0.3
		c5.3-1.2,9.3-5.9,9.3-11.6C94.3,321,89,315.7,82.5,315.7z M83.5,331.6c-0.3,0.1-0.7,0.1-1.1,0.1c-0.4,0-0.7-0.1-1.1-0.2
		c-1.8-0.5-3.1-2.1-3.1-4.1c0-2.3,1.9-4.1,4.1-4.1c2.3,0,4.3,1.9,4.3,4.1C86.7,329.4,85.4,331.1,83.5,331.6z"/>
	<path class="st0" d="M345.2,327.9c0,5.9,4.3,10.8,10,11.7c0.6,0.1,1.2,0.1,1.8,0.1c2.1,0,4.1-0.6,5.8-1.5c3.6-2,6-5.9,6-10.3
		c0-6.5-5.3-11.8-11.8-11.8C350.4,316,345.2,321.4,345.2,327.9z M356.9,323.6c2.3,0,4.3,1.9,4.3,4.3c0,1.7-1,3.1-2.3,3.8
		c-0.6,0.3-1.2,0.5-1.9,0.5c-0.5,0-0.9-0.1-1.3-0.2c-1.6-0.6-2.8-2.1-2.8-4C352.8,325.5,354.6,323.6,356.9,323.6z"/>
</g>
</svg>
