<?xml version="1.0" encoding="utf-8"?>
<!-- Generator: Adobe Illustrator 27.2.0, SVG Export Plug-In . SVG Version: 6.00 Build 0)  -->
<svg version="1.1" id="Layer_1" xmlns="http://www.w3.org/2000/svg" xmlns:xlink="http://www.w3.org/1999/xlink" x="0px" y="0px"
	 viewBox="0 0 500 500" style="enable-background:new 0 0 500 500;" xml:space="preserve">
<style type="text/css">
	.st0{fill:#808080;}
</style>
<g>
	<path class="st0" d="M81.5,231.1c10.2,0,18.4-2.4,24.9-7.2c6.3-5,9.6-11.6,9.6-20.1c0-5.3-1.5-10-4.6-14.4c-3-4.4-9-7.7-17.8-9.9
		l-14.7-3.6c-8-2-12-5.5-12-10.4c0-3.1,1.3-5.7,3.8-7.7c2.6-2,6.3-3,11.1-3c8.4,0,13.6,3.3,16,9.8l14.8-3.7
		c-1.7-5.9-5.4-10.5-11.2-13.7c-5.8-3.3-12.5-4.9-19.9-4.9c-9,0-16.3,2.3-22,7c-5.7,4.6-8.6,10.8-8.6,18.5c0,3.8,0.8,7.5,2.4,10.9
		c1.7,3.4,3.8,6,6.5,8c2.6,1.9,6.8,3.5,12.5,5l16.5,4.3c4.5,1.2,7.3,2.7,8.7,4.8c1.4,1.9,2,4.1,2,6.4c0,3.3-1.5,6-4.5,8.2
		c-2.9,2.2-7.2,3.3-12.8,3.3c-12.1,0-19-4.3-20.9-12.9l-15.1,3.2c2.1,7.6,6.4,13.2,12.8,16.8C65.5,229.3,73,231.1,81.5,231.1z"/>
	<path class="st0" d="M140.4,209.2h33.2l6.8,20.6h16.7l-28.9-86.3h-19.2l-28.6,86.3h13.3L140.4,209.2z M156.8,158.3l12.6,38.5h-25.1
		L156.8,158.3z"/>
	<polygon class="st0" points="240.8,229.8 267.6,143.4 254.7,143.4 234.5,209.6 214.7,143.4 198.3,143.4 224.9,229.8 	"/>
	<polygon class="st0" points="333.6,216.3 293.1,216.3 293.1,192.2 325.2,192.2 325.2,179.7 293.1,179.7 293.1,156.3 333,156.3 
		333,143.4 277.6,143.4 277.6,229.8 333.6,229.8 	"/>
	<polygon class="st0" points="57.5,261 67.8,261 67.8,293.6 75.3,293.6 75.3,261 85.5,261 85.5,255 57.5,255 	"/>
	<polygon class="st0" points="111.5,270.9 96.8,270.9 96.8,255 89.8,255 89.8,293.6 96.8,293.6 96.8,276.9 111.5,276.9 111.5,293.6 
		118.5,293.6 118.5,255 111.5,255 	"/>
	<polygon class="st0" points="133.9,276.8 148.3,276.8 148.3,271.2 133.9,271.2 133.9,260.8 151.8,260.8 151.8,255 126.9,255 
		126.9,293.6 152.1,293.6 152.1,287.6 133.9,287.6 	"/>
	<path class="st0" d="M199.2,260.6c-3.1-3.7-7.4-5.6-12.7-5.6h-14.2v38.6H185c6.1,0,10.8-1.9,14.1-5.6c3.3-3.6,4.9-8.2,4.9-13.6
		C204,268.9,202.5,264.3,199.2,260.6z M193.3,284.5c-2.2,2.3-4.9,3.5-8,3.5h-5.8v-27.5h6.6c3.1,0,5.6,1.3,7.5,3.9
		c1.9,2.6,2.8,5.8,2.8,9.5C196.5,278.6,195.4,282.1,193.3,284.5z"/>
	<path class="st0" d="M219.2,255l-12.8,38.6h5.9l3-9.2h14.8l3.1,9.2h7.4l-13-38.6H219.2z M217.2,278.8l5.6-17.1l5.7,17.1H217.2z"/>
	<polygon class="st0" points="241.2,261 251.5,261 251.5,293.6 259,293.6 259,261 269.2,261 269.2,255 241.2,255 	"/>
	<polygon class="st0" points="298.6,287.6 280.5,287.6 280.5,276.8 294.8,276.8 294.8,271.2 280.5,271.2 280.5,260.8 298.3,260.8 
		298.3,255 273.5,255 273.5,293.6 298.6,293.6 	"/>
	<path class="st0" d="M303.3,335.2c-0.7-1.8-1.8-3.5-3.2-4.9c-2.8-2.9-6.4-4.5-10.4-4.5c-1.6,0-3.2,0.2-4.7,0.7
		c-1.3,0.4-2.6,1-3.7,1.8c-1,0.7-1.9,1.4-2.7,2.3c0,0-0.1,0.1-0.1,0.1c-1.2,1.3-2.1,2.9-2.8,4.5c-0.3,0.8-0.6,1.7-0.7,2.6
		c-0.1,0.3-0.1,0.6-0.2,0.9c-0.1,0.5-0.1,1.1-0.1,1.6c0,0.6,0,1.3,0.1,1.9c0.2,1.9,0.8,3.7,1.7,5.4c0.6,1,1.3,2,2.1,2.9
		c0.1,0.1,0.2,0.2,0.3,0.3c0.7,0.7,1.5,1.4,2.4,2c2.3,1.6,5.1,2.4,8,2.5c0.1,0,0.2,0,0.3,0c3.9,0,7.6-1.5,10.4-4.2
		c2.4-2.4,3.9-5.5,4.2-8.8c0-0.5,0.1-0.9,0.1-1.4c0-0.7,0-1.4-0.1-2.1C304,337.5,303.7,336.3,303.3,335.2z M295.1,346
		c-1.5,1.5-3.5,2.3-5.6,2.2c-1.3,0-2.6-0.4-3.8-1.1c-0.6-0.4-1.2-0.8-1.7-1.3c-0.3-0.3-0.6-0.7-0.9-1.1c-0.5-0.8-0.9-1.7-1.1-2.6
		c-0.1-0.5-0.2-1.1-0.2-1.6c0-0.1,0-0.1,0-0.2c0-0.6,0.1-1.2,0.2-1.7c0.1-0.4,0.2-0.9,0.4-1.3c0.4-0.8,0.9-1.6,1.5-2.2
		c0.2-0.2,0.5-0.5,0.7-0.7c1-0.9,2.3-1.5,3.7-1.7c0.4-0.1,0.8-0.1,1.2-0.1c0,0,0.1,0,0.1,0c1.3,0,2.6,0.4,3.7,1c0,0,0,0,0,0
		c0.6,0.4,1.2,0.8,1.7,1.4c0,0,0.1,0.1,0.1,0.1c0.9,1,1.6,2.2,1.9,3.5c0.2,0.6,0.2,1.3,0.2,2c0,0,0,0,0,0.1c0,0.5,0,1-0.1,1.4
		C296.9,343.6,296.2,344.9,295.1,346z"/>
	<path class="st0" d="M469.1,285.6c2.6-3.2,4.3-7.4,4.9-12.1c17-18.1,20.9-43.5,11.7-76c-0.5-1.8-2.4-2.9-4.2-2.4
		c-27.9,7.1-45.3,18.4-53.3,34.5c1.2-10.2-0.1-19.4-3.8-27.4c-5-10.9-14.2-19.6-27.8-26.4v-66.8c0-5.9-4.8-10.7-10.6-10.7H20
		c-5.8,0-10.6,4.8-10.6,10.7v222.6c0,5.8,4.8,10.6,10.6,10.6h177.9c-3.5,5.6-6.9,12-10,19.3c-0.8,1.7,0,3.8,1.7,4.6
		c15.5,7.2,29.7,10.8,42.7,10.8c12.4,0,23.6-3.3,33.6-10c2.9,1.8,6.3,2.9,10,3c2.8,0,5.4-0.5,7.8-1.5c3.6,3.8,8.6,6,13.9,6.1
		c0.1,0,0.2,0,0.2,0c5.1,0,10-2,13.7-5.6c3.8-3.7,5.9-8.6,6-13.9c0-1.7-0.2-3.5-0.7-5.2c1.5-1.2,2.8-2.6,3.9-4.2
		c2.8,1.3,5.8,2.1,8.7,2.3c-5.5,19.4,2.8,34.3,14.7,39.4c2.9,1.2,6.1,1.9,9.5,1.9c6.5,0,13.4-2.6,19.4-8.5c3,12.7,12.2,19.7,21.5,21
		c1.1,0.2,2.2,0.2,3.3,0.2c11.9,0,24.6-8.6,29.5-26.4c5.2,2.8,12,3.5,18.9,1.7c10.8-2.8,19-10.6,21.4-20.3
		c1.1-4.4,1.3-10.1-1.2-16.9c11.8-1.3,19.6-8.7,22.4-17.1C492.9,310.3,487.3,294.4,469.1,285.6z M482.2,320.5
		c-2.3,6.8-8.8,12.4-19,12.6c-3.1-5.3-7.7-11.2-14.6-17.5c-0.2-0.2-0.5-0.4-0.8-0.5c-4.6-2.4-9.7-4.2-15.1-5.9l-0.5,0.1
		c0.1,0,0.2-0.1,0.3-0.1c3.9-1.6,7.9-2.6,13-2.2c2.5,0.2,5.2,0.7,8.3,1.7c1.8,0.6,3.8-0.4,4.4-2.3c0.6-1.8-0.4-3.8-2.3-4.4
		c-12.4-3.9-20.6-1.7-27.5,1.3c-0.3-3.3-1.1-6.5-2.3-9.5c0.4-0.6,0.8-1.1,1.1-1.7c1-1.5,2-3,3.1-4.4c0.4-0.5,0.8-1,1.2-1.5
		c0.8-1,1.7-1.9,2.6-2.8c0.6-0.6,1.2-1.1,1.9-1.6c0.3-0.2,0.6-0.4,0.9-0.7c1-0.7,2.1-1.3,3.2-1.9c1.2-0.6,2.5-1.2,3.9-1.7
		c1.3-0.5,2.7-0.9,4.2-1.2c1.9-0.5,3-2.3,2.6-4.2c-0.5-1.9-2.3-3-4.2-2.6c-0.1,0-0.3,0.1-0.4,0.1c-3.1,0.8-5.7,1.7-8,2.8
		c-1.4,0.6-2.6,1.3-3.7,2c-1.1,0.7-2.1,1.4-3,2.1c-1,0.8-1.9,1.6-2.8,2.5c-2.5,2.5-4.4,5.1-6.2,7.7c-1.9-2.9-4.1-5.5-6.7-7.7
		c-0.9-0.8-1.9-1.6-3-2.3c-1-0.7-2-1.4-3.1-2c-0.1-0.1-0.2-0.1-0.4-0.2c0.3-0.6,0.6-1.2,0.9-1.8c1.1-2.1,2.2-4.2,3.3-6.2
		c0,0,0,0,0,0c0.8-1.4,1.7-2.9,2.6-4.2c0.2-0.4,0.5-0.7,0.7-1.1c0.5-0.8,1-1.5,1.6-2.2c0.5-0.3,0.9-0.6,1.4-1
		c0.2-0.1,0.3-0.3,0.5-0.4c1-0.7,2-1.4,3-2c1.1-0.7,2.2-1.4,3.3-2c1.2-0.7,2.3-1.3,3.5-1.9c1.1-0.5,2.2-1,3.2-1.5
		c2.2-0.9,4.4-1.6,6.5-2.1c2.8-0.7,5.4-0.9,7.9-0.8c2.5,0.1,4.9,0.6,7,1.6c0.1,0,0.2,0.1,0.3,0.1c4.1,1.9,7,5,9,8.5
		c0.6,1.1,1.1,2.2,1.5,3.4c0.9,2.4,1.4,4.9,1.5,7.1c0.1,0.9,0.1,1.7,0,2.5c-0.1,2-0.4,3.8-0.9,5.5c-1,3.4-2.9,6.2-5.5,7.9
		c-0.6,0.4-1,0.8-1.3,1.4c-0.3,0.6-0.4,1.2-0.3,1.9c0.1,1.3,1,2.4,2.3,2.9C480.4,296.8,485.5,310.6,482.2,320.5z M444.4,370.3
		c-6.8,1.8-13.3,0.5-16.9-3.4c-0.9-1-2.3-1.3-3.6-1c-1.3,0.4-2.2,1.5-2.4,2.8c-3.3,19.8-15.9,27.2-26.2,25.8
		c-8.3-1.1-16-8.3-16.5-21.9c-0.1-1.9,0-3.9,0.2-6.1c0.1-1.1,0.3-2.3,0.5-3.4c1-6.8,2.6-13.7,4.2-19.8c0.8,0.2,1.7,0.3,2.6,0.4
		c1.2,0.2,2.3,0.3,3.5,0.3c0.5,0,1,0,1.5,0c3.7,0,7.2-0.5,10.5-1.5c0.1,0,0.2-0.1,0.3-0.1c1.3,3.4,2.1,7.1,1.9,11.5
		c-0.1,2.5-0.6,5.3-1.6,8.5c-0.6,1.8,0.5,3.8,2.3,4.3c0.3,0.1,0.7,0.1,1,0.1c1.5,0,2.9-1,3.3-2.5c3.2-10.8,1.9-18.4-0.5-24.7
		c3.3-1.7,6.3-3.9,8.9-6.5c0,0,0,0,0,0c3.7,2,7,4.4,10,8.6c1.5,2.1,2.8,4.5,4.1,7.6c0.6,1.4,1.9,2.2,3.2,2.2c0.4,0,0.9-0.1,1.3-0.3
		c1.8-0.7,2.6-2.8,1.9-4.6c-4.3-10.5-10.1-15.5-16-18.9c0.3-0.4,0.5-0.8,0.8-1.2c0.6-1,1.2-2,1.7-3c0.5-1,1-2.1,1.4-3.2
		c0.7-1.9,1.3-3.8,1.8-5.8c6,1.7,11.6,3.6,16.4,6.1c4,3.7,7.3,7.4,9.9,11c1,1.4,1.9,2.7,2.7,4.1c0.7,1.3,1.4,2.5,2,3.8
		c2.4,5.4,3.2,10.6,2,15.2C458.7,363.7,451,368.6,444.4,370.3z M346.8,380.7c-9.6-4.1-16.6-17-9.2-35.7c0.4-0.9,0.3-2-0.1-2.9
		c-0.1-0.3-0.3-0.5-0.5-0.8c-0.9-1-2.3-1.4-3.5-1c-3.1,0.9-6.5,0.4-9.9-1.2c-0.3-0.2-0.6-0.3-1-0.5c-0.7-0.4-1.5-0.9-2.2-1.4
		c-0.9-0.6-1.7-1.3-2.5-2.1c-0.2-0.2-0.4-0.4-0.6-0.6c-0.1-0.1-0.1-0.1-0.2-0.2c-2.7-2.8-5.1-6.6-6.2-10.9c-0.4-1.4-0.6-2.8-0.7-4.2
		c-0.1-1.2,0-2.4,0.2-3.6c0.1-0.9,0.3-1.8,0.6-2.7c2.7-8.7,11.9-15.4,26.4-19.4c1.7-0.5,3.5-0.9,5.4-1.3c0.2,0,0.4,0,0.6,0.1
		c4.1,0.4,8.4,1.2,12.8,2.2c-0.3,0.7-0.5,1.5-0.7,2.2c-0.3,1.1-0.6,2.3-0.8,3.4c-0.4,2.2-0.6,4.4-0.6,6.7c0,1,0,1.9,0.1,2.9
		c-6.7-0.6-14.4,0.2-24,6.2c-1.6,1-2.1,3.2-1.1,4.8c0.7,1,1.8,1.6,3,1.6c0.6,0,1.3-0.2,1.9-0.5c2.8-1.8,5.4-3,7.7-3.8
		c4.8-1.7,9-1.7,13.2-1.2c0.2,0,0.4,0,0.6,0.1c1.3,4.7,3.5,9,6.5,12.8c-1.6,1.6-3.3,3.4-4.8,5.3c-0.8,1.1-1.7,2.2-2.4,3.5
		c-0.7,1.1-1.3,2.2-1.8,3.5c-1.8,3.9-3,8.5-3.3,14.5c-0.1,1.9,1.4,3.6,3.3,3.7c0.1,0,0.1,0,0.2,0c1.8,0,3.4-1.4,3.5-3.3
		c0.2-3.3,0.7-6,1.4-8.5c0.7-2.5,1.7-4.6,2.9-6.5c0.8-1.2,1.6-2.4,2.5-3.5c0.4-0.5,0.8-1,1.3-1.5c0.6-0.7,1.3-1.4,2-2
		c0.1-0.1,0.2-0.2,0.2-0.2c0.1,0.1,0.2,0.2,0.3,0.2c1.5,1.3,3.1,2.4,4.7,3.5c1.7,1.1,3.5,2,5.4,2.8c-0.1,0.2-0.1,0.5-0.2,0.7
		c-1.9,7.2-3.7,15.5-4.7,23.7c-0.2,1.7-0.3,3.3-0.3,4.9C364.6,381.8,354.5,384,346.8,380.7z M297.9,367.4c0,0-0.1,0-0.1,0
		c-4.1-0.1-7.9-2.1-10.2-5.5c-0.7-1-1.8-1.5-2.9-1.5c-0.6,0-1.3,0.2-1.9,0.5c-2,1.3-4.3,1.9-6.8,1.9c-1.3,0-2.6-0.3-3.8-0.7
		c-1.2-0.4-2.4-1-3.4-1.8c-1-0.7-1.8-1.5-2.5-2.4c-1.8-2.2-2.8-5-2.8-8.1c0-2.9,1.1-5.6,2.8-7.8c1.2-1.5,2.7-2.7,4.5-3.5
		c0.1,0,0.2-0.1,0.2-0.1c0.3-0.1,0.6-0.3,0.8-0.5c0.5-0.4,0.9-0.9,1.1-1.5c0.2-0.4,0.2-0.9,0.2-1.4c0-0.5-0.1-0.9-0.3-1.3
		c-0.4-0.9-0.8-1.9-1-2.8c-0.2-0.9-0.3-1.8-0.3-2.7c0-0.5,0.1-1.1,0.1-1.6c0.2-1.2,0.5-2.4,1-3.4c0.5-1.1,1.1-2.1,1.9-2.9
		c2.4-2.8,5.9-4.6,9.8-4.6c0,0,0.1,0,0.1,0c4.2,0.1,8.2,2.3,10.5,5.8c0.9,1.4,2.8,2,4.4,1.3c1.3-0.6,2.9-1,4.4-1.1
		c0.6,4.7,2.4,9.3,5.2,13.4c0.8,1.2,1.8,2.4,2.8,3.5c0.3,0.3,0.5,0.6,0.8,0.8c0.8,0.8,1.6,1.6,2.5,2.2c-0.1,0.1-0.2,0.3-0.3,0.4
		c-1,1.2-2.2,2.3-3.6,3.1c-1.5,0.9-2.1,2.7-1.5,4.3c0.7,1.8,1.1,3.6,1.1,5.3c0,3.4-1.4,6.6-3.8,8.9
		C304.3,366.1,301.2,367.4,297.9,367.4z M195.7,361.1c3.3-7.2,6.9-13.6,10.7-18.9c0.9-1.2,1.7-2.4,2.6-3.5c1-1.2,1.9-2.4,2.9-3.5
		c6.7-7.5,14-12.4,21.8-14.6c9.3-2.6,19.8-1.5,31.3,3.2c-0.4,1.4-0.6,2.9-0.6,4.5c0,1.2,0.1,2.4,0.4,3.6c-1.7,0.2-3.3,0.5-4.9,0.8
		l-8.3-8.8c-1.3-1.4-3.5-1.5-4.9-0.1c-1.4,1.3-1.5,3.5-0.1,4.9l5.5,5.8c-1,0.3-2,0.5-3,0.8c-3.4,1-6.7,2.1-9.9,3.3l-5-3.3l-5.1-3.4
		c-1.6-1.1-3.8-0.6-4.8,1c-0.5,0.7-0.7,1.6-0.5,2.4c0.1,0.9,0.6,1.8,1.5,2.4l1.6,1.1l4.9,3.3c-0.2,0.1-0.3,0.2-0.5,0.2
		c-4.1,2.2-8,4.6-11.5,7.3c-1.5,1.2-1.8,3.4-0.6,4.9c0.7,0.9,1.7,1.4,2.8,1.4c0.7,0,1.5-0.2,2.1-0.7c2.7-2.1,5.7-4,8.9-5.8l-2.6,7.7
		c-0.6,1.8,0.4,3.8,2.2,4.4c0.4,0.1,0.7,0.2,1.1,0.2c1.5,0,2.8-0.9,3.3-2.4l4.7-14c2.7-1.1,5.5-2,8.4-2.9c1.4-0.4,2.8-0.8,4.3-1.2
		l-0.2,1.2l-2,10.1c-0.4,1.9,0.8,3.7,2.7,4.1c0.2,0,0.5,0.1,0.7,0.1c0.7,0,1.4-0.2,1.9-0.6c0.7,2.3,1.8,4.4,3.2,6.2
		C243,372.8,221.5,372.4,195.7,361.1z M16.4,331.5V108.9c0-2.1,1.6-3.7,3.6-3.7H386c2,0,3.6,1.6,3.6,3.7v63.7
		c-5.7-2.3-12-4.4-19-6.2c-1.8-0.5-3.7,0.6-4.2,2.4c-6.4,22.3-6.5,41.3-0.5,56.8c-4.6,4.8-7.2,10.7-7.5,16.3
		c-19.4-5.5-34.3,2.7-39.4,14.7c-4.1,9.6-2.1,22.7,10.4,32.2c-16.6,5.9-22.8,15-25,22.1c-0.4,1.2-0.7,2.5-0.8,3.7
		c-1.6,0.1-3.2,0.3-4.7,0.8c-3.6-4.1-9-6.6-14.5-6.7c0,0,0,0,0,0c-6.8-0.1-12.9,3.4-16.5,8.6c-13.1-5.4-25.2-6.6-36.1-3.6
		c-10.9,3-20.6,10.1-29.1,21.3H20C18.1,335.2,16.4,333.5,16.4,331.5z M417.9,243.8c-1.7-5.2-3.7-9.5-5.9-13l5.7-7.5
		c1.2-1.5,0.9-3.7-0.7-4.9c-1.5-1.2-3.7-0.9-4.9,0.7l-4.5,6c-0.3-0.3-0.5-0.6-0.8-0.8c-1.7-3.8-3.6-7.4-5.6-10.8l5.1-11.2
		c0.8-1.8,0-3.8-1.7-4.6c-1.8-0.8-3.8,0-4.6,1.7l-3.3,7.2c0,0-0.1-0.1-0.1-0.1c-1.1-1.5-2.3-3-3.5-4.5c-1.1-1.3-2.3-2.6-3.5-3.8
		c-0.8-0.8-1.5-1.6-2.3-2.3c-1.4-1.3-3.6-1.3-4.9,0.2c-1.3,1.4-1.3,3.6,0.2,4.9c2.5,2.4,4.9,5,7.1,7.8l-7.8-1.3
		c-1.9-0.3-3.7,1-4,2.9c-0.3,1.9,1,3.7,2.9,4l9,1.5l1.5,0.3c-0.5-0.1-1-0.1-1.5-0.2c-6.2-0.5-12.5,1.3-18.1,5
		c-4.4-13-4.1-28.5,0.6-46.8c6.4,1.8,12.3,3.9,17.4,6.2c1.2,0.5,2.4,1.1,3.5,1.6c1.2,0.6,2.4,1.2,3.5,1.8
		c10.4,5.8,17.6,12.9,21.5,21.3C422.8,215.6,422.8,228.6,417.9,243.8z M479.9,202.8c6.6,25.1,4.5,45.1-6.3,60.3
		c-1.6-7.7-5.8-14.4-11.9-18.4l9.7-1.6c1.9-0.3,3.2-2.1,2.9-4c-0.3-1.9-2.1-3.2-4-2.9l-7.9,1.3c2.2-2.8,4.6-5.5,7.1-7.8
		c1.4-1.3,1.5-3.5,0.2-4.9c-1.3-1.4-3.5-1.5-4.9-0.2c-3.4,3.2-6.5,6.8-9.4,10.7L452,228c-0.8-1.8-2.9-2.5-4.6-1.7
		c-1.8,0.8-2.5,2.9-1.7,4.6l4.3,9.5c-5.1-0.6-11.4,0.1-19,3.3c0.6-3.5,1.5-6.8,3-9.9C440.4,219.7,455.4,209.5,479.9,202.8z
		 M407.9,281.5c1,0.7,2,1.4,3,2.2c1,0.8,1.9,1.7,2.8,2.7c1.8,1.9,3.3,4.1,4.6,6.5c0.6,1.2,1.1,2.4,1.6,3.6c0,0.1,0.1,0.2,0.1,0.3
		c0.4,1.2,0.8,2.4,1,3.6c0.4,1.8,0.6,3.7,0.7,5.6c0,0.1,0,0.2,0,0.3c0,0.2,0,0.4,0,0.7c0,0.9,0,1.8-0.1,2.6c0,0.2,0,0.4,0,0.6
		c0,0.3-0.1,0.6-0.1,0.9c-0.1,0.7-0.2,1.3-0.3,2c-0.1,0.4-0.2,0.7-0.3,1.1c-0.3,1.2-0.6,2.3-1,3.4c-0.4,1.1-0.9,2.2-1.4,3.2
		c-0.5,1-1.1,2-1.8,3c-0.3,0.4-0.5,0.8-0.8,1.1c-0.7,1-1.5,1.9-2.3,2.8c-0.4,0.5-0.9,0.9-1.3,1.3c-0.5,0.4-0.9,0.8-1.4,1.2
		c-1.5,1.3-3.2,2.4-5,3.4c-1,0.6-2.1,1-3.2,1.5c-0.7,0.3-1.3,0.5-2,0.7c-0.4,0.1-0.9,0.3-1.3,0.4c-1.4,0.4-2.9,0.7-4.4,0.9
		c-1,0.1-2.1,0.2-3.1,0.2c-0.1,0-0.3,0-0.4,0c-0.4,0-0.8,0-1.2,0c-0.6,0-1.3-0.1-1.9-0.1c-0.9-0.1-1.8-0.2-2.6-0.4
		c-0.3-0.1-0.6-0.1-0.8-0.2c-0.9-0.2-1.7-0.4-2.5-0.7c-0.7-0.2-1.4-0.5-2.1-0.7c-0.4-0.2-0.8-0.3-1.2-0.5c-2.7-1.2-5.2-2.8-7.4-4.7
		c-0.6-0.6-1.3-1.1-1.9-1.7c-0.2-0.2-0.4-0.5-0.6-0.7c-0.8-0.9-1.5-1.8-2.2-2.7c-1.5-2-2.7-4.2-3.6-6.5c-0.3-0.7-0.5-1.3-0.7-2
		c-0.2-0.6-0.3-1.1-0.5-1.7c-0.3-1.2-0.5-2.4-0.7-3.7c-0.2-1.3-0.3-2.6-0.3-3.9c0-1.6,0.1-3.1,0.4-4.6c0.6,0.8,1.6,1.3,2.7,1.3
		c0.4,0,0.8-0.1,1.1-0.2c1.3-0.4,2.2-1.6,2.3-3c0-0.1,0-0.2,0-0.3v-0.6c0-0.7-0.2-1.4-0.6-1.9c-0.6-0.9-1.7-1.5-2.9-1.5
		c-0.4,0-0.7,0.1-1.1,0.2c0.1-0.2,0.2-0.4,0.3-0.7c0.3-0.8,0.7-1.6,1.1-2.4c0.5-1.1,1.2-2.1,1.8-3.1c1.4-2,3-3.9,4.8-5.6
		c0.5-0.4,0.9-0.8,1.4-1.2c0.4-0.3,0.9-0.7,1.3-1c1-0.7,2-1.3,3-1.9c2.6-1.5,5.5-2.6,8.6-3.2c0.6-0.1,1.2-0.2,1.8-0.3
		c0.6-0.1,1.2-0.2,1.8-0.2c0.2,0,0.4,0,0.6,0c0.6,0,1.2-0.1,1.8-0.1c0.4,0,0.8,0,1.2,0c0.2,0,0.3,0,0.5,0c1.2,0.1,2.3,0.2,3.5,0.4
		c1.2,0.2,2.4,0.5,3.6,0.8c1.1,0.3,2.2,0.7,3.3,1.2c1.1,0.5,2.1,1,3.1,1.6C407,281,407.4,281.2,407.9,281.5z M396.6,270
		c-0.9-0.1-1.7-0.2-2.6-0.3c0.5-3.8,0.7-7.8-0.3-12.4c-0.2-0.7-0.3-1.5-0.6-2.2c-0.3-0.9-0.6-1.9-0.9-2.8c-0.7-1.8-1.5-3.7-2.6-5.6
		c-0.2-0.3-0.4-0.7-0.6-1c0-0.1-0.1-0.2-0.1-0.2c-0.5-0.8-1.2-1.4-2-1.6c-0.9-0.3-1.9-0.2-2.7,0.3c-0.4,0.2-0.8,0.6-1.1,0.9
		c-0.8,1.1-1,2.6-0.2,3.8c0.2,0.4,0.5,0.8,0.7,1.3c1.2,2.3,2.1,4.5,2.7,6.5c1.5,5,1.3,9.1,0.6,13.3c0,0,0,0,0,0
		c-5.4,0.7-10.5,2.5-14.9,5.2c-5.2-5.4-11.8-10.7-24.7-12c-1.9-0.2-3.6,1.2-3.8,3.1c-0.2,1.9,1.2,3.6,3.1,3.8c3.3,0.3,6,0.9,8.4,1.8
		c4.9,1.7,8.2,4.3,11.2,7.3c0.1,0.1,0.1,0.1,0.2,0.2c-2.8,2.5-5.2,5.5-7.1,8.8c-5.6-1.4-11-2.5-16.4-2.8c-0.3,0-0.6,0-0.9,0.1
		c-1.3,0.3-2.5,0.5-3.7,0.8c-13.6-7.4-16.4-18.6-12.9-26.9c4.1-9.6,17-16.5,35.7-9.1c1.2,0.5,2.6,0.2,3.6-0.7c1-0.9,1.4-2.3,1-3.5
		c-1.2-4.1,0.1-9,3.3-13.4c0.7-1,1.6-1.9,2.5-2.8c0,0,0,0,0,0c0.8-0.8,1.7-1.6,2.7-2.3c4.1-3,9.5-5.2,15.3-4.6
		c1.2,0.1,2.3,0.3,3.5,0.7c0,0,0,0,0,0c1.2,0.4,2.4,0.9,3.5,1.5c1.6,0.9,3,2,4.4,3.3c0.1,0.1,0.2,0.2,0.3,0.3c0.7,0.7,1.3,1.4,2,2.2
		c1.2,1.5,2.4,3.1,3.5,5c0,0,0,0,0,0c2.8,4.9,5.1,11,6.7,18.3c0,0-0.1,0-0.1,0.1c-0.9,1.2-1.8,2.4-2.6,3.7c-0.3,0.5-0.7,1-1,1.5
		c-0.3,0.5-0.6,1-0.9,1.5c-0.6,1-1.2,2-1.8,3c-1.4,2.4-2.7,4.9-3.9,7.5C401,270.9,398.8,270.4,396.6,270z M393.1,216.4l2,0.3
		c0,0.1,0.1,0.1,0.1,0.2c0,0-0.1,0-0.1,0C394.4,216.8,393.8,216.6,393.1,216.4c-0.1,0-0.2,0-0.3-0.1L393.1,216.4z"/>
	<path class="st0" d="M381,304.5c0.1,0,0.3,0,0.4,0c1.9,0,3.5-1.6,3.5-3.5v-0.6c0-0.2,0-0.5-0.1-0.7c-0.3-1.5-1.5-2.6-3-2.7
		c-0.1,0-0.3,0-0.4,0c-1.1,0-2.1,0.5-2.7,1.3c-0.3,0.4-0.5,0.8-0.7,1.3c-0.1,0.3-0.1,0.6-0.1,0.8v0.4v0.2c0,0.4,0.1,0.8,0.2,1.2
		c0.3,0.8,0.9,1.5,1.7,1.9C380.2,304.3,380.6,304.4,381,304.5z"/>
	<path class="st0" d="M371.2,311.5c-0.6,0-1.2,0.2-1.6,0.4c-1.1,0.6-1.8,1.7-1.8,3.1v0.3v0.2c0,0.1,0,0.1,0,0.2
		c0.1,1.6,1.2,2.8,2.6,3.2c0.3,0.1,0.5,0.1,0.8,0.1c1.9,0,3.5-1.6,3.5-3.5V315C374.7,313,373.2,311.5,371.2,311.5z"/>
	<path class="st0" d="M389.7,310.9C389.6,310.9,389.6,310.9,389.7,310.9c-2,0.1-3.5,1.6-3.5,3.5v0.6c0,1.9,1.5,3.4,3.4,3.5
		c0,0,0.1,0,0.1,0c1.7,0,3.1-1.2,3.4-2.8c0-0.2,0.1-0.5,0.1-0.7v-0.6c0-0.2,0-0.5-0.1-0.7C392.7,312.1,391.3,310.9,389.7,310.9z"/>
	<path class="st0" d="M382.5,325.7c-0.1,0-0.3,0-0.4,0c-1.7,0.2-3.1,1.7-3.1,3.5v0.6c0,0.8,0.3,1.5,0.7,2.1c0.6,0.8,1.6,1.4,2.7,1.4
		c0.2,0,0.3,0,0.5-0.1c1.7-0.2,3-1.7,3-3.4v-0.6c0-0.6-0.2-1.2-0.5-1.7C385,326.4,383.8,325.7,382.5,325.7z"/>
	<path class="st0" d="M399.1,325.1c-1,0-1.9,0.4-2.6,1.1c-0.4,0.4-0.6,0.9-0.8,1.4c-0.1,0.3-0.2,0.6-0.2,1v0.6
		c0,0.9,0.4,1.7,0.9,2.4c0.3,0.3,0.6,0.6,1,0.7c0.5,0.2,1,0.4,1.5,0.4c0.3,0,0.6-0.1,0.9-0.1c0.4-0.1,0.8-0.3,1.2-0.6
		c0.8-0.6,1.4-1.6,1.4-2.8v-0.6C402.6,326.7,401,325.1,399.1,325.1z"/>
	<path class="st0" d="M402.2,310.8v0.6c0,0.8,0.3,1.6,0.8,2.2c0.6,0.8,1.6,1.3,2.7,1.3c1.9,0,3.5-1.6,3.5-3.5v-0.6
		c0-0.4-0.1-0.8-0.2-1.2c-0.1-0.2-0.2-0.4-0.3-0.6c-0.2-0.3-0.4-0.6-0.7-0.9c-0.6-0.5-1.4-0.9-2.3-0.9
		C403.7,307.3,402.2,308.9,402.2,310.8z"/>
</g>
</svg>
