<?xml version="1.0" encoding="utf-8"?>
<!-- Generator: Adobe Illustrator 27.2.0, SVG Export Plug-In . SVG Version: 6.00 Build 0)  -->
<svg version="1.1" id="Layer_1" xmlns="http://www.w3.org/2000/svg" xmlns:xlink="http://www.w3.org/1999/xlink" x="0px" y="0px"
	 viewBox="0 0 500 500" style="enable-background:new 0 0 500 500;" xml:space="preserve">
<style type="text/css">
	.st0{fill:#808080;}
</style>
<g>
	<path class="st0" d="M476.9,68.4c1.1-13.3-1.9-25.6-8.1-33c-3.4-4-7.7-6.3-12.2-6.7c-13.1-1-25,14.8-27,36.1c0,0,0,0,0,0
		c-1.1,13.2,1.9,25.5,8.2,32.9c0.6,0.7,1.3,1.4,2,2c-7.8,5.3-14.5,15.8-17.7,29c0,0,0,0,0,0.1c-3.1,13.2-1.8,25.8,3.3,33.8
		c0.8,1.3,1.8,2.5,2.8,3.5c-9.9,2.6-20.4,12.2-27.4,26.3c-6.3,12.5-8,25.3-4.6,34.2c0.7,1.9,1.7,3.6,2.8,5
		c-9.9,1.1-21.6,7.8-31.5,18.9c-9.8,11-15,23.2-13.9,32.6c0.2,1.5,0.5,2.9,1,4.2c-1.3-0.2-2.5-0.3-3.8-0.3
		c-13.4,0-24.3,9.9-24.3,22.1c0,0.1,0,0.3,0,0.4c-1.7-0.4-3.5-0.7-5.4-0.7c-9.8,0-17.9,6.6-19.4,15.2c-3.4-2.6-7.7-4.1-12.4-4.1
		c-9,0-16.5,5.5-18.9,13.1c-4.2-7.3-12-12.2-21-12.2c-8,0-15,3.9-19.4,9.8c-2.9-6.5-9.9-11.2-18.1-11.2c-4.8,0-9.2,1.6-12.6,4.2
		c-1.5-8.7-9.5-15.4-19.3-15.4c-2.6,0-5.1,0.5-7.4,1.3c0.1-0.9,0.2-1.9,0.2-2.9c0-12.3-10.9-22.3-24.3-22.3c-2.8,0-5.4,0.5-7.9,1.3
		c0.6-1.4,0.9-3,1.1-4.6c1-9.5-4.2-21.7-14-32.5c-9.7-10.9-21.4-17.6-31.2-18.9c1.6-1.7,2.8-3.8,3.7-6.2c3.4-9,1.6-21.7-4.7-34.1
		c-5.8-11.5-13.9-20.1-22.1-24.2c0.3-0.4,0.7-0.9,1-1.4c5.2-8,6.5-20.7,3.4-33.8c0,0,0,0,0,0c-3.3-13.7-10.3-24.4-18.4-29.5
		c0.9-0.8,1.8-1.6,2.6-2.6c6.3-7.3,9.3-19.6,8.2-32.9c0,0,0,0,0,0c-2-21.2-13.8-37.1-27-36.1c-4.6,0.3-8.8,2.7-12.2,6.7
		c-6.2,7.3-9.3,19.6-8.1,33c1.3,14.7,7.4,26.9,15.4,32.6c-1.4,1.2-2.7,2.7-3.8,4.4c-5.2,8-6.4,20.7-3.2,34
		c3.3,13.7,10.6,24.5,18.8,29.6c-1,1.3-1.8,2.9-2.5,4.6c-3.4,8.9-1.7,21.7,4.6,34.2c7.3,14.7,18.5,24.6,28.9,26.5
		c-2.4,2.5-3.8,5.8-4.3,9.6c-1,9.5,4.2,21.7,13.9,32.5c10.8,12.2,23.9,19.2,34.3,19.2c0.9,0,1.8-0.1,2.7-0.2
		c-2.1,3.3-3.4,7.2-3.4,11.3c0,12.2,10.8,22.1,24.1,22.1c4.3,0,8.3-1,11.7-2.8c0,0.1,0,0.2,0,0.4c0,9.9,8.8,18,19.7,18
		c4.7,0,9.1-1.6,12.4-4.1c1.5,8.7,9.6,15.4,19.4,15.4c0.7,0,1.4,0,2.1-0.1l21.8,30.6c-2.4-0.5-4.9-0.7-7.6-0.5
		c-9.8,0.6-18.3,5.7-22.6,13.7c-4.2,8-6.9,21.1,4.7,38.2c6.9,9.9,18.6,20.5,32,29.2l5.4,3.6c0.9,0.6,2,0.9,3,0.9
		c1.1,0,2.1-0.3,3.1-0.9l3.8-2.6c28.2-18.9,41.9-36.4,41.9-53.5c0-4.8-0.7-8.1-2.6-11.9c-4.3-9.1-12.6-15.3-22.2-16.5
		c-2.9-0.4-5.9-0.2-8.7,0.3l14.1-28.1c0.6-1.3,0.7-2.6,0.4-3.9c2.7,1.3,5.8,2,9.1,2c9.8,0,17.9-6.6,19.4-15.2
		c3.4,2.6,7.7,4.1,12.4,4.1c10,0,18.2-6.9,19.5-15.7c3.1,1.3,6.5,2,10.1,2c13.4,0,24.3-10,24.3-22.3c0-4.3-1.3-8.2-3.6-11.6
		c10.2-0.5,22.7-7.3,33.2-19c9.8-11,15-23.2,13.9-32.6c-0.4-3.4-1.5-6.2-3.4-8.6c10.4-1.8,21.7-11.8,29.1-26.6
		c6.3-12.5,8-25.3,4.6-34.2c-1-2.5-2.3-4.6-4-6.3c10.2-3.3,19.8-15.6,23.7-31.9c3.2-13.1,2-25.7-3.1-33.8c-1-1.5-2.1-2.8-3.3-4
		C469.9,94.7,475.7,82.8,476.9,68.4z M249.4,331.7c7.4,0,13.4,6,13.4,13.4s-6,13.4-13.4,13.4c-7.4,0-13.4-6-13.4-13.4
		C236,337.9,242.1,331.7,249.4,331.7z M34,67.5c-0.9-10.2,1.3-19.9,5.6-24.9c1.5-1.8,3.1-2.7,4.7-2.8c0.1,0,0.2,0,0.4,0
		c5.9,0,13.4,10.9,14.9,26.2c0.9,10.1-1.4,19.8-5.6,24.8c-1.5,1.8-3.2,2.8-4.7,2.9C43.1,94,35.3,82.9,34,67.5z M42.3,136.8
		c-2.4-10-1.7-19.9,1.7-25.3c1.2-1.8,2.5-2.8,4-3.1c0.3-0.1,0.6-0.1,0.9-0.1c6,0,14.7,9.8,18.1,24.3c2.3,10,1.6,19.8-1.9,25.2
		c-1.2,1.8-2.5,2.8-4.1,3.1C55.3,162.1,46,152,42.3,136.8z M62.4,202.6c-4.7-9.4-6.3-19.3-4.1-25c1-2.7,2.5-3.2,2.9-3.4
		c0.6-0.2,1.3-0.3,2-0.3c6,0,15.9,7.9,22.3,20.7c0,0,0,0,0,0c5.8,11.3,5.9,20.5,4.2,25c-0.7,1.8-1.7,3-2.9,3.5
		C81.2,225.2,69.6,217,62.4,202.6z M99.4,268.7c-8.4-9.3-11.6-18.6-11.1-23.6c0.3-2.4,1.3-3.2,1.6-3.4c0.8-0.6,2-0.9,3.5-0.9
		c5.9,0,16.5,4.8,25.8,15.3c0,0,0,0,0,0c8.4,9.3,11.6,18.6,11.1,23.6c-0.3,2.4-1.3,3.2-1.6,3.4C124.6,286.2,111.1,282,99.4,268.7z
		 M148.6,318c-7.2,0-13.2-5.2-13.2-11.3c0-6.3,5.9-11.4,13.2-11.4c7.4,0,13.4,5.1,13.4,11.4C162,312.9,156,318,148.6,318z
		 M180,333.6c-4.9,0-8.8-3.2-8.8-7.2c0-4,4-7.3,8.8-7.3c4.7,0,8.7,3.3,8.7,7.3C188.7,330.4,184.7,333.6,180,333.6z M203.1,337.5
		c0-4,4-7.2,8.8-7.2c4.7,0,8.7,3.3,8.7,7.2c0,2.9-2.1,5.5-5.1,6.6c-0.5,0.1-1,0.2-1.5,0.4c-0.7,0.1-1.4,0.2-2.1,0.2
		C207,344.9,203.1,341.6,203.1,337.5z M224.4,351.5c0.5-0.4,0.9-0.7,1.3-1.1c0.5,2.3,1.3,4.4,2.4,6.4L224.4,351.5z M231.3,361.2
		c4.4,5,10.9,8.2,18.1,8.2c5.9,0,11.3-2.1,15.5-5.6L251.8,390L231.3,361.2z M273.2,396.6c6,0.7,11,4.5,13.8,10.4
		c1.2,2.4,1.6,4,1.6,7.1c0,13-12.5,28-37.1,44.5l-0.8,0.5l-2.4-1.6c0,0,0,0-0.1,0c-12.1-7.8-22.9-17.7-29-26.3
		c-6.9-10.2-8.3-19-4.1-26.9c2.4-4.5,7.6-7.6,13.6-7.9c0.4,0,0.8,0,1.2,0c6.3,0,11.5,2.7,15,7.8c0.1,0.1,0.2,0.2,0.2,0.3
		c0.2,0.3,0.5,0.6,0.7,0.8c0.9,1.7,2.7,2.9,4.8,2.9c2.2,0,4.1-1.2,5.2-3.2c0.1-0.2,0.3-0.5,0.6-0.8c0.2-0.3,0.4-0.6,0.7-0.9
		c0,0,0.1-0.1,0.1-0.1C261.4,398.4,267.2,395.9,273.2,396.6z M273,350.6c0.1-0.6,0.3-1.3,0.4-1.9c0.4,0.5,0.9,1,1.3,1.5
		C274.1,350.2,273.5,350.4,273,350.6z M289.3,345.3c-4.9,0-8.8-3.2-8.8-7.2c0-4,4-7.3,8.8-7.3s8.8,3.4,8.8,7.3
		C298.2,342.1,294.2,345.3,289.3,345.3z M321.2,334.2c-4.8,0-8.8-3.3-8.8-7.3c0-4,4-7.2,8.8-7.2s8.8,3.2,8.8,7.2
		C330,330.9,326,334.2,321.2,334.2z M350.8,320.6c-7.3,0-13.4-5.2-13.4-11.4c0-6.2,6-11.3,13.4-11.3c7.4,0,13.4,5.1,13.4,11.3
		C364.2,315.4,358.1,320.6,350.8,320.6z M396,270.9c-11.7,13.1-25.1,17.2-29.3,14.3c-0.3-0.2-1.4-1-1.6-3.4
		c-0.6-5,2.7-14.2,11.1-23.6c0,0,0,0,0,0c9.3-10.5,19.8-15.2,25.7-15.2c1.5,0,2.7,0.3,3.5,0.9c0.3,0.2,1.4,1,1.6,3.4
		C407.6,252.2,404.4,261.4,396,270.9z M434.1,205.7c-7.6,15.3-19.5,22.3-24.3,20.3c-0.5-0.2-1.9-0.8-2.9-3.4
		c-2.2-5.8-0.6-15.6,4.1-25c6.8-13.6,17-20.7,22.5-20.7c0.7,0,1.3,0.1,1.8,0.3c0.5,0.2,1.9,0.8,2.9,3.4
		C440.4,186.4,438.8,196.3,434.1,205.7z M457.7,135.7c-3.7,15.2-13,25.3-18.8,24.2c-1.6-0.3-2.9-1.4-4.1-3.3
		c-3.4-5.3-4.2-15.2-1.9-25.2c3.7-15.2,13.1-25.3,19-24.2c1.6,0.3,3,1.4,4.1,3.3C459.4,115.9,460.1,125.8,457.7,135.7z M450.9,93.6
		c-1.7-0.1-3.3-1.1-4.8-2.9c-4.3-5-6.5-14.8-5.6-24.8c1.5-15.5,9.2-26.6,15.2-26.1c1.6,0.1,3.2,1.1,4.7,2.8c4.2,5,6.4,14.8,5.6,24.9
		C464.7,82.9,456.9,94,450.9,93.6z"/>
	<path class="st0" d="M185.8,176.6C185.9,176.6,185.9,176.6,185.8,176.6l5.6,3.7c0.9,0.6,1.9,0.9,3,0.9c1.1,0,2.1-0.3,3.1-0.9
		l3.8-2.6c28.2-18.9,41.9-36.4,41.9-53.5c0-4.8-0.7-8.1-2.7-11.9c-4.4-9.1-12.8-15.3-22.4-16.4c-5.8-0.7-11.6,0.5-16.7,3.3V72.2
		c7.4-2.8,12.8-10,12.8-18.4c0-10.9-8.8-19.7-19.7-19.7c-10.9,0-19.7,8.8-19.7,19.7c0,9.5,6.8,17.5,15.8,19.3V101
		c-5.3-3.8-11.7-5.7-18.9-5.3c-9.6,0.6-18,5.6-22.5,13.5c0,0.1-0.1,0.1-0.1,0.2c-4.1,8-6.6,21.1,4.9,38
		C160.5,156.9,172.4,167.8,185.8,176.6z M172.3,106.5c6.9-0.4,12.5,2.4,16.4,7.8c0.1,0.1,0.1,0.2,0.2,0.3c0.3,0.3,0.5,0.6,0.6,0.9
		c0.2,0.3,0.3,0.5,0.5,0.8c0.7,1,1.8,1.7,3.1,2c2.5,0.6,5.1-0.7,6.4-3.1c0.2-0.3,0.8-1,1.5-1.8c4.1-5,9.9-7.5,15.9-6.8
		c6,0.7,11.1,4.5,13.9,10.4c1.2,2.4,1.6,4,1.6,7.1c0,13-12.5,28-37.1,44.5l-0.8,0.6l-2.6-1.7c-12.3-8.1-23.1-17.9-28.8-26.3
		c-6.9-10.2-8.3-18.9-4.3-26.9C161.3,109.8,166.4,106.8,172.3,106.5z M185.6,53.8c0-4.9,4-8.8,8.8-8.8c4.9,0,8.8,4,8.8,8.8
		c0,4.3-3.2,8-7.3,8.7c0,0,0,0,0,0c-0.4,0-0.8,0-1.2,0.1c-0.1,0-0.2,0-0.4,0C189.6,62.7,185.6,58.7,185.6,53.8z"/>
	<path class="st0" d="M297.1,176.6l5.4,3.6c0.9,0.6,2,0.9,3,0.9c1.1,0,2.1-0.3,3.1-0.9l3.8-2.6c28.2-18.9,41.9-36.4,41.9-53.5
		c0-4.8-0.7-8.1-2.6-11.9c-4.3-9.1-12.6-15.3-22.2-16.5c-5.9-0.7-11.7,0.5-16.9,3.3V72.2c7.4-2.8,12.8-10,12.8-18.4
		c0-10.9-8.8-19.7-19.7-19.7s-19.7,8.8-19.7,19.7c0,9.5,6.8,17.5,15.8,19.3V101c-5.3-3.8-11.8-5.7-18.7-5.4
		c-9.7,0.6-18.2,5.6-22.6,13.5c0,0.1-0.1,0.1-0.1,0.2c-4.1,8-6.6,21.1,4.9,38.1C272.1,157.3,283.7,168,297.1,176.6z M283.5,106.5
		c6.8-0.4,12.4,2.4,16.2,7.8c0.1,0.1,0.1,0.2,0.2,0.3c0.3,0.3,0.5,0.6,0.6,0.9c0.2,0.3,0.3,0.5,0.5,0.8c0.7,1,1.8,1.7,3.1,2
		c2.5,0.6,5.1-0.7,6.4-3.1c0.2-0.3,0.8-1,1.5-1.8c4.1-5,10-7.5,16-6.7c6,0.7,11,4.5,13.8,10.4c1.2,2.4,1.6,4,1.6,7.1
		c0,13-12.5,28-37.1,44.5l-0.8,0.5l-2.4-1.6c0,0,0,0-0.1,0c-12.1-7.8-22.9-17.7-29-26.3c-6.9-10.2-8.3-18.9-4.3-26.9
		C272.4,109.8,277.6,106.8,283.5,106.5z M296.7,53.8c0-4.9,4-8.8,8.8-8.8s8.8,4,8.8,8.8c0,4.3-3.2,8-7.3,8.7c0,0,0,0,0,0
		c-0.4,0-0.8,0-1.2,0.1c-0.1,0-0.2,0-0.4,0C300.7,62.7,296.7,58.7,296.7,53.8z"/>
</g>
</svg>
