<?xml version="1.0" encoding="utf-8"?>
<!-- Generator: Adobe Illustrator 27.2.0, SVG Export Plug-In . SVG Version: 6.00 Build 0)  -->
<svg version="1.1" id="Layer_1" xmlns="http://www.w3.org/2000/svg" xmlns:xlink="http://www.w3.org/1999/xlink" x="0px" y="0px"
	 viewBox="0 0 500 500" style="enable-background:new 0 0 500 500;" xml:space="preserve">
<style type="text/css">
	.st0{fill:#808080;}
</style>
<g>
	<path class="st0" d="M460.2,342.9c-0.4-2-1.7-3.5-3.6-3.9c-0.2,0-0.3-0.1-0.5-0.1c-46.2-4.6-67.2-30.3-87.6-55
		c-20.9-25.5-42.5-51.8-90.2-53.9c4.5-8.3,8.9-16.1,22.9-24c0.1,0,0.2-0.1,0.2-0.1c1.1-0.7,2.2-1.4,3.2-2.1c1.8-1.2,3.5-2.3,5.1-3.4
		c0.3,0,0.7,0,1,0c3.2,0,6.7-0.8,10.1-2.3c9.5-4.5,14.4-13.7,11.1-20.9c0,0,0,0,0-0.1c-1.5-3.1-4.3-5.2-7.7-6.3
		c-0.2-1.3-0.5-2.6-0.9-4c0,0,0,0,0-0.1c-1.2-4.7-3.1-10.1-5.8-16.3c-0.6-1.3,3.3-3.5,6.1-5c0.8,5.5,4.1,9.8,8.9,11.3
		c4,1.3,7.6,1.9,10.7,1.9c4.5,0,8-1.3,10.6-3.9c7.2-7.3,3.4-21.5,1-29.2c1.7-4.5,5.4-10,11.3-16.6c0.2-0.3,0.4-0.6,0.6-0.9
		c4.4-8.7,4-17.6-1.1-25c-5.9-8.6-17.2-13.6-28.2-12.6c-10.3,1-18.8,7.1-23.5,16.9c-0.9,0.7-1.3,1.6-1.4,2.4
		c-7.4,11.3-10.1,20.6-8.4,28.3c0.2,0.8,0.4,1.6,0.7,2.3c-0.7,0.4-1.5,0.9-2.3,1.4c-5.8,3.4-10.6,5.9-15.1,4.3
		c-0.3-0.1-0.5-0.2-0.8-0.3c-1.7-0.8-3.4-2.1-5.1-4.3c-3-3.9-4.5-6.7-6.2-10c-2.1-4-4.5-8.5-9.9-15.3c-4.4-5.6-7.9-13.4-11.6-21.7
		c-0.3-0.7-0.6-1.4-1-2.1c0,0,0-0.1,0-0.1c0-0.1-0.1-0.1-0.1-0.2c-1.8-4.1-3.8-8.3-6-12.5c-0.7-2.6-1-5.5-1.3-8.6
		c-0.9-8.6-2.1-19.3-12.7-23c-0.6-0.2-1.2-0.3-1.8-0.2c-4.7,0.5-9.4,1.3-12.2,5.3c-2.5,3.7-2.9,8.7-0.6,19.8c-1.4,0.2-2.6,1-3.2,2.4
		l-8.9,20.1c-0.7-1.6-1.5-3.2-2.3-4.8c1.2-3.4,0.3-6.8-2.5-9.4c-6.4-6-23.8-6.8-35,0.9c-5.9,4.1-14.6,13.9-6.6,33.2
		c0.3,0.7,0.7,1.3,1.3,1.7c3.3,2.5,4,16.8,2.8,23.7c0,0-0.1,0-0.1,0c-0.1,0-0.2,0-0.3,0c-0.1,0-0.2,0-0.2,0c0,0,0,0,0,0
		c-0.1,0-0.1,0-0.2,0c-0.1,0-0.2,0-0.3,0c-0.1,0-0.1,0-0.2,0c-0.1,0-0.2,0-0.3,0.1c-0.1,0-0.2,0-0.3,0.1c-0.1,0-0.1,0-0.2,0.1
		c-0.1,0-0.2,0.1-0.3,0.1c-0.1,0-0.1,0.1-0.2,0.1c0,0,0,0-0.1,0c0,0-0.1,0-0.1,0.1c-0.1,0.1-0.2,0.1-0.3,0.2c-0.1,0-0.1,0.1-0.2,0.1
		c-0.1,0-0.1,0.1-0.2,0.1c-0.1,0.1-0.2,0.1-0.2,0.2c-0.1,0.1-0.1,0.1-0.2,0.2c0,0-0.1,0.1-0.1,0.2c-0.1,0.1-0.1,0.2-0.2,0.3
		c-0.1,0.1-0.1,0.1-0.2,0.2c0,0.1-0.1,0.1-0.1,0.2c-0.1,0.1-0.1,0.2-0.1,0.3c0,0.1-0.1,0.1-0.1,0.2c0,0,0,0,0,0.1
		c0,0.1,0,0.1-0.1,0.2c0,0,0,0.1,0,0.1c-4.9,19-4.5,38.8,1.4,60.4c0,0.2,0.1,0.3,0.2,0.5c17.6,43.1,12.7,47.8,1.9,58.4
		c-4.2,4.1-9.4,9.2-14.5,17.2c-0.2,0.4-0.4,0.8-0.5,1.2c-1.4,5.6,0.8,10.6,5.9,14.3L125,338.7l-66,53.9c-0.6,0.3-1.2,0.5-1.8,0.8
		c-7.2,3.2-15.3,6.9-17.4,16c-0.1,0.6-0.1,1.3,0,1.9c0.7,3,2.6,6.8,4.9,11.6c4.1,8.4,9.1,18.8,10.2,28.8c0.1,0.9,0.5,1.8,1.1,2.4
		c4.9,5,7.7,5.2,13.6,5.2c3.1,0,7.4-0.1,14.4,0.7c0.2,0,0.3,0,0.5,0c0.3,0,0.5,0,0.8-0.1c13.8-2.8,17.4-10.5,16.1-16.7
		c-1.6-8-11.7-15.2-22.9-13c-2.2,0.4-3.7,2.6-3.2,4.8c0.4,2.2,2.6,3.7,4.8,3.2c6.7-1.3,12.5,3,13.3,6.6c0.9,4.2-6.1,6.3-9.1,7
		c-7.1-0.8-11.7-0.7-14.7-0.7c-4.2,0-4.9,0-6.7-1.7c-1.5-11-6.8-22-10.8-30.1c-1.8-3.6-3.3-6.8-4.1-9c1.4-3.9,5.2-6.1,11.2-8.8
		l13.3,26.2c0.6,1.1,1.6,1.9,2.8,2.1c0.3,0.1,0.6,0.1,0.9,0.1c0.9,0,1.8-0.3,2.6-0.9l78.8-64c0.1-0.1,0.2-0.1,0.2-0.2l30.2-28.4
		c-1.7,3.5-3.4,7-5,10.6c-10.5,22.1-21.4,44.9-29.4,65.5c-0.2,0.6-0.3,1.3-0.2,2c1.3,10.4,7.8,18.1,18.9,22.5
		c6.6,2.6,14.2,3.8,21.8,3.8c5.3,0,10.6-0.6,15.5-1.5c-0.9,1.3-1.9,2.6-2.8,3.7c-4.6,6-9.8,12.7-11.3,19.7c-1.1,1.2-1.5,2.6-1.5,3.8
		c0.1,2.7,2.2,4.8,5.6,5.7c1.2,0.3,2.6,0.5,4.1,0.5c8.2,0,19.9-5.6,31.8-21.5l0.4,5.5c0.1,2.2,1.9,3.8,4.1,3.8c0.1,0,0.2,0,0.3,0
		c2.3-0.1,4-2.1,3.8-4.3l-1.3-19.2c0-0.7-0.3-1.3-0.6-1.9c1.1-2.5,2.4-4.9,3.3-6.6c30.9,14.5,58.6,12.3,77.4,7.4
		c8.8-2.3,17.3-5.7,25.3-10l27.9,33.4c0,0,0.1,0.1,0.1,0.1c3.5,3.9,8.4,6.1,13.1,6.1c3,0,5.9-0.9,8.2-2.8c4.8-4,6.6-12.4-2.5-24
		c-0.1-0.2-0.3-0.3-0.4-0.4c-2.1-2-4.3-4-6.4-6c-7.6-7-16.8-15.5-18.2-21.4c7.5-6.6,13.9-14,18.8-22c18.4,10.1,33.4,4.9,43-1.5
		C450.2,374.8,461.4,349.4,460.2,342.9z M323.3,186c-1.3,1.7-3.2,3.4-5.8,4.6c-3.7,1.7-7.3,1.9-9.7,1.1c-1.3-0.4-2.3-1.1-2.7-2
		c-0.5-1.1-0.3-2.4,0.1-3.2c0.2-0.6,0.6-1.2,1-1.9c1.3-2,3.5-3.8,6.2-5c1.5-0.7,3-1.1,4.4-1.4c0.5-0.1,0.9-0.1,1.3-0.2
		c0.3,0,0.6-0.1,0.9-0.1c2.8,0,5,0.9,5.8,2.5c0,0,0,0.1,0,0.1C325.3,182,324.8,184,323.3,186z M348.2,148.9c-2,2-6.6,2-13.1-0.1
		c-1.9-0.6-3.2-2.7-3.3-5.5c0-1.3,0.1-2.6,0.6-4c0,0,0-0.1,0.1-0.1c0.1-0.3,0.2-0.5,0.3-0.8c1.7-4.2,6-8.8,13.9-12.4
		c0,0,0,0.1,0,0.1C351.6,141.2,350.2,146.8,348.2,148.9z M338.4,78.4c8-0.7,16.5,3,20.7,9.1c2.3,3.4,4.3,8.9,0.8,16.3
		c-2.8,3.2-5.2,6.3-7.1,9.1c-0.5-1.1-1.1-2.2-1.8-3.4c-2.8-4.9-6.9-12.4-9.7-24.3c-0.5-2.3-1.9-4-4-4.9c-1.1-0.5-2.5-0.7-4.1-0.6
		C334.7,79,336.5,78.6,338.4,78.4z M320.2,93c6.6-3.7,11.4-5.3,13.2-5.3c2.6,10.8,6.2,18.2,9,23.3c-0.5,0.2-1,0.6-1.4,1.1
		c-10.5,12.2-18.6,14.2-21.6,12.5c-4-2.4-6.4-5.2-7.2-8.6C311,110.5,313.7,102.7,320.2,93z M290.2,134.4c6.7,0,12.8-3.7,16.6-5.9
		c0.8-0.5,1.7-1,2.5-1.5c1.6,1.7,3.6,3.3,6,4.7c1.9,1.1,4.1,1.6,6.4,1.6c1.5,0,3.2-0.3,4.8-0.7c-0.5,0.9-1,1.8-1.3,2.6
		c-0.7,0.5-2.3,1.3-3.5,1.9c-5.3,2.7-15.2,7.7-11.5,16.4c1.3,2.9,2.4,5.6,3.3,8.1c-8.9-3-18.2-6-36-3.4c0.8-9.2,2.9-18.1,9.1-24.2
		C287.8,134.3,289,134.4,290.2,134.4z M259.1,101c5,6.2,7.1,10.2,9.1,14c1.7,3.3,3.5,6.7,7,11.2c1.2,1.6,2.5,2.9,3.8,4
		c-7.7,9.1-9.5,21.5-10,32.7c-0.1,1.3,0.4,2.5,1.4,3.3s2.2,1.2,3.4,0.9c19.6-3.7,28.4-0.7,37.7,2.5c0.8,0.3,1.7,0.6,2.5,0.8
		c-1.7,0.4-3.4,1-5.1,1.8c-2.2,1-4.1,2.3-5.8,3.8c-21.5-2.7-35.3-2.9-44.1-3c-4.9-0.1-9.5-0.1-10.6-0.8c-0.9-0.9-1.8-1.7-2.7-2.6
		c-2.7-9.9,9.6-21.1,18.1-26c0.9-0.5,1.6-1.4,1.9-2.5c0.3-1.1,0.1-2.2-0.4-3.1l-18.8-32.4L237,83l10-4.2
		C250.7,87.1,254.3,94.8,259.1,101z M239,108.9c0.1,0.2,0.1,0.3,0.2,0.5l17,29.3c-7.4,5-16.6,13.7-18.7,23.7
		c-9.8-8.4-16.7-12.9-22.1-15.8l16.9-53.8L239,108.9z M225.6,37.3c0.6-0.9,2.8-1.4,5.3-1.7c4.8,2.2,5.6,7.5,6.5,15.8
		c0.4,3.4,0.8,6.9,1.6,10.2c0,0,0,0,0,0c0,0.1,0.1,0.2,0.1,0.4c0.1,0.1,0.1,0.3,0.2,0.4c0,0,0,0,0,0c1.5,3,3,5.9,4.3,8.9l-9.8,4.1
		l-4-9.6C227.5,57,223.2,40.7,225.6,37.3z M210.3,85.8l10.3-23.2c0.4,1.8,0.9,3.7,1.5,5.7c0,0.2,0.1,0.4,0.2,0.5l5.1,12.2
		l-19.4,61.8c-5-2.3-8.2-4-12.9-9.8v-18.4c0.4,0,0.7,0,1.1,0c4,0,9-1.6,12.4-6.2c3.8-5.3,4.4-12.9,1.7-22.5
		C210.2,86,210.2,85.9,210.3,85.8z M171.1,68.4c8.2-5.7,20.2-4.8,24.1-2.1c-4,0.8-6.6,3.4-9.1,5.8c-2.4,2.4-4.9,4.9-9.3,6.2
		c-2.2,0.7-3.4,3-2.7,5.1c0.5,1.8,2.2,2.9,3.9,2.9c0.4,0,0.8-0.1,1.2-0.2c6.3-1.9,9.8-5.4,12.6-8.2c2.2-2.1,3.4-3.2,4.9-3.6
		c7.3,14.9,8.8,26.2,4.1,30.5c-2.3,2.1-5.5,1.9-6.6,1.5c0,0,0,0-0.1-0.1c0-0.1-0.1-0.1-0.1-0.2c-0.1-0.1-0.2-0.3-0.3-0.4
		c-0.1-0.1-0.1-0.1-0.2-0.2c-0.1-0.1-0.2-0.2-0.4-0.3c-0.1-0.1-0.2-0.1-0.2-0.2c-0.1-0.1-0.3-0.2-0.4-0.2c-0.1,0-0.2-0.1-0.3-0.1
		c-0.2-0.1-0.4-0.1-0.6-0.2c-0.1,0-0.1,0-0.2,0c-0.2,0-0.5-0.1-0.8-0.1c0,0,0,0,0,0c-0.1,0-0.1,0-0.2,0c-0.2,0-0.4,0-0.6,0.1
		c-0.1,0-0.2,0-0.3,0.1c-0.1,0-0.2,0-0.3,0.1c-0.1,0-0.1,0-0.2,0.1c-0.1,0.1-0.3,0.1-0.4,0.2c-0.1,0.1-0.2,0.1-0.3,0.2
		c-0.1,0.1-0.2,0.1-0.3,0.2c-0.1,0.1-0.2,0.2-0.3,0.3c-0.1,0.1-0.2,0.2-0.3,0.3c-0.1,0.1-0.2,0.2-0.3,0.3c-0.1,0.1-0.1,0.2-0.2,0.3
		c-0.1,0.1-0.1,0.2-0.2,0.3c-0.1,0.1-0.1,0.2-0.1,0.4c0,0.1-0.1,0.3-0.1,0.4c0,0.1,0,0.2-0.1,0.4c0,0.1,0,0.3,0,0.4
		c0,0.1,0,0.1,0,0.2v20.2l-15.2-5.6c1.8-8.1,1.7-25.8-4.6-32.2C163,80.6,164.4,73,171.1,68.4z M155.3,263.4
		c4.4-6.8,8.9-11.2,12.9-15.1c13.6-13.3,18.8-21.1,0-67.1c-4.9-18.1-5.7-34.7-2.5-50.7c0.5-0.1,1-0.2,1.4-0.4l21.2,7.8
		c6.2,7.7,10.8,9.9,16.6,12.6c7.2,3.4,17.2,8.1,37.8,27.7c2.9,2.7,7,2.7,16,2.9c8,0.1,20.2,0.3,38.8,2.4c0,0,0,0.1,0,0.1
		c-1.2,3.3-1.1,6.6,0.2,9.6c0.7,1.4,1.6,2.6,2.7,3.6c-0.1,0-0.1,0.1-0.2,0.1c-1,0.6-1.9,1.3-3,1.9l-57.4-4.1l-11.7-6.1l-0.5-0.3
		l-32.5-16.9c-2-1-4.5-0.3-5.5,1.7c-1,2-0.3,4.5,1.7,5.5l30.8,16l4.1,42.9c-1.3,6.3-3,13-5.1,19.8c-11.6,16.3-44.9,19.4-59.9,12.7
		c-0.2-0.1-0.3-0.1-0.4-0.2c-0.1-0.1-0.3-0.2-0.4-0.3c-0.1,0-0.2-0.1-0.3-0.1C155.3,267.2,155.1,264.7,155.3,263.4z M232,211.7
		l-1.2-12.4l3.5,1.8C233.9,204.3,233,207.7,232,211.7z M152.4,358.7l-74.8,60.7l-11.3-22.2l64.6-52.8c0,0,0,0,0,0
		c0.2-0.2,0.4-0.3,0.5-0.5c0,0,0.1-0.1,0.1-0.1c0.1-0.1,0.2-0.3,0.3-0.4c0-0.1,0.1-0.1,0.1-0.2c0,0,0.1-0.1,0.1-0.1l28.6-64.1
		c5.5,1.9,12.3,2.9,19.6,2.9c12,0,25.3-2.8,35.5-8.8c-5.2,14-11.6,28.7-18.4,43.4L152.4,358.7z M230.4,444.2
		c-12,17.1-22.2,20.2-26.7,20.2c0,0-0.1,0-0.1,0c1-5.2,5.9-11.5,9.8-16.6c3.6-4.6,6.5-8.4,7.3-11.8c4.3-1.6,8-3.6,10.7-5.9
		c2.4-2,4.1-4.2,5.1-6.5c0.6,0.4,1.2,0.7,1.9,1C235.1,430.2,231,439.3,230.4,444.2z M382.6,438.1c2,1.9,4.1,3.8,6,5.6
		c5,6.5,5.4,11,3.5,12.5c-1.9,1.5-6.5,1.4-9.8-2.4l-27-32.3c2.7-1.7,5.3-3.5,7.9-5.4C366.6,423.3,374.4,430.5,382.6,438.1z
		 M424.4,382.1c-11.1,6.2-22.8,5.3-34.9-2.5c-0.1,0-0.1-0.1-0.2-0.1c-0.1,0-0.1-0.1-0.2-0.1c-3.7-1.9-7-3.9-10-6
		c-13.1-9.1-20.3-20-26-31c-1.9-3.6-3.6-7.3-5.3-10.9c-7.5-15.9-15.2-32.4-35.5-43.6c-2-1.1-4.5-0.4-5.6,1.6c-1.1,2-0.4,4.5,1.6,5.6
		c5.4,3,9.8,6.4,13.5,10.2c2.5,2.5,4.6,5.1,6.6,7.8c4.8,6.8,8.3,14.3,11.9,21.9c7.9,16.8,16.8,35.7,41.2,49.7
		c-4.7,7.6-10.8,14.6-18.1,20.8c-0.3,0.2-0.6,0.5-0.9,0.8c-4.7,3.9-9.8,7.5-15.3,10.7c-0.1,0-0.2,0.1-0.3,0.2
		c-8.2,4.7-17.1,8.4-26.3,10.8c-17.9,4.7-44.6,6.6-74.2-8c-0.3-0.2-0.6-0.4-1-0.5c-3.4-1.7-6.8-3.6-10.2-5.8
		c-1.4-0.9-3.2-0.8-4.5,0.1c-1.3,0.9-2,2.6-1.7,4.2c0.4,1.9-0.7,4-3.1,6c-9.4,7.8-34.6,11.9-50.8,5.5c-7.9-3.1-12.4-8.1-13.6-14.9
		c7.8-20,18-41.3,28.8-63.9c18.9-39.5,38.4-80.4,44.4-114.2c1.6-9.2,3.4-15.9,4.8-21.3c1.1-4.4,2.1-8.1,2.7-11.8l44.2,3.1
		c-8.1,6.7-11.8,13.5-15.4,20c-1.1,1.9-2,3.7-3.2,5.5c-0.8,1.3-0.8,2.8-0.1,4.1c0.7,1.3,2.1,2.1,3.6,2.1c0.2,0,0.4,0,0.7,0
		c48.2,0,68.6,24.8,90.1,51.1c20.9,25.4,42.4,51.7,89.4,57.6C449.4,354,439.9,373.4,424.4,382.1z"/>
	<path class="st0" d="M244.5,311.4c-2.2-0.5-4.4,0.8-5,3l-19.7,79.7c-0.5,2.2,0.8,4.4,3,5c0.3,0.1,0.7,0.1,1,0.1
		c1.8,0,3.5-1.2,4-3.1l19.7-79.7C248.1,314.2,246.7,312,244.5,311.4z"/>
	<path class="st0" d="M347.7,389.1c0.7,0.4,1.4,0.6,2.2,0.6c1.4,0,2.7-0.7,3.5-1.9c1.2-1.9,0.6-4.4-1.3-5.6c-3-1.9-5.7-3.8-8.2-5.8
		c-13.1-10.5-18.9-22.4-22.4-34.4c-1.1-3.7-1.9-7.4-2.7-11.1c-0.5-2.2-2.6-3.6-4.8-3.2c-2.2,0.5-3.6,2.6-3.2,4.8
		C314.6,351.2,321,372.5,347.7,389.1z"/>
</g>
</svg>
