<?xml version="1.0" encoding="utf-8"?>
<!-- Generator: Adobe Illustrator 27.2.0, SVG Export Plug-In . SVG Version: 6.00 Build 0)  -->
<svg version="1.1" id="Layer_1" xmlns="http://www.w3.org/2000/svg" xmlns:xlink="http://www.w3.org/1999/xlink" x="0px" y="0px"
	 viewBox="0 0 500 500" style="enable-background:new 0 0 500 500;" xml:space="preserve">
<style type="text/css">
	.st0{fill:#808080;}
</style>
<g>
	<path class="st0" d="M445.4,147.8h-13.7v-23.3c0-3-2.5-5.5-5.5-5.5h-46c-3,0-5.5,2.5-5.5,5.5v23.3H366l-31.1-33.9
		c-7.2-8-17.6-16.2-40-16.2h-38c-22.4,0-32.7,8.2-39.9,16.2l-28.5,31v-19.5c0-3-2.5-5.5-5.5-5.5h-56.6c-3,0-5.5,2.5-5.5,5.5v22.4
		h-8.2v-22.4c0-3-2.5-5.5-5.5-5.5H50.6c-3,0-5.5,2.5-5.5,5.5v24.1c-10,3.8-17.2,13.5-17.2,24.9v19.9v174.5v6.7
		c0,14.7,11.9,26.7,26.5,26.7h391c14.7,0,26.7-12,26.7-26.7v-6.7V194.4v-19.9C472.1,159.8,460.1,147.8,445.4,147.8z M385.8,130h35
		v15.9h-35V130z M131.8,130.9h45.6v14h-45.6V130.9z M56.1,130.9h45.6v14H56.1V130.9z M38.9,199.9h86.9c1.3,9.8,9.6,17.3,19.7,17.3
		s18.4-7.6,19.7-17.3h28.3c-16.1,19.4-25.7,44.2-25.7,71.3c0,38.2,19.3,72,48.6,92.2H38.9V199.9z M136.6,197.3c0-3.9,2.5-7.2,6-8.4
		c0.9-0.3,1.9-0.5,3-0.5s2,0.2,3,0.5c3.5,1.2,6,4.5,6,8.4c0,0.9-0.1,1.8-0.4,2.6c-1.1,3.7-4.5,6.3-8.5,6.3s-7.4-2.7-8.5-6.3
		C136.7,199.1,136.6,198.2,136.6,197.3z M208.3,199.9c4-4,8.4-7.7,13-11c16.5-11.7,36.6-18.6,58.3-18.6c21.7,0,41.8,6.9,58.3,18.6
		c4.6,3.3,9,7,13,11c18.3,18.3,29.6,43.5,29.6,71.3c0,41.1-24.6,76.4-59.9,92.2c-12.5,5.6-26.4,8.7-41,8.7c-14.6,0-28.5-3.1-41-8.7
		c-35.3-15.8-59.9-51.1-59.9-92.2C178.7,243.4,190.1,218.2,208.3,199.9z M461.1,375.7c0,8.6-7,15.7-15.7,15.7h-391
		c-8.6,0-15.5-7-15.5-15.7v-1.3h197.4c13.3,5.6,28,8.7,43.4,8.7c15.4,0,30-3.1,43.4-8.7h138.1V375.7z M461.1,363.4H343
		c29.3-20.2,48.6-54,48.6-92.2c0-27.1-9.7-52-25.7-71.3h95.3V363.4z M461.1,188.9H355.4c-19.9-18.4-46.5-29.6-75.7-29.6
		c-29.2,0-55.8,11.2-75.7,29.6h-40.4c-3.2-6.8-10-11.5-18-11.5s-14.8,4.7-18,11.5H38.9v-14.4c0-8.6,7-15.7,15.5-15.7h133.7
		c1.5,0,3-0.6,4-1.8l32.9-35.8c5.9-6.5,13.8-12.6,31.8-12.6h38c18,0,25.9,6.1,31.8,12.6l32.8,35.7c1,1.1,2.5,1.8,4,1.8h81.9
		c8.6,0,15.7,7,15.7,15.7V188.9z"/>
	<path class="st0" d="M279.7,352.3c45.3,0,82.2-36.9,82.2-82.2c0-29.7-15.9-55.8-39.6-70.3c-9.1-5.5-19.3-9.3-30.2-11
		c-4-0.6-8.1-0.9-12.3-0.9c-4.2,0-8.3,0.3-12.3,0.9c-10.9,1.7-21.2,5.5-30.2,11c-23.7,14.4-39.6,40.5-39.6,70.3
		C197.5,315.5,234.4,352.3,279.7,352.3z M268.3,199.9c3.7-0.6,7.5-0.9,11.4-0.9c3.9,0,7.7,0.3,11.4,0.9
		c33.8,5.5,59.8,34.9,59.8,70.3c0,39.2-31.9,71.2-71.2,71.2s-71.2-31.9-71.2-71.2C208.5,234.8,234.4,205.4,268.3,199.9z"/>
	<path class="st0" d="M304.5,129.3h-53.7c-3,0-5.5,2.5-5.5,5.5s2.5,5.5,5.5,5.5h53.7c3,0,5.5-2.5,5.5-5.5S307.5,129.3,304.5,129.3z"
		/>
	<path class="st0" d="M269.1,319.5C269.1,319.5,269.2,319.6,269.1,319.5l6.5,4.2c0.9,0.6,1.9,0.9,3,0.9c1,0,2.1-0.3,3-0.9l4.5-3
		c32.2-21.8,48.6-42.6,48.6-62.1c0-5.4-0.8-9-3-13.5c-4.9-10.4-14.3-17.5-25.2-18.9c-10.3-1.3-20.5,2.5-27.9,10.3
		c-6.6-7.3-15.8-11-26.4-10.6c-11.2,0.7-20.7,6.6-25.7,15.6c-7,13.2-5.1,27.9,5.7,43.7C239.9,296.6,253.4,309.1,269.1,319.5z
		 M236.2,246.9c3.1-5.7,9.3-9.4,16.6-9.9c8.4-0.4,15.2,2.9,19.8,9.6c0.1,0.1,0.2,0.3,0.3,0.4c0.3,0.3,0.5,0.6,0.6,0.8
		c0.9,1.9,2.8,3.1,5,3.1c2.3,0,4.5-1.4,5.5-3.5c0,0,0,0,0-0.1c0.3-0.5,1.2-1.5,1.6-2.1c5-6.1,12.1-9.1,19.5-8.1
		c7.3,0.9,13.4,5.5,16.7,12.7c1.5,3.1,1.9,5.1,1.9,8.8c0,15.3-15.1,33.6-43.7,52.9l-1.5,1l-3.4-2.2c-14.6-9.7-27-21.1-33.9-31.2
		C232.9,266.9,231.2,256.3,236.2,246.9z"/>
</g>
</svg>
