<?xml version="1.0" encoding="utf-8"?>
<!-- Generator: Adobe Illustrator 27.2.0, SVG Export Plug-In . SVG Version: 6.00 Build 0)  -->
<svg version="1.1" id="Layer_1" xmlns="http://www.w3.org/2000/svg" xmlns:xlink="http://www.w3.org/1999/xlink" x="0px" y="0px"
	 viewBox="0 0 500 500" style="enable-background:new 0 0 500 500;" xml:space="preserve">
<style type="text/css">
	.st0{fill:#808080;}
</style>
<g>
	<path class="st0" d="M160.7,167.5c1.5,0,3-0.9,3.8-2.3l0.8-1.6c1-2.1,0.2-4.6-1.9-5.6c-2.1-1-4.6-0.2-5.6,1.9l-0.8,1.6
		c-1,2.1-0.2,4.6,1.9,5.6C159.5,167.3,160.1,167.5,160.7,167.5z"/>
	<path class="st0" d="M164.9,184.1c-2-1.2-4.6-0.5-5.7,1.6l-0.9,1.6c-1.2,2-0.5,4.6,1.6,5.7c0.7,0.4,1.4,0.6,2.1,0.6
		c1.5,0,2.9-0.8,3.7-2.1l0.9-1.6C167.6,187.9,166.9,185.3,164.9,184.1z"/>
	<path class="st0" d="M474,444.5c-46.7-72.6-53.3-130.3-59.2-181.2c-5.4-46.8-10.1-87.4-44.1-127.4l5.3-22.7
		c16.8-12.9,16.8-31.2,11.1-54.5c3.7-4.4,5.6-10.6,7.2-16.2c1-3.4,2-6.6,3.2-8.8c1.1-2,0.4-4.4-1.5-5.6l-13.4-8.1
		c-1.8-1.1-4.2-0.7-5.5,1c-2.9,3.6-5,8.2-7.5,13.4c-2.5,5.2-5.2,11-9.5,17.8c-2,1.5-3.7,2.8-5.4,4c-8.7,6.4-13.8,10.1-20,19.1
		c-6.2-9-11.3-12.7-20-19.1c-1.6-1.2-3.4-2.5-5.4-4c-4.2-6.8-7-12.6-9.5-17.8c-2.5-5.2-4.6-9.7-7.5-13.4c-1.3-1.7-3.7-2.1-5.5-1
		L273.6,28c-1.9,1.2-2.6,3.6-1.5,5.6c1.2,2.2,2.2,5.4,3.2,8.8c1.7,5.6,3.6,11.8,7.2,16.2c-5.7,23.4-5.7,41.7,11.1,54.5l5.3,23
		c-17.6,25.6-27.3,53.2-33.6,82.1l-5.7-21.3c-2.8-15.2-5.2-31.2-7.4-46.7C246.7,112.5,241,73.4,227.7,42c0,0,0,0,0,0
		c0,0,0-0.1,0-0.1c0,0,0-0.1-0.1-0.1c-0.1-0.2-0.2-0.4-0.3-0.5c0-0.1-0.1-0.1-0.1-0.2c-0.1-0.2-0.3-0.3-0.4-0.5c0,0,0-0.1-0.1-0.1
		c-0.2-0.2-0.4-0.3-0.6-0.4c-0.1,0-0.1-0.1-0.2-0.1c-0.1-0.1-0.3-0.2-0.5-0.2c-0.1,0-0.2-0.1-0.2-0.1c0,0-0.1,0-0.1-0.1l-51.9-17.6
		l-0.5-0.9c-0.7-1.2-1.9-1.9-3.2-2.1l-6.8-0.7c-4.1-1-8.3-1.5-12.6-1.5c-0.6,0-1.3,0-1.9,0l-0.1,0c-0.3,0-0.6,0-0.8,0c0,0,0,0,0,0
		L125.9,19c-1.3,0.1-2.5,0.9-3.2,2.1l-1.4,2.5L73.5,39.8c0,0-0.1,0-0.1,0.1c-0.1,0-0.1,0.1-0.2,0.1c-0.2,0.1-0.3,0.2-0.5,0.2
		c-0.1,0-0.1,0.1-0.2,0.1c-0.2,0.1-0.4,0.3-0.6,0.5c0,0,0,0-0.1,0.1c-0.2,0.2-0.3,0.3-0.4,0.5c0,0.1-0.1,0.1-0.1,0.2
		c-0.1,0.2-0.2,0.4-0.3,0.5c0,0,0,0.1-0.1,0.1c0,0,0,0.1,0,0.1c0,0,0,0,0,0c-13.3,31.4-19,70.5-24.6,108.3
		c-2.3,15.5-4.6,31.5-7.4,46.7l-13.5,50.3c-0.6,2.2,0.7,4.5,3,5.1L59,261c0.4,0.1,0.7,0.1,1.1,0.1c1.8,0,3.4-1.1,4-2.9l20.6-64.4
		c-1.2,7.1-2.7,14.8-4.2,22.7c-2.7,14.5-5.8,31-8.2,47c-0.3,2,0.8,3.9,2.7,4.6c3.2,1.2,6.4,2.3,9.6,3.3l1.9,187.2c0,1.9,1.2,3.5,3,4
		c6.1,1.8,12.9,3.4,20.6,3.4c7.2,0,15.2-1.4,24.2-5.2c1.4-0.6,2.4-2,2.5-3.5l10.5-121l8.8,120.9c0.1,1.2,0.7,2.4,1.7,3.1
		c6,4.4,13.2,6.6,21.9,6.6c7,0,14.9-1.5,23.9-4.4c1.7-0.6,2.9-2.2,2.9-4l1.9-185.8c4.8-1.4,9.8-3.1,14.7-4.9c1.9-0.7,3-2.6,2.7-4.6
		c-2.3-15.9-5.4-32.2-8.1-46.6c-1.5-8.1-3-16.1-4.3-23.4l20.7,64.8c0.6,1.8,2.2,2.9,4,2.9c0.4,0,0.7,0,1.1-0.1l19.5-5.3
		c-1.7,12.8-3.1,25.8-4.6,38.9c-5.4,49.9-11,101.4-35.5,150.5c0,0.1-0.1,0.2-0.1,0.3c-0.1,0.1-0.1,0.3-0.2,0.4
		c0,0.1-0.1,0.3-0.1,0.4c0,0.1-0.1,0.3-0.1,0.4c0,0.1,0,0.3,0,0.4c0,0.1,0,0.3,0,0.4c0,0.1,0,0.3,0.1,0.4c0,0.1,0,0.3,0.1,0.4
		c0,0.1,0.1,0.3,0.2,0.4c0,0.1,0.1,0.2,0.2,0.3c0.1,0.2,0.2,0.3,0.3,0.4c0,0.1,0.1,0.1,0.1,0.2c0,0,0,0,0,0c0.2,0.2,0.4,0.5,0.6,0.6
		c0.1,0.1,0.2,0.1,0.2,0.1c0.1,0.1,0.3,0.2,0.4,0.3c0,0,0.1,0,0.1,0.1c0,0,0.1,0,0.1,0c6.9,3.5,15.4,4.3,24.5,5.1
		c12.9,1.2,26.2,2.4,36.6,11.2c14.6,12.4,26.9,16.4,37.2,16.4c10.5,0,19.1-4.1,26.4-7.6c3.1-1.5,6-2.9,8.8-3.8
		c10.6-3.7,25.2-2.3,38.1-1.1c10.5,1,20,1.8,26.8,0c0.5-0.1,0.9-0.2,1.3-0.4c2.8-0.9,5-2.3,6.6-4.5c9.1-11.9,22.8-12.1,32.7-12.2
		c6.9-0.1,13.4-0.2,14.5-6.2C474.8,446.4,474.6,445.3,474,444.5z M291.2,58.4c0.4-1.5-0.1-3.1-1.3-4.2c-3.2-2.8-5-8.9-6.6-14.3
		c-0.7-2.4-1.4-4.6-2.2-6.7l6.8-4.1c1.4,2.4,2.8,5.3,4.4,8.7c2.5,5.3,5.6,11.9,10.4,19.3c0.3,0.4,0.6,0.8,1,1.1
		c2.2,1.7,4.2,3.1,6.1,4.5c10,7.3,14.1,10.3,21.4,22.3c0,0,0.1,0.1,0.1,0.1c0.1,0.1,0.2,0.2,0.3,0.4c0.1,0.1,0.2,0.2,0.3,0.3
		c0.1,0.1,0.2,0.2,0.3,0.3c0.1,0.1,0.2,0.2,0.4,0.3c0,0,0.1,0.1,0.1,0.1c0.1,0,0.1,0.1,0.2,0.1c0.1,0.1,0.3,0.1,0.4,0.2
		c0.1,0.1,0.2,0.1,0.4,0.1c0.1,0,0.3,0.1,0.4,0.1c0.1,0,0.3,0,0.4,0.1c0.1,0,0.3,0,0.4,0s0.3,0,0.4,0c0.1,0,0.3,0,0.4-0.1
		c0.1,0,0.3-0.1,0.4-0.1c0.1,0,0.3-0.1,0.4-0.1c0.1-0.1,0.3-0.1,0.4-0.2c0.1,0,0.1-0.1,0.2-0.1c0,0,0.1-0.1,0.1-0.1
		c0.1-0.1,0.2-0.2,0.4-0.3c0.1-0.1,0.2-0.2,0.3-0.3c0.1-0.1,0.2-0.2,0.3-0.3c0.1-0.1,0.2-0.2,0.3-0.4c0,0,0.1-0.1,0.1-0.1
		c7.2-11.9,11.4-14.9,21.4-22.3c1.8-1.3,3.8-2.8,6.1-4.5c0.4-0.3,0.8-0.7,1-1.1c4.8-7.5,7.9-14.1,10.4-19.3c1.6-3.4,3-6.3,4.4-8.7
		l6.8,4.1c-0.8,2.1-1.5,4.4-2.2,6.7c-1.6,5.4-3.5,11.5-6.6,14.3c-1.2,1-1.7,2.7-1.3,4.2c6.8,26.3,4.4,39.5-8.6,48.8
		c-0.8,0.6-1.4,1.5-1.7,2.5l-6.1,26.3c0,0.1,0,0.2,0,0.3c0,0.2-0.1,0.3-0.1,0.5c0,0.1,0,0.1,0,0.2h0c0,0.1,0,0.1,0,0.2
		c0,0.1,0,0.3,0,0.4c0,0.1,0.1,0.3,0.1,0.4c0,0.1,0.1,0.3,0.1,0.4c0,0.1,0.1,0.3,0.2,0.4c0.1,0.1,0.1,0.2,0.2,0.4
		c0.1,0.1,0.2,0.3,0.3,0.4c0.1,0.1,0.1,0.2,0.2,0.2c33.6,38.6,38.2,78.4,43.5,124.5c5.9,50.9,12.5,108.5,58,180.8
		c-1.4,0.1-3,0.1-4.4,0.1c-10.3,0.2-27.7,0.4-39.3,15.6c-0.2,0.3-0.5,0.5-0.8,0.7c-21.1-22.8-21.9-30.5-27.4-79.6l-0.8-7.1
		c-0.3-2.3-2.3-4-4.6-3.7c-2.3,0.3-4,2.3-3.7,4.6l0.8,7.1c5.3,47.8,6.5,58.4,26.1,80.5c-5.1,0-11.2-0.5-16.9-1
		c-13.8-1.3-29.4-2.7-41.7,1.6c-3.2,1.1-6.4,2.6-9.7,4.2c-14.3,6.8-29.2,13.9-54.5-7.6c-12.4-10.5-27.7-11.9-41.3-13.1
		c-5.5-0.5-10.8-1-15.3-2.1c31.3-27.7,35.8-56.8,42.4-99.6c2.3-15.3,5-32.7,9.2-52.7c0.5-2.3-1-4.5-3.2-5c-2.3-0.5-4.5,1-5,3.2
		c-4.3,20.2-6.9,37.7-9.3,53.1c-5.7,37.2-9.5,62.1-29.9,85C253,385,258,339.5,262.8,295.3c1.6-14.3,3.1-28.4,5-42.2
		c0.2-1.5,0.4-3,0.7-4.5c0.1-0.5,0.2-1,0.2-1.5c0.5-3.4,1.1-6.8,1.6-10.2c6-34.8,15.7-67.7,36.6-97.5c0,0,0-0.1,0.1-0.1
		c0.1-0.1,0.2-0.3,0.2-0.4c0.1-0.1,0.1-0.2,0.2-0.3c0.1-0.1,0.1-0.3,0.1-0.4c0-0.1,0.1-0.3,0.1-0.4c0-0.1,0-0.3,0-0.4
		c0-0.1,0-0.3,0-0.4c0,0,0,0,0,0c0-0.1,0-0.3,0-0.4c0-0.2,0-0.3-0.1-0.5c0,0,0-0.1,0-0.1l-6.1-26.3c-0.2-1-0.8-1.9-1.7-2.5
		C286.8,98,284.5,84.8,291.2,58.4z M209.3,214.9C209.3,214.9,209.3,214.9,209.3,214.9c0,0-0.1,0-0.1,0c-3.2,0.7-5.9,1.2-8.4,1.5
		c-8.9,1.1-13.2-0.4-15.2-2.2c-1.7-1.5-2.7-3.9-2.8-7.2l18.1-2.9l6.1-1l1.3-0.2l1,8.4l0.4,3.5C209.6,214.9,209.5,214.9,209.3,214.9z
		 M204.8,195.1l-26.8,4.3c-1.9,0.3-3.3,1.9-3.5,3.8c0,0.1,0,0.3,0,0.4c-0.6,7.6,1.3,13.4,5.6,17.1c3.6,3.1,8.6,4.6,15.2,4.6
		c1.7,0,3.5-0.1,5.4-0.3c2.6-0.3,5.5-0.7,8.5-1.4c0.5-0.1,1-0.2,1.5-0.3c2.2,12,4.6,25,6.6,37.8c-2.9,1-5.8,2-8.6,2.9
		c-2.9,0.9-5.7,1.7-8.5,2.3c-9.7,2.2-18.4,2.3-25.7-1.8c-9.7-5.4-16.4-18-20.7-38.6c-0.1-2.9-0.3-5.7-0.5-8.5
		c-0.3-4.6-0.7-9.2-1.2-13.9c0-0.4-0.1-0.7-0.1-1.1c0-0.5-0.1-0.9-0.1-1.4c-0.2-1.8-0.4-3.6-0.5-5.4c0-0.2,0-0.4-0.1-0.6
		c-0.7-6.9-1.2-14-1.5-21.7c0-1.3-0.1-2.7-0.1-4c-0.1-6.1,0-12.5,0.3-19.6c0.6-0.3,1.2-0.7,1.6-1.3c0.3-0.5,0.7-0.9,1-1.4
		c6.4-9.1,12.5-17.9,17.9-26.6c0.3,0,0.5-0.1,0.8-0.2l29.7-9.5c2.2-0.7,3.4-3.1,2.7-5.3c-0.7-2.2-3.1-3.4-5.3-2.7l-21.8,7
		c6.9-12.8,11.8-25.5,13.7-38.8c0.2-1.3-0.2-2.6-1.1-3.5l-9.4-9.9l6.7-3.8c1-0.6,1.7-1.5,2-2.6c0.3-1.1,0.1-2.2-0.4-3.2l-8.6-15
		l40.2,13.7c1.6,26.4-5.4,59.4-12.3,91.3c-1.4,6.6-2.9,13.5-4.2,20.2c-2.2,6.3-0.9,18.2,2.3,36.8L204.8,195.1z M81.2,261.3
		c1-6.3,2-12.7,3.2-19c1.1-6.4,2.3-12.6,3.4-18.6c1.7,0.3,3.3,0.6,4.9,0.9c3.1,0.5,5.9,0.7,8.4,0.7c6.7,0,11.7-1.6,15.4-4.7
		c4.3-3.7,6.2-9.4,5.6-17c0-0.2,0-0.3,0-0.5c-0.2-1.9-1.6-3.5-3.5-3.8l-25.5-4c0-0.1,0-0.1,0-0.2c3.2-18.6,4.4-30.4,2.3-36.7
		c-1.4-6.9-2.9-14-4.4-20.9c-6.8-31.7-13.8-64.5-12.2-90.7l36.1-12.3l-7.7,13.3c-1.2,2-0.5,4.6,1.5,5.7l6.7,3.8l-9.4,9.9
		c-0.9,0.9-1.3,2.2-1.1,3.5c3.6,26,19.4,50.4,37,75c-1.3,19.8-0.2,35.4,1,49.2c0,0.1,0,0.1,0,0.2c0.2,2.3,0.4,4.5,0.6,6.7
		c0.1,0.5,0.1,1.1,0.2,1.6c0,0,0,0,0,0c0.5,4.8,0.9,9.4,1.2,14.1c0,0,0,0,0,0c-0.1,2.8-0.2,5.7-0.3,8.5
		c-4.2,20.5-10.9,33.1-20.6,38.6c-8.6,4.8-19.2,3.8-31,0.5c-2.8-0.8-5.6-1.7-8.5-2.7C83.5,262.1,82.4,261.7,81.2,261.3z M92.5,203.6
		l21.3,3.4c-0.1,3.3-1.1,5.6-2.8,7.1c-2.2,2-7.3,3.7-18.4,1.8c-1-0.2-2.1-0.4-3.2-0.6c-0.9-0.2-1.8-0.4-2.7-0.6
		c-0.1,0-0.3,0-0.4-0.1l1.4-11.9l3.9,0.6L92.5,203.6z M34.6,245.6l12.4-46.4c0-0.1,0.1-0.2,0.1-0.3c2.9-15.4,5.2-31.5,7.5-47.2
		c4.2-28.5,8.5-57.8,16.1-83.6c1.7,22.4,6.9,47.1,12.1,71.2c1.4,6.6,2.9,13.4,4.2,20l-20.6,64.4L53,220.1c-2.2-0.6-4.5,0.7-5.1,3
		c-0.6,2.2,0.7,4.5,3,5.1l13,3.5l-6.4,20.1L34.6,245.6z M170.1,59.4l11.7,12.3c-3.4,20.8-15.3,40.7-30.1,62
		c-0.1,0.2-0.3,0.4-0.4,0.6c0.1-0.5,0.2-1,0.3-1.5c0.8-3.4,2-8.1,3.2-12.7c5.5-20.7,14.5-54.3,14-88.9l9.9,17.3l-7.7,4.4
		c-1.1,0.6-1.9,1.8-2.1,3C168.8,57.2,169.2,58.5,170.1,59.4z M148,25.2l12.3,1.2c1.4,32.9-6.7,65.7-12.4,87.2
		c-4.5-20.8-11.1-53.5-9.7-86.7C141.4,26,144.7,25.4,148,25.2z M129.7,29.5c-1.1,34.8,6.1,68.2,10.5,88.6c1.2,5.5,2.3,10.9,2.9,14.3
		c0,0.1-0.1,0.3-0.1,0.4c-14.1-20.3-26.1-40.5-29.5-61.2l11.6-12.3c0.9-0.9,1.3-2.2,1.1-3.5c-0.2-1.3-0.9-2.4-2.1-3l-7.6-4.4
		l10.4-18L129.7,29.5z M248.7,222.5c-0.6-2.2-2.9-3.6-5.1-3l-11.6,3.1L211.7,159c1.3-6.4,2.7-13,4.1-19.4
		c5.2-24.3,10.5-49.2,12.1-71.8c7.6,25.8,11.9,55.1,16,83.6c2.3,15.6,4.7,31.8,7.5,47.2c0,0.1,0,0.2,0.1,0.3l10.2,38.3
		c-0.5,3-1,6.1-1.5,9.2l-19.1,5.2l-6.7-21l11.2-3C248,227.1,249.3,224.8,248.7,222.5z M198.3,455.3c-4.2,1.3-8.2,2.1-11.8,2.6
		c0.2-0.5,0.3-1,0.3-1.6l-2-140.5c0-2.3-1.9-4.2-4.2-4.2c0,0,0,0-0.1,0c-2.3,0-4.2,2-4.2,4.3l2,140.5c0,0.7,0.2,1.4,0.5,1.9
		c-5.5-0.2-10.2-1.5-14.2-3.9l-12.5-171.7c0,0,0-0.1,0-0.1c0-0.2-0.1-0.3-0.1-0.5c0-0.1,0-0.2-0.1-0.4c0-0.1-0.1-0.3-0.2-0.4
		c0-0.1-0.1-0.2-0.1-0.3c-0.1-0.1-0.2-0.3-0.3-0.4c-0.1-0.1-0.1-0.2-0.2-0.3c-0.1-0.1-0.2-0.2-0.3-0.4c-0.1-0.1-0.1-0.2-0.2-0.2
		c-0.1-0.1-0.3-0.2-0.4-0.3c-0.1-0.1-0.2-0.1-0.3-0.2c-0.1-0.1-0.3-0.1-0.4-0.2c-0.1-0.1-0.2-0.1-0.4-0.2c-0.1,0-0.2-0.1-0.4-0.1
		c-0.2,0-0.3-0.1-0.5-0.1c0,0-0.1,0-0.1,0c-0.1,0-0.2,0-0.4,0c-0.1,0-0.2,0-0.3,0c0,0,0,0-0.1,0c-0.2,0-0.4,0.1-0.6,0.1
		c-0.1,0-0.2,0-0.2,0.1c-0.2,0.1-0.4,0.1-0.5,0.2c-0.1,0-0.1,0.1-0.2,0.1c-0.2,0.1-0.3,0.2-0.5,0.3c-0.1,0-0.1,0.1-0.2,0.1
		c-0.1,0.1-0.3,0.2-0.4,0.4c-0.1,0.1-0.1,0.1-0.2,0.2c-0.1,0.1-0.2,0.3-0.3,0.4c-0.1,0.1-0.1,0.2-0.2,0.3c-0.1,0.1-0.1,0.3-0.2,0.4
		c-0.1,0.1-0.1,0.2-0.2,0.4c0,0.1-0.1,0.3-0.1,0.4c0,0.1-0.1,0.3-0.1,0.5c0,0,0,0.1,0,0.1l-14.9,171.2c-4.9,1.9-9.5,2.9-13.8,3.4
		c0.1-0.3,0.1-0.5,0.1-0.8l3.8-167.6c0.1-2.3-1.8-4.3-4.1-4.3c-2.3,0-4.3,1.8-4.3,4.1l-3.8,167.6c0,0.4,0,0.7,0.1,1.1
		c-4.1-0.3-8-1.1-11.6-2.1l-1.9-181.4c5.9,1.5,11.7,2.5,17.3,2.5c6.3,0,12.2-1.2,17.7-4.4c9.3-5.2,16.3-15.2,21.1-30.3
		c4.9,15,11.8,24.9,21.1,30.1c5.5,3.1,11.4,4.3,17.7,4.3c3.9,0,7.9-0.5,12.1-1.3L198.3,455.3z"/>
	<path class="st0" d="M383.1,357.3c0.6,0.3,1.2,0.4,1.9,0.4c1.5,0,3-0.9,3.8-2.3l0.8-1.6c1-2.1,0.2-4.6-1.9-5.6
		c-2.1-1-4.6-0.2-5.6,1.9l-0.8,1.6C380.1,353.7,381,356.3,383.1,357.3z"/>
</g>
</svg>
