<?xml version="1.0" encoding="utf-8"?>
<!-- Generator: Adobe Illustrator 27.2.0, SVG Export Plug-In . SVG Version: 6.00 Build 0)  -->
<svg version="1.1" id="Layer_1" xmlns="http://www.w3.org/2000/svg" xmlns:xlink="http://www.w3.org/1999/xlink" x="0px" y="0px"
	 viewBox="0 0 500 500" style="enable-background:new 0 0 500 500;" xml:space="preserve">
<style type="text/css">
	.st0{fill:#808080;}
</style>
<g>
	<path class="st0" d="M436.7,390.9c-0.2-13.9-0.6-31.7-1.1-50c-0.6-22.6-2.4-78.4-5.3-109.3c-1.6-16.8-2.6-34-3.6-50.6
		c-3.3-55.2-6.2-102.9-27.6-117.4c0,0-0.1,0-0.1-0.1c-0.1-0.1-0.3-0.2-0.5-0.2c-0.2-0.1-0.4-0.2-0.5-0.3c0,0-0.1,0-0.1-0.1
		c-10.6-3.8-23.4-5.4-36.9-7.1c-27.4-3.5-55.6-7.1-70.7-28.3c-0.1-0.1-0.1-0.2-0.2-0.2c-0.1-0.1-0.2-0.2-0.2-0.3
		c-0.2-0.2-0.3-0.3-0.5-0.5c-0.1-0.1-0.1-0.1-0.2-0.2c-0.3-0.2-0.5-0.4-0.8-0.5c0,0,0,0,0,0c-18.7-9.2-44.3-17.5-76.9,0c0,0,0,0,0,0
		c0,0-0.1,0-0.1,0c-0.1,0-0.1,0.1-0.1,0.1c-0.2,0.1-0.4,0.3-0.6,0.4c-0.1,0.1-0.2,0.2-0.3,0.2c-0.2,0.1-0.3,0.3-0.4,0.4
		c-0.1,0.1-0.2,0.2-0.2,0.3c0,0-0.1,0.1-0.1,0.1c-14.9,21.2-43.2,24.8-70.6,28.3c-13.5,1.7-26.3,3.3-36.9,7.1c0,0-0.1,0-0.1,0.1
		c-0.2,0.1-0.4,0.2-0.7,0.3c-0.1,0.1-0.3,0.1-0.4,0.2c0,0-0.1,0-0.1,0c-21.4,14.5-24.2,62-27.5,117c-1,16.8-2,34.1-3.6,51
		c-2.8,29.4-4.5,81.1-5.3,109.2c-0.5,17.9-0.9,35.7-1,49.9C63,414,63,414,64.9,415.9c3.2,3.3,8,4.5,14.1,4.5
		c9.5,0,21.9-3.2,34.9-6.9c2.2-0.6,4.7-1.3,6.2-1.7c2.1,0.4,4.2-0.4,5.5-2.2c0,0,0,0,0,0c4.1-5.8,4.4-22.4,4.9-59.3
		c0.5-34.1,1.1-78.4,6.7-115.2c3.8,28.3,6.7,77.8,7.5,108c0.4,14.3-4.3,39.3-9.3,65.8c-2.1,10.9-4.2,22.2-6.1,33.3
		c-5.8,31.9,10.8,36.1,23,39.1l1.6,0.4c0.1,0,0.3,0.1,0.4,0.1c10.1,1.7,19.5,2.6,28,2.6c20.4,0,36.4-4.9,48.5-14.6
		c8.5-6.9,14.6-15.7,19-26c4.4,10.2,10.5,19.1,19,25.9c12.1,9.8,28.2,14.7,48.6,14.7c8.6,0,17.9-0.9,28-2.6c0.1,0,0.3-0.1,0.4-0.1
		l1.6-0.4c12.1-3,28.8-7.2,22.8-39c-0.7-4.2-1.4-8.3-2.1-12.5c-5.5-33.1-11.2-67.3-10.7-85.4c0-1.3,0.1-3.1,0.1-5.4
		c1.3-55,3.4-85.9,5.3-103.3c7,39.3,7.7,79.9,8.4,116.6c0.4,19.4,0.7,37.8,1.9,54c-0.4,1.4-0.3,3.3,1.3,5.8
		c0.5,0.8,9,13.4,28.5,13.4c8.2,0,18.2-2.2,30.4-8.4c0.1,0,0.2-0.1,0.2-0.1C437,415,437,415,436.7,390.9z M345,470.8l-1.5,0.4
		c-31,5.2-53.1,1.9-67.8-9.9c-10.1-8.2-16.3-20.2-20.2-34.6c-2.9-10.8-4.6-23-5.6-35.9c-0.9-10.5-1.3-21.5-1.8-32.7
		c-0.2-3.9-0.3-7.8-0.5-11.6l-2.9-83c0.4-0.3,0.8-0.6,1.2-0.9c1.4-1.5,2.7-3,4-4.5c1.6-1.8,3.1-3.5,4.6-5.2c0.9-1,1.7-2,2.6-3
		c1.8-2.2,3.6-4.3,5.4-6.5c31.6-38.5,50.1-72.7,72.7-114.5c1.9-3.6,3.9-7.2,5.9-11c0.8-1.5,0.9-3.2,0.2-4.7c-0.7-1.5-2-2.7-3.6-3.1
		l-19.1-5.2l13.1-7.4c2.1-1.2,3.1-3.6,2.6-6c-3.4-14.3-3.9-24.7-3.9-29.5c9.7,2.1,19.7,3.4,29.2,4.6c10.5,1.3,20.5,2.6,28.9,4.8
		c-27.2,60.3-35.4,97.1-30.9,137.9c-4.2,8.3-8.5,34.1-10.7,129.3c-0.1,2.3-0.1,4.1-0.1,5.4c-0.6,19.2,5,52.4,10.9,87.5
		c0.7,4.2,1.4,8.3,2.1,12.6C363.8,466.1,356.7,467.8,345,470.8z M291.6,44.8c8.1,6.9,17.8,11.3,28.1,14.4c-0.1,1.8-0.1,5.8,0.4,11.6
		c0.4,5.1,1.3,11.5,2.9,19.2l-14.2,8.1l-6.8,3.9c-1.9,1.1-3,3.2-2.7,5.4c0.3,2.1,1.8,3.9,3.8,4.5c0,0,0.1,0,0.1,0l25.2,6.8
		c-0.9,1.7-1.8,3.3-2.7,5c-22.1,40.9-39.1,72.5-67.5,107.8c-2.6,3.2-5.2,6.4-8,9.7c-0.1,0.1-0.2,0.2-0.2,0.3
		c-0.1,0.1-0.2,0.3-0.3,0.4c-0.4,0.5-0.8,1-1.2,1.4l1-2.5l0.3-0.8l4.2-10.1c0.6-1.7,1.2-3.5,1.8-5.2
		C284.2,143.5,291.7,91.7,291.6,44.8z M280.6,34.2c1.2,46.2-4.3,95.5-30.6,174c-26.5-78.7-31.9-128-30.8-174.1
		C239.6,23.9,258.3,23.9,280.6,34.2z M208.2,44.9c-0.1,46.7,7.4,98.4,36,179.9c-0.8,2.2-1.6,4.5-2.4,6.8
		c-28.2-35.2-45.6-67.3-66.6-106.1c-1.2-2.2-2.4-4.5-3.7-6.8l25.2-6.8c2.1-0.6,3.7-2.4,4-4.5c0.3-2.2-0.8-4.3-2.7-5.4L177.1,90
		c3.4-16.3,3.3-27.3,3.1-30.7C190.5,56.2,200.1,51.7,208.2,44.9z M116.6,403.5C116.6,403.5,116.6,403.5,116.6,403.5
		C116.6,403.5,116.6,403.5,116.6,403.5L116.6,403.5z M224.1,461.3c-14.6,11.8-36.8,15-67.7,9.9l-1.4-0.4c-11.8-2.9-19-4.7-14.9-26.7
		c1.9-11,4-22.2,6-33.1c5.1-27.1,9.9-52.6,9.5-68.1c-0.2-8.2-1.4-38.6-3.6-68.7c-4.4-59-9.2-64.6-11.2-67.1c0,0,0,0-0.1-0.1
		c-0.1-0.2-0.3-0.3-0.5-0.4c-0.1-0.1-0.2-0.2-0.3-0.3c-0.1-0.1-0.3-0.2-0.4-0.3c-0.2-0.1-0.3-0.2-0.5-0.3c-0.1-0.1-0.2-0.1-0.3-0.1
		c-0.2-0.1-0.5-0.2-0.7-0.3c0,0,0,0-0.1,0c-0.1,0-0.2,0-0.3,0c-0.3-0.1-0.5-0.1-0.8-0.1c-0.1,0-0.2,0-0.3,0c-0.3,0-0.5,0-0.8,0
		c-0.1,0-0.1,0-0.2,0c-0.3,0.1-0.6,0.1-0.9,0.2c0,0-0.1,0-0.1,0c-0.3,0.1-0.6,0.2-0.9,0.4c0,0,0,0,0,0c-0.2,0.1-0.5,0.3-0.7,0.5
		c-0.3,0.3-0.6,0.6-0.8,0.9c0,0,0,0-0.1,0.1c-0.2,0.2-0.3,0.5-0.5,0.8c0,0.1-0.1,0.1-0.1,0.2c-0.1,0.3-0.2,0.6-0.3,0.9
		c0,0,0,0,0,0.1c0,0,0,0,0,0c-10.3,41.1-11.1,98.8-11.7,140.9c-0.3,20.6-0.6,43.6-2.3,51.2c-1.7,0.4-3.8,1-6.5,1.7
		c-23.8,6.8-33.3,7.3-36.8,6c-0.3-17.8,1.9-129.2,6.3-176.6c1.6-17.1,2.7-34.6,3.7-51.4c2.7-45.6,5.3-88.8,18.6-104.8
		c1.1,1.7,2.2,3.3,3.3,4.8c10.5,15.2,17.4,25.2,22.8,93.1c0.2,3,2.8,5.2,5.8,5c3-0.2,5.2-2.9,5-5.8c-5.7-70.7-13.7-82.3-24.7-98.3
		c-0.9-1.3-1.7-2.5-2.6-3.9c8.3-2.1,17.9-3.3,28-4.6c9.5-1.2,19.5-2.5,29.2-4.6c0,4.8-0.5,15.2-3.7,29.5c-0.5,2.3,0.5,4.7,2.6,5.9
		l13,7.4l-19.1,5.2c-1.6,0.4-2.9,1.6-3.6,3.1c-0.7,1.5-0.6,3.3,0.2,4.7c2.4,4.4,4.7,8.6,6.9,12.8c22.3,41.1,40.6,74.8,71.8,112.8
		c-1.1,3-2.3,6.1-3.5,9.3c-0.3,0.7-0.4,1.4-0.4,2.1l3.2,92.1c0.2,3.9,0.4,7.8,0.5,11.7c1.1,24.3,2.1,47.9,7,68.1
		C240.4,441.1,234.3,453.1,224.1,461.3z M426,408.7c-27,12.7-38.9,1.5-41.7-1.9c-1.3-16.2-1.7-35-2-54.8
		c-0.8-44.5-1.7-94.9-13.7-142.3c-4.5-38.9,3.2-74.2,29.3-132.4c12.8,16.6,15.4,59.4,18.1,104.4c1,16.7,2.1,34,3.7,51
		C423.9,279.7,426.3,389.5,426,408.7z"/>
	<path class="st0" d="M275,293.9c-3,0-5.4,2.4-5.4,5.4v2.6c0,3,2.4,5.4,5.4,5.4c3,0,5.4-2.4,5.4-5.4v-2.6
		C280.4,296.3,278,293.9,275,293.9z"/>
	<path class="st0" d="M275,337.2c-3,0-5.4,2.4-5.4,5.4v2.6c0,3,2.4,5.4,5.4,5.4c3,0,5.4-2.4,5.4-5.4v-2.6
		C280.4,339.6,278,337.2,275,337.2z"/>
</g>
</svg>
