<?xml version="1.0" encoding="utf-8"?>
<!-- Generator: Adobe Illustrator 27.2.0, SVG Export Plug-In . SVG Version: 6.00 Build 0)  -->
<svg version="1.1" id="Layer_1" xmlns="http://www.w3.org/2000/svg" xmlns:xlink="http://www.w3.org/1999/xlink" x="0px" y="0px"
	 viewBox="0 0 500 500" style="enable-background:new 0 0 500 500;" xml:space="preserve">
<style type="text/css">
	.st0{fill:#808080;}
</style>
<g>
	<path class="st0" d="M451.4,306.8c-2.1-0.9-4.4-0.1-5.6,1.6l-1-98.4c0-0.6-0.1-1.2-0.4-1.8c0.3-7.8-9.3-13.1-31.9-18
		c-1.9-0.4-3.7,0.4-4.8,1.8l-0.9-85.6c0-0.8-0.2-1.5-0.6-2.1c-0.4-6.1-7.2-12.3-48.4-17.5c-20.5-2.6-45.8-4.3-73.4-5.1
		c3.4-3.8,6.6-7.4,9.2-10.7c10.4-12.9,19.6-28.2,9.8-44.2c-6.2-10.2-17.3-16.2-28.2-15.3c-5.8,0.5-15.6,3.2-23.4,15.6
		c-8.2-12.8-17.8-15.5-23.3-15.8c-10.2-0.7-20.4,5.1-26.6,15.2c-9.8,16.2-0.2,33.1,9.3,46c1.5,2.1,2.8,3.9,4.1,5.6
		c0.9,1.3,1.8,2.4,2.6,3.6c-28.2,0.8-54.1,2.5-75,5.2c-42.5,5.3-48.4,11.8-48.4,18.1c0,0.2,0,0.3,0,0.5c0,0,0,0.1,0,0.1l-0.9,83.4
		c-33.1,6.2-38.3,12.9-38.4,18.8c-0.1,0.3-0.1,0.7-0.1,1l-0.6,58.1c-0.2,0.6-0.2,1.3-0.1,2c0,0.1,0,0.2,0.1,0.3l-0.5,42.9l-0.2,16.3
		c0,1.1,0.3,2,0.9,2.8c0.5,1.1,1.4,2.1,2.7,2.6c38.7,15.1,113.7,18.7,170,19c1.6,0,3.2,0,4.8,0c1.1,0,2.3,0,3.4,0c0.5,0,0.9,0,1.4,0
		c9.4,0,18.1-0.1,25.9-0.2c1.6,0,3.2-0.1,4.8-0.1c1.6,0,3.2-0.1,4.8-0.1c1.9,0,3.7-0.1,5.5-0.1c39.9-1.1,79.3-3.5,111-6.8
		c50-5.2,53.9-9.8,55.5-11.7c1-1.2,1.5-2.5,1.5-3.9c0-0.1,0-0.1,0-0.2l0-0.2l-0.2-15.4c0.5,0.7,1.1,1.2,2,1.5
		c14.1,5.8,21.8,12.1,21.3,17.3c-0.9,8.3-21.9,21.4-77.9,31.1c-34.6,6-76.1,9.4-118.7,10.3c-1.6,0-3.2,0.1-4.8,0.1
		c-1.6,0-3.2,0.1-4.8,0.1c-8.6,0.1-17.3,0.1-25.9,0c-1.6,0-3.2,0-4.8-0.1c-1.6,0-3.2-0.1-4.8-0.1c-41-0.9-81.1-4-115-9.6
		C54,355,32,341.6,31,333c-0.6-5,6.4-11,19.2-16.6c1.8-0.8,2.9-2.5,2.9-4.4c0-0.6-0.1-1.3-0.4-1.9c-1.1-2.4-3.9-3.5-6.3-2.5
		c-17.8,7.7-26.1,16.7-24.9,26.6c2.6,21.2,50.1,33.4,89.4,39.9c34.9,5.7,75.3,9,116.6,9.9v57.7c-0.2,0-0.4,0-0.7,0
		c-15.6,0.8-66.9,4.6-74.2,19.3c-1.5,3.1-1.3,6.4,0.7,9.3c8.6,12.9,55.6,18.6,96.5,18.6c0.8,0,1.6,0,2.4,0
		c32.2-0.2,88.5-4.7,95.4-20.3c1.2-2.8,0.9-5.9-0.8-8.6c-8.6-13.6-55.3-17.3-74.4-18.3v-57.7c42.9-0.9,84.8-4.4,120.4-10.6
		c37.8-6.5,83.4-18.6,85.7-39.4C479.6,323.8,470.5,314.6,451.4,306.8z M63.5,325.8l0.2-13.8l0.2-14.3c2.6,3.9,5.7,6.3,9.3,7.2
		c11.7,3.1,22.7-10.2,34.4-24.3c1.5-1.8,3-3.7,4.5-5.4c0.1-0.1,0.2-0.3,0.3-0.4c3.1-4.7,7.8-10.3,12.2-10.3c0,0,0,0,0,0
		c5.9,0,12.7,9.9,18.6,18.6l0.7,1c6.3,9.7,13.7,14.8,21.9,15.4c13.7,0.9,25.9-11.2,33.9-20.4c8.4-9.8,15.3-16.1,21.5-15.3
		c4.5,0.6,11.9,5.8,21.5,26.6c3.2,8.6,7.3,15.7,12.2,21.2c7.2,8.1,15.9,12.5,25.2,12.5c3.5,0,7-0.6,10.5-1.8
		c4.9-1.8,9.5-5.5,13.4-10.7c3.3-4.4,6.2-9.8,8.5-16.2c3.5-10.1,6.5-12.4,8-12.8c3.2-0.9,9.1,3.9,14.8,8.6c1.8,1.5,3.6,3,5.6,4.5
		c17.2,13,27.4,8.1,54.6-25.8c5.2-6.4,11.5-10.2,16.5-9.8c3.5,0.3,6.6,2.7,9.2,7.1c1.5,2.5,3.3,5,5.3,7.7c3,4,6.3,8.6,9.4,14.4
		l0.2,22l0.2,16.6c-1,0.5-2.5,0.9-4.5,1.5c-18.7,4.9-79.3,11.5-157.3,13.4c-0.7,0-1.5,0-2.2,0c-1.6,0-3.2,0.1-4.8,0.1
		c-1.6,0-3.2,0.1-4.8,0.1c-8.8,0.2-17.4,0.2-25.9,0.3c-1.6,0-3.2,0-4.8,0c-1.6,0-3.2,0-4.8,0c-67-0.3-120.4-5.1-152.8-13.9
		C70.6,328.2,66.9,327,63.5,325.8z M234.7,102c0.9,1.1,2.2,1.6,3.6,1.6c1.1,0,2.3-0.4,3.2-1.2c1.1-1,1.6-2.4,1.6-3.8
		c-0.1-1-0.4-2.1-1.2-2.9c-1.6-1.8-3-3.4-4.3-4.9c-1.5-1.7-2.8-3.3-4-4.7c-1.4-1.7-2.6-3.2-3.8-4.7c-2.3-3-4.3-5.7-6.6-8.9
		c-1.2-1.7-2.6-3.6-4.1-5.7c-11.6-15.9-14.2-26.5-8.8-35.4c4.2-6.9,11.2-11.1,17.8-10.6c7.7,0.5,14.7,7.1,19.7,18.6
		c0.8,1.7,2.5,2.8,4.4,2.8c0,0,0,0,0.1,0c1.9,0,3.6-1.2,4.3-3C261,28.1,268,21.6,276.1,21c7.3-0.6,14.9,3.6,19.3,10.8
		c4.6,7.5,4.8,16-9.1,33.3c-2.6,3.3-6,7.1-9.6,11.1c-1.5,1.7-3.1,3.5-4.6,5.2c-1.4,1.6-2.7,3.1-4,4.7c-1.3,1.6-2.6,3.2-3.8,4.7
		c-1,1.3-2,2.6-2.9,3.9c-0.6,0.9-0.9,2-0.8,3c0.1,1.4,0.8,2.8,2,3.6c2.2,1.5,5.1,1,6.6-1.2c2-2.9,4.5-6,7.2-9.1
		c28,0.6,54.1,2.2,75.4,4.6c30.3,3.5,40.5,7.4,43.9,9.2c-3.3,1.9-13.5,5.8-43.8,9.3c-27.7,3.2-63.7,4.9-101.3,4.9
		s-73.6-1.8-101.3-4.9c-30.3-3.5-40.5-7.4-43.8-9.3c3.3-1.8,13.6-5.8,43.9-9.2c21.4-2.5,47.8-4,76-4.7
		C227.7,94.1,230.7,97.6,234.7,102z M398.2,191.6c-0.6,0.5-1,1-1.3,1.7c-1.1,0.4-2.7,0.9-4.9,1.4c-1,0.2-2.1,0.4-3.4,0.7
		c-19,3.6-64.4,7.9-120.8,9.2c-67.3,1.6-121.7-1.8-153.8-9.2c-3.3-0.8-6.4-1.6-9.2-2.4c0-0.1,0-0.2,0-0.3c0-0.3,0-0.6-0.1-0.8
		c-0.2-1.1-0.7-2-1.5-2.7l0.2-22.6c0.8-0.4,1.6-1,2.1-1.9c2.4-4,5-7.2,7.3-10c1.7-2.1,3.4-4.2,4.6-6.1c1.9-2.9,4-4.4,6.5-4.6
		c3.7-0.3,8.4,2.3,12.3,6.8c21.7,24.4,30.4,28.1,44.2,18.6c1.5-1.1,3-2.2,4.5-3.3c4.2-3.1,8.9-6.6,11-6c0.8,0.2,2.9,1.5,5.5,8.4
		c3.8,10.1,10.5,17.5,17.9,19.9c3.1,1,6,1.5,8.8,1.5c14.5,0,25-12.4,30-24.8c5.7-11.3,11.3-17.6,16-18.3c4.5-0.7,9.7,3.6,16.4,10.6
		c10,10.6,19,15.5,27.4,14.9c6.7-0.5,12.7-4.3,17.7-11.3l0.4-0.6c4.6-6.2,9.9-13.2,14.3-13.2c0,0,0,0,0,0c3.1,0,6.5,3.8,8.8,6.9
		c0.1,0.2,0.2,0.3,0.4,0.4c1.2,1.3,2.4,2.6,3.6,4c9.1,10,18.5,20.3,28.2,17.5c2.5-0.7,4.6-2.2,6.5-4.4L398.2,191.6z M397.7,145.6
		c-0.3,0.5-0.6,1.1-0.7,1.8c-3.1,16.7-7,19.1-8.2,19.4c-4.1,1.2-12.8-8.4-18.6-14.8c-1.2-1.3-2.4-2.6-3.5-3.8
		c-5.2-7.1-10.5-10.5-16.2-10.6c0,0-0.1,0-0.1,0c-9.1,0-15.6,8.6-21.9,17l-0.5,0.6c-3.4,4.8-6.9,7.2-10.7,7.5
		c-5.3,0.4-12-3.7-19.8-12c-7.3-7.6-15.2-14.9-24.7-13.4c-8.3,1.2-15.6,8.7-23.2,23.6c-0.1,0.1-0.1,0.2-0.2,0.4
		c-1.6,4-10.4,23.5-27.1,18c-4.6-1.5-9.1-6.9-11.9-14.2c-3.2-8.2-6.9-12.7-11.8-14.1c-6.7-1.9-12.9,2.6-19.4,7.5
		c-1.4,1-2.8,2.1-4.2,3.1c-7,4.8-10.2,7-31.6-17c-5.9-6.8-13.4-10.5-20.1-10c-3.9,0.3-9.4,2.1-13.9,9c-1,1.5-2.4,3.2-4,5.2
		c-0.6,0.7-1.2,1.4-1.8,2.2l0.4-36.1c7,2.9,18.9,5.7,39,8.2c28.7,3.6,66.9,5.6,107.4,5.6s78.7-2,107.4-5.6
		c20.6-2.6,32.6-5.5,39.5-8.5L397.7,145.6z M95,199.7c0.9,0.9,2.1,1.5,3.5,1.5c0,0,0,0,0,0c0.2,0,0.4,0,0.6-0.1
		c33.4,11,94.7,13.3,138.5,13.3c13.3,0,25-0.2,33.8-0.4c31.8-0.8,63.3-2.7,88.5-5.2c26.3-2.7,36.7-5.1,41.1-6.9
		c0.6,0.3,1.2,0.4,1.9,0.4c0,0,0,0,0,0c2.5,0,4.6-2,4.7-4.6c0.7,0.9,1.6,1.5,2.8,1.8c17.7,3.8,22.7,7.1,24,8.4
		c-2.1,1.9-13.4,9.2-67.3,14.8c-74.8,7.8-182.4,7-250.3-1.8c-41.1-5.3-50-11.2-51.7-12.9c1.4-1.3,6.9-5.1,28.3-9.3
		C93.9,199,94.4,199.4,95,199.7z M72.9,221.9c9.9,3.2,24.3,6,42.8,8.4c37,4.8,85.6,7.3,134.5,7.3c41.6,0,83.4-1.8,118.1-5.4
		c23.1-2.4,41.3-5.4,54-8.9c5.4-1.5,9.7-3,13.1-4.7l0.5,52.7c-0.6-0.8-1.1-1.5-1.6-2.2c-1.9-2.6-3.6-4.8-4.8-6.8
		c-5.3-9.1-12-11.4-16.7-11.8c-8.1-0.6-17.4,4.4-24.7,13.3c-27.7,34.6-32,31.3-41.4,24.2c-1.8-1.4-3.6-2.9-5.4-4.3
		c-7.9-6.5-15.5-12.7-23.5-10.4c-6,1.7-10.5,7.7-14.4,18.8c-3.2,9-7.9,15.9-12.9,19.4c-1.1,0.7-2.2,1.3-3.3,1.7
		c-7.1,2.5-13.1,1.3-18-1.7c-10.6-6.3-16.4-20.7-17.9-24.6c0-0.1-0.1-0.2-0.1-0.4c-9.5-20.5-18.6-30.8-28.9-32.2
		c-11.6-1.6-21.2,8.2-30,18.4c-10.4,12-18.9,17.6-26,17.1c-5.1-0.3-10-4.1-14.6-11.2l-0.8-1.1c-7.6-11.2-15.5-22.7-26.5-22.7
		c0,0-0.1,0-0.1,0c-6.9,0-13.5,4.7-19.9,14.3c-1.5,1.7-2.9,3.5-4.4,5.3c-7.9,9.6-18.8,22.7-24.6,21.1c-2.1-0.6-7.3-4.4-11.4-27.3
		l0.6-49.5C67.3,220,70.2,221.1,72.9,221.9z M338.8,464.9c-2.9,4.8-31.3,14.1-86.6,14.4c-52.7,0.3-86.6-8.1-90.9-14.4
		c2.1-3.5,20.8-11.4,66-13.8c0.1,0,0.1,0,0.2,0v6.2c0,2.6,2.1,4.8,4.8,4.8c2.6,0,4.8-2.1,4.8-4.8v-73.2c4.3,0.1,8.5,0.1,12.8,0.1
		c4.4,0,8.7,0,13.1-0.1v73.2c0,2.6,2.1,4.8,4.8,4.8c2.6,0,4.8-2.1,4.8-4.8v-6.1C315.6,453.3,336.6,461,338.8,464.9z"/>
</g>
</svg>
