<?xml version="1.0" encoding="utf-8"?>
<!-- Generator: Adobe Illustrator 27.2.0, SVG Export Plug-In . SVG Version: 6.00 Build 0)  -->
<svg version="1.1" id="Layer_1" xmlns="http://www.w3.org/2000/svg" xmlns:xlink="http://www.w3.org/1999/xlink" x="0px" y="0px"
	 viewBox="0 0 500 500" style="enable-background:new 0 0 500 500;" xml:space="preserve">
<style type="text/css">
	.st0{fill:#808080;}
</style>
<g>
	<path class="st0" d="M461.5,243.7c-17.6-19.6-44.1-39.8-74.7-57c-49.4-27.6-99.5-41.4-124.7-34.2c-4.6,1.3-8.3,3.3-11.1,5.8
		c-0.2,0.1-0.3,0.2-0.5,0.4c-4.7,4.5-12.6,12.9-19.3,23.5c-21.9-5.3-48-8.1-75.3-8.1c-35.1,0-68.1,4.7-93,13.2
		c-22.3,7.6-36,17.7-39.6,28.9c0,0,0,0.1,0,0.1c-3.5,11.5-10.6,40.7,0.2,62.9c0,0,0,0,0,0c0,0,0,0,0,0c0.1,0.2,0.2,0.4,0.3,0.5
		c0,0,0,0,0,0.1c18.5,24.5,71.7,41.4,130,41.4c0.9,0,1.8,0,2.7,0c48.6-0.4,96.8-14.5,122.1-29.7c11.2,8.5,23.6,16.6,36.8,23.9
		c41,22.6,87.8,33.9,117.6,33.9c5.6,0,10.5-0.4,14.8-1.2c0.4-0.1,0.8-0.2,1.2-0.5c21.7-13,28.2-37.2,31.1-54.5
		C486.2,281.4,479.6,263.9,461.5,243.7z M319,309.2c-12.1-6.7-23.5-14-33.9-21.8c-2-1.5-4-3-6-4.6c-11-8.7-20.7-17.7-28.6-26.7
		c-1.7-2-3.4-3.9-4.9-5.8c-5.2-6.5-9.5-12.9-12.6-19.1c-1.4-2.8-2.6-5.6-3.6-8.3c-1.1-3.1-1.9-6.1-2.3-9c0.5-8.2,3.5-16.2,7.5-23.5
		c1.2-2.2,2.5-4.3,3.9-6.3c2-3,4.1-5.8,6.1-8.3c0.3,3.4,1.3,7.1,2.9,11.1c1,2.5,2.3,5.1,3.9,7.8c0.2,0.3,0.3,0.5,0.5,0.8
		c0.1,0.2,0.3,0.5,0.4,0.7c3.3,5.5,7.7,11.2,13.1,17.2c4.5,5,9.5,10,15.1,15c1.6,1.5,3.3,2.9,5,4.4c0.2,0.1,0.3,0.3,0.5,0.4
		c2.8,2.4,5.7,4.8,8.8,7.2c13.4,10.5,28.8,20.7,45.3,30c30.6,17.1,61.7,29.2,87.5,33.9c7.9,1.4,15,2.2,21.3,2.2
		c9.1,0,16.5-1.5,22.1-4.4c-4.7,19.2-12.6,31.5-25.1,39.2C420,345.7,365.8,335,319,309.2z M238.3,252.5
		c-21.3,6.1-49.5,10.1-82.4,10.1c-46.1,0-82.9-7.8-104.7-18.4c46.1-24.5,125.3-25.5,172.9-15.2C227.3,236.6,232.1,244.5,238.3,252.5
		z M383.3,193.1c29.9,16.8,55.8,36.5,72.9,55.5c15.9,17.7,22.3,32.9,17.4,41.7c0,0,0,0,0,0.1c-3.1,5.6-11,8.6-22.4,9
		c-1.1-7.4-6.8-16.5-17-27.1c-4.3-4.4-9.4-9.1-15.1-13.8c-23.2-19.3-56.9-39.8-91.3-53.3c-24.5-9.7-49.3-15.8-71-15.4
		c-5.2-9.5-6.5-17.3-3.4-22.8c0.7-1.3,1.7-2.5,3-3.5c2-1.6,4.6-2.9,7.8-3.8c4-1.1,8.7-1.7,14-1.7
		C303.8,157.8,343.6,170.9,383.3,193.1z M282,220c-4.1-3.8-7.9-7.7-11.3-11.5c-1.9-2.1-3.7-4.2-5.3-6.3c-1.4-1.8-2.7-3.5-3.9-5.2
		l-0.5-0.3c0.1,0,0.2,0,0.3,0c3.3,0.1,6.6,0.3,10,0.7c56,5.9,126.9,47.9,157.6,79.7c10.3,10.6,13.8,17.7,14.8,21.9
		c0.1,0.6,0.2,1.1,0.3,1.6l-3.2-1.8c-24-2.1-58.7-13.3-97.3-34.8c-19.4-10.9-37.1-23-51.8-35.3c-1-0.8-2-1.6-2.9-2.5
		c-2.2-1.9-4.3-3.8-6.4-5.7C282.3,220.3,282.1,220.2,282,220z M155.9,181.3c27.6,0,51.9,2.8,71.6,7.3c-4.1,7.7-7.1,16.3-7.6,25.2
		c0,0.2,0,0.5,0,0.7c0.3,2.2,0.8,4.4,1.4,6.6c-50.8-9.8-131.9-7.7-177.5,19c-9.2-5.7-14.1-12-14.1-18.2
		C29.6,202.4,80.3,181.3,155.9,181.3z M156.5,314.1c-57,0.5-109.1-15.2-126.7-38.2c-6.2-13.1-5.4-29.4-3.3-41.7
		c6,8.7,18.4,16.4,36.4,22.6c24.9,8.5,57.9,13.2,93,13.2c32.5,0,63.2-4,87.3-11.3c8.1,9.6,18.1,19.1,29.5,28.3
		C247.9,300.9,202.6,313.7,156.5,314.1z"/>
	<path class="st0" d="M80.8,288.9c-21.7-7.3-35.4-17-38.5-27.3c-0.6-1.9-2.6-3-4.5-2.4c-1.9,0.6-3,2.6-2.4,4.5
		c4.9,16.2,26.1,26.4,43.1,32.1c0.4,0.1,0.8,0.2,1.1,0.2c1.5,0,2.9-1,3.4-2.5C83.7,291.6,82.7,289.5,80.8,288.9z"/>
	<path class="st0" d="M265.4,249.8c-0.3-0.3-0.7-0.7-1-1c-0.6-0.6-1.3-1.2-1.9-1.8c-0.8-0.8-1.7-1.7-2.5-2.5c-1-1.1-2-2.2-3-3.2
		c-3.9-4.5-7.1-8.8-9.4-12.8c-3.7-6.5-5.3-12.5-4.7-17.5c0.3-2-1.1-3.8-3.1-4c-2-0.3-3.8,1.1-4,3.1c-0.7,5,0.3,10.2,2.3,15.2
		c1.2,3.1,2.8,6.1,4.7,9.1c2.9,4.6,6.5,9.1,10.2,13.2c1.8,1.9,3.5,3.8,5.3,5.5c1.3,1.3,2.6,2.5,3.9,3.7c0.7,0.6,1.6,0.9,2.4,0.9
		c1,0,1.9-0.4,2.7-1.2c1.3-1.5,1.2-3.7-0.2-5.1C266.6,250.9,266,250.4,265.4,249.8z"/>
	<path class="st0" d="M93.7,292c-2,0-3.6,1.6-3.6,3.6v0.4c0,2,1.6,3.6,3.6,3.6c2,0,3.6-1.6,3.6-3.6v-0.4
		C97.3,293.6,95.7,292,93.7,292z"/>
	<path class="st0" d="M275.3,260.5c-2,0-3.6,1.6-3.6,3.6v0.4c0,2,1.6,3.6,3.6,3.6c2,0,3.6-1.6,3.6-3.6v-0.4
		C278.9,262.2,277.3,260.5,275.3,260.5z"/>
</g>
</svg>
