<?xml version="1.0" encoding="utf-8"?>
<!-- Generator: Adobe Illustrator 27.2.0, SVG Export Plug-In . SVG Version: 6.00 Build 0)  -->
<svg version="1.1" id="Layer_1" xmlns="http://www.w3.org/2000/svg" xmlns:xlink="http://www.w3.org/1999/xlink" x="0px" y="0px"
	 viewBox="0 0 500 500" style="enable-background:new 0 0 500 500;" xml:space="preserve">
<style type="text/css">
	.st0{fill:#808080;}
</style>
<g>
	<path class="st0" d="M490.2,231.6c-3.3-2.7-9.8-4.8-22.2,0.3c-0.1,0.1-0.2,0.1-0.4,0.2l-30.1,16.6c-7.5-2.4-17.9-0.1-28.8,2.3
		c0,0-0.1,0-0.1,0l-0.2,0.1c-16.9,3.8-36,8.1-49.7-4.2c-2.7-20.7-17.1-35-36.9-36.6c-17-1.4-38.4,8-45.1,31.9c0,0.2,0,0.3-0.1,0.5
		c-1.1-0.5-2.5-0.3-3.5,0.5l-5.6,4.5c0,0-0.1,0.1-0.1,0.1c-2.5,2.2-4.5,3.6-6,4.6c-2.3,1.6-4.4,3.1-3.9,5.7c0.4,2.8,2.6,3.5,7.5,5
		c1,0.3,2.2,0.7,3.6,1.1l10,3.2c0.4,0.1,0.7,0.2,1.1,0.2c0.3,0,0.7-0.1,1-0.2c0.2,8.6,0.8,16.7,3.3,23.7
		c17.4,50.4,48.4,62.8,71.4,64.4c1.8,0.1,3.7,0.2,5.5,0.2c35.5,0,69.4-22.8,78-39.7c1.6-3.1,2.1-5.7,2.1-7.9
		c8.1,0.5,17.9-2.9,21.6-8.4c1.5-2.1,2-4.4,1.6-6.6c5.9-1,11.4-4.6,14.7-8.4c3.2-3.7,4.3-7.5,3.2-10.7c-0.1-0.2-0.2-0.5-0.3-0.7
		c6.9-3.6,11.5-10.6,11-16.1c-0.2-2.3-1.3-4.7-3.7-6.3c2.3-2.3,3.9-5.2,4.5-8.3C494.6,238.2,493.4,234.2,490.2,231.6z M473.8,268.5
		c-1.7,0.2-3.1,1.6-3.1,3.3c-0.1,1.7,1.2,3.3,2.9,3.6c1.6,0.3,2.1,0.8,2.2,0.9c0.1,0.4-0.2,1.8-1.9,3.8c-3.2,3.7-9.4,7.1-14.5,6.1
		c-1.5-0.3-3,0.4-3.8,1.8c-0.7,1.4-0.5,3,0.6,4.1c2,2,1.3,3,0.9,3.6c-2.7,3.9-14.1,7-19.5,4.5c-1.5-0.7-3.3-0.3-4.2,1
		c-1,1.3-0.9,3.1,0.1,4.4c1.5,1.8,0.5,4.9-0.6,7.1c-8,15.8-42.6,38-76.8,35.7c-29.9-2-52.5-22.7-65.3-59.7c-2.7-7.5-2.8-17.2-3-27.5
		c0-0.2,0-0.5-0.1-0.7l-3.8-17.5c5.8-19.5,23.4-27.2,37.5-26c13.3,1.1,28.4,10,30.6,31.7c0.1,0.8,0.5,1.6,1,2.1
		c16.4,15.9,38.9,10.8,56.9,6.8l0.3-0.1c10.2-2.2,20.7-4.5,26.2-2.1c1,0.4,2.2,0.4,3.1-0.1l31.3-17.2c10.2-4.1,14-2,14.9-1.3
		c1.5,1.2,1.3,3.1,1.1,4.2c-0.6,2.9-3.2,6.5-7.9,7.9c-1.7,0.5-2.7,2.3-2.4,4c0.3,1.7,1.9,3,3.7,2.8c1.6-0.1,5.5-0.2,5.7,1.8
		C486.3,260.9,481.3,267.8,473.8,268.5z M270.9,257.4c-1.2-0.4-2.2-0.7-3.1-1c1.3-0.9,2.8-2.1,4.4-3.5l5.5-4.4
		c0.1,0,0.1-0.1,0.2-0.2l2.7,12.2L270.9,257.4z"/>
	<path class="st0" d="M428.1,264.3c-3-2.2-6.4-2.5-9-0.8c-1.6,1.1-2.1,3.2-1,4.8c1,1.6,3.1,2,4.7,1.1c0.4,0,1.4,0.5,2.2,1.6
		c0.4,0.6,1,1.8,0.4,3c-0.5,1-3.1,4.5-15.4,5.4c-1.7,0.1-3,1.4-3.2,3.1s0.8,3.2,2.4,3.7c3,1,4.1,2.1,4,2.5
		c-0.6,2.2-6.6,5.5-10.7,4.6c-1.6-0.4-3.2,0.4-3.9,1.9c-0.7,1.5-0.3,3.2,1,4.2c0.5,0.4,1.2,1.1,1.1,1.7c-0.2,0.9-1.8,2.3-4.2,2.7
		c-1.3,0.2-3.8,0.3-5.5-2.2c-1-1.6-3.1-2-4.7-1c-1.6,1-2.1,3-1.2,4.7c2.4,4.3,0.8,5.9,0.2,6.5c-2.7,2.6-9.7,3-13.5,0.7
		c-1.7-1-3.8-0.4-4.8,1.2c-1,1.7-0.4,3.8,1.2,4.8c2.7,1.6,6.3,2.5,10,2.5c4.5,0,9-1.3,12-4.2c1-1,2.7-3,3.1-6c1.4,0.2,2.9,0.2,4.4,0
		c4.9-0.8,8.8-4,9.8-7.9c0.2-0.9,0.3-1.9,0.2-2.8c5.7-1.2,11.1-5,12.3-9.5c0.3-1,0.6-3.1-0.7-5.4c8.9-2.2,12-6.2,13-9.6
		C433.7,270.9,431.2,266.6,428.1,264.3z"/>
	<path class="st0" d="M311,242.9c-1.9,0-3.5,1.6-3.5,3.5s1.6,3.5,3.5,3.5h0.1c1.9,0,3.4-1.6,3.4-3.5S312.9,242.9,311,242.9z"/>
	<path class="st0" d="M238.4,252.2c-1.5-1-3.6-2.5-6.1-4.7l-5.5-4.5c-1-0.9-2.4-1-3.6-0.5c0-0.2,0-0.3-0.1-0.5
		c-6.6-23.9-28-33.3-45.1-31.9c-19.8,1.6-34.2,16-36.9,36.6c-13.6,12.2-32.8,8-49.7,4.2l-0.2-0.1c0,0-0.1,0-0.1,0
		c-11-2.4-21.4-4.6-28.8-2.3l-30.1-16.6c-0.1-0.1-0.2-0.1-0.4-0.2c-12.5-5.1-19-3-22.2-0.3c-3.1,2.6-4.4,6.5-3.5,10.9
		c0.6,3.1,2.2,6,4.5,8.3c-2.4,1.6-3.5,3.9-3.7,6.2c-0.5,5.6,4.1,12.5,11,16.1c-0.1,0.2-0.2,0.5-0.3,0.7c-1.1,3.2,0,7,3.2,10.7
		c3.3,3.8,8.8,7.4,14.7,8.4c-0.4,2.2,0.2,4.5,1.6,6.6c3.8,5.4,13.6,8.8,21.7,8.3c0,2.2,0.6,4.8,2.1,7.9c8.6,16.9,42.4,39.7,78,39.7
		c1.8,0,3.7-0.1,5.5-0.2c23-1.6,54-14,71.4-64.3c2.5-7,3.1-15.1,3.3-23.8c0.3,0.1,0.7,0.2,1,0.2c0.4,0,0.7-0.1,1.1-0.2l10-3.2
		c1.4-0.4,2.6-0.8,3.6-1.1c4.8-1.5,7-2.2,7.5-5C242.8,255.3,240.7,253.9,238.4,252.2z M212.3,261.3c-0.2,10.3-0.4,19.9-3,27.5
		c-12.8,37-35.3,57.6-65.3,59.7c-34.1,2.3-68.8-19.9-76.8-35.7c-1.1-2.2-2.2-5.3-0.6-7.1c1.1-1.2,1.1-3.1,0.1-4.4
		c-0.7-0.9-1.7-1.4-2.8-1.4c-0.5,0-1,0.1-1.5,0.3c-5.7,2.6-16.8-0.6-19.6-4.5c-0.4-0.6-1.1-1.6,0.9-3.6c1.1-1.1,1.3-2.8,0.6-4.1
		c-0.7-1.4-2.3-2.1-3.8-1.8c-5.1,1-11.3-2.4-14.5-6.1c-1.7-2-2-3.5-1.9-3.8c0-0.1,0.5-0.6,2.2-0.9c1.7-0.3,3-1.8,2.9-3.6
		s-1.4-3.2-3.1-3.3c-7.4-0.7-12.5-7.6-12.2-10.8c0.2-2,4-1.9,5.7-1.8c1.8,0.2,3.4-1.1,3.7-2.8c0.3-1.7-0.7-3.5-2.4-4
		c-4.7-1.4-7.3-5-7.9-8c-0.2-1-0.3-3,1.1-4.1c0.9-0.8,4.7-2.9,15,1.3l31.3,17.2c1,0.5,2.1,0.6,3.1,0.1c5.5-2.4,16-0.2,26.3,2.1
		l0.2,0.1c18.1,4,40.5,9.1,56.9-6.8c0.6-0.6,1-1.3,1-2.1c2.3-21.7,17.3-30.6,30.6-31.7c14.1-1.2,31.7,6.5,37.5,26l-3.8,17.5
		C212.4,260.8,212.3,261.1,212.3,261.3z M229.2,257.4l-9.6,3.1l2.7-12.2c0,0,0.1,0.1,0.1,0.1l5.4,4.4c1.7,1.5,3.2,2.6,4.5,3.6
		C231.4,256.7,230.3,257.1,229.2,257.4z"/>
	<path class="st0" d="M128.2,312.5c-3.8,2.3-10.8,1.9-13.5-0.7c-0.5-0.5-2.2-2.1,0.2-6.5c0.9-1.6,0.4-3.7-1.2-4.7
		c-1.6-1-3.7-0.5-4.7,1c-1.6,2.4-4.1,2.4-5.5,2.2c-2.4-0.4-4-1.9-4.2-2.7c-0.2-0.6,0.6-1.3,1.1-1.7c1.3-1,1.7-2.8,1-4.2
		c-0.7-1.5-2.3-2.3-3.9-1.9c-4.1,0.9-10.1-2.3-10.7-4.6c-0.1-0.4,1-1.5,4-2.5c1.6-0.5,2.6-2.1,2.4-3.7c-0.2-1.7-1.5-2.9-3.2-3.1
		c-12.3-1-14.9-4.4-15.4-5.4c-0.6-1.2,0-2.4,0.4-3c0.8-1.1,1.8-1.6,2.2-1.6c1.6,1,3.7,0.5,4.7-1.1c1.1-1.6,0.6-3.8-1-4.8
		c-2.6-1.7-6-1.4-9,0.8c-3.1,2.3-5.6,6.6-4.2,11.3c1,3.4,4.1,7.4,13,9.6c-1.3,2.3-0.9,4.5-0.7,5.4c1.2,4.4,6.6,8.3,12.3,9.5
		c-0.1,0.9-0.1,1.9,0.2,2.8c1,3.9,4.9,7.1,9.8,7.9c1.5,0.3,3,0.3,4.4,0c0.4,3,2.1,5,3.1,6c3,2.9,7.5,4.2,12,4.2
		c3.7,0,7.3-0.9,10-2.5c1.7-1,2.2-3.1,1.2-4.8C132,312.1,129.8,311.5,128.2,312.5z"/>
	<path class="st0" d="M189,242.9L189,242.9c-2,0-3.5,1.6-3.5,3.5s1.6,3.5,3.5,3.5s3.5-1.6,3.5-3.5S190.9,242.9,189,242.9z"/>
	<path class="st0" d="M284.6,164.6c0-3.2-0.5-5.4-1.8-8.3c0,0,0-0.1,0-0.1c-3.1-6.4-9-10.8-15.8-11.6c-6.3-0.8-12.5,1.6-17,6.4
		c-4.2-4.5-9.8-6.8-16.2-6.4c-6.9,0.4-12.8,3.9-15.9,9.5c-3,5.6-4.9,14.9,3.4,26.9c4.6,6.8,12.9,14.5,22.8,21c0,0,0,0,0.1,0l4,2.5
		c0.6,0.4,1.2,0.5,1.9,0.5c0.7,0,1.4-0.2,2-0.6l2.7-1.8C274.8,189.2,284.6,176.7,284.6,164.6z M247.9,196.1
		c-9.1-6.1-16.7-13-20.9-19.1c-5.1-7.3-6.1-13.9-3-19.6c1.9-3.5,5.6-5.7,10.1-5.9c5-0.3,9.2,1.7,12,5.8c0.1,0.1,0.1,0.2,0.2,0.2
		c0.2,0.3,0.4,0.5,0.5,0.7c0.2,0.2,0.3,0.5,0.6,0.8c0.7,0.6,1.5,1,2.4,1c1.3,0,2.5-0.7,3.3-1.9c0.2-0.2,0.6-0.8,1.2-1.6
		c3-3.7,7.3-5.5,11.8-5c4.5,0.5,8.2,3.3,10.3,7.6c0.9,2,1.1,3.2,1.1,5.5c0,9.5-9,20.4-26.8,32.3l-0.8,0.6L247.9,196.1z"/>
</g>
</svg>
