<?xml version="1.0" encoding="utf-8"?>
<!-- Generator: Adobe Illustrator 27.2.0, SVG Export Plug-In . SVG Version: 6.00 Build 0)  -->
<svg version="1.1" id="Layer_1" xmlns="http://www.w3.org/2000/svg" xmlns:xlink="http://www.w3.org/1999/xlink" x="0px" y="0px"
	 viewBox="0 0 500 500" style="enable-background:new 0 0 500 500;" xml:space="preserve">
<style type="text/css">
	.st0{fill:#808080;}
</style>
<g>
	<path class="st0" d="M433.1,177.1c-1.4-1.3-2.9-2.1-4.3-2.6c2.1-4.2,1.2-7.5,0.4-9.2c-2.8-5.7-11.2-8.4-18.4-5.7
		c-3.2,1.2-13.1,6.3-10,22.8c-1.7,0.7-3.4,1.5-5,2.3c-2.9-4.6-7.4-8.1-13-9.7c-2.1-0.5-4.2-0.8-6.1-0.8c-2.7-6-7.9-10.5-14.5-12.4
		c-8.7-2.3-17.5,0.8-23.1,7.2c0-0.1-0.1-0.1-0.1-0.2c4-4.3,7.5-9.2,10.5-14.6l11.8-8.4c6,9.4,13.7,14.2,22.8,14.2
		c5.1,0,10.7-1.5,16.6-4.6c1-0.5,1.7-1.4,2-2.5c0.3-1.1,0.1-2.3-0.5-3.2c-2.8-4.2-9.2-13.7-18.9-17.1c12.6-6.9,16.9-18.7,12.3-34.5
		c-0.3-1.1-1.1-2-2.1-2.5c-1-0.5-2.2-0.5-3.2-0.1c-7.4,3.1-29.5,12.3-21.9,35.5l-12.8,9.1c3.6-10.9,5.5-23.5,5.8-37.8
		c0-2.1-1.6-3.9-3.8-4c-15.9-0.7-29.3,0.4-40.7,3.5c3.4-17.8-3.6-37.3-21.4-59.7c-1.4-1.7-3.8-2-5.5-0.7
		c-25.8,19.7-38,41.4-36.7,64.8c-3-0.3-6.4-0.3-10.2,0.1c4-18.5-0.8-28.5-6-33.8l3.2-7.8c0.9,0.1,1.8,0.1,2.7,0.1
		c21.9,0,25.4-22,26.7-29.7c0.2-1.1-0.1-2.3-0.8-3.1c-0.7-0.9-1.8-1.4-2.9-1.5c-16.5-0.8-27,6.1-30.7,20c-5.6-8.6-16.3-12.6-21-14.4
		c-1.1-0.4-2.2-0.3-3.2,0.2c-1,0.5-1.7,1.5-2,2.6c-2.8,11.3-1.2,20.4,4.5,27c-0.9,0.2-1.7,0.4-2.6,0.7c-5.7,1.8-10.2,5-12.9,9.1
		c-6.4-5.7-13.3-8.3-19.6-8.7c1.9-4,1.5-7.8,1.2-9.5c-1.4-7.3-7.9-13.1-14.1-12.5c-1.8,0.2-5.1,1-7.5,4.9c-1.1-1-2.5-1.8-4.2-2.3
		c-6.6-1.9-10.6,0.6-12.3,2.3c-3.5,3.3-4.7,9-3.3,14.8c1.5,6.2,5.6,10.9,11,12.4c2.3,0.7,4.6,1.4,7.4,1.6
		c-3.1,5.8-3.9,13.4-0.4,21.7c-9.4-0.9-16.1,0.6-20.8,3.2c-0.1-0.1-0.2-0.1-0.3-0.2c7.9-14.7,0.2-22.3-2.5-24.4
		c-5.8-4.5-14.4-4.5-18.6,0c-1.3,1.3-3.2,4.2-2.5,8.7c-1.5,0-3.1,0.4-4.7,1.2c-6.3,3-7.5,7.6-7.7,10.1c-0.4,4.8,2.5,9.9,7.4,13.3
		c3.1,2.1,6.6,3.2,9.9,3.2c2.2,0,4.3-0.5,6.3-1.4c0,0,0.1,0,0.1,0c1.1-0.5,2.2-1,3.2-1.6c-3.5,6.1-4.4,13.8-2.1,21.3
		c1.7,5.7,5.1,10.3,9.3,13c-8.4,9.5-10.2,19.9-7.7,28.2c-3.1,0.9-5.9,2.6-8.4,4.8c-2.6-2.7-5.5-5.5-8.7-8.3
		c8.1-14.9,0.2-22.7-2.6-24.8c-6.1-4.7-14.9-4.8-19.3-0.1c-1.3,1.4-3.2,4.3-2.4,8.9c-1.5,0-3.2,0.3-4.9,1.1c-6.5,3-7.8,7.7-8,10.2
		c-0.4,4.9,2.4,10.1,7.5,13.6c3.3,2.3,7,3.5,10.5,3.5c2.2,0,4.4-0.5,6.4-1.4l0.1-0.1c2.6-1.2,5.1-2.4,7.7-4.7
		c3.3,2.8,6.2,5.6,8.7,8.4c-1.6,3-2.4,6.4-2.5,10c0,2.2,0.3,4.3,0.8,6.3c-3.7,2.5-6.5,6-8.2,10c-3.9-16.4-14.9-17.1-18.3-16.9
		c-7.5,0.5-14.1,6.3-14.4,12.6c-0.1,1.9,0.4,5.4,4.1,8.4c-1.2,1-2.2,2.4-3,4.2c-3.1,7.4-0.7,14.2,6.2,17.1c2.1,0.9,4.5,1.3,6.9,1.3
		c6.6,0,13.5-3.3,16.2-9.7c0,0,0,0,0,0c0.4-0.9,0.8-1.9,1.2-2.9c0.9,3.7,2.8,7.1,5.6,10c1.8,1.9,4,3.4,6.3,4.6
		c-0.2,0.1-0.5,0.1-0.7,0.2c-20.2,5.6-36.5,23.3-49.8,54c-0.9,2,0,4.3,2,5.2c17.7,8.2,33.9,12.4,48.6,12.4c2.7,0,5.4-0.1,8.1-0.4
		c1.6,4.9,4.7,9.2,9.1,12.1c1.9,1.3,4,2.3,6.2,3c0,7.7,3.8,15,10.2,19.4c4,2.7,8.5,4,13,4c7.5,0,14.9-3.6,19.5-10.3
		c1.8-2.7,3-5.7,3.6-8.9c1.4-0.3,2.8-0.6,4.2-1.2c3,3.8,5.7,7.8,8.3,11.8c-5.5,4.1-9.2,10.7-11.1,19.8c-0.2,1.1,0,2.3,0.7,3.2
		c0.7,0.9,1.7,1.5,2.8,1.6c1.8,0.2,4.3,0.4,7.2,0.4c3.7,0,8-0.4,12.1-1.7c1.7,4.4,3,9,4.1,13.6c-0.2,1.4-0.1,3.3,1.3,5.3
		c4,18,2.3,34.9,0.5,52.8c-0.6,6.1-1.3,12.5-1.7,18.8c0,0.8,0.2,1.6,0.6,2.3c4.7,7.6,18,10.6,31,10.6c3.4,0,6.7-0.2,9.9-0.6
		c7.3-0.9,19.9-3.4,22.4-10.9c0.2-0.5,0.2-1,0.2-1.5c-0.3-4.9-0.6-9.8-1-14.6c-1.3-19-2.7-38.5,0.2-57.6c0.7-0.7,1.4-1.4,2.1-2.1
		c0.5-0.6,0.9-1.4,1-2.2c1.1-9.4,4.7-18.7,9.9-28.1c2.9,3.6,6.8,6.4,11.6,7.8c0,0,0.1,0,0.1,0c2.1,0.5,4.2,0.7,6.3,0.7
		c2.4,7,8.1,12.4,15.3,14.4c2,0.5,3.9,0.8,5.8,0.8c9.9,0,19-6.6,21.8-16.6c0.8-3.1,1-6.1,0.5-9.1c5.2-2.9,9-7.7,10.8-13.7
		c2.2-8.1-0.4-16.5-6.1-22c8,2.8,16.8,4.2,26.4,4.2c10.9,0,22.8-1.8,35.7-5.5c2.1-0.6,3.3-2.7,2.8-4.8
		c-8.2-32.5-21.3-52.5-40.3-61.3c-4.1-1.9-8.5-3.2-13.1-4c0-0.3,0-0.5,0-0.8c0.1,0,0.1,0,0.2,0c7.5,0,14.5-3.7,18.7-9.9
		c2.2,0.2,4.5,0.7,6.9,1.4c-0.2,2.2,0,4.2,0.2,6.3l0,0.3c0,0,0,0,0,0.1c0.5,5.6,4.4,10.6,10.2,13.3c2.6,1.2,5.3,1.8,7.8,1.8
		c2.9,0,5.7-0.8,7.8-2.3c2.1-1.5,5.4-5,4.7-12.1c-0.2-1.9-0.8-3.6-1.6-4.9c4.4-1.8,5.9-5,6.4-6.8c1.7-6.1-2.8-13.6-9.9-16.3
		c-3.4-1.3-15-4.2-23.9,13.1c-1.8-0.5-3.6-0.9-5.4-1.2c0.6-2.8,0.8-5.6,0.4-8.3c5.1-2.8,9-7.7,10.8-13.6c1-3.6,1-7.2,0.3-10.6
		c1.5-0.8,3.1-1.5,4.8-2.2c1.8,2.9,3.8,4.8,5.8,6.6l0.4,0.3c2.9,2.7,6.7,4.1,10.8,4.1c1.9,0,3.9-0.3,5.9-0.9
		c5.9-1.8,10.2-5.9,11.3-10.8C438.2,186.7,438.3,181.9,433.1,177.1z M388.9,104.9c2,11.2-2.3,18.4-13.5,22.7
		C372.6,117.8,376.7,110.9,388.9,104.9z M367.8,141.6c9.1-4.6,16.7-2,24.9,8.8C382,154.5,374.2,151.7,367.8,141.6z M92.1,175.5
		C92.1,175.5,92.1,175.5,92.1,175.5c-2.6,1.2-6,0.7-9-1.4c-2.6-1.8-4.3-4.5-4.1-6.5c0.1-1.4,1.3-2.7,3.4-3.7c0.5-0.2,1-0.3,1.5-0.3
		c1.9,0,4,1.5,7,4.6c1.5,1.6,3.9,1.7,5.5,0.2c1.6-1.4,1.8-3.9,0.3-5.5c-4.8-5.6-5.8-9.5-4.6-10.7c1.3-1.3,5.5-1.5,8.7,0.9
		c4.1,3.2,4,9.2-0.5,16.5c-2.6,3.2-4.8,4.2-8.1,5.8L92.1,175.5z M399.9,229.2c0.1-0.2,0.2-0.4,0.3-0.6c3.9-7.3,8.9-10.4,13.6-8.5
		c3.7,1.4,5.6,5.1,5.1,6.8c-0.5,1.7-4.3,3-11.6,1.8c-1.5-0.3-3,0.4-3.9,1.6c-0.3,0.5-0.6,1-0.7,1.6c-0.4,2,0.8,3.9,2.7,4.5
		c0.1,0,0.3,0.1,0.4,0.1c6.7,1.3,7.7,3.3,7.9,5c0.2,2.4-0.3,4.1-1.5,4.9c-1.7,1.2-4.9,1.1-7.8-0.2c-3.2-1.5-5.3-4-5.6-6.8l0-0.3
		c-0.1-0.8-0.1-1.6-0.2-2.4C398.7,234.3,398.8,232.2,399.9,229.2z M390.8,200.5c-1.3,4.6-4.7,8.2-9,9.8c-2,0.7-3.1,2.9-2.5,5
		c0.8,2.6,0.9,5.4,0.2,8.1c-0.1,0.2-0.2,0.5-0.2,0.7c-2.2,6.6-8.8,10.7-15.6,9.9c-0.6-2-1.5-4-2.6-5.9c-0.3-0.5-0.6-1.1-0.9-1.6
		c-1.4-2.3-3.1-4.4-5.1-6.5c-0.8-0.8-1.6-1.6-2.5-2.4c0.5,0.2,1.1,0.4,1.7,0.5c0.6,0.2,1.3,0.3,1.9,0.4c0.8,0.1,1.7,0.2,2.5,0.2
		c2.9,0,5.8-0.8,8.4-2.2c0.5-0.3,1-0.6,1.4-0.9c2-1.4,3.6-3.2,4.8-5.3c0.7-1.2,1.3-2.6,1.7-4c0.8-2.8,0.8-5.7,0.1-8.4
		c-0.4-1.5-0.9-3-1.7-4.3c-2.2-3.9-5.8-6.7-10.2-7.9c-5.9-1.6-11.9,0.1-16,4c0-0.1,0-0.1,0-0.2c-0.3-4.8-1.5-9.2-3.5-13.3
		c3.3-5.5,9.9-8.4,16.3-6.6c5,1.4,8.7,5.2,10.1,10c0.6,1.9,2.5,3.2,4.5,2.8c1.8-0.3,3.9-0.2,6,0.4c3.4,0.9,6.2,3,8.1,5.7
		c1.6,2.2,2.5,4.9,2.6,7.7C391.3,197.5,391.2,199,390.8,200.5z M409.9,306.3c-30.6,7.9-54.5,4.6-72.1-10.2c0.8-1.6,1.4-3.3,1.8-5.1
		c0.4-1.7,0.7-3.5,0.8-5.5c0.1-1.8,0.1-3.7-0.2-5.8c-0.3-2.5-0.9-5.2-2-8c0.6-0.1,1.2-0.1,1.8-0.2l0.3,8l0.2,5.8l0,1
		c0.1,2.1,1.8,3.8,4,3.8c0.1,0,0.1,0,0.2,0c2.2-0.1,3.9-1.9,3.8-4.1l-0.4-9.6l-0.1-3.3c0.7,0.3,1.4,0.6,2.1,0.9
		c4,1.8,7.7,3.8,11.3,5.9l2.7,16.6c0.3,1.9,2,3.3,3.9,3.3c0.2,0,0.4,0,0.6-0.1c2.2-0.4,3.6-2.4,3.3-4.5l-1.5-9.1
		c3.2,2.5,6.2,5.2,9,8.1c0.8,0.8,1.8,1.2,2.9,1.2c1,0,1.9-0.4,2.7-1.1c1.6-1.5,1.7-4,0.2-5.6c-3.6-3.8-7.6-7.4-12.1-10.6l8.1-3.6
		c2-0.9,2.9-3.2,2-5.2c-0.9-2-3.2-2.9-5.2-2l-12.7,5.7c-3.2-1.9-6.6-3.7-10.1-5.4c-0.8-0.4-1.7-0.8-2.5-1.2c1.2-0.8,2.3-1.7,3.4-2.7
		c1.2-1.1,2.3-2.3,3.3-3.6c0.2-0.3,0.4-0.5,0.6-0.8c1.6-2.2,2.8-4.6,3.6-7.1c0.2-0.5,0.3-1.1,0.5-1.6c3.8,0.7,7.4,1.8,10.7,3.3
		C390.9,261.4,402.4,278.5,409.9,306.3z M352.2,334c-1.3,4.6-4.6,8.2-9.1,9.9c-2,0.7-3.1,2.9-2.4,5c0.8,2.5,0.9,5.2,0.2,8
		c-2.2,7.7-10.2,12.3-18,10.2c-5.5-1.5-9.6-6-10.5-11.7c-0.2-1.1-0.8-2-1.7-2.6c-0.7-0.5-1.5-0.7-2.2-0.7c-0.3,0-0.5,0-0.8,0.1
		c-2.1,0.4-4.3,0.4-6.5-0.2c-4.1-1.2-7.4-4.1-9.1-7.7c-0.8-1.6-1.3-3.3-1.4-5.1c-0.2-1.7,0-3.4,0.4-5.1c1.3-4.6,4.8-8.3,9.5-9.9
		c1.8-0.6,3-2.5,2.6-4.4c-0.2-1.1-0.2-2.3-0.2-3.4c0-0.4,0.1-0.8,0.1-1.2c0.3,0,0.6,0.1,0.8,0.1c1.7,0.1,3.4,0.1,5.2,0
		c2-0.2,4-0.5,6.1-1c0,0,0,0,0,0c5-1.3,9.5-3.5,13.2-6.4c1.3,1.6,2.4,3.4,3,5.4c0.5,1.9,2.4,3.1,4.3,2.8c2.1-0.3,4.3-0.2,6.2,0.3
		C349.8,318.4,354.2,326.3,352.2,334z M266.5,442.4c0.3,4.4,0.6,8.9,0.9,13.4c-0.8,0.9-3,2.3-7.3,3.5c-5.5-12.4-7.8-30-6.2-47.6
		c0.2-2.2-1.4-4.1-3.6-4.3c-2.2-0.2-4.1,1.4-4.3,3.6c-1.7,18.1,0.6,36.4,6.1,49.9c-0.1,0-0.2,0-0.3,0c-7.3,0.9-14.6,0.6-20.5-0.4
		c1.4-0.4,2.6-1.5,2.9-3.1c1.7-8.6,2-17.2,2.3-25.5c0.1-1.8,0.1-3.7,0.2-5.5c0.1-2.2-1.6-4-3.8-4.1c-2.2-0.1-4,1.6-4.1,3.8
		c-0.1,1.9-0.1,3.7-0.2,5.6c-0.3,8-0.6,16.3-2.2,24.3c-0.3,1.5,0.3,3,1.4,3.8c-3.9-1-7-2.5-8.7-4.3c0.4-5.7,1-11.5,1.6-17
		c1.6-15.2,3.2-30.8,0.9-47.1c4.4,1.7,10.1,3,16.3,3.5c2.3,1.6,4.9,3,7.8,4.2c0.5,0.2,1,0.3,1.5,0.3c0.6,0,1.2-0.1,1.7-0.4
		c1-0.5,1.8-1.4,2.1-2.5c0.2-0.7,0.4-1.4,0.6-2c4.9-0.7,9.8-2,14.2-4.2C264.1,407.8,265.3,425.4,266.5,442.4z M193.1,359.6
		c1.4-4.4,3.5-7.8,6.3-10.1c1-0.9,2.2-1.6,3.4-2.2c1.2-0.5,2.4-0.9,3.8-1.2c2.7-0.6,5.7-0.7,9.1-0.2c-0.8,3.8-2.3,6.8-4.7,9
		c-0.9,0.9-2,1.6-3.3,2.3c-1.1,0.6-2.4,1.1-3.8,1.5C200.9,359.3,197.3,359.7,193.1,359.6z M175.2,328.2c-0.1,2.9-1,5.7-2.6,8.2
		c-4.8,7-14.5,8.9-21.5,4.2c-4.9-3.3-7.5-9.3-6.5-15.2c0.2-1-0.1-2.1-0.7-3c-0.6-0.9-1.6-1.4-2.6-1.6c-2.3-0.4-4.7-1.3-6.6-2.6
		c-2.6-1.7-4.5-4.1-5.6-6.9c4.3-1,8.5-2.4,12.5-4.2c-0.3,5.8,2.4,11.7,7.6,15.4c3,2,6.4,2.9,9.7,2.9c5.7,0,11.2-2.7,14.6-7.7
		c0.4-0.5,0.7-1.1,1-1.6c0.7-1.3,1.2-2.8,1.5-4.2c0.4-1.7,0.5-3.5,0.4-5.3c-0.4-5.1-3-10-7.6-13.2c0,0,0,0,0,0
		c-1.5-1-3.2-1.8-4.9-2.3c1.6-1.6,3.2-3.4,4.7-5.2c0.9-1.1,1.9-2.3,2.8-3.5c0.9-1.1,1.7-2.3,2.6-3.5c0.1-0.1,0.1-0.2,0.2-0.3
		c0,0,0,0,0,0c0.1,0.1,0.2,0.3,0.3,0.4c1.1,1.3,2,2.9,2.6,4.5c0.5,1.3,0.8,2.7,0.9,4.2c0,0.6,0.1,1.3,0,1.9c-0.1,1.7,1,3.3,2.6,3.9
		c-0.2,10.7,3.6,19.6,9.5,25.5c-0.4,0.5-0.8,0.9-1.3,1.3c-1,0.9-2.1,1.6-3.2,2.2c-1.3,0.7-2.7,1.1-4.1,1.4c-0.8,0.1-1.6,0.3-2.4,0.3
		C177,324.4,175.2,326.1,175.2,328.2z M71.3,295.1c11.9-25.8,26.4-41.3,43.1-45.9c11.5-3.2,24.7-1.4,39.4,5.2
		c0.5,2.3,1.3,4.6,2.4,6.8c-4.1,0.4-8,1-11.9,1.7l-9.5-10c-1.5-1.6-4-1.6-5.6-0.1c-1.6,1.5-1.6,4-0.1,5.6l6.2,6.5
		c-2,0.5-4,1.1-6,1.7c-1.6,0.5-3.3,1-4.9,1.6c-1.2,0.4-2.5,0.9-3.7,1.4l-11.7-7.7c-1.8-1.2-4.3-0.7-5.5,1.1
		c-1.2,1.8-0.7,4.3,1.1,5.5l7.6,5c-4.9,2.5-9.5,5.4-13.7,8.6c-1.7,1.3-2.1,3.8-0.7,5.6c0.8,1,2,1.5,3.1,1.5c0.8,0,1.7-0.3,2.4-0.8
		c3.1-2.4,6.4-4.6,10-6.5l-2.9,8.5c-0.7,2.1,0.4,4.3,2.5,5c0.4,0.1,0.9,0.2,1.3,0.2c1.7,0,3.2-1,3.8-2.7l5.4-15.8
		c1.5-0.6,3-1.2,4.5-1.7c1.5-0.5,3-1,4.6-1.5c1-0.3,2-0.6,3-0.9c0.7-0.2,1.5-0.4,2.2-0.6l-0.2,1.2l-0.7,3.5l-0.9,4.3l-0.4,2.1
		l-0.3,1.5c-0.2,1,0,1.9,0.5,2.7c0.5,1,1.5,1.7,2.7,1.9c0.3,0.1,0.5,0.1,0.8,0.1c1.7,0,3.3-1.1,3.8-2.8c0-0.1,0.1-0.2,0.1-0.4
		l0.1-0.4l0.7-3.5l1.3-6.6l0.6-2.9l0.2-1l0.3-1.5c1-0.2,2-0.3,2.9-0.5c3.8-0.6,7.7-1.1,11.8-1.4c0.3,0.4,0.6,0.7,0.9,1.1
		c0.5,0.5,0.9,1,1.4,1.6c1,1,2,2,3.1,2.8c0.3,0.2,0.6,0.5,0.9,0.7c-0.6,0.8-1.2,1.6-1.8,2.4c-0.9,1.2-1.8,2.3-2.7,3.4
		c-1,1.2-2,2.3-3,3.4c-1.2,1.3-2.4,2.5-3.6,3.7c-1,0.9-2,1.8-3,2.7c-1,0.9-2.1,1.7-3.1,2.5c-6.7,5-14,8.5-21.9,10.4
		c-1.3,0.3-2.7,0.6-4.1,0.9c-1.3,0.2-2.7,0.4-4,0.5C105.6,306.3,89.4,303.1,71.3,295.1z M108.4,221c0-1.7,0.4-3.3,0.9-4.8
		c1.3-3.5,4-6.5,7.6-8.1c1-0.4,1.7-1.3,2.1-2.3c0.4-1,0.3-2.1-0.2-3.1c-0.9-1.9-1.4-4.1-1.4-6.3c0-1.1,0.2-2.1,0.4-3.1
		c0.6-2.6,2-5.1,4-7c0.1-0.1,0.2-0.2,0.3-0.3c2-1.8,4.3-3,6.8-3.5c0.2,0.2,0.4,0.5,0.5,0.7c3.9,4.7,10,7.9,17.3,7.9
		c2.1,0,4.4-0.3,6.7-0.9c-2,10.6,2.3,19.2,8.9,23.8c0.4,0.3,0.9,0.6,1.3,0.9c-0.5,0.4-0.9,0.7-1.4,1c-1.7,1-2.4,3.1-1.6,4.9
		c0.8,1.8,1.2,3.7,1.1,5.5c-4.2,4.3-6.4,8.7-7.6,12.7c0,0.1,0,0.2-0.1,0.3c-2.1,1.1-4.4,1.6-6.8,1.6c-0.5,0-1-0.1-1.4-0.1
		c-0.8-0.1-1.6-0.2-2.3-0.5c-2.6-0.8-5.1-2.2-6.9-4.3c-0.4-0.4-0.7-0.8-1-1.3c-0.8-1.1-2-1.7-3.2-1.7c-0.7,0-1.4,0.2-2,0.6
		c-0.5,0.3-1.1,0.6-1.7,0.9c-2,0.9-4,1.3-6.1,1.3c-3.9,0-7.5-1.6-10.2-4.4c-2-2-3.2-4.5-3.8-7.2C108.4,223.1,108.4,222.1,108.4,221z
		 M134.7,113.9c0,0,0.1-0.1,0.1-0.1c1.8-1.8,4.1-3.2,6.8-4.1c4.2-1.4,9.4-1.7,15.5-0.8c1.3,0.2,2.7,0.4,4.1,0.7
		c1.2,0.2,2.4,0.5,3.7,0.9c0.4,0.1,0.7,0.2,1.1,0.3c1.1,0.7,2.3,1.5,3.4,2.3c1.6,1.2,3.2,2.5,4.8,3.8c-0.2,0.2-0.4,0.4-0.6,0.6
		c-0.9,1-1.8,2-2.5,3.1c-1,1.4-1.9,2.8-2.7,4.3c-0.2,0.4-0.4,0.9-0.6,1.3c-1.9-1.1-4-2.1-6.3-2.9c-2.3-0.8-4.9-1.3-7.9-1.4
		c-1.3-0.1-2.7-0.1-4.1,0c-0.7,0-1.3,0.1-2,0.1c-2.2,0.2-3.8,2.1-3.6,4.3c0.2,2.2,2.1,3.8,4.3,3.6c0.8-0.1,1.6-0.1,2.4-0.1
		c0.5,0,1.1,0,1.6,0c2.5,0.1,4.7,0.4,6.6,1c2.5,0.8,4.6,1.9,6.6,3.3c-0.7,3.7-0.7,7.5-0.1,11.2c-6.5,2.2-13.6,5.4-19.7,15.8
		c-1.1,1.9-0.5,4.3,1.4,5.4c0.6,0.4,1.3,0.6,2,0.6c1.4,0,2.7-0.7,3.4-1.9c4.7-7.9,9.6-10.3,15.1-12.2c1.2,2.8,2.7,5.4,4.7,7.8
		c-4.1,4.7-8.9,10.4-12.8,16.2c-0.7,1.1-1.4,2.2-2,3.3c-0.6,0.3-1.2,0.6-1.7,0.9c-4.2,1.9-8.1,2.4-11.4,1.8
		c-3.2-0.6-5.9-2.1-7.9-4.2c-0.2-0.2-0.4-0.4-0.6-0.7c-0.9-1.1-1.7-2.4-2.3-3.8c-2.8-6.8-1.1-16.5,9.2-25.5c0,0,0,0,0,0
		c1.1-1,1.6-2.5,1.2-3.9c0,0,0-0.1,0-0.1c-0.4-1.5-1.6-2.6-3-2.9c-4.1-0.8-7.7-4.7-9.4-10.2C129.7,126.5,129.8,119.1,134.7,113.9z
		 M110.7,106c-2.5-1.7-4.1-4.2-4-6.2c0.1-1.4,1.2-2.6,3.2-3.5c0.4-0.2,0.9-0.3,1.4-0.3c1.4,0,3.3,1,6.5,4.3c1.5,1.6,3.9,1.7,5.5,0.3
		c1.6-1.4,1.8-3.9,0.4-5.5c-4.6-5.3-5.4-9.1-4.3-10.3c1.2-1.3,5.1-1.5,8.1,0.8c3.6,2.8,3.7,7.8,0.5,14c-0.3,0.6-0.7,1.3-1.1,1.9
		c-1.2,1.5-2.3,2.5-3.5,3.3c-1.3,0.9-2.7,1.6-4.4,2.4c0,0,0,0-0.1,0C116.7,108.4,113.5,107.9,110.7,106z M145.6,63.1
		c-0.7-2.9-0.3-5.9,1.1-7.2c0.6-0.5,1.3-0.8,2.3-0.8c0.7,0,1.4,0.1,2.3,0.4c1.6,0.5,3.2,1.9,3.4,8.4c0.1,2.2,1.8,3.9,4,3.9
		c2.2,0,3.9-1.8,3.9-3.9c0-7.5,2-10.5,3.4-10.6c1.7-0.2,4.8,2.4,5.5,6.1c1,4.9-3,9.1-10.8,11.5c-3.9,0.7-6.2,0-9.6-1c0,0,0,0,0,0
		C148,68.9,146.3,65.7,145.6,63.1z M196.1,85.5c1,1.1,2.6,1.6,4,1.2c1.5-0.4,2.6-1.6,2.9-3.1c0.8-4,4.6-7.6,10-9.3
		c4.1-1.3,9.6-1.5,14.2,0.8c1.3,0.7,2.6,1.5,3.7,2.6c1,0.9,1.8,2,2.5,3.2c3.6,6,3.9,15.3,1,26.7c-4.6,2.2-9.1,5.2-13.7,8.5
		c-1.5-1.5-3.3-2.8-5.1-4c1.4-2.1,2.7-4.5,3.7-7.4c1.2-3.5,1.8-7.7,1.6-12.9c0-0.3-0.1-0.6-0.1-0.8c-0.5-1.8-2.1-3-4-2.9
		c-2.2,0.1-3.9,2-3.8,4.1c0.4,7.9-1.7,12.4-4.6,16.4c-4.1-1.4-8.3-1.9-12.4-1.7c-1.9-6.1-5-12.7-14.2-18.7c-1.8-1.2-4.3-0.7-5.5,1.1
		c-1.2,1.8-0.7,4.3,1.1,5.5c6.6,4.3,9.1,8.7,10.7,13.4c-2.6,0.8-5.2,1.9-7.5,3.4c-3.6-3.1-7.1-5.9-10.9-8.2c-0.3-0.2-0.7-0.3-1-0.4
		c-0.9-0.3-1.8-0.5-2.7-0.7c0,0-0.1,0-0.1,0c-6.4-9.7-5-18.2-0.2-23c0.3-0.3,0.7-0.6,1-0.9C173.2,73.2,185.2,73,196.1,85.5z
		 M215.6,45.5c12.4,5.5,16.7,12.2,14.4,22.1C218.6,63.7,214.1,56.8,215.6,45.5z M260.7,38.6c-3,13.2-8.7,18.8-18.9,18.4
		C243.3,45.1,249.3,39.3,260.7,38.6z M291.5,50.3c14.6,19.2,20.4,36.4,17.2,50.9c-0.3,1.3-0.6,2.5-1.1,3.8c-2.9,1.2-5.6,2.6-8.2,4.1
		c-1-0.7-2.2-0.9-3.4-0.6l-6.6,1.9c1-4.1,1.6-8.1,2.1-12.1l10.5-5.7c1.9-1.1,2.6-3.5,1.6-5.4c-1.1-1.9-3.5-2.6-5.4-1.6l-6.1,3.3
		c0-4.5-0.3-8.9-1-13.1c-0.4-2.2-2.4-3.6-4.6-3.3c-2.2,0.4-3.6,2.4-3.3,4.6c0.5,2.9,0.8,5.9,0.9,9l-4.4-4.7
		c-1.5-1.6-4.1-1.7-5.7-0.1c-1.6,1.5-1.7,4.1-0.1,5.7l9.8,10.3c-0.4,3.9-1.1,7.9-2.1,12l-8.1-6.5c-1.7-1.4-4.2-1.1-5.6,0.6
		c-1.4,1.7-1.1,4.2,0.6,5.6l10.7,8.7c-0.5,1.4-1,2.8-1.5,4.3c-0.8-2-1.9-3.8-3.2-5.5c-2.6-3.3-6.7-6.6-13.2-8.6
		C259.4,87.1,269.4,68.1,291.5,50.3z M167.1,303.1c1.2,2,1.6,4.4,1.2,6.7c-0.2,1.2-0.7,2.4-1.4,3.5c-2.9,4.3-8.9,5.5-13.3,2.6
		c-4.3-3-5.5-8.9-2.5-13.2c1.4-2,3.4-3.3,5.6-3.9c0.8-0.2,1.6-0.3,2.4-0.3c1.5,0,3,0.4,4.3,1.1c0.3,0.2,0.6,0.3,0.9,0.5
		C165.5,300.9,166.4,301.9,167.1,303.1z M271.8,205.6c1.2,0.8,2.3,1.6,3.4,2.5c1.1,1,2.2,2,3.2,3.1c2,2.2,3.8,4.7,5.2,7.3
		c0.7,1.3,1.3,2.7,1.8,4.1c0,0.1,0.1,0.2,0.1,0.4c0.5,1.3,0.9,2.7,1.2,4.1c0.5,2.1,0.7,4.2,0.8,6.4c0,0.1,0,0.2,0,0.3
		c0,0.3,0,0.5,0,0.8c0,1-0.1,2-0.1,3c0,0.2,0,0.4-0.1,0.6c0,0.3-0.1,0.7-0.1,1c-0.1,0.8-0.2,1.5-0.4,2.3c-0.1,0.4-0.2,0.8-0.3,1.3
		c-0.3,1.3-0.7,2.6-1.2,3.9c-0.5,1.2-1,2.5-1.6,3.6c-0.6,1.2-1.3,2.3-2,3.4c-0.3,0.4-0.6,0.9-0.9,1.3c-0.8,1.1-1.7,2.1-2.6,3.1
		c-0.5,0.5-1,1-1.5,1.5c-0.5,0.5-1,1-1.6,1.4c-1.8,1.5-3.7,2.8-5.7,3.9c-1.2,0.6-2.4,1.2-3.6,1.7c-0.8,0.3-1.5,0.6-2.3,0.8
		c-0.5,0.2-1,0.3-1.5,0.4c-2.7,0.7-5.6,1.2-8.5,1.2c-0.2,0-0.3,0-0.5,0c-1.2,0-2.4-0.1-3.6-0.2c-1-0.1-2-0.3-3-0.4
		c-0.3-0.1-0.6-0.1-1-0.2c-1-0.2-1.9-0.5-2.9-0.8c-1.3-0.4-2.5-0.9-3.7-1.4c-3-1.4-5.8-3.2-8.3-5.3c-0.7-0.6-1.4-1.3-2.1-2
		c-0.3-0.3-0.5-0.5-0.7-0.8c-0.9-1-1.8-2-2.5-3.1c-1.7-2.3-3.1-4.8-4.1-7.4c-0.3-0.8-0.6-1.5-0.8-2.3c-0.2-0.6-0.4-1.3-0.6-1.9
		c-0.3-1.4-0.6-2.7-0.8-4.2c-0.2-1.5-0.3-2.9-0.3-4.5c0-1.8,0.1-3.5,0.4-5.3c0.7,0.9,1.8,1.5,3.1,1.5c0.5,0,0.9-0.1,1.3-0.2
		c1.4-0.5,2.5-1.8,2.6-3.4c0-0.1,0-0.2,0-0.3v-0.7c0-0.8-0.2-1.6-0.7-2.2c-0.7-1.1-1.9-1.8-3.3-1.8c-0.4,0-0.8,0.1-1.2,0.2
		c0.1-0.3,0.2-0.5,0.3-0.7c0.4-0.9,0.8-1.8,1.2-2.7c0.5-1,1.1-2,1.7-2.9c0.1-0.2,0.2-0.4,0.4-0.6c1.3-2,2.8-3.8,4.5-5.5
		c0.3-0.3,0.6-0.6,0.9-0.9c0.5-0.5,1.1-0.9,1.6-1.4c0.5-0.4,1-0.8,1.5-1.1c0.4-0.3,0.7-0.5,1.1-0.8c0.7-0.5,1.5-1,2.3-1.4
		c1.4-0.8,3-1.5,4.5-2.1c1.7-0.6,3.4-1.1,5.2-1.5c0.7-0.1,1.4-0.3,2.1-0.4c0.7-0.1,1.4-0.2,2.1-0.2c0.9-0.1,1.8-0.1,2.8-0.1
		c0.4,0,0.9,0,1.3,0c3,0.1,5.9,0.6,8.6,1.4c1.3,0.4,2.5,0.8,3.7,1.4c1.2,0.5,2.4,1.1,3.5,1.8C270.8,204.9,271.3,205.2,271.8,205.6z
		 M317.6,254.8c0.5,0.5,0.9,1,1.4,1.4c0.5,0.6,1,1.1,1.5,1.7c1.5,1.7,2.8,3.4,4,5c0.7,1,1.4,2,2.1,3c0.3,0.5,0.6,1.1,1,1.6
		c0.7,1.1,1.3,2.2,1.8,3.4c0.1,0.3,0.3,0.6,0.4,0.9c0.4,0.9,0.8,1.9,1.1,2.8c0.5,1.3,0.8,2.6,1.1,3.8c0.3,1.4,0.5,2.8,0.6,4.1
		c0.1,2.3-0.1,4.4-0.6,6.5c0,0.1,0,0.1-0.1,0.2c-0.1,0.3-0.2,0.6-0.3,0.9c-0.4,1.4-1,2.7-1.7,4c-0.6,1.1-1.3,2.2-2.1,3.1
		c-0.1,0.1-0.2,0.2-0.2,0.3c-0.8,1-1.7,1.9-2.7,2.8c-1.2,1.1-2.5,2-3.9,2.8c-1,0.6-1.9,1.1-2.9,1.5c-1.7,0.8-3.4,1.4-5,1.8
		c-0.8,0.2-1.5,0.4-2.3,0.5c-1.4,0.2-2.8,0.4-4.1,0.4c-1.6,0-3.2-0.1-4.7-0.4c-1.4-0.3-2.7-0.7-3.9-1.3c-1.6-0.8-3-1.7-4.1-2.9
		c-1-1.1-2.6-1.5-4-1.1c-1.4,0.4-2.5,1.7-2.8,3.1c-3.7,22.5-18.1,31-29.8,29.3c-8-1.1-15.6-7.2-17.9-18.6c0-0.1,0-0.2-0.1-0.3
		c0-0.1,0-0.2,0-0.2c-0.3-1.8-0.6-3.7-0.6-5.8c-0.1-2.2,0-4.4,0.3-6.9c0.2-1.3,0.3-2.6,0.5-3.8c0.2-1.7,0.5-3.4,0.8-5.1
		c0.2-1.3,0.5-2.7,0.8-4c0.3-1.3,0.5-2.7,0.8-4c0.7-3.2,1.5-6.4,2.3-9.4c1,0.2,1.9,0.4,2.9,0.5c1.3,0.2,2.7,0.3,4,0.4
		c0.6,0,1.2,0,1.7,0c4.1,0,8.1-0.6,11.9-1.7c0.1,0,0.2-0.1,0.3-0.1c1.1,2.8,1.8,5.8,2.1,9.1c0.1,1.3,0.1,2.6,0,4c0,0,0,0,0,0.1
		c-0.1,1.3-0.2,2.6-0.5,4c-0.3,1.7-0.7,3.6-1.3,5.6c-0.6,2.1,0.5,4.3,2.6,4.9c0.4,0.1,0.8,0.2,1.2,0.2c1.7,0,3.3-1.1,3.8-2.8
		c0.9-3.1,1.6-6,1.9-8.7c0.2-1.4,0.3-2.8,0.3-4.1c0-1.4,0-2.7-0.1-4c-0.3-4.2-1.3-7.9-2.6-11.2c3.7-1.9,7.1-4.4,10.1-7.3
		c0,0,0,0,0,0c4.2,2.3,8,5,11.4,9.8c1.1,1.5,2.1,3.3,3.1,5.3c0.5,1,1,2.1,1.5,3.2c0.1,0.2,0.2,0.4,0.3,0.5c0.7,1.2,2,2,3.4,2
		c0.5,0,1-0.1,1.5-0.3c1.4-0.6,2.3-1.9,2.4-3.3c0.1-0.6,0-1.3-0.3-1.9c-0.3-0.7-0.6-1.4-0.9-2c-4.7-10.6-11-15.9-17.2-19.5
		c0.3-0.4,0.6-0.9,0.9-1.4c0.7-1.1,1.4-2.3,2-3.5c0.6-1.2,1.1-2.4,1.6-3.6c0.8-2.1,1.5-4.3,2-6.6c6.8,1.9,13.1,4.1,18.6,6.9
		c0.5,0.5,1,0.9,1.4,1.4C315.6,252.8,316.6,253.8,317.6,254.8z M193.8,311.5c-2.8-3.7-4.8-8.5-5.3-14.3c-0.1-1.5-0.1-3.1,0-4.8
		c0.1-0.9,0.1-1.8,0.3-2.8c0.1-0.5,0.1-1,0.2-1.5c0.1-0.8,0.3-1.6,0.5-2.4c0.3-1.2,0.6-2.5,1-3.8c0.4-1.4,0.9-2.8,1.5-4.3
		c0.6-1.4,0.3-3-0.7-4.1c-1-1.1-2.6-1.6-4-1.2c-2.7,0.8-5.7,0.6-8.7-0.3c0,0-0.1,0-0.1,0c-1.2-0.4-2.4-0.9-3.6-1.6
		c-1.1-0.6-2.2-1.3-3.3-2.2c0,0,0,0,0,0c-0.5-0.4-0.9-0.8-1.4-1.2c-0.5-0.4-0.9-0.8-1.3-1.3c-1.5-1.5-2.9-3.3-4.1-5.2
		c-0.1-0.2-0.3-0.4-0.4-0.6c-1.1-1.8-2-3.9-2.6-6c-0.5-1.6-0.8-3.2-0.9-4.9c-0.1-1.6,0-3.2,0.2-4.8c0.2-0.9,0.4-1.9,0.6-2.8
		c1.3-4.2,3.9-7.9,7.7-11.2c5.2-4.5,12.8-8.2,22.3-10.8c2-0.5,4-1,6.1-1.5c0.2,0,0.4,0,0.7,0.1c4.7,0.4,9.5,1.3,14.6,2.5
		c-0.3,0.8-0.5,1.6-0.8,2.5c-0.4,1.3-0.7,2.6-0.9,3.9c-0.5,2.5-0.7,5-0.7,7.6c0,1.1,0.1,2.2,0.1,3.3c-7.7-0.7-16.4,0.1-27.3,7.1
		c-1.8,1.2-2.4,3.6-1.2,5.5c0.8,1.2,2,1.8,3.3,1.8c0.7,0,1.5-0.2,2.1-0.6c3.2-2,6-3.4,8.7-4.4c5.5-1.9,10.2-2,14.9-1.4
		c0.3,0,0.5,0.1,0.8,0.1c1.5,5.3,4,10.3,7.3,14.5c-5.5,5.5-11.1,11.9-13.3,23.5c-0.2,1.2-0.4,2.5-0.6,3.9c-0.1,1-0.2,2.1-0.3,3.2
		c0,0.3,0,0.5,0,0.8c0.3,1.8,1.8,3.3,3.7,3.4c0.1,0,0.1,0,0.2,0c1.7,0,3.2-1.1,3.7-2.7c0.1-0.3,0.2-0.7,0.2-1c0.1-1,0.1-2,0.2-2.9
		c0.2-1.4,0.4-2.7,0.6-3.9c0.2-1,0.4-1.9,0.7-2.8c1.6-5.6,4.4-9.4,7.6-13c0.8-0.9,1.6-1.7,2.5-2.6c3.5,3.1,7.5,5.6,11.8,7.4
		c-1,3.8-2,7.8-2.8,11.8c-0.3,1.3-0.5,2.6-0.8,3.9c-0.3,1.3-0.5,2.6-0.7,4c-0.5,2.7-0.9,5.4-1.2,8c-0.2,1.9-0.3,3.8-0.3,5.6
		c-8.4,12.6-20,15-28.6,11.3c-0.6-0.3-1.3-0.6-1.9-0.9c-1.2-0.7-2.3-1.4-3.4-2.3C195.9,313.9,194.8,312.8,193.8,311.5z M167,207.6
		c-4.6-3.2-7.3-9.3-5.4-16.9c0.3-1.2,0.7-2.5,1.3-3.8c0.1-0.3,0.3-0.6,0.4-1c0.4-0.8,0.8-1.7,1.3-2.6c0.4-0.6,0.8-1.3,1.2-2
		c1.5-2.2,3-4.3,4.7-6.4c2.4-3.1,4.9-6.1,7.3-8.7c0.2,0.2,0.5,0.4,0.7,0.5c-1.7,1.5-3.2,3.1-4.5,4.9c-1.3,1.7-2.3,3.6-3.2,5.5
		c-0.5,1.3-1,2.6-1.3,3.9c-0.4,1.5-0.6,3.1-0.8,4.6c-0.1,1.8-0.1,3.7,0.1,5.5c0.5,4.2,2,8.5,4.6,12.6c1,1.5,2.1,3,3.4,4.5
		c0.5,0.6,1,1.1,1.6,1.7c-0.7,0.1-1.4,0.1-2.1,0.2c-1.4,0-2.8-0.1-4.1-0.4c-1.3-0.3-2.6-0.8-3.7-1.4
		C168,208.2,167.5,207.9,167,207.6z M175,150.4c-0.5-1-0.9-2.1-1.2-3.1c-0.1-0.2-0.1-0.4-0.2-0.6c-0.4-1.3-0.6-2.6-0.8-4
		c-0.1-1.1-0.2-2.2-0.1-3.3c0-1.1,0.1-2.2,0.3-3.3c0.1-0.4,0.1-0.8,0.2-1.2c0.3-1.4,0.7-2.7,1.2-4.1c0.3-0.8,0.7-1.6,1-2.3
		c0.3-0.7,0.7-1.3,1.1-1.9c0.3,0.4,0.8,0.7,1.3,1c0.3,0.1,0.6,0.2,0.8,0.3c0.3,0.1,0.6,0.1,0.9,0.1c1.3,0,2.5-0.6,3.2-1.7
		c0.1-0.2,0.2-0.3,0.3-0.5l0.2-0.4c0,0,0-0.1,0-0.1c0.8-1.7,0.2-3.8-1.3-4.9c0,0,0,0,0.1-0.1c0.3-0.3,0.7-0.5,1-0.8
		c1.1-0.8,2.3-1.5,3.6-2.1c1.1-0.5,2.3-1,3.5-1.4c0.9-0.3,1.8-0.5,2.8-0.7c0.4-0.1,0.7-0.1,1.1-0.2c1.2-0.2,2.4-0.3,3.7-0.3
		c0.1,0,0.3,0,0.4,0c1.6,0,3.2,0.2,4.8,0.5c1,0.2,1.9,0.5,2.8,0.8c0.4,0.1,0.8,0.3,1.2,0.5c0.7,0.3,1.5,0.6,2.2,1
		c0.5,0.3,1,0.6,1.5,0.8c1.3,0.8,2.5,1.6,3.6,2.6c1,0.9,1.9,1.8,2.8,2.9c0.7,0.9,1.4,1.8,2,2.8c0.1,0.1,0.2,0.3,0.3,0.4
		c0.6,1.1,1.2,2.2,1.6,3.3c0.2,0.6,0.5,1.1,0.6,1.7c0.3,0.9,0.5,1.7,0.7,2.6c0.3,1.4,0.5,2.8,0.5,4.2c0.1,1.5,0,2.9-0.2,4.4
		c0,0,0,0.1,0,0.1c0,0.1,0,0.1,0,0.2c-1,1.2-1.8,2.4-2.6,3.6c-0.2,0.3-0.3,0.5-0.5,0.8c-0.4,0.6-0.7,1.3-1,1.9
		c-0.3,0.6-0.6,1.2-0.8,1.7c-0.3,0.7-0.5,1.4-0.8,2.1c0,0.1-0.1,0.1-0.1,0.2c-0.2,0.6-0.4,1.2-0.5,1.8c-0.1,0.4-0.2,0.8-0.3,1.3
		c-0.2,0.2-0.3,0.3-0.5,0.5c0,0,0,0,0,0c-0.8,0.8-1.7,1.5-2.6,2.2c-0.3-0.1-0.6-0.1-0.9-0.2c-1.5-0.3-3-0.6-4.5-0.8
		c-0.1,0-0.2,0-0.3,0c-1.6-0.2-3.1-0.3-4.6-0.3c0,0-0.1,0-0.1,0c-0.9,0-1.7,0-2.6,0c-0.3,0-0.5,0-0.7,0c-0.1-0.7-0.5-1.4-1-1.9
		c-0.2-0.2-0.3-0.3-0.5-0.5c-1.7-1.3-4.2-1-5.5,0.8c0,0,0,0,0,0l-0.1,0.1l-0.2,0.3c-0.4,0.6-0.6,1.2-0.7,1.8c0,0.3,0,0.5,0,0.8
		c-0.3,0.1-0.6,0.2-0.9,0.3c-1.5,0.5-2.9,1-4.2,1.7c-0.6-0.3-1.1-0.6-1.7-1c-0.3-0.2-0.7-0.5-1-0.7c-0.8-0.5-1.5-1.1-2.1-1.7
		c-0.3-0.3-0.6-0.6-0.9-0.8c-1-0.9-1.8-2-2.6-3C176.5,153.4,175.7,151.9,175,150.4z M172.1,217.9c0.4,0.1,0.8,0.1,1.2,0.1
		c-1,0.5-1.9,1.1-2.8,1.6C171,219.1,171.6,218.5,172.1,217.9z M263.4,193.4c-2.2-0.5-4.4-0.9-6.7-1.1c-0.3,0-0.5,0-0.8-0.1
		c0.2-1.3,0.3-2.7,0.4-4c0.4-6.6-0.7-14-5.7-23.1c-0.1-0.2-0.2-0.4-0.3-0.6c-0.9-1.6-2.8-2.3-4.5-1.9c-0.3,0.1-0.6,0.2-1,0.4
		c0,0,0,0,0,0c-0.9,0.5-1.6,1.4-1.8,2.4c-0.3,1-0.2,2,0.4,3c1.9,3.3,3.1,6.3,3.9,9.1c1.2,4.2,1.4,8,1.1,11.6
		c-0.1,1.1-0.2,2.2-0.4,3.3c0,0.1,0,0.1,0,0.2c-0.5,0.1-1,0.1-1.5,0.2c-1.1,0.2-2.2,0.4-3.2,0.7c-1.3,0.3-2.5,0.7-3.7,1.1
		c-0.1,0-0.3,0.1-0.4,0.1c-1.5,0.5-3,1.2-4.4,1.9c-1.2,0.6-2.4,1.3-3.6,2c-3.3-3.5-7.1-6.9-12.4-9.4c-1.2-0.6-2.5-1.1-3.9-1.6
		c-0.2-0.1-0.5-0.2-0.8-0.3c-1-0.3-2.1-0.6-3.2-0.9c-2.4-0.6-5-1.1-7.8-1.4c-2.2-0.2-4.1,1.4-4.4,3.5c-0.2,2.2,1.4,4.1,3.5,4.4
		c3.7,0.4,6.8,1.1,9.5,2c5.6,1.9,9.3,4.9,12.7,8.3c0.1,0.1,0.2,0.2,0.2,0.2c-1.8,1.6-3.5,3.5-5,5.4c-1,1.3-1.9,2.6-2.8,4
		c-0.1,0.2-0.2,0.4-0.4,0.6c-5.5-1.4-10.8-2.5-16.1-3c-0.8-0.1-1.7-0.2-2.5-0.2c-0.4,0-0.7,0-1.1,0.1c-0.5,0.1-0.9,0.2-1.3,0.3
		c-1,0.2-1.9,0.4-2.8,0.6c-0.9-0.5-1.7-1-2.5-1.5c-1.2-0.8-2.4-1.6-3.5-2.4c-10.3-8.1-12.1-18.6-8.6-26.6c1.6-3.7,4.3-7,8-9.5
		c1.5-1,3.3-1.9,5.1-2.6c0,0,0,0,0,0c0.5-0.2,1.1-0.4,1.6-0.5c0.8-0.2,1.6-0.4,2.4-0.6c1.3-0.3,2.6-0.4,4-0.5c1.2-0.1,2.5-0.1,3.9,0
		c0.8,0,1.7,0.1,2.5,0.2c0.8,0.1,1.6,0.2,2.5,0.3c0.1,0,0.3,0,0.4,0.1c1.5,0.3,3.1,0.6,4.7,1.1c0.3,0.1,0.7,0.2,1,0.3c0,0,0,0,0,0
		c1.4,0.4,2.8,0.9,4.3,1.5c0.4,0.2,0.8,0.2,1.3,0.3c1,0,2.1-0.3,2.8-1c0.3-0.3,0.5-0.6,0.7-0.9c0.6-0.9,0.7-2.1,0.4-3.1
		c-0.2-0.9-0.4-1.8-0.4-2.7c0-0.6,0-1.3,0-1.9c0.1-0.7,0.2-1.5,0.3-2.3c0.1-0.3,0.1-0.5,0.2-0.8c0.1-0.4,0.2-0.7,0.3-1.1
		c0.2-0.7,0.5-1.3,0.8-2c0.1-0.3,0.3-0.6,0.4-0.9c0.5-1,1.1-2,1.8-3c0.8-1.1,1.7-2.2,2.6-3.2c0.2-0.2,0.4-0.4,0.6-0.7
		c4-3.9,10-7.4,16.8-7.9c2.5-0.2,5,0.1,7.6,0.8c0,0,0.1,0,0.1,0c3.7,1.1,7,3.3,10,6.4c0.9,0.9,1.8,1.9,2.6,3c0.8,1,1.5,2.1,2.2,3.3
		c0.9,1.5,1.8,3.1,2.6,4.9c1.4,2.9,2.6,6.1,3.7,9.5c0.7,2.4,1.4,4.9,2,7.6c0,0-0.1,0.1-0.1,0.1c-0.5,0.6-0.9,1.3-1.4,2
		c-1.2,1.7-2.3,3.4-3.4,5.2c-2.4,3.9-4.6,8.1-6.8,12.5C265.4,193.9,264.4,193.6,263.4,193.4z M245.1,387c-0.1,0.9-0.3,1.7-0.5,2.6
		c-1.5-0.8-2.8-1.7-3.9-2.6c-2.7-2.2-4.7-4.7-5.7-7.5c-1.5-4.1-1.3-8.9,0.5-14.6c4,1.7,6.7,4,8.3,7c1.1,2.1,1.8,4.6,1.9,7.6
		C245.8,381.8,245.6,384.3,245.1,387z M293.9,312.2c0.5,0.3,1,0.5,1.6,0.8c-0.3,1.6-0.4,3.2-0.3,4.9c-1.6,0.8-3,1.8-4.4,2.9
		C291.9,318.1,293,315.3,293.9,312.2z M334.9,161.4c-0.6,0.7-1.3,1.5-2,2.2c-1.3-0.9-2.7-1.7-4.1-2.3c-3.8-1.7-8.8-3-14.9-2.7
		l-10.6-2.7c3.4-4,6.9-7.6,10.5-10.9l16.6,2.2c0.2,0,0.4,0,0.5,0c2,0,3.7-1.5,3.9-3.4c0.3-2.2-1.2-4.2-3.4-4.5l-9.1-1.2
		c3.4-2.3,6.8-4.4,10.3-6.1c2-1,2.8-3.3,1.8-5.3c-1-2-3.3-2.8-5.3-1.8c-4.7,2.3-9.2,5.1-13.6,8.4l-1.2-8.9c-0.3-2.2-2.3-3.7-4.4-3.4
		c-2.2,0.3-3.7,2.3-3.4,4.4l1.8,13.8c-3.7,3.3-7.2,7-10.7,11l-3.1-8.4c-0.8-2.1-3-3.1-5.1-2.4c-2.1,0.8-3.1,3-2.4,5.1l4.8,13
		c-2.5,3.4-4.9,7-7.2,10.7c-1.2-4.6-2.6-8.7-4.2-12.3c0.5-4.6,1.3-8.9,2.4-12.8c0.6-2.1,1.3-4.2,2.2-6.1c1.3-3,2.8-5.7,4.5-8.2
		c1-1.5,2.1-2.8,3.2-4.1c2.2-2.5,4.8-4.8,7.7-6.8c2.4-1.6,4.9-3.1,7.7-4.4c1.7-0.8,3.6-1.5,5.5-2.2c9.5-3.4,21.1-5.1,34.8-5.1
		c1.5,0,3,0,4.5,0.1c-0.7,17-4,31.3-9.8,42.7C340.9,153.5,338.1,157.7,334.9,161.4z M258.4,115.3c1.6,0.5,3.1,1,4.5,1.7
		c2.2,1.1,4,2.6,5.4,4.3c3.7,4.6,3.9,10.5,2.6,15.2c-0.2,0.8-0.4,1.5-0.7,2.2c-0.1,0.3-0.2,0.5-0.3,0.8c0,0.1-0.1,0.1-0.1,0.2
		c0,0-0.1-0.1-0.1-0.1c-1-1-2.1-1.9-3.1-2.6c-2.1-1.6-4.3-2.8-6.3-3.7c-1-0.4-2-0.8-2.9-1.1c-3.2-1-6.6-1.4-10-1.2
		c-7.3-0.3-12.5,1.8-17.1,4.2c-0.3-1.8-0.7-3.5-1.2-5.3c-0.2-0.5-0.3-1-0.5-1.5c-0.5-1.4-1.1-2.7-1.8-3.9c-0.4-0.7-0.7-1.3-1.1-2
		c2.3-1.7,4.7-3.3,6.9-4.7c1.7-1,3.3-1.9,5-2.7c0.7-0.1,1.5-0.2,2.2-0.3c5.3-0.7,10.1-0.8,14.3-0.3
		C255.6,114.6,257,114.9,258.4,115.3z M196.4,324.1c0.9,0.5,1.8,1,2.8,1.4c3.3,1.4,7,2.2,10.8,2.2c5.8,0,12-1.8,17.7-5.9l-9.6,16.4
		c-6-0.9-11.2-0.6-15.7,0.9c-2.6-4.2-5.5-8.3-8.5-12.3C194.7,325.9,195.6,325.1,196.4,324.1z M224,343.8l6.8-11.6l-1.6,26.8
		c-3,7.7-3.8,14.5-2.4,20.5c0.5,2.1,1.2,4,2.3,5.9c-5.1-1.3-8.1-3-9.3-4.1c-0.4-0.3-0.6-0.6-0.7-0.8c0.1-0.3,0.1-0.7,0.1-1
		c0-0.3,0-0.5-0.1-0.8c0,0,0-0.1,0-0.1c-1.2-5.5-2.8-10.9-4.8-16.2C219,358.9,222.9,353.1,224,343.8z M270.3,375.7
		c-0.1,0.7-0.2,1.4-0.3,2c-0.6,0.6-1.2,1.2-1.9,1.8c-0.2,0.2-0.5,0.4-0.8,0.6c-4,3.1-8.8,5-13.9,6c0.3-2.3,0.4-4.5,0.3-6.6
		c-0.1-4.3-1.1-8.1-2.9-11.4c-2.7-4.9-7.2-8.6-13.5-11l1.5-25.4c4.8,5.8,11.3,9.2,17.8,10.1c1.3,0.2,2.6,0.3,3.8,0.3
		c8.1,0,16.6-3.5,23.2-10.7c-0.1,0.2-0.1,0.3-0.2,0.5c0,0,0,0,0,0c-1,3.8-1,7.7-0.1,11.3C276.8,354,272.1,364.8,270.3,375.7z
		 M357.1,245.9c-0.2,1.3-0.5,2.6-0.9,3.9c0,0,0,0.1,0,0.1c-0.6,1.7-1.4,3.3-2.4,4.8c-2.3,3.4-5.8,6.2-10.4,7.8
		c-0.1,0-0.2,0.1-0.3,0.1c-2.5,0.9-5.3,1.4-8.4,1.5c-0.9-1.6-2-3.3-3.2-5c-1-1.4-2-2.7-3.2-4.2c-0.9-1.1-1.8-2.2-2.8-3.2
		c-0.9-1-1.9-2.1-2.9-3.1c-1.4-1.4-2.9-2.9-4.5-4.3c-0.3-0.2-0.5-0.4-0.9-0.6c-5.2-2.7-11-4.8-17.1-6.7l-0.7,0.1
		c0.1-0.1,0.3-0.1,0.4-0.2c4.4-1.8,9-2.9,14.8-2.5c2.8,0.2,5.9,0.8,9.4,1.9c2.1,0.7,4.3-0.5,5-2.6c0.7-2.1-0.5-4.3-2.6-5
		c-14.1-4.4-23.4-1.9-31.2,1.5c-0.4-3.8-1.3-7.4-2.6-10.8c0.4-0.6,0.8-1.2,1.2-1.8c1.1-1.7,2.2-3.3,3.4-4.9c2.9-3.9,6.2-7.4,11.6-10
		c2.5-1.3,5.5-2.4,9.1-3.2c2.1-0.5,3.4-2.7,2.9-4.8c-0.5-2.1-2.7-3.4-4.8-2.9c-15.9,3.8-22.3,12-27.5,19.5c-2.1-3.2-4.7-6.2-7.6-8.7
		c-1.1-0.9-2.2-1.8-3.4-2.7c-1.1-0.8-2.3-1.5-3.5-2.2c-0.1-0.1-0.3-0.2-0.4-0.2c0.3-0.7,0.7-1.4,1-2c0.5-1,1.1-2.1,1.6-3.1
		c0,0,0,0,0,0c0.6-1.2,1.3-2.3,1.9-3.5c1-1.8,2.1-3.6,3.2-5.2c0,0,0,0,0,0c0.8-1.3,1.7-2.5,2.6-3.7c0.7-0.5,1.4-1,2.1-1.5
		c1-0.7,2-1.4,3-2.1c8.8-5.7,17-9,24.2-9.6c1.1-0.1,2.1-0.1,3.1-0.1c3.3,0.1,6.3,0.7,9,1.9c0.5,0.2,0.9,0.4,1.3,0.7
		c1.2,0.7,2.4,1.4,3.4,2.3c1,0.9,2,1.8,2.8,2.8c0.6,0.7,1.2,1.5,1.7,2.2c1.2,1.9,2.2,4,2.9,6c0.8,2.5,1.3,5,1.5,7.4
		c0,0.2,0,0.4,0,0.6c0.4,7.7-2.4,14.4-7.3,17.5c-0.7,0.5-1.3,1.2-1.6,1.9c-0.2,0.6-0.3,1.2-0.2,1.8c0.2,1.5,1.2,2.8,2.6,3.3
		c0.9,0.3,1.7,0.7,2.6,1c1.7,0.7,3.2,1.4,4.7,2.2c2.4,1.3,4.6,2.7,6.4,4.2c0.3,0.3,0.6,0.5,0.9,0.8c1.2,1,2.2,2,3.2,3.1
		c1.3,1.5,2.4,3,3.3,4.5c0.5,0.9,1,1.8,1.4,2.6c0.2,0.5,0.5,1.1,0.7,1.6c0.4,1,0.7,2.1,0.9,3.1c0.1,0.6,0.2,1.3,0.3,1.9
		c0.1,0.6,0.1,1.1,0.2,1.6C357.3,243.3,357.2,244.6,357.1,245.9z M341.3,210.2c0.6-0.7,1.1-1.5,1.7-2.4c0.7,1.7,1.6,3.3,2.8,4.8
		C344.3,211.7,342.8,210.9,341.3,210.2z M367.2,204.1c-0.1,0.5-0.3,1-0.5,1.4c-0.8,1.6-2,3-3.6,3.9c0,0-0.1,0-0.1,0.1
		c-2.1,1.2-4.5,1.5-6.8,0.9c-4.7-1.3-7.5-6.2-6.2-11c1.1-3.9,4.7-6.5,8.6-6.5c0.8,0,1.6,0.1,2.4,0.3c2.3,0.6,4.2,2.1,5.4,4.1
		C367.5,199.4,367.8,201.8,367.2,204.1z M94.9,216.6c0.1,3.2-0.4,5.4-1.3,7.6c-0.3,0.8-0.6,1.6-1,2.4c-1.9,4.5-8.5,6-12.7,4.2
		c-1.8-0.7-3.9-2.3-2-6.7c0.8-1.8,2.5-2.6,5.9-2.6c0.9,0,2,0.1,3.1,0.2c0.2,0,0.3,0,0.5,0c2,0,3.6-1.5,3.9-3.5
		c0.1-0.6,0-1.1-0.1-1.6c-0.4-1.4-1.7-2.6-3.2-2.8c-7.3-1-10.5-3.4-10.5-5.1c0.1-1.8,3-4.7,6.9-5c5.1-0.3,8.8,4.2,10.4,12.3
		C94.8,216.2,94.9,216.4,94.9,216.6z M337.9,307.8c-0.4-0.9-0.9-1.8-1.5-2.7c1.4,1,2.8,1.9,4.2,2.8
		C339.8,307.9,338.9,307.8,337.9,307.8z M415,190.9C415,190.9,415,190.9,415,190.9l-0.4-0.3c-2.6-2.4-4.3-4-5.7-7.7
		c-2.1-8.3-0.4-14.1,4.5-15.9c3.8-1.4,7.7,0.1,8.5,1.7c0.7,1.5-1.3,4.9-7.6,8.7c-1.8,1.1-2.4,3.5-1.4,5.4c1.1,1.9,3.5,2.5,5.3,1.5
		c4.9-2.7,7.5-3.1,9.4-1.4c1.7,1.6,2.5,3.1,2.2,4.5c-0.4,1.9-2.9,4-5.9,4.9C420.5,193.4,417.1,192.9,415,190.9z"/>
	<path class="st0" d="M133.8,226.6c1.3,0.3,2.7,0.6,4.1,0.6c0.1,0,0.2,0,0.3,0c1.4,0,2.7-0.2,4-0.5c7.2-1.8,12.6-8.2,12.7-16
		c0.1-4.5-1.6-8.7-4.7-11.9c-3.1-3.2-7.3-5-11.8-5.1c-3.2-0.1-6.3,0.8-9,2.5c-1,0.6-2,1.4-2.9,2.3c-1.1,1.1-2,2.3-2.8,3.6
		c-1.4,2.4-2.2,5.2-2.3,8.1c-0.1,4.5,1.6,8.7,4.7,12C128.3,224.2,130.9,225.8,133.8,226.6z M133.2,203c1.4-0.9,3.1-1.5,4.9-1.5
		c0,0,0.1,0,0.1,0c2.4,0,4.6,1,6.2,2.7c1.6,1.7,2.5,3.9,2.5,6.3c0,0,0,0,0,0c-0.1,4.3-3.2,7.8-7.2,8.6c-0.6,0.1-1.2,0.2-1.8,0.1
		c-2.4,0-4.6-1-6.2-2.7c-1.7-1.7-2.5-4-2.5-6.3c0-2.3,1-4.5,2.7-6.1C132.4,203.7,132.8,203.3,133.2,203z"/>
	<path class="st0" d="M324.5,319.1c-9-2.5-18.3,2.8-20.7,11.7c-2.5,9,2.8,18.3,11.7,20.7c1.5,0.4,3,0.6,4.5,0.6
		c7.4,0,14.2-4.9,16.2-12.3c1.2-4.3,0.6-8.9-1.6-12.8C332.4,323.1,328.8,320.3,324.5,319.1z M317.6,343.9c-4.7-1.3-7.5-6.2-6.2-11
		c1.1-3.9,4.7-6.5,8.6-6.5c0.8,0,1.6,0.1,2.4,0.3c2.3,0.6,4.2,2.1,5.4,4.2c1.2,2.1,1.5,4.5,0.8,6.8
		C327.3,342.4,322.4,345.2,317.6,343.9z"/>
	<path class="st0" d="M190.6,135C190.7,135,190.7,135,190.6,135c0.6,0.3,1.2,0.4,1.8,0.4c1.5,0,2.9-0.8,3.6-2.2l0.2-0.4
		c0.1-0.2,0.2-0.5,0.3-0.8c0.4-1.4-0.1-2.8-1-3.8c-0.3-0.3-0.6-0.6-1-0.8c-1-0.5-2.2-0.5-3.1-0.1c-0.3,0.1-0.6,0.3-0.8,0.5
		c-0.5,0.4-1,0.9-1.3,1.5l-0.2,0.4c-0.1,0.2-0.2,0.4-0.2,0.6c-0.1,0.3-0.1,0.5-0.2,0.8c-0.1,1.3,0.4,2.6,1.4,3.5
		C190.2,134.7,190.4,134.9,190.6,135z"/>
	<path class="st0" d="M180.1,142.5c1-0.3,1.9-1,2.5-2l0.2-0.4c1-2,0.2-4.3-1.8-5.3c-0.5-0.3-1-0.4-1.6-0.4c-1.5-0.1-3,0.7-3.7,2.2
		l-0.1,0.1l-0.2,0.3c0,0.1,0,0.1-0.1,0.2c-0.6,1.4-0.3,3.1,0.6,4.2c0.1,0.1,0.3,0.3,0.4,0.4c0.2,0.2,0.5,0.4,0.8,0.5
		c0.6,0.3,1.2,0.4,1.8,0.4C179.4,142.7,179.8,142.6,180.1,142.5z"/>
	<path class="st0" d="M195.9,141.8c-1.7-1.3-4.2-1-5.6,0.8l-0.3,0.4c-0.2,0.3-0.4,0.6-0.5,0.9c-0.3,0.7-0.4,1.4-0.3,2.2
		c0.2,1,0.7,1.9,1.5,2.5c0.7,0.5,1.6,0.8,2.4,0.8c1.2,0,2.4-0.5,3.2-1.6l0.3-0.4C198,145.7,197.7,143.2,195.9,141.8z"/>
	<path class="st0" d="M180.4,157.6c0.4,0.2,0.9,0.3,1.3,0.3c0.1,0,0.2,0,0.3,0c1.5,0,2.9-0.8,3.6-2.2l0.2-0.4
		c0.3-0.7,0.4-1.4,0.4-2.1c0,0,0,0,0,0c-0.1-1.3-0.9-2.6-2.2-3.2c-0.2-0.1-0.4-0.2-0.6-0.2c-1.8-0.6-3.8,0.2-4.7,2l-0.2,0.4
		c-0.3,0.6-0.4,1.3-0.4,2C178.2,155.6,178.9,156.9,180.4,157.6C180.3,157.5,180.3,157.5,180.4,157.6z"/>
	<path class="st0" d="M205.1,152.5c0.6,0.3,1.2,0.4,1.8,0.4c1.4,0,2.8-0.8,3.5-2.1c0,0,0-0.1,0.1-0.1l0.2-0.4
		c0.1-0.2,0.2-0.5,0.3-0.7c0.1-0.5,0.2-1,0.1-1.5c0-0.3-0.1-0.5-0.2-0.8c-0.2-0.7-0.7-1.4-1.2-1.9c-0.2-0.2-0.5-0.4-0.8-0.5
		c-2-1-4.3-0.2-5.3,1.8l-0.2,0.4c-0.4,0.8-0.5,1.7-0.3,2.6C203.2,150.9,203.9,152,205.1,152.5z"/>
	<path class="st0" d="M241.2,231.6c0.1,0,0.2,0,0.3,0c2.2,0,4-1.8,4-4v-0.7c0-0.3,0-0.5-0.1-0.8c-0.3-1.6-1.6-2.9-3.3-3.1
		c-0.2,0-0.4-0.1-0.6-0.1c-1.2,0-2.3,0.5-3,1.4c-0.4,0.4-0.7,1-0.8,1.6c-0.1,0.3-0.1,0.7-0.1,1v0.5v0.2c0,0.5,0.1,1,0.3,1.4
		c0.4,1,1.1,1.7,2,2.2C240.3,231.5,240.8,231.6,241.2,231.6z"/>
	<path class="st0" d="M230.2,239.6c-0.7,0-1.3,0.2-1.9,0.5c-1.2,0.7-2.1,2-2.1,3.5v0.4v0.3c0,0.1,0,0.1,0,0.2c0.1,1.8,1.3,3.2,3,3.6
		c0.3,0.1,0.6,0.1,0.9,0.1c2.2,0,4-1.8,4-4v-0.7C234.2,241.4,232.4,239.6,230.2,239.6z"/>
	<path class="st0" d="M251.1,238.9c-2.2,0-4,1.8-4,4v0.7c0,2.2,1.8,4,4,4c2.2,0,4-1.8,4-4v-0.7C255.1,240.7,253.3,238.9,251.1,238.9
		z"/>
	<path class="st0" d="M243,255.8c-0.2,0-0.3,0-0.4,0c-2,0.2-3.5,1.9-3.5,3.9v0.7c0,0.9,0.3,1.7,0.8,2.4c0.7,1,1.9,1.6,3.1,1.6
		c0.2,0,0.4,0,0.5-0.1c1.9-0.3,3.4-1.9,3.4-3.9v-0.7c0-0.7-0.2-1.4-0.5-2C245.8,256.6,244.5,255.8,243,255.8z"/>
	<path class="st0" d="M261.9,255.1c-1.8,0-3.3,1.2-3.8,2.9c-0.1,0.4-0.2,0.7-0.2,1.1v0.7c0,1.5,0.9,2.8,2.2,3.5
		c0.5,0.3,1.2,0.5,1.8,0.5c0.4,0,0.7-0.1,1-0.2c0.5-0.1,0.9-0.3,1.3-0.6c1-0.7,1.6-1.9,1.6-3.2v-0.7
		C265.8,256.9,264,255.1,261.9,255.1z"/>
	<path class="st0" d="M265.3,238.8v0.7c0,1,0.4,1.8,0.9,2.5c0.7,0.9,1.8,1.5,3.1,1.5c2.2,0,4-1.8,4-4v-0.7c0-0.5-0.1-0.9-0.2-1.3
		c-0.1-0.2-0.2-0.4-0.3-0.7c-0.2-0.4-0.5-0.7-0.8-1c-0.7-0.6-1.6-1-2.6-1C267.1,234.8,265.3,236.6,265.3,238.8z"/>
</g>
</svg>
