<?xml version="1.0" encoding="utf-8"?>
<!-- Generator: Adobe Illustrator 27.2.0, SVG Export Plug-In . SVG Version: 6.00 Build 0)  -->
<svg version="1.1" id="Layer_1" xmlns="http://www.w3.org/2000/svg" xmlns:xlink="http://www.w3.org/1999/xlink" x="0px" y="0px"
	 viewBox="0 0 500 500" style="enable-background:new 0 0 500 500;" xml:space="preserve">
<style type="text/css">
	.st0{fill:#808080;}
</style>
<g>
	<path class="st0" d="M494,306.3C494,306.2,494,306.2,494,306.3C494,306.2,494,306.2,494,306.3L494,306.3c-0.4-1.4-1.3-2.5-2.6-3.2
		c-7.9-4.3-16.1-7.9-24.1-11.4c-20.5-9-39.8-17.5-54.4-36.3c-5.7-7.4-11-15-16.1-22.3c-14.1-20.5-27.4-39.8-48.8-50.3
		c-22.6-11.1-53.6-18.3-79.8-9.8c-0.3-0.9-0.6-1.8-0.9-2.7c1.4-2.4,2.6-4.8,3.6-7.2l0.4,0c53.8-2.8,88.5-16.9,102.9-41.7
		c11-18.9,6.7-38.4,2.5-47.1c-6.3-16-20.4-25.1-37.6-24.3c-23.7,1.1-54.7,21.9-70.4,65.1c-14.8-47.2-47.5-70-72.4-71.2
		c-17.3-0.8-31.3,8.2-37.6,24.2l-0.1,0.2c-3.4,7.7-10.2,27.7,1.2,47.3c10.6,18.2,33.8,30.7,69,37.2c-1.1,1.7-2,3.5-2.7,5l-0.4,0.9
		c-0.6,1.3-0.7,2.8-0.2,4.2l0,0.1c-24.7-5.8-52.8,1.2-73.6,11.5c-21.4,10.7-34.9,30-49.1,50.6c-5,7.3-10.3,14.8-16,22.1
		c-14.6,18.8-33.9,27.3-54.4,36.2c-8,3.5-16.2,7.1-24.1,11.4c-1.3,0.7-2.1,1.8-2.5,3.1l0,0c0,0,0,0,0,0c0,0,0,0,0,0.1
		c-6.1,20,25.5,49.3,55.9,72.1c-7.4,14.8-4.1,33.4,9,44.6c6.7,5.7,15,8.8,23.7,8.8c1,0,2.1,0,3.1-0.1c9.7-0.8,18.6-5.4,25.1-12.9
		c0.1-0.1,0.2-0.2,0.3-0.3c23.3,13.1,71.3,38.1,99.4,38.1c7.1,0,12.9-1.6,16.7-5.4c0.1-0.1,0.1-0.1,0.2-0.1c0,0,0,0,0.1-0.1l0,0
		c0.9-0.9,1.5-2.1,1.5-3.5c0.3-8.9-0.2-17.8-0.6-26.4c-1.1-22.1-2.2-43,7.6-64.4c1.3,2.5,2.5,5,3.8,7.5c10.3,21.5,9.2,42.7,8.2,65.1
		c-0.4,8.7-0.9,17.7-0.6,26.6c0,1.4,0.6,2.6,1.5,3.5l0,0c0,0,0.1,0,0.1,0.1c0.1,0.1,0.1,0.1,0.2,0.2c3.8,3.7,9.6,5.3,16.6,5.3
		c28.2,0,76.7-25.3,99.2-37.9c0.1,0.1,0.2,0.2,0.3,0.4c7.3,8.6,17.8,13,28.2,13c8.4,0,16.8-2.9,23.7-8.7
		c7.5-6.4,12.1-15.4,12.9-25.2c0.5-6.8-0.8-13.5-3.8-19.4C468.8,355.5,500.1,326.3,494,306.3z M463.2,301.4c3.1,1.3,6.2,2.7,9.3,4.1
		c-95.9,20.2-168.3,73.9-202.4,122.5c0.1-2.3,0.2-4.7,0.3-7c1-20.6,2-41.8-6.3-63.4c30.5-37,71.8-76,145.2-90.2
		C424.9,284.6,444.3,293.1,463.2,301.4z M431.4,396.9c-0.6,7-3.8,13.4-9.2,18c-10.5,9-26.3,8-35.9-2c-0.4-0.4-0.7-0.7-1.1-1.1
		c-2.2-2.5-3.9-5-5.2-7.5c-4-7.7-3.7-14.9,0.9-21.5c1.7-2.4,1.1-5.6-1.3-7.3l-19.6-14l19.7-11.3l8.9,16.6c1.3,2.5,4.4,3.5,7,2.3
		c10.6-5.1,21,0,27.8,7c0.6,0.6,1.1,1.2,1.6,1.7c1.8,2.1,3.2,4.5,4.3,7C431,388.5,431.7,392.7,431.4,396.9z M129.1,401
		c4.9-9,6.1-18.3,3.3-26.5c-0.4-1.1-0.8-2.2-1.3-3.3l16.4-14c35.9,23.2,62.8,50.3,78.5,75.4c0.9,1.4,1.7,2.8,2.5,4.1
		C215.8,440.4,178.6,429,129.1,401z M114.8,403.2c-0.3,0.4-0.7,0.8-1.1,1.1c-4.5,4.7-10.4,7.6-16.9,8.1c-7,0.6-13.7-1.6-19.1-6.2
		c-8.9-7.6-11.4-19.9-7.2-30.2c0.7-1.6,1.5-3.1,2.5-4.6c0.5-0.8,1.1-1.6,1.8-2.3c0.5-0.6,1.1-1.2,1.6-1.7c5.4-5.6,11.8-8.5,18.1-8.5
		c3.3,0,6.5,0.8,9.7,2.3c1.9,1,4.2,0.6,5.8-0.7c0.4-0.4,0.8-0.8,1.1-1.3l10.1-17.2l16.6,9.5L120.8,366c-0.3,0.2-0.5,0.5-0.8,0.8
		c-1.4,1.8-1.5,4.3-0.1,6.2c5.6,7.9,3.4,16.4,0,22.7c-0.9,1.7-1.9,3.2-2.8,4.5C116.3,401.4,115.5,402.4,114.8,403.2z M23.5,306.9
		c32.4,6.6,62.1,17.2,88.4,30.1l-7.6,13c-4.4-1.4-9-1.8-13.5-1.3c-8.2,1-16.3,5.2-22.9,12.5c-30-22.6-49.8-43.5-51.9-55.7
		C18.5,305.9,21,306.4,23.5,306.9z M122.1,330.4l-0.2-0.1c-0.1,0-0.1,0-0.2-0.1c-27.8-14.3-59.4-26-94.1-33.3
		c3.1-1.4,6.2-2.8,9.3-4.1c18.9-8.3,38.3-16.8,53.9-34c3.8,0.7,7.6,1.5,11.2,2.4c60.2,14.3,97.6,46,125.6,77.9
		c2.9,3.3,5.7,6.6,8.4,9.9c-8.4,21.8-7.3,43.1-6.3,63.8c0.1,2.2,0.2,4.4,0.3,6.7C208.3,388.5,171,355.5,122.1,330.4z M240.8,338.3
		c-30.6-36.4-71.9-73.7-142.5-88.7c4.7-6.3,9.1-12.6,13.4-18.8c13.4-19.4,26.1-37.7,45.1-47.1c21.1-10.4,50.1-17.2,73.4-8.6
		c0.2,0.1,0.5,0.2,0.7,0.3c3.1,1.2,6,2.6,8.8,4.3c0.1,0.1,0.2,0.1,0.4,0.2c2.4,1.5,4.6,3.1,6.7,5c0.9,0.8,1.8,1.6,2.7,2.5
		c1.2,1.2,2.4,2.5,3.5,3.8c0.4,0.5,0.8,0.9,1.2,1.4c0.7,0.9,1.4,1.8,2.1,2.8c12.6,17.6,17.5,42.1,17.5,61.1
		c0.1,21.1-10.6,40.5-21.9,61c-1.4,2.5-2.8,5-4.2,7.6c-2,3.7-4,7.4-5.9,11.2C241.4,337,241.1,337.7,240.8,338.3z M258.5,164.4
		c-0.9,1.6-2,3.2-3.3,4.8c-1.4,1.7-3.1,3.4-5,5c-1.5-1.1-3-2.2-4.6-3.2c-1.3-0.8-2.7-1.6-4-2.3c0.9-3.9,2.6-7.4,4.9-10.8
		c0.6-0.8,1.2-1.7,1.8-2.5c0.5-0.6,0.9-1.2,1.4-1.8c0.9-1,1.8-2.1,2.8-3.1c0.3-0.3,0.5-0.5,0.8-0.8c0.4-0.4,0.8-0.8,1.1-1.2
		c0.4-0.4,0.7-0.7,1.1-1.1c2.4-0.5,4-0.3,5.2,0.5c1.2,0.8,2,2.4,3.1,4.6c-0.8,2.2-1.6,4.4-2.6,6.5
		C260.5,160.8,259.6,162.6,258.5,164.4z M278.8,151.9c-0.8,0.1-1.6,0.1-2.5,0.2l-0.3-10.9c3,0.2,6.5,0,10.2-0.4
		c17.4-2.2,41.4-11.2,57.9-23.1c14.5-10.5,22.9-22.3,24.7-34.7c2.4,7.7,3.6,20.6-3.7,33.1C353.5,136.1,323.7,148.4,278.8,151.9z
		 M358.5,74.1c2,15.1-9.9,27.3-20.5,35c-13.7,9.9-30.2,16.2-43.2,19.4C318.6,95,341.3,74.7,356.2,74C357,74,357.8,74,358.5,74.1z
		 M197.6,102.9c-10.6-7.7-22.5-19.8-20.5-35c0.7-0.1,1.4-0.1,2.2-0.1c15.1,0.7,37.4,20.6,61.5,54.4
		C227.8,119.1,211.3,112.8,197.6,102.9z M166.7,76.8c1.9,12.4,10.3,24.2,24.7,34.6c16.5,11.9,40.5,21,57.9,23.1
		c2.2,0.3,4.3,0.5,6.2,0.5l-1,1.8c-1,0.1-2,0.3-3,0.6c-0.1,0-0.1,0.1-0.2,0.1c-0.8,0.2-1.5,0.6-2.1,1.2c-1.8,1.7-3.6,3.5-5.3,5.4
		c-39-5.1-64.8-16.8-74.8-34.1C161.8,97.6,164.1,84.6,166.7,76.8z M339.7,60.5c5.6-0.3,10.6,0.8,14.8,3
		c-25.5,2.2-54.8,38.3-74.3,67.2c-1.3,0.1-2.5,0.1-3.5,0l-0.9-3.6C288.9,82.8,318,61.5,339.7,60.5z M195.9,54.4
		c21.7,1,50.7,22.3,63.6,66.6l-0.8,3.6c-1,0.1-2.1,0.1-3.4,0c-19.5-28.8-48.8-64.9-74.2-67.2C185.4,55.1,190.3,54.1,195.9,54.4z
		 M235.6,438.5L235.6,438.5L235.6,438.5C235.6,438.5,235.6,438.5,235.6,438.5z M261.1,322.7c12-21.8,23.3-42.4,23.2-66.2
		c0-21.5-5.3-47.4-19-66.8l2.2-1.4c1.6-1,2.5-2.7,2.5-4.6c0-0.1,0-0.1,0-0.2c23.4-8.4,52.4-1.6,73.5,8.7
		c18.9,9.3,31.5,27.5,44.8,46.8c4.3,6.2,8.8,12.7,13.5,19c-70.7,15.1-111.9,52.4-142.5,88.7c-1.8-3.6-3.6-7.2-5.5-10.6
		C256.1,331.7,258.6,327.1,261.1,322.7z M271.6,445.1c15.5-26.6,43.6-54.5,77.8-77.2c0.3-0.2,0.5-0.3,0.8-0.5l19.4,13.8
		c-4.4,8.9-3.9,18.6,1.3,28.3C321.5,437.5,284.2,448.9,271.6,445.1z M456.7,349.6c-7.1,6.4-15.4,13.2-24.5,20.1
		c-10.4-11.4-23.8-15.8-36.2-12.1l-6.7-12.4c29.8-14.6,61.8-25.2,94.7-31.2C482.7,319.9,477.1,331,456.7,349.6z"/>
</g>
</svg>
