<?xml version="1.0" encoding="utf-8"?>
<!-- Generator: Adobe Illustrator 27.2.0, SVG Export Plug-In . SVG Version: 6.00 Build 0)  -->
<svg version="1.1" id="Layer_1" xmlns="http://www.w3.org/2000/svg" xmlns:xlink="http://www.w3.org/1999/xlink" x="0px" y="0px"
	 viewBox="0 0 500 500" style="enable-background:new 0 0 500 500;" xml:space="preserve">
<style type="text/css">
	.st0{fill:#808080;}
</style>
<g>
	<path class="st0" d="M362,335.7c0-0.3-0.1-0.5-0.1-0.8c0,0,0-0.1,0-0.1c0,0,0,0,0-0.1c0,0,0,0,0,0c-4.9-18.1-16.5-39.9-33.3-62.9
		l0.2-0.2l17.2,1.1c1.8,0.1,3.6-0.8,4.6-2.3c1-1.6,1.1-3.5,0.2-5.2l-8-14.6l6.5-15.9c0.7-1.7,0.4-3.7-0.8-5.1
		c-1.2-1.4-3-2.1-4.9-1.8L327,231l-13-11c-1.4-1.2-3.4-1.5-5.1-0.9c-1.7,0.7-3,2.2-3.2,4.1l-2.2,16.6l-0.6,0.4
		c-7.7-8.6-16-17.3-24.8-25.8c-3.1-3-6.2-5.9-9.3-8.8c16.1-18.5,25.2-35.4,29.9-50.2c4.5-0.4,8.8-2.2,12.3-5.6c0,0,0.1-0.1,0.1-0.1
		c7.6-7.8,7.6-20.1-0.1-28c-2.6-2.5-5.6-4.2-8.8-5c-1.2-7.3-3.2-13.2-5.1-17.2c-9.5-20.9-29.8-34.7-49.4-33.4
		c-16.7,1.1-29.5,12.5-35.2,31.3c-5,16.2,4.9,29.7,17.2,34.7c11.1,4.5,25.8,2.4,33.5-12.6c1.3-2.5,0.3-5.5-2.2-6.8
		c-2.5-1.3-5.5-0.3-6.8,2.2c-5.1,9.9-14.1,10.6-20.7,7.9c-8-3.3-14.5-12-11.3-22.4c4.5-14.7,13.7-23.3,26.1-24.1
		c15.5-1,31.7,10.3,39.5,27.4c1.4,3.2,3,7.6,4,13.1c-3.2,0.9-6.3,2.6-8.9,5.1c-7.6,7.8-7.6,20.1,0.1,28c1.7,1.6,3.6,2.9,5.5,3.8
		c-4.4,13.2-12.7,28.4-27.3,45.2c-36-32.1-71-54-94.1-58.5c0,0-0.1,0-0.1,0c-0.3-0.1-0.6-0.1-0.9-0.1c0,0,0,0,0,0c0,0,0,0,0,0
		c0,0,0,0,0,0c-0.3,0-0.6,0-0.9,0.1c-0.1,0-0.1,0-0.2,0c-0.2,0.1-0.5,0.1-0.7,0.2c-0.1,0-0.1,0-0.2,0.1c-0.6,0.2-1.1,0.6-1.5,1
		c-0.1,0.1-0.1,0.1-0.2,0.2c-0.2,0.2-0.3,0.3-0.4,0.5c0,0.1-0.1,0.1-0.1,0.2c-0.2,0.2-0.3,0.5-0.4,0.8l0,0l0,0l-15.7,37.2l-0.1,0.1
		l-11.7,27.8c-0.4,0.6-0.7,1.3-0.8,2L61.3,381c-0.1,0.1-0.2,0.2-0.3,0.3c-1.1,1.1-1.5,2.5-1.4,3.9l-16.6,39.4
		c-0.3,0.5-0.6,1.1-0.7,1.7l-20.1,47.7c-0.8,1.9-0.4,4.1,1.1,5.6c1,1,2.3,1.5,3.6,1.5c0.7,0,1.3-0.1,2-0.4L359,340.8
		c0.1,0,0.1-0.1,0.2-0.1c0.1,0,0.2-0.1,0.3-0.1c0.2-0.1,0.4-0.2,0.5-0.3c0.1,0,0.1-0.1,0.2-0.1c0.2-0.2,0.4-0.4,0.6-0.6
		c0,0,0.1-0.1,0.1-0.1c0.1-0.2,0.3-0.4,0.4-0.6c0-0.1,0.1-0.2,0.1-0.2c0.1-0.2,0.2-0.4,0.3-0.6c0-0.1,0.1-0.1,0.1-0.2
		c0.1-0.3,0.2-0.6,0.2-0.8c0-0.1,0-0.1,0-0.2c0-0.2,0-0.3,0-0.5c0-0.1,0-0.1,0-0.2C362,335.9,362,335.8,362,335.7z M290.2,142.5
		c-3.8-3.9-3.8-9.9-0.1-13.7c0.8-0.8,1.8-1.4,2.7-1.9c1.3-0.6,2.7-0.9,4.2-0.9c2.1,0,4.2,0.7,6,2.1c0.3,0.2,0.5,0.4,0.8,0.7
		c3.7,3.8,3.8,9.8,0,13.7c-0.7,0.7-1.5,1.2-2.3,1.7c-3.3,1.7-7.2,1.4-10.2-0.7C291,143.2,290.6,142.9,290.2,142.5z M313.2,243.4
		l1.3-9.8l7.8,6.6c1.2,1,2.7,1.4,4.2,1.1l9.7-1.8l-3.9,9.5c-0.6,1.4-0.5,3,0.3,4.4l4.7,8.6l-10.3-0.7c-1.5-0.1-3,0.5-4,1.6l-0.6,0.6
		l-6.1,6.5l-2.5-10c-0.4-1.5-1.4-2.7-2.7-3.3l-8.9-4.2l7.4-4.7l1.3-0.8C312.1,246.3,313,244.9,313.2,243.4z M166.4,157.9
		c5.2,11.1,11,21.9,17.1,32.3c-6.4,0-20.3-5.3-26.8-9.3L166.4,157.9z M152.8,190.2c8.6,5,22.7,10.1,30.9,10.1c0.2,0,0.4,0,0.6,0
		c1.7-0.1,3.2-0.9,4-2.3c9.8,15.8,20.7,30.6,32.6,44.4c-25-4.2-63.1-20.6-76.6-32.2L152.8,190.2z M140.2,219.9
		c19.5,14.8,65.7,33.3,90.6,33.6c3.2,3.4,6.5,6.8,9.9,10.1c14.2,14,29.9,27,46.8,38.8c-49.7,0.2-138.2-27-160.8-47.7
		c-0.3-0.3-0.6-0.5-0.9-0.7L140.2,219.9z M121.7,263.8c26.6,21.9,114,48.8,165.5,48.8c5.1,0,9.9-0.3,14.2-0.9
		c13.6,8.7,28,16.8,43.2,24.1l-2,0.9c-0.6,0-1.2,0-1.7,0.2c-27.2,8.3-74.6,7.1-126.8-3.3c-47.4-9.4-88.4-24.4-105.5-38.5
		L121.7,263.8z M36.3,466.3l13.1-31.1c7.7,4.7,19.9,9.5,31.2,12.4L36.3,466.3z M98.9,439.8c-11.8,0.9-36.1-7.8-45.5-14.1l13.7-32.5
		c16.4,11.1,50.3,23.6,76.4,27.7L98.9,439.8z M164.7,412c-0.5-0.1-1-0.1-1.5-0.1c-23,2.4-74.7-15-92.1-28.2l14.4-34.1
		c25,17.3,87.5,36.9,131.4,40.2L164.7,412z M241.6,379.4c-38.4,5.8-126-19.3-152-39.3l14.9-35.4c19.7,14.7,60,29.3,107.6,38.8
		c29.8,5.9,58.2,8.9,82.4,8.9c3.9,0,7.7-0.1,11.4-0.2L241.6,379.4z M305.5,302.5c-0.2-0.1-0.4-0.3-0.6-0.4
		c-25.3-16.3-47.8-35-67.5-56.2c-0.4-0.7-0.9-1.3-1.6-1.7c-24.3-26.5-44.4-56.8-60.5-91.1c20.9,7.7,49.8,27.1,79.1,53.1
		c-1.3,1.4-2.6,2.7-4,4.1c-2,2-2,5.2,0,7.2c1,1,2.3,1.5,3.6,1.5c1.3,0,2.6-0.5,3.6-1.5c1.5-1.5,2.9-3,4.3-4.5c3,2.8,6,5.6,9,8.5
		c8.2,8,15.9,16,23.2,24l-5.1,3.2c-1.6,1-2.5,2.7-2.4,4.6c0.1,1.8,1.2,3.5,2.9,4.3l15,7.2l4.2,16.7c0.5,1.8,1.9,3.2,3.6,3.7
		c0.4,0.1,0.8,0.2,1.3,0.2c1.4,0,2.7-0.6,3.7-1.6l4.2-4.5c12.2,16.9,21.4,32.9,26.9,47.2C333.3,319.1,319,311.1,305.5,302.5z"/>
	<path class="st0" d="M288.3,60.7l15.9,4.8l6.5,15.9c0.7,1.7,2.3,2.9,4.1,3.1c0.2,0,0.4,0,0.6,0c1.6,0,3.2-0.8,4.1-2.2l9.7-13.8
		l17-1.2c1.8-0.1,3.5-1.3,4.2-3c0.8-1.7,0.6-3.7-0.6-5.1l-10-13.4l4-16.7c0.4-1.8-0.2-3.7-1.5-4.9c-1.4-1.2-3.3-1.6-5.1-1l-15.7,5.4
		L307,19.8c-1.6-1-3.6-1-5.2-0.1s-2.6,2.6-2.6,4.5l0.2,16.6L286.4,52c-1.4,1.2-2,3.1-1.7,4.9C285.1,58.7,286.5,60.2,288.3,60.7z
		 M307.9,47c1.1-1,1.8-2.4,1.8-3.9l-0.1-9.7l8.7,5.4c1.3,0.8,2.9,1,4.3,0.5l9.2-3.2l-2.4,10c-0.3,1.5,0,3,0.9,4.2l5.9,7.9L326,58.7
		c-1.5,0.1-2.9,0.9-3.8,2.1l-5.7,8.1l-3.9-9.5c-0.6-1.4-1.8-2.5-3.2-2.9l-9.4-2.8L307.9,47z"/>
	<path class="st0" d="M444.7,175.2c-16.3-7.4-60.4-18.3-118,39.5c-2,2-2,5.2,0,7.2c2,2,5.2,2,7.2,0c1.4-1.4,2.7-2.7,4-3.9
		c51.1-48.8,88.6-39.8,102.6-33.5c17.2,7.8,28.6,24.1,27.5,39.6c-0.8,12.4-9.4,21.7-24.1,26.2c-10.4,3.2-19.1-3.3-22.4-11.3
		c-2.7-6.6-2-15.6,7.9-20.7c2.5-1.3,3.5-4.3,2.2-6.8c-1.3-2.5-4.3-3.5-6.8-2.2c-2.8,1.4-5.1,3.1-7,4.9c-8.5,8.1-9.3,19.5-5.6,28.6
		c4.1,10,13.9,18.5,26.2,18.5c2.7,0,5.6-0.4,8.5-1.3c18.8-5.7,30.2-18.5,31.3-35.2C479.5,205.1,465.8,184.7,444.7,175.2z"/>
	<path class="st0" d="M299.3,193.8c-1.7,2.2-1.3,5.4,0.9,7.1c0.9,0.7,2,1.1,3.1,1.1c1.5,0,3-0.7,4-2c2.1-2.8,4.3-5.4,6.5-8
		c17.2-20.3,35.7-34.6,56.6-43.6c16.5-7.2,33.7-10.6,51.1-10.1c0.4,1,0.8,1.9,1.3,2.9c0.9,1.7,2.1,3.2,3.5,4.6
		c4.1,4.1,9.4,6.1,14.7,6.1c5.3,0,10.6-2,14.7-6.1c0,0,0,0,0,0c8.1-8.1,8.1-21.4,0-29.5c-3.9-4-9.1-6.2-14.7-6.2c0,0,0,0,0,0
		c-5.6,0-10.8,2.2-14.7,6.2c-3.3,3.3-5.3,7.5-5.9,11.9c-18.4-0.3-36.5,3.4-54,11C341.3,149.9,319.3,167.8,299.3,193.8z M430.5,128.7
		c0.4-1.9,1.4-3.8,3-5.3c2-2,4.6-3.1,7.5-3.1s5.5,1.1,7.5,3.2c4.3,4.3,4.3,10.9,0,15.2c-3.8,3.8-10.2,4.1-14.3,0.7
		c-0.3-0.2-0.5-0.4-0.8-0.7c-0.6-0.6-1-1.1-1.4-1.8c-0.6-1-1.1-2-1.4-3.1C430.1,132.1,430.1,130.4,430.5,128.7z"/>
	<path class="st0" d="M356.9,124.2c1.4,0,2.8-0.6,3.8-1.7c9.5-10.8,16.1-22.1,19.4-33.4c2.2-7.1,3.2-14.1,2.9-20.8
		c5.3-0.2,10.2-2.3,14-6.1c4-3.9,6.2-9.1,6.2-14.7c0-5.6-2.2-10.8-6.1-14.7c-3.9-4-9.1-6.2-14.7-6.2c-5.6,0-10.8,2.2-14.7,6.1
		c-4,3.9-6.2,9.1-6.2,14.7c0,5.6,2.2,10.8,6.1,14.7c1.5,1.6,3.3,2.9,5.2,3.8c0.2,1.5,0.2,3,0.2,4.5c0,5-0.8,10.2-2.5,15.7
		c-1.8,6.2-4.7,12.3-8.7,18.4c-2.5,3.8-5.3,7.6-8.6,11.3c-1.9,2.1-1.7,5.3,0.4,7.2C354.5,123.8,355.7,124.2,356.9,124.2z
		 M374.8,39.9c2-2,4.6-3.1,7.5-3.1c2.8,0,5.5,1.1,7.6,3.2c2,2,3.1,4.6,3.1,7.5c0,2.8-1.1,5.5-3.1,7.5c0,0-0.1,0.1-0.1,0.1
		c-2,2-4.6,3.1-7.5,3.1c-0.2,0-0.4,0-0.6,0c-2.6-0.2-5-1.2-6.9-3.2c-0.1-0.1-0.2-0.2-0.3-0.3c-1.8-1.9-2.8-4.5-2.8-7.2
		C371.6,44.6,372.7,41.9,374.8,39.9z"/>
	<path class="st0" d="M364.8,234c-3.8,3.7-5.9,8.7-5.9,14c0,5.3,2.1,10.3,5.8,13.9c3.7,3.8,8.7,5.9,14,5.9c5.3,0,10.2-2.1,13.9-5.8
		c3.8-3.7,5.8-8.6,5.8-13.9c0-5.3-2.1-10.3-5.8-13.9C384.9,226.4,372.4,226.4,364.8,234z M385.5,254.7
		C385.4,254.8,385.4,254.8,385.5,254.7c-1.9,1.9-4.2,2.9-6.8,2.9s-4.9-1-6.8-2.9c-1.8-1.8-2.8-4.2-2.8-6.7c0-2.6,1-4.9,2.9-6.8
		c1.8-1.8,4.3-2.7,6.7-2.7c2.5,0,5,0.9,6.8,2.8c1.8,1.8,2.8,4.2,2.8,6.7C388.3,250.6,387.3,252.9,385.5,254.7z"/>
	<path class="st0" d="M263.4,40.5c2.8,0,5.1-2.3,5.1-5.1s-2.3-5.1-5.1-5.1h0c-2.8,0-5.1,2.3-5.1,5.1S260.6,40.5,263.4,40.5z"/>
	<path class="st0" d="M400.7,95.1c0,2.8,2.3,5.1,5.1,5.1c2.8,0,5.1-2.3,5.1-5.1c0-2.8-2.3-5.1-5.1-5.1h0
		C402.9,90,400.7,92.3,400.7,95.1z"/>
	<path class="st0" d="M472.6,171.7c2.8,0,5.1-2.3,5.1-5.1s-2.3-5.1-5.1-5.1h0c-2.8,0-5.1,2.3-5.1,5.1S469.8,171.7,472.6,171.7z"/>
	<path class="st0" d="M260,158.7c0-2.8-2.3-5.1-5.1-5.1h0c-2.8,0-5.1,2.3-5.1,5.1c0,2.8,2.3,5.1,5.1,5.1
		C257.7,163.7,260,161.5,260,158.7z"/>
	<path class="st0" d="M427.7,70.4c2.8,0,5.1-2.3,5.1-5.1c0-2.8-2.3-5.1-5.1-5.1h0c-2.8,0-5.1,2.3-5.1,5.1
		C422.6,68.1,424.9,70.4,427.7,70.4z"/>
	<path class="st0" d="M396.6,207.7c0-2.8-2.3-5.1-5.1-5.1h0c-2.8,0-5.1,2.3-5.1,5.1c0,2.8,2.3,5.1,5.1,5.1
		C394.4,212.7,396.6,210.5,396.6,207.7z"/>
</g>
</svg>
