<?xml version="1.0" encoding="utf-8"?>
<!-- Generator: Adobe Illustrator 27.2.0, SVG Export Plug-In . SVG Version: 6.00 Build 0)  -->
<svg version="1.1" id="Layer_1" xmlns="http://www.w3.org/2000/svg" xmlns:xlink="http://www.w3.org/1999/xlink" x="0px" y="0px"
	 viewBox="0 0 500 500" style="enable-background:new 0 0 500 500;" xml:space="preserve">
<style type="text/css">
	.st0{fill:#808080;}
</style>
<g>
	<path class="st0" d="M132.1,305.9c5.3-5.5,8-14.4,8-26.9v-74.3h-19.9V279c0,7.5-1.2,12.4-3.6,14.8c-2.4,2.4-6.8,3.6-13.2,3.6
		c-2.4,0-6.7-0.3-12.6-0.7v15.6c3.7,1.1,9.1,1.7,15.8,1.7C118.2,314.2,126.7,311.4,132.1,305.9z"/>
	<path class="st0" d="M177.5,309.4c5.6,3.2,13,4.8,21.6,4.8c8.7,0,16-1.9,22-5.5c6-3.7,10.2-8,12.3-13.1c2-5.1,3.1-12.3,3.1-21.6
		v-69.2h-15.4V274c0,9.1-1.7,15.2-5.5,18.4c-3.6,3.1-8.4,4.7-14.4,4.7c-5.3,0-9.9-1.5-13.9-4.4c-4-3.1-6-9.2-6-18.7v-69.2h-19.8
		v70.7c0,8.4,1.2,15.5,3.7,21C167.7,301.9,171.9,306.3,177.5,309.4z"/>
	<path class="st0" d="M328.8,262.1c-3.7-5.5-11.2-9.6-22.3-12.4l-18.3-4.5c-10-2.5-15-6.8-15-13c0-3.9,1.6-7.1,4.7-9.6
		c3.2-2.5,7.9-3.7,13.9-3.7c10.4,0,17.1,4,19.9,12.2l18.4-4.5c-2-7.5-6.5-13.2-13.9-17.2c-7.3-4-15.5-6-24.8-6
		c-11.1,0-20.3,2.8-27.4,8.7c-7.2,5.7-10.7,13.5-10.7,23.1c0,4.8,0.9,9.3,2.9,13.6c2,4.3,4.8,7.6,8.1,10c3.3,2.3,8.5,4.4,15.6,6.1
		l20.6,5.5c5.5,1.3,9.1,3.3,10.8,5.9c1.6,2.4,2.5,5.2,2.5,8.1c0,4-1.9,7.3-5.6,10.1c-3.7,2.7-8.9,4.1-15.9,4.1
		c-15.1,0-23.8-5.3-26-16l-18.8,4c2.7,9.5,7.9,16.4,15.9,20.8c8.1,4.5,17.5,6.8,28.2,6.8c12.6,0,23-3.1,30.9-9.1
		c8-6.1,12-14.4,12-25.1C334.5,273.4,332.7,267.4,328.8,262.1z"/>
	<polygon class="st0" points="339.5,221.5 368.1,221.5 368.1,312.4 388.9,312.4 388.9,221.5 417.6,221.5 417.6,204.8 339.5,204.8 	
		"/>
	<polygon class="st0" points="122.7,356.1 111.8,322.7 97.2,322.7 97.2,374.7 104.8,374.7 104.8,329.3 119.2,374.7 124.2,374.7 
		138.5,329.3 138.5,374.7 148.1,374.7 148.1,322.7 133.4,322.7 	"/>
	<path class="st0" d="M171.2,322.7l-17.1,52h7.9l4.1-12.4H186l4.1,12.4h10l-17.4-52H171.2z M168.4,354.8l7.6-23.1l7.5,23.1H168.4z"
		/>
	<path class="st0" d="M247.1,338c0-4.4-1.5-8.1-4.4-10.9c-2.9-2.8-7.5-4.3-13.8-4.3h-22.4v52h9.3v-21.4h13.1l8,21.4h9.9l-9.1-23
		C244,349.2,247.1,344.6,247.1,338z M234.9,343.7c-1.6,1.5-4.1,2.1-7.5,2.1h-11.6v-15.6h12.3c2.9,0,5.2,0.7,6.8,2.1s2.4,3.2,2.4,5.5
		C237.3,340.4,236.5,342.4,234.9,343.7z"/>
	<path class="st0" d="M297.1,338c0-4.4-1.5-8.1-4.4-10.9c-2.9-2.8-7.6-4.3-13.9-4.3h-22.4v52h9.3v-21.4h13.1l8.1,21.4h9.9l-9.1-23
		C293.9,349.2,297.1,344.6,297.1,338z M284.9,343.7c-1.6,1.5-4.1,2.1-7.5,2.1h-11.6v-15.6h12.4c2.8,0,5.1,0.7,6.8,2.1
		c1.6,1.5,2.4,3.2,2.4,5.5C287.4,340.4,286.6,342.4,284.9,343.7z"/>
	<rect x="306.4" y="322.7" class="st0" width="9.3" height="52"/>
	<polygon class="st0" points="336.6,352.1 355.8,352.1 355.8,344.5 336.6,344.5 336.6,330.5 360.6,330.5 360.6,322.7 327.2,322.7 
		327.2,374.7 360.9,374.7 360.9,366.5 336.6,366.5 	"/>
	<path class="st0" d="M387.8,322.7h-19.1v52h17c8.3,0,14.6-2.5,19-7.5c4.4-4.9,6.5-11.1,6.5-18.4c0-7.3-2.1-13.5-6.4-18.4
		C400.5,325.3,394.9,322.7,387.8,322.7z M396.8,362.3c-2.9,3.2-6.5,4.7-10.7,4.7h-7.7v-36.7h8.8c4.3,0,7.6,1.7,10.2,5.2
		c2.5,3.5,3.7,7.7,3.7,12.8C401.1,354.5,399.7,359.2,396.8,362.3z"/>
	<path class="st0" d="M487.1,79.6c0.5-2.6-1.3-5.1-3.9-5.5c-2.6-0.5-5.1,1.3-5.5,3.9c-5.6,32.3-17.1,42.1-30.3,50.7
		c-5.8-3.4-12-6-18.6-7.7c10.8-7.3,21.7-16.8,26.6-45.5c0.4-2.6-1.3-5.1-3.9-5.5c-2.6-0.5-5.1,1.3-5.5,3.9
		c-4.3,25.2-12.8,32.7-22.7,39.3c-2.1,1.4-2.7,4.2-1.4,6.4c-3.8-0.6-7.7-0.9-11.7-0.9h-14.1c-0.1-3.1-0.7-5.4-2-8.4
		C390.5,103,383.8,98,376,97c-7-0.9-14,1.5-19.1,6.5c-4.7-4.7-11.1-7.1-18.1-6.7c-7.9,0.5-14.7,4.6-18.2,11c-1.5,2.8-2.8,6.4-3,10.7
		h-16.9c-0.4-2.8-1.1-5.2-2.5-7.9c-4.4-9.4-12.9-15.7-22.7-16.8c-9.2-1.1-18.3,2.4-24.8,9.4c-6-6.8-14.3-10.1-23.8-9.6
		c-9.9,0.6-18.5,5.9-22.9,14c-1.6,3-2.9,6.6-3.4,11h-21.9c-0.1-0.2-0.1-0.3-0.2-0.5c-3.5-7.4-10.3-12.4-18.1-13.4
		c-6.9-0.8-13.8,1.6-18.9,6.6c-4.7-4.7-10.9-7-18.1-6.8c-8.1,0.5-14.9,4.7-18.3,11.2c-0.5,0.9-0.9,1.8-1.3,2.8H87
		c-2.9,0-5.7,0.2-8.5,0.5c1-2.1,0.3-4.7-1.7-6c-9.9-6.6-18.4-14-22.6-39.3c-0.4-2.6-2.9-4.4-5.5-3.9c-2.6,0.4-4.4,2.9-3.9,5.5
		c4.7,28.1,15.2,37.9,25.8,45c-6.8,1.5-13.3,4-19.3,7.3c-12.7-8.3-23.5-18.5-29-49.8c-0.5-2.6-2.9-4.3-5.5-3.9
		c-2.6,0.5-4.3,2.9-3.9,5.5c5.7,32.1,17,44.8,29.7,53.8c-18.1,13.6-29.8,35.2-29.8,59.4v163c0,40.9,33.3,74.2,74.2,74.2h323.1
		c40.9,0,74.2-33.3,74.2-74.2v-163c0-23.7-11.2-44.8-28.5-58.4C469.3,125.4,481.4,113,487.1,79.6z M339.4,106.4
		c5.2-0.3,9.7,1.9,12.6,6.1c0,0,0.1,0.1,0.1,0.1c0.1,0.1,0.2,0.3,0.3,0.4c0.3,0.4,0.6,0.9,1.2,1.4c0.6,0.6,1.4,1.1,2.3,1.3
		c1.6,0.4,3.8,0,5.2-2.2c0.4-0.4,0.8-1,1.5-2c3.2-3.8,7.7-5.6,12.3-5c4.6,0.6,8.4,3.5,10.5,7.8c0.7,1.6,1,2.8,1.1,4.3
		c0,0.4,0,0.8,0,1.3c0,2.6-0.7,5.4-2,8.3c-3.8,8.1-12.9,17-27.3,26.7l-0.3,0.2l-1.7-1.1c-9.7-6.3-18.3-14.1-22.8-20.8
		c-1.2-1.7-2.2-3.4-3-5c-1.6-3.4-2.3-6.6-2.1-9.6c0.1-2.2,0.7-4.2,1.8-6.2C330.9,109,334.8,106.7,339.4,106.4z M227.6,103.2
		c0.5,0,0.9,0,1.4,0c6.8,0,12.5,3,16.5,8.7l0.4,0.5c0.5,0.7,1,1.4,1.6,1.9c0.7,0.7,1.6,1.1,2.5,1.3c2.1,0.3,4.1-0.7,5.2-2.5
		c0.1-0.2,0.3-0.3,0.4-0.5c0.4-0.5,0.8-1.1,1.3-1.6c0,0,0.1-0.1,0.1-0.1c4.5-5.6,10.9-8.3,17.5-7.5c6.6,0.8,12.1,5,15.2,11.5
		c0.7,1.4,1.1,2.5,1.4,3.8c0.3,1.2,0.4,2.4,0.4,4.1c0,1.8-0.2,3.6-0.7,5.5c-3,12.8-16,27-38.6,42.4l-1.4,0.9l-3.2-2.1c0,0,0,0,0,0
		c-12.7-8.3-24.2-18.8-30.6-28.1c-3.1-4.6-5.1-9-6.2-13.1c-0.8-3.3-1-6.5-0.5-9.6c0.4-2.2,1.1-4.4,2.2-6.4
		C215.3,107,221,103.7,227.6,103.2z M113.6,120.3c0.3-0.6,0.7-1.1,1.1-1.7c2.1-2.6,5.4-4.2,9.2-4.5c0.2,0,0.5,0,0.7,0
		c4.3,0,7.9,1.5,10.6,4.5c0.4,0.5,0.8,1,1.2,1.5c0.4,0.7,1,1.5,1.5,2.1c0.9,0.9,2.1,1.5,3.4,1.5c0,0,0,0,0,0c1.3,0,2.5-0.5,3.4-1.5
		l0.3-0.3c0.3-0.3,0.6-0.7,0.8-1.1c0.1-0.2,0.5-0.6,0.8-1c0.1-0.1,0.2-0.2,0.3-0.3c0.2-0.3,0.5-0.6,0.8-0.9
		c3.1-3.3,7.2-4.9,11.4-4.4c3.2,0.4,6.1,2,8.2,4.4c0.9,1,1.7,2.2,2.4,3.5c1,2.1,1.2,3.2,1.2,5.5c0,0.2,0,0.3,0,0.5
		c-0.3,9.9-10.1,21.6-29.3,34.5l-0.3,0.2l-1.7-1.2c0,0,0,0,0,0c-9.7-6.3-18.3-14.1-22.9-20.8c-3.2-4.6-4.9-8.8-5.1-12.8
		C111.6,125.5,112.2,122.8,113.6,120.3z M474.8,192.9v163c0,35.7-29,64.7-64.7,64.7H87c-35.7,0-64.7-29-64.7-64.7v-163
		c0-35.7,29-64.7,64.7-64.7h15.1c0.2,5.2,2,11.3,6.8,18.2c5.3,7.8,14.6,16.3,25.5,23.3l4.4,2.9c0.8,0.5,1.7,0.8,2.7,0.8
		c0.9,0,1.9-0.3,2.7-0.8l2.9-2c22.3-15.1,33.2-29,33.5-42.5H201c1,5.5,3.4,11.7,8.1,18.5c7.1,10.3,19.5,21.7,33.2,30.6l5.9,3.9
		c0.8,0.5,1.7,0.8,2.6,0.8c0.9,0,1.8-0.3,2.7-0.8l4-2.7c26.2-17.8,40.3-34.3,43-50.3h18.6c1.1,3.3,2.8,6.7,5.4,10.5
		c5.3,7.8,14.6,16.3,25.5,23.3c0,0,0,0,0,0l4.4,2.8c0.8,0.5,1.7,0.7,2.6,0.7c0.9,0,1.9-0.3,2.7-0.8l2.9-2
		c18-12.1,28.6-23.5,32.2-34.6h15.4C445.8,128.2,474.8,157.2,474.8,192.9z"/>
</g>
</svg>
