<?xml version="1.0" encoding="utf-8"?>
<!-- Generator: Adobe Illustrator 27.2.0, SVG Export Plug-In . SVG Version: 6.00 Build 0)  -->
<svg version="1.1" id="Layer_1" xmlns="http://www.w3.org/2000/svg" xmlns:xlink="http://www.w3.org/1999/xlink" x="0px" y="0px"
	 viewBox="0 0 500 500" style="enable-background:new 0 0 500 500;" xml:space="preserve">
<style type="text/css">
	.st0{fill:#808080;}
</style>
<g>
	<path class="st0" d="M486.5,168.6c-5-26.3-20.9-43.8-36.2-60.8c-1-1.2-2.1-2.3-3.1-3.5c0,0-0.1-0.1-0.1-0.1
		c-0.1-0.1-0.1-0.1-0.2-0.2c-0.1-0.1-0.3-0.2-0.4-0.3c-0.1,0-0.1-0.1-0.2-0.1c-0.2-0.1-0.4-0.2-0.6-0.3c0,0,0,0,0,0
		c-0.2-0.1-0.4-0.2-0.6-0.2c-0.1,0-0.1,0-0.2,0c-0.2,0-0.4-0.1-0.6-0.1c0,0-0.1,0-0.1,0c0,0,0,0,0,0c-0.2,0-0.4,0-0.6,0.1
		c-0.2,0-0.4,0.1-0.5,0.1c0,0,0,0,0,0c0,0,0,0-0.1,0c-0.1,0-0.2,0.1-0.3,0.1c-24.8,8.1-42.5,19.6-56.3,31.3
		c-2.2-35.9-18-54.3-33.5-67.5c0,0,0,0,0,0c-0.2-0.2-0.4-0.3-0.6-0.4c-0.1,0-0.2-0.1-0.2-0.1c-0.2-0.1-0.3-0.1-0.5-0.2
		c-0.1,0-0.2-0.1-0.3-0.1c-0.1,0-0.3-0.1-0.4-0.1c-0.1,0-0.2,0-0.3,0c-0.1,0-0.3,0-0.4,0c-0.1,0-0.2,0-0.3,0c-0.1,0-0.3,0-0.4,0.1
		c-0.1,0-0.2,0.1-0.3,0.1c-0.1,0-0.3,0.1-0.4,0.1c-0.1,0-0.2,0.1-0.3,0.2c0,0-0.1,0-0.1,0.1c-39,22.7-67.2,59.4-94.4,94.9
		c-26.7,34.9-54.2,70.6-92.3,93.3c1.4-0.8,2.2-2.4,1.9-4c-1.5-11.5-5.7-18-12.5-19.3c-13.2-2.5-27.4,17.7-34.8,30
		c-0.6,0-1.2,0.1-1.8,0.2c-4.3,0.6-8.2,2.9-10.8,6.3c0,0,0,0,0,0c-0.9,1.2-1.7,2.6-2.2,4c-0.8-0.1-1.5,0-2.3,0.4
		c-9.2,4.5-28.2,15-34.2,26.6C35.7,314.7,8.7,334,12,350.4c3,14.7,27.5,22.2,77,23.6c-4.8,5-8.6,9.8-11.4,14.4
		c-3.6,5.1-4.3,11.3-2,17c3.3,7.8,13.8,18.3,45.9,23.5c0.1,0,0.3,0,0.4,0c9.4,0.5,19.2,1.1,29.5,1.7c25,1.6,52,3.2,77.6,3.2
		c16.3,0,32-0.7,46.4-2.5c28.6-3.7,48.8-12.6,61.8-27.3c4.2-4.8,9.2-12.4,15.5-22.1c8.9-13.7,19.9-30.7,33.4-46.4l34.3-39.7
		c-1.4,16.8-2.1,34.9-2.8,52.4c-0.2,4.4-0.4,8.8-0.5,13.1c0,1.1,0.4,2.2,1.2,3c0.8,0.8,1.8,1.2,2.9,1.2c0,0,0.1,0,0.1,0l21.8-0.6
		c2.2-0.1,3.9-1.8,4-4c1.3-69.9,13-95.3,24.4-120c2.7-5.9,5.6-12,8.2-18.7C487.3,207.7,490.6,191.2,486.5,168.6z M245.7,371.4
		c-0.6,0-1.1,0.2-1.7,0.4c-22.5,11.3-36.6,12.6-40.3,9c-2-2-1.3-6.9,2-13.4c0.6-1.2,0.6-2.6-0.1-3.8c-2.4-4.4-4.6-10.1-1.3-12.4
		c2.3-1.5,6.4-1.9,11.1-1.3c8.1,1,18,4.9,24.1,10.3c0.9,0.8,1.7,1.6,2.4,2.5c0.8,1,2.1,1.5,3.3,1.5c0.2,0,0.4,0,0.7-0.1
		c-0.1,0.7-0.1,1.4-0.1,2.1c0,1.9,0.3,3.7,0.9,5.4C246.5,371.4,246.1,371.3,245.7,371.4z M254.2,364.7c0.6-3.4,3.2-6.1,6.6-6.7
		c0.5-0.1,1-0.1,1.5-0.1c1.8,0,3.5,0.6,4.9,1.6c2,1.5,3.3,3.9,3.3,6.6c0,0.8-0.1,1.6-0.4,2.4c-1,3.3-4.2,5.9-7.9,5.9
		c-4.5,0-8.2-3.7-8.2-8.2C254.1,365.6,254.2,365.1,254.2,364.7z M276.4,369.6l0.3-6.4c0.6,0,1.2-0.1,1.7-0.3
		c0.6-0.2,1.2-0.6,1.7-1.2c0.2-0.2,0.3-0.4,0.5-0.6c8.4-9.5,28.8-15,36.3-11.4c0.3,0.1,0.6,0.3,0.9,0.5c2.3,1.6,2,4.8,0.7,8.1
		c-0.5,1.4-1.3,2.9-2,4.2c-0.7,1.2-0.7,2.6-0.1,3.8c3.3,6.6,4,11.5,2,13.5c-3.7,3.6-17.9,2.4-40.3-8.9c0,0,0,0,0,0
		c-0.5-0.3-1.1-0.4-1.6-0.4L276.4,369.6z M322.3,343.5c-11.4-7.7-36.9,0.3-47.5,12c-3-3.5-7.5-5.7-12.4-5.7c-4.8,0-9.1,2.1-12.1,5.4
		c-2.2-0.7-4.3-1.3-6.4-2c-6.8-5.5-16.7-9.8-25.9-11.2c-9.7-5.4-16.4-11.2-18.7-16.7c-1.1-2.7-1.1-5.1,0.2-7.5
		c26.7-8.3,49.1-22.8,69.1-40.6c0,0,0,0,0,0c23.2-20.6,43.1-45.5,62.7-69.9c16.2-20.2,31.5-39.3,48.1-55.5
		c14.8-14.2,32.3-28.7,60.6-38.9c-0.9,33.4-8.6,43.2-20.9,59c-12.8,16.3-30.3,38.7-49,97.5c0,0.1-0.1,0.2-0.1,0.3
		c-2.5,10.7-13.8,51.9-45.8,75.4C323.5,344.4,322.9,343.9,322.3,343.5z M378.2,141.5c-1.6,1.4-3.1,2.9-4.6,4.3
		c-17,16.5-32.5,35.8-48.8,56.2c-16.1,20.1-32.5,40.6-50.7,58.5c11.4-33.4,31.2-65.3,49-93.8c20.3-32.7,37.4-60.1,36.6-81.1
		C370.1,97.9,377.9,114.6,378.2,141.5z M260,166.5c26-33.8,52.8-68.8,88.8-90.9c10.2,18.2-9.7,50.1-32.6,86.9
		c-20.4,32.8-43.5,69.9-54,109.2c-16,14.1-33.5,26-53.5,34c-32.3,0.3-65.3-13.1-76.2-24.3c0.3-1.5,0.4-2.9,0.4-4.4
		C190.4,257.3,225.8,211.1,260,166.5z M90.9,286c2.8-1.7,6-3.5,9.5-5.3c0.1,0.3,0.1,0.6,0.2,0.9c0.6,2.6,1.9,5.1,3.8,7.2
		c0.7,0.7,1.4,1.4,2.2,2c0.9,0.6,1.8,1.2,2.7,1.6c0.1,12.6-7.4,28.9-14,31.2c-3.8,1.3-7.1-3.8-9.1-8.4c-0.5-1.2-1.7-2.1-3-2.3
		c-7.3-1.4-11.6-3.7-12-6.6c-0.1-0.5,0-1,0.1-1.6C72.1,300.6,78.3,293.7,90.9,286z M109.9,272.9c1.1-1.4,2.5-2.4,4.2-2.9
		c0.4-0.1,0.8-0.2,1.3-0.3c1.6-0.2,3.2,0,4.7,0.7c0.5,0.2,0.9,0.5,1.4,0.9c0.3,0.2,0.5,0.4,0.8,0.7c0,0,0.1,0.1,0.1,0.1
		c2,2,2.9,4.7,2.3,7.4c-0.2,1.1-0.7,2.3-1.4,3.3c0,0,0,0.1-0.1,0.1c-1.6,2.1-3.9,3.2-6.4,3.3c-1.4,0-2.8-0.2-4-0.9
		c-0.4-0.2-0.8-0.5-1.2-0.7c-0.6-0.5-1.1-1-1.6-1.6c-1-1.4-1.6-3-1.7-4.6C108.2,276.4,108.7,274.5,109.9,272.9z M161.2,254.8
		c-9.6,5.7-19.8,10.6-30.9,14.4c-1-1.7-2.4-3.2-4-4.4c-0.3-0.2-0.5-0.4-0.8-0.5c-0.4-0.3-0.8-0.5-1.3-0.8
		c10.8-17.6,20.3-24.9,24.9-24c2.8,0.5,5,5,5.9,12.3c0,0.3,0.1,0.6,0.2,0.9c0.7,1.7,2.4,2.8,4.3,2.6
		C160.3,255.3,160.8,255.1,161.2,254.8z M20,348.8c-1.8-8.9,14.7-23.5,43.4-39.6c1.5,5.5,7,9.4,16.2,11.5
		c4.7,9.2,10.1,11.5,14.3,11.5c1.6,0,2.9-0.3,4.1-0.7c11-3.8,19-22.4,19.5-37.3c4.2-0.2,8.3-2,11.3-5.3c7.2,6.4,17.5,11.2,23,13.5
		c11.7,4.9,24.6,8.3,37.3,10.1c-32.8,11.5-68.7,32.9-91.8,53.6C30.5,365.1,21,353.7,20,348.8z M439,357.1l-13.5,0.4
		c0.1-2.9,0.2-5.9,0.4-8.8c0.9-21.5,1.8-43.8,3.9-63.4l14.9-17.2c2.1-2.5,4.2-4.9,6.3-7.2c2.1-2.4,4.1-4.7,6-6.9
		C448,275.3,440.3,302.7,439,357.1z M444.7,255.4c-2.1,2.4-4.2,4.8-6.3,7.3c0,0,0,0,0,0L380,330.3c-13.9,16.2-25.1,33.4-34.1,47.3
		c-5.9,9-10.9,16.8-14.8,21.2c-11.6,13.2-30.2,21.2-56.7,24.6c-36.2,4.6-82,1.7-122.5-0.8c-10.3-0.6-20-1.3-29.4-1.7
		C93,416,85.2,407.2,83.2,402.3c-1.8-4.2,0-7.6,1.1-9.2c0.1-0.1,0.1-0.2,0.2-0.3c12.7-21.4,59.7-55.7,105.8-72.1
		c-0.1,2.5,0.3,5.1,1.4,7.6c2.1,5,6.4,9.8,12.2,14.2c-1.5,0.5-2.8,1.1-4,1.9c-3.6,2.5-8.6,8.5-2.3,21.2c-4.2,9.4-4.1,16.4,0.5,20.9
		c3,3,7.4,4.1,12.3,4.1c12.6,0,29.2-7.5,37.4-11.6c1-0.5,1.7-1.4,2.1-2.4c3,3.6,7.5,5.8,12.5,5.8c4.4,0,8.5-1.8,11.4-4.7
		c0.2,0.1,0.3,0.2,0.5,0.3c8.2,4.1,24.7,11.6,37.4,11.6c5,0,9.4-1.2,12.4-4.2c4.6-4.5,4.7-11.6,0.5-21c2.5-5,3.2-8.9,3-12
		c35.2-24.9,47.6-69.3,50.3-81c18.2-57.3,35.2-78.9,47.6-94.8c12.4-15.8,21-26.8,22.5-59.4c13.8,15.4,26.4,30.7,30.6,52.7
		C485.4,208.8,469.2,227.4,444.7,255.4z"/>
</g>
</svg>
