<?xml version="1.0" encoding="utf-8"?>
<!-- Generator: Adobe Illustrator 27.2.0, SVG Export Plug-In . SVG Version: 6.00 Build 0)  -->
<svg version="1.1" id="Layer_1" xmlns="http://www.w3.org/2000/svg" xmlns:xlink="http://www.w3.org/1999/xlink" x="0px" y="0px"
	 viewBox="0 0 500 500" style="enable-background:new 0 0 500 500;" xml:space="preserve">
<style type="text/css">
	.st0{fill:#808080;}
</style>
<g>
	<path class="st0" d="M170.8,292.3c-2.1,0.5-4.4,0.9-6.9,1.2c-21.3,2.2-52.6-6.3-69.8-30.1c-1.3-1.8-2.5-3.7-3.7-5.7
		c-1.3-2.3-4.2-3.1-6.5-1.8c-2.3,1.3-3.1,4.2-1.8,6.5c15.6,27.5,47.4,41.1,74.3,41.1c5.8,0,11.4-0.6,16.6-1.9
		c2.6-0.6,4.1-3.2,3.5-5.8C176,293.2,173.4,291.6,170.8,292.3z"/>
	<path class="st0" d="M70.9,224l-0.8,0.4c-2.4,1.2-3.3,4-2.1,6.4c0.8,1.7,2.5,2.6,4.3,2.6c0.7,0,1.4-0.2,2.1-0.5l0.8-0.4
		c2.4-1.2,3.3-4,2.1-6.4C76.1,223.7,73.3,222.8,70.9,224z"/>
	<path class="st0" d="M456.9,69.4c-13.4-28.7-39-48-68.4-51.6c-29.3-3.6-58.6,8.9-78.3,33.4l-0.7,0.9c-1.7,2.2-3,3.9-4,5.2l-0.5-0.8
		c-18.4-27.1-46.6-41-79.4-39.2c-30,1.7-55.6,17.4-68.4,42c-13.8,26.4-14.9,55.1-3.3,85.8c-4,5.6-7.3,11.8-9.7,18.7
		c-0.6,1.5-1,2.9-1.4,4.1c-20.3-14.7-44.1-17.5-67.2-7.9C53.9,169,39.2,187,36,208.5c-4.6,31.9,9.9,60.7,43.1,85.6
		c25.1,18.7,64.4,36.2,105.1,46.7l3.4,0.9l2.4,22.1c0.1,1.1,0.6,2.2,1.5,3c2.7,2.5,6.2,3.5,10,3.5c2.6,0,5.3-0.5,8-1.2
		c1.8,2.6,3.2,4.9,4.3,7.2c4.1,8.1,4.4,14.3,3.1,20.3c-0.8,3.6-2.1,7.1-3.5,10.8c-5.3,13.8-11.4,29.5,9.7,57.7
		c0.9,1.3,2.4,1.9,3.8,1.9c1,0,2-0.3,2.9-1c2.1-1.6,2.5-4.6,1-6.7c-2.1-2.9-4-5.5-5.5-8.1c-9.2-15.3-8.2-25.1-5.2-34.3
		c0.7-2.1,1.5-4.1,2.3-6.2c4.5-11.7,9.5-24.8-3.7-45.2c5.2-2.5,9.5-5.5,11.4-7.1c4.3-3.8,3.1-6.9,2.2-8.2L221.5,333
		c1.3,0,2.5,0.1,3.8,0.1c22.4,0,44.4-7.3,59.8-18.2l-8.8,37.5c-0.3,1.1-0.1,2.3,0.4,3.3c4,7.7,13.7,10.4,23.9,10.6
		c4.2,22.3,2,34.9-0.3,48.2c-2.7,15.8-5.6,32.1,1.3,64.5c0.5,2.2,2.5,3.8,4.7,3.8c0.3,0,0.7,0,1-0.1c2.6-0.5,4.2-3.1,3.7-5.7
		c-6.4-30.6-3.8-46-1.2-60.9c2.3-13.3,4.7-27.1,0.5-50.3c8.8-0.9,16.7-3,20.1-4.4c5.6-2.3,6.1-5.4,5.5-7.6l-8.9-39.5
		C342,327,365.1,336,389.2,336c8.5,0,17.1-1.1,25.5-3.6c1.5-0.4,2.7-1.6,3.2-3.1c14.7-45.7,15.6-78.8,3.1-110.7
		c0-0.1-0.1-0.1-0.1-0.2c-0.1-0.2-0.2-0.5-0.4-0.7c-0.1-0.1-0.1-0.2-0.2-0.3c-0.2-0.3-0.4-0.5-0.7-0.7c0,0,0,0,0,0
		c-0.2-0.2-0.5-0.4-0.8-0.6c0,0-0.1,0-0.1,0c-0.1,0-0.2-0.1-0.3-0.1c-0.2-0.1-0.5-0.2-0.8-0.3c-0.1,0-0.1,0-0.1-0.1
		c-2.2-0.4-4.3-0.8-6.4-1c35.6-37.9,53.6-74.1,53.7-108.3C464.9,91.7,462.9,82.3,456.9,69.4z M455.2,106.3
		c-0.1,33.8-19.3,70.1-57.4,108.5c-24.7,2.9-44.3,20.7-63.4,38c-2.9,2.6-5.8,5.3-8.7,7.9c-0.8,0.3-1.5,0.5-2.3,0.8
		c-9.1-4.6-18.8-7.2-28.6,0.8c-0.3-0.5-0.6-0.9-1-1.3c-3.9-3.4-7.9-7-11.7-10.5c-4.9-4.4-9.8-8.9-14.8-13.2
		c-1.3-1.1-2.6-2.2-3.9-3.2c-1.3-1.1-2.7-2.1-4-3.2c-14.6-11.2-30.5-19.5-49.5-19c-11.4-11.9-21.1-23.7-28.7-35
		c-6.9-10.3-12.5-20.4-16.6-30.3c-0.7-1.6-1.3-3.3-1.9-4.9c-0.6-1.7-1.2-3.3-1.8-5c-8.6-26.2-7.1-50.6,4.6-73
		C176.8,42.3,199.4,28.5,226,27c1.7-0.1,3.4-0.1,5.1-0.1c27.2,0,50.5,12.3,65.9,35.1l1.6,2.3c1.9,2.8,2.4,3.6,2.8,4.1
		c1,1.2,2.5,1.9,4.1,1.8c2.2-0.1,4.1-1.5,5.5-4c0.1-0.1,0.1-0.1,0.1-0.3c0.5-1,3.7-5.1,5.8-7.8l0.6-0.8
		c17.9-22.2,43.3-33.1,69.7-29.9c26.6,3.2,48.8,20,60.9,46.1C453.7,85.1,455.4,93,455.2,106.3z M409,224.1
		c-7.8,13.3-13.5,16.4-29.7,20.9c-2.6,0.7-5.4,1.5-8.6,2.3c-0.7,0.2-1.4,0.4-2.1,0.6c-3.4,0.9-7.2,1.9-11.4,3.1
		c-2.9,0.8-6.1,1.7-9.4,2.7c11.7-10.5,23.3-20,36-25.3c3.4-1.4,6.9-2.6,10.5-3.3c2.5-0.5,5.1-0.9,7.8-1
		C404.3,223.9,406.6,223.9,409,224.1z M325.3,298.8c0.8-2.2,1.5-4.3,1.9-6.5c9.6-0.4,17.7,4.3,27,9.6c9.6,5.6,20.4,11.8,33.9,11.8
		c1.5,0,3-0.1,4.6-0.2c2.6-0.3,4.5-2.6,4.3-5.2c-0.3-2.6-2.6-4.5-5.2-4.3c-12.7,1.3-22.4-4.3-32.8-10.3c-7-4.1-14.2-8.2-22.4-10
		c2-0.7,4-1.5,6-2.3c11-4.4,21.5-8.5,40-4.7c2.6,0.5,5.1-1.2,5.6-3.7c0.5-2.6-1.2-5.1-3.7-5.6c-14.9-3-25.4-1.5-34.4,1.2
		c-3.9,1.2-7.5,2.6-11,4c-1.7,0.7-3.4,1.3-5,2c-1.8,0.7-3.7,1.3-5.6,1.9l1-4.5l0.5-2.2c0.2-0.2,0.5-0.4,0.7-0.6
		c1.7-0.6,3.3-1.1,4.9-1.6c4.9-1.6,9.5-3,13.7-4.3c4.5-1.3,8.6-2.5,12.3-3.5c4.3-1.2,8.1-2.2,11.6-3.1c22.7-6,31.8-8.5,42.3-24.8
		c7.9,26.5,6.1,54.1-5.8,92.1C377,332.3,340,318.3,325.3,298.8z M202.3,360.6c-1,0.1-2.1,0-3.1-0.2l-1.8-16.2l-0.6-5.1l-0.6-5.1
		l0-0.3l-0.4-3.6c-0.3-2.6-2.6-4.5-5.3-4.2c-2.6,0.3-4.5,2.7-4.2,5.3l0,0.3c-39.5-10.2-77.5-27.1-101.6-45
		c-30.1-22.6-43.4-48.4-39.4-76.6c2.7-18.1,15.2-33.3,33.5-40.8c8-3.3,15.9-5,23.7-5c12.1,0,23.9,4.1,34.8,12.1
		c1.9,1.5,4.4,3.4,5.4,3.9c1.4,0.7,3.1,0.7,4.5-0.1c2.3-1.2,2.9-3.6,3.1-4.9c0.1-0.6,1-3.4,2.6-7.9c1.4-4,3.2-7.8,5.2-11.3
		c4.1,8.7,9.1,17.6,15.1,26.6c6.8,10.1,15.2,20.5,24.9,31.1c-0.2,0.1-0.3,0.1-0.5,0.2c0,0,0,0,0,0c0,0,0,0,0,0
		c-0.3,0.2-0.6,0.4-0.9,0.6c-0.1,0.1-0.1,0.1-0.2,0.2c-0.2,0.2-0.4,0.4-0.5,0.6c-0.1,0.1-0.1,0.2-0.2,0.3c-0.2,0.2-0.3,0.5-0.4,0.7
		c0,0.1-0.1,0.1-0.1,0.2c-13.4,33.9-13.4,67.8,0.2,110c0.5,1.5,1.7,2.7,3.2,3.1c1.8,0.5,3.6,1,5.4,1.4l-0.6,0.8l1.7-0.5
		c1.3,0.3,2.7,0.5,4.1,0.8c0.1,0,0.1,0,0.2,0l2.6,4.2l10.2,16.3C218.3,355.2,209.2,360.1,202.3,360.6z M299.6,283.3
		c0-1.5,0.1-3,0.3-4.5c0.3-2.9,0.8-6,1.5-9.5c4.7-3.6,9.2-3.5,17.1,0.4c0.1,2.1,0.3,4.1,0.4,6.2c0,0.9,0.1,1.7,0.1,2.6
		c0,0.3,0,0.6,0,0.9c0,2,0,4-0.2,6c-0.1,0.9-0.2,1.9-0.4,2.8c-0.2,1.3-0.5,2.6-0.8,3.8c-0.7,2.6-1.7,5.1-3.1,7.7
		c-0.1,0.2-0.2,0.4-0.3,0.5c-2.8,0.9-5.9,1.3-12.3-0.6c-0.1-0.4-0.2-0.9-0.4-1.3c-0.1-0.4-0.2-0.7-0.3-1.1c-0.6-2.2-1-4.4-1.2-6.6
		c-0.1-0.7-0.2-1.5-0.2-2.2c-0.1-1.2-0.1-2.4-0.1-3.7C299.6,284.2,299.6,283.7,299.6,283.3z M254.7,244.4c-0.9-0.1-1.7-0.1-2.6-0.2
		c-3-0.3-5.9-0.5-8.7-0.8c-3.1-0.4-6.2-0.8-9.1-1.5c-4.4-1-8.5-2.4-12.3-4.7c-4.5-2.7-8.6-6.4-12.5-12c-0.8-1.1-1.5-2.2-2.2-3.5
		c1.8-0.1,3.6-0.2,5.3-0.2c2.6,0.1,5.1,0.3,7.6,0.7c13.1,2.2,24.7,9.3,36,18.3c1.3,1,2.6,2.1,3.9,3.2c0.5,0.4,1,0.9,1.6,1.3
		c-0.7-0.1-1.3-0.1-2-0.2C258,244.7,256.3,244.5,254.7,244.4z M215.6,323c-0.1,0-0.3,0-0.4,0c-1.6-0.2-3.3-0.4-4.9-0.7
		c-1.1-0.2-2.2-0.4-3.3-0.6c-1-0.2-2.1-0.5-3.1-0.7c-11-35.3-12-63.3-3-91.4c11,16.6,24.3,21.1,38.6,23c2.8,0.4,5.7,0.7,8.6,0.9
		c0.9,0.1,1.8,0.2,2.7,0.2c0.2,0,0.3,0,0.5,0c1.5,0.1,3,0.3,4.5,0.4c0.3,0,0.6,0.1,0.9,0.1c1.3,0.1,2.7,0.3,4,0.4
		c4.7,0.5,9.5,1.3,14.4,2.5c0.2,0.2,0.4,0.3,0.5,0.5c3.5,3.2,7.1,6.4,10.7,9.6l2.1,9.3c-0.5-0.1-1-0.3-1.5-0.4
		c-2-0.6-3.8-1.2-5.7-1.8c-3.1-1.1-6.2-2.1-9.6-2.9c-3.1-0.8-6.4-1.3-10.2-1.6c-2.4-0.1-4.9-0.2-7.8,0c-1.7,0.1-3.6,0.3-5.5,0.5
		c-1.8,0.2-3.8,0.5-5.8,0.9c-1,0.2-2,0.4-3.1,0.6c-2.6,0.5-4.3,3-3.7,5.6c0.2,1.2,0.9,2.2,1.9,2.9c1,0.8,2.4,1.1,3.8,0.8
		c0.5-0.1,0.9-0.2,1.4-0.3c2.1-0.4,4.1-0.7,5.9-1c14.1-1.8,21.5,0.7,29.8,3.5c0.8,0.3,1.5,0.5,2.3,0.8c-7.7,1.9-14.5,5.9-21.3,9.8
		c-8.2,4.7-16,9.3-25.2,10.3c-1.9,0.2-3.8,0.3-5.7,0.2c-0.6,0-1.3-0.1-1.9-0.1c-2.6-0.3-5,1.6-5.3,4.2c-0.2,1.7,0.5,3.2,1.7,4.2
		c0.7,0.6,1.6,1,2.5,1.1c0.8,0.1,1.6,0.1,2.4,0.2c0.8,0,1.6,0.1,2.4,0.1c13.5,0,24.2-6.2,33.8-11.8c9.1-5.3,17.2-9.9,26.6-9.6
		c0.2,1.3,0.4,2.5,0.6,3.8c-12.3,15.9-41.3,28.4-70,27.1C219.3,323.3,217.5,323.2,215.6,323z M296.2,308.9c0.1-0.3,0.1-0.6,0.1-0.9
		c0-0.1,0-0.1,0-0.2c0,0,0.1,0,0.1,0c0.2,0.1,0.4,0.1,0.6,0.2c5.3,1.7,9.3,2.4,12.5,2.4c2.5,0,4.6-0.4,6.5-0.9c0,0.1,0,0.2,0,0.3
		l9.7,43.1c-5.9,2.2-22.3,5.5-33.4,2.7c-2.1-0.5-4.8-1.5-6.4-3.2L296.2,308.9z"/>
	<path class="st0" d="M411.7,54.8C390.2,40.4,361.8,41,341,56.5c-2.1,1.6-2.6,4.6-1,6.7c1.6,2.1,4.6,2.6,6.7,1
		c17.6-13.1,41.6-13.6,59.7-1.5c18.1,12,26.6,34.2,21.1,55.2c-0.7,2.6,0.9,5.2,3.4,5.8c0.4,0.1,0.8,0.2,1.2,0.2
		c2.1,0,4.1-1.4,4.6-3.6C443.3,95.4,433.2,69.1,411.7,54.8z"/>
	<path class="st0" d="M425.5,130.4L425.5,130.4c-2.7,0-4.8,2.1-4.8,4.8c0,2.6,2.1,4.8,4.8,4.8s4.8-2.1,4.8-4.8
		C430.3,132.5,428.1,130.4,425.5,130.4z"/>
	<path class="st0" d="M222.9,193.5C210,183,200,168.9,193.4,151.7c-1-2.5-3.7-3.7-6.2-2.7c-2.5,1-3.7,3.7-2.7,6.2
		c7.3,18.8,18.2,34.2,32.4,45.7c0.9,0.7,2,1.1,3,1.1c1.4,0,2.8-0.6,3.7-1.8C225.2,198.1,224.9,195.1,222.9,193.5z"/>
</g>
</svg>
