<?xml version="1.0" encoding="utf-8"?>
<!-- Generator: Adobe Illustrator 27.2.0, SVG Export Plug-In . SVG Version: 6.00 Build 0)  -->
<svg version="1.1" id="Layer_1" xmlns="http://www.w3.org/2000/svg" xmlns:xlink="http://www.w3.org/1999/xlink" x="0px" y="0px"
	 viewBox="0 0 500 500" style="enable-background:new 0 0 500 500;" xml:space="preserve">
<style type="text/css">
	.st0{fill:#808080;}
</style>
<g>
	<path class="st0" d="M475.8,466.6l-87.7-137c-1.1-1.7-2.9-2.7-4.9-2.7h-55.3l38.3-39c42.3-39,54.8-104.7,31-163.7
		c0-0.1-0.1-0.2-0.1-0.2c-14.7-32.1-37-58.2-64.5-75.5c-25.6-16.1-55.2-24.4-85.5-23.9c-63.3,1-118.5,39.3-144.1,100c0,0,0,0,0,0.1
		c-11.2,27.7-14.5,58.8-9.4,87.7c5.4,30.2,19.3,56.4,40.4,75.7l38.4,39h-52.8c-2,0-3.8,1-4.9,2.6l-90.3,137c-1.2,1.8-1.3,4.1-0.3,6
		c1,1.9,3,3.1,5.2,3.1h176.9h264.8c2.1,0,4.1-1.2,5.1-3C477,470.7,477,468.4,475.8,466.6z M433.8,422.6c-0.1,0.2-0.3,0.4-0.4,0.6
		c-2.5,5-14.3,11.4-28.8,12.9c-7.1,0.8-24.9,1.2-35.1-11.5c-0.1-0.2-0.3-0.3-0.4-0.5c-2.3-2.3-3.4-6.7-4.5-11.3
		c-1.5-6.1-3.1-13-8.4-18.3c-1.4-1.4-3.5-2-5.4-1.6c-4.1-0.7-17.7-10.7-20.6-23.2c-2.5-10.8,3.7-20.6,18.4-29.3
		c0.8-0.5,1.4-1.1,1.9-1.8h29.4L433.8,422.6z M141.9,279.3c-38.2-35.1-49.8-96.9-28.2-150.4c23.7-56.3,74.8-91.8,133.4-92.8
		c60-1,112,33.6,139.1,92.5c21.9,54.5,10.6,115-28.2,150.6c-0.1,0.1-0.1,0.1-0.2,0.2l-46.5,47.3l-11.5,11.7l-49.8,50.8l-49.9-50.8
		l-11.5-11.7l-46.5-47.3C142.1,279.5,142,279.4,141.9,279.3z M40,463.9l54.4-82.5c2.3,0,4.4,0.1,6.5,0.1
		c42.3,1.4,43.1,13.5,44.2,32.9c0.1,1.5,0.2,3,0.3,4.5c0.6,8.3,1.7,17.3,6.3,26.4c4.4,8.8,15.4,14.2,26.6,18.7H40z M207.9,463.9
		c-4.7-3-11.3-5.6-18.3-8.2c-0.2-0.1-0.3-0.1-0.5-0.2c-10.6-4.1-23.6-9.1-26.8-15.5c-1.6-3.3-2.7-6.6-3.5-9.9
		c-1.2-5.4-1.6-11-1.9-16.3c-1.5-25.1-6.3-42-54.8-43.8l20.6-31.2h61.1l62.1,63.2c1.1,1.1,2.6,1.8,4.2,1.8c0,0,0,0,0,0
		c1.6,0,3.1-0.6,4.2-1.8l62-63.2h15c-18.3,16.6-13.3,34-9.7,41.4c5.8,12.3,18.7,23.1,27.8,24.5c2,2.9,2.9,6.9,3.9,11.1
		c1.4,5.9,2.9,12,7.4,16.6c8.5,10.3,22,16,37.8,16c2.4,0,4.9-0.1,7.4-0.4c14.6-1.5,27.8-7.3,34.6-14.6l19.7,30.7H207.9z"/>
	<path class="st0" d="M253.4,259.2l5.9-4.1c43.6-29.8,64.7-57.1,64.7-83.4c0-6.9-1-11.5-3.8-17.7c-6.5-13.8-18.9-23.1-33.3-24.8
		c-13.8-1.6-27.5,3.9-36.9,14.9c-8.8-10.6-21.3-16-35.6-15.1c-14.4,0.8-27.1,8.6-33.2,20.5c-6.4,12-10.3,31.7,7.3,57.7
		c10,15.1,28.1,31.9,49.6,46.3c0,0,0,0,0,0l8.7,5.7c1,0.6,2.1,1,3.2,1C251.3,260.2,252.4,259.9,253.4,259.2z M215.1,140.7
		c11.8-0.7,21.5,4,28,13.7c0,0.1,0.1,0.1,0.2,0.2c0.7,1,1.1,1.5,1.2,1.7c0.3,0.6,0.7,1.1,1.2,1.6c1.2,1.2,3.1,1.9,4.8,1.7
		c2-0.2,3.7-1.3,5-3.3c0.2-0.3,1.4-1.9,2.8-3.7c7-8.7,17-13,27.3-11.8c10.4,1.2,19.2,7.9,24,18.1c2.1,4.6,2.7,7.6,2.7,12.8
		c0,21.9-20.1,46.7-59.7,73.7l-2.6,1.8l-5.3-3.5c-20.2-13.5-37.1-29.2-46.3-43.1c-11.5-17-13.8-32.4-6.7-45.7
		C195.9,146.7,204.8,141.3,215.1,140.7z"/>
	<path class="st0" d="M368.2,184.3c0-65.2-53-118.3-118.1-118.3c-65.2,0-118.3,53.1-118.3,118.3c0,65.1,53.1,118.1,118.3,118.1
		C315.2,302.4,368.2,249.4,368.2,184.3z M143.5,184.3c0-58.8,47.8-106.6,106.6-106.6c58.7,0,106.4,47.8,106.4,106.6
		c0,58.7-47.7,106.4-106.4,106.4C191.3,290.7,143.5,243,143.5,184.3z"/>
</g>
</svg>
