<?xml version="1.0" encoding="utf-8"?>
<!-- Generator: Adobe Illustrator 27.2.0, SVG Export Plug-In . SVG Version: 6.00 Build 0)  -->
<svg version="1.1" id="Layer_1" xmlns="http://www.w3.org/2000/svg" xmlns:xlink="http://www.w3.org/1999/xlink" x="0px" y="0px"
	 viewBox="0 0 500 500" style="enable-background:new 0 0 500 500;" xml:space="preserve">
<style type="text/css">
	.st0{fill:#808080;}
</style>
<g>
	<path class="st0" d="M477.3,281.6c-16.3-44.4-41.3-78.8-66.2-94.8V129v0c0,0,0,0,0,0c0-0.4-0.1-0.8-0.1-1.1c0-0.1,0-0.2-0.1-0.2
		c-0.1-0.4-0.2-0.7-0.4-1c0-0.1-0.1-0.1-0.1-0.2c-0.2-0.3-0.4-0.6-0.6-0.8c0,0-0.1-0.1-0.1-0.1c-0.2-0.3-0.5-0.5-0.8-0.7
		c0,0-0.1-0.1-0.1-0.1c0,0-0.1,0-0.1-0.1c-0.3-0.2-0.6-0.4-1-0.5l-0.1,0l0,0l-81.8-31.6c-0.3-2.2-0.6-4.3-1-6.3
		c-3.4-16.2-11.5-28-21.8-31.7c-0.3-0.1-0.6-0.2-0.8-0.2c-15.8-2.8-31.2,3.4-44.7,11.8l-48.3-18.7c-1.2-0.5-2.6-0.5-3.9,0
		l-45.1,17.7c-13.1-7.9-28-13.6-43.3-10.9c-0.3,0.1-0.6,0.1-0.9,0.2C106,58.1,97.9,69.8,94.5,85.9c-0.4,1.8-0.7,3.6-0.9,5.5
		l-83,32.7c-0.3,0.1-0.7,0.3-1,0.5c0,0-0.1,0-0.1,0.1c0,0-0.1,0.1-0.1,0.1c-0.3,0.2-0.6,0.5-0.9,0.8c0,0-0.1,0.1-0.1,0.1
		c-0.2,0.3-0.4,0.6-0.6,0.9c0,0.1-0.1,0.1-0.1,0.2c-0.2,0.3-0.3,0.7-0.4,1c0,0.1,0,0.2-0.1,0.2c-0.1,0.4-0.1,0.7-0.1,1.1
		c0,0,0,0,0,0v0v218.6c0,2.2,1.4,4.2,3.4,5l112.1,43.1l2.4,1c0.4,0.2,0.7,0.3,1.1,0.3l80.9,31.1c0,0,0.1,0,0.1,0
		c0.2,0.1,0.4,0.1,0.6,0.2c0.1,0,0.2,0,0.3,0.1c0.3,0,0.6,0.1,0.9,0.1c0,0,0,0,0,0c0,0,0,0,0,0s0,0,0,0c0,0,0,0,0,0
		c0.3,0,0.6,0,0.9-0.1c0.1,0,0.2,0,0.3-0.1c0.2,0,0.4-0.1,0.6-0.2c0,0,0.1,0,0.1,0l84.5-32.5c2.4,4,4.8,7.9,7.4,11.6
		c6.9,10.1,14.3,18.7,21.7,25.7c0.5,0.8,1.2,1.4,1.9,1.8c13.2,11.8,26.7,18.2,38.9,18.2c1.3,0,2.5-0.1,3.8-0.2l0,0
		c4-0.6,28.8-9.3,35.5-11.7c4.5,1.4,8.8,2.1,13.1,2.1c1.3,0,2.6-0.1,3.9-0.2c3.4-0.4,37.2-12.4,39.9-13.4c0,0,0,0,0,0c0,0,0,0,0,0
		c0,0,0.1,0,0.1,0c0,0,0,0,0.1,0c17.1-6.4,27.9-25.7,30.4-54.4C494.7,347.6,489.4,314.4,477.3,281.6z M368,442.2
		c-8.4,0.9-18.2-2.8-28.3-10.4l32.1-11.9c6.2,6.1,12.6,11,18.9,14.8C381.4,437.9,370.2,441.7,368,442.2z M305.2,391.1
		c-0.8-1.3-1.6-2.6-2.3-3.9c-0.1-0.2-0.3-0.5-0.4-0.7c-0.8-1.3-1.5-2.7-2.2-4c-0.1-0.2-0.2-0.5-0.4-0.7c-1.3-2.5-2.6-5.1-3.9-7.6
		c-1.9-3.8-3.7-7.7-5.3-11.7c-1.9-4.5-3.7-9.1-5.3-13.7c-7.2-20.1-11.7-41.1-12.9-60.6c-0.5-8.6-0.3-16.6,0.5-23.8l12.3-4.6l5.3-2
		l5.3-2l10.9-4c-0.2,5.2-0.1,10.7,0.2,16.4c1,18.6,4.9,38.5,11,57.9c1.6,5.2,3.4,10.3,5.3,15.4c1.7,4.4,3.5,8.7,5.3,12.9
		c2.2,4.9,4.5,9.7,6.9,14.4c0.8,1.6,1.6,3.2,2.5,4.8c0.9,1.6,1.7,3.1,2.6,4.7c3.2,5.6,6.6,11.1,10.1,16.2c4.2,6.2,8.6,11.8,13,16.9
		l-33.4,12.4c-6.4-6.2-12.7-13.8-18.8-22.6c-2.1-3.1-4.1-6.2-6.1-9.5C305.5,391.6,305.3,391.3,305.2,391.1z M214.4,415.5v-207
		l70.9-27.3v37.1c-11.7,6.9-19.4,21.1-22.4,40.7c-0.2,0.5-0.2,1.1-0.2,1.6c-1.2,8.5-1.5,18-0.9,28.2c1.6,28.4,10.3,59.8,23.5,87.7
		v11.7L214.4,415.5z M93,103.1c0.3,9.8,2.9,19.6,9.2,26c3.7,6.5,10.3,10.5,18.6,12.7l-27.2,12.6L27.2,129L93,103.1z M104.9,88.1
		c0.1-0.4,0.2-0.8,0.3-1.3c2.7-11.3,8-19.7,14.1-22.1c9.3-1.5,18.9,1.1,28,5.5c2.1,1,4.1,2.1,6.2,3.3c1.9,1.1,3.8,2.3,5.6,3.5
		c0.8,0.5,1.6,1.1,2.4,1.7c6.4,4.4,12.4,9.2,17.4,13.3c0.6,0.5,1.3,1,1.9,1.5c4.8,3.9,8.5,6.8,11.7,8.4c-0.2,0.9-0.3,1.7-0.5,2.6
		c-0.2,1.4-0.4,2.9-0.5,4.4c-0.1,2-0.2,4-0.1,5.9c0.1,1.9,0.2,3.8,0.5,5.6c0.1,0.5,0.1,0.9,0.2,1.4c0.1,0.7,0.3,1.5,0.4,2.2
		c-2.5,0-5.1-0.1-7.6-0.3c-0.7-0.1-1.4-0.1-2.1-0.2c-2.5-0.3-4.9-0.7-7.4-1.2c-2.8-0.6-5.7-1.2-8.5-2c-2.4-0.6-4.8-1.3-7.2-1.9
		c-0.4-0.1-0.9-0.2-1.3-0.3c-17-4.6-34.4-8.9-51,0.7c-2.8-4.8-4.3-11.9-4-19.9c0.1-1.9,0.2-3.9,0.5-5.9
		C104.3,91.3,104.6,89.7,104.9,88.1z M246.8,73.3c-4.8,3.5-9.2,7.1-13.1,10.3c-3.8,3-8.2,6.7-10.9,8.3c-0.6-1-1.3-1.8-2.1-2.5
		c-2.6-2.4-6.7-3.8-11.1-1.7c-4.4-2.1-8.4-0.8-11,1.6c-0.8,0.7-1.5,1.5-2.1,2.5c-2.7-1.7-7-5.2-10.7-8.2c-4.3-3.5-9.3-7.5-14.6-11.4
		l36.2-14.3L246.8,73.3z M270.3,71c9.6-4.9,19.7-8,29.5-6.3c6.3,2.5,11.9,11.6,14.5,23.3c0,0.1,0.1,0.2,0.1,0.3
		c0.4,1.9,0.7,3.9,0.9,5.8c0.2,2,0.3,3.9,0.4,5.9c0.1,7.5-1.3,14.3-4.1,18.9c-17-9.9-34.9-5-52.3-0.3c-0.1,0-0.1,0-0.2,0
		c-2.5,0.7-5,1.3-7.5,2c-2.8,0.7-5.6,1.4-8.5,1.9c-2.6,0.5-5.2,0.9-7.8,1.2c-0.6,0.1-1.2,0.1-1.8,0.2c-2.3,0.2-4.7,0.3-7.1,0.3
		c0.2-0.8,0.4-1.6,0.5-2.4c0-0.3,0.1-0.5,0.1-0.8c0.3-1.8,0.5-3.7,0.5-5.6c0.1-2,0-3.9-0.1-5.9c-0.1-1.7-0.3-3.4-0.6-5
		c-0.1-0.8-0.3-1.6-0.4-2.3c3.4-1.7,7.4-4.9,12.9-9.3c0.3-0.2,0.6-0.5,0.9-0.7c5.3-4.3,11.6-9.3,18.4-14c0.2-0.2,0.5-0.3,0.7-0.5
		c1.6-1.1,3.2-2.1,4.9-3.1C266.3,73.2,268.3,72,270.3,71z M390.9,129l-66.4,25.3L297.9,142c8.6-2.2,15.3-6.2,19.1-12.8
		c6.2-6.2,8.8-15.7,9.2-25.1L390.9,129z M420.2,292c0.8-1.5,1.6-2.9,2.3-4.2c4.4-8.2,7-13.2,16.6-17.3c4.2-0.3,7.1,1.1,8,2.6
		c0.9,1.5,0.2,4.1-1.9,7.1c-5.1,7-12.5,8.8-21.9,11.1C422.3,291.5,421.3,291.8,420.2,292z M402.3,289.2c-0.6-0.4-1.3-0.8-1.9-1.2
		c-0.3-0.2-0.6-0.4-0.9-0.6c-13.5-8.8-32-20.8-35-29.5c-1.6-4.5-1.2-6.6-1.1-6.9c0.2-0.1,0.6-0.2,1.1-0.2c3.2,0,11.5,3,21.3,12.6
		c6.1,6.1,10.6,13.7,14.7,21.9C401,286.6,401.7,287.9,402.3,289.2z M395.8,258.6c-0.8-0.9-1.7-1.9-2.6-2.8
		c-11.2-11-26.6-19.6-35.6-13.9c-3.1,2-7.6,7.1-3.3,19.4c3.9,11.5,20,22.4,36.2,33L353,283.7c-8.9-46.9-1.6-86.5,20.3-94.6
		c0,0,0,0,0,0c1.9-0.7,3.8-1.1,5.9-1.3l11.3,48L395.8,258.6z M141.8,172.9l67.5-31.3l66.9,31l-67.8,25.8L141.8,172.9z M305,161.7
		l-4.3,1.8l-7.4,3.1l-2.6,1.1l-0.1-0.1l-0.6-0.3l-68.1-31.6l-1.5-0.7c0.1-0.1,0.2-0.1,0.3-0.2c0.7,0.2,1.4,0.4,2.1,0.5
		c17.9,4.6,37.4,8.4,54.2,8.6l33.3,15.5L305,161.7z M216,103.5c0,0.2,0.1,0.3,0.1,0.5c0.3,1.5,0.6,3.2,0.7,5c0,0.4,0.1,0.8,0.1,1.3
		c0.1,1.8,0.1,3.7,0,5.7c0,0.1,0,0.1,0,0.2c-0.5,7.1-2.5,10.2-3.1,10.5c0,0-0.5,0-1.5-0.7c-1.7-1.1-4-1.1-5.7,0
		c-0.9,0.6-1.4,0.6-1.4,0.7c-0.8-0.5-2.7-3.8-3.1-10.8c0,0,0,0,0-0.1c-0.1-2.1-0.1-4,0-5.8c0-0.2,0-0.4,0-0.7c0.2-2,0.4-3.9,0.8-5.5
		c0,0,0-0.1,0-0.1c0.3-1.6,0.8-2.9,1.2-4c0,0,0-0.1,0.1-0.1c0.1-0.3,0.3-0.6,0.4-0.9c0.2-0.4,0.4-0.8,0.6-1.1
		c0.2,0.1,0.3,0.3,0.6,0.5c2,1.9,5.2,1.9,7.2,0c0.3-0.2,0.5-0.4,0.6-0.5c0.2,0.2,0.4,0.5,0.6,0.9C214.9,99.6,215.5,101.3,216,103.5z
		 M141.5,144c16.9-0.2,36.5-3.9,54.5-8.5l0.6,0.3l-68.7,31.9l-0.2,0.1l-0.6,0.3h0l-9.8-4.2l-4.4-1.9l-4-1.7l-1.3-0.5L141.5,144z
		 M99.7,168.4v-0.1V168l1.4,0.6l3.7,1.6l4,1.7l13,5.5v206.4l-22.1-9.4V168.4z M296,177.1l1.4-0.6l10-4.2l1.6-0.7l9.1-3.8v0.4v0.4
		v37.3c-4.9,1.6-14.7,5.2-22.1,8V177.1z M340.1,225.2l-11.2,4l-0.1,0.1l-5.3,1.9l-3.4,1.2c0.9-4.1,2.1-8,3.4-11.4
		c0.4-1.1,0.9-2.1,1.3-3.1c1.2-2.6,2.5-4.9,4-7c2.8-3.9,6.1-7,9.8-9c1-0.5,5.3-2.2,10.6-4.1C344.8,205.2,341.8,214.5,340.1,225.2z
		 M291.4,227c0.6-0.3,2.3-1,4.6-1.8c4.4-1.7,11.1-4.2,16.7-6.2c-2.3,6.2-3.9,13.3-4.9,21.1l-11.8,4.4l-5.3,2l-5.3,2l-10.1,3.8
		c2.2-8.7,5.7-15.6,10.1-20.4c1.6-1.7,3.4-3.2,5.3-4.3C290.9,227.3,291.2,227.1,291.4,227z M17.9,136.8l71.2,27.5v207.1l-71.2-27.4
		V136.8z M359.7,388.5c-3.1-4.5-6.1-9.2-8.9-14.1c-0.9-1.5-1.8-3.1-2.6-4.7c-0.9-1.6-1.7-3.1-2.5-4.7c-6.7-12.8-12.4-26.5-16.9-40.5
		c-2-6.3-3.8-12.7-5.3-19c-2.7-11.2-4.5-22.3-5.3-33c-0.1-1.6-0.3-3.3-0.4-4.9c-0.5-8.4-0.4-16.2,0.4-23.3c0,0,0-0.1,0-0.1
		c0.3-0.1,0.6-0.1,0.8-0.2l4.5-1.6l5.3-1.9l3.8-1.3l6.2-2.2c-0.4,6-0.4,12.4-0.1,19c1.1,21.7,6.1,46.1,15.4,71.3
		c3.8,10.4,8.1,20.3,12.8,29.6c0.8,1.6,1.6,3.2,2.5,4.8c0.9,1.6,1.7,3.2,2.6,4.7c5.2,9.2,10.7,17.7,16.6,25.3
		c4.5,5.9,9.2,11.3,14,16l-7.1,2.7l-13.1,4.9C374.6,408.1,366.9,399.1,359.7,388.5z M382.1,362.4c-0.9-1.5-1.8-3.1-2.6-4.7
		c-0.8-1.6-1.7-3.1-2.5-4.7c-4.7-9.2-9.1-19.1-12.8-29.4c-3.5-9.4-6.3-18.8-8.5-28l44.8,12.6l5.3,1.5l0.4,0.1c0.3,1.6,0,3.4-0.4,4.9
		c-0.5,1.7-1.2,3.2-1.7,4.1c-1,1.9-2.2,3.6-3.6,5.1c-4.6,5.3-10.8,8.5-14.8,7.2c-2.8-0.9-5.8,0.7-6.7,3.5c-0.9,2.8,0.7,5.8,3.5,6.7
		c1.7,0.5,3.4,0.8,5.2,0.8c4.4,0,8.8-1.6,12.9-4.2c1.9-1.2,3.7-2.6,5.3-4.2c2-1.9,3.8-3.9,5.3-6.2c0.3-0.4,0.5-0.7,0.7-1.1
		l21.3,90.4C415.4,408.5,397.1,388.6,382.1,362.4z M421,302.8c1.6-0.4,3.2-0.8,4.8-1.2c10.1-2.5,20.6-5,28-15.2
		c4.7-6.5,5.6-13.4,2.4-18.7c-3.4-5.8-10.7-8.7-19.1-7.7c-0.5,0.1-1,0.2-1.4,0.4c-13.6,5.7-17.8,13.5-22.6,22.5
		c-0.1,0.3-0.3,0.5-0.4,0.8l-1.6-6.8l-5.3-22.7l-5.3-22.7l-10-42.6c3.3,0.9,6.6,2.3,10,4.1c1.8,0.9,3.5,2,5.3,3.2
		c1.8,1.2,3.5,2.4,5.3,3.8c20.9,16.3,42.3,47.4,56.2,85.3c4.1,11.2,7.4,22.4,9.8,33.3L421,302.8z M400.4,181.1
		c-10.6-4.5-20.9-5.4-30.3-2.2c-4.2,1.1-33.7,11.9-36.6,13.4c-1.7,0.9-3.3,2-4.8,3.1v-31.1l71.7-27.6V181.1z M132.5,181l71.2,27.5
		v207L132.5,388V181z M406.6,430.5c-0.2-0.1-0.4-0.1-0.7-0.2c-1.2-0.4-2.5-1-3.7-1.5c-3.3-1.5-6.8-3.5-10.2-5.9l7.1-2.6l12.4-4.6
		c5.9,4.8,11.8,8.6,17.8,11.4c1.1,0.5,2.3,1,3.4,1.4c-6,2-11,3.7-12.4,4C416,432.8,411.4,432.1,406.6,430.5z M457.9,419.6
		C457.9,419.6,457.9,419.6,457.9,419.6C457.9,419.6,457.9,419.6,457.9,419.6c-4,1.5-8.4,1.9-13,1.2L422.2,324
		c0.1,0.1,0.2,0.2,0.3,0.3c0.3,0.4,0.6,0.7,0.9,1.1c11.2,12.9,24,27.1,42.4,27.1c0.2,0,0.4,0,0.6,0c2.9,0,5.3-2.5,5.2-5.4
		c0-2.9-2.4-5.2-5.3-5.2c-0.2,0-0.4,0-0.5,0c-14.1,0-24.4-11.9-35.3-24.5c-0.3-0.3-0.6-0.7-0.9-1l49.6,13.9c0.1,0,0.1,0,0.2,0
		c2.6,15.6,3.4,30.5,2.2,43.8C479.5,398.3,470.8,414.8,457.9,419.6z"/>
</g>
</svg>
