<?xml version="1.0" encoding="utf-8"?>
<!-- Generator: Adobe Illustrator 27.2.0, SVG Export Plug-In . SVG Version: 6.00 Build 0)  -->
<svg version="1.1" id="Layer_1" xmlns="http://www.w3.org/2000/svg" xmlns:xlink="http://www.w3.org/1999/xlink" x="0px" y="0px"
	 viewBox="0 0 500 500" style="enable-background:new 0 0 500 500;" xml:space="preserve">
<style type="text/css">
	.st0{fill:#808080;}
</style>
<g>
	<path class="st0" d="M447.7,341.3l-134-55c-0.1,0-0.2,0-0.2-0.1v-69.6c0.1-0.1,0.2-0.3,0.3-0.4c0.7-1.2,0.6-2.6-0.1-3.8
		c-2.8-4.5-0.8-8.1,2.8-14.1c0.5-0.8,1-1.6,1.4-2.4c0.6-1,0.6-2.2,0.2-3.2c3.9-0.3,7-2.2,8.1-5c0.9-2.3,0.4-4.7-1.4-6.6
		c-4.4-5.4-8.6-10.8-12.5-16.1c-0.3-0.8-0.8-1.5-1.4-2c-26.1-35.9-41.9-70.3-54-99.9l-0.3-0.6l-0.4-0.5c-1.1-1.2-2.7-2.1-4.6-2.6
		c0.2-0.5,0.3-1,0.3-1.5V39.4h8.3c2.1,0,3.8-1.7,3.8-3.8s-1.7-3.8-3.8-3.8h-8.3v-9.4c0-2.1-1.7-3.8-3.8-3.8c-2.1,0-3.8,1.7-3.8,3.8
		v9.4H236c-2.1,0-3.8,1.7-3.8,3.8s1.7,3.8,3.8,3.8h8.3v18.6c0,0.5,0.1,1.1,0.3,1.5c-1.8,0.5-3.4,1.3-4.5,2.4l-0.6,0.6l-0.3,0.8
		c-24.3,64-46.9,93.4-67.9,117.9c-1.8,1.9-2.3,4.4-1.3,6.7c1.3,3,5,5,9.4,5h0c-0.4,1.2-0.2,2.5,0.5,3.5c4,5.5,5.1,11.1,3.4,17.1
		c-0.1,0.4-0.1,0.8-0.1,1.2c0,0.1,0,0.2,0,0.3v72.8l-131,53.8c-1.2,0.5-1.9,1.6-1.9,2.9v23.2c0,1,0.5,2,1.4,2.6
		c0.5,0.3,1.1,0.5,1.7,0.5c0.4,0,0.8-0.1,1.2-0.2l6.2-2.6v99c0,2.1,1.7,3.8,3.8,3.8h103v7.1c0,2.1,1.7,3.8,3.8,3.8h157.2
		c2.1,0,3.8-1.7,3.8-3.8v-7.1h101.1c2.1,0,3.8-1.7,3.8-3.8v-99.3c0-0.2,0-0.4-0.1-0.6l8.2,3.4c0.4,0.2,0.8,0.2,1.2,0.2
		c0.6,0,1.2-0.2,1.7-0.5c0.9-0.6,1.4-1.5,1.4-2.6v-23.2C449.6,342.9,448.8,341.8,447.7,341.3z M324.8,470.5v3.3H175.2v-3.3V463v-0.7
		h8.2h7.5H214h68.8h23.1h7.5h11.4v0.7V470.5z M304.9,210.6H191.7c0.4-4.4-0.2-8.7-2-12.8h118.3C305.8,201.6,304.1,205.9,304.9,210.6
		z M221.5,395.3c0.2-10.1,10.2-18.4,23-19.8v79.3h-23v-59.3L221.5,395.3z M275.2,454.7h-23.1v-79.3c12.9,1.4,23,9.7,23.1,19.7V454.7
		z M282.7,454.7v-59.3l0-0.3c-0.2-15.4-15.3-27.4-34.3-27.4h-0.1c-19,0-34.1,12-34.3,27.5v59.5h-23.1V218.6h115v11.5h-74.5
		c-2.1,0-3.8,1.7-3.8,3.8s1.7,3.8,3.8,3.8h74.5v217.1H282.7z M285.2,154.2c2.4-2,4.2-4.8,5-8c4.5,7.1,9.3,14.2,14.6,21.4
		c-0.3,3-1.8,4.6-6.7,4.6H296c-4.8,0-8.6-3.8-8.6-8.6v-6C287.5,156.2,286.6,154.8,285.2,154.2z M254.1,156.6
		c3.1-1.3,5.7-3.7,7.4-6.8c2.6,4.7,7.3,7.8,12.7,7.8h0.4c-0.2,0.5-0.3,1-0.3,1.5v6c0,4.7-3.9,8.6-8.7,8.6h-2c-4.8,0-8.6-3.8-8.6-8.6
		v-6C255.1,158.2,254.8,157.3,254.1,156.6z M224.1,157.5c4.4-0.7,8.2-3.4,10.4-7.2c2.1,3.6,5.6,6.2,9.7,7.1
		c-0.3,0.5-0.5,1.1-0.5,1.8v6c0,4.7-3.9,8.6-8.7,8.6h-2c-4.8,0-8.6-3.8-8.6-8.6v-6C224.5,158.6,224.3,158,224.1,157.5z M249.2,127.7
		c1.8,2.7,4.7,4.8,8,5.7c-0.7,0.7-1.1,1.6-1.1,2.7v5.8c0,4.5-3.2,8.2-7.2,8.2h-1.9c-4,0-7.2-3.7-7.2-8.2v-5.8c0-0.8-0.3-1.6-0.8-2.3
		C243.3,133.3,246.9,131,249.2,127.7z M283.3,141.9c0,4.5-3.3,8.2-7.3,8.2h-1.8c-4,0-7.2-3.7-7.2-8.2v-5.8c0-1-0.4-1.8-1-2.5
		c5.3-1.2,9.5-5.1,10.8-10.1c2.7,4.9,5.6,9.9,8.6,15C284.2,139.1,283.3,140.4,283.3,141.9z M246,67c0.4-0.2,1-0.4,1.9-0.4
		c1.1,0,2,0.2,2.4,0.4c2.4,5.9,4.9,11.9,7.7,18.1c-0.2,0.5-0.3,1-0.3,1.5v3.9c0,3.1-3.9,5.7-8.4,5.7h-2c-4.7,0-8.4-2.6-8.4-5.7v-3.9
		c0-0.4-0.1-0.8-0.2-1.1C241,79.6,243.5,73.5,246,67z M233.4,97.3c2.8,3.9,7.8,6.5,13.8,6.5h2c6.2,0,11.5-2.8,14.1-7
		c2.4,5.2,5,10.5,7.8,15.9c-0.8,0.7-1.4,1.7-1.4,2.9v4.7c0,3.4-3.1,6.1-6.9,6.1h-1.7c-3.8,0-6.8-2.7-6.8-6.1v-4.7
		c0-2.1-1.7-3.8-3.8-3.8c-0.5,0-1,0.1-1.5,0.3c-0.5-0.2-1-0.3-1.5-0.3c-2.1,0-3.8,1.7-3.8,3.8v4.7c0,3.4-3,6.1-6.8,6.1h-1.8
		c-3.7,0-6.8-2.8-6.8-6.1v-4.7c0-1.5-0.9-2.9-2.2-3.4C228.7,107.4,231,102.5,233.4,97.3z M221.2,122.2c0.7,5.1,4.5,9.4,9.5,11
		c-0.8,0.7-1.4,1.7-1.4,2.9v5.8c0,4.5-3.3,8.2-7.3,8.2h-1.8c-4,0-7.2-3.7-7.2-8.2c0-1.2-0.5-2.2-1.4-2.9
		C214.8,133.8,218,128.2,221.2,122.2z M206.4,147.4c1.4,4.1,4.5,7.5,8.3,9.1c-0.7,0.7-1.1,1.6-1.1,2.7v6c0,4.7-3.9,8.6-8.7,8.6h-2
		c-4.8,0-8.6-3.8-8.6-8.6c0-0.1,0-0.3,0-0.4C198.3,159.5,202.3,153.7,206.4,147.4z M179.5,185.2c-0.6,0-1.1-0.1-1.5-0.2
		c3.4-4,6.9-8.2,10.5-12.7c2.6,5.3,8.1,9,14.4,9h2c6.1,0,11.3-3.3,14.1-8.2c2.8,4.9,8,8.2,14,8.2h2c6.2,0,11.7-3.5,14.4-8.7
		c2.7,5.2,8.1,8.7,14.3,8.7h2c7.3,0,13.5-4.8,15.5-11.4c2.4,5.8,8.2,9.9,14.9,9.9h2.1c5.5,0,9.5-1.8,11.9-5.2
		c2.6,3.5,5.4,6.9,8.2,10.4c-0.4,0.1-0.9,0.2-1.6,0.2H179.5z M56.6,362.8v-16.5l126.7-52v16.5L56.6,362.8z M110.5,460.3v-15.8h13.7
		v15.8H110.5z M131.8,422h13.6v14.9h-13.6V422z M145.4,400.3v14.2h-12.9c1.7-7.6,5.7-13.1,12.6-17.3
		C145.3,398.2,145.4,399.2,145.4,400.3z M124.2,436.9h-13.7V422h13.7V436.9z M131.8,444.5h13.6v15.8h-13.6V444.5z M141.5,390.5
		c-6.2,3.8-10.7,8.4-13.5,14.2c-2.8-5.7-7.2-10.4-13.4-14.2c-0.3-0.2-0.7-0.3-1.1-0.4c3.1-4.9,8.4-8.1,14.4-8.1
		c6,0,11.3,3.2,14.5,8.1C142.1,390.2,141.8,390.3,141.5,390.5z M110.5,400.3c0-1.1,0.1-2.2,0.3-3.2c6.9,4.3,11,9.8,12.6,17.5h-13
		V400.3z M152.9,463v-62.7c-0.1-14.2-11.4-25.8-25.1-25.8c-13.6,0-24.8,11.6-25,25.8V463H87v-66.1c0-2.1-1.7-3.8-3.8-3.8
		s-3.8,1.7-3.8,3.8V463h-11v-95.5c0-1-0.4-1.8-1-2.5l115.8-47.5v137.3h-11.9c-2.1,0-3.8,1.7-3.8,3.8v4.4H152.9z M350.8,459.2v-15.7
		h13.7v15.7H350.8z M372.1,420.9h13.6v15h-13.6V420.9z M385.7,399.1v14.2h-12.9c1.7-7.6,5.7-13.1,12.6-17.3
		C385.6,397,385.7,398,385.7,399.1z M364.6,435.9h-13.7v-15h13.7V435.9z M372.1,443.4h13.6v15.7h-13.6V443.4z M381.9,389.3
		c-6.2,3.8-10.7,8.4-13.5,14.2c-2.8-5.7-7.2-10.4-13.4-14.2c-0.3-0.2-0.7-0.3-1.1-0.4c3.2-4.9,8.5-8.1,14.5-8.1
		c6,0,11.3,3.2,14.4,8.1C382.4,389.1,382.1,389.2,381.9,389.3z M350.8,399.1c0-1.1,0.1-2.2,0.3-3.2c6.9,4.3,11,9.8,12.6,17.5h-13
		V399.1z M429.7,367.5V463h-36.4c0,0,0,0,0,0v-63.9c-0.1-14.2-11.3-25.8-25-25.8c-13.7,0-24.9,11.6-25.1,25.8v63.8c0,0,0,0,0,0
		h-10.9v-4.4c0-2.1-1.7-3.8-3.8-3.8h-15.2V316.1l117.8,48.3C430.3,365.1,429.7,366.2,429.7,367.5z M443.4,362.8l-127.8-52.5v-16.5
		l127.8,52.4V362.8z"/>
	<path class="st0" d="M248.3,253.8c-12.4,0-22.6,10.4-23.2,23.3c-0.1,0.3-0.1,0.6-0.1,1v59.5c0,2.1,1.7,3.8,3.8,3.8H268
		c2.1,0,3.8-1.7,3.8-3.8v-59.5c0-0.3,0-0.7-0.1-1C271.1,264.2,260.8,253.8,248.3,253.8z M232.5,298.7h12.2v13.4h-12.2V298.7z
		 M232.5,279c0.1-0.3,0.1-0.6,0.1-0.9c0-0.9,0.1-1.7,0.2-2.5c6,3.9,9.5,8.8,11.1,15.5h-11.4V279z M264.1,278.2c0,0.3,0,0.6,0.1,0.8
		v12.1H253c1.5-6.6,5-11.5,11-15.4C264,276.5,264.1,277.3,264.1,278.2z M252.2,298.7h12.1v13.4h-12.1V298.7z M248.3,261.4
		c5.3,0,10,2.8,12.9,7.2c-0.2,0.1-0.4,0.2-0.6,0.3c-5.5,3.5-9.6,7.6-12.2,12.8c-2.6-5.1-6.7-9.3-12.3-12.8c-0.2-0.1-0.4-0.2-0.6-0.3
		C238.4,264.2,243.1,261.4,248.3,261.4z M232.5,319.6h12.2v14.3h-12.2V319.6z M264.2,333.9h-12.1v-14.3h12.1V333.9z"/>
	<path class="st0" d="M215.9,230.1h-5.4c-2.1,0-3.8,1.7-3.8,3.8s1.7,3.8,3.8,3.8h5.4c2.1,0,3.8-1.7,3.8-3.8S217.9,230.1,215.9,230.1
		z"/>
	<path class="st0" d="M83.2,373.9c-2.1,0-3.8,1.7-3.8,3.8v5c0,2.1,1.7,3.8,3.8,3.8s3.8-1.7,3.8-3.8v-5
		C87,375.6,85.3,373.9,83.2,373.9z"/>
</g>
</svg>
