<?xml version="1.0" encoding="utf-8"?>
<!-- Generator: Adobe Illustrator 27.2.0, SVG Export Plug-In . SVG Version: 6.00 Build 0)  -->
<svg version="1.1" id="Layer_1" xmlns="http://www.w3.org/2000/svg" xmlns:xlink="http://www.w3.org/1999/xlink" x="0px" y="0px"
	 viewBox="0 0 500 500" style="enable-background:new 0 0 500 500;" xml:space="preserve">
<style type="text/css">
	.st0{fill:#808080;}
</style>
<g>
	<path class="st0" d="M176,314.1c2.6-4.1,3.6-9.4,2.9-15.1c-1.2-9.1-6.6-16.6-14.2-19.9c12.2-9.9,21.8-25.2,28.6-45.7
		c0.6-1.8-0.4-3.8-2.2-4.5c-28.6-10.3-50.4-10.6-66.6-0.8c-1.7,1-3.4,2.2-5,3.5c0.5-4.2-0.1-8.5-2-12.5c1,0,2.1,0.1,3.1,0.1
		c33.1,0,56.5-19.9,69.6-59.6c0.6-1.8-0.4-3.8-2.2-4.5c-3.5-1.3-6.9-2.4-10.2-3.3c4.1-2.4,5.8-7,4.6-12.6c-0.4-1.6-1-2.9-1.9-4
		c3.6-2.1,4.5-5,4.8-6.7c0.8-5.6-4.1-11.6-10.5-13.2c-3-0.7-12.7-1.9-18.7,12.1c-10.2-2.7-18.8-1.2-26.3,1.9
		c6.2-11.2,14.2-21.9,30.7-32c1.9,2.3,3.8,3.7,5.9,5.2l0.1,0.1c0,0,0,0,0,0c2.4,1.6,5.1,2.4,7.8,2.4c5.4,0,10.9-2.9,13.8-7.1
		c3.7-5.3,2.4-11.4-3.4-15.4c-1.3-0.9-2.7-1.4-4-1.7c1.3-3.8,0.1-6.6-0.8-8c-3.1-4.7-10.8-6-16.8-2.9c-2.7,1.4-10.8,7-6.2,21
		c-21.7,13.2-30.1,27.6-37.3,41.8c-0.7-0.3-1.4-0.5-2.2-0.8c-1.7-0.4-3.4-0.7-5.2-0.7c3-5.7,6.4-11.4,10.1-17c0.2,0,0.4,0.1,0.6,0.1
		c0.5,0,0.9-0.1,1.4-0.3c17.4-7.3,21.5-23,12.2-46.7c-0.5-1.2-1.6-2.1-2.9-2.2c-1.3-0.2-2.6,0.4-3.4,1.4c-1.3,1.8-2.8,3.6-4.2,5.3
		c-7.1,8.8-14.9,18.4-11.5,30.7c-3.1-6.4-9.1-12.8-17.8-19c-1.1-0.8-2.4-0.9-3.6-0.3c-1.2,0.6-2,1.7-2.1,3c-0.2,2.2-0.4,4.4-0.7,6.6
		c-1,9-2.1,18.7,2.4,26.6c-3.3,0.1-6.6,0.9-9.6,2.6c-4.8,2.7-8.2,7.1-9.6,12.3c-0.6,1.9-0.8,4-0.8,6c-5.1,2.6-9,7.2-10.6,12.7
		c0,0,0,0,0,0c-2.9,10.8,3.5,22,14.2,25.1c0,0,0.1,0,0.1,0c1.9,0.5,3.8,0.7,5.7,0.6c0.1,0.4,0.3,0.9,0.5,1.3c-3.9,0.4-7.7,1.7-11,4
		c-2,1.4-3.6,2.9-5,4.6c-6.8-2.1-14.1-1.1-20.1,3c-5.2,3.5-8.8,8.8-10,15c-1.2,6.2,0.1,12.5,3.6,17.7c1.5,2.1,3.2,3.9,5.1,5.4
		c-1.8,6.5-0.7,13.5,3.1,19.3c0,0,0,0,0,0c2.6,3.8,6.1,6.7,10.3,8.5c-14.3-3.5-31.9-1.4-53.2,6.3c-1.8,0.7-2.8,2.7-2.2,4.5
		c10.6,31.9,27.7,51,51.3,57.3c-10.6,5.7-14.6,12.7-15.9,18.3c-2,8.4,1.2,17.5,8.3,23.8c4.3,3.9,9.3,6,14.2,6.1
		c-3.1,16.3,4.6,28.1,14.8,31.7c2.2,0.8,4.5,1.2,6.9,1.2c0.7,0,1.4,0,2.1-0.1c0.3,5.7,1.7,11.6,3,17.2c0.6,2.6,1.2,5.3,1.7,7.9
		c0.2,1.3,1.1,2.3,2.4,2.7c0.4,0.1,0.8,0.2,1.2,0.2c0.9,0,1.7-0.3,2.4-0.9c8-6.9,13.6-13.7,16.9-20.4c2.1,0.8,4.2,1.3,6.3,1.5
		c0.5,0,1,0.1,1.5,0.1c6,0,12.1-2.6,16.9-7.7c7.6,9.7,15.1,16.6,21.6,20c0.5,0.3,1.1,0.4,1.6,0.4c1.3,0,2.6-0.7,3.2-2
		c0.9-1.8,0.2-3.9-1.6-4.8c-4.3-2.2-9.5-6.7-15-13c4.8,3.2,10.7,4.8,17.7,4.8c6.8,0,14.6-1.5,23.5-4.6c1.2-0.4,2.1-1.5,2.3-2.7
		c0.2-1.3-0.2-2.6-1.2-3.4c-2-1.7-4-3.6-5.9-5.4c-4-3.7-8.3-7.6-12.8-10.7c3.7-3.4,6.2-7.8,7.1-12.6c0.7-3.6,0.5-8.2-1.6-13.5
		c9.5-2,15.4-8.6,17.3-15.7C196.6,333.6,191.2,320.6,176,314.1z M174.1,76.8c0.7,1-0.3,4-5.6,8.3c-1.5,1.2-1.8,3.4-0.6,5
		c1.2,1.5,3.4,1.9,5,0.7c4-2.9,6.2-3.6,7.9-2.4c3.2,2.2,2.5,4,1.6,5.4c-2.1,3-7.8,5.5-11.6,2.9l-0.1-0.1c-2.6-1.8-4.3-3.1-6-6.2
		c-2.7-6.9-2-12,2.1-14.1C169.7,74.7,173.3,75.5,174.1,76.8z M186.9,342.4c-1.4,5.4-6.1,10-13.9,10.9c-2.9-4.2-7-8.8-13-13.6
		c-0.3-0.2-0.5-0.4-0.8-0.5c-3.4-1.5-7.1-2.6-11-3.6c4-1.6,8.6-2.3,15.2-0.7c1.9,0.5,3.9-0.7,4.3-2.6c0.5-1.9-0.7-3.9-2.6-4.3
		c-10.2-2.5-16.8-0.5-22.3,2.2c-0.5-2.3-1.2-4.6-2.1-6.7c0.2-0.3,0.4-0.6,0.6-0.9c3.4-5.9,6.4-11,16.3-14.1c1.9-0.6,2.9-2.6,2.4-4.5
		s-2.6-2.9-4.5-2.4c-11,3.5-15.5,9.3-18.9,15c-1.5-1.9-3.2-3.6-5.1-5.1c-1-0.8-2.1-1.5-3.2-2.2c-0.7-0.4-1.4-0.8-2.2-1.2
		c1.2-2.9,2.5-5.6,3.8-8.1c0.8-1.5,1.6-3,2.5-4.3c0.5-0.5,1.1-0.9,1.6-1.3c1-0.8,2.1-1.6,3.1-2.4c7.3-5.2,14.2-7.8,20-7.3
		c1.5,0.1,2.9,0.4,4.3,0.9c6.7,2.5,9.8,9.2,10.5,14.5c0.7,5.5-0.9,10.4-4.2,12.8c-1.1,0.8-1.7,2.2-1.4,3.5c0.2,1.4,1.2,2.4,2.5,2.8
		C184.2,323.6,189,334.3,186.9,342.4z M171.1,372.2c-0.8,4.5-3.6,7.9-6.8,10.2c-1.4,1-2.9,1.8-4.3,2.4c-0.4,0.2-0.8,0.3-1.2,0.5
		c-4,1.3-8,1.3-11-0.1c-0.9-0.4-1.8-1-2.5-1.6c-0.4-0.4-0.9-0.6-1.4-0.8c-0.7-0.2-1.6-0.2-2.3,0.1c-1,0.4-1.8,1.2-2.1,2.2
		c-0.1,0.3-0.1,0.5-0.2,0.8c-0.1,1.4-0.4,2.7-0.6,4c0,0.1,0,0.2-0.1,0.3c-0.4,1.7-0.8,3.2-1.3,4.7c-0.1,0.3-0.2,0.5-0.3,0.8
		c-1,2.5-2.2,4.5-3.6,6.2c-3.8,4.6-8.9,6.6-13.6,6.3c-1.5-0.1-2.9-0.5-4.3-1c-1.1-0.5-2.2-1.1-3.2-1.9c-1.2-0.9-2.2-2.1-3.2-3.4
		c-1.8-2.6-3-5.9-3.5-10.1c-0.1-1.1-0.2-2.3-0.2-3.5c0-0.5,0-1,0-1.6c0.1-1.3,0.2-2.7,0.3-4c0.1-0.7,0.1-1.4,0.2-2
		c0.1-0.8,0.2-1.6,0.3-2.4c0.5-3.6,1-7.1,1.7-10.3c0.5,0.1,0.9,0.1,1.4,0.1c0.8,0.1,1.6,0.1,2.3,0.1c0.4,0,0.9,0,1.3,0
		c0.1,0,0.3,0,0.4,0c0.1,0,0.2,0,0.3,0c2.4-0.2,4.8-0.6,7.1-1.3c0.4-0.1,0.9-0.3,1.3-0.4c0.8,1.9,1.4,3.9,1.7,6.3
		c0.3,2.6,0.2,5.7-0.7,9.3c-0.4,1.9,0.8,3.9,2.7,4.3c0.3,0.1,0.5,0.1,0.8,0.1c1.6,0,3-1,3.4-2.6c0-0.1,0-0.1,0.1-0.2
		c2-9,0.6-15.2-1.6-20.3c2.3-1.5,4.4-3.2,6.3-5.2c4.4,2.1,8.3,5.1,11.7,12.1c0.6,1.3,1.9,2,3.2,2c0.5,0,1.1-0.1,1.6-0.4
		c1.8-0.9,2.5-3,1.6-4.8c-3.8-7.8-8.4-11.7-13-14.3c-0.3-0.2-0.6-0.3-0.9-0.5c0.6-1,1.1-2.1,1.6-3.1c0.5-1.1,0.9-2.2,1.2-3.4
		c0.4-1.2,0.7-2.4,0.9-3.7c4.7,1,9,2.2,12.9,3.9c2.8,2.3,5.3,4.6,7.4,7c1.3,1.4,2.4,2.8,3.4,4.2c0.9,1.3,1.7,2.5,2.3,3.8
		C171,364.6,171.8,368.5,171.1,372.2z M180.5,403.4c-21.5,6-30.9-0.5-35.7-8.5c0.3-0.9,0.5-1.9,0.8-2.9c4.5,1.8,10,1.9,15.5,0.1
		c1.3-0.4,2.5-0.9,3.6-1.5c4.5,2.6,9.1,6.7,14.4,11.5C179.6,402.5,180,402.9,180.5,403.4z M95.5,422.5c-1.5-6.7-2.8-12.5-2.8-17.6
		c2.6-1.2,5.1-3,7.5-5.4c1.5,4.3,3.9,7.8,6.7,10.3c-2,4.4-5.5,9.2-10.9,14.6C95.8,423.7,95.6,423.1,95.5,422.5z M69.9,370.9
		c0.4-1.3,0.1-2.7-0.9-3.7c-1-1-2.4-1.3-3.7-0.8c-3.9,1.4-8.8-0.1-13-3.8c-4-3.6-7.7-9.9-6.1-16.8c1.7-7,8.7-12.9,20-16.9
		c0.9-0.3,1.8-0.6,2.7-0.9c0.6-0.2,1.2-0.4,1.8-0.5c0.9,0,1.9,0.1,2.8,0.1c1.3,0.1,2.7,0.2,4.1,0.4c1.1,0.1,2.1,0.3,3.2,0.5
		c-0.1,0.4-0.2,0.7-0.3,1.1c-0.2,1.2-0.4,2.4-0.5,3.6c-0.2,1.7-0.2,3.4-0.1,5.1c0,0.6,0.1,1.1,0.2,1.7c-5.5,0-11.8,1.2-19.2,6.6
		c-1.6,1.2-1.9,3.4-0.8,5c0.7,1,1.8,1.5,2.9,1.5c0.7,0,1.5-0.2,2.1-0.7c6.5-4.8,11.5-5.5,16.6-5.2c1.3,3.5,3.2,6.8,5.7,9.6
		c-4.4,5-8.7,11.2-8.7,22.9c0,2,1.6,3.6,3.6,3.6c0,0,0,0,0,0c2,0,3.6-1.6,3.6-3.6c-0.1-9.1,2.9-13.6,6.7-18c2.5,1.8,5.2,3.3,8.1,4.3
		c-0.8,4.5-1.7,9.5-2.2,14.6c-0.2,1.5-0.3,3.1-0.4,4.6c0,0.3,0,0.6-0.1,0.8c-0.1,1.3-0.1,2.6,0,3.9c0,0,0,0,0,0
		c-1.1,1.9-2.3,3.5-3.6,4.8c-1.6,1.6-3.3,2.8-5,3.6c-1.3,0.6-2.6,1-3.9,1.2c-2.4,0.4-4.7,0.2-6.9-0.6
		C71.1,396.2,64.9,386.2,69.9,370.9z M11.8,269.7c24.4-8.3,43.6-8.4,57.1-0.3c4.4,2.6,8.2,6.2,11.6,10.6c-0.2,1.1-0.4,2.2-0.4,3.3
		c-0.5-0.1-1-0.2-1.5-0.3c-0.6-1-1.7-1.7-2.9-1.7c-1.2-0.1-2.2,0.5-2.9,1.3c-5.2,0-9.7,1.2-13.5,3.2l-2-12.1c-0.3-2-2.2-3.3-4.1-2.9
		c-2,0.3-3.3,2.2-2.9,4.1l1.3,8c-4.7-1.7-9.4-2.9-14.1-3.6c-2-0.3-3.8,1-4.1,3c-0.3,2,1,3.8,3,4.1c3.5,0.6,7.1,1.4,10.6,2.6
		l-7.5,3.5c-1.8,0.8-2.6,3-1.8,4.8c0.6,1.3,1.9,2.1,3.3,2.1c0.5,0,1-0.1,1.5-0.3l7-3.2c-0.4,0.8-0.7,1.6-1,2.4
		c-2,5.6-1.6,12.4,2.2,18.5C33.4,309.8,20.6,294.2,11.8,269.7z M51.9,225.4c-2-1.1-3.7-2.8-5.2-4.9c-2.4-3.6-3.3-8-2.5-12.3
		c0.8-4.3,3.3-8,6.9-10.4c4.8-3.2,10.8-3.7,16-1.3c1.7,0.8,3.7,0.1,4.6-1.5c1.1-1.8,2.6-3.5,4.6-4.9c2.7-1.8,5.8-2.8,9-2.8
		c1.1,0,2.2,0.1,3.3,0.3c1.1,1,2.3,1.8,3.5,2.5c1.2,0.7,2.4,1.2,3.7,1.6c0.2,0.1,0.5,0.2,0.7,0.2c0.1,0,0.2,0,0.3,0.1
		c0.7,0.7,1.4,1.5,1.9,2.3c0.1,0.1,0.1,0.1,0.2,0.2c1,1.6,1.8,3.3,2.2,5.1c0.1,0.3,0.1,0.6,0.2,1c0.6,2.9,0.4,6-0.7,8.8
		c0,0.1,0,0.2-0.1,0.2c-0.2,0.6-0.2,1.3,0,1.9c0.2,0.8,0.7,1.5,1.4,2c0.2,0.1,0.4,0.3,0.6,0.3c2.2,1,4.3,2.5,5.9,4.4
		c0.4,0.5,0.8,0.9,1.1,1.4c5,7.5,3,17.7-4.4,22.7c-5,3.4-11.5,3.7-16.8,0.9c-0.3-0.1-0.6-0.3-0.8-0.5c-0.8-0.5-1.8-0.6-2.8-0.4
		c-0.9,0.2-1.7,0.9-2.2,1.7c-0.4,0.7-0.8,1.3-1.2,1.9c-1,1.3-2.3,2.5-3.8,3.5c-3.6,2.5-8,3.4-12.2,2.5c-4.3-0.8-8-3.3-10.5-6.9
		c-3.1-4.6-3.6-10.4-1.5-15.4C54.2,228.3,53.5,226.3,51.9,225.4z M69.7,155.1c1.2-4.2,4.4-7.6,8.6-9c1.7-0.6,2.7-2.3,2.4-4
		c-0.3-1.9-0.2-3.9,0.3-5.8c0.9-3.4,3.1-6.3,6.2-8c3-1.7,6.6-2.2,10-1.2c2.8,0.7,5.2,2.5,7,4.8c1,1.3,1.7,2.7,2.2,4.3
		c0.4,1.3,1.4,2.2,2.5,2.5c0.5,0.1,1,0.2,1.5,0.1c1.1-0.2,2.2-0.2,3.2-0.1c0.8,0.1,1.5,0.2,2.2,0.4c0.3,0.1,0.5,0.2,0.8,0.3
		c1.8,0.6,3.4,1.6,4.7,2.9c0.4,0.4,0.9,0.9,1.2,1.3c2,2.4,3.1,5.5,3,8.7c0,1-0.2,2-0.4,3c-0.2,0.5-0.4,1.1-0.6,1.6
		c-1.5,3.4-4.2,6-7.6,7.3c-1.8,0.7-2.7,2.6-2.2,4.4c0.1,0.3,0.2,0.6,0.2,0.9c0.5,2.1,0.4,4.3-0.2,6.4c-1.3,4.6-4.8,7.9-9,9.2
		c-1.3,0.4-2.7,0.6-4.1,0.6c-0.5,0-1-0.1-1.5-0.1c-0.6-0.1-1.1-0.2-1.7-0.3c-0.1,0-0.2-0.1-0.4-0.1c-1.7-0.5-3.2-1.3-4.5-2.4
		c-0.5-0.4-1-0.9-1.5-1.4c-1.6-1.8-2.7-4.1-3.1-6.6c-0.1-0.5-0.3-1-0.5-1.4c-0.3-0.4-0.6-0.7-1-1c-0.6-0.4-1.3-0.6-2.1-0.6
		c-0.2,0-0.5,0-0.7,0.1c-1.9,0.4-4,0.3-6-0.2C71.9,169.4,67.8,162.1,69.7,155.1z M98,93.6c0-0.1,0-0.2,0-0.3
		c15.1,12.7,13.6,22.6,9.7,29.6C96.1,117.3,96.4,107.9,98,93.6z M173.1,122.3c3.3,0.8,5.3,3.7,5.1,5.2c-0.2,1.5-3.3,3-9.7,2.8
		c-1.9,0-3.6,1.4-3.7,3.4c-0.1,2,1.4,3.6,3.3,3.8c4.7,0.4,6.8,1.3,7.3,3.3c0.9,4-1,4.9-2.7,5.3c-3.8,0.9-9.2-1.3-10.2-5.4
		c0,0,0,0,0,0c-0.4-1.7-0.7-3.1-0.8-4.6c-0.1-1.3,0-2.6,0.4-4.3c0.2-0.6,0.5-1.2,0.7-1.8C165.4,124.1,169.1,121.3,173.1,122.3z
		 M106,192.3c3.5-0.7,6.8-2.3,9.5-4.7l0.1,1.1c-2.8,2-5.5,4.2-8.2,6.6C107,194.2,106.6,193.2,106,192.3z M111.9,211.5
		c-1.1-1-2.3-1.9-3.5-2.6c0.4-1.8,0.6-3.6,0.5-5.4c3.5-3.2,7-6.1,10.5-8.7l12.7,7.8c0.6,0.4,1.2,0.5,1.9,0.5c1.2,0,2.4-0.6,3.1-1.7
		c1-1.7,0.5-3.9-1.2-4.9l-10-6.2c4-2.5,8-4.8,12-6.6l13.8,6.4c0.5,0.2,1,0.3,1.5,0.3c1.4,0,2.7-0.8,3.3-2.1c0.8-1.8,0-3.9-1.8-4.8
		l-7.5-3.5c3.5-1.1,7.1-2,10.6-2.6c2-0.3,3.3-2.1,3-4.1c-0.3-2-2.1-3.3-4.1-3c-4.7,0.7-9.4,1.9-14.1,3.6l1.4-8c0.3-2-1-3.8-2.9-4.2
		c-2-0.3-3.8,1-4.2,2.9l-2.2,12.4c-4.1,1.9-8.1,4.1-12.2,6.7l-0.4-8.1c0,0,0,0,0,0c0.3-2.1,0.4-4.2,0.1-6.3c4.6-2.6,8.1-7,9.6-12.1
		c12.9-4.7,29.7-3.6,50.4,3.4C168.9,198.3,145.7,215.1,111.9,211.5z M128.2,234.3c13.7-8.3,32.4-8.2,57.1,0.2
		c-7.2,20.3-17.3,34.5-30.3,42.8c-5.6,0.1-12.5,2.1-20.8,7.8c-0.7,0.1-1.4,0.2-2.1,0.3c-2.6-7.5-5.8-12.7-9.1-16.5l12.3,7.5
		c0.6,0.4,1.2,0.5,1.9,0.5c1.2,0,2.4-0.6,3.1-1.7c1-1.7,0.5-3.9-1.2-4.9l-10-6.1c4-2.6,8-4.8,12-6.6l13.8,6.4c0.5,0.2,1,0.3,1.5,0.3
		c1.4,0,2.7-0.8,3.3-2.1c0.8-1.8,0-3.9-1.8-4.8l-7.5-3.5c3.5-1.1,7.1-2,10.6-2.6c2-0.3,3.3-2.1,3-4.1c-0.3-2-2.1-3.3-4.1-3
		c-4.7,0.7-9.4,1.9-14.1,3.6l1.4-8c0.3-2-1-3.8-2.9-4.2c-2-0.3-3.8,1-4.2,2.9l-2.2,12.4c-4.1,1.9-8.2,4.1-12.2,6.7l-0.4-8.1
		c-0.1-2-1.7-3.5-3.8-3.4c-2,0.1-3.5,1.8-3.4,3.8l0.6,12.6c-0.6,0.4-1.1,0.8-1.7,1.3c-2.4-1.5-4.7-2.4-6.8-2.9
		c-0.6-0.2-1.3-0.3-1.9-0.4C112.9,248.3,119.6,239.5,128.2,234.3z M55.2,300.6c0.8-2.4,2.3-4.6,4.4-6.4c2.1-1.8,4.7-3.2,7.9-3.9
		c1.3-0.3,2.7-0.5,4.2-0.6c2.2-0.1,4.6,0.1,7.2,0.6c1.4,0.3,2.9,0.7,4.4,1.1c1.3,0.4,2.6,0.1,3.6-0.8c0,0,0.1,0,0.1-0.1
		c0,0,0.1-0.1,0.1-0.1c0.9-1,1.2-2.3,0.7-3.6c-0.4-1-0.5-2.2-0.5-3.3c0-1.6,0.4-3.2,1.1-4.9c0.7-1.6,1.7-3.2,3-4.7
		c0.1-0.1,0.1-0.1,0.2-0.2c1.6-1.8,3.8-3.5,6.3-4.8c1.3-0.6,2.6-1.1,4.1-1.4c1.2-0.3,2.5-0.4,3.9-0.3c0.9,0,1.7,0.2,2.6,0.4
		c0.8,0.2,1.6,0.5,2.3,0.8c2.2,0.9,4.2,2.4,6.1,4.3c3,3.1,5.6,7.4,7.7,12.8c0.4,1.1,0.9,2.3,1.3,3.6c0.2,0.6,0.4,1.3,0.6,1.9
		c-0.4,0.5-0.7,1.1-1,1.7c-2.3,3.8-4.3,8-6.2,12.5c-2.1-0.5-4.4-0.8-6.6-0.9c0.2-3.8-0.1-7.9-1.9-12.5c-0.5-1.3-1.1-2.6-1.8-3.9
		c-0.6-1-1.2-2.1-1.9-3.2c-0.3-0.4-0.6-0.7-1-1c-0.2-0.1-0.4-0.2-0.6-0.3c-0.7-0.3-1.4-0.4-2.1-0.2c-0.4,0.1-0.9,0.3-1.3,0.5
		c-0.9,0.6-1.4,1.5-1.6,2.5c-0.1,0.7,0,1.4,0.4,2.1c0.1,0.1,0.1,0.2,0.2,0.4c0.3,0.5,0.7,1.1,1,1.6c3.4,5.8,3.8,10.3,3.4,14.7
		c-1.9,0.4-3.7,0.9-5.5,1.6c-0.5,0.2-0.9,0.4-1.4,0.6c-0.6,0.3-1.3,0.6-1.9,0.9c-0.9,0.5-1.8,1-2.7,1.6c-0.3-0.2-0.6-0.5-0.8-0.7
		c-0.6-0.5-1.3-1.1-2-1.6c-0.5-0.4-1-0.8-1.6-1.1c-3.2-2.1-7-3.8-12.2-4.6c-1.4-0.2-2.8-0.3-4.4-0.4c-0.3,0-0.5,0-0.8,0.1
		c-0.1,0-0.1,0-0.2,0c-1.5,0.4-2.7,1.7-2.8,3.3c0,0.7,0.1,1.3,0.4,1.8c0.6,1.1,1.7,1.8,3,1.9c5.6,0.2,9.5,1.6,12.5,3.5
		c1.2,0.7,2.3,1.6,3.3,2.5c-0.1,0.1-0.2,0.2-0.3,0.3c-0.1,0.1-0.1,0.1-0.2,0.2c-1.4,1.5-2.5,3.2-3.6,4.9c-0.3,0.5-0.5,0.9-0.8,1.4
		c-1.9-0.3-3.7-0.6-5.5-0.8c-2.6-0.3-5.1-0.5-7.6-0.6c-0.3,0-0.7,0-1,0.1c-0.4,0.1-0.8,0.2-1.2,0.4c-0.5,0.1-1,0.3-1.5,0.5
		c-0.5-0.2-1-0.5-1.5-0.8C55.3,315.2,52.9,307,55.2,300.6z M100.5,260.8c-3.6,0.7-7.1,2.3-10.2,4.7c-0.6-4.6-1-9.3-1.3-14.1
		c5.1,1.6,10.7,1.5,15.7-0.4C103.1,253.9,101.7,257.2,100.5,260.8z M134.3,326.6c0,0.1,0,0.1,0.1,0.2c0.5,1.2,0.9,2.5,1.2,3.8
		c0.2,0.8,0.3,1.6,0.4,2.4c0,0.2,0.1,0.4,0.1,0.6c0,0.3,0.1,0.7,0.1,1c0,0.7,0.1,1.4,0,2c0,0.3,0,0.6,0,0.9c0,0.2,0,0.4,0,0.6
		c-0.1,0.7-0.1,1.4-0.3,2.1c-0.1,0.5-0.2,1-0.3,1.5c-0.1,0.3-0.1,0.5-0.2,0.8c-0.3,1.2-0.7,2.3-1.2,3.4c-0.5,1-1,2-1.6,3
		c0,0.1-0.1,0.1-0.1,0.2c-0.6,1-1.3,1.9-2,2.8c-0.3,0.3-0.6,0.7-0.9,1c-0.6,0.6-1.2,1.2-1.8,1.7c-0.8,0.7-1.6,1.3-2.4,1.9
		c-1,0.7-2,1.3-3.1,1.8c-0.5,0.2-1,0.4-1.4,0.6c-0.6,0.3-1.3,0.5-1.9,0.7c-0.4,0.1-0.8,0.2-1.2,0.3c-1,0.2-2,0.4-3.1,0.6
		c-0.4,0-0.8,0.1-1.2,0.1c-0.8,0.1-1.6,0.1-2.5,0c-0.3,0-0.6,0-0.8,0c-0.2,0-0.4,0-0.6,0c-0.7-0.1-1.4-0.2-2.1-0.3
		c-0.5-0.1-0.9-0.2-1.4-0.3c-1.2-0.3-2.3-0.7-3.4-1.1c-1.7-0.7-3.3-1.6-4.8-2.6c-0.7-0.5-1.4-1-2.1-1.6c-0.1-0.1-0.2-0.2-0.3-0.2
		c-0.2-0.1-0.3-0.3-0.5-0.4c-0.9-0.8-1.7-1.7-2.5-2.7c-0.8-1.1-1.6-2.2-2.2-3.4c-0.4-0.8-0.8-1.7-1.2-2.5c-0.2-0.4-0.3-0.8-0.4-1.2
		c-0.4-1.2-0.7-2.4-0.9-3.7c-0.2-0.9-0.3-1.8-0.3-2.7c-0.1-0.8-0.1-1.7,0-2.5c0.5,0.2,1,0.4,1.6,0.4c0.2,0,0.5,0,0.7-0.1
		c0.2,0,0.3-0.1,0.5-0.2c1.4-0.5,2.3-1.8,2.4-3.2c0-0.3,0-0.6-0.1-0.9l-0.1-0.5c0,0,0,0,0-0.1c-0.4-1.7-1.9-2.9-3.6-2.8
		c0-0.1,0-0.1,0.1-0.2c0.1-0.3,0.3-0.7,0.4-1c0-0.1,0.1-0.2,0.1-0.3c0.5-1.1,1.1-2.2,1.7-3.3c0.1-0.1,0.2-0.3,0.3-0.4
		c0.6-0.9,1.2-1.7,1.9-2.5c0-0.1,0.1-0.1,0.1-0.2c0.1-0.1,0.2-0.2,0.3-0.3c0.2-0.2,0.4-0.5,0.7-0.7c0.3-0.3,0.7-0.7,1-1
		c0.3-0.3,0.6-0.5,0.9-0.8c0.6-0.5,1.2-0.9,1.8-1.4c0.2-0.1,0.4-0.3,0.6-0.4c0.2-0.1,0.4-0.3,0.6-0.4c0.4-0.2,0.8-0.5,1.2-0.7
		c0.3-0.2,0.6-0.3,0.9-0.5c0.9-0.4,1.9-0.8,2.9-1.1c0.8-0.3,1.6-0.5,2.4-0.6c0.4-0.1,0.9-0.2,1.3-0.2c0.7-0.1,1.4-0.2,2.1-0.2
		c0.5,0,1,0,1.5,0c0,0,0,0,0.1,0c1.6,0,3.2,0.2,4.8,0.5c1.2,0.2,2.4,0.6,3.5,1c1.1,0.4,2.2,0.9,3.3,1.4c0,0,0,0,0,0
		c1.1,0.6,2.2,1.3,3.2,2c1.1,0.8,2.1,1.7,3.1,2.7c1.1,1.1,2.1,2.4,2.9,3.7C133.1,324.2,133.8,325.4,134.3,326.6z M154.6,134.4
		c-0.1,3.1,0.4,5.5,1,7.9c0.5,2.1,1.4,3.8,2.6,5.3c-9.5-1.1-18.1-0.5-25.6,1.8c-0.5-4.1-2.2-8-4.9-11.1
		C136,133.8,144.3,131.6,154.6,134.4z M124.5,106.2c-0.9-1.4-1.6-2.8-2.1-4.1c-3.3-8.9,1.8-16,9.6-25.7c0.1-0.1,0.2-0.2,0.2-0.3
		c1.3,4.4,2,8.1,2.2,11.3C135,98.3,129.9,103.4,124.5,106.2z M117.7,108.8c-0.1,0.2-0.3,0.4-0.4,0.6c-0.1-0.8-0.3-1.6-0.5-2.4
		C117,107.6,117.3,108.2,117.7,108.8z M68.5,259.7c4.7,0,9.2-1.4,13.2-4.1c0.1-0.1,0.2-0.2,0.3-0.2c0.5,5.8,1.1,11.4,1.9,16.9
		c-0.1,0.1-0.2,0.2-0.2,0.3c-3.3-3.7-7-6.8-11-9.3c-2.7-1.6-5.5-2.9-8.4-4C65.6,259.5,67.1,259.7,68.5,259.7z"/>
	<path class="st0" d="M103.3,335.5c1.5-0.1,2.8-1.1,3.2-2.5c0.1-0.3,0.2-0.7,0.2-1.1v-0.5c0-0.4-0.1-0.7-0.2-1
		c-0.3-0.9-0.9-1.6-1.7-2.1c-0.3-0.2-0.6-0.3-1-0.4c-0.2-0.1-0.5-0.1-0.8-0.1c-1.1,0-2.1,0.5-2.7,1.3c-0.3,0.3-0.5,0.6-0.6,1
		c-0.2,0.4-0.3,0.9-0.3,1.4v0.5c0,0.1,0,0.2,0,0.3c0,0.1,0,0.3,0,0.4c0.1,0.3,0.1,0.5,0.3,0.8c0.6,1.3,1.8,2.1,3.3,2.1
		C103.1,335.5,103.2,335.5,103.3,335.5z"/>
	<path class="st0" d="M98.9,343.3c-0.4-1.9-2.3-3.2-4.2-2.8c-0.4,0.1-0.7,0.2-1,0.4c-1.3,0.7-2,2.1-1.9,3.6c0,0.1,0,0.2,0,0.3l0,0.2
		l0.1,0.3c0.3,1.4,1.4,2.5,2.8,2.8c0,0,0.1,0,0.1,0c0.2,0,0.4,0.1,0.6,0.1c0.2,0,0.5,0,0.7-0.1c0.6-0.1,1.1-0.4,1.5-0.7
		c1-0.8,1.6-2.1,1.3-3.5L98.9,343.3z"/>
	<path class="st0" d="M110.7,338.9c-0.7,0-1.3,0.2-1.8,0.5c-1.1,0.6-1.8,1.8-1.8,3.1v0.5c0,2,1.6,3.6,3.6,3.6c0.3,0,0.7-0.1,1-0.2
		c1.5-0.4,2.6-1.8,2.6-3.4v-0.5C114.3,340.5,112.7,338.9,110.7,338.9z"/>
	<path class="st0" d="M108.5,353.2c-0.5-0.8-1.4-1.3-2.4-1.5c-0.2,0-0.4-0.1-0.5-0.1c-0.3,0-0.5,0-0.7,0.1c-1.6,0.3-2.9,1.8-2.9,3.5
		v0.5c0,0.8,0.3,1.5,0.7,2.1c0.7,0.9,1.7,1.4,2.9,1.4c0.2,0,0.3,0,0.5-0.1c0.6-0.1,1.1-0.3,1.6-0.6c0.4-0.3,0.7-0.7,1-1.1
		c0.3-0.5,0.5-1.1,0.5-1.8v-0.5c0-0.6-0.2-1.2-0.4-1.7C108.7,353.4,108.6,353.3,108.5,353.2z"/>
	<path class="st0" d="M121,350.6c-0.5-0.3-1.1-0.4-1.6-0.4c-1.8,0-3.2,1.3-3.5,3c0,0.2-0.1,0.4-0.1,0.6v0.5c0,1.4,0.8,2.6,2,3.2
		c0.5,0.2,1,0.4,1.6,0.4c0.4,0,0.8-0.1,1.2-0.2c0.4-0.1,0.8-0.3,1.1-0.6c0.8-0.7,1.4-1.7,1.4-2.8v-0.5c0-0.7-0.2-1.3-0.5-1.8
		C122.1,351.4,121.6,350.9,121,350.6z"/>
	<path class="st0" d="M124.6,335.1c-0.3-0.1-0.5-0.1-0.8-0.1c-2,0-3.6,1.6-3.6,3.6v0.5c0,1,0.4,1.8,1,2.5c0.7,0.7,1.6,1.1,2.6,1.1
		c2,0,3.6-1.6,3.6-3.6v-0.4v-0.1c0-0.8-0.2-1.5-0.7-2.1C126.2,335.9,125.4,335.4,124.6,335.1z"/>
	<path class="st0" d="M73.4,239.2c1.1,0.2,2.3,0.3,3.4,0.3c1.5,0,2.9-0.2,4.3-0.6c1.9-0.5,3.7-1.3,5.4-2.4c0.6-0.4,1.2-0.9,1.7-1.3
		c2.9-2.5,5-5.9,5.7-9.7c0.8-3.8,0.2-7.7-1.5-11.2c0,0,0,0,0,0c-0.2-0.4-0.4-0.8-0.6-1.2c0,0,0,0,0,0c-0.2-0.3-0.3-0.6-0.5-0.9
		c-0.6-0.9-1.3-1.7-2-2.5c-1.9-2-4.2-3.4-6.8-4.3c-0.7-0.3-1.5-0.5-2.3-0.6c-4.6-0.9-9.3,0-13.2,2.7c0,0,0,0,0,0
		c-3.9,2.6-6.5,6.6-7.3,11.2c-0.9,4.6,0.1,9.2,2.7,13C64.9,235.7,68.9,238.3,73.4,239.2z M71.1,213.5c2.3-1.6,5.1-2.1,7.8-1.6
		c1,0.2,2,0.6,2.9,1.1c1.4,0.8,2.6,1.9,3.5,3.2c1.6,2.3,2.1,5.1,1.6,7.8c-0.5,2.7-2.1,5-4.4,6.5c-0.5,0.3-1,0.6-1.5,0.8
		c-2,0.9-4.1,1.2-6.3,0.8c-2.6-0.5-4.9-2.1-6.4-4.4c-1.5-2.3-2.1-5-1.6-7.7C67.3,217.4,68.9,215.1,71.1,213.5z"/>
	<path class="st0" d="M493.9,264.1c-21.3-7.7-38.8-9.8-53.1-6.3c4.1-1.8,7.6-4.7,10.2-8.5c0,0,0,0,0,0c3.8-5.8,4.9-12.8,3.2-19.3
		c2-1.5,3.7-3.4,5-5.4c3.5-5.2,4.8-11.5,3.6-17.7c-1.2-6.2-4.7-11.5-9.9-15c-5.9-4-13.4-5.1-20.1-3c-1.4-1.7-3.1-3.3-5.1-4.6
		c-3.3-2.3-7.1-3.6-11-4c0.2-0.4,0.4-0.9,0.5-1.3c1.9,0,3.9-0.2,5.8-0.6c10.9-3.1,17.3-14.3,14.2-25.1c0,0,0,0,0,0
		c-1.6-5.6-5.4-10.2-10.6-12.7c0.1-2-0.2-4-0.6-5.9c0,0,0-0.1,0-0.1c-1.5-5.2-4.9-9.6-9.6-12.3c-3-1.7-6.3-2.6-9.7-2.7
		c4.5-7.8,3.5-17.5,2.5-26.4c-0.2-2.2-0.5-4.5-0.6-6.8c-0.1-1.3-0.9-2.4-2.1-3c-1.2-0.6-2.6-0.4-3.6,0.3c-8.9,6.4-14.9,12.9-18,19.5
		c3.8-12.5-4.1-22.3-11.3-31.2c-1.4-1.7-2.8-3.5-4.2-5.3c-0.8-1-2.1-1.6-3.4-1.4c-1.3,0.2-2.4,1-2.9,2.2
		c-9.3,23.6-5.2,39.3,12.2,46.7c0.5,0.2,0.9,0.3,1.4,0.3c0.2,0,0.4,0,0.6-0.1c3.7,5.6,7.1,11.3,10.1,17c-1.7,0-3.5,0.2-5.2,0.7
		c-0.7,0.2-1.4,0.4-2.1,0.7c-7.2-14.1-15.5-28.6-37.2-41.7c4.6-14.1-3.4-19.6-6.1-21.1c-6-3.1-13.7-1.8-16.8,2.9
		c-0.9,1.4-2.1,4.2-0.8,8c-1.4,0.2-2.7,0.8-4.1,1.7c-5.7,4-7,10-3.3,15.4c2.9,4.2,8.4,7,13.8,7c2.7,0,5.4-0.7,7.8-2.4c0,0,0,0,0,0
		l0.1-0.1c2-1.5,4-2.9,5.9-5.1c16.6,10.1,24.6,20.8,30.8,32c-7.4-3.1-16.1-4.6-26.3-1.9c-5.9-13.9-15.6-12.8-18.6-12.1
		c-6.5,1.6-11.3,7.6-10.6,13.2c0.2,1.7,1.2,4.6,4.7,6.7c-0.8,1.1-1.5,2.4-1.9,4c-1.3,5.6,0.5,10.2,4.6,12.6c-3.3,1-6.7,2.1-10.1,3.3
		c-1.8,0.7-2.8,2.7-2.2,4.5c13,39.6,36.4,59.6,69.5,59.6c1,0,2.1,0,3.2-0.1c-1.8,4-2.5,8.3-2,12.5c-1.6-1.3-3.2-2.5-5-3.5
		c-16.3-9.8-38.1-9.6-66.6,0.8c-1.8,0.7-2.8,2.7-2.2,4.5c6.8,20.5,16.3,35.8,28.6,45.7c-7.5,3.3-12.9,10.8-14.1,19.8
		c-0.8,5.8,0.3,11.1,2.8,15.2c-15.2,6.5-20.7,19.5-17.9,30.1c1.9,7.1,7.8,13.7,17.3,15.8c-2.1,5.3-2.3,9.9-1.6,13.6
		c0.9,4.8,3.4,9.2,7.1,12.6c-4.6,3.1-8.8,7-12.9,10.8c-1.9,1.8-3.9,3.6-5.8,5.3c-1,0.8-1.4,2.1-1.2,3.4c0.2,1.3,1.1,2.3,2.3,2.7
		c8.8,3.1,16.6,4.6,23.4,4.6c7,0,12.9-1.7,17.8-4.9c-5.5,6.4-10.7,10.8-15,13.1c-1.8,0.9-2.5,3.1-1.6,4.8c0.6,1.2,1.9,2,3.2,2
		c0.5,0,1.1-0.1,1.6-0.4c6.5-3.3,13.9-10.3,21.5-19.9c4.8,5.1,11,7.6,16.9,7.6c0.5,0,1,0,1.5-0.1c2.1-0.2,4.3-0.7,6.3-1.5
		c3.3,6.7,8.9,13.5,16.8,20.4c0.7,0.6,1.5,0.9,2.4,0.9c0.4,0,0.8-0.1,1.2-0.2c1.2-0.4,2.1-1.5,2.4-2.7c0.5-2.6,1.1-5.3,1.7-7.9
		c1.3-5.6,2.6-11.5,3-17.2c0.7,0.1,1.4,0.1,2.1,0.1c2.4,0,4.8-0.4,6.9-1.2c10.3-3.6,18-15.5,14.8-31.8c4.8-0.2,9.9-2.3,14.2-6.1
		c7.1-6.3,10.3-15.5,8.3-23.8c-1.3-5.6-5.3-12.6-15.9-18.2c23.5-6.3,40.7-25.4,51.2-57.3C496.7,266.8,495.8,264.8,493.9,264.1z
		 M329.4,96.6l-0.1,0.1c-3.8,2.6-9.5,0.1-11.6-2.9c-0.9-1.4-1.6-3.2,1.5-5.4c0.5-0.4,1.1-0.6,1.8-0.6c1.5,0,3.5,0.9,6.2,2.9
		c1.6,1.1,3.8,0.8,5-0.7c1.2-1.5,0.9-3.7-0.6-5c-5.3-4.3-6.2-7.3-5.6-8.3c0.8-1.3,4.4-2,7.4-0.4c4,2.1,4.8,7.2,2.1,14.1
		C333.7,93.5,331.9,94.8,329.4,96.6z M447.7,362.6c-4.2,3.7-9.2,5.2-13,3.8c-1.3-0.5-2.7-0.1-3.7,0.8c-1,1-1.3,2.4-0.9,3.7
		c5,15.4-1.2,25.4-9,28.2c-2.1,0.8-4.5,1-6.9,0.6c-1.3-0.2-2.6-0.6-3.9-1.2c-1.7-0.8-3.4-2-5-3.6c-1.3-1.3-2.5-2.9-3.6-4.7
		c0,0,0,0,0-0.1c0.1-1.3,0.1-2.6,0-4c0-0.2,0-0.5,0-0.7c-0.1-1.6-0.2-3.1-0.4-4.7c-0.5-5.1-1.4-10.1-2.2-14.6c2.9-1,5.6-2.5,8.1-4.3
		c3.8,4.4,6.7,8.9,6.7,18c0,2,1.6,3.6,3.6,3.6c0,0,0,0,0,0c2,0,3.6-1.6,3.6-3.6c0.1-11.7-4.3-17.9-8.6-22.9c2.4-2.9,4.3-6.1,5.6-9.6
		c5.1-0.3,10.1,0.4,16.6,5.2c0.6,0.5,1.4,0.7,2.1,0.7c1.1,0,2.2-0.5,2.9-1.5c1.2-1.6,0.8-3.8-0.8-5c-7.4-5.4-13.6-6.7-19.2-6.6
		c0.1-0.6,0.1-1.1,0.2-1.7c0.1-1.7,0.1-3.4-0.1-5.1c-0.1-1.2-0.3-2.4-0.5-3.6c-0.1-0.4-0.2-0.7-0.3-1.1c1.1-0.2,2.2-0.3,3.3-0.5
		c1.4-0.2,2.7-0.3,4.1-0.4c1-0.1,1.9-0.1,2.8-0.1c0.6,0.2,1.2,0.4,1.9,0.6c0.9,0.3,1.8,0.6,2.7,0.9c11.3,3.9,18.4,9.8,20.1,16.9
		C455.5,352.7,451.7,359,447.7,362.6z M404.1,424.4c-5.4-5.3-8.8-10.2-10.9-14.6c2.8-2.5,5.2-5.9,6.7-10.2c2.3,2.4,4.8,4.1,7.4,5.3
		c-0.1,5.1-1.3,10.9-2.8,17.6C404.4,423.1,404.2,423.7,404.1,424.4z M380.2,407.9c-4.6,0.3-9.7-1.6-13.6-6.2
		c-1.4-1.7-2.7-3.8-3.7-6.2c-0.1-0.3-0.2-0.5-0.3-0.8c-0.5-1.4-1-2.9-1.3-4.6c0-0.2-0.1-0.3-0.1-0.5c-0.2-1.2-0.5-2.5-0.6-3.9
		c0-0.3-0.1-0.6-0.2-0.8c-0.3-1-1.1-1.8-2.1-2.2c-0.7-0.3-1.5-0.3-2.3-0.1c-0.5,0.2-1,0.4-1.4,0.8c-0.7,0.7-1.5,1.2-2.4,1.6
		c-3,1.4-7,1.5-11,0.1c-0.4-0.1-0.8-0.3-1.2-0.4c-1.4-0.6-2.9-1.4-4.3-2.4c-3.2-2.3-6-5.7-6.8-10.2c-0.7-3.6,0.1-7.6,2.2-11.7
		c0.6-1.2,1.4-2.5,2.3-3.8c1-1.4,2.1-2.8,3.3-4.2c2.1-2.3,4.6-4.7,7.4-7c3.9-1.6,8.3-2.8,13-3.9c0.2,1.2,0.5,2.5,0.9,3.7
		c0.3,1.2,0.8,2.3,1.2,3.4c0.5,1.1,1,2.1,1.6,3.1c-0.3,0.1-0.6,0.3-0.8,0.4c-4.6,2.6-9.3,6.5-13.1,14.3c-0.9,1.8-0.1,3.9,1.6,4.8
		c0.5,0.2,1,0.4,1.6,0.4c1.3,0,2.6-0.7,3.2-2c3.4-7,7.4-9.9,11.8-12.1c1.9,2,4,3.8,6.3,5.2c-2.2,5.1-3.6,11.3-1.5,20.3
		c0,0.1,0,0.1,0.1,0.2c0.4,1.6,1.9,2.6,3.4,2.6c0.3,0,0.5,0,0.8-0.1c1.9-0.5,3.1-2.4,2.7-4.3c-0.8-3.6-1-6.6-0.7-9.2
		c0.3-2.3,0.9-4.4,1.7-6.3c0.4,0.2,0.9,0.3,1.4,0.4c2.3,0.7,4.6,1.1,7.1,1.3c0.1,0,0.2,0,0.3,0c0.1,0,0.3,0,0.4,0c0.5,0,0.9,0,1.4,0
		c0.8,0,1.5,0,2.3-0.1c0.5,0,0.9-0.1,1.4-0.1c0.6,3.2,1.2,6.7,1.7,10.3c0.1,0.9,0.2,1.8,0.3,2.7c0.1,0.5,0.1,1.1,0.2,1.6
		c0.1,1.4,0.2,2.7,0.3,4.1c0,0.5,0,1,0,1.5c0,1.3,0,2.6-0.2,3.7c-0.5,4.1-1.7,7.4-3.5,9.9c-0.9,1.3-2,2.5-3.1,3.4
		c-1,0.8-2.1,1.4-3.2,1.9C383.2,407.5,381.7,407.8,380.2,407.9z M319.6,403.4c0.4-0.4,0.9-0.8,1.3-1.2c5.3-4.9,9.9-9,14.4-11.6
		c1.1,0.6,2.3,1.1,3.6,1.5c5.5,1.8,11,1.7,15.5-0.1c0.2,1,0.5,2,0.8,3C350.4,402.9,340.9,409.4,319.6,403.4z M331.3,319.1
		c1.3-0.4,2.3-1.5,2.5-2.8c0.2-1.3-0.3-2.7-1.4-3.5c-3.3-2.4-4.9-7.3-4.1-12.9c0.7-5.4,3.9-12,10.5-14.5c1.3-0.5,2.7-0.8,4.2-0.9
		c5.8-0.5,12.7,2.1,20.1,7.4c1,0.7,2,1.4,3,2.2c0.6,0.4,1.1,0.9,1.7,1.4c0.9,1.3,1.7,2.8,2.4,4.3c1.4,2.6,2.6,5.3,3.8,8.2
		c-0.7,0.4-1.5,0.8-2.2,1.2c-1.1,0.7-2.2,1.4-3.2,2.2c-0.4,0.3-0.9,0.7-1.3,1.1c-1.4,1.2-2.7,2.6-3.8,4c-3.4-5.6-8-11.5-19-15
		c-1.9-0.6-3.9,0.5-4.5,2.4c-0.6,1.9,0.5,3.9,2.4,4.5c9.8,3.1,12.8,8.2,16.3,14c0.2,0.3,0.4,0.7,0.6,1c-0.9,2.1-1.6,4.4-2.1,6.7
		c-5.5-2.7-12.1-4.7-22.4-2.2c-1.9,0.5-3.1,2.4-2.6,4.3c0.5,1.9,2.4,3.1,4.3,2.6c5-1.2,8.7-1.1,12-0.4c0.1,0,0.3,0.1,0.4,0.1
		c1,0.3,1.9,0.6,2.8,0.9c-3.9,1-7.6,2.1-11,3.6c-0.3,0.1-0.6,0.3-0.8,0.5c-6,4.8-10.1,9.3-13,13.6c-7.8-0.9-12.5-5.5-13.9-10.9
		C311,334.3,315.8,323.6,331.3,319.1z M371.8,234.3c8.6,5.2,15.3,14,20,26.3c-0.6,0.1-1.2,0.2-1.8,0.3c-2.1,0.5-4.5,1.4-6.9,2.9
		c-0.6-0.4-1.2-0.9-1.7-1.3l0.7-12.6c0.1-2-1.4-3.7-3.4-3.8c-2-0.1-3.7,1.4-3.8,3.4l-0.5,8.2c-4-2.6-8.1-4.8-12.2-6.7l-2.1-12.4
		c-0.3-2-2.2-3.3-4.1-2.9c-2,0.3-3.3,2.2-2.9,4.1l1.3,8c-4.7-1.7-9.4-2.9-14.1-3.6c-2-0.3-3.8,1-4.1,3c-0.3,2,1,3.8,3,4.1
		c3.5,0.6,7.1,1.4,10.6,2.6l-7.5,3.5c-1.8,0.8-2.6,3-1.8,4.8c0.6,1.3,1.9,2.1,3.3,2.1c0.5,0,1-0.1,1.5-0.3l13.8-6.4
		c4,1.9,8,4.1,12,6.6l-10,6.1c-1.7,1-2.2,3.3-1.2,4.9c0.7,1.1,1.9,1.7,3.1,1.7c0.6,0,1.3-0.2,1.9-0.5l12.3-7.6
		c-3.4,3.7-6.6,9-9.2,16.5c-0.7-0.1-1.3-0.2-2-0.3c-8.4-5.7-15.4-7.7-21-7.8c-13-8.3-23.1-22.5-30.3-42.8
		C339.4,226,358.1,226,371.8,234.3z M327.3,146.1c-1.7-0.4-3.6-1.4-2.7-5.3c0.4-1.7,1.8-3,7.4-3.4c1.9-0.1,3.4-1.8,3.3-3.8
		c-0.1-1.9-1.7-3.4-3.6-3.4c0,0-0.1,0-0.1,0c-6.4,0.2-9.5-1.3-9.7-2.8c-0.2-1.5,1.8-4.4,5.1-5.2c4-1,7.6,1.8,10.2,7.6
		c0.3,0.6,0.5,1.2,0.7,1.8c0.4,1.7,0.4,3,0.4,4.3c-0.1,1.5-0.4,2.9-0.8,4.6c0,0,0,0,0,0C336.5,144.8,331.1,147,327.3,146.1z
		 M384.1,138.9c0.8-0.2,1.5-0.3,2.3-0.4c0.3,0,0.7-0.1,1-0.1c0.7,0,1.5,0.1,2.2,0.2c0.5,0.1,1,0.1,1.5-0.1c1.2-0.3,2.2-1.2,2.5-2.5
		c0.5-1.6,1.2-3,2.2-4.3c1.7-2.3,4.2-4,7-4.8c3.4-0.9,6.9-0.5,10,1.2c3.1,1.7,5.3,4.6,6.2,8c0.5,1.9,0.5,3.9,0.2,5.8
		c-0.3,1.7,0.7,3.4,2.4,4c4.2,1.4,7.4,4.8,8.6,9c2,7-2.2,14.3-9.2,16.2c-2,0.5-4,0.6-5.9,0.2c-1-0.2-1.9,0-2.7,0.6
		c-0.4,0.3-0.8,0.7-1,1.1c-0.2,0.4-0.4,0.8-0.5,1.2c-0.4,2.6-1.6,4.9-3.2,6.7c-0.5,0.5-1,1-1.5,1.4c-1.3,1.1-2.8,1.9-4.5,2.4
		c-0.1,0-0.3,0.1-0.4,0.1c-0.5,0.1-1.1,0.2-1.6,0.3c-0.5,0.1-1,0.1-1.6,0.1c-1.4,0-2.8-0.1-4.1-0.6c-0.9-0.3-1.8-0.7-2.7-1.1
		c-3.1-1.7-5.3-4.6-6.2-8.1c-0.6-1.9-0.6-4.1-0.2-6.3c0.1-0.3,0.2-0.7,0.3-1c0.5-1.8-0.4-3.7-2.2-4.4c-3.5-1.3-6.3-4-7.7-7.3
		c-0.2-0.5-0.4-1-0.5-1.5c-0.3-1-0.4-2.1-0.4-3.1c-0.1-3.2,1-6.4,3-8.8c0.4-0.5,0.8-0.9,1.2-1.3c1.3-1.3,2.9-2.3,4.8-2.9
		C383.7,139.1,383.9,139,384.1,138.9z M402,93.3c0,0.1,0,0.3,0,0.4c1.5,14.2,1.9,23.5-9.8,29.2C388.4,115.9,386.9,106,402,93.3z
		 M384.4,187.6c1.1,0.9,2.2,1.8,3.5,2.5c1.9,1.1,4,1.9,6.1,2.3c-0.5,0.9-1,1.9-1.4,2.9c-2.7-2.3-5.5-4.5-8.3-6.6L384.4,187.6z
		 M368,157.3c1.6,5.2,5.1,9.6,9.7,12.2c-0.3,2.2-0.3,4.4,0.1,6.4l-0.4,8c-4-2.6-8.1-4.8-12.2-6.7l-2.1-12.4c-0.3-2-2.2-3.3-4.1-2.9
		c-2,0.3-3.3,2.2-2.9,4.1l1.3,8c-4.7-1.7-9.4-2.9-14.1-3.6c-2-0.3-3.8,1-4.1,3c-0.3,2,1,3.8,3,4.1c3.5,0.6,7.1,1.4,10.6,2.6
		l-7.5,3.5c-1.8,0.8-2.6,3-1.8,4.8c0.6,1.3,1.9,2.1,3.3,2.1c0.5,0,1-0.1,1.5-0.3l13.8-6.4c4,1.8,8,4.1,12,6.6l-9.9,6.2
		c-1.7,1-2.2,3.3-1.1,5c0.7,1.1,1.9,1.7,3.1,1.7c0.6,0,1.3-0.2,1.9-0.5l12.6-7.8c3.5,2.6,7.1,5.5,10.6,8.7c0,1.8,0.2,3.6,0.6,5.4
		c-1.3,0.8-2.4,1.7-3.6,2.7c-33.8,3.6-56.9-13.1-70.3-50.8C338.3,153.7,355.2,152.6,368,157.3z M390.3,219.8c0.3-0.5,0.7-1,1.1-1.5
		c1.6-1.9,3.7-3.4,5.9-4.4c0.2-0.1,0.5-0.2,0.7-0.4c0.7-0.5,1.1-1.2,1.3-1.9c0.2-0.6,0.2-1.3,0-2c0-0.1,0-0.2-0.1-0.3
		c-1.1-2.8-1.3-5.9-0.8-8.8c0.1-0.3,0.1-0.6,0.2-0.9c0.5-1.8,1.2-3.5,2.3-5.1c0,0,0.1-0.1,0.1-0.1c0.6-0.9,1.3-1.7,2-2.5
		c0,0,0.1,0,0.1,0c0.3-0.1,0.5-0.2,0.8-0.2c1.3-0.4,2.6-1,3.8-1.6c1.3-0.7,2.4-1.5,3.5-2.5c0,0,0.1,0,0.1,0c1.1-0.2,2.2-0.3,3.2-0.3
		c3.2,0,6.3,1,9,2.8c2,1.4,3.6,3.1,4.8,5c1,1.5,2.9,2.1,4.6,1.3c5.1-2.4,11.2-1.9,15.9,1.3c3.6,2.4,6.1,6.1,6.9,10.4
		c0.8,4.3,0,8.7-2.5,12.3c-1.3,2-3.1,3.7-5.2,4.9c-1.5,0.9-2.2,2.8-1.5,4.4c2.1,5,1.5,10.8-1.6,15.4c-2.4,3.6-6.1,6.1-10.4,6.9
		c-4.3,0.8-8.7-0.1-12.3-2.5c-1.5-1-2.7-2.2-3.7-3.5c-0.5-0.6-0.9-1.2-1.3-1.9c-0.5-0.9-1.3-1.5-2.2-1.7c-0.3-0.1-0.6-0.1-0.9-0.1
		c-0.7,0-1.3,0.2-1.9,0.5c-0.3,0.2-0.5,0.3-0.8,0.5c-5.3,2.8-11.7,2.5-16.8-0.9C387.3,237.5,385.3,227.3,390.3,219.8z M411.1,251.3
		c-0.3,4.8-0.8,9.5-1.3,14.1c-3.1-2.4-6.6-4-10.3-4.7c-1.2-3.5-2.6-6.8-4.1-9.9C400.4,252.8,406,252.9,411.1,251.3z M411,345.4
		c-0.3,0.9-0.7,1.7-1.2,2.5c-0.6,1.2-1.4,2.3-2.2,3.4c-0.7,1-1.6,1.9-2.5,2.7c-0.2,0.1-0.3,0.3-0.5,0.4c-0.1,0.1-0.2,0.1-0.2,0.2
		c-0.7,0.6-1.3,1.1-2.1,1.6c-1.5,1.1-3.2,2-4.9,2.7c-1.1,0.5-2.3,0.8-3.4,1.1c-0.5,0.1-0.9,0.2-1.4,0.3c-0.7,0.1-1.4,0.2-2.1,0.3
		c-0.2,0-0.4,0-0.6,0c-0.3,0-0.6,0-0.9,0c-0.8,0-1.6,0-2.4,0c-0.4,0-0.9-0.1-1.3-0.1c-1-0.1-2-0.3-3-0.6c-0.4-0.1-0.8-0.2-1.2-0.3
		c-0.6-0.2-1.3-0.4-1.9-0.7c-0.5-0.2-1-0.4-1.5-0.6c-1.1-0.5-2.1-1.1-3.1-1.8c-0.8-0.6-1.7-1.2-2.4-1.9c-0.6-0.6-1.2-1.1-1.8-1.8
		c-0.2-0.2-0.4-0.4-0.5-0.6c-0.1-0.1-0.2-0.3-0.4-0.4c-0.8-0.9-1.4-1.8-2-2.8c0-0.1-0.1-0.1-0.1-0.2c-0.6-1-1.1-2-1.6-3
		c-0.5-1.1-0.9-2.2-1.2-3.4c-0.1-0.2-0.1-0.5-0.2-0.7c-0.1-0.5-0.2-1-0.3-1.6c-0.1-0.7-0.2-1.3-0.3-2c0-0.2,0-0.4,0-0.6
		c0-0.3,0-0.7,0-1c0-0.7,0-1.3,0-2c0-0.3,0.1-0.7,0.1-1c0-0.2,0.1-0.5,0.1-0.7c0.1-0.8,0.3-1.6,0.4-2.4c0.3-1.3,0.7-2.6,1.2-3.8
		c0-0.1,0-0.1,0.1-0.2c0.5-1.2,1.2-2.4,1.9-3.6c0.8-1.3,1.8-2.6,2.9-3.7c0.5-0.5,1-1.1,1.6-1.6c0.5-0.4,1-0.8,1.4-1.2
		c1-0.8,2.1-1.4,3.2-2c0,0,0,0,0.1,0c1-0.6,2.1-1,3.2-1.4c1.1-0.4,2.3-0.7,3.5-1c1.5-0.3,3.1-0.5,4.7-0.5c0,0,0.1,0,0.1,0
		c0.5,0,1,0,1.5,0c0.7,0,1.4,0.1,2.2,0.2c0.4,0.1,0.9,0.1,1.3,0.2c0.8,0.2,1.6,0.4,2.4,0.6c1,0.3,2,0.7,2.9,1.2
		c0.3,0.1,0.6,0.3,0.9,0.4c0.4,0.2,0.8,0.4,1.2,0.6c0.2,0.1,0.4,0.3,0.7,0.4c0.2,0.1,0.4,0.3,0.6,0.4c0.6,0.4,1.2,0.9,1.8,1.3
		c0.3,0.2,0.6,0.5,0.9,0.8c0.4,0.3,0.7,0.7,1.1,1c0.2,0.2,0.4,0.5,0.7,0.7c0.1,0.1,0.2,0.2,0.3,0.3c0.1,0.1,0.1,0.1,0.2,0.2
		c0.7,0.8,1.3,1.6,1.9,2.4c0.1,0.2,0.2,0.3,0.3,0.5c0.7,1.1,1.2,2.2,1.7,3.3c0,0.1,0.1,0.2,0.1,0.3c0.1,0.3,0.3,0.7,0.4,1.1
		c0,0.1,0,0.1,0.1,0.2c0,0,0,0-0.1,0c-1.7,0-3.2,1.2-3.5,2.9c-0.1,0.2-0.1,0.5-0.1,0.7v0.5c0,0.1,0,0.1,0,0.2c0.1,1.5,1,2.7,2.4,3.2
		c0.4,0.1,0.8,0.2,1.2,0.2c0.5,0,1-0.1,1.5-0.3c0,0.8,0,1.6,0,2.4c-0.1,0.9-0.2,1.8-0.3,2.7c-0.2,1.3-0.5,2.5-0.9,3.7
		C411.3,344.6,411.2,345,411,345.4z M434.9,320.5c-0.5,0.3-1,0.5-1.5,0.7c-0.5-0.2-1-0.3-1.5-0.4c-0.4-0.1-0.8-0.2-1.3-0.4
		c-0.3-0.1-0.7-0.1-1-0.1c-2.5,0-5,0.2-7.6,0.6c-1.8,0.2-3.7,0.5-5.6,0.9c-0.3-0.5-0.5-1-0.8-1.5c-1-1.7-2.2-3.4-3.6-4.9
		c0-0.1-0.1-0.1-0.1-0.2c-0.1-0.1-0.2-0.2-0.3-0.4c1.1-0.9,2.2-1.8,3.5-2.6c3.1-1.9,6.8-3.2,12.4-3.4c1.3-0.1,2.4-0.8,3-1.9
		c0.3-0.6,0.5-1.2,0.4-1.8c-0.1-1.6-1.3-3-2.8-3.3c-0.1,0-0.1,0-0.2,0c-0.3,0-0.5-0.1-0.8-0.1c-1.6,0.1-3,0.2-4.4,0.4c0,0,0,0,0,0
		c-5.1,0.8-9,2.4-12.1,4.4c-0.6,0.4-1.2,0.8-1.8,1.2c-0.7,0.5-1.3,1-1.9,1.6c-0.3,0.3-0.6,0.5-0.9,0.8c-0.8-0.6-1.7-1.1-2.6-1.6
		c-0.6-0.3-1.3-0.7-1.9-1c-0.5-0.2-0.9-0.4-1.4-0.6c-1.8-0.7-3.6-1.3-5.5-1.7c-0.4-4.5,0-9,3.4-14.8c0.3-0.5,0.6-1,1-1.5
		c0.1-0.1,0.1-0.2,0.2-0.3c0.4-0.7,0.5-1.5,0.4-2.2c-0.1-1-0.7-1.9-1.6-2.5c-0.4-0.3-0.9-0.4-1.3-0.5c-0.7-0.1-1.5,0-2.2,0.3
		c-0.2,0.1-0.3,0.2-0.5,0.3c-0.4,0.3-0.7,0.6-1,1c-0.7,1.1-1.3,2.1-1.9,3.2c-0.7,1.4-1.3,2.7-1.8,3.9c-1.8,4.7-2.2,8.8-1.9,12.5
		c-2.3,0.1-4.5,0.3-6.7,0.9c-1.9-4.5-3.8-8.7-6.1-12.5c-0.4-0.6-0.7-1.2-1.1-1.8c0.2-0.6,0.4-1.2,0.6-1.8c0.4-1.2,0.8-2.4,1.3-3.5
		c2.1-5.4,4.7-9.7,7.7-12.8c1.9-1.9,3.9-3.4,6.1-4.3c0.8-0.3,1.6-0.6,2.4-0.8c0.8-0.2,1.7-0.3,2.5-0.4c1.3-0.1,2.6,0,3.8,0.3
		c1.4,0.3,2.8,0.8,4.1,1.4c2.6,1.2,4.8,3,6.4,4.8c0,0.1,0.1,0.1,0.1,0.2c1.3,1.5,2.3,3.1,3,4.7c0.7,1.6,1.1,3.3,1.1,4.9
		c0,1.1-0.1,2.2-0.5,3.3c-0.4,1.3-0.2,2.7,0.7,3.6c0,0,0,0,0.1,0.1c0,0,0.1,0.1,0.1,0.1c1,0.9,2.3,1.2,3.6,0.8
		c1.5-0.5,3-0.9,4.4-1.2c2.6-0.5,5-0.7,7.2-0.6c1.5,0.1,2.9,0.3,4.3,0.6c3.2,0.7,5.8,2.1,7.9,3.9c2.1,1.8,3.6,4,4.4,6.4
		C447.1,307,444.7,315.2,434.9,320.5z M449.4,316.8c3.8-6.1,4.2-12.9,2.2-18.5c-0.3-0.8-0.7-1.7-1.1-2.5l7.1,3.2
		c0.5,0.2,1,0.3,1.5,0.3c1.4,0,2.7-0.8,3.3-2.1c0.8-1.8,0-3.9-1.8-4.8l-7.6-3.5c3.6-1.1,7.1-2,10.7-2.6c2-0.3,3.3-2.1,3-4.1
		c-0.3-2-2.1-3.3-4.1-3c-4.7,0.7-9.4,2-14.2,3.6l1.4-8c0.3-2-1-3.8-2.9-4.2c-2-0.3-3.8,1-4.2,2.9l-2.1,12.1c-3.8-2-8.3-3.2-13.5-3.2
		c-0.7-0.8-1.8-1.4-3-1.3c-1.2,0.1-2.3,0.8-2.9,1.7c-0.5,0.1-0.9,0.2-1.4,0.2c0-1.1-0.2-2.2-0.4-3.3c3.3-4.4,7.2-8,11.5-10.6
		c13.5-8.1,32.7-8.1,57.1,0.2C479.4,294.2,466.6,309.8,449.4,316.8z M427.3,263.3c-4,2.4-7.7,5.5-11,9.2c-0.1-0.1-0.2-0.2-0.2-0.3
		c0.8-5.4,1.4-11,1.9-16.8c0.1,0.1,0.2,0.1,0.3,0.2c4,2.7,8.5,4.1,13.2,4.1c1.4,0,2.8-0.1,4.3-0.4
		C432.8,260.3,430,261.7,427.3,263.3z M365.6,87.4c0.2-3.2,0.8-7,2.2-11.3c0.1,0.1,0.2,0.2,0.2,0.3c7.9,9.7,12.9,16.8,9.6,25.7
		c-0.5,1.3-1.2,2.7-2.1,4.1C370.2,103.3,365,98.2,365.6,87.4z M383.5,106.6c-0.3,1-0.5,1.9-0.7,2.9c-0.2-0.2-0.3-0.5-0.5-0.7
		C382.8,108.1,383.2,107.4,383.5,106.6z M372.3,138.3c-2.7,3.1-4.4,7-4.9,11.1c-7.6-2.2-16.1-2.8-25.6-1.8c1.2-1.5,2.2-3.3,2.6-5.3
		c0.6-2.5,1.1-4.8,1-7.9C355.7,131.6,364,133.8,372.3,138.3z"/>
	<path class="st0" d="M399.8,329.1c-0.5-0.6-1.2-1-2-1.2c-0.5-0.1-1-0.1-1.5,0c-0.4,0.1-0.7,0.2-1,0.4c-0.8,0.5-1.4,1.2-1.6,2.1
		c0,0.1-0.1,0.2-0.1,0.3l-0.1,0.5c-0.1,0.6-0.1,1.3,0.1,1.8c0.4,1.2,1.4,2.1,2.7,2.4c0.2,0,0.4,0,0.5,0.1c0.1,0,0.1,0,0.2,0
		c0.2,0,0.5,0,0.7-0.1c1.1-0.2,2.1-1,2.6-2.1c0.1-0.2,0.2-0.5,0.3-0.8l0,0l0.1-0.5c0.1-0.7,0.1-1.4-0.2-2.1
		C400.2,329.7,400,329.4,399.8,329.1z"/>
	<path class="st0" d="M406.3,340.8c-0.5-0.3-1.1-0.4-1.7-0.4c-2,0-3.6,1.6-3.6,3.6v0.5c0,1.1,0.5,2.1,1.3,2.8
		c0.6,0.5,1.4,0.8,2.3,0.8c0.2,0,0.4,0,0.5-0.1c0.1,0,0.1,0,0.2,0c1.5-0.3,2.6-1.6,2.8-3.1c0-0.1,0-0.3,0-0.4v-0.1V344
		C408.2,342.6,407.4,341.4,406.3,340.8z"/>
	<path class="st0" d="M392.9,342.9v-0.5c0-1.3-0.7-2.4-1.7-3.1c-0.5-0.3-1.2-0.5-1.9-0.5c-2,0-3.6,1.6-3.6,3.6v0.5
		c0,1.7,1.1,3,2.7,3.5c0.3,0.1,0.6,0.1,0.9,0.1C391.3,346.5,392.9,344.9,392.9,342.9z"/>
	<path class="st0" d="M395.2,351.7c-0.2-0.1-0.5-0.1-0.7-0.1c-0.2,0-0.3,0-0.5,0c-1,0.1-1.9,0.7-2.5,1.5c-0.1,0.1-0.1,0.2-0.2,0.4
		c-0.3,0.5-0.4,1.1-0.4,1.7v0.5c0,0.7,0.2,1.3,0.5,1.9c0.3,0.4,0.6,0.8,1,1c0.5,0.3,1,0.5,1.6,0.6c0.2,0,0.3,0,0.5,0
		c1.2,0,2.2-0.6,2.9-1.5c0.4-0.6,0.7-1.3,0.7-2.1v-0.5C398,353.5,396.8,352,395.2,351.7z"/>
	<path class="st0" d="M380.7,350.2c-0.6,0-1.2,0.2-1.6,0.4c-0.6,0.3-1.1,0.8-1.4,1.4c-0.3,0.5-0.5,1.1-0.5,1.8v0.5
		c0,1.1,0.5,2.2,1.4,2.8c0.3,0.3,0.7,0.5,1.1,0.6c0.3,0.1,0.7,0.2,1.1,0.2c0.6,0,1.2-0.2,1.7-0.4c1.1-0.6,1.9-1.8,1.9-3.2v-0.5
		c0-0.1,0-0.3,0-0.4C384,351.6,382.5,350.2,380.7,350.2z"/>
	<path class="st0" d="M379.9,339.1v-0.5c0-2-1.6-3.6-3.6-3.6c-0.3,0-0.6,0-0.8,0.1c-0.9,0.2-1.6,0.7-2.1,1.4
		c-0.4,0.6-0.7,1.3-0.7,2.1v0.1v0.4c0,2,1.6,3.6,3.6,3.6c1,0,1.9-0.4,2.6-1.1C379.5,341,379.9,340.1,379.9,339.1z"/>
	<path class="st0" d="M411.7,235.2c0.5,0.5,1.1,0.9,1.7,1.3c1.7,1.2,3.6,2,5.5,2.5c1.4,0.4,2.9,0.6,4.3,0.6c1.1,0,2.2-0.1,3.3-0.3
		c4.6-0.9,8.5-3.5,11.2-7.4c5.3-7.9,3.2-18.8-4.8-24.2c-3.9-2.6-8.5-3.6-13.1-2.7c-0.8,0.2-1.6,0.4-2.4,0.7
		c-2.6,0.9-4.9,2.3-6.8,4.3c-0.7,0.8-1.4,1.6-2,2.5c-0.2,0.3-0.4,0.6-0.5,0.9c0,0,0,0,0,0c-0.2,0.4-0.4,0.7-0.6,1.1c0,0,0,0,0,0
		C404,221.4,405.8,230.1,411.7,235.2z M418.1,213c0.9-0.5,2-0.9,3-1.1c0.7-0.1,1.3-0.2,2-0.2c2,0,4,0.6,5.7,1.8c0,0,0,0,0,0
		c4.7,3.2,6,9.6,2.9,14.3c-1.5,2.3-3.9,3.8-6.5,4.4c-2.1,0.4-4.3,0.1-6.2-0.8c-0.5-0.2-1-0.5-1.5-0.9c-4.7-3.1-5.9-9.5-2.8-14.3
		C415.5,214.9,416.7,213.8,418.1,213z"/>
	<path class="st0" d="M89.4,170c0.8,0.4,1.6,0.7,2.4,0.9c1.4,0.4,2.7,0.5,4.1,0.5c0.2,0,0.4,0,0.6,0c6.5-0.3,12.3-4.6,14.1-11.1
		c1.1-3.9,0.7-8-1.3-11.5c-0.9-1.5-2-2.9-3.3-4c-1.7-1.5-3.8-2.6-6-3.3c0,0,0,0,0,0c-0.1,0-0.2,0-0.4-0.1c-3.8-1-7.8-0.4-11.2,1.5
		c-3.6,2-6.1,5.3-7.2,9.2c-1.1,3.9-0.6,8,1.4,11.6C84.2,166.6,86.6,168.7,89.4,170z M88.1,154.1c0.6-2.1,1.9-3.8,3.8-4.9
		c1.2-0.7,2.6-1,4-1c0.3,0,0.6,0,0.9,0.1c0.4,0,0.9,0.1,1.3,0.2c2.1,0.6,3.8,1.9,4.9,3.8c0,0,0,0.1,0.1,0.1c1,1.9,1.3,4,0.7,6.1
		c-0.7,2.5-2.6,4.5-4.9,5.3c-1.6,0.6-3.3,0.7-5.1,0.3c-0.8-0.2-1.6-0.6-2.2-1c-1.1-0.7-2-1.6-2.6-2.8
		C87.8,158.4,87.6,156.2,88.1,154.1z"/>
	<path class="st0" d="M403.5,171.5c0.2,0,0.4,0,0.6,0c1.3,0,2.7-0.2,4.1-0.5c0.9-0.2,1.7-0.5,2.4-0.9c2.8-1.3,5.2-3.5,6.8-6.3
		c2-3.5,2.5-7.7,1.4-11.6c-1.1-3.9-3.6-7.2-7.2-9.2c-3.4-1.9-7.4-2.5-11.2-1.5c-0.1,0-0.2,0-0.4,0.1c0,0,0,0,0,0
		c-2.3,0.6-4.3,1.8-6,3.3c-4.2,3.7-6.2,9.7-4.6,15.5C391.2,166.9,397,171.2,403.5,171.5z M401.9,148.5c0.4-0.1,0.9-0.2,1.3-0.2
		c1.7-0.2,3.4,0.2,4.8,1c1.9,1.1,3.2,2.8,3.8,4.9c0.6,2.1,0.3,4.3-0.8,6.1c-0.6,1.1-1.5,2.1-2.6,2.8c-0.7,0.4-1.4,0.8-2.3,1
		c-1.7,0.5-3.5,0.3-5.1-0.3c-2.3-0.9-4.2-2.8-4.9-5.4c-0.6-2.2-0.3-4.3,0.8-6.1C398.1,150.5,399.8,149.1,401.9,148.5z"/>
</g>
</svg>
