<?xml version="1.0" encoding="utf-8"?>
<!-- Generator: Adobe Illustrator 27.2.0, SVG Export Plug-In . SVG Version: 6.00 Build 0)  -->
<svg version="1.1" id="Layer_1" xmlns="http://www.w3.org/2000/svg" xmlns:xlink="http://www.w3.org/1999/xlink" x="0px" y="0px"
	 viewBox="0 0 500 500" style="enable-background:new 0 0 500 500;" xml:space="preserve">
<style type="text/css">
	.st0{fill:#808080;}
</style>
<g>
	<path class="st0" d="M416.1,437.1c-4.5-7.5-16.5-11.1-34-10.3c-6.6-22.5-12.8-40.7-18.4-57.2c-12.9-37.8-22.2-65.2-26-111.9
		c-1.2-11.5-0.4-23.6,0.3-35.4c1.9-31,3.9-63-27.5-91.2c-7.9-18.3-7.7-22.1-7.5-27c0.1-1,0.1-2.2,0.1-3.5c8.5-8.4,9.1-12.5,9.8-23.5
		c0.3-5.2-1.1-8.9-3.1-11.6c0.4-0.6,0.6-1.3,0.5-2.1c-1.2-21.8,0.2-35.3,4.3-41.1c0.7-1,0.9-2.3,0.3-3.5s-1.6-1.9-2.8-2.1l-21.1-2.5
		c-1-0.1-2,0.2-2.8,0.9c-0.8,0.7-1.2,1.6-1.2,2.6c0,1.3,0,2.7,0,4c-0.1,11.8-0.3,23.9,4,36.2c-6.7,0.1-13.7,1.9-19,4.6
		c-3.9,2-6.8,4.4-8.7,7c-4.5-4.2-11.8-8.3-20-9.9c-4.5-0.9-11-1.3-18,1.1c2.2-21.1-3-31.7-8.6-40.8c-0.9-1.4-2.5-2-4.1-1.5
		l-18.3,5.8c-1,0.3-1.9,1.1-2.2,2.2s-0.3,2.2,0.3,3.1c11.3,18.1,12,26.9,12.7,36.1c0.3,3.6,0.6,7.3,1.5,11.6
		c0.1,0.3,0.2,0.6,0.3,0.8c0,0.1,0,0.3,0.1,0.4c2.3,7.3,4.7,13.5,6.8,19c6.3,16.5,10.1,26.4,4.8,45.7c-8.7,32-1.6,51.4,5.3,70.1
		c1.3,3.7,2.7,7.4,4,11.2c0,0.1-0.1,0.2-0.1,0.3c-0.9,4.7-1.8,10.1-2.8,15.9c-5.9,33.9-14.5,84-39,133.4c-0.3,0-0.6-0.1-1,0
		c-4,0.6-9.3,0.9-15.5,1.2c-22.1,1.2-52.3,2.9-61,20.2c-0.2,0.3-0.3,0.6-0.3,1c-1.3,7.4,3,11.8,7.1,14.6c-21.5,4-33.7,11.6-33,20.9
		c0.7,9,13.5,14.8,33,15.2c2.5,13.4,14.2,21.4,34.7,23.9c17.8,2.2,39.2,0.1,58.1-1.7c13.2-1.3,29.5-2.8,34-1c0,0.2,0,0.5,0,0.7
		c-0.1,2.1-0.5,6.3,3.3,8.2c10.8,5.4,32,8.1,50.8,8.1c10.7,0,20.7-0.9,27.7-2.6c6.3-1.6,6.6-6.7,6.8-9.1c0-0.1,0-0.1,0-0.2
		c46.3,3.6,76.2-8.9,84.6-22.2C418.4,446.5,418.6,441.4,416.1,437.1z M298.9,58.7c-5-12-4.9-24-4.7-36.6c0,0,0-0.1,0-0.1l12.1,1.4
		c-2.9,7.6-3.9,19.4-3.2,37c-1.3-0.6-2.7-1-4.1-1.4C298.9,59,298.9,58.9,298.9,58.7z M212.6,69.4c-0.1-1.3-0.2-2.6-0.3-4
		c-0.7-9-1.4-18.3-11.4-35.4l11.3-3.6c4.9,8.5,8.6,18.5,5.6,38.6C216,66.2,214.3,67.7,212.6,69.4z M409.3,447.6
		c-6.2,9.8-32.8,22.9-80.7,18.6c-1-0.1-2.1,0.3-2.8,1c-1.8,1.8-2,4.2-2.1,5.9c-0.2,2.4-0.2,2.4-1.5,2.7c-19.2,4.8-58.3,2.2-73.1-4.7
		c0-0.4,0-1.1,0.1-1.6c0.1-1.8,0.3-4.1-1.3-5.8c-0.1-0.1-0.2-0.2-0.3-0.3c-4.9-4.2-17.1-3.3-40.1-1.1c-18.5,1.8-39.5,3.8-56.5,1.7
		c-17.3-2.1-26.7-8.1-28.6-18.3c0.5-0.6,0.7-1.4,0.7-2.2c0-2-1.6-3.5-3.6-3.5c-20,0.3-29.8-5-30.1-8.7c-0.3-3.8,8.8-11.1,34.4-14.5
		c0.3,0,0.6-0.1,0.8-0.2c2.7-1.1,3.2-2.9,3.2-3.9c0.1-2.9-2.3-4.1-4.8-5.4c-4.6-2.4-8.5-4.7-8-9.2c7.2-13.1,34.7-14.7,54.8-15.8
		c4.6-0.3,8.7-0.5,12.3-0.8c-9.4,17.7-20.9,35.2-35.2,51.7c-1.3,1.5-1.1,3.7,0.4,5c0.7,0.6,1.5,0.9,2.3,0.9c1,0,2-0.4,2.7-1.2
		c57.2-66.1,71.3-147.4,79.7-195.9c0.1-0.5,0.2-1.1,0.3-1.6c0.2,0.7,0.4,1.4,0.6,2.2c2.8,10.8,6.3,24.3,4.6,36.6
		c-0.3,1.9,1.1,3.7,3,4c1.9,0.3,3.7-1.1,4-3c2-13.8-1.9-28.6-4.7-39.4c-0.6-2.4-1.2-4.6-1.7-6.6c-2-8.5-4.7-16-7.4-23.3
		c-6.8-18.5-13.2-35.9-5.1-65.8c5.9-21.5,1.4-33.5-5-50.1c-1.9-5-4-10.5-6.1-16.9c2.2-3,4.5-5.3,6.9-7.1c1.2-0.1,2.2-0.8,2.7-1.8
		c6.2-3.4,12.5-3.6,17.4-2.7c11.2,2,18.9,9.1,19.4,11.1c0.4,1.7,2,2.9,3.7,2.8c1.8-0.1,3.2-1.6,3.3-3.4c0.1-2.7,3-5.8,7.6-8.1
		c8.8-4.5,20.6-5.1,26.3-1.4c3,1.9,4.4,4.9,4.1,9.1c-0.6,9.9-0.8,12.3-8.8,19.9c-0.7,0.7-1.1,1.7-1.1,2.7c0.1,1.7,0,3-0.1,4.4
		c-0.3,5.6-0.6,10.4,8.4,30.9c0.2,0.5,0.5,0.9,0.9,1.2c29.4,26,27.6,55.1,25.7,86c-0.8,12-1.5,24.4-0.3,36.5
		c3.9,47.5,13.3,75.2,26.4,113.5c7.1,20.8,15.1,44.4,23.8,75.9c0.4,1.6,1.9,2.6,3.4,2.6c0.3,0,0.6,0,0.9-0.1c1.9-0.5,3-2.5,2.5-4.4
		c-1.1-4.2-2.3-8.2-3.4-12.1c15.7-0.5,23.7,3.1,25.9,6.9C411.2,442.7,410.9,445,409.3,447.6z"/>
	<path class="st0" d="M248.9,84.7L248.9,84.7c-1.5-1.5-3.7-1.4-5.1,0c-1.4,1.4-1.3,3.6,0.1,5l0.1,0.1c0.7,0.7,1.6,1,2.5,1
		c0.9,0,1.8-0.4,2.5-1.1C250.3,88.3,250.3,86,248.9,84.7z"/>
	<path class="st0" d="M292.7,73.7c-1.4-1.4-3.6-1.4-5,0s-1.4,3.6,0,5l0.2,0.2c0.7,0.7,1.6,1,2.5,1c0.9,0,1.8-0.3,2.5-1
		c1.4-1.4,1.4-3.6,0-5L292.7,73.7z"/>
	<path class="st0" d="M280.1,89.1c-1.4-1.4-3.6-1.4-5,0s-1.4,3.6,0,5l0.2,0.2c0.7,0.7,1.6,1,2.5,1c0.9,0,1.8-0.3,2.5-1
		c1.4-1.4,1.4-3.6,0-5L280.1,89.1z"/>
	<path class="st0" d="M235,74.9c-1.4-1.4-3.6-1.4-5,0s-1.4,3.6,0,5l0.2,0.2c0.7,0.7,1.6,1,2.5,1c0.9,0,1.8-0.3,2.5-1
		c1.4-1.4,1.4-3.6,0-5L235,74.9z"/>
	<path class="st0" d="M228.3,93.8c-0.6-1.9-2.6-2.9-4.5-2.2c-1.9,0.6-2.9,2.6-2.2,4.5l0.1,0.3c0.5,1.5,1.9,2.4,3.4,2.4
		c0.4,0,0.7-0.1,1.1-0.2c1.9-0.6,2.9-2.6,2.2-4.5L228.3,93.8z"/>
	<path class="st0" d="M261.6,104.2c1.4-1.4,1.4-3.6,0-5l-0.2-0.2c-1.4-1.4-3.6-1.4-5,0c-1.4,1.4-1.4,3.6,0,5l0.2,0.2
		c0.7,0.7,1.6,1,2.5,1C260,105.3,260.9,104.9,261.6,104.2z"/>
	<path class="st0" d="M229.6,423c-1.4-1.4-3.6-1.4-5,0s-1.4,3.6,0,5l0.2,0.2c0.7,0.7,1.6,1,2.5,1c0.9,0,1.8-0.3,2.5-1
		c1.4-1.4,1.4-3.6,0-5L229.6,423z"/>
	<path class="st0" d="M233.9,395.6c-1.4-1.4-3.6-1.4-5,0c-1.4,1.4-1.4,3.6,0,5l0.2,0.2c0.7,0.7,1.6,1.1,2.5,1.1c0.9,0,1.8-0.3,2.5-1
		c1.4-1.4,1.4-3.6,0-5L233.9,395.6z"/>
	<path class="st0" d="M265.1,412.5c-1.1-1.6-3.3-2.1-4.9-1c-1.6,1.1-2.1,3.3-1,4.9l0.2,0.3c0.7,1,1.8,1.6,2.9,1.6
		c0.7,0,1.4-0.2,2-0.6c1.6-1.1,2.1-3.3,1-4.9L265.1,412.5z"/>
	<path class="st0" d="M299.7,400.7c0.9,0,1.8-0.3,2.5-1c1.4-1.4,1.4-3.6,0-5l-0.2-0.2c-1.4-1.4-3.6-1.4-5,0s-1.4,3.6,0,5l0.2,0.2
		C297.9,400.3,298.8,400.7,299.7,400.7z"/>
	<path class="st0" d="M303.1,432.9c-1.4-1.4-3.6-1.4-5,0s-1.4,3.6,0,5l0.2,0.2c0.7,0.7,1.6,1,2.5,1c0.9,0,1.8-0.3,2.5-1
		c1.4-1.4,1.4-3.6,0-5L303.1,432.9z"/>
	<path class="st0" d="M197.5,433.1c-0.6-1.9-2.6-2.9-4.5-2.2c-1.9,0.6-2.9,2.6-2.2,4.5l0.1,0.3c0.5,1.5,1.9,2.4,3.4,2.4
		c0.4,0,0.7-0.1,1.1-0.2c1.9-0.6,2.9-2.6,2.2-4.5L197.5,433.1z"/>
	<path class="st0" d="M253.1,432.3c-1.1-1.6-3.3-2.1-4.9-1c-1.6,1.1-2.1,3.3-1,4.9l0.2,0.3c0.7,1,1.8,1.6,3,1.6c0.7,0,1.4-0.2,2-0.6
		c1.6-1.1,2.1-3.3,1-4.9L253.1,432.3z"/>
	<path class="st0" d="M316.3,415.3c-1.4-1.4-3.6-1.4-5,0c-1.4,1.4-1.4,3.6,0,5l0.2,0.2c0.7,0.7,1.6,1.1,2.5,1.1c0.9,0,1.8-0.3,2.5-1
		c1.4-1.4,1.4-3.6,0-5L316.3,415.3z"/>
	<path class="st0" d="M339.3,427.4c-1.4-1.4-3.6-1.4-5,0c-1.4,1.4-1.4,3.6,0,5l0.2,0.2c0.7,0.7,1.6,1,2.5,1c0.9,0,1.8-0.3,2.5-1
		c1.4-1.4,1.4-3.6,0-5L339.3,427.4z"/>
	<path class="st0" d="M198.6,402.4c-0.6-1.9-2.6-2.9-4.5-2.2c-1.9,0.6-2.9,2.6-2.2,4.5l0.1,0.3c0.5,1.5,1.9,2.4,3.4,2.4
		c0.4,0,0.7-0.1,1.1-0.2c1.9-0.6,2.9-2.6,2.2-4.5L198.6,402.4z"/>
	<path class="st0" d="M227.7,348.7c1.7-0.9,2.5-3,1.6-4.7l-0.1-0.2c-0.9-1.7-3-2.5-4.7-1.6c-1.7,0.9-2.5,3-1.6,4.7l0.1,0.2
		c0.6,1.2,1.9,2,3.2,2C226.6,349.1,227.2,349,227.7,348.7z"/>
	<path class="st0" d="M278.3,288.4c-1.1-1.6-3.3-2.1-4.9-1c-1.6,1.1-2.1,3.3-1,4.9l0.2,0.3c0.7,1,1.8,1.6,2.9,1.6
		c0.7,0,1.4-0.2,2-0.6c1.6-1.1,2.1-3.3,1-4.9L278.3,288.4z"/>
	<path class="st0" d="M277.8,324.2c-1.4-1.4-3.6-1.4-5,0c-1.4,1.4-1.4,3.6,0,5l0.2,0.2c0.7,0.7,1.6,1,2.5,1c0.9,0,1.8-0.3,2.5-1
		c1.4-1.4,1.4-3.6,0-5L277.8,324.2z"/>
	<path class="st0" d="M311.5,337.1c0.7,0.7,1.6,1.1,2.5,1.1c0.9,0,1.8-0.3,2.5-1c1.4-1.4,1.4-3.6,0-5l-0.2-0.2c-1.4-1.4-3.6-1.4-5,0
		c-1.4,1.4-1.4,3.6,0,5L311.5,337.1z"/>
	<path class="st0" d="M266.9,357.1c-1.4-1.4-3.6-1.4-5,0c-1.4,1.4-1.4,3.6,0,5l0.2,0.2c0.7,0.7,1.6,1.1,2.5,1.1c0.9,0,1.8-0.3,2.5-1
		c1.4-1.4,1.4-3.6,0-5L266.9,357.1z"/>
	<path class="st0" d="M321.4,374.5c-0.9-1.7-3-2.5-4.7-1.6c-1.7,0.9-2.5,3-1.6,4.7l0.1,0.2c0.6,1.2,1.9,2,3.2,2
		c0.5,0,1.1-0.1,1.6-0.4c1.7-0.9,2.5-3,1.6-4.7L321.4,374.5z"/>
</g>
</svg>
