<?xml version="1.0" encoding="utf-8"?>
<!-- Generator: Adobe Illustrator 27.2.0, SVG Export Plug-In . SVG Version: 6.00 Build 0)  -->
<svg version="1.1" id="Layer_1" xmlns="http://www.w3.org/2000/svg" xmlns:xlink="http://www.w3.org/1999/xlink" x="0px" y="0px"
	 viewBox="0 0 500 500" style="enable-background:new 0 0 500 500;" xml:space="preserve">
<style type="text/css">
	.st0{fill:#808080;}
</style>
<g>
	<path class="st0" d="M466.6,459.8c0.8-2.7,1.3-5.5,1.3-8.5V243.1c0-7-2.5-13.5-7-18.6c-0.5-1-1.1-1.8-1.8-2.6l-0.2-0.2L422.5,184
		v-82.1c0-9.3-7.3-16.6-16.6-16.6h-78.6l-56.4-58.4c-4.1-4.1-10.7-6.6-18-6.8l-0.1,0l-1.8,0c-7.4,0.2-13.9,2.7-17.8,6.8L175,85.3
		h-73.8c-9.3,0-16.6,7.3-16.6,16.6l-0.2,74.3l-45.3,45.4l-0.2,0.2c-2.1,2.3-3.4,5-3.7,7.6c-2.3,4.2-3.6,8.9-3.6,13.8v208.2
		c0,3.2,0.6,6.3,1.5,9.1c-1.5,2.7-1.8,5.7-0.7,8.6c2.5,6.6,11.3,10.8,22.6,10.8h390.1c11.2,0,20-4.2,22.4-10.8
		C468.8,466,468.4,462.7,466.6,459.8z M95.8,164.6l0.2-62.8c0-2.9,2.2-5.1,5.1-5.1h62.4h16.2h142.7h15.9h67.6c2.9,0,5.1,2.2,5.1,5.1
		v70.3v16.5V273l-0.4,0.4L333,342.2l-23.8-20.8c9.5-12.4,14.2-24.5,14.3-36.3h49.6c3.2,0,5.7-2.6,5.7-5.7c0-2.9-2.2-5.3-5-5.6
		c-0.2,0-0.5-0.1-0.7-0.1h-51c-0.5-1.8-1.2-3.6-2.1-5.7c0-0.1,0-0.1-0.1-0.2c-6.2-13-18-21.7-31.6-23.3c-13-1.6-26,3.6-35,14
		c-8.2-9.8-20-14.9-33.6-14.2c-13.6,0.7-25.7,8.2-31.6,19.3c-1.5,2.9-2.9,6.3-3.9,10.1h-48c-1.9,0-3.6,1-4.7,2.4
		c-0.7,0.9-1,2.1-1,3.3c0,3.2,2.6,5.7,5.7,5.7h46.8c0.3,9.3,3.4,20.3,12,32.8L169.8,340c-0.2-0.2-0.4-0.4-0.6-0.6l-73.8-61.9
		c0.1-0.3,0.1-0.7,0.1-1l0-0.1l0.3-95.6L95.8,164.6z M439.3,468.3h-379c-5.2,0-9.9-2.3-13-6L202.1,327c10,11.7,24.3,24.1,39.9,34.3
		c0,0,0,0,0,0l8.3,5.4c1,0.6,2,0.9,3.1,0.9c1.1,0,2.3-0.3,3.2-1l5.6-3.8c16.6-11.3,29.8-22.1,39.6-32.7L452.6,462
		C449.5,465.9,444.7,468.3,439.3,468.3z M194.8,279.4c0.2-1.3,0.5-2.6,0.8-3.9c0.2-0.6,0.3-1.2,0.5-1.8c0.6-1.6,1.2-3.2,2.1-4.7
		c4-7.6,12.5-12.7,22.1-13.2c11.2-0.5,20.3,3.9,26.3,12.8c0.1,0.2,0.3,0.4,0.4,0.5c0.5,0.5,0.8,1,1,1.2c0.3,0.6,0.7,1.1,1.1,1.5
		c1.2,1.2,3,1.8,4.7,1.6c1.9-0.2,3.6-1.3,4.8-3.2c0.1-0.2,0.2-0.4,0.4-0.6c0.4-0.5,1.3-1.7,1.9-2.4l0.3-0.4c6.6-8.2,16-12.2,25.8-11
		c9.8,1.2,18,7.3,22.6,16.8c0.2,0.3,0.3,0.7,0.4,1c0.1,0.2,0.2,0.5,0.3,0.7c0.7,1.8,1.2,3.4,1.4,5c0.3,1.6,0.4,3.2,0.4,5.3
		c0,0.1,0,0.3,0,0.4c-0.1,9-4,18.6-11.5,28.7c-2.2,2.9-4.6,5.8-7.4,8.8c-9.2,9.9-21.6,20.2-37.4,30.8l-2.4,1.7l-5.1-3.3
		c-14.8-9.8-28.3-21.4-37.6-32.3c-2.3-2.7-4.3-5.3-6-7.8c-0.3-0.4-0.6-0.9-0.9-1.3c-5.9-8.9-8.9-17.3-9.2-25.2
		C194.5,283.2,194.6,281.3,194.8,279.4z M43.1,248.6l118,98.9l-118,103.2V248.6z M341.7,349.8l114.7-101.7v202.1L341.7,349.8z
		 M450.3,229.3c0.2,0.2,0.4,0.5,0.4,0.6l0.4,1l0.8,0.8c0.9,0.9,1.6,1.9,2.3,3l-31.7,28.1v-62.4L450.3,229.3z M241.5,34.8
		c1.4-1.5,4.8-3.2,9.8-3.3h1.5c4.2,0.1,8.1,1.4,10,3.4l48.6,50.4H191.2L241.5,34.8z M45.7,234.1l1-1.5l-0.2-1.9
		c0-0.1,0.2-0.5,0.7-1.1l37-37.1l-0.2,75.7l-39.1-32.7C45.3,234.9,45.5,234.5,45.7,234.1z"/>
	<path class="st0" d="M133,143.6c0.9,0.7,2.1,1.1,3.3,1.1h232.3h4.5c3.2,0,5.7-2.6,5.7-5.7c0-0.1,0-0.1,0-0.2
		c-0.1-2.9-2.4-5.3-5.3-5.5c-0.1,0-0.3,0-0.4,0h-15.5H143.3h-7c-3.2,0-5.7,2.6-5.7,5.7C130.6,140.9,131.5,142.5,133,143.6z"/>
	<path class="st0" d="M136.3,191.5h236.8c3.2,0,5.7-2.6,5.7-5.7s-2.6-5.7-5.7-5.7H136.3c-3.2,0-5.7,2.6-5.7,5.7
		S133.2,191.5,136.3,191.5z"/>
	<path class="st0" d="M136.3,238.3h236.8c3.2,0,5.7-2.6,5.7-5.7s-2.6-5.7-5.7-5.7H136.3c-3.2,0-5.7,2.6-5.7,5.7
		S133.2,238.3,136.3,238.3z"/>
</g>
</svg>
