<?xml version="1.0" encoding="utf-8"?>
<!-- Generator: Adobe Illustrator 27.2.0, SVG Export Plug-In . SVG Version: 6.00 Build 0)  -->
<svg version="1.1" id="Layer_1" xmlns="http://www.w3.org/2000/svg" xmlns:xlink="http://www.w3.org/1999/xlink" x="0px" y="0px"
	 viewBox="0 0 500 500" style="enable-background:new 0 0 500 500;" xml:space="preserve">
<style type="text/css">
	.st0{fill:#808080;}
</style>
<g>
	<path class="st0" d="M423.9,82.2H120.3l206.5-52.9v34.5c0,3.1,2.5,5.6,5.6,5.6s5.6-2.5,5.6-5.6V22.1c0-1.7-0.8-3.3-2.2-4.4
		c-1.4-1.1-3.1-1.4-4.8-1L74.7,82.3c-0.1,0-0.2,0.1-0.4,0.1c-0.2,0.1-0.4,0.1-0.6,0.2c-0.2,0.1-0.3,0.2-0.5,0.3
		c-0.2,0.1-0.3,0.2-0.5,0.3c-0.1,0.1-0.3,0.2-0.4,0.4c-0.1,0.1-0.3,0.2-0.4,0.4c-0.1,0.1-0.2,0.3-0.3,0.4c-0.1,0.1-0.2,0.3-0.3,0.4
		c-0.1,0.1-0.2,0.3-0.2,0.5c-0.1,0.2-0.2,0.3-0.2,0.5c-0.1,0.2-0.1,0.3-0.2,0.5c0,0.2-0.1,0.3-0.1,0.5c0,0.2,0,0.4-0.1,0.6
		c0,0.1,0,0.2,0,0.4v390.1c0,3.1,2.5,5.6,5.6,5.6h347.9c3.1,0,5.6-2.5,5.6-5.6V87.7C429.5,84.7,427,82.2,423.9,82.2z M418.4,472.3
		H81.6v-379h336.7V472.3z"/>
	<path class="st0" d="M185.6,304.2c12.6,6.4,27.9,11.6,45.4,15.4c5.6,1.3,15.7,3.2,22.4,4c2.2,5.1,4.7,10.2,7.4,15.4
		c1.4,2.7,4.2,7.4,5,8.5c1.3,1.8,3.5,3,5.9,3.4v0c0.4,0.1,0.8,0.1,1.4,0.1c5.8,0,19.8-3.1,20-3.1c13.1-2.9,24.5-6.8,33.8-11.7
		c11.4-5.8,19.4-12.6,24.4-20.7c4.8-7.7,6.4-16.4,4.8-25.3c-2.6-13.1-12.2-23.5-25-27c-6.8-1.9-14.1-1.5-20.6,0.9
		c-2.2-6.7-6.4-12.8-11.9-17c-1-0.8-2-1.4-3-2.1c0.4-2.6,0.7-5.1,0.9-7.5c1.9-20.6-3.1-37.3-14.4-48c-8.5-8.1-19.4-12.4-30.9-12.3
		c-9.8,0-19,3.2-26.9,9.3c-7.7,6.1-13.3,14.7-16,24.2c-9.2-3.9-19.2-4.6-28.7-1.9c-16.6,4.5-29.3,18.2-32.5,35.1
		c-2.1,11.3,0.1,22.9,6.2,32.7C160.2,287.5,170.7,296.5,185.6,304.2z M158.2,246.1c2.4-12.7,12-23.1,24.5-26.5
		c2.8-0.8,5.7-1.2,8.5-1.2c5.6,0,11.2,1.5,16.4,4.4c1.1,0.8,2.9,1.9,4.8,1.9h4l1.3-3.8c0.1-0.4,0.5-1.7,0.6-3.3
		c1.4-8.8,6.1-16.9,12.9-22.2c5.9-4.5,12.8-6.9,20.2-6.9c8.6-0.1,16.8,3.1,23.1,9.2c8.8,8.4,12.6,21.9,11,39.1
		c-0.1,1.3-0.3,2.7-0.4,4.1c-2.3-0.5-4.7-0.8-7.1-0.8c-9,0-17.5,3.4-23.7,9.5c-8.7,8.3-12.6,21-11.2,36.7c0.7,7.7,2.7,16.4,5.8,25.6
		c-4.6-0.7-10.3-1.8-15.4-3c-16.7-3.6-31.1-8.5-42.8-14.4c-13.2-6.8-22.1-14.3-27.8-23.5C158.2,263.3,156.5,254.7,158.2,246.1z
		 M300.9,271.3c0.2,5.1,3.7,6.5,5.9,6.5h1.3l2.4-1.2l0.3-0.2c5.2-3.1,11.6-4,17.4-2.4c8.6,2.4,15.2,9.6,17,18.4
		c1.1,6.1,0,11.9-3.3,17.3c-3.9,6.3-10.4,11.8-20,16.6c-8.5,4.4-19,8-31.1,10.7c-6.7,1.5-13.8,2.6-16.5,2.8c-0.9-1.5-2.4-4-3.4-6.1
		c-2.2-4.2-4.3-8.3-6.1-12.4c-0.9-1.9-1.7-3.8-2.4-5.7c-0.9-2.2-1.7-4.5-2.5-6.7c-3-8.6-4.9-16.8-5.6-23.9
		c-1.1-12.2,1.6-21.7,7.8-27.7c4.2-4.1,9.9-6.4,16-6.4c1.7,0,3.4,0.2,5.1,0.6c1.8,0.4,3.6,1.1,5.2,2c1.2,0.6,2.4,1.4,3.5,2.3
		c0.5,0.4,0.9,0.8,1.4,1.2C297.3,260.8,300,265.8,300.9,271.3z"/>
	<path class="st0" d="M348.2,382.9H154.9c-3.1,0-5.6,2.5-5.6,5.6s2.5,5.6,5.6,5.6h193.4c3.1,0,5.6-2.5,5.6-5.6
		S351.3,382.9,348.2,382.9z"/>
</g>
</svg>
