<?xml version="1.0" encoding="utf-8"?>
<!-- Generator: Adobe Illustrator 27.2.0, SVG Export Plug-In . SVG Version: 6.00 Build 0)  -->
<svg version="1.1" id="Layer_1" xmlns="http://www.w3.org/2000/svg" xmlns:xlink="http://www.w3.org/1999/xlink" x="0px" y="0px"
	 viewBox="0 0 500 500" style="enable-background:new 0 0 500 500;" xml:space="preserve">
<style type="text/css">
	.st0{fill:#808080;}
</style>
<g>
	<path class="st0" d="M451.2,82.5V68.5c0-10.4-9.8-18.8-21.9-18.8c-12.4,0-22.1,8.2-22.1,18.8v11.8h-15V68.5
		c0-10.4-9.8-18.8-21.9-18.8c-12.2,0-22.1,8.4-22.1,18.8v11.8h-14.8V68.5c0-10.4-9.9-18.8-22.1-18.8c-12.1,0-21.9,8.4-21.9,18.8
		v11.8h-15V68.5c0-10.4-9.8-18.8-21.9-18.8c-12.4,0-22.1,8.2-22.1,18.8v11.8h-15V68.5c0-10.4-9.8-18.8-21.9-18.8
		c-12.2,0-22.1,8.4-22.1,18.8v11.8h-14.8V68.5c0-10.4-9.9-18.8-22.1-18.8c-12.1,0-21.9,8.4-21.9,18.8v11.8h-15V68.5
		c0-10.4-9.8-18.8-21.9-18.8c-12.4,0-22.1,8.2-22.1,18.8v12.9c-26.2,5-46,28.1-46,55.7v256.5c0,31.3,25.4,56.7,56.7,56.7h371.2
		c31.3,0,56.7-25.4,56.7-56.7V137C492.3,111.2,474.9,89.3,451.2,82.5z M418.1,80.3V68.5c0-4.3,5.1-7.9,11.2-7.9c6,0,11,3.6,11,7.9
		v12.1v10.7v8.2c0,4.3-5,7.9-11,7.9c-6.1,0-11.2-3.6-11.2-7.9v-8.4V80.3z M359.2,80.3V68.5c0-4.3,5.1-7.9,11.2-7.9
		c6,0,11,3.6,11,7.9v11.8v10.7v8.4c0,4.3-5,7.9-11,7.9c-6.1,0-11.2-3.6-11.2-7.9v-8.4V80.3z M300.4,80.3V68.5c0-4.3,5-7.9,11-7.9
		c6.1,0,11.2,3.6,11.2,7.9v11.8v10.7v8.4c0,4.3-5.1,7.9-11.2,7.9c-6,0-11-3.6-11-7.9v-8.4V80.3z M241.4,80.3V68.5
		c0-4.3,5.1-7.9,11.2-7.9c6,0,11,3.6,11,7.9v11.8v10.7v8.4c0,4.3-5,7.9-11,7.9c-6.1,0-11.2-3.6-11.2-7.9v-8.4V80.3z M182.4,80.3
		V68.5c0-4.3,5.1-7.9,11.2-7.9c6,0,11,3.6,11,7.9v11.8v10.7v8.4c0,4.3-5,7.9-11,7.9c-6.1,0-11.2-3.6-11.2-7.9v-8.4V80.3z
		 M123.6,80.3V68.5c0-4.3,5-7.9,11-7.9c6.1,0,11.2,3.6,11.2,7.9v11.8v10.7v8.4c0,4.3-5.1,7.9-11.2,7.9c-6,0-11-3.6-11-7.9v-8.4V80.3
		z M86.8,68.5v11.8v10.7v8.4c0,4.3-5,7.9-11,7.9c-6.1,0-11.2-3.6-11.2-7.9v-8.4V80.3V68.5c0-4.3,5.1-7.9,11.2-7.9
		C81.7,60.6,86.8,64.2,86.8,68.5z M481.6,393.6c0,25.4-20.6,46-46,46H64.4c-25.4,0-46-20.6-46-46V137c0-21.7,15.1-39.9,35.3-44.7
		v7.1c0,10.5,9.7,18.8,22.1,18.8c12.1,0,21.9-8.4,21.9-18.8v-8.4h15v8.4c0,10.4,9.8,18.8,21.9,18.8c12.2,0,22.1-8.4,22.1-18.8v-8.4
		h14.8v8.4c0,10.4,9.9,18.8,22.1,18.8c12.1,0,21.9-8.4,21.9-18.8v-8.4h15v8.4c0,10.5,9.7,18.8,22.1,18.8c12.1,0,21.9-8.4,21.9-18.8
		v-8.4h15v8.4c0,10.4,9.8,18.8,21.9,18.8c12.2,0,22.1-8.4,22.1-18.8v-8.4h14.8v8.4c0,10.4,9.9,18.8,22.1,18.8
		c12.1,0,21.9-8.4,21.9-18.8v-8.4h15v8.4c0,10.5,9.7,18.8,22.1,18.8c12.1,0,21.9-8.4,21.9-18.8v-5.7c17.7,6.4,30.4,23.4,30.4,43.2
		V393.6z"/>
	<path class="st0" d="M111.8,339.6H68.7c-3,0-5.4,2.4-5.4,5.4v42.8c0,3,2.4,5.4,5.4,5.4h43.1c3,0,5.4-2.4,5.4-5.4v-42.8
		C117.2,342,114.8,339.6,111.8,339.6z M106.5,382.4H74.1v-32.1h32.4V382.4z"/>
	<path class="st0" d="M191.6,339.6h-43c-3,0-5.4,2.4-5.4,5.4v42.8c0,3,2.4,5.4,5.4,5.4h43c3,0,5.4-2.4,5.4-5.4v-42.8
		C197,342,194.6,339.6,191.6,339.6z M186.3,382.4H154v-32.1h32.2V382.4z"/>
	<path class="st0" d="M271.4,339.6h-43c-3,0-5.4,2.4-5.4,5.4v42.8c0,3,2.4,5.4,5.4,5.4h43c3,0,5.4-2.4,5.4-5.4v-42.8
		C276.8,342,274.4,339.6,271.4,339.6z M266,382.4h-32.2v-32.1H266V382.4z"/>
	<path class="st0" d="M351.3,339.6h-43.1c-3,0-5.4,2.4-5.4,5.4v42.8c0,3,2.4,5.4,5.4,5.4h43.1c3,0,5.4-2.4,5.4-5.4v-42.8
		C356.7,342,354.3,339.6,351.3,339.6z M346,382.4h-32.4v-32.1H346V382.4z"/>
	<path class="st0" d="M431.1,339.6h-43c-3,0-5.4,2.4-5.4,5.4v42.8c0,3,2.4,5.4,5.4,5.4h43c3,0,5.4-2.4,5.4-5.4v-42.8
		C436.5,342,434.1,339.6,431.1,339.6z M425.7,382.4h-32.2v-32.1h32.2V382.4z"/>
	<path class="st0" d="M353.7,241.9c-7.5-0.9-15.1,1.7-20.7,7c-5.2-5.1-12-7.6-19.7-7.1c-8.6,0.4-16.3,5-20,12.1
		c-3.8,7.1-6.1,18.6,4.2,33.5c5.7,8.4,15.9,17.7,27.8,25.6l4.8,3.1c0.9,0.6,1.9,0.9,2.9,0.9c1.1,0,2.1-0.3,3-0.9l3.3-2.2
		c24.6-16.6,36.5-31.9,36.5-46.8c0-4.2-0.6-6.9-2.3-10.5C369.7,248.5,362.3,243,353.7,241.9z M333.3,305l-0.3,0.2l-1.8-1.2
		c0,0,0,0,0,0c-10.7-7-20-15.4-24.9-22.7c-5.9-8.5-7.1-15.9-3.6-22.4c1.9-3.7,6.3-6.2,11.1-6.4c0.4,0,0.7,0,1.1,0
		c5.1,0,9.4,2.2,12.4,6.3c0.4,0.7,1.1,1.7,1.8,2.4c1,1,2.3,1.5,3.7,1.5c2,0,3.7-1,4.8-2.7c0.3-0.4,0.7-1,1.5-2.1
		c3.5-4.1,8.2-6,13.1-5.4c5,0.6,9.1,3.8,11.5,8.6c1,2,1.3,3.2,1.3,5.9C365.1,277.9,354.1,291,333.3,305z"/>
	<path class="st0" d="M111.8,252H68.7c-3,0-5.4,2.4-5.4,5.4V300c0,3,2.4,5.4,5.4,5.4h43.1c3,0,5.4-2.4,5.4-5.4v-42.7
		C117.2,254.4,114.8,252,111.8,252z M106.5,294.7H74.1v-31.9h32.4V294.7z"/>
	<path class="st0" d="M191.6,252h-43c-3,0-5.4,2.4-5.4,5.4V300c0,3,2.4,5.4,5.4,5.4h43c3,0,5.4-2.4,5.4-5.4v-42.7
		C197,254.4,194.6,252,191.6,252z M186.3,294.7H154v-31.9h32.2V294.7z"/>
	<path class="st0" d="M271.4,252h-43c-3,0-5.4,2.4-5.4,5.4V300c0,3,2.4,5.4,5.4,5.4h43c3,0,5.4-2.4,5.4-5.4v-42.7
		C276.8,254.4,274.4,252,271.4,252z M266,294.7h-32.2v-31.9H266V294.7z"/>
	<path class="st0" d="M431.1,252h-43c-3,0-5.4,2.4-5.4,5.4V300c0,3,2.4,5.4,5.4,5.4h43c3,0,5.4-2.4,5.4-5.4v-42.7
		C436.5,254.4,434.1,252,431.1,252z M425.7,294.7h-32.2v-31.9h32.2V294.7z"/>
	<path class="st0" d="M111.8,164.5H68.7c-3,0-5.4,2.4-5.4,5.4v42.7c0,3,2.4,5.4,5.4,5.4h43.1c3,0,5.4-2.4,5.4-5.4v-42.7
		C117.2,166.9,114.8,164.5,111.8,164.5z M106.5,207.1H74.1v-31.9h32.4V207.1z"/>
	<path class="st0" d="M191.6,164.5h-43c-3,0-5.4,2.4-5.4,5.4v42.7c0,3,2.4,5.4,5.4,5.4h43c3,0,5.4-2.4,5.4-5.4v-42.7
		C197,166.9,194.6,164.5,191.6,164.5z M186.3,207.1H154v-31.9h32.2V207.1z"/>
	<path class="st0" d="M271.4,164.5h-43c-3,0-5.4,2.4-5.4,5.4v42.7c0,3,2.4,5.4,5.4,5.4h43c3,0,5.4-2.4,5.4-5.4v-42.7
		C276.8,166.9,274.4,164.5,271.4,164.5z M266,207.1h-32.2v-31.9H266V207.1z"/>
	<path class="st0" d="M308.2,217.8h43.1c3,0,5.4-2.4,5.4-5.4v-42.7c0-3-2.4-5.4-5.4-5.4h-43.1c-3,0-5.4,2.4-5.4,5.4v42.7
		C302.9,215.4,305.3,217.8,308.2,217.8z M313.6,175.2H346v31.9h-32.4V175.2z"/>
	<path class="st0" d="M431.1,164.5h-43c-3,0-5.4,2.4-5.4,5.4v42.7c0,3,2.4,5.4,5.4,5.4h43c3,0,5.4-2.4,5.4-5.4v-42.7
		C436.5,166.9,434.1,164.5,431.1,164.5z M425.7,207.1h-32.2v-31.9h32.2V207.1z"/>
</g>
</svg>
