<?xml version="1.0" encoding="utf-8"?>
<!-- Generator: Adobe Illustrator 27.2.0, SVG Export Plug-In . SVG Version: 6.00 Build 0)  -->
<svg version="1.1" id="Layer_1" xmlns="http://www.w3.org/2000/svg" xmlns:xlink="http://www.w3.org/1999/xlink" x="0px" y="0px"
	 viewBox="0 0 500 500" style="enable-background:new 0 0 500 500;" xml:space="preserve">
<style type="text/css">
	.st0{fill:#808080;}
</style>
<g>
	<path class="st0" d="M238.6,55.8c0-0.1,0-0.1,0-0.2c-0.1-0.2-0.1-0.4-0.2-0.6c0,0,0-0.1,0-0.1c-0.1-0.2-0.2-0.4-0.3-0.6
		c0,0-0.1-0.1-0.1-0.1c-0.1-0.2-0.3-0.3-0.4-0.4c0,0,0,0-0.1-0.1c0,0,0,0,0,0C222,40.6,162.9,27,143,32c-0.1,0-0.2,0.1-0.4,0.1
		c0,0-0.1,0-0.1,0c-0.2,0.1-0.4,0.2-0.6,0.3c0,0,0,0-0.1,0c0,0,0,0-0.1,0.1c-0.2,0.1-0.4,0.3-0.5,0.4c0,0,0,0,0,0
		c-0.1,0.1-0.3,0.3-0.4,0.5c0,0-0.1,0.1-0.1,0.1c-0.1,0.2-0.2,0.4-0.3,0.6c0,0,0,0.1,0,0.1c-0.1,0.1-0.1,0.3-0.1,0.4L88.5,210.1
		c-6.3,21-4.6,40.6,4.9,58.3c7.4,13.8,18.1,23.6,26.2,30.1l-23,100.1c-6.2,21.8-18.8,25.7-30.2,26.7L35.2,427
		c-2.1,0.1-3.7,1.8-3.7,3.9c0,13.2,20.3,23,37.3,28.9c19.7,6.8,44.5,11.6,63.4,12.2c1.4,0,2.8,0.1,4.1,0.1
		c17.8,0,27.1-4.1,27.7-12.4c0.1-1.5-0.7-2.9-2-3.7l-27.2-15.2c-12-8.3-18.4-17.1-15.8-37.3l22.9-99.8c30.1-4.3,60.8-16.2,66.6-66.3
		l30.2-180.2c0,0,0-0.1,0-0.1c0-0.1,0-0.1,0-0.2c0-0.2,0-0.4,0-0.6c0,0,0-0.1,0-0.1C238.7,56.2,238.7,56,238.6,55.8z M226.4,56
		c-4.9,0.6-13.1,0.7-25.2-0.9c-18.3-2.5-38.9-8.3-49.2-16.4C172.2,37.9,209.8,47.3,226.4,56z M200.8,236.4c0,0.1,0,0.1,0,0.2
		c-5.3,46.1-33.2,56-62.5,59.9c-1.6,0.2-3,1.4-3.3,3L111.3,402c0,0.1,0,0.2-0.1,0.4c-3.3,24.2,5.3,35.5,19.2,45.1
		c0.1,0.1,0.2,0.1,0.3,0.2l24,13.4c-2.7,1.8-9.5,3.5-22.4,3.1c-34.5-1.1-83.9-16.1-92-29.7L67,433c12.4-1,29.7-5.5,37.3-32.5
		c0-0.1,0-0.1,0-0.2l23.6-102.6c0.3-1.5-0.2-3-1.4-4c-29.8-23.4-39.8-50-30.4-81.5l11.9-40.5c10.3,9.7,40.1,17.1,47.3,18.7
		c12.4,2.9,27.4,5.3,38.8,5.3c5.7,0,10.6-0.6,13.8-2L200.8,236.4z M112.9,165.9c4.4-1.7,20.9-2,47.2,4c26.3,6.1,40.9,13.6,44.2,17
		c-4.4,1.7-20.8,2.1-47.2-3.9C130.7,176.9,116.1,169.3,112.9,165.9z M210,181.6c-2.5-2.6-6.6-5.2-12.6-7.9
		c-9.2-4.2-21.8-8.3-35.5-11.4c-7-1.6-35.9-7.8-49.8-4.1l33.7-114.5c16.1,13.9,53.2,20.6,73.4,20.6c0.8,0,1.5,0,2.2,0
		c3.5-0.1,6.2-0.4,8.4-0.8L210,181.6z"/>
	<path class="st0" d="M162.2,269.2c-10,6-21.5,6.5-31.6,1.3c-12.2-6.3-19.9-19.8-21.3-37.2c-0.2-2.2-2.1-3.8-4.2-3.6
		c-2.2,0.2-3.8,2.1-3.6,4.2c1.6,20.1,10.9,36,25.5,43.6c5.7,2.9,11.8,4.4,18,4.4c7.3,0,14.6-2,21.2-5.9c1.9-1.1,2.5-3.5,1.4-5.4
		C166.4,268.7,164,268.1,162.2,269.2z"/>
	<path class="st0" d="M177.3,259.4c-1.9-1-4.3-0.2-5.3,1.7l-0.1,0.2c-1,1.9-0.2,4.3,1.7,5.3c0.6,0.3,1.2,0.4,1.8,0.4
		c1.4,0,2.8-0.8,3.5-2.1l0.1-0.2C180,262.8,179.2,260.4,177.3,259.4z"/>
	<path class="st0" d="M467.5,418.5c-0.7-1.4-2-2.2-3.5-2.2h-31.1c-14.6-1.3-24.5-5.8-32-24.8l-28.8-98.3
		c9.8-7.5,22.5-18.8,28.9-34.1c6.8-16.4,5.8-34.8-3.1-56.3L335.9,31c0,0,0-0.1-0.1-0.1c0-0.1-0.1-0.1-0.1-0.2
		c-0.1-0.2-0.2-0.3-0.3-0.5c0,0,0-0.1,0-0.1c-0.1-0.2-0.3-0.3-0.4-0.5c0,0-0.1-0.1-0.1-0.1c-0.1-0.1-0.3-0.3-0.5-0.4c0,0,0,0-0.1,0
		c-0.2-0.1-0.4-0.2-0.6-0.3c-0.1,0-0.1,0-0.2-0.1c-0.2-0.1-0.4-0.1-0.6-0.2c0,0,0,0-0.1,0c0,0,0,0,0,0c-19.8-4-78,13.1-92.9,27.2
		c-0.1,0.1-0.2,0.2-0.3,0.3c0,0,0,0-0.1,0.1c-0.1,0.2-0.3,0.4-0.4,0.6c0,0,0,0,0,0.1c0,0,0,0,0,0.1c-0.1,0.2-0.2,0.4-0.3,0.6
		c0,0,0,0.1,0,0.1c-0.1,0.2-0.1,0.4-0.1,0.6c0,0.1,0,0.1,0,0.2c0,0.2,0,0.4,0,0.7c0,0,0,0.1,0,0.1c0,0.1,0,0.3,0.1,0.4l40.7,178.1
		c4.8,21.4,15.8,37.7,32.8,48.5c13.3,8.4,27.4,11.8,37.7,13.5L379,398c5.1,22.1-3.9,31.7-13.3,38l-26.4,16.9
		c-1.8,1.1-2.3,3.4-1.3,5.2c3.7,6.5,12.9,9.1,24.8,9.1c25.3,0,62.7-11.8,83.6-22.8C464.3,435.2,471.4,426.4,467.5,418.5z
		 M324.6,35.7c-3.8,2.9-10.8,6.9-21.8,11.3c-16.8,6.7-38.2,12-51.4,10C268.6,46.5,305.9,36.3,324.6,35.7z M257.7,65.4
		c21.9,0,52.1-11.3,66.5-20c2.8-1.7,5-3.2,6.8-4.7l40.7,112.8c-13.2-4.3-44.3,4.4-51.6,6.5c-6.9,2-35.1,10.8-45.4,20.8L248.2,64.5
		C251.1,65.1,254.3,65.4,257.7,65.4z M369.3,160.8c-3,3.6-17.1,12.1-43,19.6c-25.9,7.6-42.4,8.2-46.9,6.8c3.1-3.6,17.2-12,43-19.7
		C348.3,159.9,364.7,159.4,369.3,160.8z M442.8,437.6c-16,8.4-39.2,16.1-59.2,19.7c-19.5,3.5-30.8,2.4-35.9-0.4l22.4-14.3
		c10.2-6.9,23-19.2,16.7-46.5c0-0.1,0-0.1-0.1-0.2L357,294.9c-0.4-1.5-1.7-2.5-3.2-2.8c-37.5-5.8-59.3-24.2-66.4-56.3l-9.4-40.9
		c2.2,0.5,4.8,0.8,7.8,0.8c11.8,0,28.8-3.7,42.6-7.7c13.4-3.9,25.7-8.7,34.7-13.5c6.4-3.4,10.6-6.5,12.7-9.5l14.7,40.7
		c0,0.1,0,0.1,0.1,0.2c17.9,43-1.6,65.2-25.4,82.8c-1.3,1-1.9,2.7-1.4,4.3l29.6,101c0,0.1,0.1,0.2,0.1,0.3c9,22.8,22,28.4,38.9,29.9
		c0.1,0,0.2,0,0.3,0h27.5C458.8,427,453.8,431.7,442.8,437.6z"/>
	<path class="st0" d="M379.7,257.1c1.1-1.9,0.4-4.3-1.5-5.4c-1.9-1.1-4.3-0.4-5.4,1.5c-5.8,10.1-15.5,16.2-26.8,16.6
		c-13.7,0.5-27.1-7.5-36.9-22.1c-1.2-1.8-3.6-2.3-5.4-1.1c-1.8,1.2-2.3,3.6-1.1,5.5c10.9,16.3,26.2,25.6,42.2,25.6c0.5,0,1,0,1.5,0
		C360.2,277.1,372.6,269.4,379.7,257.1z"/>
	<path class="st0" d="M381.4,245.3c2.2,0,3.9-1.8,3.9-3.9v-0.2c0-2.2-1.8-3.9-3.9-3.9s-3.9,1.8-3.9,3.9v0.2
		C377.5,243.6,379.2,245.3,381.4,245.3z"/>
	<path class="st0" d="M196.4,77.7c-8.4,0-15.2,6.8-15.2,15.2s6.8,15.2,15.2,15.2s15.2-6.8,15.2-15.2S204.8,77.7,196.4,77.7z
		 M196.4,100.3c-4.1,0-7.4-3.3-7.4-7.4s3.3-7.4,7.4-7.4s7.4,3.3,7.4,7.4S200.5,100.3,196.4,100.3z"/>
	<path class="st0" d="M161.3,112.9c-7,0-12.7,5.7-12.7,12.7c0,7,5.7,12.7,12.7,12.7s12.7-5.7,12.7-12.7
		C174,118.6,168.3,112.9,161.3,112.9z M161.3,130.4c-2.7,0-4.8-2.2-4.8-4.9c0-2.7,2.2-4.9,4.8-4.9c2.7,0,4.8,2.2,4.8,4.9
		C166.2,128.2,164,130.4,161.3,130.4z"/>
	<path class="st0" d="M330.5,228.6c7,0,12.7-5.7,12.7-12.7c0-7.1-5.6-12.7-12.7-12.7c-7.1,0-12.6,5.6-12.6,12.7
		C317.9,222.9,323.6,228.6,330.5,228.6z M330.5,211c2.8,0,4.8,2.1,4.8,4.9c0,2.7-2.1,4.8-4.8,4.8c-2.6,0-4.7-2.2-4.7-4.8
		C325.8,213.1,327.8,211,330.5,211z"/>
	<path class="st0" d="M296.7,119.5c7,0,12.7-5.7,12.7-12.7s-5.7-12.7-12.7-12.7S284,99.8,284,106.8S289.7,119.5,296.7,119.5z
		 M296.7,101.9c2.7,0,4.8,2.2,4.8,4.9c0,2.7-2.2,4.9-4.8,4.9c-2.7,0-4.8-2.2-4.8-4.9C291.9,104.1,294,101.9,296.7,101.9z"/>
	<path class="st0" d="M330.5,143.3c8.4,0,15.2-6.8,15.2-15.2c0-8.4-6.8-15.2-15.2-15.2c-8.3,0-15.1,6.8-15.1,15.2
		C315.4,136.5,322.2,143.3,330.5,143.3z M330.5,120.7c4.1,0,7.4,3.3,7.4,7.4s-3.3,7.4-7.4,7.4c-4,0-7.3-3.3-7.3-7.4
		S326.5,120.7,330.5,120.7z"/>
</g>
</svg>
