<?xml version="1.0" encoding="utf-8"?>
<!-- Generator: Adobe Illustrator 27.2.0, SVG Export Plug-In . SVG Version: 6.00 Build 0)  -->
<svg version="1.1" id="Layer_1" xmlns="http://www.w3.org/2000/svg" xmlns:xlink="http://www.w3.org/1999/xlink" x="0px" y="0px"
	 viewBox="0 0 500 500" style="enable-background:new 0 0 500 500;" xml:space="preserve">
<style type="text/css">
	.st0{fill:#808080;}
</style>
<g>
	<path class="st0" d="M438.3,313.9c-12.5-27-33.1-51.2-60-69.8c-31.3-21.7-70.1-34.8-110.3-37.7c-0.6-2.7-0.9-5.1-1.1-7
		c8.6-6,13.6-20.8,10.1-31.9c-3.3-11.3-12.5-18.3-23.9-18.3c0,0,0,0,0,0c-12.2,0-23.4,8-26.7,19.2c-3,11.2,2.1,25.5,10.6,31.2
		c0,2.3-0.1,4.6-0.4,6.7c-40,2.5-78.7,15-110.2,36.1c-27.8,18.5-49.2,43-62.2,70.5c-31.2,14-48.1,31.4-48.1,49.9
		c0,22.6,25,43.4,70.3,58.6c43.8,14.6,101.9,22.7,163.6,22.7c61.8,0,119.9-8.1,163.7-22.7c45.3-15.2,70.3-35.9,70.3-58.6
		C483.9,344.6,467.9,327.7,438.3,313.9z M410.7,412.5c-42.9,14.3-100,22.2-160.8,22.2c-60.8,0-117.8-7.9-160.7-22.2
		c-40.7-13.6-64-31.8-64-49.8c0-12.9,11.9-25.9,33.6-37.2c-1.3,3.6-2.5,7.2-3.5,10.9c-9.4,29.1-4.1,40.2,23.5,49.8
		c45.9,15.8,106.9,24.7,171.8,25.2c1.7,0,3.3,0,5,0c59.7,0,118.2-7.4,161.3-20.3c15.3-3,24.6-8,29.5-15.6c5.9-9.4,4.6-21.5,0.8-36.8
		c0,0,0,0,0,0c-1-4-2.3-8-3.6-11.9c20.2,11,31.2,23.5,31.2,35.9C474.7,380.8,451.4,398.9,410.7,412.5z M77.3,307.4
		c28.7-51,88.7-86.7,156.8-91.8c-1.9,5.1-4.6,9.2-7.3,11.4c-2,1.6-2.2,4.5-0.6,6.5c0.9,1.1,2.2,1.7,3.6,1.7c1,0,2.1-0.3,2.9-1
		c1.2-1,2.4-2.2,3.5-3.6c3.4-4.1,6.1-9.5,7.8-15.5c0.4-1.5,0.8-3.1,1.1-4.6c0.3-1.5,0.5-3.1,0.7-4.6c0.3-3.1,0.4-6.3,0.2-9.4
		c-0.1-1.8-1.2-3.3-2.8-4c-5.2-2.2-10.2-13.5-8-21.7c2.4-8.2,10.8-12.4,17.8-12.4c0,0,0,0,0,0c3.5,0,11.9,1.1,15,11.7
		c2.8,8.8-2.8,20.4-7.8,22.4c-1.7,0.7-2.9,2.4-2.9,4.3c0,1.7,0.3,5,1.1,9.1c0.3,1.5,0.6,3,1,4.6c0.4,1.5,0.8,3.1,1.2,4.7
		c1.6,5.4,3.9,11,7,15.4c0.9,1.2,1.8,2.3,2.8,3.3c1.8,1.8,4.7,1.7,6.5-0.1c1.8-1.8,1.7-4.7-0.1-6.5c-2.7-2.6-4.8-6.9-6.4-11.4
		c67.4,5.8,126.5,41.8,154.6,92.5c1.1,2.1,2.2,4.2,3.3,6.3c1,2.1,2,4.1,2.9,6.2c2.8,6.5,5.2,13.3,7,20.2c3.9,15.4,4,23.9,0.4,29.6
		c-3.4,5.4-11,9.1-23.7,11.6c-0.1,0-0.3,0.1-0.4,0.1c-93.7,28.3-242.9,26.2-332.6-4.7c-21.6-7.5-26-12.8-17.7-38.3
		c0-0.1,0-0.1,0.1-0.2c1.8-6.6,4.1-13,6.9-19.2c0.9-2.1,1.9-4.1,2.9-6.2C75,311.5,76.1,309.4,77.3,307.4z"/>
	<path class="st0" d="M97.2,370.6c0.3,0.2,0.7,0.4,1.1,0.5c5.9,2,10.8,2.9,15,2.9c13.1,0,18.6-8.1,20.5-12.5
		c4.8-10.7,2.1-25.9-5.4-31.9c-2.2-8.7,1-18.6,7.2-28.7c1.1-1.8,2.3-3.6,3.5-5.3c1.3-1.8,2.6-3.6,4.1-5.4c0.6-0.8,1.2-1.5,1.9-2.3
		c-0.1,0.7-0.3,1.4-0.4,2.1c-0.3,1.6-0.6,3.2-0.9,4.8c-0.2,1-0.3,2.1-0.5,3.1c-0.1,0.6-0.3,1.1-0.4,1.7c-3.1,15.1,5.1,26,14.4,30
		c0.4,0.2,0.8,0.3,1.3,0.3c1.7,0.2,3.3,0.3,4.7,0.3c15.7,0,19.6-9.9,20.5-14.4c1.5-7.4-1.3-16.3-5.9-21.2c-1.2-1.2-2.4-2.2-3.8-2.8
		c-0.4-0.4-0.7-0.8-1-1.2c-1.1-1.5-1.9-2.9-2.4-4.4c-1.3-4.1-0.6-8.7,0.5-15.8c0.5-3.1,1.1-6.6,1.5-10.5c9-7.9,17.5-14.8,23.8-19.9
		l3.5-2.8c1.9-1.5,2.3-4.2,0.9-6.2c-1.4-2-4-2.6-6.1-1.4c-3.6,2.1-7.9,4.4-12.5,6.9c-18.7,10-44.3,23.7-65.2,45.3
		c-5.4,5.5-10.3,11.3-14.5,17.4c-1.4,1.9-2.7,3.9-3.9,5.9c-1.2,1.9-2.4,3.9-3.5,5.9c-3,5.4-5.5,10.9-7.7,16.5
		C77.8,346.1,85.7,362.9,97.2,370.6z M95.8,331.6c0.1-0.2,0.2-0.4,0.3-0.6c3.1-8.4,7.1-16.3,12.2-23.8c1.3-2,2.7-3.9,4.1-5.8
		c1.5-2,3.1-4,4.7-5.9c2.1-2.4,4.3-4.9,6.6-7.2c9.3-9.6,19.7-17.6,30-24.4c-0.4,0.8-0.8,1.6-1.2,2.4c-8.4,8.4-16.4,17.3-22.4,26.5
		c-1.2,1.8-2.3,3.6-3.4,5.4c-1,1.8-2,3.5-2.8,5.3c-5,10.5-7,20.9-3.8,30.5c0.4,1.1,1.1,2,2.1,2.6c3.4,1.9,7,13,3.2,21.3
		c-4.1,9.1-15,7.8-23.5,4.9C93.6,356.8,88.7,345.1,95.8,331.6z M162.2,268.9c0,0.3-0.1,0.6-0.1,0.9c-1,6.4-1.8,12.1-0.5,17.6
		c0.4,1.5,0.9,3,1.6,4.5c0.7,1.4,1.6,2.8,2.7,4.3c0.7,0.9,1.5,1.8,2.4,2.8c0.5,0.6,1.2,1,2,1.2c1.9,0.6,6,7.5,4.7,13.9
		c-1.1,5.4-6,7.7-14.5,6.9c-6.1-2.9-10.9-10.3-8.1-20.8c0-0.2,0.1-0.4,0.1-0.6c0.1-0.5,0.1-1,0.2-1.5c0.2-1.6,0.5-3.2,0.8-4.8
		c0.3-1.7,0.6-3.3,1-4.8c1.4-6.2,3.2-11.6,5.7-16.7c0.8-1.6,1.6-3.2,2.5-4.7C162.4,267.6,162.3,268.3,162.2,268.9z"/>
	<path class="st0" d="M167.8,343.4c-9.8,0-17.8,7.9-17.8,17.7c0,9.8,8,17.8,17.8,17.8s17.8-8,17.8-17.8
		C185.6,351.4,177.6,343.4,167.8,343.4z M167.8,369.8c-4.8,0-8.6-3.9-8.6-8.6c0-4.7,3.9-8.5,8.6-8.5c4.8,0,8.6,3.8,8.6,8.5
		C176.4,365.9,172.5,369.8,167.8,369.8z"/>
	<path class="st0" d="M163.7,100.1c0.1,0.1,0.2,0.3,0.3,0.4c1.3,1.4,2.5,2.8,3.5,4.2c3.9,5.4,5.3,11,0.4,20.7
		c-0.9,1.8-2.1,3.8-3.5,5.9c-10,10.9-13.9,22.3-1,42.1c0.9,1.4,2.4,2.1,3.9,2.1c0.9,0,1.7-0.2,2.5-0.7c2.1-1.4,2.7-4.2,1.3-6.4
		c-1.5-2.3-2.7-4.4-3.7-6.3c-4.8-9.7-3.4-15.4,0.4-20.6c1-1.4,2.2-2.8,3.5-4.2c0.1-0.1,0.2-0.3,0.3-0.4c0-0.1,0.1-0.1,0.1-0.2
		c13-19.7,9.3-30.8-0.9-42.1c-1.4-2.2-2.6-4.2-3.5-6c-4.8-9.7-3.5-15.3,0.4-20.6c1-1.4,2.2-2.8,3.5-4.2c1.7-1.9,1.6-4.8-0.3-6.5
		c-1.9-1.7-4.8-1.6-6.5,0.3c-10.4,11.4-14.3,22.4-1.2,42.4C163.6,100,163.6,100.1,163.7,100.1z"/>
	<path class="st0" d="M120.4,126.6c-12.2,12.3-17,25.1-1.2,47.2c0,0.1,0.1,0.1,0.2,0.2c0.1,0.1,0.2,0.3,0.3,0.4
		c1.2,1.2,2.4,2.4,3.4,3.6c6,6.8,8.3,13.7,0.7,26.7c-1,1.7-2.2,3.5-3.6,5.4c-1.5,2.1-1,4.9,1.1,6.4c0.8,0.6,1.7,0.9,2.7,0.9
		c1.4,0,2.9-0.7,3.8-1.9c15.8-22.2,11.3-34.6-1.2-47.3c-1.3-1.8-2.4-3.5-3.4-5.1c-7.6-12.8-5.1-19.8,0.7-26.5c1-1.2,2.2-2.4,3.4-3.6
		c0.1-0.1,0.2-0.3,0.3-0.4c0-0.1,0.1-0.1,0.2-0.2c0,0,0.1-0.1,0.1-0.1c0,0,0,0,0,0c15.9-22.4,10.8-35.2-1.6-47.5
		c-1.8-1.8-4.7-1.8-6.5,0c-1.8,1.8-1.8,4.7,0,6.5c1.2,1.2,2.4,2.4,3.4,3.6c5.8,6.7,8.3,13.7,0.7,26.7
		C122.8,123.1,121.6,124.8,120.4,126.6z"/>
	<path class="st0" d="M78.7,214.9c-10.2,11.3-13.9,22.3-1,42.1c0.9,1.4,2.4,2.1,3.9,2.1c0.9,0,1.7-0.2,2.5-0.7
		c2.1-1.4,2.7-4.2,1.3-6.4c-1.5-2.3-2.7-4.4-3.7-6.3c-4.8-9.7-3.5-15.3,0.4-20.6c1-1.4,2.2-2.8,3.5-4.2c0.1-0.1,0.2-0.3,0.3-0.4
		c0-0.1,0.1-0.1,0.1-0.2c13.1-19.7,9.1-31.1-0.9-42c-1.4-2.2-2.6-4.2-3.5-6c-4.8-9.7-3.4-15.4,0.4-20.6c1-1.4,2.2-2.8,3.5-4.2
		c1.7-1.9,1.6-4.8-0.2-6.5c-1.9-1.7-4.8-1.6-6.5,0.2c-10.2,11-14.3,22.3-1.3,42.3c0,0,0,0,0,0c0,0,0,0.1,0.1,0.1
		c0,0.1,0.1,0.1,0.1,0.2c0.1,0.2,0.2,0.3,0.3,0.5c1.3,1.4,2.5,2.8,3.5,4.2c3.9,5.2,5.3,11,0.4,20.6
		C81.3,210.7,80.1,212.7,78.7,214.9z"/>
</g>
</svg>
