<?xml version="1.0" encoding="utf-8"?>
<!-- Generator: Adobe Illustrator 27.2.0, SVG Export Plug-In . SVG Version: 6.00 Build 0)  -->
<svg version="1.1" id="Layer_1" xmlns="http://www.w3.org/2000/svg" xmlns:xlink="http://www.w3.org/1999/xlink" x="0px" y="0px"
	 viewBox="0 0 500 500" style="enable-background:new 0 0 500 500;" xml:space="preserve">
<style type="text/css">
	.st0{fill:#808080;}
</style>
<g>
	<path class="st0" d="M377.5,303l-141.8-16.5c-2.3-0.3-4.6,1.2-5.2,3.5l-35.7,120c-6.9-10.6-21.1-18.6-38-20
		c-25.3-2.2-46.4,10.4-48,28.7c-0.6,7,1.7,13.9,6.8,20c7.7,9.2,21,15.4,35.6,16.7c1.8,0.2,3.6,0.2,5.4,0.2
		c19.5,0,36.1-9.3,41.2-22.6l0.4,0.1l40.5-136.2l132,15.3l-34.3,115.3c-0.6-0.9-1.2-1.7-1.9-2.6c-7.7-9.2-21-15.4-35.5-16.7
		c-25.3-2.2-46.4,10.5-48,28.8c-0.6,6.9,1.7,13.8,6.8,19.8c7.7,9.2,21,15.4,35.6,16.7c1.8,0.2,3.6,0.2,5.4,0.2
		c12.6,0,24.5-3.8,32.5-10.6c5.7-4.8,9.1-10.8,9.9-17.3l40.6-136.5c0.4-1.4,0.2-2.9-0.6-4.1C380.3,303.9,379,303.1,377.5,303z
		 M152.1,445.4c-12.1-1-22.9-6-29-13.2c-2.4-2.8-5.1-7.3-4.6-12.8c1-11.4,15.7-20,33-20c1.5,0,3,0.1,4.5,0.2
		c19.2,1.6,34.5,13.5,33.6,25.9C188.5,438,171.3,447.1,152.1,445.4z M324.9,455.6c-7.2,6.1-18.7,9.1-30.7,8.1
		c-12.1-1-22.9-6-29-13.2c-2.3-2.8-5-7.3-4.6-12.7c1-11.7,15.3-20.2,32.8-20.2c1.5,0,3.1,0.1,4.7,0.2c12,1,22.8,6,28.9,13.2
		c2.3,2.8,5,7.2,4.6,12.6c0,0,0,0,0,0.1c0,0,0,0,0,0c-0.1,1.1-0.3,2.1-0.6,3C329.7,450.7,327.1,453.7,324.9,455.6z"/>
	<path class="st0" d="M398.9,180.5l-7.9-98c-0.1-1.4-0.9-2.8-2-3.6c-1.2-0.8-2.7-1.1-4.1-0.7l-96.3,25.6c-2.3,0.6-3.8,2.8-3.6,5.1
		l6.8,83.3c-7.5-4.1-17.8-5-28.5-1.7c-17.9,5.3-28.9,19.7-25.1,32.7c3,9.8,13.3,15.5,25.8,15.5c4.1,0,8.5-0.6,12.8-2
		c15.7-4.7,26-16.3,25.8-27.8l0.3,0l-5.9-72.6l87-20.1l4.2,51.2c-7.6-3.9-18-4.5-28-1.5c-8.1,2.4-15.2,6.9-19.9,12.7
		c-5.1,6.2-6.9,13.5-5,20c2.9,9.7,13.3,15.5,25.9,15.5c4.1,0,8.4-0.6,12.7-1.9C391.1,207,402,193.2,398.9,180.5z M247.5,220.4
		c-2.2-7.5,6.3-16.9,18.5-20.5c3.4-1,6.7-1.5,9.9-1.5c8.1,0,14.9,3.2,16.6,8.6c2.2,7.4-6.3,16.8-18.5,20.5
		C261.9,231.1,249.8,227.8,247.5,220.4z M296.2,126.5l-1.2-14.3l86.7-23.1l1.4,17.3L296.2,126.5z M344.5,195.8
		c-1.3-4.5,1.5-8.8,3.2-11c3.4-4.2,9-7.7,15.1-9.5c3.4-1,6.8-1.5,10-1.5c4.2,0,8,0.8,11.1,2.5c1.9,1,4.4,2.9,5.3,5.9
		c0,0.1,0,0.1,0.1,0.2c0,0,0,0,0,0c0.2,0.6,0.3,1.1,0.3,1.7c0.6,7.1-7.4,15.4-18.6,18.8C358.8,206.4,346.7,203.2,344.5,195.8z"/>
	<path class="st0" d="M74.4,178.9c3.8,1.4,7.7,2.1,11.3,2.1c7,0,13-2.5,16.4-7.1l0.1,0.1l35.8-54.9l55,22.5l-27.2,41.7
		c-3.1-4.8-8.3-8.8-14.4-11.1c-12.7-4.8-25.6-1.2-29.4,8.3c-1.4,3.7-1.2,7.8,0.6,11.8c2.6,5.8,8.6,11,15.9,13.8
		c3.9,1.5,7.8,2.1,11.4,2.1c8.1,0,15-3.5,17.7-9.6l36.9-56.6c0.8-1.2,1-2.7,0.6-4.1c-0.4-1.4-1.5-2.5-2.8-3.1L138,108.5
		c-2.2-0.9-4.7-0.1-5.9,1.8l-30,46.1c-3-4.8-8.3-9-14.6-11.4c-12.8-4.8-25.8-1.2-29.6,8.3c-1.4,3.7-1.2,7.8,0.6,11.7
		C61.2,171,67.1,176.1,74.4,178.9z M158.7,194.3C158.7,194.3,158.7,194.4,158.7,194.3c-0.1,0.3-0.2,0.5-0.4,0.7
		c-2,3.2-8.8,4.7-16.5,1.8c-4.8-1.8-8.8-5.1-10.4-8.6c-0.7-1.6-0.9-3-0.4-4.2c1-2.5,4.5-4.2,9.1-4.2c2.4,0,5,0.5,7.8,1.5
		c4.9,1.8,8.9,5.2,10.5,8.7c0.7,1.5,0.8,2.9,0.4,4.1C158.8,194.2,158.8,194.2,158.7,194.3z M94.4,162.9c0.7,1.6,0.9,3,0.4,4.2
		c-1.5,3.7-8.9,5.7-17,2.7c-4.9-1.8-8.8-5.1-10.4-8.6c-0.7-1.6-0.9-3-0.4-4.2c1-2.5,4.5-4.2,9.2-4.2c2.4,0,5.1,0.5,7.8,1.5
		C88.9,156.1,92.9,159.4,94.4,162.9z"/>
	<path class="st0" d="M155,302c2.6,7.6,4.9,14.1,2.6,18.7c-1.8,3.6-6.9,6.8-15,9.3c-2.6,0.8-4,3.5-3.2,6.1c0.7,2.1,2.6,3.4,4.7,3.4
		c0.5,0,1-0.1,1.5-0.2c11.1-3.5,17.7-8,20.8-14.3c4.2-8.3,1-17.4-2.1-26.3c-3.1-8.9-6.3-18-3.2-27.2c0.9-2.5-0.5-5.3-3-6.2
		c-2.2-0.7-4.5,0.1-5.7,2l0,0l-45.6,71c-3.7-7.8-11.7-14.6-21.3-18.2c-17.3-6.6-34.7-1.9-39.5,10.7c-1.9,4.8-1.6,10.2,0.7,15.5
		c3.6,8,11.6,15.1,21.6,18.9c5.3,2,10.6,2.9,15.5,2.9c11.1,0,20.4-4.7,23.9-13.1l43.2-67.3C151.8,292.7,153.5,297.5,155,302z
		 M98.8,351C98.8,351,98.8,351,98.8,351c-0.2,0.6-0.5,1.1-0.8,1.6c-3.9,5.9-15.3,7.6-26.2,3.5c-7.6-2.9-13.6-8-16.1-13.7
		c-0.9-2-1.7-5.1-0.6-8c1.8-4.8,7.7-7.4,14.9-7.4c3.8,0,8,0.7,12.1,2.3c7.5,2.8,13.6,7.9,16.1,13.6c0.9,2,1.7,4.9,0.7,7.8
		C98.9,350.8,98.8,350.9,98.8,351z"/>
	<path class="st0" d="M189.5,82.6c7.7,5.5,19.4,10.5,31.2,13.4c0,0,0,0,0,0l5,1.2c0.4,0.1,0.8,0.1,1.2,0.1c1.5,0,3-0.7,4-2l2-2.8
		c15.9-21.4,21.5-38,16.9-50.6c-1.2-3.6-2.6-5.9-5.1-8.4c-5.7-5.8-13.7-8.3-21.3-6.6c-6.6,1.5-12.2,5.9-15.3,12.2
		c-5.9-2.8-12.5-2.9-18.9-0.2c-7.1,3-12.2,9.2-13.3,16.3C174.7,62.2,176.2,72.7,189.5,82.6z M185.5,56.6c0.6-3.7,3.4-7.1,7.4-8.7
		c4.7-2,9.4-1.4,13.4,1.5c0.1,0.1,0.2,0.2,0.4,0.2c0.1,0,0.1,0.1,0.2,0.1c0.9,0.9,2.1,1.5,3.5,1.5c2.5,0,4.6-1.8,5.1-4.2
		c0,0,0-0.1,0-0.1c0.1-0.4,0.3-1,0.5-1.4c0-0.1,0.1-0.2,0.1-0.3c1.6-4.6,5.1-7.7,9.4-8.7c4.4-1,8.8,0.5,12.2,3.9
		c1.5,1.5,2,2.4,2.8,4.7c3.3,9.3-1.9,23.3-15.6,41.7l-0.1,0.2l-1.8-0.4c-10.7-2.7-21.1-7.1-27.8-11.9
		C187.6,69.1,184.5,63.1,185.5,56.6z"/>
	<path class="st0" d="M457.8,247.1c-5.2-4.4-12-6.1-18.8-4.9c-1.4-6.4-5.3-11.8-11.1-15.2c-6.8-4-14.8-4.3-21.1-0.8
		c-6.3,3.3-13.8,10.8-13.6,27.4c0.1,9.4,3.2,21.8,8,33c0,0,0,0,0,0l2,4.6c0.8,1.8,2.5,2.9,4.5,2.9h3.6c26.1-0.2,43.2-5.9,50.7-17
		c0,0,0.1-0.1,0.1-0.1c2-3.2,2.9-5.6,3.4-9.1C466.6,260,463.7,252.2,457.8,247.1z M455.8,266.7c-0.3,2.1-0.7,3.3-2,5.2
		c-5.6,8.1-20.3,12.5-42.6,12.6h-0.4l-0.8-1.7c-4.4-10.2-7.1-21.1-7.2-29.3c-0.1-9.4,2.7-15.6,8.5-18.7c3.4-1.9,7.7-1.6,11.5,0.6
		c4.4,2.5,6.7,6.5,6.8,11.4v1.6c0,2.7,2.2,4.9,4.9,4.9c0.5,0,1.6-0.1,2.7-0.6c0.1,0,0.2-0.1,0.3-0.1c0.4-0.1,0.9-0.3,1.5-0.5
		c4.5-1.4,9-0.5,12.4,2.3C454.9,257.5,456.5,261.9,455.8,266.7z"/>
	<path class="st0" d="M81.1,282.4l5,1.1c0.3,0.1,0.7,0.1,1,0.1c1.6,0,3.1-0.8,4-2.1l2.1-3c14.8-22.1,19.5-39,14.5-51.5
		c0-0.1-0.1-0.1-0.1-0.2c-1.5-3.2-2.8-5.5-5.5-7.8c-6-5.5-14.1-7.6-21.6-5.5c-6.5,1.8-11.9,6.5-14.6,12.8c-6-2.5-12.6-2.4-18.8,0.6
		c-7.2,3.3-11.9,9.7-12.6,17c-0.8,7.2,1.1,17.6,14.8,26.7C57,275.5,68.9,279.9,81.1,282.4z M44.2,244.7c0.4-3.9,3-7.3,7-9.1
		c2-0.9,4.1-1.4,6-1.4c2.5,0,5,0.8,7.3,2.3c0.1,0,0.1,0.1,0.2,0.1c0.2,0.1,0.4,0.2,0.6,0.4c0.5,0.3,1.1,0.7,1.9,1
		c0.9,0.3,1.8,0.3,2.6,0.1c0.8-0.2,2.7-0.9,3.5-3.3c0.2-0.4,0.3-0.9,0.4-1.4c0.1-0.2,0.2-0.7,0.4-1.3c0-0.1,0.1-0.2,0.1-0.3
		c1.4-4.6,4.6-7.8,8.9-9c4.3-1.2,8.9,0,12.5,3.4c1.5,1.3,2.1,2.3,3.1,4.5c3.6,9.2-1,23.4-13.6,42.3l-0.2,0.3l-1.8-0.4
		c0,0-0.1,0-0.1,0c-11-2.2-21.6-6.1-28.4-10.6C47,257.1,43.4,251.2,44.2,244.7z M73.8,232.8c0,0.1,0,0.3,0,0.4
		C73.7,233.1,73.8,232.9,73.8,232.8z"/>
	<path class="st0" d="M177.9,242.4c0,8.9,7.2,16.2,16,16.2c8.9,0,16.2-7.3,16.2-16.2c0-8.8-7.3-16-16.2-16
		C185.1,226.4,177.9,233.6,177.9,242.4z M200.3,242.4c0,3.5-2.9,6.4-6.4,6.4c-3.5,0-6.3-2.9-6.3-6.4c0-3.4,2.9-6.3,6.3-6.3
		C197.5,236.2,200.3,239,200.3,242.4z"/>
	<path class="st0" d="M421.8,327.6c-8.8,0-16,7.2-16,16.1c0,8.9,7.2,16.2,16,16.2c8.9,0,16.2-7.3,16.2-16.2
		C438,334.8,430.7,327.6,421.8,327.6z M421.8,350.1c-3.5,0-6.3-2.9-6.3-6.4c0-3.5,2.8-6.3,6.3-6.3c3.6,0,6.4,2.8,6.4,6.3
		C428.2,347.2,425.3,350.1,421.8,350.1z"/>
	<path class="st0" d="M364.3,249.7c0-9.1-7-16.2-16-16.2c-8.9,0-16.2,7.3-16.2,16.2c0,8.8,7.3,16,16.2,16
		C357.1,265.7,364.3,258.5,364.3,249.7z M341.8,249.7c0-3.5,2.9-6.4,6.4-6.4c3.5,0,6.3,2.8,6.3,6.4c0,3.5-2.8,6.3-6.3,6.3
		C344.7,256,341.8,253.1,341.8,249.7z"/>
	<path class="st0" d="M301.2,67.5c8.8,0,16-7.3,16-16.2c0-8.8-7.2-16-16-16c-8.9,0-16.2,7.2-16.2,16
		C285.1,60.3,292.3,67.5,301.2,67.5z M301.2,45.1c3.4,0,6.3,2.9,6.3,6.3c0,3.5-2.8,6.4-6.3,6.4c-3.5,0-6.4-2.9-6.4-6.4
		C294.8,47.9,297.7,45.1,301.2,45.1z"/>
</g>
</svg>
