<?xml version="1.0" encoding="utf-8"?>
<!-- Generator: Adobe Illustrator 27.2.0, SVG Export Plug-In . SVG Version: 6.00 Build 0)  -->
<svg version="1.1" id="Layer_1" xmlns="http://www.w3.org/2000/svg" xmlns:xlink="http://www.w3.org/1999/xlink" x="0px" y="0px"
	 viewBox="0 0 500 500" style="enable-background:new 0 0 500 500;" xml:space="preserve">
<style type="text/css">
	.st0{fill:#808080;}
</style>
<g>
	<path class="st0" d="M124.6,306.2h-45c-1.9,0-3.5,1.6-3.5,3.5v35.9c0,1.9,1.6,3.5,3.5,3.5h45c1.9,0,3.5-1.6,3.5-3.5v-35.9
		C128.1,307.8,126.5,306.2,124.6,306.2z M83.1,342.1v-28.9h15.5v28.9H83.1z M121.1,342.1h-15.5v-28.9h15.5V342.1z"/>
	<path class="st0" d="M367.1,346.8h45c1.9,0,3.5-1.6,3.5-3.5v-35.9c0-1.9-1.6-3.5-3.5-3.5h-45c-1.9,0-3.5,1.6-3.5,3.5v35.9
		C363.6,345.3,365.2,346.8,367.1,346.8z M408.6,311v28.9h-15.5V311H408.6z M370.6,311h15.5v28.9h-15.5V311z"/>
	<path class="st0" d="M237.2,166.6C237.2,166.6,237.2,166.6,237.2,166.6l5.7,3.7c0.6,0.4,1.2,0.6,1.9,0.6c0.7,0,1.4-0.2,2-0.6
		l3.8-2.6c27.7-18.8,41.8-36.7,41.8-53.3c0-4.5-0.7-7.5-2.5-11.2c-4.1-8.7-11.9-14.6-21-15.8c-9-1.1-17.9,2.5-24.1,9.7
		c-5.7-6.9-13.7-10.4-23-9.9c-9.2,0.6-17.2,5.4-21.3,13c-5.8,11-4.1,23.7,4.8,36.8C211.9,146.7,223.5,157.5,237.2,166.6z
		 M206.6,103.5c3-5.4,8.8-8.9,15.5-9.3c7.7-0.4,14.1,2.7,18.4,8.9c0.2,0.4,0.5,0.7,0.7,1c0.1,0.2,0.2,0.3,0.3,0.4
		c0.2,0.3,0.4,0.6,0.6,0.8c0.8,0.8,2,1.2,3.1,1.1c0.8-0.1,2-0.6,2.8-2.1c0.1-0.1,0.3-0.3,0.5-0.6c0.4-0.5,0.9-1.1,1.4-1.8
		c4.7-5.7,11.3-8.5,18.1-7.6c6.8,0.9,12.4,5.2,15.6,11.9c1.4,2.8,1.8,4.7,1.8,8.2c0,14.1-13,30.1-38.8,47.5l-1.9,1.3l-3.7-2.4
		c-12.8-8.5-24-18.8-30-27.7C203.6,122.1,202.1,112.1,206.6,103.5z"/>
	<path class="st0" d="M495.3,284c-0.1-6.1-3.1-11.5-7.8-14.4c0.6-1.7,0.8-3.6,0.8-5.5c0-8.1-5.5-14.9-12.7-16.2c0-0.2,0-0.4,0-0.6
		c0-7.1-5.8-12.8-12.8-12.8c-7.1,0-12.8,5.8-12.8,12.8c0,0.3,0,0.6,0,0.8c-6,2.2-10.4,8.4-10.4,15.6c0,1.7,0.3,3.4,0.8,5.1
		c-1.8,1.1-3.3,2.6-4.5,4.3l-70.1-50.9l-0.5-0.2c-1.6-0.5-19.9-0.9-41.7-1.1L255.9,186c-2.4-1.3-6.4-2-10.7-1.9
		c-3.9,0-7.4,0.7-9.6,1.9l-67.7,35.1c-26,0.3-49,0.6-50.7,1.1l-0.6,0.2l-54.3,43.2c0.2-1.2,0.4-2.4,0.4-3.7
		c0-8.1-5.5-14.9-12.6-16.2c0-0.2,0-0.4,0-0.6c0-7.1-5.8-12.8-12.8-12.8c-7.1,0-12.9,5.8-12.9,12.8c0,0.3,0,0.6,0,0.9
		c-6,2.2-10.3,8.4-10.3,15.6c0,1.8,0.2,3.5,0.7,5.2c-4.7,2.9-7.7,8.2-7.7,14.3c0,3.5,1,6.9,2.9,9.7c-3.4,3.1-5.4,7.7-5.4,12.7
		c0,9.1,6.8,16.5,15.2,16.5c1.3,0,2.7-0.2,3.9-0.6v47.2c0,1.9,1.6,3.5,3.5,3.5h16.9c1.9,0,3.5-1.6,3.5-3.5v-43.6
		c1.3-1.1,2.4-2.5,3.2-4c1.1,0.3,2.1,0.4,3.2,0.4c1.5,0,3-0.3,4.4-0.7v47.9c0,1.9,1.6,3.5,3.5,3.5h77.3c0.6,0.7,1.5,1.1,2.5,1.1
		h72.4l-51.3,35.4c-1.6,1.1-2,3.3-0.9,4.9c0.7,1,1.8,1.5,2.9,1.5c0.7,0,1.4-0.2,2-0.6l59.6-41.2h32.8l59.5,41.2
		c0.6,0.4,1.3,0.6,2,0.6c1.1,0,2.2-0.5,2.9-1.5c1.1-1.6,0.7-3.8-0.9-4.9L271.4,371h78.2c1,0,1.9-0.4,2.5-1.1h78.5
		c1.9,0,3.5-1.6,3.5-3.5v-50c2.8,3.5,6.9,5.7,11.4,5.7c1.3,0,2.6-0.2,3.8-0.6v47.1c0,1.9,1.6,3.5,3.5,3.5h16.9
		c1.9,0,3.5-1.6,3.5-3.5v-43.4c1.3-1.1,2.4-2.5,3.3-4.1c1.1,0.3,2.1,0.4,3.2,0.4c8.4,0,15.2-7.4,15.2-16.5c0-3.7-1.2-7.4-3.3-10.3
		c2.3-2.9,3.6-6.7,3.7-10.6C495.3,284.1,495.3,284.1,495.3,284z M484.6,292c-0.8,0.6-1.3,1.6-1.3,2.7c0,1.1,0.4,2.1,1.3,2.7
		c2.1,1.8,3.4,4.7,3.4,7.6c0,5.3-3.7,9.6-8.2,9.6c-1.1,0-2.3-0.3-3.4-0.9c-0.9-0.5-2-0.6-3-0.2c-0.2,0.1-0.4,0.2-0.6,0.3
		c-0.7,0.4-1.2,1.1-1.5,1.9c-0.4,1.2-0.9,2.3-1.6,3.2c-0.9,1.2-2.2,2.1-3.5,2.7c-0.8,0.3-1.7,0.5-2.6,0.5c-2.3,0-4.5-1.2-6-3.2
		c-0.8-1-1.4-2.2-1.8-3.5c0-0.1,0-0.1-0.1-0.2c-0.3-1.2-1.2-2.1-2.3-2.4c-0.3-0.1-0.7-0.2-1-0.2c-0.8,0-1.6,0.3-2.3,0.8
		c-0.1,0.1-0.3,0.2-0.4,0.3c-1.3,1-2.8,1.5-4.3,1.5c-4.5,0-8.2-4.3-8.2-9.6c0-3.8,2.1-7.4,5.1-8.8c1.1-0.5,1.8-1.5,2-2.7
		c0.1-1.2-0.3-2.4-1.2-3.1c-0.4-0.4-0.8-0.8-1.1-1.2c-1.4-1.7-2.2-4-2.2-6.5c0-2.2,0.6-4.3,1.7-5.9c1.1-1.6,2.6-2.8,4.3-3.3
		c1-0.3,1.8-1,2.2-2c0.4-1,0.4-2.1-0.1-3c-0.9-1.7-1.4-3.5-1.4-5.3c0-5,3.4-9.2,7.7-9.5c1.1-0.1,2.1-0.6,2.7-1.5
		c0.6-0.9,0.8-2,0.4-3.1c-0.3-1-0.5-1.8-0.5-2.4c0-3.2,2.6-5.9,5.9-5.9c3.2,0,5.9,2.6,5.9,5.9c0,0.9-0.2,1.7-0.6,2.5
		c-0.5,1.2-0.4,2.6,0.4,3.6c0.8,1,2.1,1.5,3.4,1.3c0.3-0.1,0.8-0.1,1.3-0.1c4.5,0,8.2,4.2,8.2,9.5c0,2-0.5,3.8-1.5,5.4
		c-0.6,0.9-0.6,2.1-0.2,3.1c0.4,1,1.2,1.8,2.3,2.1c3.6,1,6.2,4.8,6.3,9.3C488.3,287.3,486.9,290.2,484.6,292z M466.2,365.2h-9.9
		v-38.3c2.2,1.3,4.7,2.1,7.3,2.1c0.9,0,1.7-0.1,2.6-0.2V365.2z M261.9,364v-40.5c0-1.9-1.6-3.5-3.5-3.5h-28.6
		c-1.9,0-3.5,1.6-3.5,3.5v39.3c-0.4,0.1-0.8,0.3-1.2,0.5l-0.9,0.6h-12.7v-50.9H280V364H261.9z M233.4,362.8V327h21.6v35.7H233.4z
		 M227.4,283.8l14.8-7.7c0.4-0.2,1.6-0.5,3.1-0.5c2.3,0,3.5,0.3,3.8,0.5l14.9,7.7l13.4,7l29.5,15.3H184.6l29.4-15.3L227.4,283.8z
		 M296.4,314.7v48.1H287v-48.1H296.4z M195.1,314.7h9.5v48.1h-9.5V314.7z M303.3,364v-50.9h7h0.8c1.8,0,4.2-0.2,6.2-1.1
		c1.4-0.6,2.6-1.6,3-3.2c0.4-1.5-0.1-3.6-2.5-4.9l-0.5-0.2l-7-3.6l-17.7-9.2l-13.4-7l-26.7-13.9c-2-1.1-4.9-1.3-7-1.3
		c-2.3,0-4.7,0.5-6.3,1.3l-26.8,13.9l-13.4,7l-16.7,8.7l-7,3.6l-1.4,0.8c-2.4,1.3-2.9,3.4-2.5,4.9c0.5,1.9,2.1,3,4,3.6
		c1.8,0.6,3.8,0.7,5.2,0.7h1.7h5.9V364h-5.9h-36.9V363v-70.5v-1.7v-5.3v-1.7v-29.5v-0.2h200.9v0.2v29.5v1.7v5.3v1.7V363v1.1h-35.9
		H303.3z M47.6,311.3c-0.2,0.1-0.3,0.2-0.4,0.2c-0.7,0.4-1.3,1.1-1.5,1.9c-0.4,1.1-0.9,2.1-1.5,3c-0.9,1.2-2.1,2.2-3.5,2.7
		c-0.8,0.3-1.7,0.5-2.7,0.5c-2.3,0-4.4-1.2-5.9-3.1c-0.8-1-1.4-2.2-1.7-3.5c0-0.1,0-0.2-0.1-0.2c-0.3-1.2-1.2-2.1-2.3-2.5
		c-0.4-0.1-0.7-0.2-1.1-0.2c-0.8,0-1.6,0.3-2.3,0.8c-0.1,0.1-0.2,0.2-0.3,0.2c-1.3,1-2.8,1.6-4.4,1.6c-4.5,0-8.2-4.3-8.2-9.6
		c0-3.8,2.1-7.4,5.1-8.8c1.1-0.5,1.8-1.5,2-2.7c0.2-1.2-0.3-2.3-1.2-3.1c-2.1-1.8-3.4-4.7-3.4-7.7c0-4.4,2.5-8.1,6.2-9.2
		c1-0.3,1.8-1.1,2.2-2c0.4-1,0.3-2.1-0.2-3c-0.8-1.5-1.3-3.3-1.3-5.2c0-5,3.4-9.2,7.7-9.5c1.1-0.1,2.2-0.7,2.8-1.7
		c0.6-1,0.7-2.2,0.2-3.2c-0.3-0.6-0.5-1.4-0.5-2.1c0-3.2,2.7-5.9,6-5.9c3.2,0,5.9,2.6,5.9,5.9c0,0.8-0.2,1.7-0.7,2.6
		c-0.6,1.3-0.4,2.8,0.5,3.8c0.9,1,2.3,1.4,3.7,1c0.2,0,0.6,0,0.9,0c4.5,0,8.1,4.2,8.1,9.5c0,2-0.5,3.9-1.4,5.4
		c-0.6,0.9-0.7,2.1-0.3,3.1c0.2,0.5,0.5,0.9,0.8,1.2c0.4,0.4,0.9,0.7,1.5,0.9c1.8,0.5,3.3,1.7,4.5,3.3c1.2,1.7,1.9,3.8,1.9,6
		c0,0.7-0.1,1.4-0.2,2.1c-0.1,0.6-0.3,1.1-0.5,1.7c-0.6,1.7-1.6,3.1-3,4.1c-0.2,0.2-0.4,0.4-0.6,0.6c-0.1,0.2-0.3,0.4-0.4,0.6
		c-0.2,0.5-0.4,1-0.4,1.5c0,0.8,0.3,1.6,0.8,2.3c0.1,0.1,0.2,0.3,0.4,0.4c2.1,1.9,3.4,4.8,3.4,7.7c0,3.4-1.5,6.4-3.8,8.1
		c-1.3,1-2.8,1.5-4.4,1.5c-1.1,0-2.3-0.3-3.5-0.9C49.6,310.9,48.6,310.9,47.6,311.3z M40.6,363h-9.9v-38.3c2.2,1.3,4.6,2,7.2,2
		c0.9,0,1.8-0.1,2.7-0.3V363z M245.3,191.1c3.4-0.1,6.2,0.5,7.4,1.1l55.5,28.8l13.7,7.1l37.1,19.2c-0.8,0.1-1.6,0.1-2.5,0.1h-5.6
		c-0.4-0.1-0.7-0.2-1.1-0.2H141.8c-0.4,0-0.8,0.1-1.1,0.2H135c-0.9,0-1.8,0-2.5-0.1l37.1-19.2l13.7-7.1l55.5-28.8
		C239.8,191.6,242.2,191.1,245.3,191.1L245.3,191.1z M434.1,290.7c0.1,0,0.2,0,0.3,0c0.4,0.8,0.8,1.6,1.3,2.3
		c-0.6,0.5-1.1,1.1-1.6,1.8V290.7z M362.9,228.9l70.3,51.1c-0.2,1.1-0.3,2.2-0.3,3.4c0,0.1,0,0.3,0,0.4c-1.2,0.1-2.5,0.1-3.8,0.1
		h-75.9v-29.5h3.2c3.6,0,12.1-0.5,13.3-5.4c0.2-0.8,0.6-3.7-3.1-5.6l-29.2-15.1C350.3,228.4,360.1,228.6,362.9,228.9z M119.7,228.9
		c3.6-0.2,17.3-0.5,34.5-0.7l-29.3,15.2c-3.7,1.9-3.3,4.7-3.1,5.6c1.2,4.9,9.7,5.4,13.3,5.4h3.2v29.5H69.5c0.1-0.7,0.1-1.4,0.1-2.1
		c0-3.9-1.2-7.5-3.4-10.4L119.7,228.9z M65.4,313.6c2.4-2.9,3.8-6.7,3.8-10.9c0-3.7-1.2-7.3-3.3-10.2c0,0,0,0,0,0h72.3V363H65.4
		V313.6z M427.2,363h-74v-70.5h74V363z"/>
</g>
</svg>
