<?xml version="1.0" encoding="utf-8"?>
<!-- Generator: Adobe Illustrator 27.2.0, SVG Export Plug-In . SVG Version: 6.00 Build 0)  -->
<svg version="1.1" id="Layer_1" xmlns="http://www.w3.org/2000/svg" xmlns:xlink="http://www.w3.org/1999/xlink" x="0px" y="0px"
	 viewBox="0 0 500 500" style="enable-background:new 0 0 500 500;" xml:space="preserve">
<style type="text/css">
	.st0{fill:#808080;}
</style>
<g>
	<path class="st0" d="M486.3,378.4L455,180c-0.5-13.5-20.2-24.6-58.7-33c-34.6-7.6-80.2-11.9-128.8-12.2c-1.8-0.4-3.5-0.6-5.4-0.6
		c-3-6.6-8.9-11.7-15.9-13.6c-1.3-0.4-2.7-0.6-4-0.8c0.3-2.2,0.4-4.5,0.2-6.8c-0.8-11.6-7.2-21.5-16.8-25.8
		c-7.7-3.5-20.4-4.9-38.7,6.7c-5.9-22.1-16.7-29.9-25-32.5c-10-3.1-21.3,0.1-29.6,8.2c-5,5-8,10.8-8.5,16.6
		c-8.8-2.3-16.7-1.8-23.2,0.6c-2.7-4.2-5.9-8.5-9.6-12.9c10.9-14.4,3.8-24,1.2-26.7c-5.7-6-15.1-7.5-20.5-3.2
		c-1.6,1.2-4.1,4-4.1,8.9c-1.6-0.2-3.4-0.1-5.3,0.4c-7.3,2.1-9.5,6.8-10.1,9.4c-1.3,5.1,0.9,11.1,5.7,15.7c3.9,3.7,8.6,5.7,13.2,5.7
		c1.5,0,3-0.2,4.4-0.6c2.9-0.8,5.8-1.6,9-3.6c3.2,3.8,5.9,7.5,8.3,11.1c-3.9,2.9-6.9,6.7-8.7,10.9c-1.9,4.4-2.5,9.6-1.5,14.8
		c-1.5-0.2-3-0.4-4.6-0.5C76.7,97.8,65,95.3,61.3,95c-8.1-0.7-16,4.3-17.3,11c-0.4,2-0.5,5.8,2.9,9.6c-1.4,0.9-2.6,2.1-3.6,3.8
		c-4.6,7.4-3.2,14.9,3.7,19.2c3,1.9,6.7,2.9,10.5,2.9c6,0,12.1-2.5,15.5-7.9c0,0,0,0,0,0c1.6-2.6,3.2-5.1,4.2-8.6
		c3.5,0.2,6.6,0.8,9.6,1.7c1.8,2.8,4.1,5.4,7.1,7.9c-5.9,2.3-10.4,4.9-14,7.7c-5.5-0.2-10.8,0.4-15.9,1.8
		c-20.2,5.6-36.6,23.2-49.9,53.7c-1,2.2,0,4.7,2.2,5.7c17.7,8.2,33.9,12.2,48.6,12.2c0,0,0.1,0,0.1,0L46.6,376.9
		c-0.1,0.9,0.1,1.8,0.5,2.6c12.9,23.3,31.1,28.4,40.8,29.4c1.1,0.1,2.2,0.2,3.3,0.2v43c0,2.4,2,4.4,4.4,4.4h28.7
		c2.4,0,4.4-2,4.4-4.4v-34.3c8.2,3.1,18.3,5.2,28.9,6.1v23.2c0,2.4,2,4.4,4.4,4.4h19.4c2.4,0,4.4-2,4.4-4.4v-23.7
		c10.2-1.3,19.7-3.9,27-7.9c9.4,10.6,24.3,16.4,42.6,16.4c0.1,0,0.2,0,0.2,0c18,0,37.3-5.8,47.1-13.7c8.2,7.6,27.3,10.2,44.3,9.2
		c1.2-0.1,2.4-0.2,3.6-0.3c-0.4,0.6-0.6,1.4-0.6,2.1v17.8c0,2.4,2,4.4,4.4,4.4h19.4c2.4,0,4.4-2,4.4-4.4v-23.9c0-1.2-0.5-2.3-1.2-3
		c4.3-2.4,7.6-5.3,9.7-8.6c3.6,1.5,8,2.2,10.5,2.5c1.5,0.2,3.7,0.4,6.3,0.4V454c0,2.4,2,4.4,4.4,4.4h28.8c2.4,0,4.4-2,4.4-4.4v-55.4
		c0-0.1,0-0.3,0-0.4c22.9,5.9,35-4.2,44.6-16.4C486.2,380.8,486.5,379.6,486.3,378.4z M73.2,75.1c-3.4,1-7-0.9-9.1-3
		c-2.4-2.3-3.7-5.3-3.2-7.3c0.3-1.4,1.7-2.4,4.1-3.1c0.3-0.1,0.7-0.2,1.1-0.2c1.6,0,3.7,1.1,7,5.9c1.3,2,4,2.5,6,1.2
		c2-1.3,2.6-4,1.3-6c-4.4-7-4.3-10.9-3.1-11.8c1.5-1.1,5.9-0.6,8.8,2.4c3.8,4,2.6,10.2-3.2,17.1C79.5,73.3,77.1,74,73.2,75.1
		C73.2,75.1,73.2,75.1,73.2,75.1z M65.4,129c-2.7,4.4-9.9,4.8-13.9,2.3c-1.8-1.1-3.5-3-0.9-7.1c0.8-1.2,2-1.8,4-1.8
		c1.5,0,3.3,0.3,5.7,0.9c2.3,0.6,4.7-0.8,5.3-3.1c0.6-2.3-0.7-4.7-2.9-5.4c-7.5-2.3-10.5-5.2-10.1-7c0.4-1.9,3.9-4.4,7.9-4
		c5,0.4,8.1,5.1,8.8,12.8c0.1,0.8,0.1,1.6,0.1,2.4c-0.2,2.1-0.7,3.7-1.2,5.1C67.5,125.6,66.6,127.1,65.4,129
		C65.5,128.9,65.5,128.9,65.4,129z M446.3,180.5c0,6.3-13.6,16.6-51.8,24.9c-35.3,7.7-82.3,12-132.4,12c-11.6,0-22.9-0.2-34-0.7
		c3.6-3.5,6.2-7.7,7.6-12.4c2.3,1.6,4.9,2.9,7.7,3.6c2.2,0.6,4.4,0.9,6.6,0.9c10.8,0,20.8-7.2,23.9-18.3c0.9-3.3,1.1-6.7,0.6-10
		c5.7-3.2,10-8.5,11.9-15c2.1-7.9,0.2-15.9-4.5-21.8C384.2,146,446.3,165.9,446.3,180.5z M23.8,197.3c11.7-25.2,26-40.3,42.4-44.9
		c1.8-0.5,3.7-0.9,5.6-1.1c-1.1,1.9-1.9,3.8-2.4,5.5c-1.2,4-1.4,8.1-0.8,12.3l-7.6-5c-2-1.3-4.7-0.8-6.1,1.3c-1.3,2-0.8,4.7,1.3,6.1
		l6.9,4.5c-4.7,2.4-9,5.1-13,8.1c-1.9,1.5-2.3,4.2-0.8,6.1c0.9,1.1,2.2,1.7,3.5,1.7c0.9,0,1.9-0.3,2.6-0.9c2.8-2.2,5.9-4.1,9.1-5.9
		l-2.6,7.5c-0.8,2.3,0.4,4.8,2.7,5.6c0.5,0.2,0.9,0.2,1.4,0.2c0.3,0,0.5,0,0.8-0.1c1.5-0.3,2.8-1.3,3.3-2.9l2-5.8l2.3-6.8
		c0.8,1,1.6,2.1,2.5,3c0.2,0.2,0.3,0.4,0.5,0.6c5,5.1,10.9,8,16.7,8.6c-0.5,1.7-0.8,3.4-1,5.1c-1.3,0.7-2.6,1.3-4,1.9
		c-4.6,2-9.5,3.4-14.5,4.2c-2.9,0.4-5.8,0.7-8.9,0.8C53.2,207.2,39.2,204,23.8,197.3z M93.4,144.1c3-1.4,6.3-2.6,10-3.7
		c1-0.3,1.9-0.5,3-0.8c0.9-0.2,1.8-0.4,2.7-0.6c0,0,0.1,0,0.1,0c1,0.1,2.1,0.2,3.1,0.4c1.9,0.3,3.9,0.6,5.9,1c0.2,0,0.3,0.1,0.5,0.1
		c0.9,0.2,1.8,0.4,2.7,0.6c-0.1,0.4-0.3,0.9-0.4,1.3c-0.1,0.2-0.1,0.5-0.2,0.7c-0.3,1.2-0.6,2.4-0.8,3.6c-0.1,0.6-0.2,1.3-0.3,1.9
		c-0.1,0.5-0.1,1-0.1,1.6c0,0.7-0.1,1.4-0.1,2.1c0,0,0,0,0,0.1c0,0.2,0,0.3,0,0.5c0,0.7,0,1.4,0.1,2c0,0-0.1,0-0.1,0
		c-0.6,0-1.1-0.1-1.7-0.1c-1.5,0-3,0-4.5,0.2c-0.7,0.1-1.5,0.2-2.2,0.3c-2.1,0.3-4.3,0.9-6.6,1.8c-2.7,1-5.6,2.4-8.6,4.4
		c-0.7,0.4-1.2,1-1.5,1.7c-0.4,0.7-0.5,1.5-0.5,2.4c0,0,0,0,0,0c0,0.3,0.1,0.6,0.2,1c0.1,0.4,0.3,0.7,0.5,1.1c0.8,1.3,2.2,2,3.7,2
		c0.3,0,0.5,0,0.8-0.1c0,0,0,0,0,0c0.5-0.1,1.1-0.3,1.6-0.6c6.5-4.1,11.6-5.3,16.4-5.2c1.4,0,2.8,0.1,4.2,0.3c0.3,1,0.6,2,1,2.9
		c0.4,1,0.8,2,1.3,2.9c0.2,0.5,0.5,1,0.8,1.5c0.5,1,1.1,1.9,1.7,2.8c0.4,0.6,0.9,1.3,1.3,1.9c-4.2,4.2-8.4,9.2-10.7,17.2
		c-0.7,2.5-1.2,5.4-1.5,8.6c0,0.5-0.1,0.9-0.1,1.4c-0.1,2.4,1.7,4.5,4.1,4.6c0.1,0,0.2,0,0.2,0c2.2,0,4-1.6,4.3-3.8
		c0-0.1,0-0.2,0.1-0.4c0.6-11,4.6-16.2,9.5-21.2c2.8,2.4,6,4.4,9.4,5.9c-1.5,5.8-3,12.3-4,18.9c-0.3,1.7-0.5,3.4-0.7,5.1
		c-0.1,1.2-0.2,2.4-0.3,3.6c0,0.4,0,0.8,0,1.2c-7.2,10.6-17,12.7-24.3,9.5c-6.5-2.8-11.7-9.7-11.8-19.8c0-0.4,0-0.9,0-1.3
		c0.1-1.8,0.3-3.7,0.7-5.7c0.1-0.6,0.3-1.3,0.4-1.9c0.4-1.6,0.9-3.4,1.6-5.1c0.1-0.4,0.3-0.7,0.4-1.1c0.6-1.5,0.3-3.3-0.8-4.5
		c-1.1-1.2-2.8-1.7-4.4-1.3c-1.1,0.3-2.3,0.4-3.6,0.4c-2.7-0.1-5.6-1.2-8.3-3c-1.2-0.8-2.4-1.8-3.6-3c-0.8-0.8-1.5-1.7-2.2-2.6
		c-0.5-0.7-1-1.5-1.5-2.3c-1-1.7-1.8-3.6-2.4-5.6c-0.3-1.1-0.5-2.3-0.6-3.5c-0.2-2.2,0-4.5,0.7-6.9c0.9-3,2.6-5.7,5.1-8.2
		c1.3-1.4,2.9-2.6,4.7-3.8C89.4,146.2,91.3,145.1,93.4,144.1z M92.2,105.3c1.1-2.6,2.8-4.9,5.2-6.9c2.1-1.7,4.7-3.1,7.8-4
		c5.8-1.7,13.2-1.4,22,2.1c1.5,0.6,3.3,0.3,4.5-0.8c1.2-1.1,1.7-2.8,1.3-4.4c-1.4-4.8,0.8-10.7,5.6-15.4c4.7-4.6,12.6-8.6,20.9-6.1
		c9.2,2.8,16.2,13.4,20,29.8c-3.6,4.9-6.9,10.6-9.9,16.7c-2.6-0.8-5.2-1.3-8-1.6c0.8-6.7,0.2-14.4-5.3-24.2c-1.2-2.1-3.9-2.8-6-1.6
		c-2.1,1.2-2.8,3.9-1.6,6c4.7,8.3,5,14.2,4.1,20.1c-5.1,0.7-9.9,2.5-14.2,5c-5.2-5.4-12-10.5-24.9-12c-0.8-0.1-1.6,0.1-2.3,0.4
		c-1.3,0.6-2.4,1.9-2.5,3.5c-0.3,2.4,1.5,4.6,3.9,4.8c0.4,0,0.9,0.1,1.3,0.2c8.7,1.2,13.5,4.4,17.6,8.4c-2.4,2.4-4.6,5-6.4,7.9
		c-2.8-0.7-5.5-1.3-8.2-1.8c-2.5-0.4-5-0.8-7.5-1c-0.1,0-0.2,0-0.3,0c-0.4,0-0.8,0-1.2,0.1c0,0,0,0-0.1,0c-1.2,0.2-2.3,0.5-3.5,0.8
		c-6.1-3.4-9.9-7.6-11.9-11.9C90.4,114.5,90.4,109.5,92.2,105.3z M222.1,95.2c7.9,3.6,11.2,11.9,11.7,18.5c0.2,2.5,0,4.8-0.6,6.9
		c-2,0.5-3.9,1.3-5.7,2.3c-5.2,2.9-9,7.6-11,13c-0.2,0.6-0.4,1.3-0.6,1.9c-0.6,2.2-0.9,4.5-0.9,6.9c0,0.2,0,0.3,0,0.5c0,0,0,0-0.1,0
		c-1.3-0.2-2.6-0.2-3.8-0.3c-1.9,0-3.6,0.1-5.2,0.3c-3.5,0.5-6.7,1.5-9.5,2.7c-0.1-0.6-0.2-1.3-0.3-1.9c-0.4-2.2-1-4.3-1.7-6.3
		c0.3-0.4,0.5-0.8,0.8-1.2c0.3-0.4,0.5-0.8,0.8-1.2c4.3-6.3,8.5-11.7,20-14.6c2.3-0.6,3.8-3,3.2-5.3c-0.6-2.3-3-3.8-5.3-3.2
		c-13.6,3.4-19.5,10.2-24.1,16.7c-1.7-2.4-3.7-4.6-5.9-6.6c-1.2-1.1-2.4-2-3.7-2.9c-0.8-0.6-1.7-1.1-2.5-1.6
		c1.7-3.4,3.4-6.6,5.3-9.6c1.1-1.8,2.2-3.5,3.4-5.1c0.7-0.5,1.4-1,2.1-1.5C201.5,94.3,213.5,91.3,222.1,95.2z M252.4,134.8
		c1.2,1.6,2.1,3.3,2.6,5.3c0.6,2.1,2.7,3.5,4.9,3.1c2.3-0.4,4.4-0.3,6.4,0.3c0.1,0,0.1,0,0.2,0c0,0,0.1,0,0.1,0
		c8.5,2.3,13.5,11.1,11.2,19.6c-1.4,5-5.1,9-10,10.8c-2.2,0.8-3.4,3.2-2.6,5.5c0.9,2.7,1,5.9,0.2,8.8c-2.4,8.6-11.3,13.6-19.8,11.2
		c-4-1.1-7.3-3.6-9.3-7c-1-1.7-1.7-3.5-2.1-5.5c0-0.1,0-0.1,0-0.2c-0.2-1.2-0.8-2.2-1.8-2.9c-0.7-0.5-1.6-0.8-2.5-0.8
		c-0.3,0-0.6,0-0.9,0.1c-0.1,0-0.2,0-0.3,0c-1.6,0.3-3.3,0.3-4.9,0.1c-0.7-0.1-1.3-0.2-2-0.4c-1.8-0.5-3.4-1.3-4.8-2.2
		c-2.5-1.7-4.4-4-5.6-6.6c-0.9-2-1.4-4.3-1.4-6.6c0-1.4,0.2-2.8,0.6-4.2c0-0.1,0.1-0.2,0.1-0.3c0.4-1.4,1-2.8,1.8-4
		c1.1-1.8,2.6-3.3,4.3-4.5c1.3-0.9,2.7-1.7,4.3-2.2c2-0.7,3.3-2.7,2.9-4.9c0,0,0,0,0,0c-0.2-1-0.2-2-0.2-2.9c0-1.4,0.2-2.8,0.6-4.1
		c0.5-1.7,1.2-3.3,2.2-4.8c0-0.1,0.1-0.1,0.1-0.2c1.3-1.9,3.1-3.6,5.2-4.8c0.5-0.3,1.1-0.6,1.6-0.8c1.9-0.8,4-1.3,6.1-1.3
		c1.5,0,3,0.2,4.4,0.6C247.3,129.9,250.3,132,252.4,134.8z M195.1,213c-1.1-1.2-2.9-1.7-4.5-1.2c-1.2,0.4-2.1,1.2-2.6,2.2
		c-0.2,0.4-0.3,0.8-0.4,1.2c-0.4,2.7-1.1,5.1-1.8,7.3c-4.7,13.9-15,19.2-23.6,18c-8-1.1-15.3-8-15.8-21c0-0.7,0-1.4,0-2.1
		c0-1.3,0.1-2.7,0.2-4.2c0.2-1.5,0.4-3,0.6-4.5c0.1-0.8,0.3-1.7,0.4-2.5c0.9-5.3,2.1-10.6,3.4-15.4c0.6,0.1,1.1,0.2,1.7,0.3
		c1.5,0.2,2.9,0.3,4.5,0.4c0.3,0,0.6,0,0.8,0c3.6,0,7.1-0.5,10.4-1.4c1.8,5.1,2.4,10.8-0.1,19c-0.3,1-0.2,1.9,0.1,2.8
		c0.5,1.2,1.5,2.2,2.8,2.7c0.4,0.1,0.8,0.2,1.3,0.2c1.4,0,2.8-0.7,3.6-1.9c0.2-0.4,0.4-0.8,0.6-1.2c3.2-10.8,2.1-18.4-0.2-24.8
		c2.9-1.6,5.6-3.6,8-5.9c5.2,2.9,9.7,6.8,13.2,15.6c0.7,1.7,2.3,2.7,4,2.7c0.5,0,1.1-0.1,1.6-0.3c2.2-0.9,3.3-3.5,2.4-5.7
		c-3.9-9.7-9.1-14.8-14.4-18.3c-0.4-0.3-0.8-0.5-1.2-0.8c0.8-1.2,1.5-2.4,2.1-3.6c0.7-1.3,1.3-2.6,1.8-4c0.5-1.4,1-2.9,1.3-4.3
		c2,0.6,4,1.2,5.9,1.9c-0.3,2-0.3,3.9-0.1,5.8c0.2,1.8,0.6,3.6,1.1,5.3c0.7,2.1,1.7,4.1,2.9,6c3.2,4.8,8,8.5,14,10.2
		c2.3,0.7,4.7,1,7.1,0.9c0.3,1,0.8,2,1.2,2.9c0.2,2.2,0.1,4.2-0.4,6.2c-2,8-8.9,12.7-15.1,14.5c-0.3,0.1-0.6,0.2-0.9,0.3
		c-5.2,1.4-10.2,0.8-13.8-1.3C196.7,214.3,195.8,213.7,195.1,213z M136.7,173.7c-0.2-0.2-0.4-0.4-0.5-0.6c-0.9-1-1.8-2.1-2.6-3.3
		c0,0,0,0,0-0.1c0,0-0.1-0.1-0.1-0.1c-0.9-1.3-1.7-2.7-2.4-4.2c-0.4-0.9-0.8-1.9-1.1-2.8c0-0.1-0.1-0.3-0.1-0.4
		c-0.1-0.3-0.2-0.7-0.3-1c0-0.1-0.1-0.3-0.1-0.4c-0.4-1.5-0.7-3-0.9-4.6c0-0.1,0-0.3,0-0.4c-0.1-0.9-0.1-1.9-0.1-2.9
		c0-1,0.1-2,0.2-3c0.6,0.3,1.3,0.5,2.1,0.5c0.4,0,0.8-0.1,1.2-0.2c1.7-0.5,2.9-1.9,3.1-3.7c0-0.2,0.1-0.3,0.1-0.5v-0.6
		c0,0,0-0.1,0-0.1c0-0.2,0-0.3,0-0.5c-0.3-2.1-2-3.7-4.1-3.8c0-0.1,0.1-0.1,0.1-0.2c0.2-0.5,0.5-1.1,0.8-1.6
		c0.7-1.4,1.5-2.6,2.4-3.9c1-1.4,2.2-2.7,3.4-4c0.7-0.7,1.5-1.4,2.2-2c0.4-0.3,0.7-0.6,1.1-0.8c1.2-0.9,2.5-1.7,3.8-2.3
		c2-1,4-1.8,6.2-2.4c1-0.2,2-0.4,3-0.6c0.5-0.1,1.1-0.1,1.7-0.2c0.9-0.1,1.7-0.1,2.6-0.1c0.6,0,1.3,0,1.9,0.1c2,0.1,3.9,0.4,5.8,0.9
		c1.4,0.4,2.8,0.9,4.1,1.4c1.3,0.6,2.6,1.2,3.8,2c0,0,0,0,0,0c1.3,0.8,2.5,1.7,3.7,2.7c1.3,1.1,2.4,2.3,3.5,3.5
		c1.2,1.4,2.2,2.9,3.1,4.4c0.1,0.1,0.1,0.2,0.2,0.3c0.8,1.4,1.4,2.9,2,4.5c0,0.1,0,0.1,0.1,0.2c0.4,1.1,0.7,2.3,1,3.5
		c0.1,0.4,0.2,0.8,0.2,1.2c0.2,1,0.3,2,0.3,3c0,0.2,0,0.5,0,0.7c0,0.4,0,0.8,0,1.2c0,0.9,0,1.7-0.1,2.5c0,0.4-0.1,0.7-0.1,1.1
		c0,0.2-0.1,0.5-0.1,0.7c-0.1,0.9-0.3,1.7-0.5,2.6c-0.1,0.6-0.3,1.2-0.5,1.7c-0.1,0.3-0.2,0.6-0.3,0.9c-0.5,1.4-1,2.7-1.7,4
		c-0.6,1.2-1.3,2.4-2.1,3.5c-0.1,0.1-0.1,0.2-0.2,0.2c-0.8,1.1-1.7,2.2-2.7,3.2c-0.4,0.4-0.8,0.8-1.2,1.2c-0.7,0.7-1.5,1.4-2.3,2
		c-1,0.7-2,1.4-3.1,2.1c-1.3,0.7-2.6,1.4-3.9,1.9c-0.6,0.2-1.2,0.5-1.8,0.7c-0.8,0.3-1.6,0.5-2.4,0.7c-1.7,0.4-3.5,0.7-5.3,0.8
		c-0.5,0-1.1,0-1.6,0c-1,0-1.9-0.1-2.9-0.1c-0.6-0.1-1.2-0.1-1.8-0.2c-0.9-0.1-1.7-0.3-2.5-0.5c-0.6-0.1-1.2-0.3-1.7-0.5
		c-1.4-0.4-2.8-1-4.1-1.6c-2-1-3.9-2.2-5.6-3.6C138.4,175.4,137.6,174.6,136.7,173.7z M204.1,155.7c-0.6-0.2-1.2-0.4-1.8-0.6
		c0.9-0.3,1.7-0.5,2.6-0.7C204.6,154.8,204.4,155.2,204.1,155.7z M120,447.8H100v-39.2c4.3-0.7,8-2,11-3.5c1.5,2.8,4.3,5.8,9,8.6
		V447.8z M177,442.8h-10.7v-18.4c3.6,0.1,7.1,0,10.7-0.2V442.8z M369.3,442.8h-10.7v-13.4c0-1.2-0.5-2.2-1.2-3
		c4.4-0.7,8.3-1.7,11.9-2.9V442.8z M432.1,449.7H412v-35.8c6.6-1.1,14-3.7,20.1-9.5V449.7z M439.6,388.8l-19.2-149.1
		c-0.3-2.4-2.5-4.1-4.9-3.8c-2.4,0.3-4.1,2.5-3.8,4.9l19.4,150.5c-3.8,7.2-10,11.8-18.7,13.7c-10.4,2.3-20.8-0.3-23.8-1.9
		l-10.4-74.9c-0.3-2.4-2.5-4.1-4.9-3.7c-2.4,0.3-4.1,2.5-3.7,4.9l10.5,75.5c-1.9,7.3-15.3,12.9-33.7,14c-21.2,1.3-36.7-3.8-38.9-8.1
		L304.2,275c-0.1-2.4-2-4.3-4.5-4.3c-2.4,0.1-4.3,2.1-4.3,4.5l3.3,134.8c-6.1,6.5-24.4,13.3-43.2,13.3c-0.1,0-0.1,0-0.2,0
		c-9.6,0-27-2.1-37.2-14.9l2.1-59.3c0.1-2.4-1.8-4.4-4.2-4.5c-0.1,0-0.1,0-0.2,0c-2.3,0-4.3,1.9-4.4,4.2l-2.1,58.6
		c-19.7,11.9-61.5,10.5-81.8,0.5c-0.7-0.7-1.6-1.3-2.6-1.4c-3-1.8-7.2-4.9-7-8.5l12.2-125.8c0.2-2.4-1.5-4.5-3.9-4.8
		c-2.4-0.2-4.5,1.5-4.8,3.9l-12.1,124.4c-3.2,2.6-11,5.5-20.6,4.5c-9.6-1-23-5.9-33.4-23.8l18.3-161.3c6.7-0.8,13.2-2.5,19.2-5.2
		c1.2,12,8,20.9,16.9,24.7c3.1,1.3,6.5,2,10,2c6.4,0,13.2-2.4,19.2-7.8c3.4,12.3,12.7,19.1,22,20.4c1.2,0.2,2.3,0.2,3.5,0.2
		c12.2,0,25-8.5,30.2-26.1c0.1,0,0.2,0,0.3,0c5.2,2.4,11.5,2.9,18,1.3c15.8,0.9,32.2,1.4,48.9,1.4c50.7,0,98.4-4.3,134.3-12.2
		c25.8-5.6,43.2-12.5,52-20.4l29.1,184.4C469.6,387.3,459.9,395.3,439.6,388.8z"/>
	<path class="st0" d="M372.4,297.2c-0.3-2.4-2.5-4.1-4.9-3.8c-2.4,0.3-4.1,2.5-3.8,4.9l1.2,9.8c0.3,2.2,2.2,3.8,4.3,3.8
		c0.2,0,0.4,0,0.5,0c2.4-0.3,4.1-2.5,3.8-4.9L372.4,297.2z"/>
	<path class="st0" d="M146.8,151.2c0.3,0.1,0.7,0.1,1,0.1c0,0,0.1,0,0.1,0c2.4,0,4.4-2,4.4-4.4v-0.6c0-0.3,0-0.6-0.1-0.9
		c-0.2-1.2-1-2.2-2-2.8c-0.4-0.2-0.8-0.4-1.2-0.5c-0.4-0.1-0.7-0.2-1.1-0.2c-1.3,0-2.4,0.5-3.2,1.4c-0.1,0.1-0.1,0.2-0.2,0.2
		c-0.2,0.3-0.4,0.6-0.6,0.9c-0.3,0.6-0.4,1.2-0.4,1.9v0.6c0,0.2,0,0.4,0.1,0.6c0,0.3,0.1,0.6,0.2,0.9
		C144.3,149.9,145.4,150.9,146.8,151.2z"/>
	<path class="st0" d="M137.8,156.7c-0.7,0-1.3,0.2-1.9,0.5c-1.5,0.7-2.5,2.2-2.5,3.9v0.3v0.3c0,0.1,0,0.2,0,0.3
		c0.1,1.9,1.5,3.5,3.3,4c0,0,0,0,0,0c0.3,0.1,0.7,0.1,1,0.1c0.9,0,1.8-0.3,2.5-0.8c1.1-0.8,1.9-2.1,1.9-3.6v-0.6
		C142.1,158.6,140.2,156.7,137.8,156.7z"/>
	<path class="st0" d="M151.9,161.1c0,2.4,2,4.4,4.4,4.4c2.4,0,4.4-2,4.4-4.4v-0.6c0-2.4-2-4.4-4.4-4.4c-2.4,0-4.4,2-4.4,4.4V161.1z"
		/>
	<path class="st0" d="M149.1,180.4c0.1,0,0.2,0,0.3,0c0.7,0,1.4-0.3,2-0.6c1.3-0.8,2.1-2.1,2.1-3.7v-0.6c0-0.6-0.1-1.2-0.4-1.7
		c-0.1-0.2-0.2-0.4-0.3-0.5c-0.8-1.3-2.1-2.1-3.7-2.1c-0.2,0-0.5,0-0.7,0.1c-2.1,0.3-3.6,2.1-3.6,4.3v0.6c0,0.8,0.3,1.6,0.7,2.3
		C146.2,179.6,147.5,180.4,149.1,180.4z"/>
	<path class="st0" d="M163.6,179.2c0.6,0.4,1.4,0.6,2.2,0.6c0.4,0,0.8-0.1,1.1-0.2c0.5-0.1,1-0.3,1.4-0.6c1.1-0.8,1.9-2.1,1.9-3.6
		v-0.6c0-0.7-0.2-1.3-0.5-1.9c-0.4-0.7-0.9-1.3-1.6-1.8c-0.7-0.4-1.5-0.7-2.3-0.7c-2.1,0-3.8,1.4-4.2,3.3c-0.1,0.3-0.1,0.7-0.1,1
		v0.6C161.5,177.1,162.3,178.5,163.6,179.2z"/>
	<path class="st0" d="M172.4,161.9c2.4,0,4.4-2,4.4-4.4v-0.2v-0.4c0-0.8-0.2-1.6-0.7-2.3c-0.6-0.9-1.4-1.6-2.4-1.9
		c-0.4-0.1-0.8-0.2-1.3-0.2c-2.4,0-4.4,2-4.4,4.4v0.6c0,1.1,0.4,2,1,2.8C169.9,161.3,171.1,161.9,172.4,161.9z"/>
	<path class="st0" d="M224.5,159.7c-0.9,3.2-0.9,6.5,0,9.6c0.4,1.5,1,3,1.8,4.4c1,1.8,2.4,3.4,3.9,4.8c0.5,0.4,1,0.8,1.6,1.2
		c1.5,1,3.1,1.8,4.9,2.4c0.3,0.1,0.5,0.2,0.8,0.3c1.6,0.5,3.3,0.7,4.9,0.7c1.5,0,3-0.2,4.4-0.5c6.3-1.5,11.7-6.4,13.5-13.1
		c1.5-5.5,0.4-11.2-2.7-15.6c-1.8-2.6-4.3-4.8-7.3-6.2c-0.9-0.4-1.9-0.8-2.9-1.1h0c-1.3-0.4-2.6-0.6-3.9-0.6
		C234.9,145.5,226.8,151,224.5,159.7z M251.8,167.1c-1.1,4-4.6,6.7-8.5,7.1c-1.2,0.1-2.4,0-3.6-0.3c-2.5-0.7-4.6-2.3-5.9-4.6
		c-1.3-2.2-1.6-4.9-0.9-7.4c1.2-4.4,5.2-7.3,9.5-7.3c0.9,0,1.7,0.1,2.6,0.3c1.8,0.5,3.3,1.5,4.5,2.8
		C251.8,160.2,252.8,163.7,251.8,167.1z"/>
</g>
</svg>
