<?xml version="1.0" encoding="utf-8"?>
<!-- Generator: Adobe Illustrator 27.2.0, SVG Export Plug-In . SVG Version: 6.00 Build 0)  -->
<svg version="1.1" id="Layer_1" xmlns="http://www.w3.org/2000/svg" xmlns:xlink="http://www.w3.org/1999/xlink" x="0px" y="0px"
	 viewBox="0 0 500 500" style="enable-background:new 0 0 500 500;" xml:space="preserve">
<style type="text/css">
	.st0{fill:#808080;}
</style>
<g>
	<path class="st0" d="M440.3,452.7c-7.8-14.4-18.4-25-34.4-34.4c-1.7-1-3.7-0.8-5.2,0.2c-0.8-10.9,1.9-21.8,4.8-33.4
		c6.7-27.2,14.3-58-22.2-95.9c10.7-64.1,5-101.1-18.5-119.1c0-0.2,0.1-0.5,0.1-0.7c0.7-6,1.5-12,1.9-17.9c0-0.1,0.1-0.2,0.1-0.3
		c4.8-33-0.2-61.7-14.8-85.3c-14.6-23.5-35.3-36.2-50.1-42.6c-22.7-9.9-45.8-11.7-55.3-4.6C202.1,12.8,172.3,30.2,155,46
		c-20.9,19.1-32.1,43.4-35.3,58.3c-1,4.7-1.3,8.5-0.7,11.4c-2.4,1.8-4.4,4-6.1,6.6c-4.2,6.1-5.8,13.4-4.5,20.6
		c-7,2.1-13.2,5.3-18.3,9.6c-14.9,12.5-21.8,33.5-21.2,64.4c0.1,2.6,2.2,4.7,4.8,4.7c0.5,0,0.9,0,1.4,0c14.8,0,27.6-2,38.5-6
		c-2.2,74,11.5,99,22.7,119.3c9.2,16.8,16.5,30.1,13.4,66.7c-13.2,10.1-26.1,18-38.2,25.3C85.5,442.6,65,455,59.3,479.7
		c-0.6,2.6,1,5.2,3.6,5.8c0.4,0.1,0.7,0.1,1.1,0.1c2.2,0,4.2-1.5,4.7-3.7c4.8-20.7,22.8-31.6,47.7-46.7c12.1-7.4,26-15.8,40.1-26.7
		c0.4-0.2,0.8-0.5,1.2-0.9c5.8-4.5,11.6-9.5,17.3-14.9c-1.8,8.8-3.6,17.7-5.1,26.7c-0.4,2.6,1.3,5.1,3.9,5.6c0.3,0,0.5,0.1,0.8,0.1
		c2.3,0,4.3-1.7,4.7-4c1.7-10.2,3.8-20.5,5.9-30.4c0.8-3.7,1.5-7.5,2.3-11.3c0.2-0.6,0.3-1.1,0.3-1.7c5.2-26,9.5-53,7.3-82.9
		c13.3,13.8,32.1,26,51.8,38.2c0.1,0,0.1,0.1,0.2,0.1c13.7,7.7,27.6,15.6,42.1,15.6c6,0,12.2-1.4,18.4-4.7
		c5.6,34.5,2.7,69.6-9.2,112.8c-0.7,2.6,0.8,5.2,3.4,5.9c0.4,0.1,0.9,0.2,1.3,0.2c2.1,0,4.1-1.4,4.6-3.5c3.5-12.7,6.2-24.8,8.2-36.3
		c4.6,13.2,12,24.2,22.2,32.8c20.7,17.6,47.9,21.4,67.6,21.4c13.2,0,23.1-1.7,25.5-2.2c0.1,0,0.1,0,0.2,0c0.1,0,0.3-0.1,0.4-0.1
		c0.1,0,0.2-0.1,0.3-0.1c0.1,0,0.2-0.1,0.3-0.2c0.1,0,0.2-0.1,0.3-0.1c0.1-0.1,0.2-0.1,0.3-0.2c0.1-0.1,0.2-0.1,0.2-0.2
		c0.1-0.1,0.2-0.2,0.3-0.3c0.1-0.1,0.1-0.1,0.2-0.2c0.1-0.1,0.2-0.2,0.3-0.3c0.1-0.1,0.1-0.2,0.2-0.2c0.1-0.1,0.1-0.2,0.2-0.3
		c0.1-0.1,0.1-0.2,0.2-0.3c0,0,0-0.1,0.1-0.1c0,0,0-0.1,0.1-0.1c0.1-0.2,0.2-0.4,0.2-0.6c0-0.1,0.1-0.2,0.1-0.2c0,0,0-0.1,0-0.1
		c0.1-0.2,0.1-0.5,0.1-0.7c0-0.1,0-0.1,0-0.2c0-0.2,0-0.5,0-0.7c0-0.1,0-0.2,0-0.3c0-0.2-0.1-0.4-0.1-0.6c0-0.1,0-0.1-0.1-0.2
		c-0.1-0.3-0.2-0.5-0.3-0.8c0,0-0.1-0.1-0.1-0.1c-0.1-0.2-0.2-0.4-0.4-0.6c-0.1-0.1-0.1-0.1-0.2-0.2c-0.1-0.2-0.3-0.3-0.5-0.4
		c-0.1-0.1-0.1-0.1-0.2-0.2c0,0,0,0-0.1-0.1c-19.1-13.9-27.8-26.5-31.1-38.9c13.9,8.4,22.8,17.4,29.6,30c0.9,1.6,2.5,2.5,4.2,2.5
		c0.8,0,1.6-0.2,2.3-0.6C440.6,458,441.5,455.1,440.3,452.7z M355.3,168.3c-0.1,0.5-0.1,0.9-0.2,1.4c-5.7-3.3-12.9-5.6-20.4-4.6
		c-9.4,1.2-17.7,7-24.7,17.3c-2.1-7.7-2.7-14.2-1.1-17.6c0.6-1.4,1.5-2,3-2.3c0.2,0,0.5-0.1,0.7-0.2c21-7,38.4-9.6,44.4-8.8
		C356.6,158.3,356,163.3,355.3,168.3z M333.4,180.2c0.5,0,0.9,0.4,0.9,1c0,0.6-0.4,1-0.9,1c-0.5,0-0.9-0.4-0.9-1
		C332.5,180.6,332.8,180.2,333.4,180.2z M322.9,181.8c0.1,1.8,0.6,3.4,1.5,4.8c-1.4-0.4-2.9-0.8-4.5-1.4
		C320.9,184,321.9,182.8,322.9,181.8z M341.8,174.8c3.9,0.7,7.6,2.5,10.5,4.5c-2.9,3.5-6.1,5.9-9.8,7.3c0.9-1.6,1.5-3.4,1.5-5.4
		C343.9,178.7,343.1,176.5,341.8,174.8z M298.1,32.2c17.3,7.6,52,28.5,59.5,76.4c-0.2-0.2-0.4-0.4-0.5-0.7
		C331.8,75,319.1,69.1,294,81.4c-10.8-23.3-21.4-43.7-36.8-56.8C265.2,23.2,280.8,24.6,298.1,32.2z M150.6,64.7
		c16.7-20.4,46.9-43.2,95.8-36.3c15,10.4,25.6,29,36,51.1c-16-4-31.1,0.2-45.2,12.7c-12.1,10.8-22.2,26.4-31.3,41.5
		c-1.9-5.8-5.6-11-11-14.7c-2.2-1.4-4.6-2.6-6.9-3.4c-0.8-8.4-5.3-16.1-12.4-20.8c-13-8.8-30.7-5.3-39.3,7.5
		c-1.6,2.3-2.9,4.9-3.7,7.8c-1.5,0.2-2.9,0.5-4.3,0.9C129,103,135.2,83.5,150.6,64.7z M120.9,127.7
		C120.9,127.7,120.9,127.7,120.9,127.7c3.4-5.2,9.3-8.3,15.7-8.3c2.4,0,4.4-1.7,4.8-4.1c0.5-2.9,1.5-5.5,3-7.6
		c3.6-5.3,9.5-8.2,15.5-8.2c3.6,0,7.3,1,10.5,3.2c5.5,3.6,8.5,9.8,8.2,16.3c-0.1,2.4,1.6,4.6,4,5c2.4,0.4,4.9,1.4,7.1,2.9
		c7.8,5.3,10.3,15.1,6.6,23.2c-0.4,1-0.9,1.9-1.5,2.8c-0.2,0.3-0.4,0.6-0.6,0.8c-3.4,4.5-8.6,7.2-14.4,7.4c-2.5,0.1-4.6,2.1-4.6,4.7
		c-0.1,3.4-1.2,6.8-3.2,10c-1.4,2.1-3.2,3.7-5.2,5c-4.1,2.6-9,3.6-13.7,2.8c-0.9-0.2-1.8-0.4-2.7-0.7c-1.5-0.5-3-1.2-4.4-2.1
		c0,0-0.1,0-0.1-0.1c-1.4-0.9-2.6-2-3.6-3.3c-3.5-4.1-5.2-9.7-4.3-15.2c0.1-0.4,0.1-0.8,0-1.2c-0.1-0.9-0.4-1.7-0.9-2.4
		c-0.8-1-1.9-1.7-3.2-1.9c-1.7-0.3-3.3-0.8-4.9-1.5c-1.1-0.5-2.2-1-3.1-1.7c-1.5-1-2.8-2.2-3.9-3.5c-1.2-1.4-2.1-2.9-2.8-4.5
		c-0.5-1.2-1-2.5-1.2-3.9c0-0.3-0.1-0.5-0.1-0.8C117.1,136.3,118.2,131.6,120.9,127.7z M96.2,159.9c4.2-3.6,9.4-6.2,15.3-7.9
		c0.2,0.3,0.3,0.6,0.5,0.9c-1.8,0.1-3.5,1.2-4.3,3c-1,2.5,0.2,5.3,2.7,6.3l5.7,2.3c-3,2.5-5.8,5.1-8.3,7.7L96,170.3
		c-2.6-0.4-5.1,1.4-5.5,4c-0.4,2.6,1.4,5.1,4,5.5l6,1c-2.6,3.5-4.9,7-6.9,10.7c-1.2,2.4-0.3,5.3,2,6.5c0.7,0.4,1.5,0.6,2.3,0.6
		c1.7,0,3.4-0.9,4.3-2.6c1.2-2.2,2.5-4.3,3.9-6.4l0.5,5.1c0.3,2.5,2.3,4.3,4.8,4.3c0.2,0,0.3,0,0.5,0c2.6-0.3,4.6-2.6,4.3-5.3
		l-1.5-14.6c2.5-2.6,5.2-5.1,8.1-7.5l2.2,9.6c0.5,2.2,2.5,3.7,4.7,3.7c0.4,0,0.7,0,1.1-0.1c1.3-0.3,2.4-1.1,3-2.2
		c1,1.3,2.1,2.5,3.3,3.6c-11.5,16.6-30.9,25.1-58.6,25.8C78.7,187.2,84.6,169.7,96.2,159.9z M178.5,375.2
		c-6.2,6.7-12.5,12.7-18.8,18.1c1.4-32.8-6.3-46.9-15.1-63c-11.3-20.7-24.2-44.1-21.3-119.1c9-4.9,16.3-11.5,22-19.8
		c3.5,1.4,7.2,2.2,10.9,2.2c2.2,0,4.4-0.3,6.5-0.8l0.3,6.6c-8.3-3.9-14.9-4.2-19.7-0.7c-9.5,6.9-6.6,24-4,33.6
		c4.3,15.8,15.9,39.8,30.3,41.2c2.7,0.3,6.1-0.2,9.5-2.9c1.3,3.3,3,6.6,4.9,9.7C189.1,315,184.6,344.8,178.5,375.2z M252,324.5
		c-32.4-19.9-61.8-39.9-66.2-65.2c-0.4-2.1-2-3.6-4.1-3.9c-2.1-0.3-4.1,0.8-5,2.7c-1.4,2.9-3.6,6.2-6.3,6
		c-6.1-0.6-16.8-15.3-21.9-34.1c-3.6-13.2-2.3-21.3,0.3-23.3c0.9-0.7,4.9-2.3,16.2,5.1v12.8c0,2.7,2.2,4.8,4.8,4.8s4.8-2.2,4.8-4.8
		v-10.8c0.1,0.1,0.1,0.2,0.2,0.3c8.3,12.3,14.2,21.2,28.6,28c0.7,0.3,1.4,0.5,2.1,0.5c1.8,0,3.5-1,4.4-2.8c1.1-2.4,0.1-5.3-2.3-6.4
		c-11.9-5.7-16.7-12.8-24.7-24.7c-3-4.4-6.3-9.4-10.6-15.1l-0.2-3.2c8.5-1.9,15.9-9.9,23.3-20.7c0.3,1,0.9,1.9,1.9,2.5
		c0.8,0.6,1.8,0.8,2.7,0.8c1.6,0,3.1-0.7,4-2.1c11.4-17,25.7-14.7,43.8-11.8c10.3,1.7,20.9,3.4,31.6,1.3c2.6-0.5,4.3-3,3.8-5.6
		c-0.5-2.6-3-4.3-5.6-3.8c-9.1,1.7-18.8,0.2-28.3-1.4c-15-2.4-31.6-5.1-45.4,6.8c0.2-0.4,0.4-0.9,0.7-1.3c1.5-2.5,2.9-5,4.4-7.5
		c20.2-34.4,43.1-73.3,80.5-55.1c0,0,0,0,0,0c0.3,0.1,0.6,0.3,0.9,0.3c0.1,0,0.1,0,0.2,0c0.3,0.1,0.6,0.1,0.9,0.1c0,0,0,0,0.1,0
		c0.1,0,0.2,0,0.3,0c0.3,0,0.5,0,0.8-0.1c0.1,0,0.3-0.1,0.4-0.1c0.2-0.1,0.3-0.1,0.5-0.2c0.1,0,0.1-0.1,0.2-0.1c0,0,0.1,0,0.1-0.1
		c22.3-12,30.1-11.4,55.4,21.6c0,0,0.1,0.1,0.1,0.1c0,0,0,0.1,0.1,0.1c6.6,7.7,8.3,18.2,8,29.9c-3.5-0.4-8.3-0.2-15.3,0.9
		c-9.5,1.5-21.3,4.5-32.4,8.2c-4.4,0.9-7.8,3.6-9.7,7.7c-6.2,13.6,5.6,40.2,12.8,52.3c6.9,11.9,5.2,16.1-3.4,22.5
		c-2.1,1.6-2.6,4.6-1,6.7c0.9,1.3,2.4,1.9,3.9,1.9c1,0,2-0.3,2.9-1c13.2-9.9,14.8-19.7,6-35.1c-2.9-4.8-5.3-9.9-7.3-14.8
		c6.1,2.3,13.1,4.3,20.1,4.3c7,0,14-1.9,20.5-7.2c16.4,39.1-8.5,88.1-35.3,131C295.9,349.2,277.5,338.8,252,324.5z M344.4,448.3
		c-16.8-14.2-25-36.1-24.3-65c0-0.2,0-0.5-0.1-0.7c0.3-15.3-0.9-30-3.6-44.7c3.4-2.8,6.9-6.2,10.4-10.4c0.1-0.2,0.3-0.4,0.4-0.5
		c28.4-45.5,54.7-97.7,35.8-141.1c0.1-1.3,0.2-2.6,0.4-3.9c16.4,17.4,19.6,52.2,9.9,108.1c-0.3,1.5,0.2,3.1,1.3,4.2
		c34.6,34.9,27.9,62.2,21.4,88.6c-5.1,20.6-10.3,41.7,4.5,64.4c-28.8-20.9-27.2-37.4-25.4-56c1.3-13.2,2.8-28.2-7.6-44.8
		c-1.4-2.3-4.4-2.9-6.6-1.5c-2.3,1.4-2.9,4.4-1.5,6.6c8.6,13.8,7.4,25.9,6.1,38.7c-2.3,23.1-4.7,47,48.7,76.9
		C393.4,468.4,364.4,465.2,344.4,448.3z"/>
	<path class="st0" d="M275,186.5c-9.4-10.3-19.9-15.7-31-16c-11.3-0.3-22.9,4.9-32.7,14.7c-1.6,1.6-1.9,4.1-0.6,6.1
		c3.9,6,14.7,12.9,27.7,14.5c1.7,0.2,3.5,0.3,5.4,0.3c8.9,0,20.2-2.7,31.1-12.9C276.6,191.5,276.7,188.4,275,186.5z M242.9,190.4
		c-0.6,0-1-0.4-1-1c0-0.6,0.4-1,1-1s1,0.4,1,1C243.8,190,243.4,190.4,242.9,190.4z M221.4,189c4.8-4,9.9-6.7,15-7.9
		c-2.6,1.9-4.2,5-4.2,8.5c0,2.1,0.6,4,1.6,5.6C228.6,193.7,224.2,191.2,221.4,189z M251.6,195.5c1.2-1.7,1.9-3.8,1.9-6
		c0-3.5-1.8-6.7-4.4-8.6c5.2,1.2,10.3,4.1,15.2,8.6C259.9,192.6,255.6,194.5,251.6,195.5z"/>
	<path class="st0" d="M272.4,229.8c-0.7,2.4-0.2,4.8,1.3,6.9c3.6,5.1,13.1,7.5,18.2,7.9c0.1,0,0.2,0,0.3,0c2.5,0,4.6-1.9,4.8-4.5
		c0.2-2.7-1.8-5-4.5-5.1c-4.4-0.3-9.3-2.3-10.7-3.5c0.2-2.3-1.2-4.4-3.5-5C275.8,225.7,273.1,227.2,272.4,229.8z"/>
	<path class="st0" d="M311.2,288.8c5.5-1.8,10.7-4.4,15.5-7.7c2.1-1.5,2.7-4.4,1.3-6.6c-4.9-7.4-12.5-10.4-21.4-8.4
		c-1.4,0.3-6.1,1.9-10.1,4.1c-0.6-0.4-1.3-0.9-2.1-1.3c-8.1-4.1-25.4-5.1-36.9,5.8c-1.1,1.1-1.7,2.6-1.5,4.1
		c0.2,1.5,1.1,2.9,2.5,3.6c7.3,3.9,19.8,9.2,34.5,9.2C298.8,291.6,304.9,290.8,311.2,288.8z M270.7,277.5c8.1-3.2,17.1-1.5,19.7,0.2
		c0.3,1.4,1.1,2.6,2.4,3.3c1.7,1,3.9,0.8,5.4-0.4l0,0c2.3-1.8,9.4-6.2,15.2-5.3c1,0.2,2,0.5,2.8,1c-2.6,1.4-5.3,2.5-8,3.4
		C293.7,284.3,279.8,281,270.7,277.5z"/>
	<path class="st0" d="M136.1,149.9c0.1,0.3,0.2,0.6,0.4,0.8c1.5,2.9,3.6,5.4,6.3,7.5c0.2,0.2,0.4,0.3,0.7,0.5c1.3,0.8,2.6,1.5,4,2.1
		c1.5,0.6,3.1,1,4.7,1.3c1.1,0.2,2.1,0.2,3.2,0.2c0.6,0,1.1-0.1,1.7-0.1c6.2-0.5,12.2-3.7,15.8-9.2c3.2-4.7,4.4-10.3,3.3-15.9
		c-1.1-5.5-4.2-10.3-8.9-13.4c-9.7-6.5-22.9-4-29.4,5.6c-2.3,3.3-3.5,7.1-3.6,10.9c-0.1,1.6,0,3.2,0.3,4.8
		C134.8,146.7,135.3,148.3,136.1,149.9z M155.2,129.6c2.2,0,4.5,0.7,6.6,2.1c0,0,0,0,0,0c2.5,1.7,4.2,4.2,4.8,7.2
		c0.6,3-0.1,6.1-1.9,8.7c-1.5,2.3-3.8,3.9-6.3,4.6c-1.4,0.4-2.8,0.5-4.2,0.4c-0.2,0-0.4-0.1-0.7-0.1c-1.7-0.2-3.3-0.8-4.8-1.8
		c-1.7-1.2-3-2.7-3.8-4.4c-0.1-0.1-0.1-0.3-0.2-0.4c-0.7-1.6-1.1-3.3-1-5c0-2.2,0.7-4.3,2-6.3C148,131.4,151.6,129.6,155.2,129.6z"
		/>
	<path class="st0" d="M341.2,394.9c0.1-2.7-2-4.9-4.7-5c-2.7-0.1-4.9,2-5,4.7c-0.4,13.1,1.4,30.2,18.5,47.2c0.9,0.9,2.2,1.4,3.4,1.4
		c1.2,0,2.5-0.5,3.4-1.4c1.9-1.9,1.9-4.9,0-6.8C342.5,420.7,340.9,406.7,341.2,394.9z"/>
	<path class="st0" d="M318.7,297.7c0.5-2.6-1.2-5.1-3.8-5.7c-2.2-0.4-4.4,0.7-5.3,2.7c-2.8,1.8-15.1,3.8-25.3,2.3
		c-5.2-0.7-7.1-2.1-7.4-2.5c-1.2-2.4-4.1-3.3-6.5-2c-2.4,1.2-3.3,4.1-2,6.5c3.5,6.7,14.6,8.2,23.2,8.2c5.9,0,10.7-0.7,11.2-0.7
		C312.7,305,317.8,302.2,318.7,297.7z"/>
</g>
</svg>
