<?xml version="1.0" encoding="utf-8"?>
<!-- Generator: Adobe Illustrator 27.2.0, SVG Export Plug-In . SVG Version: 6.00 Build 0)  -->
<svg version="1.1" id="Layer_1" xmlns="http://www.w3.org/2000/svg" xmlns:xlink="http://www.w3.org/1999/xlink" x="0px" y="0px"
	 viewBox="0 0 500 500" style="enable-background:new 0 0 500 500;" xml:space="preserve">
<style type="text/css">
	.st0{fill:#808080;}
</style>
<g>
	<path class="st0" d="M492.4,288.7c0-0.1,0-0.2,0-0.3c0,0,0,0,0,0c0-0.2-0.1-0.4-0.2-0.5c0-0.1-0.1-0.2-0.1-0.3
		c-0.1-0.1-0.1-0.2-0.2-0.4c-0.1-0.1-0.1-0.3-0.2-0.4c-0.1-0.1-0.1-0.1-0.2-0.2c-0.1-0.1-0.3-0.3-0.4-0.4c0,0,0,0,0,0L330.2,147.8
		c0.4-1.6,0.9-3.4,1.3-5.7c1.2-5.9,2.2-15,0.6-24.4c-2.3-14-11-31.9-39.2-37.4c-0.6-0.1-1.3-0.1-1.9,0l-236,55.5
		c-0.1,0-0.3,0.1-0.4,0.1c-4.8,1.1-9.1,4-12.5,8.5c-6.3,8.4-8.8,21.6-6.6,35.1c0,0,0,0,0,0c2.8,17.4,12.3,31,23.5,35.4c0,0,0,0,0,0
		c0.1,0.2,0.2,0.3,0.3,0.5c0.1,0.1,0.1,0.2,0.2,0.2c0.1,0.1,0.2,0.3,0.4,0.4c0,0,0.1,0.1,0.1,0.1l35,31c-3.5,1.5-6.2,3.5-8.2,5.6
		c-3.6,3.6-6,8.3-7,13.4c-8.4-6.1-18.7-11.6-32.3-16.1c1.7-18.3-9.6-22.8-13.2-23.7c-8.1-2.1-17,1.6-19.4,8.1
		c-0.7,1.9-1.4,5.6,1.2,9.8c-1.5,0.7-3,1.7-4.4,3.2c-5.2,5.7-4.5,11-3.7,13.6c1.7,5.1,6.8,9.2,13.3,10.6c1.6,0.3,3.1,0.5,4.7,0.5
		c5.2,0,10-1.9,13.2-5.5c0,0,0,0,0,0l0.4-0.4c2-2.2,3.8-4.3,5.4-7.5c15.2,5,25.9,11.4,34.5,18.6c0.2,1.6,0.6,3.1,1,4.7
		c0.6,2.1,1.4,4,2.4,5.7c-7.8-0.2-15.8,1.4-24.2,5.9c-11-15.1-22.4-11.1-25.7-9.4c-7.3,3.7-11.4,12.2-9,18.7c0.7,2,2.7,5.3,7.6,6.8
		c-0.7,1.5-1.1,3.3-1.1,5.3c0,5.7,2.2,9.1,4,10.9c2.4,2.4,5.7,3.6,9.5,3.6c9.3,0,19.6-7.8,19.6-18.3c0-3.1,0-6.1-1-9.6
		c9.2-5,17.9-5.8,26.8-4.3c-8.3,10.4-10,21.5-7.2,30.5c-6,2.5-11.3,5.9-15.9,10.1c-16.7,15.4-23.3,40.9-20.3,77.9
		c0.2,2.3,2.1,4,4.3,4c0,0,0.1,0,0.1,0c42.7-1,71-16,84.6-44.7c0.4,0,0.9,0.1,1.4,0.1c7.6,0,16.1-3.3,23.7-11.5
		c3.3,4.2,8.5,7.4,14.5,8.8c10.2,2.4,20.4-0.6,26.8-7.8c2.8-3.2,5.5-7.8,6.6-14.4c1.6,0.5,3.1,0.9,4.6,1.1l8.2,7.3
		c0.8,0.7,1.9,1.1,2.9,1.1c0.4,0,0.7,0,1.1-0.1l264.1-66c0.1,0,0.3-0.1,0.4-0.1c0.1,0,0.3-0.1,0.4-0.1c0.2-0.1,0.4-0.2,0.6-0.4
		c0.1,0,0.1-0.1,0.2-0.1c0.2-0.2,0.5-0.4,0.7-0.6c0,0,0,0,0,0c0.1-0.1,0.1-0.2,0.2-0.3c0.1-0.1,0.2-0.3,0.3-0.4
		c0.1-0.1,0.1-0.3,0.2-0.4c0.1-0.1,0.1-0.3,0.2-0.4c0-0.1,0.1-0.3,0.1-0.4c0-0.1,0.1-0.3,0.1-0.4c0-0.1,0-0.3,0-0.4
		c0-0.1,0-0.3,0-0.4C492.5,289,492.4,288.8,492.4,288.7z M32.7,260.7c-2.4,2.7-6.5,2.9-9.4,2.3c-3.3-0.7-6.1-2.6-6.7-4.6
		c-0.5-1.4,0.2-3,1.8-4.9c0.8-0.9,1.8-1.3,3.2-1.3c1.7,0,3.9,0.7,6.9,2c2.2,1,4.8,0,5.8-2.2c1-2.2,0.1-4.8-2.1-5.9
		c-7.6-3.7-9.5-7.1-9-8.5c0.7-1.8,4.7-3.7,8.8-2.6c5.4,1.4,7.7,7.4,6.4,16.4c-1.3,4.2-2.9,6.1-5.4,8.9L32.7,260.7z M39.5,314.9
		c0-2.5,2.3-4.3,7.9-6.1c2.3-0.7,3.6-3.2,2.9-5.5c-0.6-1.9-2.3-3.2-4.3-3.2c-0.4,0-0.8,0-1.1,0.1c-7.7,2-11.9,1.1-12.5-0.6
		c-0.7-1.8,1-5.8,4.7-7.6c4.5-2.3,9.7,0.1,14.4,6.4c0.5,0.6,0.9,1.3,1.4,2c0.9,1.9,1.4,3.5,1.7,5c0.3,1.8,0.3,3.5,0.3,5.6
		c0,5.2-5.9,9.4-10.7,9.4c-1,0-2.4-0.2-3.3-1.1C39.7,318.4,39.5,316.4,39.5,314.9z M292.1,89.2c13.6,2.9,23,9.3,27.9,19.2
		c6.4,12.9,3.8,29,1.7,36.8L86.6,202.7c4.1-8.2,5.4-19.1,3.6-30.3c-2.3-13.9-8.8-25.4-17-31.7L292.1,89.2z M44.4,178.2
		c-1.8-11.1,0.1-22,4.9-28.4c1.6-2.2,4.4-4.9,8.4-5.4c10.1-1.3,21,12.2,23.8,29.4c1.8,11.1-0.1,22-4.9,28.4c-1,1.3-2.4,2.9-4.3,4
		l-6.1,1.5C56.6,207.1,47,194.3,44.4,178.2z M176.8,363.7c-5.8-1.4-10.2-4.9-11.4-9.4c-0.5-1.7-1.9-2.9-3.6-3.2
		c-1.7-0.3-3.4,0.4-4.5,1.8c-5.9,8.3-12.5,12.1-18.4,12.9c-1.6,0.2-3.2,0.2-4.7,0c-1.5-0.2-2.9-0.6-4.2-1.1
		c-0.8-0.4-1.6-0.8-2.3-1.3c-5.1-3.5-8.3-10.6-6.1-19.6c0.4-1.5,0.9-3,1.6-4.6c0.7-1.7,1.7-3.4,2.8-5.2c0.7-1,1.3-2,2-3
		c0.5-0.7,1-1.4,1.5-2.1c0.5-0.6,0.9-1.3,1.4-1.9c0.1-0.2,0.2-0.3,0.4-0.5c0.9-1.2,1.8-2.4,2.8-3.5c1.5-1.9,3-3.6,4.4-5.3
		c0.3,0.2,0.6,0.4,0.9,0.6c1.2,0.9,2.5,1.7,3.9,2.4c0.1,0,0.1,0.1,0.2,0.1c2.8,1.5,5.7,2.6,8.7,3.3c-0.7,4.9-2.5,9.7-7.7,15.3
		c-0.1,0.1-0.2,0.3-0.3,0.4c-1,1.3-1.1,3.1-0.5,4.5c0.2,0.5,0.6,1,1,1.4c0.9,0.8,2,1.2,3.1,1.2c1.2,0,2.4-0.5,3.3-1.4
		c7-7.5,9.3-14.4,10.1-20.6c2.7-0.1,5.4-0.5,8.1-1.3c2.8,4.5,4.7,9.7,3.9,18.3c-0.2,2.5,1.6,4.7,4.1,4.9c0.1,0,0.3,0,0.4,0
		c2.3,0,4.3-1.8,4.5-4.1c0.6-7.3-0.3-12.9-2.1-17.4c-0.6-1.7-1.4-3.2-2.1-4.6c-0.1-0.2-0.2-0.5-0.4-0.7c1-0.6,1.9-1.2,2.8-1.9
		c1.2-0.9,2.4-1.9,3.5-2.9c0.2-0.2,0.4-0.4,0.6-0.6c0.6-0.6,1.1-1.2,1.7-1.8c3.6,3.6,6.9,7.2,9.6,10.9c0.1,0.4,0.3,0.8,0.4,1.2
		c0.9,2.8,1.7,5.5,2.3,8.1c0.5,2.3,0.9,4.6,1.1,6.7c0,0.2,0,0.4,0,0.6c0.2,2,0.2,3.9,0.1,5.7c-0.4,5.3-1.9,9.6-4.7,12.7
		C189.8,364.4,182.2,365,176.8,363.7z M54.6,410.9c-1.9-31.6,4.1-54,17.8-66.7c3.9-3.6,8.6-6.5,13.9-8.7c0.3,0.5,0.7,0.9,1.1,1.4
		c0.6,0.7,1.2,1.3,1.9,2c-0.7,0.5-1.3,1.2-1.6,2.1c-0.8,2.3,0.3,4.8,2.6,5.6l9.4,3.4c-4.1,3.7-7.9,7.6-11.3,11.6l-14.9-1.9
		c-2.4-0.3-4.6,1.4-4.9,3.8c-0.3,2.4,1.4,4.6,3.8,4.9l9.9,1.3c-3.4,4.9-6.4,10-8.7,15.3c-1,2.2,0,4.8,2.2,5.8
		c0.6,0.3,1.2,0.4,1.8,0.4c1.7,0,3.3-1,4-2.6c1.7-3.8,3.7-7.5,6.1-11.1l1.6,9.8c0.4,2.1,2.2,3.6,4.3,3.6c0.2,0,0.5,0,0.7-0.1
		c2.4-0.4,4-2.6,3.6-5l-3-18.2c3.3-3.9,7-7.7,11.1-11.3l4,13.7c0.6,1.9,2.3,3.1,4.2,3.1c0.4,0,0.8-0.1,1.2-0.2
		c2.3-0.7,3.6-3.1,3-5.4l-0.2-0.7c1.4,1.6,3,3.1,4.8,4.2c1.2,0.8,2.4,1.5,3.8,2.1C114.3,396.7,90.5,409.2,54.6,410.9z M99.5,299.7
		c0.2-0.2,0.4-0.4,0.6-0.6c0.3-0.3,0.7-0.7,1-1c1.3-1.1,1.8-2.9,1.3-4.5c-0.4-1.6-1.8-2.9-3.4-3.2c-0.5-0.1-1-0.3-1.5-0.4
		c-3.6-1.4-6.7-5.3-8.3-10.5c-0.6-1.8-0.9-4-1-6.3c-0.1-4.8,1.1-10,5-13.9c2.4-2.5,5.7-4.1,9.6-5c3.8-0.8,8.2-0.9,13.1-0.2
		c1.5,0.2,3,0.5,4.6,0.8c1.7,0.4,3.4,0.8,5.2,1.3c1.4,0.9,2.9,2,4.3,3.1c1.4,1.1,2.9,2.3,4.3,3.6c-0.2,0.2-0.3,0.4-0.5,0.6
		c-1,1.1-2,2.3-2.8,3.6c-0.1,0.1-0.1,0.2-0.2,0.2c-1,1.4-1.9,2.9-2.7,4.5c-0.2,0.4-0.4,0.8-0.6,1.2c-2.2-1.3-4.6-2.5-7.4-3.3
		c-3.9-1.2-8.5-1.7-14.2-1.1c-2.5,0.2-4.3,2.4-4.1,4.9c0.2,2.5,2.4,4.3,4.9,4.1c8.5-0.8,13.5,1.3,18,4.4c-0.7,4.1-0.7,8.3-0.1,12.3
		c-3,1-6.1,2.3-9.1,4.3c-0.9,0.6-1.9,1.3-2.8,2.1c-1,0.8-2,1.7-2.9,2.8c-1,1.1-2.1,2.3-3.1,3.7c-1,1.4-2,3-3,4.7
		c-1.2,2.2-0.5,4.9,1.7,6.1c0.7,0.4,1.5,0.6,2.2,0.6c1.6,0,3.1-0.8,3.9-2.3c4.8-8.5,9.9-11.3,15.6-13.3c1.3,3,2.9,5.9,4.9,8.4
		c-2.8,3.3-5.8,6.9-8.7,10.7c-1,1.4-2.1,2.8-3,4.2c-0.7,1-1.4,2-2,3c-0.3,0.4-0.5,0.9-0.8,1.3c-0.5,0.9-1,1.7-1.4,2.5
		c-8.8,5-16.1,3.3-20.5-0.5c-0.6-0.5-1.1-1-1.5-1.5c-0.6-0.7-1.1-1.4-1.6-2.2c-0.7-1.2-1.3-2.6-1.7-4
		C88.8,317.7,90.9,308.3,99.5,299.7z M127.3,220.1c5.9-4.7,16-5.2,25.8,3.4c1.5,1.3,3.1,2.9,4.6,4.7c1.1,1.3,2.9,1.9,4.6,1.5
		c1.7-0.4,3-1.8,3.3-3.5c0.5-2.5,1.9-4.8,4.1-6.6c1.8-1.6,4.1-2.8,6.7-3.7c3.1-1,6.9-1.4,10.6-0.5c2.7,0.6,5.4,1.9,7.6,4
		c0.8,0.8,1.6,1.7,2.3,2.7c3.4,5.1,4.6,12.7,3.3,22.2c-0.4,2.7-0.9,5.6-1.6,8.5c-1.1,0.6-2.2,1.1-3.2,1.8c-3.7,2.2-7.4,4.7-11,7.5
		c-1.4-1.4-3-2.7-4.7-3.9c-0.1-0.1-0.3-0.2-0.4-0.3c1.7-2.7,3.2-5.7,4.3-9.5c1-3.6,1.5-7.8,1.3-13c-0.1-2.5-2.2-4.4-4.7-4.3
		c-2.5,0.1-4.4,2.2-4.3,4.7c0.3,8.6-1.7,13.6-4.7,18.1c-4.1-1.4-8.5-2-12.8-1.8c-2-6.7-5.4-13.9-15.2-20.5c-2.1-1.4-4.9-0.9-6.3,1.2
		c-1.4,2.1-0.9,4.9,1.2,6.3c7,4.7,9.6,9.5,11.3,14.7c-2.7,0.9-5.3,2.1-7.7,3.6c-3.7-3.4-7.5-6.4-11.4-8.9c-0.4-0.2-0.8-0.4-1.2-0.5
		c-1-0.3-2-0.5-2.9-0.8C118.7,235.1,121.3,224.9,127.3,220.1z M238.2,280.4c-0.2,2.8-0.9,5.5-1.8,7.7c-2.4,5.6-6.4,9.3-10.6,9.8
		c-1.7,0.2-3.1,1.3-3.8,2.9c-0.6,1.6-0.3,3.4,0.8,4.6c11.8,13.1,10.8,26.7,3.7,33.4c-2.5,2.4-6,4-10.3,4c-2.4,0-4.9-0.6-7.6-1.8
		c-0.1-1.7-0.3-3.5-0.6-5.4c-0.7-4.5-2-9.6-4-15.3c-0.1-0.4-0.3-0.7-0.5-1.1c-2.2-3.2-4.8-6.2-7.6-9.2c4.2,0.9,8.3,2.9,13.1,7.8
		c0.9,0.9,2.1,1.4,3.2,1.4c1.1,0,2.3-0.4,3.2-1.3c1.8-1.7,1.8-4.6,0.1-6.4c-8.1-8.3-15.5-10.3-22.1-11c0.8-2.4,1.3-4.8,1.6-7.3
		c0.3-0.2,0.7-0.4,1-0.6c3.8-2.1,7.2-4.1,11.7-4.8c0.4-0.1,0.8-0.1,1.3-0.2c2.8-0.3,6-0.1,9.8,0.9c2.4,0.6,4.9-0.9,5.5-3.3
		c0.1-0.4,0.1-0.9,0.1-1.3c-0.1-1.9-1.4-3.7-3.4-4.2c-4.8-1.2-8.8-1.4-12.4-1.1c-5.5,0.5-9.8,2.3-13.7,4.4c-0.4-2.5-1-4.9-1.8-7.3
		c-0.6-1.6-1.2-3.1-2-4.5c-0.3-0.7-0.7-1.3-1.1-2c2.3-1.7,4.5-3.3,6.7-4.8c2-1.3,4-2.5,5.9-3.5c0.8-0.1,1.6-0.3,2.4-0.4
		c14.1-2,24.4,0.4,29.6,6.9c1,1.3,1.8,2.7,2.4,4.2C238,274.4,238.4,277.5,238.2,280.4z M179.6,306.6c-0.3,0.4-0.6,0.8-1,1.2
		c-0.1,0.1-0.3,0.2-0.4,0.4c-0.2,0.2-0.3,0.3-0.5,0.5c-0.8,0.8-1.6,1.5-2.5,2.2c-0.9,0.6-1.7,1.2-2.6,1.8c-0.4,0.2-0.8,0.4-1.2,0.6
		c-0.4,0.2-0.8,0.4-1.2,0.6c-0.6,0.3-1.2,0.5-1.8,0.7c-0.3,0.1-0.6,0.2-0.8,0.3c-0.2,0.1-0.3,0.1-0.5,0.1c-1.1,0.3-2.2,0.6-3.3,0.7
		c-0.7,0.1-1.3,0.2-2,0.2c-1.5,0.1-3,0.1-4.5,0c-0.6-0.1-1.1-0.1-1.7-0.2c-0.9-0.2-1.9-0.4-2.8-0.6c-1.1-0.3-2.2-0.7-3.3-1.2
		c-0.6-0.3-1.2-0.5-1.7-0.8c-0.8-0.4-1.6-0.9-2.3-1.4c-0.3-0.2-0.6-0.4-0.9-0.6c-0.9-0.7-1.8-1.4-2.6-2.2c-0.3-0.2-0.5-0.5-0.8-0.7
		c0,0-0.1-0.1-0.1-0.1c0,0,0.1,0,0.1,0.1c0.4,0.2,0.7,0.3,1.1,0.3c0.2,0,0.5,0.1,0.7,0.1c1.7,0,3.3-0.9,4-2.5l0.2-0.5
		c0.4-0.7,0.5-1.5,0.4-2.3c0-0.1,0-0.2,0-0.3c-0.2-1.4-1.1-2.7-2.5-3.4c-0.2-0.1-0.3-0.1-0.5-0.2c-2.1-0.8-4.5,0.1-5.6,2.2l-0.2,0.5
		c-0.4,0.8-0.5,1.6-0.4,2.3c0,0.3,0.1,0.5,0.1,0.8c-0.1-0.2-0.3-0.4-0.4-0.5c-1-1.4-1.8-2.9-2.5-4.5c-0.5-1.2-1-2.4-1.3-3.7
		c-0.1-0.2-0.1-0.4-0.2-0.6c-0.4-1.5-0.7-3-0.8-4.6c-0.1-1-0.1-1.9-0.1-2.9c0-1.3,0.1-2.6,0.3-3.9c0.1-0.4,0.1-0.9,0.2-1.3
		c0.1-0.4,0.2-0.7,0.2-1.1c0.3-1.2,0.6-2.4,1.1-3.6c0.3-0.9,0.7-1.7,1.1-2.6c0.3-0.6,0.6-1.1,0.9-1.7c0.3,0.3,0.7,0.6,1.2,0.9
		c0.3,0.1,0.6,0.3,0.9,0.3c0.3,0.1,0.5,0.1,0.8,0.1c0.1,0,0.2,0,0.3,0c1.4,0,2.8-0.7,3.6-1.8c0.1-0.2,0.3-0.4,0.4-0.6l0.2-0.3
		l0.1-0.2c1-2,0.4-4.3-1.3-5.6c0,0,0.1,0,0.1-0.1c0.3-0.2,0.6-0.5,0.9-0.7c1.2-0.9,2.6-1.7,4-2.4c1-0.5,2.1-1,3.2-1.4
		c0.2-0.1,0.3-0.1,0.5-0.2c0.9-0.3,1.8-0.5,2.8-0.7c0.4-0.1,0.8-0.2,1.1-0.2c1.3-0.2,2.6-0.3,3.9-0.3c0.2,0,0.5,0,0.7,0
		c1.5,0,3,0.2,4.5,0.5c1.1,0.2,2.2,0.5,3.3,0.9c0.4,0.2,0.9,0.3,1.3,0.5c0.7,0.3,1.4,0.6,2.1,1c0.7,0.4,1.3,0.8,1.9,1.2
		c1.2,0.8,2.3,1.7,3.4,2.6c1.1,1,2.2,2.1,3.1,3.3c0.7,1,1.4,2,2,3c0.2,0.3,0.3,0.5,0.5,0.8c0.6,1.2,1.2,2.3,1.6,3.6
		c0.6,1.7,1.1,3.4,1.4,5.1c0.2,1.4,0.4,2.7,0.4,4.1c0.1,1.7,0,3.4-0.3,5c0,0,0,0.1,0,0.1c-0.2,1.6-0.6,3.1-1.1,4.7
		c-0.2,0.5-0.3,0.9-0.5,1.4c-0.1,0.4-0.3,0.8-0.5,1.1c-0.2,0.4-0.3,0.8-0.6,1.3c0,0,0,0,0,0c-0.3,0.6-0.7,1.2-1,1.8
		c-0.2,0.4-0.5,0.8-0.8,1.2c-0.1,0.1-0.2,0.3-0.3,0.4C180.7,305.3,180.2,306,179.6,306.6z M225.1,350.6l-0.4-0.3
		c3-1.1,5.7-2.8,7.9-5c9.2-8.7,11.9-24.9,1-40.7c4.6-2.5,8.5-7.1,11-13c1.9-4.4,2.7-9,2.6-13.4l135-32.8c2.4-0.6,3.8-3,3.3-5.4
		c-0.6-2.4-3-3.8-5.4-3.3l-134.5,32.7c-1-2.8-2.4-5.4-4.2-7.7c-4.7-5.8-13.8-11.9-31.2-10.9l144.4-35.1c2.4-0.6,3.8-3,3.3-5.4
		c-0.6-2.4-3-3.8-5.4-3.3l-143.1,34.8c0.8-9.9-0.9-17-3.5-22.1l118.6-28.8c2.4-0.6,3.8-3,3.3-5.4c-0.6-2.4-3-3.8-5.4-3.3
		l-122.4,29.8c-6.9-6-16.9-7.9-26.5-4.9c-6,1.9-10.9,5.5-13.9,10c-13.8-12.6-28.9-11.4-38-4.2c-7.9,6.3-12.3,18.1-6.9,31.7
		c-3.5-0.3-6.6-0.3-9.4-0.1l-32.8-29c1-0.3,1.9-0.7,2.8-1.1l245.1-60c0.2,0.2,0.4,0.4,0.6,0.6c1.3,1.1,3.2,1.3,4.7,0.6l152.8,131.4
		L225.1,350.6z"/>
	<path class="st0" d="M359.5,275.1c-0.1,0-0.1,0-0.2-0.1c-10.1-3.3-15.5,2.2-19.4,6.3c-1.9,2-3.6,3.6-5.5,4.3
		c-0.8,0.3-2.1,0.2-3.5,0c2.1-3,2.2-5.8,2.1-7.1c-0.3-3.3-2.5-6.1-5.4-7.2c-3.1-1.1-6.4-0.2-8.9,2.3c-3.4,3.4-4.3,7.5-2.7,11.3
		c-7.1,3-12.2,5.5-14,9.1c-2.1,4.2-3.9,8.4-5.7,12.4c-0.8,1.8-1.5,3.6-2.3,5.4c-1,2.2,0,4.9,2.2,5.9c0.6,0.3,1.2,0.4,1.8,0.4
		c1.7,0,3.3-1,4.1-2.6c0.8-1.8,1.6-3.6,2.4-5.5c1.7-3.9,3.4-7.9,5.4-11.8c1.2-1.5,7.6-4.2,10.4-5.4c0.8-0.4,1.6-0.7,2.3-1
		c4.6,2.7,10.5,3.8,14.8,2.3c3.9-1.3,6.6-4,8.9-6.5c3.3-3.4,5.1-5.1,8.5-4.5c0.8,3.7,1.5,12.4,1.3,16.8c-0.1,0-0.2,0-0.4-0.1
		c-0.9-0.1-2-0.3-3.1-0.3c-2.4,0-4.4,2-4.4,4.4s2,4.4,4.4,4.4c0.4,0,1.1,0.1,1.7,0.2c2,0.3,4.6,0.7,7.3-0.7
		c2.8-1.4,3.5-4.4,3.2-13.1C364.2,276.9,361.4,275.8,359.5,275.1z M357.7,300C357.7,300,357.7,300,357.7,300c0,0,0.1,0,0.1-0.1
		C357.8,299.9,357.8,299.9,357.7,300z"/>
	<path class="st0" d="M383.1,265.4c-0.7-1-1.8-2.7-3.1-5.3c-1-2.1-3.5-3-5.7-2.1c-3.4,1.4-2.7,4.7-2.4,6.4c0.2,0.9,0.5,2.3,0.8,3.9
		c0.7,3.2,1.5,7.4,2.4,11.7c3.6,17.4,3.8,17.9,3.9,18.3c0.6,1.8,2.4,3,4.2,3c0.4,0,0.8,0,1.1-0.2c3-0.8,3.4-2.9,3.1-5.5l0,0
		c0,0,0,0,0-0.1c-0.1-0.9-0.3-1.9-0.5-2.9c-0.5-2.3-1.2-6-2.2-11.3c-0.1-0.6-0.3-1.1-0.6-1.5c-0.3-1.4-0.6-2.8-0.9-4.2c0,0,0,0,0,0
		c1.8,0,3.2-0.7,4.2-1.6c4.3,2.4,9.8,4,16.9-1.6c0.2-0.2,0.4-0.4,0.7-0.6c0.4,0.9,0.8,1.8,1,2.6c0.6,2.4,3.1,3.8,5.4,3.1
		c2.4-0.6,3.8-3.1,3.1-5.4c-0.5-1.9-1.3-3.5-1.9-4.9c-0.8-1.7-1.5-3.2-1.5-4.5c0-3.9,0-7.6-4-8.2c-3.9-0.6-5.1,3.1-5.7,4.9
		c-0.4,1.3-1.7,5.1-2.7,6c-3.7,3-4.9,2.2-9.4-0.8l-0.4-0.2c-1-0.7-2.3-0.9-3.5-0.7C384.5,264.2,383.7,264.8,383.1,265.4z"/>
	<path class="st0" d="M151.4,282.6c0.2,0.2,0.4,0.3,0.7,0.4c0,0,0,0,0,0c0.6,0.3,1.3,0.5,2,0.5c1.7,0,3.3-0.9,4-2.5l0.2-0.5
		c0.1-0.3,0.2-0.6,0.3-0.9c0.4-1.5-0.1-3.2-1.2-4.3c-0.3-0.3-0.7-0.7-1.2-0.9c-1.2-0.6-2.5-0.6-3.6-0.2c-0.3,0.1-0.5,0.2-0.7,0.4
		c-0.7,0.4-1.3,1-1.7,1.8L150,277c-0.1,0.2-0.2,0.5-0.3,0.7c-0.1,0.3-0.1,0.5-0.2,0.8C149.4,280.1,150.1,281.7,151.4,282.6z"/>
	<path class="st0" d="M142.1,282.4c-0.5-0.3-1.1-0.4-1.7-0.5c-1.6-0.1-3.1,0.6-4,1.9c-0.1,0.2-0.3,0.4-0.4,0.6l0,0.1l-0.2,0.4
		c0,0.1,0,0.1-0.1,0.2c-0.7,1.6-0.4,3.4,0.6,4.7c0.2,0.2,0.3,0.4,0.6,0.6c0.3,0.2,0.6,0.5,0.9,0.6c0.6,0.3,1.3,0.5,2,0.5
		c0.5,0,1-0.1,1.5-0.3c0.7-0.3,1.4-0.7,1.9-1.3c0.2-0.3,0.5-0.6,0.6-1l0.2-0.5C145.2,286.2,144.3,283.5,142.1,282.4z"/>
	<path class="st0" d="M152.9,298.4c0.6,0.3,1.3,0.5,2,0.5c1.7,0,3.3-0.9,4-2.5l0.2-0.5c0.6-1.1,0.6-2.3,0.2-3.4
		c-0.4-1.1-1.2-2.1-2.3-2.6c-0.3-0.2-0.7-0.3-1.1-0.4c-2-0.4-4,0.5-5,2.4l-0.1,0.1l-0.2,0.4c-0.5,1.1-0.6,2.3-0.2,3.4
		c0.2,0.5,0.4,1,0.8,1.4c0.3,0.4,0.7,0.8,1.2,1C152.7,298.3,152.8,298.4,152.9,298.4z"/>
	<path class="st0" d="M158.7,305.8c-1.7-0.7-3.6-0.2-4.9,1c-0.1,0.1-0.3,0.3-0.4,0.5c-0.2,0.3-0.4,0.6-0.6,1l-0.2,0.6
		c-0.2,0.5-0.3,1-0.3,1.5c0,0.8,0.2,1.7,0.6,2.4c0.5,0.9,1.2,1.6,2.3,2c0.2,0.1,0.4,0.1,0.6,0.2c0.3,0.1,0.7,0.1,1,0.1
		c0.2,0,0.3,0,0.5,0c1.6-0.2,3.1-1.2,3.7-2.8l0.2-0.6l0,0c0.7-1.8,0.2-3.8-1.2-5C159.7,306.3,159.2,306,158.7,305.8z"/>
	<path class="st0" d="M173.7,295.6c-0.3-0.5-0.7-1-1.3-1.4c-0.2-0.1-0.4-0.3-0.6-0.4c-2.2-1.1-4.9-0.2-6.1,2l-0.2,0.5
		c-0.2,0.4-0.3,0.8-0.4,1.2c-0.1,0.6-0.1,1.3,0,1.9c0.3,1.3,1.1,2.4,2.3,3c0.6,0.3,1.3,0.5,2,0.5c0.5,0,1-0.1,1.4-0.2
		c0.9-0.3,1.8-0.9,2.3-1.8c0.1-0.2,0.2-0.3,0.3-0.5l0.2-0.3l0.1-0.2c0.4-0.8,0.5-1.6,0.4-2.4C174.2,296.8,174,296.2,173.7,295.6z"/>
</g>
</svg>
