<?xml version="1.0" encoding="utf-8"?>
<!-- Generator: Adobe Illustrator 27.2.0, SVG Export Plug-In . SVG Version: 6.00 Build 0)  -->
<svg version="1.1" id="Layer_1" xmlns="http://www.w3.org/2000/svg" xmlns:xlink="http://www.w3.org/1999/xlink" x="0px" y="0px"
	 viewBox="0 0 500 500" style="enable-background:new 0 0 500 500;" xml:space="preserve">
<style type="text/css">
	.st0{fill:#808080;}
</style>
<g>
	<path class="st0" d="M129.3,195.2c35.6,23.8,92.5,28.1,138.2,31.5c4,0.3,7.9,0.6,11.8,0.9c0.1,0,0.2,0,0.3,0c2,0,4.1,0,6.1,0
		c46.7,0,91.6-6.1,140.6-19c0.2,0,0.3-0.1,0.5-0.1c12-4.5,20.8-13,22.4-21.6c1.3-6.2,0.3-9.1-4.4-13.2c-8.5-7.5-20.2-5-35.2,1.2
		l-9.1,3.7c-1.4-5.5-2.8-18.1-3.1-46.3c-0.4-42.4-0.7-46.5-3.8-55.1c-4.2-11.5-9.4-18.5-18.6-24.9c-18.8-13.1-62-22.7-100.4-22.4
		c0,0-0.1,0-0.1,0c-5.5,0.1-10.5,0.4-15.4,0.8c-32.9,3-52,9.3-65.9,21.6c-17.5,15.4-20.2,32.3-21,86.7c-0.2,16.9-0.8,29.8-1.2,35.7
		c-3.2-1.4-8.4-4-12.2-5.8c-18.1-9.1-30.1-12.9-38.1-5.8c-3.2,2.8-4.7,7.2-4.2,12.2C117.2,183,122.4,191,129.3,195.2z M127.2,170.2
		c3.3-3,11.5-0.8,27.4,7.2c8,4,12.3,6.1,15.2,7.1c4.5,1.5,7.8,0.6,9.7-2.8c0-0.1,0.1-0.1,0.1-0.2c1.5-3.1,2.1-27.9,2.3-42.4
		c0.8-57.1,4.3-67.7,17.8-79.6c12.2-10.9,29.8-16.4,60.4-19.3c4.7-0.4,9.5-0.7,14.8-0.8c0.5,0,1,0,1.5,0c35.8,0,76.5,9,93.3,20.7
		c7.5,5.2,11.6,10.7,15.1,20.3c2.5,7,2.8,11.4,3.2,51.9c0.4,41.2,3.3,51,6.1,55.2c1.3,1.9,3.7,2.7,5.8,1.8l13.6-5.5
		c16.1-6.6,21.7-5.9,25.2-2.9c1.3,1.1,1.6,1.5,1.6,1.5c0,0.1,0,0.7-0.3,2.5c-0.9,4.4-6.7,10.8-16.1,14.4
		c-50.2,13.2-95.9,19.2-143.8,18.6c-3.8-0.3-7.7-0.6-11.6-0.9c-44.6-3.3-100.1-7.5-133.6-29.9c-0.1,0-0.1-0.1-0.2-0.1
		c-4.9-2.9-7.9-8.6-8.2-12.7C126,173.4,126,171.2,127.2,170.2z"/>
	<path class="st0" d="M472.1,447.6l-67.6-136.1c4.9-3.7,9.3-7.3,12.6-10.7c16.3-16.4,22.2-40.7,13.9-56.4c-3-5.8-5.4-9.5-13.5-12.4
		c-11.9-4.3-18.7-2.2-26.6,2.9c-8.1,5.3-12.6,13.7-11.1,20.3c0.4,1.7,1.4,6.2,5.4,7.4c4.1,1.3,7.8-1.7,11.5-5.2
		c2.9-2.7,4.3-3.5,4.9-3.8c0.1,0.1,0.3,0.3,0.5,0.6c1.2,1.3,0.8,5-1.9,8.8c-5,6.7-13.6,10.2-41.2,7.4c-9.6-1-22.6-1.8-27.8-1.4
		c-7.5,0.4-14.4,2.2-20.4,5.2c0,0,0,0-0.1,0c-10.1,5.2-17.5,13.8-21.4,24.7l-1.9,5.2l-3.4-0.8c-13.6-3.4-22.5-2-35.3,5.5
		c-12.5,7.3-18.4,14.5-27.5,33.5c-7.5,15.7-14.9,25.1-23.3,29.6c-6.1,3.4-11,3.4-13.4,2.4c-1.3-0.6-2.1-1.5-2.4-2.7
		c-0.1-0.3-0.1-0.5-0.1-0.6c0.4-0.3,1.8-1,5.9-1.9c8.4-2,9.6-4,10.2-4.9c1.2-2.1,1.4-4.5,0.4-6.7c-1.6-3.6-6-6.4-12.2-7.7
		c0,0-0.1,0-0.2,0c-6.5-1.2-10.2-0.7-15.2,2.1c-7.3,3.9-13.1,6.9-16.2,18.9c-2.4,9.7-0.1,13.9,4.6,21c8.3,12.7,22.6,19.2,39.9,19.2
		c11.2,0,23.7-2.8,36.7-8.4c37.3-16.3,59.7-37.3,66.6-62.3l1.4-5l5.3,1.6c19,6,39.4,3.8,64.4-6.9c1.3-0.6,2.7-1.2,4-1.9l66.4,133.5
		c1.9,3.8,5.1,6.6,9,7.9c1.7,0.6,3.4,0.9,5.1,0.9c2.4,0,4.7-0.6,6.9-1.6C472.7,464.7,475.9,455.5,472.1,447.6z M312,327.5l-10.1-3.1
		c-1.2-0.4-2.6-0.2-3.7,0.4c-1.1,0.6-2,1.7-2.3,3l-2.7,9.8c-6.1,22.1-26.7,40.9-61.1,56c-28.7,12.5-53.5,9.8-64.6-7.2
		c-4-6.2-4.7-7.6-3.3-13.4c2-7.8,4.7-9.2,11.4-12.7c1.9-1.1,3.3-1.5,5.1-1.5c1,0,2.2,0.1,3.7,0.4c0.6,0.1,1.2,0.3,1.7,0.4
		c-0.1,0-0.2,0-0.3,0.1c-5.7,1.2-9.9,2.7-12.1,6.2c-1.4,2.2-1.7,4.8-1,8.1c1.1,4.2,3.9,7.5,8,9.3c6,2.6,14,1.6,21.9-2.8
		c10.2-5.5,18.9-16.3,27.4-33.9c8.3-17.3,13-23,23.7-29.3c10.6-6.2,16.9-7.2,28.1-4.5l7.7,1.9c2.4,0.6,4.8-0.7,5.7-3l3.4-9.3
		c3.2-8.8,8.8-15.3,16.8-19.4c4.9-2.4,10.5-3.8,16.7-4.2c0.1,0,0.1,0,0.2,0c3.9-0.3,15.5,0.2,26,1.3c23.8,2.5,40.4,1.4,49.9-11.2
		c5.5-7.5,6-15.9,1.3-21c-0.8-0.9-3.2-3.6-7.1-3.8c-4-0.2-7.4,2.2-12.1,6.5c-0.3,0.3-0.6,0.6-0.9,0.8c0.7-2.3,2.9-5.6,6.8-8.2
		c5.9-3.8,9.8-4.9,18.1-1.9c4.9,1.8,5.9,3.2,8.3,7.8c6.3,12,1,31.8-12.2,45.1c-2.6,2.7-6.1,5.6-10.1,8.7c-2.5,1.9-5.2,3.8-8,5.7
		c-3.4,2.3-6.9,4.5-10.4,6.5c-2.9,1.7-5.8,3.2-8.5,4.5c-1.2,0.6-2.4,1.2-3.6,1.6C347,330.7,328.7,332.8,312,327.5z M460.6,459.9
		c-1.4,0.7-3,0.8-4.5,0.3c-1.5-0.5-2.8-1.6-3.5-3.1l-66.5-133.7c3.5-2,7-4.1,10.4-6.4l66.9,134.7
		C464.9,454.8,463.6,458.4,460.6,459.9z"/>
	<path class="st0" d="M154.3,329.5c7.8,4,14.3,5.6,20.1,5.6c11,0,19.6-5.8,30.1-12.9c5.2-3.5,11.2-7.5,18.4-11.5c0,0,0,0,0,0
		c0.3-0.2,0.6-0.4,0.8-0.6c0,0,0.1-0.1,0.1-0.1c0.2-0.2,0.5-0.5,0.7-0.8c0,0,0-0.1,0-0.1c0.1-0.2,0.2-0.3,0.3-0.5
		c0-0.1,0.1-0.2,0.1-0.3c0.1-0.1,0.1-0.3,0.1-0.4c0.1-0.2,0.1-0.5,0.2-0.7c0-0.1,0-0.1,0.1-0.2c0,0,0-0.1,0-0.1c0-0.3,0-0.6,0-0.9
		c0-0.1,0-0.1,0-0.2c0-0.3-0.1-0.7-0.2-1c0-0.1-0.1-0.2-0.1-0.3c-0.1-0.2-0.2-0.5-0.3-0.7c-0.1-0.1-0.1-0.2-0.2-0.3
		c-0.1-0.2-0.3-0.4-0.5-0.6c0,0-0.1-0.1-0.1-0.2c-5.7-5.2-10.3-14-15.2-23.2c-10.2-19.3-22.8-43.1-51.4-38.2
		c-23.3-18.8-38.7-11.3-56.5-2.7c-9.8,4.7-20.9,10.1-35.4,11.9c-0.1,0-0.1,0-0.2,0c-0.3,0-0.6,0.1-0.9,0.2c-0.1,0-0.2,0.1-0.2,0.1
		c-0.3,0.1-0.6,0.3-0.9,0.5c0,0,0,0-0.1,0c-0.3,0.2-0.6,0.5-0.8,0.8c0,0.1-0.1,0.1-0.1,0.2c-0.2,0.2-0.3,0.5-0.5,0.7
		c0,0-0.1,0.1-0.1,0.1c0,0.1,0,0.1-0.1,0.2c-0.1,0.2-0.2,0.5-0.3,0.7c0,0.1-0.1,0.2-0.1,0.3c0,0,0,0.1,0,0.1c0,0.3,0,0.6,0,0.8
		c0,0,0,0.1,0,0.1c0,0.4,0.1,0.7,0.2,1.1c0,0.1,0.1,0.2,0.1,0.3c0.1,0.3,0.2,0.5,0.3,0.7c0,0.1,0,0.1,0.1,0.2c2.2,3.6,4,8.3,6,13.3
		c2.1,5.6,4.5,11.6,7.8,17.5L27.1,444.4c-1.3,4-1,8.3,1,12c2,3.7,5.3,6.5,9.2,7.7c1.6,0.5,3.2,0.8,4.8,0.8c2.4,0,4.7-0.6,6.9-1.7
		c3.8-1.9,6.6-5.2,8-9.4l44.4-142.2c0.7,0.3,1.5,0.6,2.3,0.8c0.3,0.1,0.6,0.2,1,0.2c3.2,0.4,9.2,2.2,14,3.7c2.6,0.8,5.1,1.5,7.1,2
		c5.9,1.4,11.7,3.3,17.3,5.7c4,1.7,7.8,3.5,11.2,5.4C154.2,329.5,154.3,329.5,154.3,329.5z M106.3,303.2c-0.7-0.3-1.4-0.5-2.1-0.8
		c-3.3-1.3-6.1-2.9-8.6-4.8c-3.8-2.8-6.8-6.2-9.3-9.8c-1.9-2.8-3.5-5.7-4.9-8.8c-1.7-3.6-3.2-7.4-4.6-11.1c-0.9-2.2-1.7-4.4-2.6-6.4
		c4.6,0.5,8.2,0.8,11.4,1c9,0.7,13.9,1.1,26,5.9c1.7,0.7,4.6,2.2,7.9,3.9c12.1,6.2,32.5,16.6,52.2,17.7c10.4,0.6,16.9,4.3,27.7,10.6
		c3.4,1.9,7,4,11.2,6.3c-4.2,2.6-8,5.1-11.5,7.5c-15.9,10.6-23.1,15.5-40.4,6.7c-3.8-2.1-7.8-4-12.1-5.8c-6.1-2.6-12.4-4.7-18.7-6.2
		c-1.7-0.4-4.1-1.1-6.6-1.9C116.2,305.5,110.3,303.8,106.3,303.2z M105,247.5c17.7-8.5,28.3-13.7,47.8,2.9c1.2,1,2.7,1.4,4.2,1
		c23.1-5.1,32.8,13.3,43.1,32.8c1.4,2.7,2.9,5.4,4.3,8c-0.1,0-0.1-0.1-0.2-0.1c-11.2-6.5-19.3-11.2-32-11.9
		c-17.7-1-36.8-10.8-48.3-16.7c-3.7-1.9-6.6-3.4-8.8-4.2c-10.4-4.2-16.4-5.4-23-6C96.8,251.5,101,249.4,105,247.5z M47.8,450.9
		c-0.5,1.6-1.7,3-3.1,3.7c-1.4,0.7-2.9,0.8-4.5,0.3c-1.6-0.5-2.8-1.5-3.6-2.9c-0.7-1.4-0.9-3-0.3-4.6l46.4-148.6
		c2.8,3.1,6.1,6,10,8.5L47.8,450.9z"/>
	<path class="st0" d="M200,123.8c2.7,0,4.8-2.2,4.8-4.8v-0.2c0-1.9,0-3.8,0-5.7c0.3-19.5,3.3-38.3,36.9-45c1.7-0.3,3.5-0.7,5.4-0.9
		c2.6-0.4,4.5-2.8,4.1-5.5c-0.4-2.6-2.8-4.5-5.5-4.1c-50.6,7.3-50.6,38.4-50.6,61.1v0.2C195.2,121.6,197.4,123.8,200,123.8z"/>
	<path class="st0" d="M264.7,65.2c2.7,0,4.8-2.2,4.8-4.8s-2.2-4.8-4.8-4.8h0c-2.7,0-4.8,2.2-4.8,4.8S262,65.2,264.7,65.2z"/>
</g>
</svg>
