<?xml version="1.0" encoding="utf-8"?>
<!-- Generator: Adobe Illustrator 27.2.0, SVG Export Plug-In . SVG Version: 6.00 Build 0)  -->
<svg version="1.1" id="Layer_1" xmlns="http://www.w3.org/2000/svg" xmlns:xlink="http://www.w3.org/1999/xlink" x="0px" y="0px"
	 viewBox="0 0 500 500" style="enable-background:new 0 0 500 500;" xml:space="preserve">
<style type="text/css">
	.st0{fill:#808080;}
</style>
<g>
	<path class="st0" d="M474.4,118.2c-19.7-42.3-57.3-70.7-100.6-76c-43-5.2-85.8,13.2-114.7,49.1c-3.3,4-6.8,8.8-9.1,11.9
		c-0.8-1.1-1.7-2.4-2.8-4c-27-39.9-68.4-60.4-116.4-57.6C87,44.1,49.4,67.1,30.4,103.2C2.1,157.6,10.3,218.8,54.7,284.9
		c33.7,50,94.9,107.3,163.6,153.3c0,0,0,0,0,0l29.5,19.7c0.8,0.5,1.7,0.8,2.7,0.8c1,0,1.9-0.3,2.7-0.9l20.1-13.9
		c70.1-48.3,123.6-95.5,158.9-140.3c35.6-45.3,53.8-89.4,54-131.2C486.1,150.4,483.1,136.8,474.4,118.2z M223.6,430.2
		c-67.7-45.3-127.9-101.6-161-150.6c-42.3-63-50.3-120.8-23.7-171.8c17.4-33.1,52-54.2,92.5-56.4c44.5-2.6,82.9,16.4,108,53.4
		c3.9,5.5,6,8.6,6.4,9.1c1,1.4,2.6,2.1,4.3,2c3-0.1,4.8-2.6,6.2-4.8c0.7-1.2,5.1-7.3,10.3-13.8c27.1-33.9,65.8-50.5,106-45.6
		c40.6,4.9,74.5,30.6,93.1,70.5c8.2,17.4,10.8,29.5,10.8,50.1c-0.4,79.9-70.6,168.6-208.7,263.7l-17.4,12.1L223.6,430.2z"/>
	<path class="st0" d="M155.7,127.4c-4.8,9.8-5.5,20.2-1.9,30.1c3.1,8.3,9.6,15.2,17.5,18.5c6.6,2.8,13.4,2.8,19.7,0
		c5.2-2.3,9.5-6.9,11.3-12c1.5-4.3,1.2-8.5-0.9-12.3c-1.7-3.2-4.8-5.7-8.2-6.5c-2.8-0.7-5.6-0.2-7.9,1.5c-2.2,1.5-2.7,4.5-1.2,6.7
		c1.5,2.2,4.5,2.7,6.7,1.1c0.4,0,1.6,0.6,2.2,1.7c0.8,1.5,0.9,3,0.3,4.7c-0.9,2.6-3.3,5.1-6,6.3c-4.8,2.1-9.2,1.1-12.1-0.1
		c-5.4-2.3-10.1-7.3-12.2-13c-3.4-9.3-1.1-17.4,1.5-22.6c4.5-9.2,13.1-16.5,23.1-19.7c15.2-4.9,28.2-0.7,36.4,3.7
		c6.9,3.7,13.1,9,18.1,15.2c-4.4,6.3-7.7,13.3-9.8,20.6c-5.8,20.4-2.9,43.2,8.1,62.5c0.9,1.6,2.5,2.4,4.2,2.4c0.8,0,1.6-0.2,2.4-0.6
		c0.7-0.4,1.2-0.9,1.6-1.5c0.6,0.2,1.2,0.4,1.8,0.4c1.7,0,3.3-0.9,4.2-2.5c10.9-19.6,13.8-42.3,8.1-62.5c-1.9-6.6-4.8-12.9-8.5-18.7
		c4.7-5.5,10.4-10.2,16.7-13.5c8.2-4.4,21.2-8.6,36.5-3.7c9.9,3.2,18.5,10.5,23,19.7c2.5,5.2,4.8,13.3,1.4,22.5
		c-2.1,5.8-6.8,10.8-12.2,13.1c-2.8,1.2-7.2,2.2-11.9,0.1c-2.7-1.2-5.2-3.7-6.1-6.3c-0.6-1.7-0.5-3.3,0.3-4.8c0.6-1,1.8-1.7,2.1-1.7
		l0,0c2.2,1.5,5.2,1,6.7-1.1c1.5-2.2,1-5.2-1.1-6.7c-2.2-1.6-5-2.1-7.8-1.5c-3.4,0.8-6.6,3.3-8.3,6.5c-2.1,3.8-2.4,8.3-0.9,12.5
		c1.8,5.2,6.2,9.8,11.4,12c6.2,2.7,13,2.7,19.5-0.1c7.9-3.3,14.4-10.3,17.5-18.6c3.6-9.8,3-20.2-1.8-30
		c-5.6-11.4-16.3-20.6-28.7-24.6c-14.4-4.6-30-3.1-44,4.4c-6.7,3.6-12.8,8.4-18,14.1c-5.6-6.5-12.3-12-19.7-16
		c-13.9-7.5-29.5-9-43.9-4.4C172.1,106.7,161.3,115.9,155.7,127.4z M253.2,152.3c4.9,17.2,2.6,36.6-6.4,53.6
		c-8.2-16.3-10.2-35-5.4-51.9c1.5-5.1,3.6-10,6.4-14.6C250,143.5,251.9,147.9,253.2,152.3z"/>
	<path class="st0" d="M150.7,116.7c10.3,0,18.6-8.3,18.6-18.6s-8.3-18.6-18.6-18.6c-10.3,0-18.7,8.3-18.7,18.6
		S140.4,116.7,150.7,116.7z M150.7,89.1c5,0,9,4,9,9c0,5-4,9-9,9c-5,0-9.1-4-9.1-9C141.6,93.1,145.7,89.1,150.7,89.1z"/>
	<path class="st0" d="M451,179.6c3.9-29.6-3.3-54.4-21.4-73.8c-0.2-0.5-0.5-0.9-0.8-1.3c-7.6-8.2-18.9-13.4-30.2-13.8
		c-10.4-0.4-20.3,3.2-27.7,10.2c-6.5,5.9-10.4,14.4-10.5,22.7c-0.1,6.7,2.3,12.6,7,17.1c3.7,3.5,8.9,5.6,14,5.6c0.3,0,0.6,0,0.9,0
		c4.7-0.2,9-2.3,12-5.7c2.6-2.9,4.1-7,3.7-10.6c-0.3-3-1.8-5.6-4.2-7.4c-2-1.5-4.7-2.1-7.2-1.6c-2.2,0.4-4,1.6-5.2,3.5
		c-1.5,2.3-0.8,5.3,1.5,6.8c1.7,1.1,3.7,1,5.3,0c0,0.9-0.5,2-1.3,2.8c-1.3,1.5-3,2.3-5.1,2.4c-2.7,0.1-5.7-1-7.6-2.8
		c-3.3-3.2-3.9-7.1-3.9-9.8c0.1-5.5,2.9-11.5,7.4-15.6c7.1-6.6,15.1-7.8,20.6-7.6c7.6,0.3,15.2,3.3,20.8,8.3c0,0,0.1,0.1,0.1,0.1
		c18.5,17.6,26,41,22.3,69.4c-2.3,17.6-8.8,36.1-18.3,54.9c10.2-28.8,13.5-57.9-12.6-77.1c-1.9-1.4-4.6-1.2-6.2,0.5
		c-26.8,26.7-15.7,54.1-6,78.3c2.6,6.4,5.3,13,7.2,19.4c0.5,1.7,1.9,3,3.6,3.3c-2.5,3.9-5.1,7.8-7.8,11.7c0.6-4.1,0.8-8.3,0.5-12.4
		c-0.9-14.3-6.8-26.7-17.2-35.7c-8.9-7.6-20.9-11.6-32.1-10.5c-9.4,0.9-17.2,5.1-22.8,12.1c-4.6,5.8-6.7,13.6-5.7,20.9
		c0.9,6.2,3.9,11.3,8.8,14.8c3.9,2.8,9.1,4,13.7,3.1c3.8-0.8,6.9-3,8.8-6.2c1.6-2.6,2.1-5.9,1.3-8.8c-0.7-2.5-2.4-4.5-4.7-5.6
		c-2.4-1.2-5.3-0.1-6.5,2.3c-1.1,2.3-0.2,4.9,1.8,6.2c0,0.2-0.1,0.6-0.2,0.8c0,0.1-0.1,0.1-0.1,0.2c-0.5,0.9-1.3,1.4-2.5,1.7
		c-1.9,0.4-4.3-0.2-6-1.4c-3.4-2.4-4.5-5.9-4.9-8.3c-0.7-4.6,0.8-9.8,3.7-13.5c4.9-6.2,11.5-8,16.1-8.5c8.5-0.8,18.1,2.3,24.9,8.2
		c10.5,9.2,13.3,20.8,13.8,29c0.8,13.8-4.2,28.2-13.5,38.5c-1,1.1-1.4,2.5-1.2,3.9c-7.3,8.5-14.9,16.8-22.9,24.9
		c7-13.2,8.6-27.6,1.1-43.9c-1-2.1-3.4-3.2-5.7-2.6c-36.3,10.4-39.9,39.8-43,65.7c-0.8,6.8-1.7,13.9-3.1,20.4
		c-0.3,1.4,0,2.8,0.9,3.9c-12.9,9.7-26,18.4-38.8,25.6c-2.9-7.3-10.1-12.5-18.4-12.5c-8,0-15,4.8-18.1,11.6
		c-12.3-7-24.8-15.4-37.2-24.7c0.8-1.1,1.2-2.5,0.9-3.9c-1.4-6.5-2.3-13.6-3.1-20.4c-3.2-25.9-6.7-55.3-43-65.7
		c-2.3-0.6-4.7,0.5-5.7,2.6c-7.6,16.4-5.7,31,1.5,44.3c-8.1-8.2-15.9-16.6-23.3-25.3c0.2-1.4-0.2-2.8-1.2-3.9
		c-9.3-10.3-14.4-24.7-13.6-38.5c0.5-8.1,3.3-19.8,13.9-29c6.8-5.9,16.4-9,24.9-8.2c4.6,0.5,11.1,2.3,16,8.5c3,3.7,4.4,8.9,3.8,13.5
		c-0.3,2.5-1.5,5.9-4.9,8.4c-1.8,1.3-4.2,1.8-6.1,1.4c-1.2-0.2-2-0.8-2.6-1.7c-0.1-0.3-0.2-0.6-0.2-0.9c2.1-1.3,3-4,1.9-6.2
		c-1.2-2.4-4-3.4-6.5-2.3c-2.2,1.1-3.9,3-4.6,5.5c-0.9,2.8-0.5,6.2,1.1,8.9c2,3.2,5.1,5.4,8.9,6.2c4.6,0.9,9.7-0.2,13.7-3.1
		c4.9-3.5,8-8.8,8.8-14.9c1-7.2-1.2-15-5.8-20.8c-5.5-7-13.3-11.2-22.6-12.1c-11.3-1.1-23.3,2.8-32.2,10.5
		c-10.4,9-16.4,21.4-17.3,35.7c-0.2,4-0.1,8.1,0.5,12.2c-2.7-3.8-5.2-7.7-7.7-11.6c1.7-0.4,3-1.6,3.5-3.3c1.9-6.3,4.6-12.9,7.1-19.3
		c9.8-24.3,21-51.8-5.8-78.5c-1.7-1.7-4.3-1.9-6.2-0.5c-26,19.1-22.8,48-12.8,76.8c-9.4-18.6-15.8-37.1-18.1-54.5
		c-3.7-28.4,3.8-51.8,22.3-69.4c0,0,0.1-0.1,0.1-0.1c5.7-4.9,13.2-8,20.8-8.3c5.5-0.2,13.6,0.9,20.6,7.6c4.4,4.1,7.2,10.1,7.2,15.6
		c0,2.7-0.6,6.7-3.8,9.8c-2,1.9-5,3-7.7,2.9c-2.1-0.1-3.8-0.9-5.1-2.4c-0.7-0.8-1.2-1.9-1.2-2.7c1.6,1,3.6,1.1,5.3,0
		c2.3-1.5,2.9-4.5,1.5-6.8c-1.2-1.8-3-3.1-5.2-3.5c-2.4-0.5-5.1,0.2-7.2,1.6c-2.4,1.7-3.9,4.4-4.2,7.4c-0.4,3.7,1,7.7,3.6,10.6
		c3,3.5,7.3,5.5,12,5.7c0.3,0,0.6,0,0.9,0c5.1,0,10.3-2,14-5.6c4.5-4.4,6.9-10.3,6.8-17c-0.1-8.3-4-16.8-10.4-22.7
		c-7.4-7-17.3-10.6-27.7-10.2c-11.3,0.4-22.6,5.6-30.2,13.8c-0.4,0.4-0.6,0.8-0.8,1.3c-18.1,19.4-25.3,44.1-21.4,73.8
		c10.5,79.5,101.7,179,181.5,223.6c0.9,10.3,9.3,18.1,19.8,18.1c9.9,0,18.1-7.3,19.6-16.9C347.6,360.4,440.4,259.8,451,179.6z
		 M410.5,239.6c-1.1-2.8-2.2-5.5-3.3-8.2c-9.4-23.4-17.6-43.7,0.9-64.8C426.6,182.8,423.5,206.9,410.5,239.6z M89.1,166.5
		c18.5,21.1,10.3,41.6,0.8,65c-1.1,2.6-2.2,5.3-3.2,8C73.5,206.2,70.6,182.7,89.1,166.5z M148.6,288.9c26.4,9.5,29,31.3,32.1,56.3
		c0.3,2.9,0.7,5.8,1.1,8.7C154.1,331.1,140.2,312,148.6,288.9z M247.7,411.7c-5.5,0-9.8-4.1-10.3-9.4c0-0.3,0-0.6,0-0.9
		c0-0.7,0.1-1.4,0.2-2.1c1-4.7,5.1-8.1,10.1-8.1c5.6,0,10.2,4.6,10.2,10.2C257.9,407.1,253.5,411.7,247.7,411.7z M316.6,345.3
		c3.1-25.1,5.7-46.9,32.1-56.3c8.4,23-5.5,42.1-33.2,65C315.9,351,316.3,348.1,316.6,345.3z"/>
	<path class="st0" d="M346.6,116.7c10.3,0,18.6-8.3,18.6-18.6s-8.3-18.6-18.6-18.6S328,87.8,328,98.1S336.4,116.7,346.6,116.7z
		 M346.6,89.1c5,0,9,4,9,9c0,5-4,9-9,9s-9-4-9-9C337.6,93.1,341.7,89.1,346.6,89.1z"/>
	<path class="st0" d="M301.9,274.7c-2.8,1.5-6.8,1-9.4-3.5c-1.3-2.3-4.3-3.1-6.6-1.7c-2.3,1.3-3.1,4.3-1.7,6.6
		c0.8,1.3,1.6,2.5,2.5,3.5c5.7,6.4,13.9,6.9,19.8,3.6c7.9-4.3,12.8-15.7,5.2-30.5c-4.8-9.4-18-13.9-30.7-10.3
		c-6.2,1.7-26,9.7-23.9,40.4l0.3,28.9l0.7,55.9c0,2.6,2.2,4.7,4.8,4.7c0,0,0,0,0.1,0c2.6,0,4.8-2.2,4.7-4.9l-0.2-16.9l-0.5-39
		l-0.3-29.1c0-0.1,0-0.2,0-0.3c-1.7-22.9,11.3-29.1,16.9-30.7c8.1-2.3,16.9,0.2,19.6,5.5C307.9,266.2,306,272.5,301.9,274.7z"/>
	<path class="st0" d="M312,196.2c-26.7-6.4-40.4,10.4-52.5,25.2c-0.5,0.6-1.1,1.3-1.6,1.9c-3.2-2.3-7.2-3.6-11.5-3.6
		c-3.2,0-6.2,0.8-8.9,2.1c-0.1-0.1-0.2-0.2-0.2-0.3c-12.1-14.8-25.8-31.7-52.6-25.3c-2.4,0.6-4,2.9-3.6,5.3
		c3.4,23.4,23.4,32.1,45.6,36.6c0,0.5-0.1,0.9-0.1,1.4c0,3.7,1.1,7.2,2.9,10.2c-5-4.7-10.5-6.7-13.2-7.4c-12.7-3.6-26,0.9-30.8,10.3
		c-7.5,14.8-2.5,26.2,5.4,30.5c5.9,3.2,14.1,2.7,19.8-3.6c0.9-1,1.8-2.2,2.5-3.5c1.3-2.3,0.6-5.2-1.7-6.6c-2.3-1.3-5.2-0.6-6.6,1.7
		c-2.6,4.5-6.7,5-9.5,3.5c-4.1-2.2-6.1-8.5-1.4-17.7c2.7-5.3,11.5-7.7,19.7-5.4c5.6,1.6,18.6,7.7,16.9,30.6c0,0.1,0,0.2,0,0.3
		l-0.3,29.1l-0.5,39l-0.2,16.9c0,2.6,2.1,4.8,4.7,4.9c0,0,0,0,0.1,0c2.6,0,4.8-2.1,4.8-4.7l0.7-55.9l0.3-28.9
		c0.9-12.9-2.1-21.8-6.3-27.9c3.4,2.8,7.8,4.5,12.5,4.5c11,0,19.9-8.9,19.9-19.8c0-0.2,0-0.5,0-0.7c23.6-4.3,45.8-12.7,49.3-37.3
		C315.9,199.1,314.4,196.8,312,196.2z M266.8,227.5c10-12.2,18.9-23,34-23c1.4,0,2.8,0.1,4.2,0.3c-4.3,14.1-18.4,20.5-39.7,24.6
		C265.9,228.7,266.3,228.1,266.8,227.5z M246.4,249.8c-5.5,0-10-4.4-10.2-9.9c0-0.1,0-0.2,0-0.3c0-1.6,0.4-3.1,1-4.4
		c0.6-1.3,1.4-2.4,2.5-3.3c1.2-1.1,2.7-1.9,4.4-2.3c0.8-0.2,1.5-0.3,2.4-0.3c1.9,0,3.6,0.5,5.1,1.4c1.4,0.8,2.6,1.9,3.5,3.3
		c0.4,0.6,0.7,1.1,0.9,1.8c0.5,1.2,0.8,2.5,0.8,3.9c0,0.3,0,0.6,0,0.8C256.3,245.8,251.9,249.8,246.4,249.8z M229.8,227.6
		c0.1,0.2,0.3,0.3,0.4,0.5c-0.2,0.3-0.4,0.6-0.6,0.9c-20.4-4.1-34-10.6-38.1-24.3C209.4,202.5,218.9,214.2,229.8,227.6z"/>
</g>
</svg>
