<?xml version="1.0" encoding="utf-8"?>
<!-- Generator: Adobe Illustrator 27.2.0, SVG Export Plug-In . SVG Version: 6.00 Build 0)  -->
<svg version="1.1" id="Layer_1" xmlns="http://www.w3.org/2000/svg" xmlns:xlink="http://www.w3.org/1999/xlink" x="0px" y="0px"
	 viewBox="0 0 500 500" style="enable-background:new 0 0 500 500;" xml:space="preserve">
<style type="text/css">
	.st0{fill:#808080;}
</style>
<g>
	<path class="st0" d="M466.5,65.4c-0.6-1.8-2-3.2-3.8-3.7C396.1,42,312.2,73.7,275.4,115.8c-0.1-0.3-0.2-0.6-0.3-1
		c-0.6-1.7-1.9-3-3.5-3.5c-22.3-7.6-31.8-4.7-40.1-2l-0.8,0.2c-1.3,0.4-2.4,1.2-3.1,2.4c-0.3,0.5-0.6,1-0.9,1.5
		C191,70.2,105.1,36.8,37.3,56.8c-1.8,0.5-3.2,1.9-3.8,3.7c-25,78-24.3,151.7,2.2,218.9c0,0.1,0.1,0.1,0.1,0.2
		c0.1,0.3,0.3,0.6,0.4,0.8c0.1,0.1,0.2,0.3,0.3,0.4c0.1,0.1,0.1,0.2,0.2,0.2c0.1,0.1,0.3,0.2,0.4,0.4c0.1,0.1,0.3,0.2,0.4,0.4
		c0.2,0.2,0.5,0.4,0.8,0.5c0.1,0.1,0.2,0.1,0.3,0.2c0.4,0.2,0.8,0.3,1.3,0.4c0,0,0,0,0,0c8.1,1.6,15.9,2.4,23.4,2.4
		c17.7,0,34-4.1,49.4-11c-16.3,41.4-20.6,83.6-24.2,119.6c-1.8,17.6-3.5,34.3-6.3,48.5c-0.4,2.1,0.4,4.3,2.1,5.6
		c1,0.8,2.2,1.1,3.4,1.1c0.9,0,1.8-0.2,2.6-0.6c61.2-31.3,84.5-27,126.8-19.2c2.5,0.5,5,0.9,7.6,1.4c1.6,0.3,3.3-0.1,4.6-1.2
		c1.3-1,2-2.6,2.1-4.3c1.6-63.7,4.9-132.4,18.1-204.4c13.7,35.5,19.9,71.9,26,107.2c4.3,24.9,8.7,50.6,15.7,75.7
		c0.2,0.6,0.5,1.2,0.8,1.8c3.1,4.3,7.4,5.7,11.6,5.7c5.5,0,10.9-2.4,13.4-3.4c9-3.9,20.3-11,33.4-19.3c23.9-15,53.6-33.7,87-44.7
		c1.8-0.6,3.1-2,3.7-3.7c0.5-1.8,0.2-3.7-1-5.1c-13.7-17.4-23.8-33.5-31.9-48.5c9.1,2.3,18.5,3.6,28.4,3.6c7.5,0,15.4-0.8,23.4-2.4
		c0,0,0,0,0,0c0,0,0,0,0,0c0,0,0,0,0,0c0.4-0.1,0.8-0.2,1.2-0.4c0.1-0.1,0.2-0.1,0.4-0.2c0.3-0.1,0.5-0.3,0.7-0.5
		c0.1-0.1,0.2-0.2,0.4-0.3c0.1-0.1,0.2-0.1,0.2-0.2c0.1-0.1,0.2-0.3,0.4-0.4c0.1-0.1,0.2-0.2,0.3-0.3c0.2-0.4,0.5-0.7,0.6-1.1
		c0,0,0,0,0,0C490.8,216.9,491.5,143.3,466.5,65.4z M148.7,75c31.6,11.8,58,30.1,72.3,49.6c-2.3,5.6-3.9,11.2-4.9,16.7
		c-20.7,1.9-38.2-8.2-56.6-18.9c-21.2-12.3-43-25-72.2-21.9c-3.1,0.3-5.4,3.1-5,6.2c0.3,3.1,3.1,5.4,6.2,5
		c25.4-2.7,44.8,8.5,65.3,20.4c17.6,10.2,35.6,20.7,57.2,20.7c1.2,0,2.5,0,3.7-0.1c0,0.1,0,0.1,0,0.2c-11.2,3.8-19.6,9.7-27.8,15.5
		c-15.9,11.3-29.6,21-63.7,14.1c-3.1-0.6-6.1,1.4-6.7,4.4c-0.6,3.1,1.4,6.1,4.4,6.7c8.6,1.7,16.2,2.5,22.9,2.5
		c9.1,0,16.7-1.4,23.3-3.7c10.4-3.6,18.4-9.2,26.3-14.8c6.6-4.7,13.1-9.3,20.9-12.5c0,1.1,0.1,2.2,0.1,3.3l-0.5,2.1l-2.8,13
		c-3.9,3.4-7.7,6.8-11.5,10.3c-14.2,8.2-26.5,14.7-37.5,20c-8.1,3.9-15.4,7.2-22.2,9.9c-13.7,5.6-25,9.3-35.2,12.6
		c-21.8,7.1-38.1,12.4-61.3,31.3c-22.4-61.9-22.4-129.5-0.1-201C74.7,58.4,112,61.3,148.7,75z M236.1,119.7c6.6-2,13.4-3.6,29.2,1.4
		c0.6,2,1.2,4,1.7,5.9c1.1,4.3,1.9,8.5,2.5,12.7c0.3,2,0.4,4.1,0.6,6.2c0,0.2,0,0.4,0,0.7c0.1,1,0.1,2,0.1,3c0,0.6,0,1.3,0,1.9
		c0,1.3,0,2.6-0.1,3.9c-0.1,1.8-0.2,3.7-0.3,5.7c-0.6,7-1.7,14.7-3.4,23.5c-4.6,3.7-9,5.8-13.5,6.4c-2.5,0.4-5,0.3-7.7-0.1
		c-1.2-0.2-2.4-0.4-3.6-0.8c-3.1-0.8-6.3-2.1-9.8-3.7c-1.6-0.7-3.2-1.5-4.9-2.4c-0.1-0.8-0.1-1.7-0.2-2.5c-0.3-4.1-0.5-8.1-0.7-12.1
		c0,0,0-0.1,0-0.1c-0.1-2.6-0.2-5.1-0.2-7.6c0-3.7,0.1-7.4,0.5-11c0-0.2,0-0.4,0.1-0.6c0.9-8.9,3.1-17.7,7.7-26.6
		C234.6,122.3,235.3,121,236.1,119.7z M108.3,247.2c6.3-2.1,13.2-4.3,21.1-7.2c5.4-2,11.3-4.2,17.6-6.9c5.6-2.4,11.7-5.1,18.2-8.2
		c-8.8,7.6-17.6,14.7-26.5,21.1c-6.2,4.4-12.5,8.5-19,12c-20,11.1-41.2,17.4-65.2,15.3C74.1,258.4,88.2,253.8,108.3,247.2z
		 M385.6,265.8c-14.6-7.3-28.4-17.3-42-28.6c14,6.2,25.7,10.6,35.7,14c5.2,1.7,9.9,3.2,14.3,4.5c3.9,1.2,7.6,2.2,11.1,3.2
		c17.3,5,28.2,8.1,41.7,19.2c-16.1,1.5-31-0.7-45.1-5.7C395.9,270.6,390.7,268.4,385.6,265.8z M407.8,248.1c-5.9-1.7-12.5-3.6-20-6
		c-4.4-1.4-9.2-3.1-14.4-5c-15.9-5.8-35.6-14.3-61.1-27.5c-0.5-0.5-1-1-1.6-1.4c-7.1-6.5-14.5-13.3-21.9-19.7l-5-22.9
		c7.1,3.2,13.1,7.4,19.2,11.8c12.6,9,25.6,18.2,48.5,18.5c0.4,0,0.8,0,1.2,0c3.8,0,7.8-0.2,12.2-0.8c3.4-0.4,7-1,10.8-1.7
		c3.1-0.6,5.1-3.6,4.4-6.7c-0.6-3.1-3.6-5.1-6.7-4.4c-6.1,1.2-11.6,1.9-16.5,2.2c-6.3,0.3-11.8-0.1-16.7-1
		c-12.6-2.5-21.2-8.6-30.6-15.3c-4.6-3.2-9.2-6.5-14.3-9.5c-4.2-2.4-8.8-4.5-13.9-6.2c0,0,0,0,0,0c1.4,0.1,2.8,0.1,4.2,0.1
		c6.6,0,12.8-1,18.9-2.6c13.7-3.8,26.1-11,38.3-18c19.6-11.4,39.9-23.2,65.5-20.4c3.1,0.3,5.9-1.9,6.2-5c0.3-3.1-1.9-5.9-5-6.2
		c-29.2-3.1-51.2,9.6-72.4,21.9c-18.3,10.6-35.6,20.7-56.2,18.9c-0.4-3.9-1-7.7-1.8-11.6c14.3-19.6,40.7-37.8,72.2-49.6
		c36.7-13.7,73.9-16.5,105.2-8.1c22.3,71.2,22.4,138.5,0.1,200.4C439.9,257.3,427.3,253.7,407.8,248.1z M220.2,418.3
		c-0.3-0.1-0.7-0.1-1-0.2c-40.9-7.6-66.5-12.3-123.9,15.3c1.8-11.9,3.1-24.9,4.5-38.4c4.1-40.3,8.6-85.7,28.3-128.6
		c24.6-14.2,47-34.7,69-54.8c3.1-2.8,6.2-5.7,9.3-8.5c4.8-2.8,9.8-5.8,15-8.9c4.8,2.5,9.7,4.8,14.9,6.3l3.5,10.3
		C225.7,284,221.9,353.7,220.2,418.3z M426.4,335.7c-31.7,11.6-59.4,29-82,43.3c-17,10.7-37.9,23.9-42.7,20.5
		c-6.6-24.2-10.9-49.2-15.1-73.4c-7-40.7-14.3-82.7-32.6-123.8c6.9-0.9,14-4,21.2-10.4c0.9-0.8,1.6-1.9,1.8-3.1
		c0-0.2,0.1-0.4,0.1-0.6l1,4.5c0.3,1.2,0.9,2.3,1.8,3.1c7.7,6.7,15.5,13.9,23.1,20.8c28.1,25.7,56.7,51.8,90,64.9
		C401.2,298,411.7,316.2,426.4,335.7z"/>
</g>
</svg>
