<?xml version="1.0" encoding="utf-8"?>
<!-- Generator: Adobe Illustrator 27.2.0, SVG Export Plug-In . SVG Version: 6.00 Build 0)  -->
<svg version="1.1" id="Layer_1" xmlns="http://www.w3.org/2000/svg" xmlns:xlink="http://www.w3.org/1999/xlink" x="0px" y="0px"
	 viewBox="0 0 500 500" style="enable-background:new 0 0 500 500;" xml:space="preserve">
<style type="text/css">
	.st0{fill:#808080;}
</style>
<path class="st0" d="M436.8,248.5c2.3-1.8,4.4-3.8,6.2-6.1c1.1-1.4,2.1-2.9,2.9-4.4c0.6-0.4,1.1-0.9,1.4-1.6
	c3.8-8.1,12.1-13.1,20.7-12.6c4.8,0.3,9.5,2.8,12.4,6.5c1.6,2,3.4,5.3,2.7,9.6c-0.5,2.8-2.5,5.7-4.9,7.1c-1.7,0.9-3.3,1.1-5,0.4
	c-0.4-0.2-0.9-0.7-1.2-1.3c1.7-0.6,2.8-2.3,2.7-4.1c-0.2-2.2-2.1-3.8-4.3-3.5c-4.3,0.4-6.1,3.2-6.5,5.7c-0.6,4.3,2.9,9.1,6.4,10.5
	c1.6,0.7,3.3,1,5,1c2.3,0,4.6-0.6,6.8-1.8c4.5-2.5,8-7.5,8.9-12.6c0.9-5.5-0.6-11.1-4.3-15.8c-4.3-5.4-11-8.9-18-9.5
	c-6.9-0.4-13.6,1.7-19,5.8c-0.1-0.8-0.1-1.6-0.3-2.4c-1.1-7.4-5.9-14.4-12.3-18c-5.1-2.9-10.7-3.2-15.9-1.1c-4.5,1.9-9.2,8.5-8.4,14
	c0.6,3.9,3.6,6.5,8.1,6.9c2.2,0.2,4.1-1.4,4.3-3.5c0.2-2.2-1.4-4.1-3.5-4.3c-0.7-0.1-1-0.2-1.1-0.3c-0.3-1.2,1.7-4.8,3.6-5.6
	c3-1.2,6-1,9,0.7c4.2,2.4,7.6,7.3,8.4,12.4c1.2,7.6-1.8,13.4-4.6,16.9c-3.7,4.7-9.2,8.1-15.1,9.6c-3.1,0-6.2,0.3-9.2,0.7
	c-11.8-0.9-22.6-8.5-28-20.2c3.1-22.8,3.1-49.6,0-80.9c-0.2-2.1-2.1-3.7-4.2-3.5c-77.8,6.4-111.3-16.5-118.1-29.5
	c-0.7-1.3-2-2.1-3.4-2.1c0,0,0,0,0,0c-1.4,0-2.7,0.8-3.4,2c-7.1,12.9-41,35.6-118.3,29.1c-2.1-0.2-4,1.4-4.2,3.5
	c-5.3,53.4-1.7,93.6,11.4,123.5c-15.8-12.4-27.8-19.2-39.9-22.6c1.2-0.7,2-2,1.9-3.5l-0.8-27.7c8.6,0,15.6-7,15.6-15.6
	c0-8.6-7-15.6-15.6-15.6H60.5c-8.6,0-15.6,7-15.6,15.6c0,8.6,7,15.6,15.6,15.6h0.6l0.8,27.9c0,0.4,0.1,0.8,0.2,1.2
	c-3.2,0.2-6.5,0.5-10,0.9c-12.4,1.2-30.7-7.7-36.3-17.5c-2.2-3.8-2.1-7.2,0.2-10.4c1.3-1.7,0.9-4.2-0.8-5.5
	c-1.7-1.3-4.2-0.9-5.5,0.8c-4.2,5.7-4.5,12.4-0.8,18.9c7.1,12.5,28.4,23,43.8,21.5c0.4,0,0.8-0.1,1.2-0.1c0,0.7,0.2,1.5,0.7,2.1
	l14.6,21.4c-19.5,9.5-33,29.5-33,52.6c0,32.3,26.3,58.5,58.5,58.5c32.2,0,58.4-26.3,58.4-58.5c0-22.7-13-42.5-32-52.2
	c0.1-0.1,0.3-0.2,0.4-0.4l7.7-8.6c7.2,5.1,15.2,11.6,24.8,19.8c2,2.9,4,5.6,6.2,8.2c20.9,24.9,52.9,38.7,97.7,42.2
	c0.1,0,0.2,0,0.3,0c0.1,0,0.2,0,0.3,0c43.5-3.1,74.9-16,95.8-39.6c-1.6,5.9-2.5,12.1-2.5,18.4c0,38.9,31.7,70.6,70.6,70.6
	s70.6-31.7,70.6-70.6C493.5,283.5,469.1,255,436.8,248.5z M52.8,200.4c0-4.3,3.5-7.7,7.7-7.7h44.7c4.3,0,7.7,3.5,7.7,7.7
	c0,4.3-3.4,7.7-7.7,7.7H60.5C56.2,208.1,52.8,204.7,52.8,200.4z M69,216h28.4l0.8,27.9c0,0.7,0.2,1.4,0.6,1.9
	c-8.8-1.8-18-1.9-29.1-1.3c0.1-0.3,0.1-0.6,0.1-0.9L69,216z M91.3,279.3c-0.2,0.4-0.3,0.9-0.3,1.4v35.4c-1.1,0.3-2.1,0.7-3,1.2
	l-25-25c-0.4-0.4-0.8-0.6-1.2-0.8C69.9,284.6,80.1,280.1,91.3,279.3z M101.2,329.1c0,0.2,0,0.5,0,0.7c0,0.2,0,0.5,0,0.7
	c-0.1,1.2-0.6,2.3-1.4,3.2c-0.3,0.3-0.6,0.6-0.9,0.9c-0.9,0.8-2.1,1.3-3.3,1.4c-0.2,0-0.4,0-0.6,0c-0.2,0-0.5,0-0.7,0
	c-1.2-0.1-2.3-0.6-3.2-1.3c-0.4-0.3-0.7-0.6-1-1c-0.7-0.9-1.2-2-1.4-3.2c0-0.2,0-0.5,0-0.7c0-0.2,0-0.5,0-0.7
	c0.1-1.2,0.6-2.3,1.3-3.2c0.3-0.4,0.7-0.8,1.1-1.1c0.9-0.7,1.9-1.2,3.1-1.3c0.3,0,0.5-0.1,0.8-0.1c0.2,0,0.5,0,0.7,0
	c1.2,0.1,2.3,0.6,3.2,1.4c0.4,0.3,0.7,0.7,1,1C100.6,326.8,101.1,327.9,101.2,329.1z M56.7,296.7c0.2,0.4,0.4,0.8,0.8,1.2l25,25.1
	c-0.5,0.9-0.9,1.9-1.2,2.9H45.9c-0.5,0-1,0.1-1.4,0.3C45.3,314.9,49.8,304.7,56.7,296.7z M44.5,333.5c0.4,0.2,0.9,0.3,1.4,0.3h35.4
	c0.3,1,0.7,2,1.2,2.9l-25,25.1c-0.4,0.4-0.6,0.8-0.8,1.2C49.7,354.9,45.3,344.7,44.5,333.5z M61.9,368.1c0.4-0.2,0.8-0.5,1.2-0.8
	l25.1-25.1c0.9,0.5,1.9,0.9,2.9,1.2v35.5c0,0.5,0.1,1,0.3,1.4C80.1,379.5,69.9,375.1,61.9,368.1z M98.7,380.3
	c0.2-0.4,0.3-0.9,0.3-1.4v-35.5c1-0.3,2-0.7,2.8-1.2l25,25.1c0.4,0.4,0.8,0.6,1.2,0.8C120,375.1,109.8,379.5,98.7,380.3z M133.2,363
	c-0.2-0.4-0.5-0.8-0.8-1.2l-25-25.1c0.5-0.9,0.9-1.9,1.2-2.9H144c0.5,0,1-0.1,1.4-0.3C144.6,344.7,140.1,354.9,133.2,363z
	 M145.4,326.2c-0.4-0.2-0.9-0.3-1.4-0.3h-35.4c-0.3-1-0.7-2-1.2-3l25-25c0.4-0.4,0.6-0.8,0.8-1.2
	C140.1,304.7,144.6,314.9,145.4,326.2z M128,291.5c-0.4,0.2-0.8,0.5-1.2,0.8l-25,25c-0.9-0.5-1.9-0.9-2.9-1.2v-35.4
	c0-0.5-0.1-1-0.3-1.4C109.8,280.1,120,284.6,128,291.5z M95,271.3c-6.3,0-12.4,1-18.2,2.9c-0.1-0.1-0.1-0.3-0.2-0.4l-14.2-20.8
	c26.1-2.1,40.4-1.3,60.6,11.4l-7,7.7c-0.7,0.8-1,1.8-1,2.8C108.8,272.5,102,271.3,95,271.3z M485.5,314.9c-0.7-0.7-1.6-1.1-2.7-1.1
	h-44c-0.4-1.6-1-3.2-1.9-4.6l31.1-31.1c0.7-0.7,1.1-1.7,1.1-2.7C478.8,286,484.9,299.7,485.5,314.9z M362.9,313.8
	c-1,0-2,0.4-2.7,1.1c0.7-15.2,6.8-28.9,16.4-39.4c0,1,0.4,1.9,1.1,2.7l31.1,31.1c-0.9,1.4-1.5,2.9-1.9,4.6H362.9z M425.5,325.9
	c-0.8,0.3-1.7,0.4-2.6,0.4c-0.9,0-1.8-0.1-2.6-0.4c-0.5-0.1-0.9-0.3-1.3-0.6c-1.6-0.8-2.9-2.1-3.7-3.7c-0.2-0.4-0.4-0.9-0.6-1.3
	c-0.3-0.8-0.4-1.7-0.4-2.6s0.1-1.8,0.4-2.6c0.1-0.5,0.3-0.9,0.6-1.3c0.8-1.6,2.1-2.9,3.7-3.7c0.4-0.2,0.9-0.4,1.3-0.6
	c0.8-0.3,1.7-0.4,2.6-0.4c0.9,0,1.8,0.1,2.6,0.4c0.5,0.1,0.9,0.3,1.3,0.6c1.6,0.8,2.9,2.1,3.7,3.7c0.2,0.4,0.4,0.9,0.6,1.3
	c0.3,0.8,0.4,1.7,0.4,2.6s-0.1,1.8-0.4,2.6c-0.1,0.5-0.3,0.9-0.6,1.3c-0.8,1.6-2.1,2.9-3.7,3.7C426.4,325.6,425.9,325.8,425.5,325.9
	z M414.7,255.8c1,0,1.9,0,2.9-0.1c0.7,0,1.3-0.1,2-0.2c-0.4,0.6-0.7,1.4-0.7,2.2v44c-1.6,0.4-3.2,1-4.6,1.9l-31.1-31.1
	c-0.7-0.7-1.7-1.1-2.7-1.1c8.8-8.1,20-13.7,32.3-15.6C413.5,255.8,414.1,255.8,414.7,255.8z M465.1,271.4c-1,0-1.9,0.4-2.7,1.1
	l-31.1,31.1c-1.4-0.9-2.9-1.5-4.6-1.9v-44c0-1-0.4-2-1.1-2.7C440.9,255.7,454.6,261.8,465.1,271.4z M397.6,251.8
	c-8.5,3.3-16.2,8.1-22.7,14.2c3.2-8.1,5.8-16.9,7.7-26.5C386.6,244.8,391.8,249,397.6,251.8z M214.5,256.5
	c-28.9,0.4-46.9-2.5-52-22.4c-3.1-12.3-3.9-27.6-5-48.8c-0.2-4.3-0.4-8.8-0.7-13.6l53.8-6.2c-0.1,0.4-0.2,0.8-0.1,1.2L214.5,256.5z
	 M218.4,166.3c0-0.6-0.2-1.2-0.5-1.7l41-4.8l33.1,4c-1.1,0.7-1.9,1.9-2,3.3l-2.5,89.2c-7.4-0.3-14.9-0.6-22.6-0.6c-2,0-4,0-6,0.1
	c-10.5-0.3-20.8,0-30.7,0.3c-2,0.1-3.9,0.1-5.8,0.2L218.4,166.3z M296.7,164.4l64.3,7.7c-0.3,4.8-0.5,9.3-0.7,13.6
	c-1.1,21.1-1.9,36.4-5,48.6c-5.6,21.8-26.4,23.3-59.9,22.2l2.5-89.3C297.9,166.2,297.5,165.1,296.7,164.4z M350.4,292.2
	C331,315.3,300.9,328,258.6,331c-12-0.9-23-2.6-33.1-5.1c0-0.1,0-0.2,0-0.4l-2-44.3c0.7,0.6,1.6,1,2.6,1h8.9c2.2,0,3.9-1.8,3.9-3.9
	s-1.8-3.9-3.9-3.9h-8.9c-1.1,0-2.1,0.5-2.8,1.2l-0.5-11.4c1.9-0.1,3.8-0.1,5.7-0.2c9.9-0.3,20.1-0.7,30.3-0.3c0.1,0,0.1,0,0.2,0
	c9.6-0.2,19.1,0.1,28.4,0.5l-0.8,30.4c-0.1,2.2,1.7,4,3.8,4c0,0,0.1,0,0.1,0c2.1,0,3.9-1.7,3.9-3.8l0.8-30.3
	c4.6,0.2,9.2,0.3,13.7,0.3c25.9,0,47.8-4.1,54-28.4c3.3-13,4.1-28.6,5.2-50.2c0.3-5.4,0.6-11.1,0.9-17.3c0.1-2.1-1.4-3.9-3.5-4.1
	L259.4,152c-0.3,0-0.6,0-0.9,0l-106.2,12.3c-2.1,0.2-3.6,2.1-3.5,4.1c0.4,6.1,0.6,11.8,0.9,17.2c1.1,21.6,1.9,37.2,5.2,50.4
	c6.7,26.1,31.5,28.8,60,28.4l2.7,59.4c-21.7-6.6-38.5-17.2-51-32.1c-1.3-1.5-2.5-3.2-3.7-4.8c-0.1-1-0.5-1.9-1.3-2.6
	c-0.4-0.4-0.8-0.7-1.2-1c-19.1-28.8-25.8-72.3-20.3-132.4c8.1,0.6,15.8,0.9,23,0.9c55.1,0,84.2-16.1,95.4-29.3
	c11,13.4,39.9,29.8,95.7,29.8c7.1,0,14.7-0.3,22.8-0.8C383.1,217.7,374.4,263.8,350.4,292.2z M360.2,320.6c0.7,0.7,1.6,1.1,2.7,1.1
	h44c0.4,1.6,1,3.2,1.9,4.6l-31.1,31.1c-0.7,0.7-1.1,1.7-1.1,2.7C366.9,349.5,360.9,335.7,360.2,320.6z M380.6,364.1
	c1,0,1.9-0.4,2.7-1.1l31.1-31.1c1.4,0.9,2.9,1.5,4.6,1.9v44c0,1,0.4,2,1.1,2.7C404.9,379.7,391.1,373.7,380.6,364.1z M425.7,380.4
	c0.7-0.7,1.1-1.6,1.1-2.7v-44c1.6-0.4,3.2-1,4.6-1.9l31.1,31.1c0.7,0.7,1.7,1.1,2.7,1.1C454.6,373.7,440.9,379.7,425.7,380.4z
	 M469.2,360c0-1-0.4-1.9-1.1-2.7l-31.1-31.1c0.9-1.4,1.5-2.9,1.9-4.6h44c1,0,2-0.4,2.7-1.1C484.9,335.7,478.8,349.5,469.2,360z"/>
</svg>
