<?xml version="1.0" encoding="utf-8"?>
<!-- Generator: Adobe Illustrator 27.2.0, SVG Export Plug-In . SVG Version: 6.00 Build 0)  -->
<svg version="1.1" id="Layer_1" xmlns="http://www.w3.org/2000/svg" xmlns:xlink="http://www.w3.org/1999/xlink" x="0px" y="0px"
	 viewBox="0 0 500 500" style="enable-background:new 0 0 500 500;" xml:space="preserve">
<style type="text/css">
	.st0{fill:#808080;}
</style>
<g>
	<path class="st0" d="M466.8,324.4c-1.2-4.3-2.3-8.8-3.4-13c-5-19.3-10.1-39.3-21-59.2c-1.1-2.1-2.7-4.2-4.4-6.2
		c10.6-21.3,15.4-42.2,15.5-64.6c0.1-19.4-2.5-31.6-10.3-48.5c-17.6-37.8-51.3-63.1-90-67.8c-39-4.7-76.4,11.3-102.5,43.9
		c-2.6,3.2-5.4,6.9-7.5,9.8c-0.8-1.1-1.5-2.1-1.9-2.8C217,80.5,180.1,62.3,137.1,64.7c-39.3,2.2-72.9,22.7-89.8,55
		c-22.1,42.5-19.3,89.6,8.4,140.2c-5.8,18.1-10.4,35-14.8,51.4c-1.2,4.4-2.4,8.7-3.5,13.1c-1.4,5.3-0.3,10.8,3.1,15.3
		c3.2,4.2,8.1,6.9,12.8,6.9h5.7c-1.9,2.4-3,5.3-3,8.4v65.8c0,8.2,7.7,14.9,17.3,14.9h21.9c2.7,0,4.9-2.2,4.9-4.9v-49
		c0-1.9,2.5-4,6.2-4h290c3.6,0,6.1,2.1,6.1,4v49c0,2.7,2.2,4.9,4.9,4.9h22.1c9.4,0,17.1-6.7,17.1-14.9v-65.8c0-3.1-1.1-6-3-8.4h7.7
		c4.6,0,9.4-2.6,12.6-6.8C467.1,335.2,468.2,329.6,466.8,324.4z M455.9,333.7c-1.6,2-3.6,3-4.8,3h-87.7h-12.1H53.2
		c-1.3,0-3.4-0.9-5-3c-0.9-1.2-2.3-3.6-1.4-6.7c1.2-4.4,2.4-8.7,3.6-13.1c3.7-13.7,7.5-27.8,12-42.5c0.6-2.1,1.3-4.2,2-6.3
		c0.7-2.1,1.3-4.2,2-6.3c0.3-0.9,0.6-1.9,0.9-2.8c2.8-8.3,4.4-11.5,8-12.7c6.7-2.2,13.4-4.2,20.1-6.1c6.6-1.8,13.2-3.4,19.9-4.9
		c8.5-1.9,17-3.5,25.5-4.9c30.9-5.1,61.7-7.2,90.4-7.4c1.6,0,3.3,0,4.9,0c1.6,0,3.3,0,4.9,0c4.7,0,9.4,0.1,14,0.2
		c1.6,0,3.3,0.1,4.9,0.1c1.6,0.1,3.3,0.1,4.9,0.2c15.7,0.6,30.4,1.7,43.8,2.9c7.3,0.7,14.5,1.5,21.4,2.3c12.3,1.5,23.9,3.2,34.5,4.9
		c10.1,1.6,19.2,3.3,27.3,4.9c13,2.6,23.1,4.9,29.5,6.5c1,1.6,2.7,3.3,4.6,5.3c0,0,0.1,0.1,0.1,0.1c1.1,1.1,2.3,2.4,3.5,3.8
		c1.2,1.4,2.4,2.8,3.3,4.1c0.3,0.5,0.6,1,0.9,1.4c10.3,18.8,15.1,37.3,20.1,56.9c1.1,4.3,2.3,8.8,3.5,13.2
		C458.2,330.1,456.8,332.5,455.9,333.7z M436.6,420.7c0,2.7-3.4,5.1-7.3,5.1h-17.2v-44.1c0-7.6-7.1-13.8-15.9-13.8h-290
		c-9,0-16,6.1-16,13.8v44.1h-17c-4.4,0-7.4-2.7-7.4-5.1v-65.8c0-2.7,3.4-5,7.4-5h356.1c4,0,7.3,2.3,7.3,5V420.7z M233.1,121.6
		c4.2,6.2,5.4,7.7,5.9,8.4c1,1.2,2.4,1.9,4,1.8c2.3,0,4.3-1.4,6.1-4.3c0.1-0.1,0.1-0.2,0.2-0.3c0.6-1,4.4-6.4,9-12
		c24-29.9,58.1-44.6,93.7-40.3c35.9,4.3,65.9,27,82.3,62.2c7.3,15.6,9.5,26.3,9.4,44.3c0,18.4-3.6,35.9-11.4,53.6
		c-1.4-0.5-4-1.2-9.4-2.5c-2.3-0.6-5.2-1.3-8.7-2.1c0.8-1.7,1.3-3.8,1.3-6.1v-28.4c0-6.8-4.8-9.7-6.4-10.7c0,0-0.1,0-0.1-0.1
		c-72.3-40.8-144.3-3.6-148.5,0.9c0,0-0.1,0.1-0.1,0.1c-0.3,0.3-0.6,0.6-1,1c-1.6,1.4-4.2,3.9-4.2,8.7v14.5c-4.6-0.1-9.3-0.2-14-0.2
		v-12.7c0-4.9-2.7-7.3-4.5-8.9c-0.3-0.3-0.6-0.6-0.9-0.9l0,0c-5.3-5-76.8-41.3-148.3-0.8c0,0-0.1,0-0.1,0.1
		c-1.6,0.9-6.4,3.8-6.4,10.5v28.5c0,1.8,0.3,3.5,0.9,4.9c-3.2,1-6.4,2-9.6,3c0,0,0,0,0,0c-6.6,2.2-9.8,7.4-12.1,13
		c-22-44.4-23.4-85.6-4.1-122.8c15.3-29.2,45.8-47.8,81.7-49.8C177.1,72.3,210.9,89,233.1,121.6z M90.9,227.5
		c-0.1-0.3-0.2-0.8-0.2-1.4v-28.5c0-0.8,0-1.1,1.5-2.1c35-19.8,69.4-19.4,92-15.6c24.8,4.2,42.2,13.4,44.6,15
		c0.4,0.4,0.8,0.7,1.2,1.1c1.2,1,1.2,1,1.2,1.6v12.7c-43.3,0.4-91.1,4.8-137.1,17.2H90.9z M405.6,224.3c0,0.7-0.1,1.2-0.2,1.5h-12.5
		c-19.1-3.8-47.2-8.5-80.1-11.8c-14.5-1.4-30.6-2.6-47.8-3.3v-14.9c0-0.5,0-0.5,1-1.5c0.4-0.4,0.9-0.8,1.4-1.4
		c2.7-1.7,20-10.8,44.6-14.9c22.7-3.8,57.1-4.2,92.1,15.5c1.5,0.9,1.5,1.3,1.5,2.2V224.3z"/>
	<path class="st0" d="M302.9,134c2.6,0.8,5.4-0.7,6.2-3.3c3.1-10.4,10.6-19.6,20.1-24.6c5.6-3,14.5-5.8,24.9-2.4
		c6.6,2.1,12.4,7.1,15.3,13c1.5,3.2,2.9,8.1,0.8,13.7c-1.2,3.3-4,6.3-7.1,7.6c-2.4,1-4.7,1.1-6.8,0.1c-1.3-0.6-2.5-1.9-3-3.1
		c-0.2-0.6-0.2-1-0.1-1.2c2,0.6,4.4-0.1,5.6-2c1.5-2.3,0.9-5.4-1.4-6.9c-1.9-1.2-4.1-1.6-6.3-1.1c-2.6,0.6-5,2.5-6.5,5
		c0,0-0.1,0.1-0.1,0.1c-1.5,2.8-1.7,6.2-0.6,9.3c1.3,3.8,4.5,7.2,8.4,8.9c2.3,1,4.7,1.5,7.1,1.5c2.5,0,5.1-0.5,7.5-1.6
		c5.7-2.4,10.3-7.4,12.5-13.3c2.6-7,2.2-14.4-1.2-21.5c-4.1-8.4-12-15.2-21.1-18.2c-10.7-3.4-22.3-2.3-32.6,3.1
		c-11.8,6.2-21.1,17.6-25,30.5C298.8,130.5,300.3,133.2,302.9,134z"/>
	<path class="st0" d="M119.9,147.1c2.5,1.1,5,1.6,7.5,1.6c2.4,0,4.9-0.5,7.2-1.5c3.8-1.7,7-5.1,8.4-8.9c1.1-3.2,0.9-6.5-0.6-9.3
		c0,0,0-0.1-0.1-0.1c-1.4-2.5-3.8-4.3-6.5-5c-2.2-0.5-4.5-0.1-6.3,1.1c-2.3,1.5-2.9,4.6-1.4,6.9c1.2,1.9,3.6,2.6,5.6,2
		c0.1,0.2,0.1,0.6-0.1,1.2c-0.4,1.2-1.7,2.5-2.9,3.1c-2.2,0.9-4.5,0.9-6.9-0.1c-3.1-1.3-5.9-4.3-7.1-7.6c-2.1-5.6-0.7-10.5,0.8-13.7
		c2.9-5.9,8.7-10.9,15.3-13c10.4-3.4,19.3-0.5,25,2.4c9.5,5,17,14.2,20.1,24.6c0.8,2.6,3.5,4.1,6.2,3.3c2.6-0.8,4.1-3.5,3.3-6.2
		c-3.9-12.9-13.2-24.3-25-30.5c-10.3-5.4-21.9-6.5-32.6-3.1c-9.2,3-17.1,9.8-21.1,18.2c-3.4,7-3.8,14.5-1.2,21.5
		C109.5,139.7,114.2,144.7,119.9,147.1z"/>
	<path class="st0" d="M245.4,165.4c15.6,0,30.9-6.6,44.4-19.9c1.9-1.9,2-5,0.1-6.9c-1.9-1.9-5-2-6.9-0.1
		c-23.8,23.3-52.6,22.7-79.1-1.6c-2-1.8-5.1-1.7-6.9,0.3c-1.8,2-1.7,5.1,0.3,6.9C212.7,158.3,229.2,165.4,245.4,165.4z"/>
	<path class="st0" d="M63.1,180.5c0.9,1.5,2.5,2.4,4.2,2.4c0.9,0,1.7-0.2,2.5-0.7c2.3-1.4,3.1-4.4,1.7-6.7
		c-7.4-12.3-6.5-36.9,5.7-49c1.9-1.9,1.9-5,0-6.9c-1.9-1.9-5-1.9-6.9,0C54.6,135,53.5,164.5,63.1,180.5z"/>
	<path class="st0" d="M89.1,114.7c2.7,0,4.9-2.2,4.9-4.9c0-2.7-2.2-4.9-4.9-4.9h0c-2.7,0-4.9,2.2-4.9,4.9
		C84.2,112.5,86.4,114.7,89.1,114.7z"/>
	<path class="st0" d="M432.1,279.4c-0.8-2.6-3.5-4.1-6.1-3.3c-2.6,0.8-4.1,3.5-3.3,6.1l5,16.3c3.8,11.5,2.4,13.5,2.4,13.6
		c-1.1,1-7.4,0.4-11.6,0c-5.6-0.5-12.5-1.1-20.3-0.6h-9h-6.8h-6.9h-34.5c-2.7,0-4.9,2.2-4.9,4.9c0,2.7,2.2,4.9,4.9,4.9h24.5h7.1h7
		h18.9c0.1,0,0.2,0,0.3,0c7.1-0.5,13.4,0.1,18.9,0.6c3.1,0.3,6,0.5,8.6,0.5c4.9,0,8.9-0.9,11.5-4.2c3.4-4.3,3.2-10.9-0.7-22.7
		L432.1,279.4z"/>
	<path class="st0" d="M318.8,309.5L318.8,309.5c-2.7,0-4.9,2.2-4.9,4.9c0,2.7,2.2,4.9,4.9,4.9c2.7,0,4.9-2.2,4.9-4.9
		C323.7,311.7,321.5,309.5,318.8,309.5z"/>
</g>
</svg>
